M48
INCH,TZ
T1C0.016
T2C0.025
T3C0.028
T4C0.032
T5C0.040
T6C0.059
T7C0.079
%
G90
G05
T1
X66969Y-33071
X66969Y-34882
X67481Y-33071
X67481Y-34882
X67993Y-33071
X67993Y-34882
X71574Y-33130
X71574Y-33130
X71574Y-33721
X71574Y-33721
X71574Y-34311
X71574Y-34311
X71574Y-34902
X71574Y-34902
X73622Y-33130
X73622Y-33130
X73622Y-33721
X73622Y-33721
X73622Y-34311
X73622Y-34311
X73622Y-34902
X73622Y-34902
T2
X64786Y-39238
X65919Y-37551
X66917Y-42076
X68316Y-38560
T3
X60709Y-31122
X60709Y-32106
X60709Y-33090
X60709Y-34074
T4
X60312Y-44276
X60312Y-46276
X60351Y-36594
X60351Y-42500
X61351Y-36594
X61351Y-42500
X62351Y-36594
X62351Y-42500
X63312Y-44276
X63312Y-46276
X63351Y-36594
X63351Y-42500
X63701Y-33594
X63701Y-34594
X64351Y-36594
X64351Y-42500
X64406Y-44276
X64406Y-46276
X65351Y-36594
X65351Y-42500
X66351Y-36594
X66351Y-42500
X67351Y-36594
X67351Y-42500
X67406Y-44276
X67406Y-46276
X68351Y-36594
X68351Y-42500
X69351Y-36594
X69351Y-42500
X70351Y-36594
X70351Y-42500
X70863Y-44276
X70863Y-46276
X71351Y-36594
X71351Y-42500
X72351Y-36594
X72351Y-42500
X73351Y-36594
X73351Y-42500
X73863Y-44276
X73863Y-46276
X74351Y-36594
X74351Y-42500
T5
X62854Y-30945
X63854Y-30945
X64854Y-30945
X65854Y-30945
X66854Y-30945
X67854Y-30945
X69134Y-43933
X69134Y-44933
X69134Y-45933
X69134Y-46933
X73043Y-26819
X73043Y-27819
X73043Y-28819
X73043Y-29819
X73043Y-30819
X74043Y-26819
X74043Y-27819
X74043Y-28819
X74043Y-29819
X74043Y-30819
T6
X61221Y-26929
X63189Y-26929
X65157Y-26930
X67125Y-26930
X69095Y-26929
X71063Y-26929
T7
X59213Y-25512
X59214Y-47165
X74961Y-25512
X74962Y-47165
T0
M30
