M48
;DRILL file {Pcbnew (2014-03-19 BZR 4756)-product} date Fri 10 Oct 2014 23:51:38 BST
;FORMAT={2:4/ absolute / inch / suppress leading zeros}
FMAT,2
INCH,TZ
T1C0.020
T2C0.024
T3C0.025
T4C0.032
T5C0.032
T6C0.035
T7C0.040
T8C0.059
T9C0.118
%
G90
G05
M72
T1
X80172Y-44710
X80172Y-46580
X80684Y-44710
X80684Y-46580
X81196Y-44710
X81196Y-46580
T2
X79602Y-40576
X79602Y-41167
X79602Y-41757
X79602Y-42348
X81767Y-40576
X81767Y-41167
X81767Y-41757
X81767Y-42348
T3
X87099Y-41043
T4
X76088Y-46541
X76088Y-47329
T5
X77574Y-33502
X77574Y-34502
X77574Y-35502
X77574Y-36502
X77574Y-37502
X77574Y-38502
X77574Y-39502
X77574Y-40502
X77574Y-41502
X77574Y-42502
X77574Y-43502
X77574Y-44502
X77574Y-45502
X77574Y-46502
X77574Y-47502
X83575Y-33502
X83575Y-34502
X83575Y-35502
X83575Y-36502
X83575Y-37502
X83575Y-38502
X83575Y-39502
X83575Y-40502
X83575Y-41502
X83575Y-42502
X83575Y-43502
X83575Y-44502
X83575Y-45502
X83575Y-46502
X83575Y-47502
X85131Y-46657
X85131Y-48547
X88123Y-46657
X88123Y-48547
X89167Y-46657
X89167Y-48547
X92159Y-46657
X92159Y-48547
T6
X79110Y-34474
X80094Y-34474
X81078Y-34474
X82062Y-34474
T7
X71401Y-32547
X71401Y-33547
X72401Y-32547
X72401Y-33547
X73401Y-32547
X73401Y-33547
X74401Y-32547
X74401Y-33547
X75401Y-32547
X75401Y-33547
X79086Y-37545
X80086Y-37545
X81086Y-37545
X82086Y-37545
T8
X70448Y-35508
X70448Y-37476
X70448Y-39445
X70448Y-41413
X70448Y-43394
X70448Y-45362
X72446Y-47328
X74414Y-47328
T9
X69365Y-33047
X69365Y-48007
X93775Y-33047
X93775Y-48007
T0
M30
