M48
;DRILL file {Pcbnew (2014-03-19 BZR 4756)-product} date Sat 05 Jul 2014 22:34:10 BST
;FORMAT={2:4/ absolute / inch / suppress leading zeros}
FMAT,2
INCH,TZ
T1C0.020
T2C0.024
T3C0.032
T4C0.032
T5C0.035
T6C0.040
T7C0.059
T8C0.118
%
G90
G05
M72
T1
X78968Y-44463
X78968Y-46333
X79480Y-44463
X79480Y-46333
X79992Y-44463
X79992Y-46333
T2
X78398Y-40329
X78398Y-40920
X78398Y-41510
X78398Y-42101
X80563Y-40329
X80563Y-40920
X80563Y-41510
X80563Y-42101
T3
X74884Y-46293
X74884Y-47081
T4
X76370Y-33254
X76370Y-34254
X76370Y-35254
X76370Y-36254
X76370Y-37254
X76370Y-38254
X76370Y-39254
X76370Y-40254
X76370Y-41254
X76370Y-42254
X76370Y-43254
X76370Y-44254
X76370Y-45254
X76370Y-46254
X76370Y-47254
X82371Y-33254
X82371Y-34254
X82371Y-35254
X82371Y-36254
X82371Y-37254
X82371Y-38254
X82371Y-39254
X82371Y-40254
X82371Y-41254
X82371Y-42254
X82371Y-43254
X82371Y-44254
X82371Y-45254
X82371Y-46254
X82371Y-47254
X84087Y-38783
X84087Y-41776
X84087Y-42917
X84087Y-45909
X85976Y-38783
X85976Y-41776
X85976Y-42917
X85976Y-45909
T5
X77906Y-34226
X78890Y-34226
X79874Y-34226
X80858Y-34226
T6
X70197Y-32299
X70197Y-33299
X71197Y-32299
X71197Y-33299
X72197Y-32299
X72197Y-33299
X73197Y-32299
X73197Y-33299
X74197Y-32299
X74197Y-33299
X77882Y-37297
X78882Y-37297
X79882Y-37297
X80882Y-37297
T7
X69244Y-35260
X69244Y-37228
X69244Y-39197
X69244Y-41165
X69244Y-43146
X69244Y-45114
X71242Y-47081
X73210Y-47081
T8
X68161Y-32799
X68161Y-47760
X86665Y-32799
X86665Y-47760
T0
M30
