%FSLAX34Y34*%
G04 Gerber Fmt 3.4, Leading zero omitted, Abs format*
G04 (created by PCBNEW (2014-03-19 BZR 4756)-product) date Sat 05 Jul 2014 22:34:08 BST*
%MOIN*%
G01*
G70*
G90*
G04 APERTURE LIST*
%ADD10C,0.005906*%
%ADD11R,0.025000X0.045000*%
%ADD12R,0.015700X0.023600*%
%ADD13C,0.058300*%
%ADD14R,0.045000X0.025000*%
%ADD15O,0.031496X0.043307*%
%ADD16R,0.031496X0.043307*%
%ADD17O,0.062992X0.039370*%
%ADD18R,0.062992X0.039370*%
%ADD19O,0.055118X0.086614*%
%ADD20R,0.055118X0.086614*%
%ADD21O,0.118700X0.078700*%
%ADD22R,0.068000X0.080000*%
%ADD23O,0.068000X0.080000*%
%ADD24R,0.023600X0.015700*%
%ADD25R,0.060000X0.060000*%
%ADD26C,0.060000*%
%ADD27C,0.055000*%
%ADD28R,0.055000X0.055000*%
%ADD29R,0.133900X0.133900*%
G04 APERTURE END LIST*
G54D10*
G54D11*
X75055Y-34472D03*
X74455Y-34472D03*
G54D12*
X75031Y-35062D03*
X74677Y-35062D03*
G54D13*
X74883Y-47081D03*
X74883Y-46293D03*
G54D14*
X87098Y-36445D03*
X87098Y-35845D03*
X85031Y-36445D03*
X85031Y-35845D03*
X87098Y-40579D03*
X87098Y-39979D03*
X87098Y-44713D03*
X87098Y-44113D03*
G54D15*
X79480Y-44462D03*
X79992Y-44462D03*
G54D16*
X78968Y-44462D03*
G54D15*
X79480Y-46332D03*
X79992Y-46332D03*
G54D16*
X78968Y-46332D03*
G54D17*
X80562Y-40919D03*
X80562Y-41509D03*
G54D18*
X80562Y-40328D03*
G54D17*
X80562Y-42100D03*
X78397Y-40919D03*
X78397Y-41509D03*
G54D18*
X78397Y-40328D03*
G54D17*
X78397Y-42100D03*
G54D19*
X79873Y-34226D03*
X78889Y-34226D03*
G54D20*
X80857Y-34226D03*
G54D19*
X77905Y-34226D03*
G54D21*
X69244Y-43145D03*
X69244Y-45113D03*
X69244Y-35260D03*
X69244Y-37228D03*
X69244Y-39197D03*
X69244Y-41165D03*
G54D22*
X77881Y-37297D03*
G54D23*
X78881Y-37297D03*
X79881Y-37297D03*
X80881Y-37297D03*
G54D24*
X87098Y-35141D03*
X87098Y-34787D03*
X85031Y-35141D03*
X85031Y-34787D03*
G54D11*
X79780Y-41017D03*
X79180Y-41017D03*
X79780Y-40328D03*
X79180Y-40328D03*
G54D24*
X87098Y-39275D03*
X87098Y-38921D03*
X87098Y-43409D03*
X87098Y-43055D03*
X78594Y-36135D03*
X78594Y-36489D03*
X78102Y-36135D03*
X78102Y-36489D03*
G54D25*
X74196Y-32299D03*
G54D26*
X74196Y-33299D03*
X73196Y-32299D03*
X73196Y-33299D03*
X72196Y-32299D03*
X72196Y-33299D03*
X71196Y-32299D03*
X71196Y-33299D03*
X70196Y-32299D03*
X70196Y-33299D03*
G54D27*
X76370Y-33253D03*
X82370Y-34253D03*
X82370Y-35253D03*
X82370Y-36253D03*
X82370Y-37253D03*
X82370Y-38253D03*
X82370Y-39253D03*
X82370Y-40253D03*
X82370Y-41253D03*
X82370Y-42253D03*
X82370Y-43253D03*
X82370Y-44253D03*
X82370Y-45253D03*
X82370Y-46253D03*
G54D28*
X82370Y-47253D03*
G54D27*
X76370Y-47253D03*
X76370Y-46253D03*
X76370Y-45253D03*
X76370Y-44253D03*
X76370Y-43253D03*
X76370Y-42253D03*
X76370Y-41253D03*
X76370Y-40253D03*
X76370Y-39253D03*
X76370Y-38253D03*
X76370Y-37253D03*
X76370Y-36253D03*
X76370Y-35253D03*
X76370Y-34253D03*
X82370Y-33253D03*
X84086Y-38783D03*
X85976Y-38783D03*
X84086Y-41775D03*
X85976Y-41775D03*
X84086Y-42917D03*
X85976Y-42917D03*
X84086Y-45909D03*
X85976Y-45909D03*
G54D29*
X68161Y-32799D03*
X86665Y-32799D03*
X86665Y-47759D03*
X68161Y-47759D03*
M02*
