%FSLAX34Y34*%
G04 Gerber Fmt 3.4, Leading zero omitted, Abs format*
G04 (created by PCBNEW (2014-03-19 BZR 4756)-product) date Sun 27 Jul 2014 23:33:24 BST*
%MOIN*%
G01*
G70*
G90*
G04 APERTURE LIST*
%ADD10C,0.005906*%
%ADD11C,0.004921*%
%ADD12C,0.015000*%
%ADD13C,0.010000*%
%ADD14C,0.003000*%
%ADD15C,0.012000*%
%ADD16C,0.003500*%
G04 APERTURE END LIST*
G54D10*
X74181Y-36170D02*
X73945Y-36170D01*
X73945Y-36260D01*
X73956Y-36282D01*
X73967Y-36294D01*
X73990Y-36305D01*
X74024Y-36305D01*
X74046Y-36294D01*
X74057Y-36282D01*
X74069Y-36260D01*
X74069Y-36170D01*
X74024Y-36507D02*
X74181Y-36507D01*
X74024Y-36406D02*
X74147Y-36406D01*
X74170Y-36417D01*
X74181Y-36440D01*
X74181Y-36474D01*
X74170Y-36496D01*
X74159Y-36507D01*
X74181Y-36620D02*
X74024Y-36620D01*
X74046Y-36620D02*
X74035Y-36631D01*
X74024Y-36654D01*
X74024Y-36687D01*
X74035Y-36710D01*
X74057Y-36721D01*
X74181Y-36721D01*
X74057Y-36721D02*
X74035Y-36732D01*
X74024Y-36755D01*
X74024Y-36789D01*
X74035Y-36811D01*
X74057Y-36822D01*
X74181Y-36822D01*
X74024Y-36935D02*
X74260Y-36935D01*
X74035Y-36935D02*
X74024Y-36957D01*
X74024Y-37002D01*
X74035Y-37025D01*
X74046Y-37036D01*
X74069Y-37047D01*
X74136Y-37047D01*
X74159Y-37036D01*
X74170Y-37025D01*
X74181Y-37002D01*
X74181Y-36957D01*
X74170Y-36935D01*
X74571Y-36170D02*
X74335Y-36170D01*
X74335Y-36260D01*
X74346Y-36282D01*
X74357Y-36294D01*
X74380Y-36305D01*
X74413Y-36305D01*
X74436Y-36294D01*
X74447Y-36282D01*
X74458Y-36260D01*
X74458Y-36170D01*
X74481Y-36406D02*
X74481Y-36586D01*
X74560Y-36687D02*
X74571Y-36721D01*
X74571Y-36777D01*
X74560Y-36800D01*
X74548Y-36811D01*
X74526Y-36822D01*
X74503Y-36822D01*
X74481Y-36811D01*
X74470Y-36800D01*
X74458Y-36777D01*
X74447Y-36732D01*
X74436Y-36710D01*
X74425Y-36699D01*
X74402Y-36687D01*
X74380Y-36687D01*
X74357Y-36699D01*
X74346Y-36710D01*
X74335Y-36732D01*
X74335Y-36789D01*
X74346Y-36822D01*
X74335Y-36901D02*
X74571Y-36957D01*
X74402Y-37002D01*
X74571Y-37047D01*
X74335Y-37104D01*
X74961Y-36282D02*
X74961Y-36170D01*
X74724Y-36170D01*
X74961Y-36361D02*
X74803Y-36361D01*
X74724Y-36361D02*
X74736Y-36350D01*
X74747Y-36361D01*
X74736Y-36372D01*
X74724Y-36361D01*
X74747Y-36361D01*
X74803Y-36575D02*
X74994Y-36575D01*
X75017Y-36564D01*
X75028Y-36552D01*
X75039Y-36530D01*
X75039Y-36496D01*
X75028Y-36474D01*
X74949Y-36575D02*
X74961Y-36552D01*
X74961Y-36507D01*
X74949Y-36485D01*
X74938Y-36474D01*
X74916Y-36462D01*
X74848Y-36462D01*
X74826Y-36474D01*
X74814Y-36485D01*
X74803Y-36507D01*
X74803Y-36552D01*
X74814Y-36575D01*
X74961Y-36687D02*
X74724Y-36687D01*
X74961Y-36789D02*
X74837Y-36789D01*
X74814Y-36777D01*
X74803Y-36755D01*
X74803Y-36721D01*
X74814Y-36699D01*
X74826Y-36687D01*
X74803Y-36867D02*
X74803Y-36957D01*
X74724Y-36901D02*
X74927Y-36901D01*
X74949Y-36912D01*
X74961Y-36935D01*
X74961Y-36957D01*
X75350Y-36282D02*
X75350Y-36170D01*
X75114Y-36170D01*
X75260Y-36361D02*
X75260Y-36541D01*
X75339Y-36642D02*
X75350Y-36676D01*
X75350Y-36732D01*
X75339Y-36755D01*
X75328Y-36766D01*
X75305Y-36777D01*
X75283Y-36777D01*
X75260Y-36766D01*
X75249Y-36755D01*
X75238Y-36732D01*
X75227Y-36687D01*
X75215Y-36665D01*
X75204Y-36654D01*
X75182Y-36642D01*
X75159Y-36642D01*
X75137Y-36654D01*
X75125Y-36665D01*
X75114Y-36687D01*
X75114Y-36744D01*
X75125Y-36777D01*
X75114Y-36856D02*
X75350Y-36912D01*
X75182Y-36957D01*
X75350Y-37002D01*
X75114Y-37059D01*
X75616Y-36170D02*
X75616Y-36249D01*
X75740Y-36282D02*
X75740Y-36170D01*
X75504Y-36170D01*
X75504Y-36282D01*
X75740Y-36384D02*
X75583Y-36384D01*
X75628Y-36384D02*
X75605Y-36395D01*
X75594Y-36406D01*
X75583Y-36429D01*
X75583Y-36451D01*
X75740Y-36530D02*
X75583Y-36530D01*
X75628Y-36530D02*
X75605Y-36541D01*
X75594Y-36552D01*
X75583Y-36575D01*
X75583Y-36597D01*
X75740Y-36710D02*
X75729Y-36687D01*
X75718Y-36676D01*
X75695Y-36665D01*
X75628Y-36665D01*
X75605Y-36676D01*
X75594Y-36687D01*
X75583Y-36710D01*
X75583Y-36744D01*
X75594Y-36766D01*
X75605Y-36777D01*
X75628Y-36789D01*
X75695Y-36789D01*
X75718Y-36777D01*
X75729Y-36766D01*
X75740Y-36744D01*
X75740Y-36710D01*
X75740Y-36890D02*
X75583Y-36890D01*
X75628Y-36890D02*
X75605Y-36901D01*
X75594Y-36912D01*
X75583Y-36935D01*
X75583Y-36957D01*
X76130Y-36282D02*
X76130Y-36170D01*
X75894Y-36170D01*
X76130Y-36361D02*
X75973Y-36361D01*
X75894Y-36361D02*
X75905Y-36350D01*
X75916Y-36361D01*
X75905Y-36372D01*
X75894Y-36361D01*
X75916Y-36361D01*
X75973Y-36474D02*
X76130Y-36474D01*
X75995Y-36474D02*
X75984Y-36485D01*
X75973Y-36507D01*
X75973Y-36541D01*
X75984Y-36564D01*
X76006Y-36575D01*
X76130Y-36575D01*
X76130Y-36687D02*
X75894Y-36687D01*
X76040Y-36710D02*
X76130Y-36777D01*
X75973Y-36777D02*
X76062Y-36687D01*
X74181Y-37520D02*
X73945Y-37520D01*
X73945Y-37576D01*
X73956Y-37610D01*
X73979Y-37632D01*
X74001Y-37643D01*
X74046Y-37655D01*
X74080Y-37655D01*
X74125Y-37643D01*
X74147Y-37632D01*
X74170Y-37610D01*
X74181Y-37576D01*
X74181Y-37520D01*
X73945Y-37857D02*
X73945Y-37812D01*
X73956Y-37790D01*
X73967Y-37778D01*
X74001Y-37756D01*
X74046Y-37745D01*
X74136Y-37745D01*
X74159Y-37756D01*
X74170Y-37767D01*
X74181Y-37790D01*
X74181Y-37835D01*
X74170Y-37857D01*
X74159Y-37868D01*
X74136Y-37880D01*
X74080Y-37880D01*
X74057Y-37868D01*
X74046Y-37857D01*
X74035Y-37835D01*
X74035Y-37790D01*
X74046Y-37767D01*
X74057Y-37756D01*
X74080Y-37745D01*
X74503Y-37542D02*
X74503Y-37655D01*
X74571Y-37520D02*
X74335Y-37598D01*
X74571Y-37677D01*
X74335Y-37801D02*
X74335Y-37823D01*
X74346Y-37846D01*
X74357Y-37857D01*
X74380Y-37868D01*
X74425Y-37880D01*
X74481Y-37880D01*
X74526Y-37868D01*
X74548Y-37857D01*
X74560Y-37846D01*
X74571Y-37823D01*
X74571Y-37801D01*
X74560Y-37778D01*
X74548Y-37767D01*
X74526Y-37756D01*
X74481Y-37745D01*
X74425Y-37745D01*
X74380Y-37756D01*
X74357Y-37767D01*
X74346Y-37778D01*
X74335Y-37801D01*
X74961Y-37520D02*
X74724Y-37520D01*
X74724Y-37576D01*
X74736Y-37610D01*
X74758Y-37632D01*
X74781Y-37643D01*
X74826Y-37655D01*
X74859Y-37655D01*
X74904Y-37643D01*
X74927Y-37632D01*
X74949Y-37610D01*
X74961Y-37576D01*
X74961Y-37520D01*
X74724Y-37733D02*
X74724Y-37891D01*
X74961Y-37790D01*
X75283Y-37542D02*
X75283Y-37655D01*
X75350Y-37520D02*
X75114Y-37598D01*
X75350Y-37677D01*
X75114Y-37868D02*
X75114Y-37756D01*
X75227Y-37745D01*
X75215Y-37756D01*
X75204Y-37778D01*
X75204Y-37835D01*
X75215Y-37857D01*
X75227Y-37868D01*
X75249Y-37880D01*
X75305Y-37880D01*
X75328Y-37868D01*
X75339Y-37857D01*
X75350Y-37835D01*
X75350Y-37778D01*
X75339Y-37756D01*
X75328Y-37745D01*
X75740Y-37520D02*
X75504Y-37520D01*
X75504Y-37576D01*
X75515Y-37610D01*
X75538Y-37632D01*
X75560Y-37643D01*
X75605Y-37655D01*
X75639Y-37655D01*
X75684Y-37643D01*
X75706Y-37632D01*
X75729Y-37610D01*
X75740Y-37576D01*
X75740Y-37520D01*
X75605Y-37790D02*
X75594Y-37767D01*
X75583Y-37756D01*
X75560Y-37745D01*
X75549Y-37745D01*
X75526Y-37756D01*
X75515Y-37767D01*
X75504Y-37790D01*
X75504Y-37835D01*
X75515Y-37857D01*
X75526Y-37868D01*
X75549Y-37880D01*
X75560Y-37880D01*
X75583Y-37868D01*
X75594Y-37857D01*
X75605Y-37835D01*
X75605Y-37790D01*
X75616Y-37767D01*
X75628Y-37756D01*
X75650Y-37745D01*
X75695Y-37745D01*
X75718Y-37756D01*
X75729Y-37767D01*
X75740Y-37790D01*
X75740Y-37835D01*
X75729Y-37857D01*
X75718Y-37868D01*
X75695Y-37880D01*
X75650Y-37880D01*
X75628Y-37868D01*
X75616Y-37857D01*
X75605Y-37835D01*
X76062Y-37542D02*
X76062Y-37655D01*
X76130Y-37520D02*
X75894Y-37598D01*
X76130Y-37677D01*
X76130Y-37880D02*
X76130Y-37745D01*
X76130Y-37812D02*
X75894Y-37812D01*
X75928Y-37790D01*
X75950Y-37767D01*
X75961Y-37745D01*
X74219Y-39567D02*
X73982Y-39567D01*
X73982Y-39623D01*
X73994Y-39657D01*
X74016Y-39679D01*
X74039Y-39691D01*
X74084Y-39702D01*
X74117Y-39702D01*
X74162Y-39691D01*
X74185Y-39679D01*
X74207Y-39657D01*
X74219Y-39623D01*
X74219Y-39567D01*
X74061Y-39904D02*
X74219Y-39904D01*
X73971Y-39848D02*
X74140Y-39792D01*
X74140Y-39938D01*
X74608Y-39567D02*
X74372Y-39567D01*
X74372Y-39623D01*
X74383Y-39657D01*
X74406Y-39679D01*
X74428Y-39691D01*
X74473Y-39702D01*
X74507Y-39702D01*
X74552Y-39691D01*
X74575Y-39679D01*
X74597Y-39657D01*
X74608Y-39623D01*
X74608Y-39567D01*
X74372Y-39916D02*
X74372Y-39803D01*
X74485Y-39792D01*
X74473Y-39803D01*
X74462Y-39826D01*
X74462Y-39882D01*
X74473Y-39904D01*
X74485Y-39916D01*
X74507Y-39927D01*
X74563Y-39927D01*
X74586Y-39916D01*
X74597Y-39904D01*
X74608Y-39882D01*
X74608Y-39826D01*
X74597Y-39803D01*
X74586Y-39792D01*
X74931Y-39589D02*
X74931Y-39702D01*
X74998Y-39567D02*
X74762Y-39646D01*
X74998Y-39724D01*
X74762Y-39781D02*
X74762Y-39938D01*
X74998Y-39837D01*
X75320Y-39589D02*
X75320Y-39702D01*
X75388Y-39567D02*
X75152Y-39646D01*
X75388Y-39724D01*
X75152Y-39904D02*
X75152Y-39859D01*
X75163Y-39837D01*
X75174Y-39826D01*
X75208Y-39803D01*
X75253Y-39792D01*
X75343Y-39792D01*
X75365Y-39803D01*
X75377Y-39814D01*
X75388Y-39837D01*
X75388Y-39882D01*
X75377Y-39904D01*
X75365Y-39916D01*
X75343Y-39927D01*
X75287Y-39927D01*
X75264Y-39916D01*
X75253Y-39904D01*
X75242Y-39882D01*
X75242Y-39837D01*
X75253Y-39814D01*
X75264Y-39803D01*
X75287Y-39792D01*
X75778Y-39567D02*
X75541Y-39567D01*
X75541Y-39623D01*
X75553Y-39657D01*
X75575Y-39679D01*
X75598Y-39691D01*
X75643Y-39702D01*
X75676Y-39702D01*
X75721Y-39691D01*
X75744Y-39679D01*
X75766Y-39657D01*
X75778Y-39623D01*
X75778Y-39567D01*
X75541Y-39781D02*
X75541Y-39927D01*
X75631Y-39848D01*
X75631Y-39882D01*
X75643Y-39904D01*
X75654Y-39916D01*
X75676Y-39927D01*
X75733Y-39927D01*
X75755Y-39916D01*
X75766Y-39904D01*
X75778Y-39882D01*
X75778Y-39814D01*
X75766Y-39792D01*
X75755Y-39781D01*
X74207Y-38600D02*
X74219Y-38633D01*
X74219Y-38690D01*
X74207Y-38712D01*
X74196Y-38723D01*
X74174Y-38735D01*
X74151Y-38735D01*
X74129Y-38723D01*
X74117Y-38712D01*
X74106Y-38690D01*
X74095Y-38645D01*
X74084Y-38622D01*
X74072Y-38611D01*
X74050Y-38600D01*
X74027Y-38600D01*
X74005Y-38611D01*
X73994Y-38622D01*
X73982Y-38645D01*
X73982Y-38701D01*
X73994Y-38735D01*
X74219Y-38836D02*
X73982Y-38836D01*
X73982Y-38892D01*
X73994Y-38926D01*
X74016Y-38948D01*
X74039Y-38960D01*
X74084Y-38971D01*
X74117Y-38971D01*
X74162Y-38960D01*
X74185Y-38948D01*
X74207Y-38926D01*
X74219Y-38892D01*
X74219Y-38836D01*
X74151Y-39061D02*
X74151Y-39173D01*
X74219Y-39038D02*
X73982Y-39117D01*
X74219Y-39196D01*
X74597Y-38600D02*
X74608Y-38633D01*
X74608Y-38690D01*
X74597Y-38712D01*
X74586Y-38723D01*
X74563Y-38735D01*
X74541Y-38735D01*
X74518Y-38723D01*
X74507Y-38712D01*
X74496Y-38690D01*
X74485Y-38645D01*
X74473Y-38622D01*
X74462Y-38611D01*
X74440Y-38600D01*
X74417Y-38600D01*
X74395Y-38611D01*
X74383Y-38622D01*
X74372Y-38645D01*
X74372Y-38701D01*
X74383Y-38735D01*
X74586Y-38971D02*
X74597Y-38960D01*
X74608Y-38926D01*
X74608Y-38903D01*
X74597Y-38870D01*
X74575Y-38847D01*
X74552Y-38836D01*
X74507Y-38825D01*
X74473Y-38825D01*
X74428Y-38836D01*
X74406Y-38847D01*
X74383Y-38870D01*
X74372Y-38903D01*
X74372Y-38926D01*
X74383Y-38960D01*
X74395Y-38971D01*
X74608Y-39185D02*
X74608Y-39072D01*
X74372Y-39072D01*
X74998Y-38746D02*
X74886Y-38667D01*
X74998Y-38611D02*
X74762Y-38611D01*
X74762Y-38701D01*
X74773Y-38723D01*
X74784Y-38735D01*
X74807Y-38746D01*
X74841Y-38746D01*
X74863Y-38735D01*
X74874Y-38723D01*
X74886Y-38701D01*
X74886Y-38611D01*
X74987Y-38937D02*
X74998Y-38915D01*
X74998Y-38870D01*
X74987Y-38847D01*
X74964Y-38836D01*
X74874Y-38836D01*
X74852Y-38847D01*
X74841Y-38870D01*
X74841Y-38915D01*
X74852Y-38937D01*
X74874Y-38948D01*
X74897Y-38948D01*
X74919Y-38836D01*
X74841Y-39016D02*
X74841Y-39106D01*
X74998Y-39050D02*
X74796Y-39050D01*
X74773Y-39061D01*
X74762Y-39083D01*
X74762Y-39106D01*
X75152Y-38577D02*
X75388Y-38656D01*
X75152Y-38735D01*
X75388Y-38915D02*
X75264Y-38915D01*
X75242Y-38903D01*
X75230Y-38881D01*
X75230Y-38836D01*
X75242Y-38813D01*
X75377Y-38915D02*
X75388Y-38892D01*
X75388Y-38836D01*
X75377Y-38813D01*
X75354Y-38802D01*
X75332Y-38802D01*
X75309Y-38813D01*
X75298Y-38836D01*
X75298Y-38892D01*
X75287Y-38915D01*
X75388Y-39061D02*
X75377Y-39038D01*
X75354Y-39027D01*
X75152Y-39027D01*
X75778Y-38735D02*
X75778Y-38600D01*
X75778Y-38667D02*
X75541Y-38667D01*
X75575Y-38645D01*
X75598Y-38622D01*
X75609Y-38600D01*
X75541Y-38813D02*
X75778Y-38870D01*
X75609Y-38915D01*
X75778Y-38960D01*
X75541Y-39016D01*
X75778Y-39106D02*
X75620Y-39106D01*
X75541Y-39106D02*
X75553Y-39095D01*
X75564Y-39106D01*
X75553Y-39117D01*
X75541Y-39106D01*
X75564Y-39106D01*
G54D11*
X78764Y-32194D02*
X78755Y-32175D01*
X78755Y-32147D01*
X78764Y-32119D01*
X78783Y-32100D01*
X78802Y-32091D01*
X78839Y-32082D01*
X78867Y-32082D01*
X78905Y-32091D01*
X78924Y-32100D01*
X78942Y-32119D01*
X78952Y-32147D01*
X78952Y-32166D01*
X78942Y-32194D01*
X78933Y-32203D01*
X78867Y-32203D01*
X78867Y-32166D01*
X78952Y-32288D02*
X78755Y-32288D01*
X78952Y-32400D01*
X78755Y-32400D01*
X78952Y-32494D02*
X78755Y-32494D01*
X78755Y-32541D01*
X78764Y-32569D01*
X78783Y-32588D01*
X78802Y-32597D01*
X78839Y-32606D01*
X78867Y-32606D01*
X78905Y-32597D01*
X78924Y-32588D01*
X78942Y-32569D01*
X78952Y-32541D01*
X78952Y-32494D01*
X79926Y-32124D02*
X79926Y-32030D01*
X79729Y-32030D01*
X79926Y-32189D02*
X79795Y-32189D01*
X79729Y-32189D02*
X79739Y-32180D01*
X79748Y-32189D01*
X79739Y-32199D01*
X79729Y-32189D01*
X79748Y-32189D01*
X79795Y-32367D02*
X79954Y-32367D01*
X79973Y-32358D01*
X79982Y-32349D01*
X79992Y-32330D01*
X79992Y-32302D01*
X79982Y-32283D01*
X79917Y-32367D02*
X79926Y-32349D01*
X79926Y-32311D01*
X79917Y-32292D01*
X79907Y-32283D01*
X79889Y-32274D01*
X79832Y-32274D01*
X79814Y-32283D01*
X79804Y-32292D01*
X79795Y-32311D01*
X79795Y-32349D01*
X79804Y-32367D01*
X79926Y-32461D02*
X79729Y-32461D01*
X79926Y-32546D02*
X79823Y-32546D01*
X79804Y-32536D01*
X79795Y-32517D01*
X79795Y-32489D01*
X79804Y-32471D01*
X79814Y-32461D01*
X79795Y-32611D02*
X79795Y-32686D01*
X79729Y-32639D02*
X79898Y-32639D01*
X79917Y-32649D01*
X79926Y-32667D01*
X79926Y-32686D01*
X80901Y-31983D02*
X80704Y-31983D01*
X80704Y-32058D01*
X80713Y-32077D01*
X80722Y-32086D01*
X80741Y-32096D01*
X80769Y-32096D01*
X80788Y-32086D01*
X80797Y-32077D01*
X80807Y-32058D01*
X80807Y-31983D01*
X80769Y-32264D02*
X80901Y-32264D01*
X80769Y-32180D02*
X80872Y-32180D01*
X80891Y-32189D01*
X80901Y-32208D01*
X80901Y-32236D01*
X80891Y-32255D01*
X80882Y-32264D01*
X80901Y-32358D02*
X80769Y-32358D01*
X80788Y-32358D02*
X80779Y-32367D01*
X80769Y-32386D01*
X80769Y-32414D01*
X80779Y-32433D01*
X80797Y-32442D01*
X80901Y-32442D01*
X80797Y-32442D02*
X80779Y-32452D01*
X80769Y-32471D01*
X80769Y-32499D01*
X80779Y-32517D01*
X80797Y-32527D01*
X80901Y-32527D01*
X80769Y-32621D02*
X80966Y-32621D01*
X80779Y-32621D02*
X80769Y-32639D01*
X80769Y-32677D01*
X80779Y-32696D01*
X80788Y-32705D01*
X80807Y-32714D01*
X80863Y-32714D01*
X80882Y-32705D01*
X80891Y-32696D01*
X80901Y-32677D01*
X80901Y-32639D01*
X80891Y-32621D01*
X81678Y-32306D02*
X81678Y-32213D01*
X81772Y-32203D01*
X81762Y-32213D01*
X81753Y-32232D01*
X81753Y-32278D01*
X81762Y-32297D01*
X81772Y-32306D01*
X81791Y-32316D01*
X81837Y-32316D01*
X81856Y-32306D01*
X81866Y-32297D01*
X81875Y-32278D01*
X81875Y-32232D01*
X81866Y-32213D01*
X81856Y-32203D01*
X81678Y-32372D02*
X81875Y-32438D01*
X81678Y-32503D01*
X79011Y-36487D02*
X78917Y-36421D01*
X79011Y-36374D02*
X78814Y-36374D01*
X78814Y-36449D01*
X78823Y-36468D01*
X78833Y-36477D01*
X78851Y-36487D01*
X78880Y-36487D01*
X78898Y-36477D01*
X78908Y-36468D01*
X78917Y-36449D01*
X78917Y-36374D01*
X79001Y-36646D02*
X79011Y-36627D01*
X79011Y-36590D01*
X79001Y-36571D01*
X78983Y-36562D01*
X78908Y-36562D01*
X78889Y-36571D01*
X78880Y-36590D01*
X78880Y-36627D01*
X78889Y-36646D01*
X78908Y-36655D01*
X78926Y-36655D01*
X78945Y-36562D01*
X78880Y-36712D02*
X78880Y-36787D01*
X79011Y-36740D02*
X78842Y-36740D01*
X78823Y-36749D01*
X78814Y-36768D01*
X78814Y-36787D01*
X79788Y-36360D02*
X79985Y-36426D01*
X79788Y-36491D01*
X79985Y-36641D02*
X79882Y-36641D01*
X79863Y-36632D01*
X79854Y-36613D01*
X79854Y-36576D01*
X79863Y-36557D01*
X79976Y-36641D02*
X79985Y-36623D01*
X79985Y-36576D01*
X79976Y-36557D01*
X79957Y-36548D01*
X79938Y-36548D01*
X79920Y-36557D01*
X79910Y-36576D01*
X79910Y-36623D01*
X79901Y-36641D01*
X79985Y-36763D02*
X79976Y-36745D01*
X79957Y-36735D01*
X79788Y-36735D01*
X80772Y-36416D02*
X80763Y-36398D01*
X80763Y-36370D01*
X80772Y-36341D01*
X80791Y-36323D01*
X80810Y-36313D01*
X80847Y-36304D01*
X80875Y-36304D01*
X80913Y-36313D01*
X80931Y-36323D01*
X80950Y-36341D01*
X80960Y-36370D01*
X80960Y-36388D01*
X80950Y-36416D01*
X80941Y-36426D01*
X80875Y-36426D01*
X80875Y-36388D01*
X80960Y-36510D02*
X80763Y-36510D01*
X80960Y-36623D01*
X80763Y-36623D01*
X80960Y-36716D02*
X80763Y-36716D01*
X80763Y-36763D01*
X80772Y-36791D01*
X80791Y-36810D01*
X80810Y-36820D01*
X80847Y-36829D01*
X80875Y-36829D01*
X80913Y-36820D01*
X80931Y-36810D01*
X80950Y-36791D01*
X80960Y-36763D01*
X80960Y-36716D01*
X81747Y-36416D02*
X81737Y-36398D01*
X81737Y-36370D01*
X81747Y-36341D01*
X81765Y-36323D01*
X81784Y-36313D01*
X81822Y-36304D01*
X81850Y-36304D01*
X81887Y-36313D01*
X81906Y-36323D01*
X81925Y-36341D01*
X81934Y-36370D01*
X81934Y-36388D01*
X81925Y-36416D01*
X81915Y-36426D01*
X81850Y-36426D01*
X81850Y-36388D01*
X81934Y-36510D02*
X81737Y-36510D01*
X81934Y-36623D01*
X81737Y-36623D01*
X81934Y-36716D02*
X81737Y-36716D01*
X81737Y-36763D01*
X81747Y-36791D01*
X81765Y-36810D01*
X81784Y-36820D01*
X81822Y-36829D01*
X81850Y-36829D01*
X81887Y-36820D01*
X81906Y-36810D01*
X81925Y-36791D01*
X81934Y-36763D01*
X81934Y-36716D01*
X80716Y-40495D02*
X80688Y-40504D01*
X80641Y-40504D01*
X80622Y-40495D01*
X80613Y-40485D01*
X80604Y-40466D01*
X80604Y-40448D01*
X80613Y-40429D01*
X80622Y-40420D01*
X80641Y-40410D01*
X80679Y-40401D01*
X80697Y-40391D01*
X80707Y-40382D01*
X80716Y-40363D01*
X80716Y-40345D01*
X80707Y-40326D01*
X80697Y-40316D01*
X80679Y-40307D01*
X80632Y-40307D01*
X80604Y-40316D01*
X80407Y-40485D02*
X80416Y-40495D01*
X80444Y-40504D01*
X80463Y-40504D01*
X80491Y-40495D01*
X80510Y-40476D01*
X80519Y-40457D01*
X80529Y-40420D01*
X80529Y-40391D01*
X80519Y-40354D01*
X80510Y-40335D01*
X80491Y-40316D01*
X80463Y-40307D01*
X80444Y-40307D01*
X80416Y-40316D01*
X80407Y-40326D01*
X80229Y-40504D02*
X80322Y-40504D01*
X80322Y-40307D01*
X80721Y-41144D02*
X80693Y-41154D01*
X80646Y-41154D01*
X80627Y-41144D01*
X80618Y-41135D01*
X80608Y-41116D01*
X80608Y-41097D01*
X80618Y-41079D01*
X80627Y-41069D01*
X80646Y-41060D01*
X80683Y-41050D01*
X80702Y-41041D01*
X80711Y-41032D01*
X80721Y-41013D01*
X80721Y-40994D01*
X80711Y-40975D01*
X80702Y-40966D01*
X80683Y-40957D01*
X80636Y-40957D01*
X80608Y-40966D01*
X80524Y-41154D02*
X80524Y-40957D01*
X80477Y-40957D01*
X80449Y-40966D01*
X80430Y-40985D01*
X80421Y-41004D01*
X80411Y-41041D01*
X80411Y-41069D01*
X80421Y-41107D01*
X80430Y-41125D01*
X80449Y-41144D01*
X80477Y-41154D01*
X80524Y-41154D01*
X80336Y-41097D02*
X80243Y-41097D01*
X80355Y-41154D02*
X80290Y-40957D01*
X80224Y-41154D01*
X80519Y-41606D02*
X80613Y-41606D01*
X80622Y-41700D01*
X80613Y-41691D01*
X80594Y-41681D01*
X80547Y-41681D01*
X80529Y-41691D01*
X80519Y-41700D01*
X80510Y-41719D01*
X80510Y-41766D01*
X80519Y-41784D01*
X80529Y-41794D01*
X80547Y-41803D01*
X80594Y-41803D01*
X80613Y-41794D01*
X80622Y-41784D01*
X80454Y-41606D02*
X80388Y-41803D01*
X80322Y-41606D01*
X80632Y-42265D02*
X80651Y-42256D01*
X80679Y-42256D01*
X80707Y-42265D01*
X80726Y-42284D01*
X80735Y-42303D01*
X80744Y-42340D01*
X80744Y-42368D01*
X80735Y-42406D01*
X80726Y-42425D01*
X80707Y-42443D01*
X80679Y-42453D01*
X80660Y-42453D01*
X80632Y-42443D01*
X80622Y-42434D01*
X80622Y-42368D01*
X80660Y-42368D01*
X80538Y-42453D02*
X80538Y-42256D01*
X80426Y-42453D01*
X80426Y-42256D01*
X80332Y-42453D02*
X80332Y-42256D01*
X80285Y-42256D01*
X80257Y-42265D01*
X80238Y-42284D01*
X80229Y-42303D01*
X80219Y-42340D01*
X80219Y-42368D01*
X80229Y-42406D01*
X80238Y-42425D01*
X80257Y-42443D01*
X80285Y-42453D01*
X80332Y-42453D01*
G54D10*
X79444Y-45433D02*
X79557Y-45433D01*
X79568Y-45546D01*
X79557Y-45534D01*
X79534Y-45523D01*
X79478Y-45523D01*
X79455Y-45534D01*
X79444Y-45546D01*
X79433Y-45568D01*
X79433Y-45624D01*
X79444Y-45647D01*
X79455Y-45658D01*
X79478Y-45669D01*
X79534Y-45669D01*
X79557Y-45658D01*
X79568Y-45647D01*
X79365Y-45433D02*
X79287Y-45669D01*
X79208Y-45433D01*
X80870Y-45669D02*
X81005Y-45669D01*
X80937Y-45669D02*
X80937Y-45433D01*
X80960Y-45467D01*
X80982Y-45489D01*
X81005Y-45501D01*
X80611Y-45433D02*
X80555Y-45669D01*
X80510Y-45501D01*
X80465Y-45669D01*
X80409Y-45433D01*
X80319Y-45669D02*
X80319Y-45512D01*
X80319Y-45433D02*
X80330Y-45444D01*
X80319Y-45456D01*
X80307Y-45444D01*
X80319Y-45433D01*
X80319Y-45456D01*
X80206Y-45669D02*
X80206Y-45512D01*
X80206Y-45557D02*
X80195Y-45534D01*
X80184Y-45523D01*
X80161Y-45512D01*
X80139Y-45512D01*
X79970Y-45658D02*
X79992Y-45669D01*
X80037Y-45669D01*
X80060Y-45658D01*
X80071Y-45636D01*
X80071Y-45546D01*
X80060Y-45523D01*
X80037Y-45512D01*
X79992Y-45512D01*
X79970Y-45523D01*
X79959Y-45546D01*
X79959Y-45568D01*
X80071Y-45591D01*
X81764Y-45444D02*
X81787Y-45433D01*
X81820Y-45433D01*
X81854Y-45444D01*
X81877Y-45467D01*
X81888Y-45489D01*
X81899Y-45534D01*
X81899Y-45568D01*
X81888Y-45613D01*
X81877Y-45636D01*
X81854Y-45658D01*
X81820Y-45669D01*
X81798Y-45669D01*
X81764Y-45658D01*
X81753Y-45647D01*
X81753Y-45568D01*
X81798Y-45568D01*
X81652Y-45669D02*
X81652Y-45433D01*
X81517Y-45669D01*
X81517Y-45433D01*
X81404Y-45669D02*
X81404Y-45433D01*
X81348Y-45433D01*
X81314Y-45444D01*
X81292Y-45467D01*
X81280Y-45489D01*
X81269Y-45534D01*
X81269Y-45568D01*
X81280Y-45613D01*
X81292Y-45636D01*
X81314Y-45658D01*
X81348Y-45669D01*
X81404Y-45669D01*
X76340Y-35062D02*
X75572Y-35062D01*
X75572Y-35062D02*
X75572Y-34570D01*
X75572Y-34570D02*
X76340Y-34570D01*
X76340Y-34570D02*
X76340Y-35062D01*
X76340Y-35555D02*
X75572Y-35555D01*
X75572Y-35555D02*
X75572Y-35062D01*
X75572Y-35062D02*
X76340Y-35062D01*
X76340Y-35062D02*
X76340Y-35555D01*
G54D12*
X76635Y-47149D02*
X76399Y-47149D01*
X76517Y-47267D02*
X76517Y-47031D01*
X76871Y-46834D02*
G75*
G03X76871Y-46834I-984J0D01*
G74*
G01*
X81586Y-44610D02*
X81586Y-45240D01*
X81586Y-45240D02*
X79382Y-45240D01*
X79382Y-45240D02*
X79382Y-43980D01*
X79382Y-43980D02*
X81586Y-43980D01*
X81586Y-43980D02*
X81586Y-44610D01*
X81586Y-46480D02*
X81586Y-47110D01*
X81586Y-47110D02*
X79382Y-47110D01*
X79382Y-47110D02*
X79382Y-45850D01*
X79382Y-45850D02*
X81586Y-45850D01*
X81586Y-45850D02*
X81586Y-46480D01*
X82275Y-39886D02*
X81566Y-39886D01*
X82275Y-42838D02*
X82275Y-39886D01*
X80857Y-42838D02*
X82275Y-42838D01*
X80857Y-39886D02*
X80857Y-42838D01*
X81566Y-39886D02*
X80857Y-39886D01*
X81566Y-39886D02*
X80857Y-39886D01*
X80857Y-39886D02*
X80857Y-42838D01*
X80857Y-42838D02*
X82275Y-42838D01*
X82275Y-42838D02*
X82275Y-39886D01*
X82275Y-39886D02*
X81566Y-39886D01*
X80110Y-39886D02*
X79401Y-39886D01*
X80110Y-42838D02*
X80110Y-39886D01*
X78692Y-42838D02*
X80110Y-42838D01*
X78692Y-39886D02*
X78692Y-42838D01*
X79401Y-39886D02*
X78692Y-39886D01*
X79401Y-39886D02*
X78692Y-39886D01*
X78692Y-39886D02*
X78692Y-42838D01*
X78692Y-42838D02*
X80110Y-42838D01*
X80110Y-42838D02*
X80110Y-39886D01*
X80110Y-39886D02*
X79401Y-39886D01*
X82865Y-34069D02*
X82865Y-32927D01*
X82865Y-32927D02*
X77905Y-32927D01*
X77905Y-32927D02*
X77905Y-35211D01*
X77905Y-35211D02*
X82865Y-35211D01*
X82865Y-35211D02*
X82865Y-34069D01*
X69264Y-42308D02*
X69264Y-46246D01*
X68279Y-42308D02*
X72217Y-42308D01*
X72217Y-42308D02*
X72217Y-46246D01*
X72217Y-46246D02*
X68279Y-46246D01*
X68279Y-46246D02*
X68279Y-42308D01*
X69264Y-34422D02*
X69264Y-38360D01*
X68279Y-34422D02*
X72217Y-34422D01*
X72217Y-34422D02*
X72217Y-38360D01*
X72217Y-38360D02*
X68279Y-38360D01*
X68279Y-38360D02*
X68279Y-34422D01*
X69264Y-38359D02*
X69264Y-42297D01*
X68279Y-38359D02*
X72217Y-38359D01*
X72217Y-38359D02*
X72217Y-42297D01*
X72217Y-42297D02*
X68279Y-42297D01*
X68279Y-42297D02*
X68279Y-38359D01*
G54D13*
X79385Y-36944D02*
X82385Y-36944D01*
X79385Y-37944D02*
X82385Y-37944D01*
X78385Y-37944D02*
X79385Y-37944D01*
X82385Y-36944D02*
X82385Y-37944D01*
X79385Y-37944D02*
X79385Y-36944D01*
X78385Y-37944D02*
X78385Y-36944D01*
X78385Y-36944D02*
X79385Y-36944D01*
G54D10*
X92726Y-38446D02*
G75*
G03X92726Y-38446I-3937J0D01*
G74*
G01*
X92332Y-43368D02*
X92332Y-33525D01*
X92332Y-33525D02*
X88789Y-33525D01*
X88789Y-33525D02*
X85246Y-33525D01*
X85246Y-33525D02*
X85246Y-43368D01*
X85246Y-43368D02*
X92332Y-43368D01*
G54D14*
X76509Y-34834D02*
X76515Y-34828D01*
X76520Y-34811D01*
X76520Y-34800D01*
X76515Y-34782D01*
X76503Y-34771D01*
X76492Y-34765D01*
X76469Y-34760D01*
X76452Y-34760D01*
X76429Y-34765D01*
X76417Y-34771D01*
X76406Y-34782D01*
X76400Y-34800D01*
X76400Y-34811D01*
X76406Y-34828D01*
X76412Y-34834D01*
X76412Y-34880D02*
X76406Y-34885D01*
X76400Y-34897D01*
X76400Y-34925D01*
X76406Y-34937D01*
X76412Y-34942D01*
X76423Y-34948D01*
X76435Y-34948D01*
X76452Y-34942D01*
X76520Y-34874D01*
X76520Y-34948D01*
X76509Y-35228D02*
X76515Y-35222D01*
X76520Y-35205D01*
X76520Y-35193D01*
X76515Y-35176D01*
X76503Y-35165D01*
X76492Y-35159D01*
X76469Y-35153D01*
X76452Y-35153D01*
X76429Y-35159D01*
X76417Y-35165D01*
X76406Y-35176D01*
X76400Y-35193D01*
X76400Y-35205D01*
X76406Y-35222D01*
X76412Y-35228D01*
X76400Y-35268D02*
X76400Y-35342D01*
X76446Y-35302D01*
X76446Y-35319D01*
X76452Y-35330D01*
X76457Y-35336D01*
X76469Y-35342D01*
X76497Y-35342D01*
X76509Y-35336D01*
X76515Y-35330D01*
X76520Y-35319D01*
X76520Y-35285D01*
X76515Y-35273D01*
X76509Y-35268D01*
G54D15*
X81320Y-47952D02*
X81662Y-47952D01*
X81491Y-47952D02*
X81491Y-47352D01*
X81548Y-47438D01*
X81605Y-47495D01*
X81662Y-47523D01*
X81120Y-47352D02*
X80977Y-47952D01*
X80862Y-47523D01*
X80748Y-47952D01*
X80605Y-47352D01*
X80377Y-47952D02*
X80377Y-47552D01*
X80377Y-47352D02*
X80405Y-47381D01*
X80377Y-47409D01*
X80348Y-47381D01*
X80377Y-47352D01*
X80377Y-47409D01*
X80091Y-47952D02*
X80091Y-47552D01*
X80091Y-47666D02*
X80062Y-47609D01*
X80034Y-47581D01*
X79977Y-47552D01*
X79920Y-47552D01*
X79491Y-47923D02*
X79548Y-47952D01*
X79662Y-47952D01*
X79720Y-47923D01*
X79748Y-47866D01*
X79748Y-47638D01*
X79720Y-47581D01*
X79662Y-47552D01*
X79548Y-47552D01*
X79491Y-47581D01*
X79462Y-47638D01*
X79462Y-47695D01*
X79748Y-47752D01*
X80912Y-43621D02*
X80912Y-43021D01*
X80655Y-43078D02*
X80626Y-43050D01*
X80569Y-43021D01*
X80426Y-43021D01*
X80369Y-43050D01*
X80341Y-43078D01*
X80312Y-43136D01*
X80312Y-43193D01*
X80341Y-43278D01*
X80683Y-43621D01*
X80312Y-43621D01*
X79712Y-43564D02*
X79741Y-43593D01*
X79826Y-43621D01*
X79883Y-43621D01*
X79969Y-43593D01*
X80026Y-43536D01*
X80055Y-43478D01*
X80083Y-43364D01*
X80083Y-43278D01*
X80055Y-43164D01*
X80026Y-43107D01*
X79969Y-43050D01*
X79883Y-43021D01*
X79826Y-43021D01*
X79741Y-43050D01*
X79712Y-43078D01*
X81134Y-35984D02*
X81334Y-35698D01*
X81476Y-35984D02*
X81476Y-35384D01*
X81248Y-35384D01*
X81191Y-35412D01*
X81162Y-35441D01*
X81134Y-35498D01*
X81134Y-35584D01*
X81162Y-35641D01*
X81191Y-35669D01*
X81248Y-35698D01*
X81476Y-35698D01*
X80648Y-35955D02*
X80705Y-35984D01*
X80819Y-35984D01*
X80876Y-35955D01*
X80905Y-35898D01*
X80905Y-35669D01*
X80876Y-35612D01*
X80819Y-35584D01*
X80705Y-35584D01*
X80648Y-35612D01*
X80619Y-35669D01*
X80619Y-35726D01*
X80905Y-35784D01*
X80276Y-35984D02*
X80334Y-35955D01*
X80362Y-35898D01*
X80362Y-35384D01*
X79791Y-35984D02*
X79791Y-35669D01*
X79819Y-35612D01*
X79876Y-35584D01*
X79991Y-35584D01*
X80048Y-35612D01*
X79791Y-35955D02*
X79848Y-35984D01*
X79991Y-35984D01*
X80048Y-35955D01*
X80076Y-35898D01*
X80076Y-35841D01*
X80048Y-35784D01*
X79991Y-35755D01*
X79848Y-35755D01*
X79791Y-35726D01*
X79562Y-35584D02*
X79419Y-35984D01*
X79276Y-35584D02*
X79419Y-35984D01*
X79476Y-36126D01*
X79505Y-36155D01*
X79562Y-36184D01*
G54D16*
X69051Y-42494D02*
X68651Y-42494D01*
X68651Y-42646D01*
X68670Y-42684D01*
X68689Y-42703D01*
X68727Y-42722D01*
X68784Y-42722D01*
X68822Y-42703D01*
X68841Y-42684D01*
X68860Y-42646D01*
X68860Y-42494D01*
X68784Y-43065D02*
X69051Y-43065D01*
X68631Y-42970D02*
X68917Y-42875D01*
X68917Y-43122D01*
X72948Y-43191D02*
X72948Y-43001D01*
X72548Y-43001D01*
X72948Y-43382D02*
X72929Y-43344D01*
X72910Y-43325D01*
X72872Y-43306D01*
X72758Y-43306D01*
X72720Y-43325D01*
X72701Y-43344D01*
X72682Y-43382D01*
X72682Y-43439D01*
X72701Y-43477D01*
X72720Y-43496D01*
X72758Y-43515D01*
X72872Y-43515D01*
X72910Y-43496D01*
X72929Y-43477D01*
X72948Y-43439D01*
X72948Y-43382D01*
X72682Y-43648D02*
X72948Y-43725D01*
X72758Y-43801D01*
X72948Y-43877D01*
X72682Y-43953D01*
X72548Y-44068D02*
X72948Y-44163D01*
X72663Y-44239D01*
X72948Y-44315D01*
X72548Y-44410D01*
X72948Y-44734D02*
X72739Y-44734D01*
X72701Y-44715D01*
X72682Y-44677D01*
X72682Y-44601D01*
X72701Y-44563D01*
X72929Y-44734D02*
X72948Y-44696D01*
X72948Y-44601D01*
X72929Y-44563D01*
X72891Y-44544D01*
X72853Y-44544D01*
X72815Y-44563D01*
X72796Y-44601D01*
X72796Y-44696D01*
X72777Y-44734D01*
X72682Y-44868D02*
X72682Y-45020D01*
X72548Y-44925D02*
X72891Y-44925D01*
X72929Y-44944D01*
X72948Y-44982D01*
X72948Y-45020D01*
X72929Y-45306D02*
X72948Y-45268D01*
X72948Y-45191D01*
X72929Y-45153D01*
X72891Y-45134D01*
X72739Y-45134D01*
X72701Y-45153D01*
X72682Y-45191D01*
X72682Y-45268D01*
X72701Y-45306D01*
X72739Y-45325D01*
X72777Y-45325D01*
X72815Y-45134D01*
X72948Y-45496D02*
X72682Y-45496D01*
X72758Y-45496D02*
X72720Y-45515D01*
X72701Y-45534D01*
X72682Y-45572D01*
X72682Y-45610D01*
X69051Y-34620D02*
X68651Y-34620D01*
X68651Y-34772D01*
X68670Y-34810D01*
X68689Y-34829D01*
X68727Y-34848D01*
X68784Y-34848D01*
X68822Y-34829D01*
X68841Y-34810D01*
X68860Y-34772D01*
X68860Y-34620D01*
X68651Y-35210D02*
X68651Y-35020D01*
X68841Y-35001D01*
X68822Y-35020D01*
X68803Y-35058D01*
X68803Y-35153D01*
X68822Y-35191D01*
X68841Y-35210D01*
X68879Y-35229D01*
X68974Y-35229D01*
X69012Y-35210D01*
X69031Y-35191D01*
X69051Y-35153D01*
X69051Y-35058D01*
X69031Y-35020D01*
X69012Y-35001D01*
X72548Y-34896D02*
X72548Y-35125D01*
X72948Y-35010D02*
X72548Y-35010D01*
X72948Y-35429D02*
X72739Y-35429D01*
X72701Y-35410D01*
X72682Y-35372D01*
X72682Y-35296D01*
X72701Y-35258D01*
X72929Y-35429D02*
X72948Y-35391D01*
X72948Y-35296D01*
X72929Y-35258D01*
X72891Y-35239D01*
X72853Y-35239D01*
X72815Y-35258D01*
X72796Y-35296D01*
X72796Y-35391D01*
X72777Y-35429D01*
X72682Y-35620D02*
X72948Y-35620D01*
X72720Y-35620D02*
X72701Y-35639D01*
X72682Y-35677D01*
X72682Y-35734D01*
X72701Y-35772D01*
X72739Y-35791D01*
X72948Y-35791D01*
X72948Y-35982D02*
X72548Y-35982D01*
X72796Y-36020D02*
X72948Y-36134D01*
X72682Y-36134D02*
X72834Y-35982D01*
X72948Y-36515D02*
X72948Y-36286D01*
X72948Y-36401D02*
X72548Y-36401D01*
X72606Y-36363D01*
X72644Y-36325D01*
X72663Y-36286D01*
X72948Y-36686D02*
X72548Y-36686D01*
X72739Y-36686D02*
X72739Y-36915D01*
X72948Y-36915D02*
X72548Y-36915D01*
X72948Y-37106D02*
X72682Y-37106D01*
X72548Y-37106D02*
X72568Y-37086D01*
X72587Y-37106D01*
X72568Y-37125D01*
X72548Y-37106D01*
X72587Y-37106D01*
X72682Y-37467D02*
X73006Y-37467D01*
X73044Y-37448D01*
X73063Y-37429D01*
X73082Y-37391D01*
X73082Y-37334D01*
X73063Y-37296D01*
X72929Y-37467D02*
X72948Y-37429D01*
X72948Y-37353D01*
X72929Y-37315D01*
X72910Y-37296D01*
X72872Y-37277D01*
X72758Y-37277D01*
X72720Y-37296D01*
X72701Y-37315D01*
X72682Y-37353D01*
X72682Y-37429D01*
X72701Y-37467D01*
X72948Y-37658D02*
X72548Y-37658D01*
X72948Y-37829D02*
X72739Y-37829D01*
X72701Y-37810D01*
X72682Y-37772D01*
X72682Y-37715D01*
X72701Y-37677D01*
X72720Y-37658D01*
X69051Y-38557D02*
X68651Y-38557D01*
X68651Y-38709D01*
X68670Y-38747D01*
X68689Y-38766D01*
X68727Y-38785D01*
X68784Y-38785D01*
X68822Y-38766D01*
X68841Y-38747D01*
X68860Y-38709D01*
X68860Y-38557D01*
X68651Y-39128D02*
X68651Y-39052D01*
X68670Y-39014D01*
X68689Y-38995D01*
X68746Y-38957D01*
X68822Y-38938D01*
X68974Y-38938D01*
X69012Y-38957D01*
X69031Y-38976D01*
X69051Y-39014D01*
X69051Y-39090D01*
X69031Y-39128D01*
X69012Y-39147D01*
X68974Y-39166D01*
X68879Y-39166D01*
X68841Y-39147D01*
X68822Y-39128D01*
X68803Y-39090D01*
X68803Y-39014D01*
X68822Y-38976D01*
X68841Y-38957D01*
X68879Y-38938D01*
X72548Y-38833D02*
X72548Y-39062D01*
X72948Y-38947D02*
X72548Y-38947D01*
X72948Y-39366D02*
X72739Y-39366D01*
X72701Y-39347D01*
X72682Y-39309D01*
X72682Y-39233D01*
X72701Y-39195D01*
X72929Y-39366D02*
X72948Y-39328D01*
X72948Y-39233D01*
X72929Y-39195D01*
X72891Y-39176D01*
X72853Y-39176D01*
X72815Y-39195D01*
X72796Y-39233D01*
X72796Y-39328D01*
X72777Y-39366D01*
X72682Y-39557D02*
X72948Y-39557D01*
X72720Y-39557D02*
X72701Y-39576D01*
X72682Y-39614D01*
X72682Y-39671D01*
X72701Y-39709D01*
X72739Y-39728D01*
X72948Y-39728D01*
X72948Y-39919D02*
X72548Y-39919D01*
X72796Y-39957D02*
X72948Y-40071D01*
X72682Y-40071D02*
X72834Y-39919D01*
X72587Y-40223D02*
X72568Y-40243D01*
X72548Y-40281D01*
X72548Y-40376D01*
X72568Y-40414D01*
X72587Y-40433D01*
X72625Y-40452D01*
X72663Y-40452D01*
X72720Y-40433D01*
X72948Y-40204D01*
X72948Y-40452D01*
X72948Y-40623D02*
X72548Y-40623D01*
X72739Y-40623D02*
X72739Y-40852D01*
X72948Y-40852D02*
X72548Y-40852D01*
X72948Y-41043D02*
X72682Y-41043D01*
X72548Y-41043D02*
X72568Y-41023D01*
X72587Y-41043D01*
X72568Y-41062D01*
X72548Y-41043D01*
X72587Y-41043D01*
X72682Y-41404D02*
X73006Y-41404D01*
X73044Y-41385D01*
X73063Y-41366D01*
X73082Y-41328D01*
X73082Y-41271D01*
X73063Y-41233D01*
X72929Y-41404D02*
X72948Y-41366D01*
X72948Y-41290D01*
X72929Y-41252D01*
X72910Y-41233D01*
X72872Y-41214D01*
X72758Y-41214D01*
X72720Y-41233D01*
X72701Y-41252D01*
X72682Y-41290D01*
X72682Y-41366D01*
X72701Y-41404D01*
X72948Y-41595D02*
X72548Y-41595D01*
X72948Y-41766D02*
X72739Y-41766D01*
X72701Y-41747D01*
X72682Y-41709D01*
X72682Y-41652D01*
X72701Y-41614D01*
X72720Y-41595D01*
G54D15*
X81317Y-38640D02*
X81374Y-38669D01*
X81489Y-38669D01*
X81546Y-38640D01*
X81574Y-38583D01*
X81574Y-38354D01*
X81546Y-38297D01*
X81489Y-38269D01*
X81374Y-38269D01*
X81317Y-38297D01*
X81289Y-38354D01*
X81289Y-38411D01*
X81574Y-38469D01*
X81117Y-38069D02*
X80774Y-38069D01*
X80946Y-38669D02*
X80946Y-38069D01*
X80317Y-38669D02*
X80317Y-38354D01*
X80346Y-38297D01*
X80403Y-38269D01*
X80517Y-38269D01*
X80574Y-38297D01*
X80317Y-38640D02*
X80374Y-38669D01*
X80517Y-38669D01*
X80574Y-38640D01*
X80603Y-38583D01*
X80603Y-38526D01*
X80574Y-38469D01*
X80517Y-38440D01*
X80374Y-38440D01*
X80317Y-38411D01*
X80032Y-38269D02*
X80032Y-38869D01*
X80032Y-38297D02*
X79974Y-38269D01*
X79860Y-38269D01*
X79803Y-38297D01*
X79774Y-38326D01*
X79746Y-38383D01*
X79746Y-38554D01*
X79774Y-38611D01*
X79803Y-38640D01*
X79860Y-38669D01*
X79974Y-38669D01*
X80032Y-38640D01*
X79260Y-38640D02*
X79317Y-38669D01*
X79432Y-38669D01*
X79489Y-38640D01*
X79517Y-38583D01*
X79517Y-38354D01*
X79489Y-38297D01*
X79432Y-38269D01*
X79317Y-38269D01*
X79260Y-38297D01*
X79232Y-38354D01*
X79232Y-38411D01*
X79517Y-38469D01*
G54D10*
X86399Y-38137D02*
X86417Y-38193D01*
X86436Y-38212D01*
X86474Y-38231D01*
X86530Y-38231D01*
X86567Y-38212D01*
X86586Y-38193D01*
X86605Y-38156D01*
X86605Y-38006D01*
X86211Y-38006D01*
X86211Y-38137D01*
X86230Y-38175D01*
X86249Y-38193D01*
X86286Y-38212D01*
X86324Y-38212D01*
X86361Y-38193D01*
X86380Y-38175D01*
X86399Y-38137D01*
X86399Y-38006D01*
X86211Y-38343D02*
X86211Y-38568D01*
X86605Y-38456D02*
X86211Y-38456D01*
X86605Y-38906D02*
X86605Y-38681D01*
X86605Y-38793D02*
X86211Y-38793D01*
X86267Y-38756D01*
X86305Y-38718D01*
X86324Y-38681D01*
X91517Y-37462D02*
X91535Y-37518D01*
X91554Y-37537D01*
X91592Y-37556D01*
X91648Y-37556D01*
X91685Y-37537D01*
X91704Y-37518D01*
X91723Y-37481D01*
X91723Y-37331D01*
X91329Y-37331D01*
X91329Y-37462D01*
X91348Y-37500D01*
X91367Y-37518D01*
X91404Y-37537D01*
X91442Y-37537D01*
X91479Y-37518D01*
X91498Y-37500D01*
X91517Y-37462D01*
X91517Y-37331D01*
X91610Y-37706D02*
X91610Y-37893D01*
X91723Y-37668D02*
X91329Y-37800D01*
X91723Y-37931D01*
X91329Y-38006D02*
X91329Y-38231D01*
X91723Y-38118D02*
X91329Y-38118D01*
X91329Y-38306D02*
X91329Y-38531D01*
X91723Y-38418D02*
X91329Y-38418D01*
X91517Y-38662D02*
X91517Y-38793D01*
X91723Y-38849D02*
X91723Y-38662D01*
X91329Y-38662D01*
X91329Y-38849D01*
X91723Y-39243D02*
X91535Y-39112D01*
X91723Y-39018D02*
X91329Y-39018D01*
X91329Y-39168D01*
X91348Y-39206D01*
X91367Y-39224D01*
X91404Y-39243D01*
X91460Y-39243D01*
X91498Y-39224D01*
X91517Y-39206D01*
X91535Y-39168D01*
X91535Y-39018D01*
X91535Y-39487D02*
X91723Y-39487D01*
X91329Y-39356D02*
X91535Y-39487D01*
X91329Y-39618D01*
M02*
