M48
;DRILL file {Pcbnew (2014-03-19 BZR 4756)-product} date Sun 27 Jul 2014 23:33:27 BST
;FORMAT={2:4/ absolute / inch / suppress leading zeros}
FMAT,2
INCH,TZ
T1C0.020
T2C0.024
T3C0.025
T4C0.032
T5C0.032
T6C0.035
T7C0.040
T8C0.059
T9C0.118
%
G90
G05
M72
T1
X79972Y-44610
X79972Y-46480
X80484Y-44610
X80484Y-46480
X80996Y-44610
X80996Y-46480
T2
X79402Y-40476
X79402Y-41067
X79402Y-41657
X79402Y-42248
X81567Y-40476
X81567Y-41067
X81567Y-41657
X81567Y-42248
T3
X88789Y-40575
T4
X75888Y-46441
X75888Y-47229
T5
X77374Y-33402
X77374Y-34402
X77374Y-35402
X77374Y-36402
X77374Y-37402
X77374Y-38402
X77374Y-39402
X77374Y-40402
X77374Y-41402
X77374Y-42402
X77374Y-43402
X77374Y-44402
X77374Y-45402
X77374Y-46402
X77374Y-47402
X83375Y-33402
X83375Y-34402
X83375Y-35402
X83375Y-36402
X83375Y-37402
X83375Y-38402
X83375Y-39402
X83375Y-40402
X83375Y-41402
X83375Y-42402
X83375Y-43402
X83375Y-44402
X83375Y-45402
X83375Y-46402
X83375Y-47402
X84931Y-46557
X84931Y-48447
X87923Y-46557
X87923Y-48447
X88967Y-46557
X88967Y-48447
X91959Y-46557
X91959Y-48447
T6
X78910Y-34374
X79894Y-34374
X80878Y-34374
X81862Y-34374
T7
X71201Y-32447
X71201Y-33447
X72201Y-32447
X72201Y-33447
X73201Y-32447
X73201Y-33447
X74201Y-32447
X74201Y-33447
X75201Y-32447
X75201Y-33447
X78886Y-37445
X79886Y-37445
X80886Y-37445
X81886Y-37445
T8
X70248Y-35408
X70248Y-37376
X70248Y-39345
X70248Y-41313
X70248Y-43294
X70248Y-45262
X72246Y-47228
X74214Y-47228
T9
X69165Y-32947
X69165Y-47907
X93575Y-32947
X93575Y-47907
T0
M30
