%FSLAX34Y34*%
G04 Gerber Fmt 3.4, Leading zero omitted, Abs format*
G04 (created by PCBNEW (2014-03-19 BZR 4756)-product) date Sun 03 Aug 2014 21:22:35 BST*
%MOIN*%
G01*
G70*
G90*
G04 APERTURE LIST*
%ADD10C,0.005906*%
%ADD11C,0.009843*%
%ADD12O,0.078700X0.118700*%
%ADD13R,0.015700X0.023600*%
%ADD14C,0.058300*%
%ADD15O,0.031496X0.043307*%
%ADD16R,0.031496X0.043307*%
%ADD17O,0.062992X0.039370*%
%ADD18R,0.062992X0.039370*%
%ADD19O,0.055118X0.086614*%
%ADD20R,0.055118X0.086614*%
%ADD21R,0.068000X0.080000*%
%ADD22O,0.068000X0.080000*%
%ADD23R,0.060000X0.060000*%
%ADD24C,0.060000*%
%ADD25C,0.055000*%
%ADD26R,0.055000X0.055000*%
%ADD27R,0.133900X0.133900*%
%ADD28R,0.157480X0.157480*%
G04 APERTURE END LIST*
G54D10*
G54D11*
X81580Y-49048D02*
X81805Y-49048D01*
X81693Y-49048D02*
X81693Y-48654D01*
X81730Y-48710D01*
X81768Y-48748D01*
X81805Y-48766D01*
X81337Y-48654D02*
X81299Y-48654D01*
X81262Y-48673D01*
X81243Y-48691D01*
X81224Y-48729D01*
X81205Y-48804D01*
X81205Y-48898D01*
X81224Y-48973D01*
X81243Y-49010D01*
X81262Y-49029D01*
X81299Y-49048D01*
X81337Y-49048D01*
X81374Y-49029D01*
X81393Y-49010D01*
X81412Y-48973D01*
X81430Y-48898D01*
X81430Y-48804D01*
X81412Y-48729D01*
X81393Y-48691D01*
X81374Y-48673D01*
X81337Y-48654D01*
X81093Y-48785D02*
X80943Y-48785D01*
X81037Y-48654D02*
X81037Y-48991D01*
X81018Y-49029D01*
X80980Y-49048D01*
X80943Y-49048D01*
X80755Y-49048D02*
X80793Y-49029D01*
X80812Y-49010D01*
X80830Y-48973D01*
X80830Y-48860D01*
X80812Y-48823D01*
X80793Y-48804D01*
X80755Y-48785D01*
X80699Y-48785D01*
X80662Y-48804D01*
X80643Y-48823D01*
X80624Y-48860D01*
X80624Y-48973D01*
X80643Y-49010D01*
X80662Y-49029D01*
X80699Y-49048D01*
X80755Y-49048D01*
X80493Y-48654D02*
X80231Y-48654D01*
X80399Y-49048D01*
X80081Y-49010D02*
X80062Y-49029D01*
X80081Y-49048D01*
X80099Y-49029D01*
X80081Y-49010D01*
X80081Y-49048D01*
X79724Y-49029D02*
X79762Y-49048D01*
X79837Y-49048D01*
X79874Y-49029D01*
X79893Y-49010D01*
X79912Y-48973D01*
X79912Y-48860D01*
X79893Y-48823D01*
X79874Y-48804D01*
X79837Y-48785D01*
X79762Y-48785D01*
X79724Y-48804D01*
X79499Y-49048D02*
X79537Y-49029D01*
X79556Y-49010D01*
X79574Y-48973D01*
X79574Y-48860D01*
X79556Y-48823D01*
X79537Y-48804D01*
X79499Y-48785D01*
X79443Y-48785D01*
X79406Y-48804D01*
X79387Y-48823D01*
X79368Y-48860D01*
X79368Y-48973D01*
X79387Y-49010D01*
X79406Y-49029D01*
X79443Y-49048D01*
X79499Y-49048D01*
X79199Y-49048D02*
X79199Y-48785D01*
X79199Y-48823D02*
X79181Y-48804D01*
X79143Y-48785D01*
X79087Y-48785D01*
X79049Y-48804D01*
X79031Y-48841D01*
X79031Y-49048D01*
X79031Y-48841D02*
X79012Y-48804D01*
X78974Y-48785D01*
X78918Y-48785D01*
X78881Y-48804D01*
X78862Y-48841D01*
X78862Y-49048D01*
X94287Y-36356D02*
X94099Y-36356D01*
X94324Y-36469D02*
X94193Y-36075D01*
X94062Y-36469D01*
X93724Y-36469D02*
X93949Y-36469D01*
X93837Y-36469D02*
X93837Y-36075D01*
X93874Y-36131D01*
X93912Y-36169D01*
X93949Y-36188D01*
X94296Y-40603D02*
X94296Y-40209D01*
X94202Y-40209D01*
X94146Y-40228D01*
X94109Y-40265D01*
X94090Y-40303D01*
X94071Y-40378D01*
X94071Y-40434D01*
X94090Y-40509D01*
X94109Y-40547D01*
X94146Y-40584D01*
X94202Y-40603D01*
X94296Y-40603D01*
X93940Y-40209D02*
X93677Y-40209D01*
X93846Y-40603D01*
X94296Y-44737D02*
X94296Y-44343D01*
X94202Y-44343D01*
X94146Y-44362D01*
X94109Y-44399D01*
X94090Y-44437D01*
X94071Y-44512D01*
X94071Y-44568D01*
X94090Y-44643D01*
X94109Y-44680D01*
X94146Y-44718D01*
X94202Y-44737D01*
X94296Y-44737D01*
X93734Y-44343D02*
X93809Y-44343D01*
X93846Y-44362D01*
X93865Y-44380D01*
X93902Y-44437D01*
X93921Y-44512D01*
X93921Y-44662D01*
X93902Y-44699D01*
X93884Y-44718D01*
X93846Y-44737D01*
X93771Y-44737D01*
X93734Y-44718D01*
X93715Y-44699D01*
X93696Y-44662D01*
X93696Y-44568D01*
X93715Y-44530D01*
X93734Y-44512D01*
X93771Y-44493D01*
X93846Y-44493D01*
X93884Y-44512D01*
X93902Y-44530D01*
X93921Y-44568D01*
G54D12*
X74214Y-47228D03*
X72246Y-47228D03*
G54D13*
X76133Y-34816D03*
X75779Y-34816D03*
X76133Y-35309D03*
X75779Y-35309D03*
G54D14*
X75887Y-47228D03*
X75887Y-46440D03*
G54D15*
X80484Y-44610D03*
X80996Y-44610D03*
G54D16*
X79972Y-44610D03*
G54D15*
X80484Y-46480D03*
X80996Y-46480D03*
G54D16*
X79972Y-46480D03*
G54D17*
X81566Y-41067D03*
X81566Y-41657D03*
G54D18*
X81566Y-40476D03*
G54D17*
X81566Y-42248D03*
X79401Y-41067D03*
X79401Y-41657D03*
G54D18*
X79401Y-40476D03*
G54D17*
X79401Y-42248D03*
G54D19*
X80877Y-34374D03*
X79893Y-34374D03*
G54D20*
X81861Y-34374D03*
G54D19*
X78909Y-34374D03*
G54D21*
X78885Y-37444D03*
G54D22*
X79885Y-37444D03*
X80885Y-37444D03*
X81885Y-37444D03*
G54D23*
X75200Y-32446D03*
G54D24*
X75200Y-33446D03*
X74200Y-32446D03*
X74200Y-33446D03*
X73200Y-32446D03*
X73200Y-33446D03*
X72200Y-32446D03*
X72200Y-33446D03*
X71200Y-32446D03*
X71200Y-33446D03*
G54D25*
X77374Y-33401D03*
X83374Y-34401D03*
X83374Y-35401D03*
X83374Y-36401D03*
X83374Y-37401D03*
X83374Y-38401D03*
X83374Y-39401D03*
X83374Y-40401D03*
X83374Y-41401D03*
X83374Y-42401D03*
X83374Y-43401D03*
X83374Y-44401D03*
X83374Y-45401D03*
X83374Y-46401D03*
G54D26*
X83374Y-47401D03*
G54D25*
X77374Y-47401D03*
X77374Y-46401D03*
X77374Y-45401D03*
X77374Y-44401D03*
X77374Y-43401D03*
X77374Y-42401D03*
X77374Y-41401D03*
X77374Y-40401D03*
X77374Y-39401D03*
X77374Y-38401D03*
X77374Y-37401D03*
X77374Y-36401D03*
X77374Y-35401D03*
X77374Y-34401D03*
X83374Y-33401D03*
X88966Y-48446D03*
X88966Y-46557D03*
X91958Y-48446D03*
X91958Y-46557D03*
X84931Y-48446D03*
X84931Y-46557D03*
X87923Y-48446D03*
X87923Y-46557D03*
G54D27*
X69165Y-32946D03*
X93574Y-32946D03*
X93574Y-47907D03*
X69165Y-47907D03*
G54D28*
X88789Y-32639D03*
X88789Y-44253D03*
M02*
