%FSLAX34Y34*%
G04 Gerber Fmt 3.4, Leading zero omitted, Abs format*
G04 (created by PCBNEW (2014-03-19 BZR 4756)-product) date Fri 10 Oct 2014 23:51:35 BST*
%MOIN*%
G01*
G70*
G90*
G04 APERTURE LIST*
%ADD10C,0.005906*%
%ADD11O,0.078700X0.118700*%
%ADD12R,0.015700X0.023600*%
%ADD13C,0.058300*%
%ADD14R,0.045000X0.025000*%
%ADD15R,0.025000X0.045000*%
%ADD16O,0.031496X0.043307*%
%ADD17R,0.031496X0.043307*%
%ADD18O,0.062992X0.039370*%
%ADD19R,0.062992X0.039370*%
%ADD20O,0.055118X0.086614*%
%ADD21R,0.055118X0.086614*%
%ADD22O,0.118700X0.078700*%
%ADD23R,0.068000X0.080000*%
%ADD24O,0.068000X0.080000*%
%ADD25R,0.023600X0.015700*%
%ADD26R,0.060000X0.060000*%
%ADD27C,0.060000*%
%ADD28C,0.055000*%
%ADD29R,0.055000X0.055000*%
%ADD30R,0.133900X0.133900*%
%ADD31R,0.045000X0.020000*%
%ADD32C,0.035000*%
%ADD33C,0.010000*%
%ADD34C,0.015748*%
G04 APERTURE END LIST*
G54D10*
G54D11*
X74414Y-47328D03*
X72446Y-47328D03*
G54D12*
X76301Y-35355D03*
X75947Y-35355D03*
G54D13*
X76087Y-47328D03*
X76087Y-46540D03*
G54D14*
X94207Y-36693D03*
X94207Y-36093D03*
X92140Y-36693D03*
X92140Y-36093D03*
G54D15*
X90503Y-45488D03*
X91103Y-45488D03*
X86369Y-45488D03*
X86969Y-45488D03*
G54D16*
X80684Y-44710D03*
X81196Y-44710D03*
G54D17*
X80172Y-44710D03*
G54D16*
X80684Y-46580D03*
X81196Y-46580D03*
G54D17*
X80172Y-46580D03*
G54D18*
X81766Y-41167D03*
X81766Y-41757D03*
G54D19*
X81766Y-40576D03*
G54D18*
X81766Y-42348D03*
X79601Y-41167D03*
X79601Y-41757D03*
G54D19*
X79601Y-40576D03*
G54D18*
X79601Y-42348D03*
G54D20*
X81077Y-34474D03*
X80093Y-34474D03*
G54D21*
X82061Y-34474D03*
G54D20*
X79109Y-34474D03*
G54D22*
X70448Y-43393D03*
X70448Y-45361D03*
X70448Y-35507D03*
X70448Y-37475D03*
X70448Y-39444D03*
X70448Y-41412D03*
G54D23*
X79085Y-37544D03*
G54D24*
X80085Y-37544D03*
X81085Y-37544D03*
X82085Y-37544D03*
G54D25*
X94207Y-35389D03*
X94207Y-35035D03*
X92140Y-35389D03*
X92140Y-35035D03*
G54D15*
X80984Y-41265D03*
X80384Y-41265D03*
X80984Y-40576D03*
X80384Y-40576D03*
G54D12*
X91807Y-45488D03*
X92161Y-45488D03*
X87673Y-45488D03*
X88027Y-45488D03*
G54D25*
X79798Y-36383D03*
X79798Y-36737D03*
X79306Y-36383D03*
X79306Y-36737D03*
G54D26*
X75400Y-32546D03*
G54D27*
X75400Y-33546D03*
X74400Y-32546D03*
X74400Y-33546D03*
X73400Y-32546D03*
X73400Y-33546D03*
X72400Y-32546D03*
X72400Y-33546D03*
X71400Y-32546D03*
X71400Y-33546D03*
G54D28*
X77574Y-33501D03*
X83574Y-34501D03*
X83574Y-35501D03*
X83574Y-36501D03*
X83574Y-37501D03*
X83574Y-38501D03*
X83574Y-39501D03*
X83574Y-40501D03*
X83574Y-41501D03*
X83574Y-42501D03*
X83574Y-43501D03*
X83574Y-44501D03*
X83574Y-45501D03*
X83574Y-46501D03*
G54D29*
X83574Y-47501D03*
G54D28*
X77574Y-47501D03*
X77574Y-46501D03*
X77574Y-45501D03*
X77574Y-44501D03*
X77574Y-43501D03*
X77574Y-42501D03*
X77574Y-41501D03*
X77574Y-40501D03*
X77574Y-39501D03*
X77574Y-38501D03*
X77574Y-37501D03*
X77574Y-36501D03*
X77574Y-35501D03*
X77574Y-34501D03*
X83574Y-33501D03*
X89166Y-48546D03*
X89166Y-46657D03*
X92158Y-48546D03*
X92158Y-46657D03*
X85131Y-48546D03*
X85131Y-46657D03*
X88123Y-48546D03*
X88123Y-46657D03*
G54D30*
X69365Y-33046D03*
X93774Y-33046D03*
X93774Y-48007D03*
X69365Y-48007D03*
G54D25*
X91253Y-40889D03*
X91253Y-40535D03*
X91253Y-41322D03*
X91253Y-41676D03*
X91745Y-41322D03*
X91745Y-41676D03*
G54D31*
X90497Y-41674D03*
X90497Y-41174D03*
X90497Y-40674D03*
X90497Y-40174D03*
X90497Y-39674D03*
X90497Y-39174D03*
X90497Y-38674D03*
X90497Y-38174D03*
X86497Y-38174D03*
X86497Y-38674D03*
X86497Y-39174D03*
X86497Y-39674D03*
X86497Y-40174D03*
X86497Y-40674D03*
X86497Y-41174D03*
X86497Y-41674D03*
G54D12*
X80595Y-45653D03*
X80241Y-45653D03*
X76301Y-34855D03*
X75947Y-34855D03*
G54D32*
X87098Y-41042D03*
G54D33*
X76301Y-34855D02*
X76301Y-35355D01*
X77574Y-34501D02*
X76301Y-34501D01*
X76301Y-34447D02*
X76301Y-34501D01*
X75400Y-33546D02*
X76301Y-34447D01*
X76301Y-34501D02*
X76301Y-34855D01*
X90851Y-39925D02*
X91253Y-40327D01*
X90851Y-39674D02*
X90851Y-39925D01*
X90497Y-39674D02*
X90851Y-39674D01*
X91253Y-40535D02*
X91253Y-40327D01*
X92158Y-48546D02*
X89166Y-48546D01*
X88123Y-48546D02*
X85131Y-48546D01*
X81691Y-44501D02*
X81482Y-44710D01*
X83574Y-44501D02*
X81691Y-44501D01*
X81196Y-44710D02*
X81482Y-44710D01*
X82085Y-37544D02*
X82554Y-37544D01*
X72446Y-47328D02*
X72968Y-47328D01*
X76126Y-46501D02*
X76087Y-46540D01*
X77574Y-46501D02*
X76126Y-46501D01*
X73756Y-46540D02*
X72968Y-47328D01*
X76087Y-46540D02*
X73756Y-46540D01*
X75947Y-34978D02*
X75947Y-35355D01*
X77292Y-35035D02*
X79109Y-35035D01*
X76726Y-35602D02*
X77292Y-35035D01*
X75947Y-35602D02*
X76726Y-35602D01*
X75947Y-35355D02*
X75947Y-35602D01*
X79109Y-34474D02*
X79109Y-35035D01*
X86497Y-39174D02*
X86320Y-39174D01*
X90497Y-39174D02*
X90320Y-39174D01*
X90143Y-39351D02*
X90143Y-39674D01*
X90320Y-39174D02*
X90143Y-39351D01*
X90497Y-39674D02*
X90143Y-39674D01*
X90497Y-38174D02*
X90320Y-38174D01*
X90143Y-38351D02*
X90143Y-38674D01*
X90320Y-38174D02*
X90143Y-38351D01*
X90320Y-38674D02*
X90320Y-39174D01*
X90497Y-38674D02*
X90320Y-38674D01*
X90320Y-38674D02*
X90143Y-38674D01*
X69718Y-38728D02*
X70448Y-37998D01*
X69718Y-40160D02*
X69718Y-38728D01*
X70448Y-40890D02*
X69718Y-40160D01*
X70448Y-41412D02*
X70448Y-40890D01*
X70448Y-37475D02*
X70448Y-37998D01*
X86143Y-40174D02*
X86143Y-39674D01*
X86497Y-40174D02*
X86143Y-40174D01*
X86320Y-39674D02*
X86320Y-39174D01*
X86497Y-39674D02*
X86320Y-39674D01*
X86320Y-39674D02*
X86143Y-39674D01*
X86497Y-38674D02*
X90143Y-38674D01*
X86497Y-38674D02*
X86236Y-38674D01*
X86320Y-38758D02*
X86236Y-38674D01*
X86320Y-39174D02*
X86320Y-38758D01*
X86497Y-38174D02*
X86143Y-38174D01*
X86143Y-38581D02*
X86143Y-38174D01*
X86236Y-38674D02*
X86143Y-38581D01*
X82916Y-37906D02*
X82554Y-37544D01*
X85875Y-37906D02*
X82916Y-37906D01*
X86143Y-38174D02*
X85875Y-37906D01*
X69718Y-42665D02*
X70448Y-41935D01*
X69718Y-44109D02*
X69718Y-42665D01*
X70448Y-44839D02*
X69718Y-44109D01*
X70448Y-45361D02*
X70448Y-44839D01*
X70448Y-41412D02*
X70448Y-41935D01*
X75947Y-34855D02*
X75947Y-34917D01*
X75947Y-34917D02*
X75947Y-34978D01*
X72771Y-34917D02*
X71400Y-33546D01*
X75947Y-34917D02*
X72771Y-34917D01*
X90929Y-41096D02*
X91253Y-41096D01*
X90851Y-41174D02*
X90929Y-41096D01*
X91253Y-40889D02*
X91253Y-41096D01*
X90497Y-41174D02*
X90851Y-41174D01*
X80172Y-44710D02*
X79885Y-44710D01*
X81766Y-41757D02*
X81323Y-41757D01*
X80984Y-40576D02*
X80984Y-41265D01*
X80984Y-41265D02*
X81238Y-41265D01*
X80130Y-41672D02*
X81238Y-41672D01*
X80045Y-41757D02*
X80130Y-41672D01*
X81238Y-41265D02*
X81238Y-41672D01*
X81238Y-41672D02*
X81323Y-41757D01*
X79601Y-41757D02*
X80045Y-41757D01*
X80172Y-46580D02*
X80172Y-46234D01*
X80241Y-46165D02*
X80241Y-45653D01*
X80172Y-46234D02*
X80241Y-46165D01*
X94207Y-35035D02*
X92140Y-35035D01*
X80241Y-45653D02*
X80241Y-45451D01*
X80172Y-44710D02*
X80172Y-45055D01*
X91253Y-41322D02*
X91253Y-41096D01*
X91745Y-41322D02*
X91498Y-41322D01*
X91253Y-41322D02*
X91498Y-41322D01*
X91745Y-41322D02*
X91958Y-41322D01*
X94207Y-35035D02*
X94454Y-35035D01*
X94570Y-35150D02*
X94454Y-35035D01*
X94570Y-38711D02*
X94570Y-35150D01*
X91958Y-41322D02*
X94570Y-38711D01*
X79601Y-41757D02*
X79157Y-41757D01*
X79157Y-44501D02*
X79157Y-41757D01*
X77574Y-44501D02*
X79157Y-44501D01*
X79677Y-44501D02*
X79885Y-44710D01*
X79157Y-44501D02*
X79677Y-44501D01*
X92161Y-41525D02*
X92161Y-45488D01*
X91958Y-41322D02*
X92161Y-41525D01*
X88588Y-45842D02*
X88234Y-45488D01*
X92054Y-45842D02*
X88588Y-45842D01*
X92161Y-45735D02*
X92054Y-45842D01*
X92161Y-45488D02*
X92161Y-45735D01*
X88027Y-45488D02*
X88234Y-45488D01*
X88027Y-45488D02*
X88027Y-45735D01*
X87855Y-45907D02*
X88027Y-45735D01*
X82094Y-45907D02*
X87855Y-45907D01*
X81576Y-45389D02*
X82094Y-45907D01*
X80241Y-45389D02*
X81576Y-45389D01*
X80241Y-45451D02*
X80241Y-45389D01*
X80241Y-45124D02*
X80172Y-45055D01*
X80241Y-45389D02*
X80241Y-45124D01*
X79306Y-36383D02*
X79306Y-36279D01*
X79447Y-36279D02*
X79551Y-36383D01*
X79306Y-36279D02*
X79447Y-36279D01*
X79798Y-36383D02*
X79551Y-36383D01*
X78527Y-35501D02*
X79306Y-36279D01*
X77574Y-35501D02*
X78527Y-35501D01*
X74414Y-47328D02*
X74936Y-47328D01*
X76260Y-47501D02*
X76087Y-47328D01*
X77574Y-47501D02*
X76260Y-47501D01*
X74937Y-47328D02*
X74936Y-47328D01*
X76087Y-47328D02*
X74937Y-47328D01*
X90051Y-36439D02*
X94207Y-36439D01*
X89489Y-37001D02*
X90051Y-36439D01*
X80891Y-37001D02*
X89489Y-37001D01*
X80585Y-37307D02*
X80891Y-37001D01*
X80585Y-37792D02*
X80585Y-37307D01*
X80271Y-38107D02*
X80585Y-37792D01*
X78179Y-38107D02*
X80271Y-38107D01*
X77574Y-37501D02*
X78179Y-38107D01*
X94207Y-36693D02*
X94207Y-36439D01*
X94207Y-36093D02*
X94207Y-35389D01*
X91586Y-37501D02*
X92140Y-36947D01*
X83574Y-37501D02*
X91586Y-37501D01*
X92140Y-36693D02*
X92140Y-36947D01*
X92140Y-36093D02*
X92140Y-35389D01*
X84204Y-38501D02*
X83574Y-38501D01*
X86106Y-40403D02*
X84204Y-38501D01*
X86889Y-40403D02*
X86106Y-40403D01*
X90503Y-44017D02*
X86889Y-40403D01*
X90503Y-45488D02*
X90503Y-44017D01*
X91103Y-45488D02*
X91807Y-45488D01*
X85518Y-41445D02*
X83574Y-39501D01*
X86775Y-41445D02*
X85518Y-41445D01*
X86851Y-41521D02*
X86775Y-41445D01*
X86851Y-45006D02*
X86851Y-41521D01*
X86623Y-45234D02*
X86851Y-45006D01*
X86623Y-45488D02*
X86623Y-45234D01*
X86369Y-45488D02*
X86623Y-45488D01*
X86969Y-45488D02*
X87673Y-45488D01*
X82892Y-42501D02*
X80684Y-44710D01*
X83574Y-42501D02*
X82892Y-42501D01*
X80684Y-45988D02*
X80595Y-45900D01*
X80684Y-46580D02*
X80684Y-45988D01*
X80595Y-45653D02*
X80595Y-45900D01*
X80384Y-41265D02*
X80130Y-41265D01*
X80045Y-41180D02*
X80130Y-41265D01*
X80045Y-41167D02*
X80045Y-41180D01*
X79601Y-41167D02*
X80045Y-41167D01*
X86497Y-41174D02*
X86143Y-41174D01*
X80389Y-39094D02*
X78901Y-40581D01*
X84062Y-39094D02*
X80389Y-39094D01*
X86143Y-41174D02*
X84062Y-39094D01*
X78821Y-40501D02*
X78901Y-40581D01*
X77574Y-40501D02*
X78821Y-40501D01*
X79157Y-40837D02*
X79157Y-41167D01*
X78901Y-40581D02*
X79157Y-40837D01*
X79601Y-41167D02*
X79157Y-41167D01*
X81766Y-40576D02*
X82210Y-40576D01*
X79601Y-40576D02*
X80045Y-40576D01*
X81766Y-40576D02*
X81323Y-40576D01*
X80045Y-40576D02*
X80045Y-40576D01*
X80384Y-40576D02*
X80045Y-40576D01*
X81323Y-40372D02*
X81323Y-40576D01*
X81166Y-40215D02*
X81323Y-40372D01*
X80808Y-40215D02*
X81166Y-40215D01*
X80638Y-40385D02*
X80808Y-40215D01*
X80638Y-40576D02*
X80638Y-40385D01*
X80384Y-40576D02*
X80638Y-40576D01*
X82699Y-41064D02*
X82210Y-40576D01*
X83708Y-41064D02*
X82699Y-41064D01*
X84318Y-41674D02*
X83708Y-41064D01*
X86497Y-41674D02*
X84318Y-41674D01*
X72919Y-38501D02*
X70448Y-36030D01*
X77574Y-38501D02*
X72919Y-38501D01*
X70448Y-35507D02*
X70448Y-36030D01*
X71227Y-39501D02*
X71170Y-39444D01*
X77574Y-39501D02*
X71227Y-39501D01*
X70448Y-39444D02*
X71170Y-39444D01*
X79156Y-36945D02*
X79306Y-36945D01*
X79085Y-37016D02*
X79156Y-36945D01*
X79085Y-37544D02*
X79085Y-37016D01*
X79306Y-36737D02*
X79306Y-36945D01*
X79869Y-37016D02*
X79798Y-36945D01*
X80085Y-37016D02*
X79869Y-37016D01*
X80085Y-37544D02*
X80085Y-37016D01*
X79798Y-36737D02*
X79798Y-36945D01*
X92158Y-46657D02*
X89166Y-46657D01*
X88123Y-46657D02*
X85131Y-46657D01*
X77170Y-36905D02*
X77574Y-36501D01*
X77170Y-37697D02*
X77170Y-36905D01*
X77570Y-38097D02*
X77170Y-37697D01*
X77752Y-38097D02*
X77570Y-38097D01*
X77993Y-38338D02*
X77752Y-38097D01*
X77993Y-39655D02*
X77993Y-38338D01*
X77686Y-39963D02*
X77993Y-39655D01*
X77536Y-39963D02*
X77686Y-39963D01*
X77170Y-40329D02*
X77536Y-39963D01*
X77170Y-44672D02*
X77170Y-40329D01*
X77498Y-45001D02*
X77170Y-44672D01*
X77702Y-45001D02*
X77498Y-45001D01*
X79638Y-46937D02*
X77702Y-45001D01*
X84850Y-46937D02*
X79638Y-46937D01*
X85131Y-46657D02*
X84850Y-46937D01*
X74869Y-33078D02*
X74400Y-33546D01*
X81564Y-33078D02*
X74869Y-33078D01*
X83574Y-35087D02*
X81564Y-33078D01*
X83574Y-35501D02*
X83574Y-35087D01*
X82181Y-32108D02*
X83574Y-33501D01*
X72838Y-32108D02*
X82181Y-32108D01*
X72400Y-32546D02*
X72838Y-32108D01*
X86851Y-40795D02*
X87098Y-41042D01*
X86851Y-40674D02*
X86851Y-40795D01*
X86497Y-40674D02*
X86851Y-40674D01*
X90143Y-41343D02*
X90143Y-40674D01*
X90245Y-41445D02*
X90143Y-41343D01*
X90956Y-41445D02*
X90245Y-41445D01*
X91186Y-41676D02*
X90956Y-41445D01*
X91253Y-41676D02*
X91186Y-41676D01*
X90497Y-40674D02*
X90143Y-40674D01*
X91060Y-41883D02*
X91745Y-41883D01*
X90851Y-41674D02*
X91060Y-41883D01*
X90497Y-41674D02*
X90851Y-41674D01*
X91745Y-41676D02*
X91745Y-41883D01*
G54D10*
G36*
X83240Y-36001D02*
X83074Y-36166D01*
X82984Y-36383D01*
X82984Y-36618D01*
X82991Y-36636D01*
X80891Y-36636D01*
X80751Y-36664D01*
X80633Y-36743D01*
X80441Y-36935D01*
X80433Y-36930D01*
X80423Y-36876D01*
X80343Y-36757D01*
X80231Y-36682D01*
X80231Y-36596D01*
X80216Y-36560D01*
X80231Y-36524D01*
X80231Y-36399D01*
X80231Y-36242D01*
X80183Y-36126D01*
X80094Y-36038D01*
X79979Y-35990D01*
X79853Y-35990D01*
X79658Y-35990D01*
X79587Y-35942D01*
X79459Y-35917D01*
X79088Y-35546D01*
X79088Y-35115D01*
X79088Y-34495D01*
X79088Y-34452D01*
X79088Y-33832D01*
X79002Y-33772D01*
X78917Y-33796D01*
X78732Y-33909D01*
X78605Y-34084D01*
X78555Y-34295D01*
X78555Y-34452D01*
X79088Y-34452D01*
X79088Y-34495D01*
X78555Y-34495D01*
X78555Y-34652D01*
X78605Y-34863D01*
X78732Y-35038D01*
X78917Y-35151D01*
X79002Y-35175D01*
X79088Y-35115D01*
X79088Y-35546D01*
X78786Y-35243D01*
X78667Y-35164D01*
X78527Y-35136D01*
X78043Y-35136D01*
X77908Y-35001D01*
X77908Y-35001D01*
X78073Y-34836D01*
X78163Y-34619D01*
X78164Y-34384D01*
X78074Y-34167D01*
X77908Y-34001D01*
X77908Y-34001D01*
X78073Y-33836D01*
X78163Y-33619D01*
X78164Y-33443D01*
X81413Y-33443D01*
X81704Y-33733D01*
X81607Y-33773D01*
X81519Y-33862D01*
X81504Y-33897D01*
X81495Y-33884D01*
X81303Y-33756D01*
X81077Y-33711D01*
X80851Y-33756D01*
X80660Y-33884D01*
X80585Y-33995D01*
X80511Y-33884D01*
X80319Y-33756D01*
X80093Y-33711D01*
X79867Y-33756D01*
X79676Y-33884D01*
X79576Y-34033D01*
X79486Y-33909D01*
X79302Y-33796D01*
X79217Y-33772D01*
X79131Y-33832D01*
X79131Y-34452D01*
X79138Y-34452D01*
X79138Y-34495D01*
X79131Y-34495D01*
X79131Y-35115D01*
X79217Y-35175D01*
X79302Y-35151D01*
X79486Y-35038D01*
X79576Y-34914D01*
X79676Y-35063D01*
X79867Y-35191D01*
X80093Y-35236D01*
X80319Y-35191D01*
X80511Y-35063D01*
X80585Y-34952D01*
X80660Y-35063D01*
X80851Y-35191D01*
X81077Y-35236D01*
X81303Y-35191D01*
X81495Y-35063D01*
X81504Y-35050D01*
X81519Y-35085D01*
X81607Y-35174D01*
X81723Y-35222D01*
X81848Y-35222D01*
X82400Y-35222D01*
X82515Y-35174D01*
X82604Y-35085D01*
X82652Y-34969D01*
X82652Y-34844D01*
X82652Y-34681D01*
X83106Y-35135D01*
X83074Y-35166D01*
X82984Y-35383D01*
X82984Y-35618D01*
X83074Y-35835D01*
X83239Y-36001D01*
X83240Y-36001D01*
X83240Y-36001D01*
G37*
G54D34*
X83240Y-36001D02*
X83074Y-36166D01*
X82984Y-36383D01*
X82984Y-36618D01*
X82991Y-36636D01*
X80891Y-36636D01*
X80751Y-36664D01*
X80633Y-36743D01*
X80441Y-36935D01*
X80433Y-36930D01*
X80423Y-36876D01*
X80343Y-36757D01*
X80231Y-36682D01*
X80231Y-36596D01*
X80216Y-36560D01*
X80231Y-36524D01*
X80231Y-36399D01*
X80231Y-36242D01*
X80183Y-36126D01*
X80094Y-36038D01*
X79979Y-35990D01*
X79853Y-35990D01*
X79658Y-35990D01*
X79587Y-35942D01*
X79459Y-35917D01*
X79088Y-35546D01*
X79088Y-35115D01*
X79088Y-34495D01*
X79088Y-34452D01*
X79088Y-33832D01*
X79002Y-33772D01*
X78917Y-33796D01*
X78732Y-33909D01*
X78605Y-34084D01*
X78555Y-34295D01*
X78555Y-34452D01*
X79088Y-34452D01*
X79088Y-34495D01*
X78555Y-34495D01*
X78555Y-34652D01*
X78605Y-34863D01*
X78732Y-35038D01*
X78917Y-35151D01*
X79002Y-35175D01*
X79088Y-35115D01*
X79088Y-35546D01*
X78786Y-35243D01*
X78667Y-35164D01*
X78527Y-35136D01*
X78043Y-35136D01*
X77908Y-35001D01*
X77908Y-35001D01*
X78073Y-34836D01*
X78163Y-34619D01*
X78164Y-34384D01*
X78074Y-34167D01*
X77908Y-34001D01*
X77908Y-34001D01*
X78073Y-33836D01*
X78163Y-33619D01*
X78164Y-33443D01*
X81413Y-33443D01*
X81704Y-33733D01*
X81607Y-33773D01*
X81519Y-33862D01*
X81504Y-33897D01*
X81495Y-33884D01*
X81303Y-33756D01*
X81077Y-33711D01*
X80851Y-33756D01*
X80660Y-33884D01*
X80585Y-33995D01*
X80511Y-33884D01*
X80319Y-33756D01*
X80093Y-33711D01*
X79867Y-33756D01*
X79676Y-33884D01*
X79576Y-34033D01*
X79486Y-33909D01*
X79302Y-33796D01*
X79217Y-33772D01*
X79131Y-33832D01*
X79131Y-34452D01*
X79138Y-34452D01*
X79138Y-34495D01*
X79131Y-34495D01*
X79131Y-35115D01*
X79217Y-35175D01*
X79302Y-35151D01*
X79486Y-35038D01*
X79576Y-34914D01*
X79676Y-35063D01*
X79867Y-35191D01*
X80093Y-35236D01*
X80319Y-35191D01*
X80511Y-35063D01*
X80585Y-34952D01*
X80660Y-35063D01*
X80851Y-35191D01*
X81077Y-35236D01*
X81303Y-35191D01*
X81495Y-35063D01*
X81504Y-35050D01*
X81519Y-35085D01*
X81607Y-35174D01*
X81723Y-35222D01*
X81848Y-35222D01*
X82400Y-35222D01*
X82515Y-35174D01*
X82604Y-35085D01*
X82652Y-34969D01*
X82652Y-34844D01*
X82652Y-34681D01*
X83106Y-35135D01*
X83074Y-35166D01*
X82984Y-35383D01*
X82984Y-35618D01*
X83074Y-35835D01*
X83239Y-36001D01*
X83240Y-36001D01*
G54D10*
G36*
X83240Y-38001D02*
X83074Y-38166D01*
X82984Y-38383D01*
X82984Y-38618D01*
X83030Y-38729D01*
X82704Y-38729D01*
X82704Y-37626D01*
X82704Y-37566D01*
X82107Y-37566D01*
X82107Y-38153D01*
X82203Y-38212D01*
X82302Y-38184D01*
X82508Y-38057D01*
X82649Y-37861D01*
X82704Y-37626D01*
X82704Y-38729D01*
X82064Y-38729D01*
X82064Y-38153D01*
X82064Y-37566D01*
X81704Y-37566D01*
X81467Y-37566D01*
X81107Y-37566D01*
X81107Y-38153D01*
X81203Y-38212D01*
X81302Y-38184D01*
X81508Y-38057D01*
X81585Y-37949D01*
X81663Y-38057D01*
X81868Y-38184D01*
X81968Y-38212D01*
X82064Y-38153D01*
X82064Y-38729D01*
X80389Y-38729D01*
X80249Y-38756D01*
X80131Y-38835D01*
X78829Y-40138D01*
X78821Y-40136D01*
X78043Y-40136D01*
X78036Y-40129D01*
X78251Y-39914D01*
X78331Y-39795D01*
X78331Y-39795D01*
X78358Y-39655D01*
X78358Y-38472D01*
X80271Y-38472D01*
X80410Y-38444D01*
X80410Y-38444D01*
X80529Y-38365D01*
X80770Y-38124D01*
X80868Y-38184D01*
X80968Y-38212D01*
X81064Y-38153D01*
X81064Y-37566D01*
X81056Y-37566D01*
X81056Y-37523D01*
X81064Y-37523D01*
X81064Y-37515D01*
X81107Y-37515D01*
X81107Y-37523D01*
X81467Y-37523D01*
X81704Y-37523D01*
X82064Y-37523D01*
X82064Y-37515D01*
X82107Y-37515D01*
X82107Y-37523D01*
X82704Y-37523D01*
X82704Y-37463D01*
X82681Y-37366D01*
X82991Y-37366D01*
X82984Y-37383D01*
X82984Y-37618D01*
X83074Y-37835D01*
X83239Y-38001D01*
X83240Y-38001D01*
X83240Y-38001D01*
G37*
G54D34*
X83240Y-38001D02*
X83074Y-38166D01*
X82984Y-38383D01*
X82984Y-38618D01*
X83030Y-38729D01*
X82704Y-38729D01*
X82704Y-37626D01*
X82704Y-37566D01*
X82107Y-37566D01*
X82107Y-38153D01*
X82203Y-38212D01*
X82302Y-38184D01*
X82508Y-38057D01*
X82649Y-37861D01*
X82704Y-37626D01*
X82704Y-38729D01*
X82064Y-38729D01*
X82064Y-38153D01*
X82064Y-37566D01*
X81704Y-37566D01*
X81467Y-37566D01*
X81107Y-37566D01*
X81107Y-38153D01*
X81203Y-38212D01*
X81302Y-38184D01*
X81508Y-38057D01*
X81585Y-37949D01*
X81663Y-38057D01*
X81868Y-38184D01*
X81968Y-38212D01*
X82064Y-38153D01*
X82064Y-38729D01*
X80389Y-38729D01*
X80249Y-38756D01*
X80131Y-38835D01*
X78829Y-40138D01*
X78821Y-40136D01*
X78043Y-40136D01*
X78036Y-40129D01*
X78251Y-39914D01*
X78331Y-39795D01*
X78331Y-39795D01*
X78358Y-39655D01*
X78358Y-38472D01*
X80271Y-38472D01*
X80410Y-38444D01*
X80410Y-38444D01*
X80529Y-38365D01*
X80770Y-38124D01*
X80868Y-38184D01*
X80968Y-38212D01*
X81064Y-38153D01*
X81064Y-37566D01*
X81056Y-37566D01*
X81056Y-37523D01*
X81064Y-37523D01*
X81064Y-37515D01*
X81107Y-37515D01*
X81107Y-37523D01*
X81467Y-37523D01*
X81704Y-37523D01*
X82064Y-37523D01*
X82064Y-37515D01*
X82107Y-37515D01*
X82107Y-37523D01*
X82704Y-37523D01*
X82704Y-37463D01*
X82681Y-37366D01*
X82991Y-37366D01*
X82984Y-37383D01*
X82984Y-37618D01*
X83074Y-37835D01*
X83239Y-38001D01*
X83240Y-38001D01*
G54D10*
G36*
X83240Y-42001D02*
X83105Y-42136D01*
X82892Y-42136D01*
X82753Y-42164D01*
X82634Y-42243D01*
X82278Y-42599D01*
X82332Y-42510D01*
X82350Y-42443D01*
X82290Y-42369D01*
X81788Y-42369D01*
X81788Y-42823D01*
X81906Y-42823D01*
X82086Y-42779D01*
X82132Y-42745D01*
X81745Y-43132D01*
X81745Y-42823D01*
X81745Y-42369D01*
X81243Y-42369D01*
X81182Y-42443D01*
X81201Y-42510D01*
X81297Y-42669D01*
X81447Y-42779D01*
X81627Y-42823D01*
X81745Y-42823D01*
X81745Y-43132D01*
X80705Y-44172D01*
X80684Y-44168D01*
X80503Y-44204D01*
X80484Y-44216D01*
X80392Y-44178D01*
X80267Y-44178D01*
X80185Y-44178D01*
X80185Y-42443D01*
X80125Y-42369D01*
X79622Y-42369D01*
X79622Y-42823D01*
X79740Y-42823D01*
X79921Y-42779D01*
X80071Y-42669D01*
X80167Y-42510D01*
X80185Y-42443D01*
X80185Y-44178D01*
X79952Y-44178D01*
X79881Y-44207D01*
X79816Y-44164D01*
X79677Y-44136D01*
X79522Y-44136D01*
X79522Y-42823D01*
X79580Y-42823D01*
X79580Y-42369D01*
X79572Y-42369D01*
X79572Y-42326D01*
X79580Y-42326D01*
X79580Y-42319D01*
X79622Y-42319D01*
X79622Y-42326D01*
X80125Y-42326D01*
X80185Y-42252D01*
X80167Y-42185D01*
X80119Y-42107D01*
X80185Y-42094D01*
X80185Y-42094D01*
X80270Y-42037D01*
X81097Y-42037D01*
X81183Y-42094D01*
X81183Y-42094D01*
X81248Y-42107D01*
X81201Y-42185D01*
X81182Y-42252D01*
X81243Y-42326D01*
X81745Y-42326D01*
X81745Y-42319D01*
X81788Y-42319D01*
X81788Y-42326D01*
X82290Y-42326D01*
X82350Y-42252D01*
X82332Y-42185D01*
X82276Y-42093D01*
X82370Y-41953D01*
X82409Y-41757D01*
X82370Y-41561D01*
X82303Y-41462D01*
X82370Y-41363D01*
X82388Y-41270D01*
X82441Y-41322D01*
X82559Y-41402D01*
X82559Y-41402D01*
X82699Y-41429D01*
X82984Y-41429D01*
X82984Y-41618D01*
X83074Y-41835D01*
X83239Y-42001D01*
X83240Y-42001D01*
X83240Y-42001D01*
G37*
G54D34*
X83240Y-42001D02*
X83105Y-42136D01*
X82892Y-42136D01*
X82753Y-42164D01*
X82634Y-42243D01*
X82278Y-42599D01*
X82332Y-42510D01*
X82350Y-42443D01*
X82290Y-42369D01*
X81788Y-42369D01*
X81788Y-42823D01*
X81906Y-42823D01*
X82086Y-42779D01*
X82132Y-42745D01*
X81745Y-43132D01*
X81745Y-42823D01*
X81745Y-42369D01*
X81243Y-42369D01*
X81182Y-42443D01*
X81201Y-42510D01*
X81297Y-42669D01*
X81447Y-42779D01*
X81627Y-42823D01*
X81745Y-42823D01*
X81745Y-43132D01*
X80705Y-44172D01*
X80684Y-44168D01*
X80503Y-44204D01*
X80484Y-44216D01*
X80392Y-44178D01*
X80267Y-44178D01*
X80185Y-44178D01*
X80185Y-42443D01*
X80125Y-42369D01*
X79622Y-42369D01*
X79622Y-42823D01*
X79740Y-42823D01*
X79921Y-42779D01*
X80071Y-42669D01*
X80167Y-42510D01*
X80185Y-42443D01*
X80185Y-44178D01*
X79952Y-44178D01*
X79881Y-44207D01*
X79816Y-44164D01*
X79677Y-44136D01*
X79522Y-44136D01*
X79522Y-42823D01*
X79580Y-42823D01*
X79580Y-42369D01*
X79572Y-42369D01*
X79572Y-42326D01*
X79580Y-42326D01*
X79580Y-42319D01*
X79622Y-42319D01*
X79622Y-42326D01*
X80125Y-42326D01*
X80185Y-42252D01*
X80167Y-42185D01*
X80119Y-42107D01*
X80185Y-42094D01*
X80185Y-42094D01*
X80270Y-42037D01*
X81097Y-42037D01*
X81183Y-42094D01*
X81183Y-42094D01*
X81248Y-42107D01*
X81201Y-42185D01*
X81182Y-42252D01*
X81243Y-42326D01*
X81745Y-42326D01*
X81745Y-42319D01*
X81788Y-42319D01*
X81788Y-42326D01*
X82290Y-42326D01*
X82350Y-42252D01*
X82332Y-42185D01*
X82276Y-42093D01*
X82370Y-41953D01*
X82409Y-41757D01*
X82370Y-41561D01*
X82303Y-41462D01*
X82370Y-41363D01*
X82388Y-41270D01*
X82441Y-41322D01*
X82559Y-41402D01*
X82559Y-41402D01*
X82699Y-41429D01*
X82984Y-41429D01*
X82984Y-41618D01*
X83074Y-41835D01*
X83239Y-42001D01*
X83240Y-42001D01*
G54D10*
G36*
X86486Y-44855D02*
X86393Y-44948D01*
X86181Y-44948D01*
X86065Y-44996D01*
X85977Y-45085D01*
X85929Y-45200D01*
X85929Y-45326D01*
X85929Y-45542D01*
X84164Y-45542D01*
X84164Y-45384D01*
X84128Y-45297D01*
X84128Y-44392D01*
X84044Y-44188D01*
X84043Y-44187D01*
X83939Y-44166D01*
X83604Y-44501D01*
X83939Y-44836D01*
X84043Y-44815D01*
X84128Y-44612D01*
X84128Y-44392D01*
X84128Y-45297D01*
X84074Y-45167D01*
X83909Y-45001D01*
X83861Y-44982D01*
X83887Y-44971D01*
X83888Y-44970D01*
X83909Y-44866D01*
X83574Y-44531D01*
X83544Y-44561D01*
X83544Y-44501D01*
X83209Y-44166D01*
X83105Y-44187D01*
X83020Y-44390D01*
X83020Y-44610D01*
X83104Y-44814D01*
X83105Y-44815D01*
X83209Y-44836D01*
X83544Y-44501D01*
X83544Y-44561D01*
X83239Y-44866D01*
X83260Y-44970D01*
X83287Y-44981D01*
X83240Y-45001D01*
X83074Y-45166D01*
X82984Y-45383D01*
X82984Y-45542D01*
X82245Y-45542D01*
X81834Y-45131D01*
X81716Y-45052D01*
X81576Y-45024D01*
X81539Y-45024D01*
X81591Y-44955D01*
X81632Y-44790D01*
X81632Y-44731D01*
X81217Y-44731D01*
X81217Y-44739D01*
X81174Y-44739D01*
X81174Y-44735D01*
X81221Y-44688D01*
X81632Y-44688D01*
X81632Y-44629D01*
X81591Y-44464D01*
X81529Y-44381D01*
X83044Y-42866D01*
X83105Y-42866D01*
X83239Y-43001D01*
X83240Y-43001D01*
X83074Y-43166D01*
X82984Y-43383D01*
X82984Y-43618D01*
X83074Y-43835D01*
X83239Y-44001D01*
X83287Y-44021D01*
X83261Y-44031D01*
X83260Y-44032D01*
X83239Y-44136D01*
X83574Y-44471D01*
X83909Y-44136D01*
X83888Y-44032D01*
X83861Y-44021D01*
X83908Y-44002D01*
X84074Y-43836D01*
X84164Y-43619D01*
X84164Y-43384D01*
X84074Y-43167D01*
X83909Y-43001D01*
X83908Y-43001D01*
X84074Y-42836D01*
X84164Y-42619D01*
X84164Y-42384D01*
X84074Y-42167D01*
X83909Y-42001D01*
X83908Y-42001D01*
X84019Y-41891D01*
X84060Y-41932D01*
X84179Y-42011D01*
X84179Y-42011D01*
X84318Y-42039D01*
X86091Y-42039D01*
X86093Y-42041D01*
X86209Y-42089D01*
X86334Y-42089D01*
X86486Y-42089D01*
X86486Y-44855D01*
X86486Y-44855D01*
G37*
G54D34*
X86486Y-44855D02*
X86393Y-44948D01*
X86181Y-44948D01*
X86065Y-44996D01*
X85977Y-45085D01*
X85929Y-45200D01*
X85929Y-45326D01*
X85929Y-45542D01*
X84164Y-45542D01*
X84164Y-45384D01*
X84128Y-45297D01*
X84128Y-44392D01*
X84044Y-44188D01*
X84043Y-44187D01*
X83939Y-44166D01*
X83604Y-44501D01*
X83939Y-44836D01*
X84043Y-44815D01*
X84128Y-44612D01*
X84128Y-44392D01*
X84128Y-45297D01*
X84074Y-45167D01*
X83909Y-45001D01*
X83861Y-44982D01*
X83887Y-44971D01*
X83888Y-44970D01*
X83909Y-44866D01*
X83574Y-44531D01*
X83544Y-44561D01*
X83544Y-44501D01*
X83209Y-44166D01*
X83105Y-44187D01*
X83020Y-44390D01*
X83020Y-44610D01*
X83104Y-44814D01*
X83105Y-44815D01*
X83209Y-44836D01*
X83544Y-44501D01*
X83544Y-44561D01*
X83239Y-44866D01*
X83260Y-44970D01*
X83287Y-44981D01*
X83240Y-45001D01*
X83074Y-45166D01*
X82984Y-45383D01*
X82984Y-45542D01*
X82245Y-45542D01*
X81834Y-45131D01*
X81716Y-45052D01*
X81576Y-45024D01*
X81539Y-45024D01*
X81591Y-44955D01*
X81632Y-44790D01*
X81632Y-44731D01*
X81217Y-44731D01*
X81217Y-44739D01*
X81174Y-44739D01*
X81174Y-44735D01*
X81221Y-44688D01*
X81632Y-44688D01*
X81632Y-44629D01*
X81591Y-44464D01*
X81529Y-44381D01*
X83044Y-42866D01*
X83105Y-42866D01*
X83239Y-43001D01*
X83240Y-43001D01*
X83074Y-43166D01*
X82984Y-43383D01*
X82984Y-43618D01*
X83074Y-43835D01*
X83239Y-44001D01*
X83287Y-44021D01*
X83261Y-44031D01*
X83260Y-44032D01*
X83239Y-44136D01*
X83574Y-44471D01*
X83909Y-44136D01*
X83888Y-44032D01*
X83861Y-44021D01*
X83908Y-44002D01*
X84074Y-43836D01*
X84164Y-43619D01*
X84164Y-43384D01*
X84074Y-43167D01*
X83909Y-43001D01*
X83908Y-43001D01*
X84074Y-42836D01*
X84164Y-42619D01*
X84164Y-42384D01*
X84074Y-42167D01*
X83909Y-42001D01*
X83908Y-42001D01*
X84019Y-41891D01*
X84060Y-41932D01*
X84179Y-42011D01*
X84179Y-42011D01*
X84318Y-42039D01*
X86091Y-42039D01*
X86093Y-42041D01*
X86209Y-42089D01*
X86334Y-42089D01*
X86486Y-42089D01*
X86486Y-44855D01*
G54D10*
G36*
X94205Y-38559D02*
X91835Y-40929D01*
X91800Y-40929D01*
X91686Y-40929D01*
X91686Y-40905D01*
X91686Y-40748D01*
X91649Y-40660D01*
X91649Y-40626D01*
X91580Y-40556D01*
X91562Y-40556D01*
X91549Y-40543D01*
X91477Y-40513D01*
X91580Y-40513D01*
X91649Y-40444D01*
X91649Y-40401D01*
X91607Y-40298D01*
X91529Y-40220D01*
X91426Y-40177D01*
X91344Y-40177D01*
X91274Y-40247D01*
X91274Y-40495D01*
X91231Y-40495D01*
X91231Y-40247D01*
X91162Y-40177D01*
X91079Y-40177D01*
X91037Y-40195D01*
X91037Y-40012D01*
X90989Y-39896D01*
X90978Y-39885D01*
X91000Y-39830D01*
X91000Y-39765D01*
X91000Y-39583D01*
X91000Y-39519D01*
X90961Y-39424D01*
X91000Y-39330D01*
X91000Y-39265D01*
X91000Y-39083D01*
X91000Y-39019D01*
X90961Y-38924D01*
X91000Y-38830D01*
X91000Y-38765D01*
X91000Y-38583D01*
X91000Y-38519D01*
X90961Y-38424D01*
X91000Y-38330D01*
X91000Y-38265D01*
X90931Y-38196D01*
X90518Y-38196D01*
X90518Y-38365D01*
X90518Y-38483D01*
X90518Y-38653D01*
X90931Y-38653D01*
X91000Y-38583D01*
X91000Y-38765D01*
X90931Y-38696D01*
X90518Y-38696D01*
X90518Y-38865D01*
X90518Y-38983D01*
X90518Y-39153D01*
X90931Y-39153D01*
X91000Y-39083D01*
X91000Y-39265D01*
X90931Y-39196D01*
X90518Y-39196D01*
X90518Y-39365D01*
X90518Y-39483D01*
X90518Y-39653D01*
X90931Y-39653D01*
X91000Y-39583D01*
X91000Y-39765D01*
X90931Y-39696D01*
X90518Y-39696D01*
X90518Y-39703D01*
X90475Y-39703D01*
X90475Y-39696D01*
X90475Y-39653D01*
X90475Y-39483D01*
X90475Y-39365D01*
X90475Y-39196D01*
X90475Y-39153D01*
X90475Y-38983D01*
X90475Y-38865D01*
X90475Y-38696D01*
X90475Y-38653D01*
X90475Y-38483D01*
X90475Y-38365D01*
X90475Y-38196D01*
X90063Y-38196D01*
X89993Y-38265D01*
X89993Y-38330D01*
X90032Y-38424D01*
X89993Y-38519D01*
X89993Y-38583D01*
X90063Y-38653D01*
X90475Y-38653D01*
X90475Y-38696D01*
X90063Y-38696D01*
X89993Y-38765D01*
X89993Y-38830D01*
X90032Y-38924D01*
X89993Y-39019D01*
X89993Y-39083D01*
X90063Y-39153D01*
X90475Y-39153D01*
X90475Y-39196D01*
X90063Y-39196D01*
X89993Y-39265D01*
X89993Y-39330D01*
X90032Y-39424D01*
X89993Y-39519D01*
X89993Y-39583D01*
X90063Y-39653D01*
X90475Y-39653D01*
X90475Y-39696D01*
X90063Y-39696D01*
X89993Y-39765D01*
X89993Y-39830D01*
X90016Y-39885D01*
X90005Y-39896D01*
X89957Y-40012D01*
X89957Y-40137D01*
X89957Y-40337D01*
X89967Y-40361D01*
X89885Y-40416D01*
X89806Y-40535D01*
X89778Y-40674D01*
X89778Y-41343D01*
X89806Y-41483D01*
X89885Y-41601D01*
X89957Y-41673D01*
X89957Y-41837D01*
X90005Y-41953D01*
X90093Y-42041D01*
X90209Y-42089D01*
X90334Y-42089D01*
X90749Y-42089D01*
X90802Y-42142D01*
X90920Y-42221D01*
X90920Y-42221D01*
X91060Y-42248D01*
X91745Y-42248D01*
X91796Y-42238D01*
X91796Y-45055D01*
X91666Y-45055D01*
X91550Y-45103D01*
X91530Y-45123D01*
X91511Y-45123D01*
X91495Y-45085D01*
X91406Y-44996D01*
X91290Y-44948D01*
X91165Y-44948D01*
X90915Y-44948D01*
X90868Y-44968D01*
X90868Y-44017D01*
X90840Y-43877D01*
X90840Y-43877D01*
X90761Y-43759D01*
X87147Y-40145D01*
X87029Y-40066D01*
X87000Y-40060D01*
X87000Y-40019D01*
X86961Y-39924D01*
X87000Y-39830D01*
X87000Y-39765D01*
X87000Y-39583D01*
X87000Y-39519D01*
X86961Y-39424D01*
X87000Y-39330D01*
X87000Y-39265D01*
X87000Y-39083D01*
X87000Y-39019D01*
X86961Y-38924D01*
X87000Y-38830D01*
X87000Y-38765D01*
X87000Y-38583D01*
X87000Y-38519D01*
X86961Y-38424D01*
X87000Y-38330D01*
X87000Y-38265D01*
X86931Y-38196D01*
X86518Y-38196D01*
X86518Y-38365D01*
X86518Y-38483D01*
X86518Y-38653D01*
X86931Y-38653D01*
X87000Y-38583D01*
X87000Y-38765D01*
X86931Y-38696D01*
X86518Y-38696D01*
X86518Y-38865D01*
X86518Y-38983D01*
X86518Y-39153D01*
X86931Y-39153D01*
X87000Y-39083D01*
X87000Y-39265D01*
X86931Y-39196D01*
X86518Y-39196D01*
X86518Y-39365D01*
X86518Y-39483D01*
X86518Y-39653D01*
X86931Y-39653D01*
X87000Y-39583D01*
X87000Y-39765D01*
X86931Y-39696D01*
X86518Y-39696D01*
X86518Y-39703D01*
X86475Y-39703D01*
X86475Y-39696D01*
X86475Y-39653D01*
X86475Y-39483D01*
X86475Y-39365D01*
X86475Y-39196D01*
X86475Y-39153D01*
X86475Y-38983D01*
X86475Y-38865D01*
X86475Y-38696D01*
X86475Y-38653D01*
X86475Y-38483D01*
X86475Y-38365D01*
X86475Y-38196D01*
X86063Y-38196D01*
X85993Y-38265D01*
X85993Y-38330D01*
X86032Y-38424D01*
X85993Y-38519D01*
X85993Y-38583D01*
X86063Y-38653D01*
X86475Y-38653D01*
X86475Y-38696D01*
X86063Y-38696D01*
X85993Y-38765D01*
X85993Y-38830D01*
X86032Y-38924D01*
X85993Y-39019D01*
X85993Y-39083D01*
X86063Y-39153D01*
X86475Y-39153D01*
X86475Y-39196D01*
X86063Y-39196D01*
X85993Y-39265D01*
X85993Y-39330D01*
X86032Y-39424D01*
X85993Y-39519D01*
X85993Y-39583D01*
X86063Y-39653D01*
X86475Y-39653D01*
X86475Y-39696D01*
X86063Y-39696D01*
X85993Y-39765D01*
X85993Y-39774D01*
X84462Y-38243D01*
X84344Y-38164D01*
X84204Y-38136D01*
X84043Y-38136D01*
X83909Y-38001D01*
X83908Y-38001D01*
X84043Y-37866D01*
X86086Y-37866D01*
X86035Y-37916D01*
X85993Y-38019D01*
X85993Y-38083D01*
X86063Y-38153D01*
X86475Y-38153D01*
X86475Y-38145D01*
X86518Y-38145D01*
X86518Y-38153D01*
X86931Y-38153D01*
X87000Y-38083D01*
X87000Y-38019D01*
X86958Y-37916D01*
X86908Y-37866D01*
X90086Y-37866D01*
X90035Y-37916D01*
X89993Y-38019D01*
X89993Y-38083D01*
X90063Y-38153D01*
X90475Y-38153D01*
X90475Y-38145D01*
X90518Y-38145D01*
X90518Y-38153D01*
X90931Y-38153D01*
X91000Y-38083D01*
X91000Y-38019D01*
X90958Y-37916D01*
X90908Y-37866D01*
X91586Y-37866D01*
X91726Y-37838D01*
X91726Y-37838D01*
X91844Y-37759D01*
X92399Y-37205D01*
X92454Y-37122D01*
X92544Y-37085D01*
X92632Y-36996D01*
X92680Y-36880D01*
X92680Y-36804D01*
X93667Y-36804D01*
X93667Y-36880D01*
X93715Y-36996D01*
X93804Y-37085D01*
X93920Y-37133D01*
X94045Y-37133D01*
X94205Y-37133D01*
X94205Y-38559D01*
X94205Y-38559D01*
G37*
G54D34*
X94205Y-38559D02*
X91835Y-40929D01*
X91800Y-40929D01*
X91686Y-40929D01*
X91686Y-40905D01*
X91686Y-40748D01*
X91649Y-40660D01*
X91649Y-40626D01*
X91580Y-40556D01*
X91562Y-40556D01*
X91549Y-40543D01*
X91477Y-40513D01*
X91580Y-40513D01*
X91649Y-40444D01*
X91649Y-40401D01*
X91607Y-40298D01*
X91529Y-40220D01*
X91426Y-40177D01*
X91344Y-40177D01*
X91274Y-40247D01*
X91274Y-40495D01*
X91231Y-40495D01*
X91231Y-40247D01*
X91162Y-40177D01*
X91079Y-40177D01*
X91037Y-40195D01*
X91037Y-40012D01*
X90989Y-39896D01*
X90978Y-39885D01*
X91000Y-39830D01*
X91000Y-39765D01*
X91000Y-39583D01*
X91000Y-39519D01*
X90961Y-39424D01*
X91000Y-39330D01*
X91000Y-39265D01*
X91000Y-39083D01*
X91000Y-39019D01*
X90961Y-38924D01*
X91000Y-38830D01*
X91000Y-38765D01*
X91000Y-38583D01*
X91000Y-38519D01*
X90961Y-38424D01*
X91000Y-38330D01*
X91000Y-38265D01*
X90931Y-38196D01*
X90518Y-38196D01*
X90518Y-38365D01*
X90518Y-38483D01*
X90518Y-38653D01*
X90931Y-38653D01*
X91000Y-38583D01*
X91000Y-38765D01*
X90931Y-38696D01*
X90518Y-38696D01*
X90518Y-38865D01*
X90518Y-38983D01*
X90518Y-39153D01*
X90931Y-39153D01*
X91000Y-39083D01*
X91000Y-39265D01*
X90931Y-39196D01*
X90518Y-39196D01*
X90518Y-39365D01*
X90518Y-39483D01*
X90518Y-39653D01*
X90931Y-39653D01*
X91000Y-39583D01*
X91000Y-39765D01*
X90931Y-39696D01*
X90518Y-39696D01*
X90518Y-39703D01*
X90475Y-39703D01*
X90475Y-39696D01*
X90475Y-39653D01*
X90475Y-39483D01*
X90475Y-39365D01*
X90475Y-39196D01*
X90475Y-39153D01*
X90475Y-38983D01*
X90475Y-38865D01*
X90475Y-38696D01*
X90475Y-38653D01*
X90475Y-38483D01*
X90475Y-38365D01*
X90475Y-38196D01*
X90063Y-38196D01*
X89993Y-38265D01*
X89993Y-38330D01*
X90032Y-38424D01*
X89993Y-38519D01*
X89993Y-38583D01*
X90063Y-38653D01*
X90475Y-38653D01*
X90475Y-38696D01*
X90063Y-38696D01*
X89993Y-38765D01*
X89993Y-38830D01*
X90032Y-38924D01*
X89993Y-39019D01*
X89993Y-39083D01*
X90063Y-39153D01*
X90475Y-39153D01*
X90475Y-39196D01*
X90063Y-39196D01*
X89993Y-39265D01*
X89993Y-39330D01*
X90032Y-39424D01*
X89993Y-39519D01*
X89993Y-39583D01*
X90063Y-39653D01*
X90475Y-39653D01*
X90475Y-39696D01*
X90063Y-39696D01*
X89993Y-39765D01*
X89993Y-39830D01*
X90016Y-39885D01*
X90005Y-39896D01*
X89957Y-40012D01*
X89957Y-40137D01*
X89957Y-40337D01*
X89967Y-40361D01*
X89885Y-40416D01*
X89806Y-40535D01*
X89778Y-40674D01*
X89778Y-41343D01*
X89806Y-41483D01*
X89885Y-41601D01*
X89957Y-41673D01*
X89957Y-41837D01*
X90005Y-41953D01*
X90093Y-42041D01*
X90209Y-42089D01*
X90334Y-42089D01*
X90749Y-42089D01*
X90802Y-42142D01*
X90920Y-42221D01*
X90920Y-42221D01*
X91060Y-42248D01*
X91745Y-42248D01*
X91796Y-42238D01*
X91796Y-45055D01*
X91666Y-45055D01*
X91550Y-45103D01*
X91530Y-45123D01*
X91511Y-45123D01*
X91495Y-45085D01*
X91406Y-44996D01*
X91290Y-44948D01*
X91165Y-44948D01*
X90915Y-44948D01*
X90868Y-44968D01*
X90868Y-44017D01*
X90840Y-43877D01*
X90840Y-43877D01*
X90761Y-43759D01*
X87147Y-40145D01*
X87029Y-40066D01*
X87000Y-40060D01*
X87000Y-40019D01*
X86961Y-39924D01*
X87000Y-39830D01*
X87000Y-39765D01*
X87000Y-39583D01*
X87000Y-39519D01*
X86961Y-39424D01*
X87000Y-39330D01*
X87000Y-39265D01*
X87000Y-39083D01*
X87000Y-39019D01*
X86961Y-38924D01*
X87000Y-38830D01*
X87000Y-38765D01*
X87000Y-38583D01*
X87000Y-38519D01*
X86961Y-38424D01*
X87000Y-38330D01*
X87000Y-38265D01*
X86931Y-38196D01*
X86518Y-38196D01*
X86518Y-38365D01*
X86518Y-38483D01*
X86518Y-38653D01*
X86931Y-38653D01*
X87000Y-38583D01*
X87000Y-38765D01*
X86931Y-38696D01*
X86518Y-38696D01*
X86518Y-38865D01*
X86518Y-38983D01*
X86518Y-39153D01*
X86931Y-39153D01*
X87000Y-39083D01*
X87000Y-39265D01*
X86931Y-39196D01*
X86518Y-39196D01*
X86518Y-39365D01*
X86518Y-39483D01*
X86518Y-39653D01*
X86931Y-39653D01*
X87000Y-39583D01*
X87000Y-39765D01*
X86931Y-39696D01*
X86518Y-39696D01*
X86518Y-39703D01*
X86475Y-39703D01*
X86475Y-39696D01*
X86475Y-39653D01*
X86475Y-39483D01*
X86475Y-39365D01*
X86475Y-39196D01*
X86475Y-39153D01*
X86475Y-38983D01*
X86475Y-38865D01*
X86475Y-38696D01*
X86475Y-38653D01*
X86475Y-38483D01*
X86475Y-38365D01*
X86475Y-38196D01*
X86063Y-38196D01*
X85993Y-38265D01*
X85993Y-38330D01*
X86032Y-38424D01*
X85993Y-38519D01*
X85993Y-38583D01*
X86063Y-38653D01*
X86475Y-38653D01*
X86475Y-38696D01*
X86063Y-38696D01*
X85993Y-38765D01*
X85993Y-38830D01*
X86032Y-38924D01*
X85993Y-39019D01*
X85993Y-39083D01*
X86063Y-39153D01*
X86475Y-39153D01*
X86475Y-39196D01*
X86063Y-39196D01*
X85993Y-39265D01*
X85993Y-39330D01*
X86032Y-39424D01*
X85993Y-39519D01*
X85993Y-39583D01*
X86063Y-39653D01*
X86475Y-39653D01*
X86475Y-39696D01*
X86063Y-39696D01*
X85993Y-39765D01*
X85993Y-39774D01*
X84462Y-38243D01*
X84344Y-38164D01*
X84204Y-38136D01*
X84043Y-38136D01*
X83909Y-38001D01*
X83908Y-38001D01*
X84043Y-37866D01*
X86086Y-37866D01*
X86035Y-37916D01*
X85993Y-38019D01*
X85993Y-38083D01*
X86063Y-38153D01*
X86475Y-38153D01*
X86475Y-38145D01*
X86518Y-38145D01*
X86518Y-38153D01*
X86931Y-38153D01*
X87000Y-38083D01*
X87000Y-38019D01*
X86958Y-37916D01*
X86908Y-37866D01*
X90086Y-37866D01*
X90035Y-37916D01*
X89993Y-38019D01*
X89993Y-38083D01*
X90063Y-38153D01*
X90475Y-38153D01*
X90475Y-38145D01*
X90518Y-38145D01*
X90518Y-38153D01*
X90931Y-38153D01*
X91000Y-38083D01*
X91000Y-38019D01*
X90958Y-37916D01*
X90908Y-37866D01*
X91586Y-37866D01*
X91726Y-37838D01*
X91726Y-37838D01*
X91844Y-37759D01*
X92399Y-37205D01*
X92454Y-37122D01*
X92544Y-37085D01*
X92632Y-36996D01*
X92680Y-36880D01*
X92680Y-36804D01*
X93667Y-36804D01*
X93667Y-36880D01*
X93715Y-36996D01*
X93804Y-37085D01*
X93920Y-37133D01*
X94045Y-37133D01*
X94205Y-37133D01*
X94205Y-38559D01*
G54D10*
G36*
X95032Y-48779D02*
X94992Y-48983D01*
X94895Y-49128D01*
X94759Y-49219D01*
X94759Y-48739D01*
X94759Y-48614D01*
X94759Y-47275D01*
X94711Y-47159D01*
X94622Y-47070D01*
X94506Y-47023D01*
X94381Y-47023D01*
X93042Y-47023D01*
X92926Y-47070D01*
X92838Y-47159D01*
X92790Y-47275D01*
X92790Y-47400D01*
X92790Y-48739D01*
X92838Y-48855D01*
X92926Y-48943D01*
X93042Y-48991D01*
X93167Y-48991D01*
X94506Y-48991D01*
X94622Y-48943D01*
X94711Y-48855D01*
X94759Y-48739D01*
X94759Y-49219D01*
X94750Y-49224D01*
X94546Y-49265D01*
X92712Y-49265D01*
X92712Y-48437D01*
X92628Y-48233D01*
X92627Y-48232D01*
X92523Y-48212D01*
X92493Y-48242D01*
X92493Y-48182D01*
X92473Y-48077D01*
X92269Y-47993D01*
X92049Y-47992D01*
X91845Y-48076D01*
X91844Y-48077D01*
X91824Y-48182D01*
X92158Y-48516D01*
X92493Y-48182D01*
X92493Y-48242D01*
X92188Y-48546D01*
X92523Y-48881D01*
X92627Y-48861D01*
X92712Y-48657D01*
X92712Y-48437D01*
X92712Y-49265D01*
X92493Y-49265D01*
X92493Y-48911D01*
X92158Y-48576D01*
X92128Y-48606D01*
X92128Y-48546D01*
X91794Y-48212D01*
X91689Y-48232D01*
X91605Y-48435D01*
X91604Y-48656D01*
X91688Y-48859D01*
X91689Y-48861D01*
X91794Y-48881D01*
X92128Y-48546D01*
X92128Y-48606D01*
X91824Y-48911D01*
X91844Y-49015D01*
X92047Y-49100D01*
X92267Y-49100D01*
X92471Y-49016D01*
X92473Y-49015D01*
X92493Y-48911D01*
X92493Y-49265D01*
X89720Y-49265D01*
X89720Y-48437D01*
X89636Y-48233D01*
X89635Y-48232D01*
X89531Y-48212D01*
X89501Y-48242D01*
X89501Y-48182D01*
X89480Y-48077D01*
X89277Y-47993D01*
X89057Y-47992D01*
X88853Y-48076D01*
X88852Y-48077D01*
X88831Y-48182D01*
X89166Y-48516D01*
X89501Y-48182D01*
X89501Y-48242D01*
X89196Y-48546D01*
X89531Y-48881D01*
X89635Y-48861D01*
X89720Y-48657D01*
X89720Y-48437D01*
X89720Y-49265D01*
X89501Y-49265D01*
X89501Y-48911D01*
X89166Y-48576D01*
X89136Y-48606D01*
X89136Y-48546D01*
X88801Y-48212D01*
X88697Y-48232D01*
X88644Y-48359D01*
X88593Y-48233D01*
X88592Y-48232D01*
X88487Y-48212D01*
X88457Y-48242D01*
X88457Y-48182D01*
X88437Y-48077D01*
X88234Y-47993D01*
X88013Y-47992D01*
X87810Y-48076D01*
X87808Y-48077D01*
X87788Y-48182D01*
X88123Y-48516D01*
X88457Y-48182D01*
X88457Y-48242D01*
X88153Y-48546D01*
X88487Y-48881D01*
X88592Y-48861D01*
X88644Y-48734D01*
X88696Y-48859D01*
X88697Y-48861D01*
X88801Y-48881D01*
X89136Y-48546D01*
X89136Y-48606D01*
X88831Y-48911D01*
X88852Y-49015D01*
X89055Y-49100D01*
X89275Y-49100D01*
X89479Y-49016D01*
X89480Y-49015D01*
X89501Y-48911D01*
X89501Y-49265D01*
X88457Y-49265D01*
X88457Y-48911D01*
X88123Y-48576D01*
X88093Y-48606D01*
X88093Y-48546D01*
X87758Y-48212D01*
X87654Y-48232D01*
X87569Y-48435D01*
X87569Y-48656D01*
X87653Y-48859D01*
X87654Y-48861D01*
X87758Y-48881D01*
X88093Y-48546D01*
X88093Y-48606D01*
X87788Y-48911D01*
X87808Y-49015D01*
X88012Y-49100D01*
X88232Y-49100D01*
X88436Y-49016D01*
X88437Y-49015D01*
X88457Y-48911D01*
X88457Y-49265D01*
X85685Y-49265D01*
X85685Y-48437D01*
X85601Y-48233D01*
X85600Y-48232D01*
X85495Y-48212D01*
X85465Y-48242D01*
X85465Y-48182D01*
X85445Y-48077D01*
X85242Y-47993D01*
X85021Y-47992D01*
X84818Y-48076D01*
X84816Y-48077D01*
X84796Y-48182D01*
X85131Y-48516D01*
X85465Y-48182D01*
X85465Y-48242D01*
X85161Y-48546D01*
X85495Y-48881D01*
X85600Y-48861D01*
X85684Y-48657D01*
X85685Y-48437D01*
X85685Y-49265D01*
X85465Y-49265D01*
X85465Y-48911D01*
X85131Y-48576D01*
X85101Y-48606D01*
X85101Y-48546D01*
X84766Y-48212D01*
X84662Y-48232D01*
X84577Y-48435D01*
X84577Y-48656D01*
X84661Y-48859D01*
X84662Y-48861D01*
X84766Y-48881D01*
X85101Y-48546D01*
X85101Y-48606D01*
X84796Y-48911D01*
X84816Y-49015D01*
X85020Y-49100D01*
X85240Y-49100D01*
X85444Y-49016D01*
X85445Y-49015D01*
X85465Y-48911D01*
X85465Y-49265D01*
X78164Y-49265D01*
X78164Y-47384D01*
X78127Y-47297D01*
X78127Y-46392D01*
X78043Y-46188D01*
X78042Y-46187D01*
X77938Y-46166D01*
X77604Y-46501D01*
X77938Y-46836D01*
X78042Y-46815D01*
X78127Y-46612D01*
X78127Y-46392D01*
X78127Y-47297D01*
X78074Y-47167D01*
X77908Y-47001D01*
X77861Y-46982D01*
X77886Y-46971D01*
X77888Y-46970D01*
X77908Y-46866D01*
X77574Y-46531D01*
X77543Y-46561D01*
X77543Y-46501D01*
X77209Y-46166D01*
X77105Y-46187D01*
X77020Y-46390D01*
X77020Y-46610D01*
X77104Y-46814D01*
X77105Y-46815D01*
X77209Y-46836D01*
X77543Y-46501D01*
X77543Y-46561D01*
X77239Y-46866D01*
X77259Y-46970D01*
X77286Y-46981D01*
X77240Y-47001D01*
X77104Y-47136D01*
X76664Y-47136D01*
X76602Y-46985D01*
X76497Y-46880D01*
X76570Y-46864D01*
X76657Y-46655D01*
X76658Y-46428D01*
X76572Y-46218D01*
X76570Y-46216D01*
X76464Y-46194D01*
X76434Y-46224D01*
X76434Y-46164D01*
X76412Y-46058D01*
X76202Y-45970D01*
X75975Y-45970D01*
X75766Y-46056D01*
X75763Y-46058D01*
X75741Y-46164D01*
X76087Y-46510D01*
X76434Y-46164D01*
X76434Y-46224D01*
X76117Y-46540D01*
X76123Y-46546D01*
X76093Y-46576D01*
X76087Y-46570D01*
X76082Y-46576D01*
X76052Y-46546D01*
X76057Y-46540D01*
X75711Y-46194D01*
X75605Y-46216D01*
X75517Y-46425D01*
X75517Y-46652D01*
X75603Y-46862D01*
X75605Y-46864D01*
X75678Y-46880D01*
X75594Y-46963D01*
X75093Y-46963D01*
X75068Y-46839D01*
X74915Y-46609D01*
X74685Y-46456D01*
X74414Y-46402D01*
X74143Y-46456D01*
X73913Y-46609D01*
X73759Y-46839D01*
X73705Y-47110D01*
X73705Y-47546D01*
X73759Y-47817D01*
X73913Y-48047D01*
X74143Y-48200D01*
X74414Y-48254D01*
X74685Y-48200D01*
X74915Y-48047D01*
X75068Y-47817D01*
X75093Y-47693D01*
X75595Y-47693D01*
X75743Y-47842D01*
X75966Y-47935D01*
X76207Y-47935D01*
X76374Y-47866D01*
X77104Y-47866D01*
X77239Y-48001D01*
X77456Y-48091D01*
X77690Y-48091D01*
X77907Y-48002D01*
X78073Y-47836D01*
X78163Y-47619D01*
X78164Y-47384D01*
X78164Y-49265D01*
X73118Y-49265D01*
X73118Y-47549D01*
X73118Y-47349D01*
X73118Y-47307D01*
X73118Y-47107D01*
X73059Y-46851D01*
X72906Y-46637D01*
X72683Y-46499D01*
X72572Y-46468D01*
X72467Y-46526D01*
X72467Y-47307D01*
X73118Y-47307D01*
X73118Y-47349D01*
X72467Y-47349D01*
X72467Y-48130D01*
X72572Y-48188D01*
X72683Y-48157D01*
X72906Y-48018D01*
X73059Y-47805D01*
X73118Y-47549D01*
X73118Y-49265D01*
X72425Y-49265D01*
X72425Y-48130D01*
X72425Y-47349D01*
X72425Y-47307D01*
X72425Y-46526D01*
X72320Y-46468D01*
X72208Y-46499D01*
X71986Y-46637D01*
X71833Y-46851D01*
X71774Y-47107D01*
X71774Y-47307D01*
X72425Y-47307D01*
X72425Y-47349D01*
X71774Y-47349D01*
X71774Y-47549D01*
X71833Y-47805D01*
X71986Y-48018D01*
X72208Y-48157D01*
X72320Y-48188D01*
X72425Y-48130D01*
X72425Y-49265D01*
X71374Y-49265D01*
X71374Y-43393D01*
X71320Y-43122D01*
X71308Y-43104D01*
X71308Y-41538D01*
X71308Y-41286D01*
X71277Y-41175D01*
X71138Y-40952D01*
X70924Y-40799D01*
X70669Y-40740D01*
X70469Y-40740D01*
X70469Y-41391D01*
X71250Y-41391D01*
X71308Y-41286D01*
X71308Y-41538D01*
X71250Y-41434D01*
X70469Y-41434D01*
X70469Y-42084D01*
X70669Y-42084D01*
X70924Y-42025D01*
X71138Y-41873D01*
X71277Y-41650D01*
X71308Y-41538D01*
X71308Y-43104D01*
X71166Y-42892D01*
X70936Y-42739D01*
X70665Y-42685D01*
X70426Y-42685D01*
X70426Y-42084D01*
X70426Y-41434D01*
X70426Y-41391D01*
X70426Y-40740D01*
X70226Y-40740D01*
X69971Y-40799D01*
X69757Y-40952D01*
X69618Y-41175D01*
X69587Y-41286D01*
X69645Y-41391D01*
X70426Y-41391D01*
X70426Y-41434D01*
X69645Y-41434D01*
X69587Y-41538D01*
X69618Y-41650D01*
X69757Y-41873D01*
X69971Y-42025D01*
X70226Y-42084D01*
X70426Y-42084D01*
X70426Y-42685D01*
X70230Y-42685D01*
X69959Y-42739D01*
X69729Y-42892D01*
X69575Y-43122D01*
X69521Y-43393D01*
X69575Y-43664D01*
X69729Y-43894D01*
X69959Y-44048D01*
X70230Y-44102D01*
X70665Y-44102D01*
X70936Y-44048D01*
X71166Y-43894D01*
X71320Y-43664D01*
X71374Y-43393D01*
X71374Y-49265D01*
X71308Y-49265D01*
X71308Y-45487D01*
X71308Y-45235D01*
X71277Y-45123D01*
X71138Y-44901D01*
X70924Y-44748D01*
X70669Y-44689D01*
X70469Y-44689D01*
X70469Y-45340D01*
X71250Y-45340D01*
X71308Y-45235D01*
X71308Y-45487D01*
X71250Y-45382D01*
X70469Y-45382D01*
X70469Y-46033D01*
X70669Y-46033D01*
X70924Y-45974D01*
X71138Y-45821D01*
X71277Y-45599D01*
X71308Y-45487D01*
X71308Y-49265D01*
X70426Y-49265D01*
X70426Y-46033D01*
X70426Y-45382D01*
X70426Y-45340D01*
X70426Y-44689D01*
X70226Y-44689D01*
X69971Y-44748D01*
X69757Y-44901D01*
X69618Y-45123D01*
X69587Y-45235D01*
X69645Y-45340D01*
X70426Y-45340D01*
X70426Y-45382D01*
X69645Y-45382D01*
X69587Y-45487D01*
X69618Y-45599D01*
X69757Y-45821D01*
X69971Y-45974D01*
X70226Y-46033D01*
X70426Y-46033D01*
X70426Y-49265D01*
X70349Y-49265D01*
X70349Y-48739D01*
X70349Y-48614D01*
X70349Y-47275D01*
X70301Y-47159D01*
X70213Y-47070D01*
X70097Y-47023D01*
X69972Y-47023D01*
X68633Y-47023D01*
X68517Y-47070D01*
X68428Y-47159D01*
X68380Y-47275D01*
X68380Y-47400D01*
X68380Y-48739D01*
X68428Y-48855D01*
X68517Y-48943D01*
X68633Y-48991D01*
X68758Y-48991D01*
X70097Y-48991D01*
X70213Y-48943D01*
X70301Y-48855D01*
X70349Y-48739D01*
X70349Y-49265D01*
X68628Y-49265D01*
X68424Y-49224D01*
X68280Y-49128D01*
X68183Y-48983D01*
X68142Y-48779D01*
X68142Y-32310D01*
X68183Y-32106D01*
X68280Y-31961D01*
X68424Y-31864D01*
X68628Y-31824D01*
X72620Y-31824D01*
X72580Y-31850D01*
X72499Y-31931D01*
X72279Y-31931D01*
X72052Y-32025D01*
X71879Y-32198D01*
X71873Y-32213D01*
X71783Y-32194D01*
X71753Y-32224D01*
X71753Y-32164D01*
X71730Y-32057D01*
X71517Y-31968D01*
X71287Y-31967D01*
X71074Y-32055D01*
X71071Y-32057D01*
X71048Y-32164D01*
X71400Y-32516D01*
X71753Y-32164D01*
X71753Y-32224D01*
X71430Y-32546D01*
X71783Y-32899D01*
X71873Y-32880D01*
X71879Y-32894D01*
X72031Y-33046D01*
X71879Y-33198D01*
X71873Y-33213D01*
X71783Y-33194D01*
X71753Y-33224D01*
X71753Y-33164D01*
X71730Y-33057D01*
X71706Y-33047D01*
X71727Y-33038D01*
X71730Y-33036D01*
X71753Y-32929D01*
X71400Y-32576D01*
X71370Y-32606D01*
X71370Y-32546D01*
X71018Y-32194D01*
X70911Y-32217D01*
X70822Y-32429D01*
X70821Y-32660D01*
X70909Y-32873D01*
X70911Y-32876D01*
X71018Y-32899D01*
X71370Y-32546D01*
X71370Y-32606D01*
X71048Y-32929D01*
X71071Y-33036D01*
X71095Y-33046D01*
X71074Y-33055D01*
X71071Y-33057D01*
X71048Y-33164D01*
X71400Y-33516D01*
X71753Y-33164D01*
X71753Y-33224D01*
X71430Y-33546D01*
X71783Y-33899D01*
X71873Y-33880D01*
X71879Y-33894D01*
X72051Y-34067D01*
X72277Y-34161D01*
X72522Y-34161D01*
X72748Y-34068D01*
X72900Y-33916D01*
X73051Y-34067D01*
X73277Y-34161D01*
X73522Y-34161D01*
X73748Y-34068D01*
X73900Y-33916D01*
X74051Y-34067D01*
X74277Y-34161D01*
X74522Y-34161D01*
X74748Y-34068D01*
X74900Y-33916D01*
X75051Y-34067D01*
X75277Y-34161D01*
X75499Y-34161D01*
X75801Y-34463D01*
X75711Y-34501D01*
X75632Y-34579D01*
X75590Y-34682D01*
X75590Y-34764D01*
X75660Y-34834D01*
X75908Y-34834D01*
X75908Y-34876D01*
X75660Y-34876D01*
X75590Y-34946D01*
X75590Y-35028D01*
X75622Y-35105D01*
X75590Y-35182D01*
X75590Y-35264D01*
X75660Y-35334D01*
X75908Y-35334D01*
X75908Y-35376D01*
X75660Y-35376D01*
X75590Y-35446D01*
X75590Y-35528D01*
X75632Y-35631D01*
X75711Y-35709D01*
X75813Y-35752D01*
X75856Y-35752D01*
X75926Y-35682D01*
X75926Y-35580D01*
X75956Y-35651D01*
X75969Y-35664D01*
X75969Y-35682D01*
X76038Y-35752D01*
X76073Y-35752D01*
X76160Y-35788D01*
X76285Y-35788D01*
X76442Y-35788D01*
X76558Y-35740D01*
X76647Y-35651D01*
X76695Y-35536D01*
X76695Y-35410D01*
X76695Y-35174D01*
X76666Y-35106D01*
X76666Y-35104D01*
X76695Y-35036D01*
X76695Y-34910D01*
X76695Y-34866D01*
X77104Y-34866D01*
X77239Y-35001D01*
X77239Y-35001D01*
X77074Y-35166D01*
X76984Y-35383D01*
X76983Y-35618D01*
X77073Y-35835D01*
X77239Y-36001D01*
X77239Y-36001D01*
X77074Y-36166D01*
X76984Y-36383D01*
X76983Y-36575D01*
X76912Y-36647D01*
X76832Y-36765D01*
X76805Y-36905D01*
X76805Y-37697D01*
X76832Y-37836D01*
X76912Y-37955D01*
X77093Y-38136D01*
X73070Y-38136D01*
X71753Y-36819D01*
X71753Y-33929D01*
X71400Y-33576D01*
X71370Y-33606D01*
X71370Y-33546D01*
X71018Y-33194D01*
X70911Y-33217D01*
X70822Y-33429D01*
X70821Y-33660D01*
X70909Y-33873D01*
X70911Y-33876D01*
X71018Y-33899D01*
X71370Y-33546D01*
X71370Y-33606D01*
X71048Y-33929D01*
X71071Y-34036D01*
X71283Y-34125D01*
X71514Y-34125D01*
X71727Y-34038D01*
X71730Y-34036D01*
X71753Y-33929D01*
X71753Y-36819D01*
X71032Y-36098D01*
X71166Y-36008D01*
X71320Y-35778D01*
X71374Y-35507D01*
X71320Y-35236D01*
X71166Y-35006D01*
X70936Y-34853D01*
X70665Y-34799D01*
X70349Y-34799D01*
X70349Y-33779D01*
X70349Y-33653D01*
X70349Y-32314D01*
X70301Y-32198D01*
X70213Y-32110D01*
X70097Y-32062D01*
X69972Y-32062D01*
X68633Y-32062D01*
X68517Y-32110D01*
X68428Y-32198D01*
X68380Y-32314D01*
X68380Y-32440D01*
X68380Y-33779D01*
X68428Y-33894D01*
X68517Y-33983D01*
X68633Y-34031D01*
X68758Y-34031D01*
X70097Y-34031D01*
X70213Y-33983D01*
X70301Y-33894D01*
X70349Y-33779D01*
X70349Y-34799D01*
X70230Y-34799D01*
X69959Y-34853D01*
X69729Y-35006D01*
X69575Y-35236D01*
X69521Y-35507D01*
X69575Y-35778D01*
X69729Y-36008D01*
X69959Y-36162D01*
X70128Y-36195D01*
X70128Y-36195D01*
X70189Y-36288D01*
X70716Y-36814D01*
X70669Y-36803D01*
X70469Y-36803D01*
X70469Y-37454D01*
X71250Y-37454D01*
X71288Y-37386D01*
X72661Y-38759D01*
X72779Y-38838D01*
X72779Y-38838D01*
X72919Y-38866D01*
X77104Y-38866D01*
X77239Y-39001D01*
X77239Y-39001D01*
X77104Y-39136D01*
X71353Y-39136D01*
X71310Y-39107D01*
X71308Y-39107D01*
X71308Y-37601D01*
X71250Y-37496D01*
X70469Y-37496D01*
X70469Y-38147D01*
X70669Y-38147D01*
X70924Y-38088D01*
X71138Y-37936D01*
X71277Y-37713D01*
X71308Y-37601D01*
X71308Y-39107D01*
X71271Y-39099D01*
X71166Y-38943D01*
X70936Y-38790D01*
X70665Y-38736D01*
X70426Y-38736D01*
X70426Y-38147D01*
X70426Y-37496D01*
X70426Y-37454D01*
X70426Y-36803D01*
X70226Y-36803D01*
X69971Y-36862D01*
X69757Y-37015D01*
X69618Y-37238D01*
X69587Y-37349D01*
X69645Y-37454D01*
X70426Y-37454D01*
X70426Y-37496D01*
X69645Y-37496D01*
X69587Y-37601D01*
X69618Y-37713D01*
X69757Y-37936D01*
X69971Y-38088D01*
X70226Y-38147D01*
X70426Y-38147D01*
X70426Y-38736D01*
X70230Y-38736D01*
X69959Y-38790D01*
X69729Y-38943D01*
X69575Y-39173D01*
X69521Y-39444D01*
X69575Y-39715D01*
X69729Y-39945D01*
X69959Y-40099D01*
X70230Y-40153D01*
X70665Y-40153D01*
X70936Y-40099D01*
X71166Y-39945D01*
X71220Y-39865D01*
X71227Y-39866D01*
X77104Y-39866D01*
X77111Y-39872D01*
X76912Y-40071D01*
X76832Y-40190D01*
X76805Y-40329D01*
X76805Y-44672D01*
X76832Y-44812D01*
X76912Y-44930D01*
X77111Y-45130D01*
X77074Y-45166D01*
X76984Y-45383D01*
X76983Y-45618D01*
X77073Y-45835D01*
X77239Y-46001D01*
X77286Y-46021D01*
X77261Y-46031D01*
X77259Y-46032D01*
X77239Y-46136D01*
X77574Y-46471D01*
X77908Y-46136D01*
X77888Y-46032D01*
X77861Y-46021D01*
X77907Y-46002D01*
X78047Y-45862D01*
X79380Y-47195D01*
X79498Y-47274D01*
X79498Y-47274D01*
X79638Y-47302D01*
X82984Y-47302D01*
X82984Y-47839D01*
X83032Y-47954D01*
X83121Y-48043D01*
X83236Y-48091D01*
X83362Y-48091D01*
X83912Y-48091D01*
X84027Y-48043D01*
X84116Y-47954D01*
X84164Y-47839D01*
X84164Y-47713D01*
X84164Y-47302D01*
X84850Y-47302D01*
X84990Y-47274D01*
X84990Y-47274D01*
X85031Y-47246D01*
X85247Y-47247D01*
X85464Y-47157D01*
X85600Y-47022D01*
X87653Y-47022D01*
X87788Y-47156D01*
X88005Y-47246D01*
X88240Y-47247D01*
X88456Y-47157D01*
X88623Y-46991D01*
X88644Y-46939D01*
X88666Y-46990D01*
X88831Y-47156D01*
X89048Y-47246D01*
X89283Y-47247D01*
X89500Y-47157D01*
X89635Y-47022D01*
X91689Y-47022D01*
X91824Y-47156D01*
X92040Y-47246D01*
X92275Y-47247D01*
X92492Y-47157D01*
X92658Y-46991D01*
X92748Y-46774D01*
X92748Y-46540D01*
X92659Y-46323D01*
X92493Y-46157D01*
X92325Y-46087D01*
X92419Y-45993D01*
X92498Y-45875D01*
X92498Y-45875D01*
X92525Y-45740D01*
X92525Y-45740D01*
X92554Y-45669D01*
X92554Y-45543D01*
X92554Y-45307D01*
X92526Y-45239D01*
X92526Y-41525D01*
X92498Y-41385D01*
X92498Y-41385D01*
X92463Y-41333D01*
X94828Y-38969D01*
X94907Y-38850D01*
X94907Y-38850D01*
X94935Y-38711D01*
X94935Y-35150D01*
X94907Y-35010D01*
X94907Y-35010D01*
X94828Y-34892D01*
X94759Y-34823D01*
X94759Y-33779D01*
X94759Y-33653D01*
X94759Y-32314D01*
X94711Y-32198D01*
X94622Y-32110D01*
X94506Y-32062D01*
X94381Y-32062D01*
X93042Y-32062D01*
X92926Y-32110D01*
X92838Y-32198D01*
X92790Y-32314D01*
X92790Y-32440D01*
X92790Y-33779D01*
X92838Y-33894D01*
X92926Y-33983D01*
X93042Y-34031D01*
X93167Y-34031D01*
X94506Y-34031D01*
X94622Y-33983D01*
X94711Y-33894D01*
X94759Y-33779D01*
X94759Y-34823D01*
X94712Y-34777D01*
X94594Y-34698D01*
X94459Y-34671D01*
X94388Y-34641D01*
X94263Y-34641D01*
X94027Y-34641D01*
X93958Y-34670D01*
X92390Y-34670D01*
X92321Y-34641D01*
X92196Y-34641D01*
X91960Y-34641D01*
X91844Y-34689D01*
X91755Y-34778D01*
X91707Y-34894D01*
X91707Y-35019D01*
X91707Y-35176D01*
X91722Y-35212D01*
X91707Y-35248D01*
X91707Y-35373D01*
X91707Y-35530D01*
X91755Y-35646D01*
X91775Y-35666D01*
X91775Y-35685D01*
X91737Y-35701D01*
X91648Y-35789D01*
X91600Y-35905D01*
X91600Y-36030D01*
X91600Y-36074D01*
X90051Y-36074D01*
X89912Y-36102D01*
X89793Y-36181D01*
X89338Y-36636D01*
X84157Y-36636D01*
X84164Y-36619D01*
X84164Y-36384D01*
X84074Y-36167D01*
X83909Y-36001D01*
X83908Y-36001D01*
X84074Y-35836D01*
X84164Y-35619D01*
X84164Y-35384D01*
X84074Y-35167D01*
X83925Y-35018D01*
X83925Y-35018D01*
X83920Y-34990D01*
X84074Y-34836D01*
X84164Y-34619D01*
X84164Y-34384D01*
X84074Y-34167D01*
X83909Y-34001D01*
X83908Y-34001D01*
X84074Y-33836D01*
X84164Y-33619D01*
X84164Y-33384D01*
X84074Y-33167D01*
X83909Y-33001D01*
X83692Y-32911D01*
X83500Y-32911D01*
X82439Y-31850D01*
X82400Y-31824D01*
X94546Y-31824D01*
X94750Y-31864D01*
X94895Y-31961D01*
X94992Y-32106D01*
X95032Y-32310D01*
X95032Y-48779D01*
X95032Y-48779D01*
G37*
G54D34*
X95032Y-48779D02*
X94992Y-48983D01*
X94895Y-49128D01*
X94759Y-49219D01*
X94759Y-48739D01*
X94759Y-48614D01*
X94759Y-47275D01*
X94711Y-47159D01*
X94622Y-47070D01*
X94506Y-47023D01*
X94381Y-47023D01*
X93042Y-47023D01*
X92926Y-47070D01*
X92838Y-47159D01*
X92790Y-47275D01*
X92790Y-47400D01*
X92790Y-48739D01*
X92838Y-48855D01*
X92926Y-48943D01*
X93042Y-48991D01*
X93167Y-48991D01*
X94506Y-48991D01*
X94622Y-48943D01*
X94711Y-48855D01*
X94759Y-48739D01*
X94759Y-49219D01*
X94750Y-49224D01*
X94546Y-49265D01*
X92712Y-49265D01*
X92712Y-48437D01*
X92628Y-48233D01*
X92627Y-48232D01*
X92523Y-48212D01*
X92493Y-48242D01*
X92493Y-48182D01*
X92473Y-48077D01*
X92269Y-47993D01*
X92049Y-47992D01*
X91845Y-48076D01*
X91844Y-48077D01*
X91824Y-48182D01*
X92158Y-48516D01*
X92493Y-48182D01*
X92493Y-48242D01*
X92188Y-48546D01*
X92523Y-48881D01*
X92627Y-48861D01*
X92712Y-48657D01*
X92712Y-48437D01*
X92712Y-49265D01*
X92493Y-49265D01*
X92493Y-48911D01*
X92158Y-48576D01*
X92128Y-48606D01*
X92128Y-48546D01*
X91794Y-48212D01*
X91689Y-48232D01*
X91605Y-48435D01*
X91604Y-48656D01*
X91688Y-48859D01*
X91689Y-48861D01*
X91794Y-48881D01*
X92128Y-48546D01*
X92128Y-48606D01*
X91824Y-48911D01*
X91844Y-49015D01*
X92047Y-49100D01*
X92267Y-49100D01*
X92471Y-49016D01*
X92473Y-49015D01*
X92493Y-48911D01*
X92493Y-49265D01*
X89720Y-49265D01*
X89720Y-48437D01*
X89636Y-48233D01*
X89635Y-48232D01*
X89531Y-48212D01*
X89501Y-48242D01*
X89501Y-48182D01*
X89480Y-48077D01*
X89277Y-47993D01*
X89057Y-47992D01*
X88853Y-48076D01*
X88852Y-48077D01*
X88831Y-48182D01*
X89166Y-48516D01*
X89501Y-48182D01*
X89501Y-48242D01*
X89196Y-48546D01*
X89531Y-48881D01*
X89635Y-48861D01*
X89720Y-48657D01*
X89720Y-48437D01*
X89720Y-49265D01*
X89501Y-49265D01*
X89501Y-48911D01*
X89166Y-48576D01*
X89136Y-48606D01*
X89136Y-48546D01*
X88801Y-48212D01*
X88697Y-48232D01*
X88644Y-48359D01*
X88593Y-48233D01*
X88592Y-48232D01*
X88487Y-48212D01*
X88457Y-48242D01*
X88457Y-48182D01*
X88437Y-48077D01*
X88234Y-47993D01*
X88013Y-47992D01*
X87810Y-48076D01*
X87808Y-48077D01*
X87788Y-48182D01*
X88123Y-48516D01*
X88457Y-48182D01*
X88457Y-48242D01*
X88153Y-48546D01*
X88487Y-48881D01*
X88592Y-48861D01*
X88644Y-48734D01*
X88696Y-48859D01*
X88697Y-48861D01*
X88801Y-48881D01*
X89136Y-48546D01*
X89136Y-48606D01*
X88831Y-48911D01*
X88852Y-49015D01*
X89055Y-49100D01*
X89275Y-49100D01*
X89479Y-49016D01*
X89480Y-49015D01*
X89501Y-48911D01*
X89501Y-49265D01*
X88457Y-49265D01*
X88457Y-48911D01*
X88123Y-48576D01*
X88093Y-48606D01*
X88093Y-48546D01*
X87758Y-48212D01*
X87654Y-48232D01*
X87569Y-48435D01*
X87569Y-48656D01*
X87653Y-48859D01*
X87654Y-48861D01*
X87758Y-48881D01*
X88093Y-48546D01*
X88093Y-48606D01*
X87788Y-48911D01*
X87808Y-49015D01*
X88012Y-49100D01*
X88232Y-49100D01*
X88436Y-49016D01*
X88437Y-49015D01*
X88457Y-48911D01*
X88457Y-49265D01*
X85685Y-49265D01*
X85685Y-48437D01*
X85601Y-48233D01*
X85600Y-48232D01*
X85495Y-48212D01*
X85465Y-48242D01*
X85465Y-48182D01*
X85445Y-48077D01*
X85242Y-47993D01*
X85021Y-47992D01*
X84818Y-48076D01*
X84816Y-48077D01*
X84796Y-48182D01*
X85131Y-48516D01*
X85465Y-48182D01*
X85465Y-48242D01*
X85161Y-48546D01*
X85495Y-48881D01*
X85600Y-48861D01*
X85684Y-48657D01*
X85685Y-48437D01*
X85685Y-49265D01*
X85465Y-49265D01*
X85465Y-48911D01*
X85131Y-48576D01*
X85101Y-48606D01*
X85101Y-48546D01*
X84766Y-48212D01*
X84662Y-48232D01*
X84577Y-48435D01*
X84577Y-48656D01*
X84661Y-48859D01*
X84662Y-48861D01*
X84766Y-48881D01*
X85101Y-48546D01*
X85101Y-48606D01*
X84796Y-48911D01*
X84816Y-49015D01*
X85020Y-49100D01*
X85240Y-49100D01*
X85444Y-49016D01*
X85445Y-49015D01*
X85465Y-48911D01*
X85465Y-49265D01*
X78164Y-49265D01*
X78164Y-47384D01*
X78127Y-47297D01*
X78127Y-46392D01*
X78043Y-46188D01*
X78042Y-46187D01*
X77938Y-46166D01*
X77604Y-46501D01*
X77938Y-46836D01*
X78042Y-46815D01*
X78127Y-46612D01*
X78127Y-46392D01*
X78127Y-47297D01*
X78074Y-47167D01*
X77908Y-47001D01*
X77861Y-46982D01*
X77886Y-46971D01*
X77888Y-46970D01*
X77908Y-46866D01*
X77574Y-46531D01*
X77543Y-46561D01*
X77543Y-46501D01*
X77209Y-46166D01*
X77105Y-46187D01*
X77020Y-46390D01*
X77020Y-46610D01*
X77104Y-46814D01*
X77105Y-46815D01*
X77209Y-46836D01*
X77543Y-46501D01*
X77543Y-46561D01*
X77239Y-46866D01*
X77259Y-46970D01*
X77286Y-46981D01*
X77240Y-47001D01*
X77104Y-47136D01*
X76664Y-47136D01*
X76602Y-46985D01*
X76497Y-46880D01*
X76570Y-46864D01*
X76657Y-46655D01*
X76658Y-46428D01*
X76572Y-46218D01*
X76570Y-46216D01*
X76464Y-46194D01*
X76434Y-46224D01*
X76434Y-46164D01*
X76412Y-46058D01*
X76202Y-45970D01*
X75975Y-45970D01*
X75766Y-46056D01*
X75763Y-46058D01*
X75741Y-46164D01*
X76087Y-46510D01*
X76434Y-46164D01*
X76434Y-46224D01*
X76117Y-46540D01*
X76123Y-46546D01*
X76093Y-46576D01*
X76087Y-46570D01*
X76082Y-46576D01*
X76052Y-46546D01*
X76057Y-46540D01*
X75711Y-46194D01*
X75605Y-46216D01*
X75517Y-46425D01*
X75517Y-46652D01*
X75603Y-46862D01*
X75605Y-46864D01*
X75678Y-46880D01*
X75594Y-46963D01*
X75093Y-46963D01*
X75068Y-46839D01*
X74915Y-46609D01*
X74685Y-46456D01*
X74414Y-46402D01*
X74143Y-46456D01*
X73913Y-46609D01*
X73759Y-46839D01*
X73705Y-47110D01*
X73705Y-47546D01*
X73759Y-47817D01*
X73913Y-48047D01*
X74143Y-48200D01*
X74414Y-48254D01*
X74685Y-48200D01*
X74915Y-48047D01*
X75068Y-47817D01*
X75093Y-47693D01*
X75595Y-47693D01*
X75743Y-47842D01*
X75966Y-47935D01*
X76207Y-47935D01*
X76374Y-47866D01*
X77104Y-47866D01*
X77239Y-48001D01*
X77456Y-48091D01*
X77690Y-48091D01*
X77907Y-48002D01*
X78073Y-47836D01*
X78163Y-47619D01*
X78164Y-47384D01*
X78164Y-49265D01*
X73118Y-49265D01*
X73118Y-47549D01*
X73118Y-47349D01*
X73118Y-47307D01*
X73118Y-47107D01*
X73059Y-46851D01*
X72906Y-46637D01*
X72683Y-46499D01*
X72572Y-46468D01*
X72467Y-46526D01*
X72467Y-47307D01*
X73118Y-47307D01*
X73118Y-47349D01*
X72467Y-47349D01*
X72467Y-48130D01*
X72572Y-48188D01*
X72683Y-48157D01*
X72906Y-48018D01*
X73059Y-47805D01*
X73118Y-47549D01*
X73118Y-49265D01*
X72425Y-49265D01*
X72425Y-48130D01*
X72425Y-47349D01*
X72425Y-47307D01*
X72425Y-46526D01*
X72320Y-46468D01*
X72208Y-46499D01*
X71986Y-46637D01*
X71833Y-46851D01*
X71774Y-47107D01*
X71774Y-47307D01*
X72425Y-47307D01*
X72425Y-47349D01*
X71774Y-47349D01*
X71774Y-47549D01*
X71833Y-47805D01*
X71986Y-48018D01*
X72208Y-48157D01*
X72320Y-48188D01*
X72425Y-48130D01*
X72425Y-49265D01*
X71374Y-49265D01*
X71374Y-43393D01*
X71320Y-43122D01*
X71308Y-43104D01*
X71308Y-41538D01*
X71308Y-41286D01*
X71277Y-41175D01*
X71138Y-40952D01*
X70924Y-40799D01*
X70669Y-40740D01*
X70469Y-40740D01*
X70469Y-41391D01*
X71250Y-41391D01*
X71308Y-41286D01*
X71308Y-41538D01*
X71250Y-41434D01*
X70469Y-41434D01*
X70469Y-42084D01*
X70669Y-42084D01*
X70924Y-42025D01*
X71138Y-41873D01*
X71277Y-41650D01*
X71308Y-41538D01*
X71308Y-43104D01*
X71166Y-42892D01*
X70936Y-42739D01*
X70665Y-42685D01*
X70426Y-42685D01*
X70426Y-42084D01*
X70426Y-41434D01*
X70426Y-41391D01*
X70426Y-40740D01*
X70226Y-40740D01*
X69971Y-40799D01*
X69757Y-40952D01*
X69618Y-41175D01*
X69587Y-41286D01*
X69645Y-41391D01*
X70426Y-41391D01*
X70426Y-41434D01*
X69645Y-41434D01*
X69587Y-41538D01*
X69618Y-41650D01*
X69757Y-41873D01*
X69971Y-42025D01*
X70226Y-42084D01*
X70426Y-42084D01*
X70426Y-42685D01*
X70230Y-42685D01*
X69959Y-42739D01*
X69729Y-42892D01*
X69575Y-43122D01*
X69521Y-43393D01*
X69575Y-43664D01*
X69729Y-43894D01*
X69959Y-44048D01*
X70230Y-44102D01*
X70665Y-44102D01*
X70936Y-44048D01*
X71166Y-43894D01*
X71320Y-43664D01*
X71374Y-43393D01*
X71374Y-49265D01*
X71308Y-49265D01*
X71308Y-45487D01*
X71308Y-45235D01*
X71277Y-45123D01*
X71138Y-44901D01*
X70924Y-44748D01*
X70669Y-44689D01*
X70469Y-44689D01*
X70469Y-45340D01*
X71250Y-45340D01*
X71308Y-45235D01*
X71308Y-45487D01*
X71250Y-45382D01*
X70469Y-45382D01*
X70469Y-46033D01*
X70669Y-46033D01*
X70924Y-45974D01*
X71138Y-45821D01*
X71277Y-45599D01*
X71308Y-45487D01*
X71308Y-49265D01*
X70426Y-49265D01*
X70426Y-46033D01*
X70426Y-45382D01*
X70426Y-45340D01*
X70426Y-44689D01*
X70226Y-44689D01*
X69971Y-44748D01*
X69757Y-44901D01*
X69618Y-45123D01*
X69587Y-45235D01*
X69645Y-45340D01*
X70426Y-45340D01*
X70426Y-45382D01*
X69645Y-45382D01*
X69587Y-45487D01*
X69618Y-45599D01*
X69757Y-45821D01*
X69971Y-45974D01*
X70226Y-46033D01*
X70426Y-46033D01*
X70426Y-49265D01*
X70349Y-49265D01*
X70349Y-48739D01*
X70349Y-48614D01*
X70349Y-47275D01*
X70301Y-47159D01*
X70213Y-47070D01*
X70097Y-47023D01*
X69972Y-47023D01*
X68633Y-47023D01*
X68517Y-47070D01*
X68428Y-47159D01*
X68380Y-47275D01*
X68380Y-47400D01*
X68380Y-48739D01*
X68428Y-48855D01*
X68517Y-48943D01*
X68633Y-48991D01*
X68758Y-48991D01*
X70097Y-48991D01*
X70213Y-48943D01*
X70301Y-48855D01*
X70349Y-48739D01*
X70349Y-49265D01*
X68628Y-49265D01*
X68424Y-49224D01*
X68280Y-49128D01*
X68183Y-48983D01*
X68142Y-48779D01*
X68142Y-32310D01*
X68183Y-32106D01*
X68280Y-31961D01*
X68424Y-31864D01*
X68628Y-31824D01*
X72620Y-31824D01*
X72580Y-31850D01*
X72499Y-31931D01*
X72279Y-31931D01*
X72052Y-32025D01*
X71879Y-32198D01*
X71873Y-32213D01*
X71783Y-32194D01*
X71753Y-32224D01*
X71753Y-32164D01*
X71730Y-32057D01*
X71517Y-31968D01*
X71287Y-31967D01*
X71074Y-32055D01*
X71071Y-32057D01*
X71048Y-32164D01*
X71400Y-32516D01*
X71753Y-32164D01*
X71753Y-32224D01*
X71430Y-32546D01*
X71783Y-32899D01*
X71873Y-32880D01*
X71879Y-32894D01*
X72031Y-33046D01*
X71879Y-33198D01*
X71873Y-33213D01*
X71783Y-33194D01*
X71753Y-33224D01*
X71753Y-33164D01*
X71730Y-33057D01*
X71706Y-33047D01*
X71727Y-33038D01*
X71730Y-33036D01*
X71753Y-32929D01*
X71400Y-32576D01*
X71370Y-32606D01*
X71370Y-32546D01*
X71018Y-32194D01*
X70911Y-32217D01*
X70822Y-32429D01*
X70821Y-32660D01*
X70909Y-32873D01*
X70911Y-32876D01*
X71018Y-32899D01*
X71370Y-32546D01*
X71370Y-32606D01*
X71048Y-32929D01*
X71071Y-33036D01*
X71095Y-33046D01*
X71074Y-33055D01*
X71071Y-33057D01*
X71048Y-33164D01*
X71400Y-33516D01*
X71753Y-33164D01*
X71753Y-33224D01*
X71430Y-33546D01*
X71783Y-33899D01*
X71873Y-33880D01*
X71879Y-33894D01*
X72051Y-34067D01*
X72277Y-34161D01*
X72522Y-34161D01*
X72748Y-34068D01*
X72900Y-33916D01*
X73051Y-34067D01*
X73277Y-34161D01*
X73522Y-34161D01*
X73748Y-34068D01*
X73900Y-33916D01*
X74051Y-34067D01*
X74277Y-34161D01*
X74522Y-34161D01*
X74748Y-34068D01*
X74900Y-33916D01*
X75051Y-34067D01*
X75277Y-34161D01*
X75499Y-34161D01*
X75801Y-34463D01*
X75711Y-34501D01*
X75632Y-34579D01*
X75590Y-34682D01*
X75590Y-34764D01*
X75660Y-34834D01*
X75908Y-34834D01*
X75908Y-34876D01*
X75660Y-34876D01*
X75590Y-34946D01*
X75590Y-35028D01*
X75622Y-35105D01*
X75590Y-35182D01*
X75590Y-35264D01*
X75660Y-35334D01*
X75908Y-35334D01*
X75908Y-35376D01*
X75660Y-35376D01*
X75590Y-35446D01*
X75590Y-35528D01*
X75632Y-35631D01*
X75711Y-35709D01*
X75813Y-35752D01*
X75856Y-35752D01*
X75926Y-35682D01*
X75926Y-35580D01*
X75956Y-35651D01*
X75969Y-35664D01*
X75969Y-35682D01*
X76038Y-35752D01*
X76073Y-35752D01*
X76160Y-35788D01*
X76285Y-35788D01*
X76442Y-35788D01*
X76558Y-35740D01*
X76647Y-35651D01*
X76695Y-35536D01*
X76695Y-35410D01*
X76695Y-35174D01*
X76666Y-35106D01*
X76666Y-35104D01*
X76695Y-35036D01*
X76695Y-34910D01*
X76695Y-34866D01*
X77104Y-34866D01*
X77239Y-35001D01*
X77239Y-35001D01*
X77074Y-35166D01*
X76984Y-35383D01*
X76983Y-35618D01*
X77073Y-35835D01*
X77239Y-36001D01*
X77239Y-36001D01*
X77074Y-36166D01*
X76984Y-36383D01*
X76983Y-36575D01*
X76912Y-36647D01*
X76832Y-36765D01*
X76805Y-36905D01*
X76805Y-37697D01*
X76832Y-37836D01*
X76912Y-37955D01*
X77093Y-38136D01*
X73070Y-38136D01*
X71753Y-36819D01*
X71753Y-33929D01*
X71400Y-33576D01*
X71370Y-33606D01*
X71370Y-33546D01*
X71018Y-33194D01*
X70911Y-33217D01*
X70822Y-33429D01*
X70821Y-33660D01*
X70909Y-33873D01*
X70911Y-33876D01*
X71018Y-33899D01*
X71370Y-33546D01*
X71370Y-33606D01*
X71048Y-33929D01*
X71071Y-34036D01*
X71283Y-34125D01*
X71514Y-34125D01*
X71727Y-34038D01*
X71730Y-34036D01*
X71753Y-33929D01*
X71753Y-36819D01*
X71032Y-36098D01*
X71166Y-36008D01*
X71320Y-35778D01*
X71374Y-35507D01*
X71320Y-35236D01*
X71166Y-35006D01*
X70936Y-34853D01*
X70665Y-34799D01*
X70349Y-34799D01*
X70349Y-33779D01*
X70349Y-33653D01*
X70349Y-32314D01*
X70301Y-32198D01*
X70213Y-32110D01*
X70097Y-32062D01*
X69972Y-32062D01*
X68633Y-32062D01*
X68517Y-32110D01*
X68428Y-32198D01*
X68380Y-32314D01*
X68380Y-32440D01*
X68380Y-33779D01*
X68428Y-33894D01*
X68517Y-33983D01*
X68633Y-34031D01*
X68758Y-34031D01*
X70097Y-34031D01*
X70213Y-33983D01*
X70301Y-33894D01*
X70349Y-33779D01*
X70349Y-34799D01*
X70230Y-34799D01*
X69959Y-34853D01*
X69729Y-35006D01*
X69575Y-35236D01*
X69521Y-35507D01*
X69575Y-35778D01*
X69729Y-36008D01*
X69959Y-36162D01*
X70128Y-36195D01*
X70128Y-36195D01*
X70189Y-36288D01*
X70716Y-36814D01*
X70669Y-36803D01*
X70469Y-36803D01*
X70469Y-37454D01*
X71250Y-37454D01*
X71288Y-37386D01*
X72661Y-38759D01*
X72779Y-38838D01*
X72779Y-38838D01*
X72919Y-38866D01*
X77104Y-38866D01*
X77239Y-39001D01*
X77239Y-39001D01*
X77104Y-39136D01*
X71353Y-39136D01*
X71310Y-39107D01*
X71308Y-39107D01*
X71308Y-37601D01*
X71250Y-37496D01*
X70469Y-37496D01*
X70469Y-38147D01*
X70669Y-38147D01*
X70924Y-38088D01*
X71138Y-37936D01*
X71277Y-37713D01*
X71308Y-37601D01*
X71308Y-39107D01*
X71271Y-39099D01*
X71166Y-38943D01*
X70936Y-38790D01*
X70665Y-38736D01*
X70426Y-38736D01*
X70426Y-38147D01*
X70426Y-37496D01*
X70426Y-37454D01*
X70426Y-36803D01*
X70226Y-36803D01*
X69971Y-36862D01*
X69757Y-37015D01*
X69618Y-37238D01*
X69587Y-37349D01*
X69645Y-37454D01*
X70426Y-37454D01*
X70426Y-37496D01*
X69645Y-37496D01*
X69587Y-37601D01*
X69618Y-37713D01*
X69757Y-37936D01*
X69971Y-38088D01*
X70226Y-38147D01*
X70426Y-38147D01*
X70426Y-38736D01*
X70230Y-38736D01*
X69959Y-38790D01*
X69729Y-38943D01*
X69575Y-39173D01*
X69521Y-39444D01*
X69575Y-39715D01*
X69729Y-39945D01*
X69959Y-40099D01*
X70230Y-40153D01*
X70665Y-40153D01*
X70936Y-40099D01*
X71166Y-39945D01*
X71220Y-39865D01*
X71227Y-39866D01*
X77104Y-39866D01*
X77111Y-39872D01*
X76912Y-40071D01*
X76832Y-40190D01*
X76805Y-40329D01*
X76805Y-44672D01*
X76832Y-44812D01*
X76912Y-44930D01*
X77111Y-45130D01*
X77074Y-45166D01*
X76984Y-45383D01*
X76983Y-45618D01*
X77073Y-45835D01*
X77239Y-46001D01*
X77286Y-46021D01*
X77261Y-46031D01*
X77259Y-46032D01*
X77239Y-46136D01*
X77574Y-46471D01*
X77908Y-46136D01*
X77888Y-46032D01*
X77861Y-46021D01*
X77907Y-46002D01*
X78047Y-45862D01*
X79380Y-47195D01*
X79498Y-47274D01*
X79498Y-47274D01*
X79638Y-47302D01*
X82984Y-47302D01*
X82984Y-47839D01*
X83032Y-47954D01*
X83121Y-48043D01*
X83236Y-48091D01*
X83362Y-48091D01*
X83912Y-48091D01*
X84027Y-48043D01*
X84116Y-47954D01*
X84164Y-47839D01*
X84164Y-47713D01*
X84164Y-47302D01*
X84850Y-47302D01*
X84990Y-47274D01*
X84990Y-47274D01*
X85031Y-47246D01*
X85247Y-47247D01*
X85464Y-47157D01*
X85600Y-47022D01*
X87653Y-47022D01*
X87788Y-47156D01*
X88005Y-47246D01*
X88240Y-47247D01*
X88456Y-47157D01*
X88623Y-46991D01*
X88644Y-46939D01*
X88666Y-46990D01*
X88831Y-47156D01*
X89048Y-47246D01*
X89283Y-47247D01*
X89500Y-47157D01*
X89635Y-47022D01*
X91689Y-47022D01*
X91824Y-47156D01*
X92040Y-47246D01*
X92275Y-47247D01*
X92492Y-47157D01*
X92658Y-46991D01*
X92748Y-46774D01*
X92748Y-46540D01*
X92659Y-46323D01*
X92493Y-46157D01*
X92325Y-46087D01*
X92419Y-45993D01*
X92498Y-45875D01*
X92498Y-45875D01*
X92525Y-45740D01*
X92525Y-45740D01*
X92554Y-45669D01*
X92554Y-45543D01*
X92554Y-45307D01*
X92526Y-45239D01*
X92526Y-41525D01*
X92498Y-41385D01*
X92498Y-41385D01*
X92463Y-41333D01*
X94828Y-38969D01*
X94907Y-38850D01*
X94907Y-38850D01*
X94935Y-38711D01*
X94935Y-35150D01*
X94907Y-35010D01*
X94907Y-35010D01*
X94828Y-34892D01*
X94759Y-34823D01*
X94759Y-33779D01*
X94759Y-33653D01*
X94759Y-32314D01*
X94711Y-32198D01*
X94622Y-32110D01*
X94506Y-32062D01*
X94381Y-32062D01*
X93042Y-32062D01*
X92926Y-32110D01*
X92838Y-32198D01*
X92790Y-32314D01*
X92790Y-32440D01*
X92790Y-33779D01*
X92838Y-33894D01*
X92926Y-33983D01*
X93042Y-34031D01*
X93167Y-34031D01*
X94506Y-34031D01*
X94622Y-33983D01*
X94711Y-33894D01*
X94759Y-33779D01*
X94759Y-34823D01*
X94712Y-34777D01*
X94594Y-34698D01*
X94459Y-34671D01*
X94388Y-34641D01*
X94263Y-34641D01*
X94027Y-34641D01*
X93958Y-34670D01*
X92390Y-34670D01*
X92321Y-34641D01*
X92196Y-34641D01*
X91960Y-34641D01*
X91844Y-34689D01*
X91755Y-34778D01*
X91707Y-34894D01*
X91707Y-35019D01*
X91707Y-35176D01*
X91722Y-35212D01*
X91707Y-35248D01*
X91707Y-35373D01*
X91707Y-35530D01*
X91755Y-35646D01*
X91775Y-35666D01*
X91775Y-35685D01*
X91737Y-35701D01*
X91648Y-35789D01*
X91600Y-35905D01*
X91600Y-36030D01*
X91600Y-36074D01*
X90051Y-36074D01*
X89912Y-36102D01*
X89793Y-36181D01*
X89338Y-36636D01*
X84157Y-36636D01*
X84164Y-36619D01*
X84164Y-36384D01*
X84074Y-36167D01*
X83909Y-36001D01*
X83908Y-36001D01*
X84074Y-35836D01*
X84164Y-35619D01*
X84164Y-35384D01*
X84074Y-35167D01*
X83925Y-35018D01*
X83925Y-35018D01*
X83920Y-34990D01*
X84074Y-34836D01*
X84164Y-34619D01*
X84164Y-34384D01*
X84074Y-34167D01*
X83909Y-34001D01*
X83908Y-34001D01*
X84074Y-33836D01*
X84164Y-33619D01*
X84164Y-33384D01*
X84074Y-33167D01*
X83909Y-33001D01*
X83692Y-32911D01*
X83500Y-32911D01*
X82439Y-31850D01*
X82400Y-31824D01*
X94546Y-31824D01*
X94750Y-31864D01*
X94895Y-31961D01*
X94992Y-32106D01*
X95032Y-32310D01*
X95032Y-48779D01*
M02*
