%FSLAX34Y34*%
G04 Gerber Fmt 3.4, Leading zero omitted, Abs format*
G04 (created by PCBNEW (2014-03-19 BZR 4756)-product) date Sun 03 Aug 2014 21:22:35 BST*
%MOIN*%
G01*
G70*
G90*
G04 APERTURE LIST*
%ADD10C,0.005906*%
%ADD11O,0.078700X0.118700*%
%ADD12R,0.025000X0.045000*%
%ADD13R,0.015700X0.023600*%
%ADD14C,0.058300*%
%ADD15R,0.045000X0.025000*%
%ADD16O,0.031496X0.043307*%
%ADD17R,0.031496X0.043307*%
%ADD18O,0.062992X0.039370*%
%ADD19R,0.062992X0.039370*%
%ADD20O,0.055118X0.086614*%
%ADD21R,0.055118X0.086614*%
%ADD22O,0.118700X0.078700*%
%ADD23R,0.068000X0.080000*%
%ADD24O,0.068000X0.080000*%
%ADD25R,0.023600X0.015700*%
%ADD26R,0.060000X0.060000*%
%ADD27C,0.060000*%
%ADD28C,0.055000*%
%ADD29R,0.055000X0.055000*%
%ADD30R,0.133900X0.133900*%
%ADD31R,0.045000X0.020000*%
%ADD32C,0.035000*%
%ADD33C,0.010000*%
%ADD34C,0.015748*%
G04 APERTURE END LIST*
G54D10*
G54D11*
X74214Y-47228D03*
X72246Y-47228D03*
G54D12*
X76059Y-34620D03*
X75459Y-34620D03*
G54D13*
X76035Y-35210D03*
X75681Y-35210D03*
G54D14*
X75887Y-47228D03*
X75887Y-46440D03*
G54D15*
X94007Y-36593D03*
X94007Y-35993D03*
X91940Y-36593D03*
X91940Y-35993D03*
X94007Y-40727D03*
X94007Y-40127D03*
X94007Y-44861D03*
X94007Y-44261D03*
G54D16*
X80484Y-44610D03*
X80996Y-44610D03*
G54D17*
X79972Y-44610D03*
G54D16*
X80484Y-46480D03*
X80996Y-46480D03*
G54D17*
X79972Y-46480D03*
G54D18*
X81566Y-41067D03*
X81566Y-41657D03*
G54D19*
X81566Y-40476D03*
G54D18*
X81566Y-42248D03*
X79401Y-41067D03*
X79401Y-41657D03*
G54D19*
X79401Y-40476D03*
G54D18*
X79401Y-42248D03*
G54D20*
X80877Y-34374D03*
X79893Y-34374D03*
G54D21*
X81861Y-34374D03*
G54D20*
X78909Y-34374D03*
G54D22*
X70248Y-43293D03*
X70248Y-45261D03*
X70248Y-35407D03*
X70248Y-37375D03*
X70248Y-39344D03*
X70248Y-41312D03*
G54D23*
X78885Y-37444D03*
G54D24*
X79885Y-37444D03*
X80885Y-37444D03*
X81885Y-37444D03*
G54D25*
X94007Y-35289D03*
X94007Y-34935D03*
X91940Y-35289D03*
X91940Y-34935D03*
G54D12*
X80784Y-41165D03*
X80184Y-41165D03*
X80784Y-40476D03*
X80184Y-40476D03*
G54D25*
X94007Y-39423D03*
X94007Y-39069D03*
X94007Y-43556D03*
X94007Y-43202D03*
X79598Y-36283D03*
X79598Y-36637D03*
X79106Y-36283D03*
X79106Y-36637D03*
G54D26*
X75200Y-32446D03*
G54D27*
X75200Y-33446D03*
X74200Y-32446D03*
X74200Y-33446D03*
X73200Y-32446D03*
X73200Y-33446D03*
X72200Y-32446D03*
X72200Y-33446D03*
X71200Y-32446D03*
X71200Y-33446D03*
G54D28*
X77374Y-33401D03*
X83374Y-34401D03*
X83374Y-35401D03*
X83374Y-36401D03*
X83374Y-37401D03*
X83374Y-38401D03*
X83374Y-39401D03*
X83374Y-40401D03*
X83374Y-41401D03*
X83374Y-42401D03*
X83374Y-43401D03*
X83374Y-44401D03*
X83374Y-45401D03*
X83374Y-46401D03*
G54D29*
X83374Y-47401D03*
G54D28*
X77374Y-47401D03*
X77374Y-46401D03*
X77374Y-45401D03*
X77374Y-44401D03*
X77374Y-43401D03*
X77374Y-42401D03*
X77374Y-41401D03*
X77374Y-40401D03*
X77374Y-39401D03*
X77374Y-38401D03*
X77374Y-37401D03*
X77374Y-36401D03*
X77374Y-35401D03*
X77374Y-34401D03*
X83374Y-33401D03*
X88966Y-48446D03*
X88966Y-46557D03*
X91958Y-48446D03*
X91958Y-46557D03*
X84931Y-48446D03*
X84931Y-46557D03*
X87923Y-48446D03*
X87923Y-46557D03*
G54D30*
X69165Y-32946D03*
X93574Y-32946D03*
X93574Y-47907D03*
X69165Y-47907D03*
G54D25*
X91053Y-40789D03*
X91053Y-40435D03*
X91053Y-41222D03*
X91053Y-41576D03*
X91545Y-41222D03*
X91545Y-41576D03*
G54D31*
X90297Y-41574D03*
X90297Y-41074D03*
X90297Y-40574D03*
X90297Y-40074D03*
X90297Y-39574D03*
X90297Y-39074D03*
X90297Y-38574D03*
X90297Y-38074D03*
X86297Y-38074D03*
X86297Y-38574D03*
X86297Y-39074D03*
X86297Y-39574D03*
X86297Y-40074D03*
X86297Y-40574D03*
X86297Y-41074D03*
X86297Y-41574D03*
G54D13*
X80395Y-45553D03*
X80041Y-45553D03*
G54D32*
X88789Y-40574D03*
G54D33*
X76059Y-34620D02*
X76059Y-34266D01*
X75200Y-33446D02*
X76020Y-34266D01*
X76020Y-34266D02*
X76059Y-34266D01*
X76059Y-34620D02*
X76313Y-34620D01*
X77374Y-34401D02*
X76532Y-34401D01*
X76532Y-34401D02*
X76313Y-34620D01*
X76059Y-34620D02*
X76059Y-34973D01*
X76035Y-35210D02*
X76035Y-34998D01*
X76035Y-34998D02*
X76059Y-34973D01*
X72246Y-47228D02*
X71723Y-47228D01*
X70248Y-45261D02*
X70248Y-45783D01*
X70248Y-45783D02*
X70279Y-45783D01*
X70279Y-45783D02*
X71723Y-47228D01*
X70248Y-41312D02*
X70248Y-40790D01*
X70248Y-37375D02*
X70248Y-37898D01*
X70248Y-37898D02*
X69518Y-38628D01*
X69518Y-38628D02*
X69518Y-40060D01*
X69518Y-40060D02*
X70248Y-40790D01*
X86297Y-38074D02*
X85943Y-38074D01*
X86120Y-38574D02*
X85943Y-38397D01*
X85943Y-38397D02*
X85943Y-38074D01*
X86120Y-38574D02*
X85943Y-38574D01*
X86297Y-38574D02*
X86120Y-38574D01*
X85943Y-38813D02*
X85943Y-38574D01*
X86031Y-39074D02*
X85943Y-38986D01*
X85943Y-38986D02*
X85943Y-38813D01*
X85943Y-38813D02*
X82725Y-38813D01*
X82725Y-38813D02*
X81885Y-37973D01*
X80996Y-46480D02*
X81282Y-46480D01*
X81282Y-46480D02*
X83249Y-48446D01*
X83249Y-48446D02*
X84931Y-48446D01*
X75887Y-46440D02*
X75926Y-46401D01*
X75926Y-46401D02*
X77374Y-46401D01*
X88966Y-48446D02*
X91958Y-48446D01*
X81885Y-37444D02*
X81885Y-37973D01*
X75681Y-35210D02*
X75681Y-35457D01*
X78909Y-34374D02*
X78466Y-34817D01*
X78466Y-34817D02*
X76918Y-34817D01*
X76918Y-34817D02*
X76278Y-35457D01*
X76278Y-35457D02*
X75681Y-35457D01*
X86297Y-38574D02*
X89943Y-38574D01*
X86120Y-39574D02*
X85943Y-39574D01*
X86297Y-39574D02*
X86120Y-39574D01*
X86120Y-39574D02*
X86120Y-39074D01*
X86297Y-40074D02*
X85943Y-40074D01*
X85943Y-40074D02*
X85943Y-39574D01*
X86120Y-39074D02*
X86031Y-39074D01*
X86297Y-39074D02*
X86120Y-39074D01*
X90120Y-38574D02*
X89943Y-38574D01*
X90297Y-38574D02*
X90120Y-38574D01*
X90120Y-38574D02*
X90120Y-39074D01*
X90120Y-38074D02*
X89943Y-38251D01*
X89943Y-38251D02*
X89943Y-38574D01*
X90297Y-38074D02*
X90120Y-38074D01*
X90297Y-39574D02*
X89943Y-39574D01*
X90120Y-39074D02*
X89943Y-39251D01*
X89943Y-39251D02*
X89943Y-39574D01*
X90297Y-39074D02*
X90120Y-39074D01*
X87923Y-48446D02*
X84931Y-48446D01*
X75473Y-35210D02*
X75473Y-34987D01*
X75473Y-34987D02*
X75459Y-34973D01*
X75459Y-34620D02*
X75459Y-34973D01*
X75681Y-35210D02*
X75473Y-35210D01*
X75887Y-46440D02*
X73556Y-46440D01*
X73556Y-46440D02*
X72768Y-47228D01*
X72246Y-47228D02*
X72768Y-47228D01*
X79401Y-42248D02*
X81566Y-42248D01*
X80996Y-44610D02*
X81282Y-44610D01*
X83374Y-44401D02*
X81491Y-44401D01*
X81491Y-44401D02*
X81282Y-44610D01*
X91053Y-40435D02*
X91053Y-40227D01*
X90297Y-39574D02*
X90651Y-39574D01*
X90651Y-39574D02*
X90651Y-39825D01*
X90651Y-39825D02*
X91053Y-40227D01*
X79972Y-46480D02*
X79972Y-45622D01*
X79972Y-45622D02*
X80041Y-45553D01*
X79972Y-44610D02*
X79685Y-44610D01*
X77374Y-44401D02*
X79477Y-44401D01*
X79477Y-44401D02*
X79685Y-44610D01*
X77374Y-35540D02*
X78570Y-35540D01*
X78570Y-35540D02*
X79106Y-36076D01*
X80530Y-40476D02*
X80530Y-40285D01*
X80530Y-40285D02*
X80063Y-39819D01*
X80063Y-39819D02*
X79431Y-39819D01*
X79431Y-39819D02*
X77450Y-37838D01*
X77450Y-37838D02*
X77239Y-37838D01*
X77239Y-37838D02*
X76967Y-37565D01*
X76967Y-37565D02*
X76967Y-35947D01*
X76967Y-35947D02*
X77374Y-35540D01*
X77374Y-35401D02*
X77374Y-35540D01*
X79106Y-36283D02*
X79106Y-36076D01*
X79106Y-36283D02*
X79353Y-36283D01*
X79598Y-36185D02*
X79451Y-36185D01*
X79451Y-36185D02*
X79353Y-36283D01*
X79598Y-36185D02*
X79598Y-36076D01*
X79598Y-36283D02*
X79598Y-36185D01*
X80784Y-40476D02*
X80530Y-40476D01*
X91940Y-34935D02*
X85039Y-34935D01*
X85039Y-34935D02*
X84116Y-35857D01*
X84116Y-35857D02*
X79816Y-35857D01*
X79816Y-35857D02*
X79598Y-36076D01*
X80530Y-41165D02*
X80530Y-41355D01*
X80530Y-41355D02*
X80228Y-41657D01*
X80228Y-41657D02*
X79401Y-41657D01*
X94007Y-34935D02*
X91940Y-34935D01*
X91053Y-41222D02*
X91298Y-41222D01*
X91545Y-41222D02*
X91298Y-41222D01*
X91053Y-41222D02*
X91053Y-40996D01*
X90297Y-41074D02*
X90651Y-41074D01*
X91053Y-40789D02*
X91053Y-40996D01*
X90651Y-41074D02*
X90729Y-40996D01*
X90729Y-40996D02*
X91053Y-40996D01*
X94007Y-34935D02*
X94254Y-34935D01*
X94254Y-34935D02*
X94361Y-35042D01*
X94361Y-35042D02*
X94361Y-38962D01*
X94361Y-38962D02*
X94254Y-39069D01*
X94007Y-41222D02*
X94047Y-41222D01*
X94047Y-41222D02*
X94361Y-40908D01*
X94361Y-40908D02*
X94361Y-39176D01*
X94361Y-39176D02*
X94254Y-39069D01*
X94007Y-42995D02*
X94007Y-41222D01*
X94007Y-41222D02*
X91792Y-41222D01*
X91545Y-41222D02*
X91792Y-41222D01*
X80784Y-41165D02*
X81038Y-41165D01*
X81566Y-41657D02*
X81123Y-41657D01*
X81123Y-41657D02*
X81123Y-41250D01*
X81123Y-41250D02*
X81038Y-41165D01*
X80784Y-41165D02*
X80530Y-41165D01*
X94007Y-43202D02*
X94007Y-42995D01*
X94007Y-39069D02*
X94254Y-39069D01*
X80784Y-40476D02*
X80784Y-41165D01*
X77374Y-47401D02*
X76060Y-47401D01*
X76060Y-47401D02*
X75887Y-47228D01*
X75887Y-47228D02*
X74737Y-47228D01*
X74737Y-47228D02*
X74736Y-47228D01*
X74214Y-47228D02*
X74736Y-47228D01*
X94007Y-36593D02*
X94007Y-36339D01*
X77374Y-37401D02*
X77967Y-37995D01*
X77967Y-37995D02*
X81059Y-37995D01*
X81059Y-37995D02*
X81372Y-37682D01*
X81372Y-37682D02*
X81372Y-37228D01*
X81372Y-37228D02*
X81699Y-36901D01*
X81699Y-36901D02*
X83450Y-36901D01*
X83450Y-36901D02*
X84012Y-36339D01*
X84012Y-36339D02*
X94007Y-36339D01*
X94007Y-35993D02*
X94007Y-35289D01*
X83374Y-37401D02*
X84182Y-36593D01*
X84182Y-36593D02*
X91940Y-36593D01*
X91940Y-35993D02*
X91940Y-35289D01*
X94007Y-40727D02*
X94007Y-40473D01*
X83374Y-38401D02*
X83930Y-37845D01*
X83930Y-37845D02*
X91126Y-37845D01*
X91126Y-37845D02*
X93754Y-40473D01*
X93754Y-40473D02*
X94007Y-40473D01*
X94007Y-40127D02*
X94007Y-39423D01*
X83374Y-39401D02*
X84276Y-40303D01*
X84276Y-40303D02*
X86651Y-40303D01*
X86651Y-40303D02*
X86685Y-40268D01*
X86685Y-40268D02*
X88927Y-40268D01*
X88927Y-40268D02*
X89547Y-40888D01*
X89547Y-40888D02*
X89547Y-41345D01*
X89547Y-41345D02*
X93063Y-44861D01*
X93063Y-44861D02*
X94007Y-44861D01*
X94007Y-44261D02*
X94007Y-43556D01*
X80484Y-46480D02*
X80484Y-45641D01*
X80484Y-45641D02*
X80395Y-45553D01*
X83374Y-42401D02*
X82692Y-42401D01*
X82692Y-42401D02*
X80484Y-44610D01*
X83374Y-41262D02*
X82206Y-41262D01*
X82206Y-41262D02*
X82010Y-41067D01*
X86297Y-41074D02*
X83562Y-41074D01*
X83562Y-41074D02*
X83374Y-41262D01*
X83374Y-41262D02*
X83374Y-41401D01*
X81566Y-41067D02*
X82010Y-41067D01*
X79401Y-41067D02*
X79845Y-41067D01*
X80184Y-41165D02*
X79930Y-41165D01*
X79845Y-41067D02*
X79845Y-41080D01*
X79845Y-41080D02*
X79930Y-41165D01*
X86297Y-41574D02*
X86651Y-41574D01*
X86651Y-41574D02*
X86651Y-40919D01*
X86651Y-40919D02*
X86577Y-40845D01*
X86577Y-40845D02*
X83744Y-40845D01*
X83744Y-40845D02*
X83374Y-40476D01*
X80184Y-40476D02*
X79845Y-40476D01*
X79845Y-40476D02*
X79845Y-40476D01*
X83374Y-40476D02*
X83374Y-40401D01*
X83374Y-40476D02*
X82010Y-40476D01*
X81566Y-40476D02*
X82010Y-40476D01*
X79401Y-40476D02*
X79845Y-40476D01*
X77374Y-40401D02*
X74482Y-43293D01*
X74482Y-43293D02*
X70248Y-43293D01*
X77374Y-38401D02*
X74380Y-35407D01*
X74380Y-35407D02*
X70248Y-35407D01*
X70248Y-39344D02*
X70970Y-39344D01*
X77374Y-39401D02*
X71027Y-39401D01*
X71027Y-39401D02*
X70970Y-39344D01*
X79106Y-36637D02*
X79106Y-36845D01*
X78885Y-37444D02*
X78885Y-36916D01*
X78885Y-36916D02*
X78956Y-36845D01*
X78956Y-36845D02*
X79106Y-36845D01*
X79598Y-36637D02*
X79598Y-36845D01*
X79885Y-37444D02*
X79885Y-36916D01*
X79885Y-36916D02*
X79669Y-36916D01*
X79669Y-36916D02*
X79598Y-36845D01*
X88966Y-46557D02*
X87376Y-44966D01*
X87376Y-44966D02*
X77359Y-44966D01*
X77359Y-44966D02*
X76959Y-44566D01*
X76959Y-44566D02*
X76959Y-41815D01*
X76959Y-41815D02*
X77374Y-41401D01*
X91958Y-46557D02*
X88966Y-46557D01*
X87923Y-46557D02*
X84931Y-46557D01*
X74200Y-33446D02*
X74200Y-34235D01*
X74200Y-34235D02*
X75608Y-35642D01*
X75608Y-35642D02*
X76435Y-35642D01*
X76435Y-35642D02*
X77081Y-34996D01*
X77081Y-34996D02*
X82969Y-34996D01*
X82969Y-34996D02*
X83374Y-35401D01*
X83374Y-34401D02*
X81964Y-32991D01*
X81964Y-32991D02*
X73656Y-32991D01*
X73656Y-32991D02*
X73200Y-33446D01*
X86297Y-40574D02*
X88789Y-40574D01*
X90297Y-40574D02*
X89943Y-40574D01*
X89943Y-40574D02*
X89943Y-41251D01*
X89943Y-41251D02*
X89995Y-41303D01*
X89995Y-41303D02*
X90633Y-41303D01*
X90633Y-41303D02*
X90905Y-41576D01*
X90905Y-41576D02*
X91053Y-41576D01*
X91545Y-41576D02*
X91545Y-41783D01*
X90297Y-41574D02*
X90651Y-41574D01*
X90651Y-41574D02*
X90860Y-41783D01*
X90860Y-41783D02*
X91545Y-41783D01*
G54D10*
G36*
X75488Y-34641D02*
X75481Y-34641D01*
X75481Y-34649D01*
X75438Y-34649D01*
X75438Y-34641D01*
X75430Y-34641D01*
X75430Y-34598D01*
X75438Y-34598D01*
X75438Y-34590D01*
X75481Y-34590D01*
X75481Y-34598D01*
X75488Y-34598D01*
X75488Y-34641D01*
X75488Y-34641D01*
G37*
G54D34*
X75488Y-34641D02*
X75481Y-34641D01*
X75481Y-34649D01*
X75438Y-34649D01*
X75438Y-34641D01*
X75430Y-34641D01*
X75430Y-34598D01*
X75438Y-34598D01*
X75438Y-34590D01*
X75481Y-34590D01*
X75481Y-34598D01*
X75488Y-34598D01*
X75488Y-34641D01*
G54D10*
G36*
X82082Y-33625D02*
X82074Y-33625D01*
X81523Y-33625D01*
X81407Y-33673D01*
X81319Y-33762D01*
X81304Y-33797D01*
X81295Y-33784D01*
X81103Y-33656D01*
X80877Y-33611D01*
X80651Y-33656D01*
X80460Y-33784D01*
X80385Y-33895D01*
X80311Y-33784D01*
X80119Y-33656D01*
X79893Y-33611D01*
X79667Y-33656D01*
X79476Y-33784D01*
X79376Y-33933D01*
X79286Y-33809D01*
X79102Y-33696D01*
X79017Y-33672D01*
X78931Y-33732D01*
X78931Y-34352D01*
X78938Y-34352D01*
X78938Y-34395D01*
X78931Y-34395D01*
X78931Y-34403D01*
X78888Y-34403D01*
X78888Y-34395D01*
X78888Y-34352D01*
X78888Y-33732D01*
X78802Y-33672D01*
X78717Y-33696D01*
X78532Y-33809D01*
X78405Y-33984D01*
X78355Y-34195D01*
X78355Y-34352D01*
X78888Y-34352D01*
X78888Y-34395D01*
X78355Y-34395D01*
X78355Y-34552D01*
X78374Y-34631D01*
X77917Y-34631D01*
X77963Y-34519D01*
X77964Y-34284D01*
X77874Y-34067D01*
X77708Y-33901D01*
X77708Y-33901D01*
X77873Y-33736D01*
X77963Y-33519D01*
X77964Y-33356D01*
X81813Y-33356D01*
X82082Y-33625D01*
X82082Y-33625D01*
G37*
G54D34*
X82082Y-33625D02*
X82074Y-33625D01*
X81523Y-33625D01*
X81407Y-33673D01*
X81319Y-33762D01*
X81304Y-33797D01*
X81295Y-33784D01*
X81103Y-33656D01*
X80877Y-33611D01*
X80651Y-33656D01*
X80460Y-33784D01*
X80385Y-33895D01*
X80311Y-33784D01*
X80119Y-33656D01*
X79893Y-33611D01*
X79667Y-33656D01*
X79476Y-33784D01*
X79376Y-33933D01*
X79286Y-33809D01*
X79102Y-33696D01*
X79017Y-33672D01*
X78931Y-33732D01*
X78931Y-34352D01*
X78938Y-34352D01*
X78938Y-34395D01*
X78931Y-34395D01*
X78931Y-34403D01*
X78888Y-34403D01*
X78888Y-34395D01*
X78888Y-34352D01*
X78888Y-33732D01*
X78802Y-33672D01*
X78717Y-33696D01*
X78532Y-33809D01*
X78405Y-33984D01*
X78355Y-34195D01*
X78355Y-34352D01*
X78888Y-34352D01*
X78888Y-34395D01*
X78355Y-34395D01*
X78355Y-34552D01*
X78374Y-34631D01*
X77917Y-34631D01*
X77963Y-34519D01*
X77964Y-34284D01*
X77874Y-34067D01*
X77708Y-33901D01*
X77708Y-33901D01*
X77873Y-33736D01*
X77963Y-33519D01*
X77964Y-33356D01*
X81813Y-33356D01*
X82082Y-33625D01*
G54D10*
G36*
X82809Y-36222D02*
X82784Y-36283D01*
X82784Y-36518D01*
X82791Y-36536D01*
X81699Y-36536D01*
X81559Y-36564D01*
X81441Y-36643D01*
X81212Y-36872D01*
X81102Y-36805D01*
X81003Y-36777D01*
X80907Y-36836D01*
X80907Y-37423D01*
X80914Y-37423D01*
X80914Y-37466D01*
X80907Y-37466D01*
X80907Y-37474D01*
X80864Y-37474D01*
X80864Y-37466D01*
X80856Y-37466D01*
X80856Y-37423D01*
X80864Y-37423D01*
X80864Y-36836D01*
X80768Y-36777D01*
X80668Y-36805D01*
X80463Y-36932D01*
X80412Y-37002D01*
X80348Y-36907D01*
X80233Y-36830D01*
X80223Y-36776D01*
X80143Y-36657D01*
X80031Y-36582D01*
X80031Y-36496D01*
X80016Y-36460D01*
X80031Y-36424D01*
X80031Y-36299D01*
X80031Y-36222D01*
X82809Y-36222D01*
X82809Y-36222D01*
G37*
G54D34*
X82809Y-36222D02*
X82784Y-36283D01*
X82784Y-36518D01*
X82791Y-36536D01*
X81699Y-36536D01*
X81559Y-36564D01*
X81441Y-36643D01*
X81212Y-36872D01*
X81102Y-36805D01*
X81003Y-36777D01*
X80907Y-36836D01*
X80907Y-37423D01*
X80914Y-37423D01*
X80914Y-37466D01*
X80907Y-37466D01*
X80907Y-37474D01*
X80864Y-37474D01*
X80864Y-37466D01*
X80856Y-37466D01*
X80856Y-37423D01*
X80864Y-37423D01*
X80864Y-36836D01*
X80768Y-36777D01*
X80668Y-36805D01*
X80463Y-36932D01*
X80412Y-37002D01*
X80348Y-36907D01*
X80233Y-36830D01*
X80223Y-36776D01*
X80143Y-36657D01*
X80031Y-36582D01*
X80031Y-36496D01*
X80016Y-36460D01*
X80031Y-36424D01*
X80031Y-36299D01*
X80031Y-36222D01*
X82809Y-36222D01*
G54D10*
G36*
X83040Y-39901D02*
X82874Y-40066D01*
X82856Y-40111D01*
X82504Y-40111D01*
X82504Y-37526D01*
X82504Y-37466D01*
X81907Y-37466D01*
X81907Y-38053D01*
X82003Y-38112D01*
X82102Y-38084D01*
X82308Y-37957D01*
X82449Y-37761D01*
X82504Y-37526D01*
X82504Y-40111D01*
X82153Y-40111D01*
X82148Y-40100D01*
X82060Y-40012D01*
X81944Y-39964D01*
X81819Y-39964D01*
X81189Y-39964D01*
X81103Y-40000D01*
X81087Y-39984D01*
X80971Y-39936D01*
X80846Y-39936D01*
X80696Y-39936D01*
X80321Y-39561D01*
X80203Y-39481D01*
X80063Y-39454D01*
X79582Y-39454D01*
X78488Y-38360D01*
X81059Y-38360D01*
X81199Y-38332D01*
X81199Y-38332D01*
X81317Y-38253D01*
X81556Y-38014D01*
X81668Y-38084D01*
X81768Y-38112D01*
X81864Y-38053D01*
X81864Y-37466D01*
X81856Y-37466D01*
X81856Y-37423D01*
X81864Y-37423D01*
X81864Y-37415D01*
X81907Y-37415D01*
X81907Y-37423D01*
X82504Y-37423D01*
X82504Y-37363D01*
X82481Y-37266D01*
X82791Y-37266D01*
X82784Y-37283D01*
X82784Y-37518D01*
X82874Y-37735D01*
X83039Y-37901D01*
X83040Y-37901D01*
X82874Y-38066D01*
X82784Y-38283D01*
X82784Y-38518D01*
X82874Y-38735D01*
X83039Y-38901D01*
X83040Y-38901D01*
X82874Y-39066D01*
X82784Y-39283D01*
X82784Y-39518D01*
X82874Y-39735D01*
X83039Y-39901D01*
X83040Y-39901D01*
X83040Y-39901D01*
G37*
G54D34*
X83040Y-39901D02*
X82874Y-40066D01*
X82856Y-40111D01*
X82504Y-40111D01*
X82504Y-37526D01*
X82504Y-37466D01*
X81907Y-37466D01*
X81907Y-38053D01*
X82003Y-38112D01*
X82102Y-38084D01*
X82308Y-37957D01*
X82449Y-37761D01*
X82504Y-37526D01*
X82504Y-40111D01*
X82153Y-40111D01*
X82148Y-40100D01*
X82060Y-40012D01*
X81944Y-39964D01*
X81819Y-39964D01*
X81189Y-39964D01*
X81103Y-40000D01*
X81087Y-39984D01*
X80971Y-39936D01*
X80846Y-39936D01*
X80696Y-39936D01*
X80321Y-39561D01*
X80203Y-39481D01*
X80063Y-39454D01*
X79582Y-39454D01*
X78488Y-38360D01*
X81059Y-38360D01*
X81199Y-38332D01*
X81199Y-38332D01*
X81317Y-38253D01*
X81556Y-38014D01*
X81668Y-38084D01*
X81768Y-38112D01*
X81864Y-38053D01*
X81864Y-37466D01*
X81856Y-37466D01*
X81856Y-37423D01*
X81864Y-37423D01*
X81864Y-37415D01*
X81907Y-37415D01*
X81907Y-37423D01*
X82504Y-37423D01*
X82504Y-37363D01*
X82481Y-37266D01*
X82791Y-37266D01*
X82784Y-37283D01*
X82784Y-37518D01*
X82874Y-37735D01*
X83039Y-37901D01*
X83040Y-37901D01*
X82874Y-38066D01*
X82784Y-38283D01*
X82784Y-38518D01*
X82874Y-38735D01*
X83039Y-38901D01*
X83040Y-38901D01*
X82874Y-39066D01*
X82784Y-39283D01*
X82784Y-39518D01*
X82874Y-39735D01*
X83039Y-39901D01*
X83040Y-39901D01*
G54D10*
G36*
X83040Y-41901D02*
X82905Y-42036D01*
X82692Y-42036D01*
X82553Y-42064D01*
X82434Y-42143D01*
X82078Y-42499D01*
X82132Y-42410D01*
X82150Y-42343D01*
X82090Y-42269D01*
X81588Y-42269D01*
X81588Y-42723D01*
X81706Y-42723D01*
X81886Y-42679D01*
X81932Y-42645D01*
X81545Y-43032D01*
X81545Y-42723D01*
X81545Y-42269D01*
X81043Y-42269D01*
X80982Y-42343D01*
X81001Y-42410D01*
X81097Y-42569D01*
X81247Y-42679D01*
X81427Y-42723D01*
X81545Y-42723D01*
X81545Y-43032D01*
X80505Y-44072D01*
X80484Y-44068D01*
X80303Y-44104D01*
X80284Y-44116D01*
X80192Y-44078D01*
X80067Y-44078D01*
X79985Y-44078D01*
X79985Y-42343D01*
X79925Y-42269D01*
X79422Y-42269D01*
X79422Y-42723D01*
X79540Y-42723D01*
X79721Y-42679D01*
X79871Y-42569D01*
X79967Y-42410D01*
X79985Y-42343D01*
X79985Y-44078D01*
X79752Y-44078D01*
X79681Y-44107D01*
X79616Y-44064D01*
X79477Y-44036D01*
X79380Y-44036D01*
X79380Y-42723D01*
X79380Y-42269D01*
X78878Y-42269D01*
X78817Y-42343D01*
X78835Y-42410D01*
X78932Y-42569D01*
X79081Y-42679D01*
X79262Y-42723D01*
X79380Y-42723D01*
X79380Y-44036D01*
X77843Y-44036D01*
X77708Y-43901D01*
X77708Y-43901D01*
X77873Y-43736D01*
X77963Y-43519D01*
X77964Y-43284D01*
X77874Y-43067D01*
X77708Y-42901D01*
X77708Y-42901D01*
X77873Y-42736D01*
X77963Y-42519D01*
X77964Y-42284D01*
X77874Y-42067D01*
X77708Y-41901D01*
X77708Y-41901D01*
X77873Y-41736D01*
X77963Y-41519D01*
X77964Y-41284D01*
X77874Y-41067D01*
X77708Y-40901D01*
X77708Y-40901D01*
X77873Y-40736D01*
X77963Y-40519D01*
X77964Y-40284D01*
X77874Y-40067D01*
X77708Y-39901D01*
X77708Y-39901D01*
X77873Y-39736D01*
X77963Y-39519D01*
X77964Y-39284D01*
X77874Y-39067D01*
X77708Y-38901D01*
X77708Y-38901D01*
X77852Y-38757D01*
X79060Y-39964D01*
X79023Y-39964D01*
X78908Y-40012D01*
X78819Y-40100D01*
X78771Y-40216D01*
X78771Y-40342D01*
X78771Y-40735D01*
X78816Y-40844D01*
X78798Y-40871D01*
X78759Y-41067D01*
X78798Y-41263D01*
X78864Y-41362D01*
X78798Y-41461D01*
X78759Y-41657D01*
X78798Y-41853D01*
X78891Y-41993D01*
X78835Y-42085D01*
X78817Y-42152D01*
X78878Y-42226D01*
X79380Y-42226D01*
X79380Y-42219D01*
X79422Y-42219D01*
X79422Y-42226D01*
X79925Y-42226D01*
X79985Y-42152D01*
X79967Y-42085D01*
X79928Y-42022D01*
X80228Y-42022D01*
X80368Y-41994D01*
X80368Y-41994D01*
X80487Y-41915D01*
X80696Y-41705D01*
X80721Y-41705D01*
X80767Y-41705D01*
X80785Y-41796D01*
X80865Y-41915D01*
X80983Y-41994D01*
X81048Y-42007D01*
X81001Y-42085D01*
X80982Y-42152D01*
X81043Y-42226D01*
X81545Y-42226D01*
X81545Y-42219D01*
X81588Y-42219D01*
X81588Y-42226D01*
X82090Y-42226D01*
X82150Y-42152D01*
X82132Y-42085D01*
X82076Y-41993D01*
X82170Y-41853D01*
X82209Y-41657D01*
X82203Y-41627D01*
X82206Y-41627D01*
X82829Y-41627D01*
X82874Y-41735D01*
X83039Y-41901D01*
X83040Y-41901D01*
X83040Y-41901D01*
G37*
G54D34*
X83040Y-41901D02*
X82905Y-42036D01*
X82692Y-42036D01*
X82553Y-42064D01*
X82434Y-42143D01*
X82078Y-42499D01*
X82132Y-42410D01*
X82150Y-42343D01*
X82090Y-42269D01*
X81588Y-42269D01*
X81588Y-42723D01*
X81706Y-42723D01*
X81886Y-42679D01*
X81932Y-42645D01*
X81545Y-43032D01*
X81545Y-42723D01*
X81545Y-42269D01*
X81043Y-42269D01*
X80982Y-42343D01*
X81001Y-42410D01*
X81097Y-42569D01*
X81247Y-42679D01*
X81427Y-42723D01*
X81545Y-42723D01*
X81545Y-43032D01*
X80505Y-44072D01*
X80484Y-44068D01*
X80303Y-44104D01*
X80284Y-44116D01*
X80192Y-44078D01*
X80067Y-44078D01*
X79985Y-44078D01*
X79985Y-42343D01*
X79925Y-42269D01*
X79422Y-42269D01*
X79422Y-42723D01*
X79540Y-42723D01*
X79721Y-42679D01*
X79871Y-42569D01*
X79967Y-42410D01*
X79985Y-42343D01*
X79985Y-44078D01*
X79752Y-44078D01*
X79681Y-44107D01*
X79616Y-44064D01*
X79477Y-44036D01*
X79380Y-44036D01*
X79380Y-42723D01*
X79380Y-42269D01*
X78878Y-42269D01*
X78817Y-42343D01*
X78835Y-42410D01*
X78932Y-42569D01*
X79081Y-42679D01*
X79262Y-42723D01*
X79380Y-42723D01*
X79380Y-44036D01*
X77843Y-44036D01*
X77708Y-43901D01*
X77708Y-43901D01*
X77873Y-43736D01*
X77963Y-43519D01*
X77964Y-43284D01*
X77874Y-43067D01*
X77708Y-42901D01*
X77708Y-42901D01*
X77873Y-42736D01*
X77963Y-42519D01*
X77964Y-42284D01*
X77874Y-42067D01*
X77708Y-41901D01*
X77708Y-41901D01*
X77873Y-41736D01*
X77963Y-41519D01*
X77964Y-41284D01*
X77874Y-41067D01*
X77708Y-40901D01*
X77708Y-40901D01*
X77873Y-40736D01*
X77963Y-40519D01*
X77964Y-40284D01*
X77874Y-40067D01*
X77708Y-39901D01*
X77708Y-39901D01*
X77873Y-39736D01*
X77963Y-39519D01*
X77964Y-39284D01*
X77874Y-39067D01*
X77708Y-38901D01*
X77708Y-38901D01*
X77852Y-38757D01*
X79060Y-39964D01*
X79023Y-39964D01*
X78908Y-40012D01*
X78819Y-40100D01*
X78771Y-40216D01*
X78771Y-40342D01*
X78771Y-40735D01*
X78816Y-40844D01*
X78798Y-40871D01*
X78759Y-41067D01*
X78798Y-41263D01*
X78864Y-41362D01*
X78798Y-41461D01*
X78759Y-41657D01*
X78798Y-41853D01*
X78891Y-41993D01*
X78835Y-42085D01*
X78817Y-42152D01*
X78878Y-42226D01*
X79380Y-42226D01*
X79380Y-42219D01*
X79422Y-42219D01*
X79422Y-42226D01*
X79925Y-42226D01*
X79985Y-42152D01*
X79967Y-42085D01*
X79928Y-42022D01*
X80228Y-42022D01*
X80368Y-41994D01*
X80368Y-41994D01*
X80487Y-41915D01*
X80696Y-41705D01*
X80721Y-41705D01*
X80767Y-41705D01*
X80785Y-41796D01*
X80865Y-41915D01*
X80983Y-41994D01*
X81048Y-42007D01*
X81001Y-42085D01*
X80982Y-42152D01*
X81043Y-42226D01*
X81545Y-42226D01*
X81545Y-42219D01*
X81588Y-42219D01*
X81588Y-42226D01*
X82090Y-42226D01*
X82150Y-42152D01*
X82132Y-42085D01*
X82076Y-41993D01*
X82170Y-41853D01*
X82209Y-41657D01*
X82203Y-41627D01*
X82206Y-41627D01*
X82829Y-41627D01*
X82874Y-41735D01*
X83039Y-41901D01*
X83040Y-41901D01*
G54D10*
G36*
X93467Y-40857D02*
X91794Y-40857D01*
X91725Y-40829D01*
X91600Y-40829D01*
X91486Y-40829D01*
X91486Y-40805D01*
X91486Y-40648D01*
X91449Y-40560D01*
X91449Y-40526D01*
X91380Y-40456D01*
X91362Y-40456D01*
X91349Y-40443D01*
X91277Y-40413D01*
X91380Y-40413D01*
X91449Y-40344D01*
X91449Y-40301D01*
X91407Y-40198D01*
X91329Y-40120D01*
X91226Y-40077D01*
X91144Y-40077D01*
X91074Y-40147D01*
X91074Y-40395D01*
X91031Y-40395D01*
X91031Y-40147D01*
X90962Y-40077D01*
X90879Y-40077D01*
X90837Y-40095D01*
X90837Y-39912D01*
X90789Y-39796D01*
X90778Y-39785D01*
X90800Y-39730D01*
X90800Y-39665D01*
X90800Y-39483D01*
X90800Y-39419D01*
X90761Y-39324D01*
X90800Y-39230D01*
X90800Y-39165D01*
X90800Y-38983D01*
X90800Y-38919D01*
X90761Y-38824D01*
X90800Y-38730D01*
X90800Y-38665D01*
X90731Y-38596D01*
X90318Y-38596D01*
X90318Y-38765D01*
X90318Y-38883D01*
X90318Y-39053D01*
X90731Y-39053D01*
X90800Y-38983D01*
X90800Y-39165D01*
X90731Y-39096D01*
X90318Y-39096D01*
X90318Y-39265D01*
X90318Y-39383D01*
X90318Y-39553D01*
X90731Y-39553D01*
X90800Y-39483D01*
X90800Y-39665D01*
X90731Y-39596D01*
X90318Y-39596D01*
X90318Y-39603D01*
X90275Y-39603D01*
X90275Y-39596D01*
X90275Y-39553D01*
X90275Y-39383D01*
X90275Y-39265D01*
X90275Y-39096D01*
X90275Y-39053D01*
X90275Y-38883D01*
X90275Y-38765D01*
X90275Y-38596D01*
X89863Y-38596D01*
X89793Y-38665D01*
X89793Y-38730D01*
X89832Y-38824D01*
X89793Y-38919D01*
X89793Y-38983D01*
X89863Y-39053D01*
X90275Y-39053D01*
X90275Y-39096D01*
X89863Y-39096D01*
X89793Y-39165D01*
X89793Y-39230D01*
X89832Y-39324D01*
X89793Y-39419D01*
X89793Y-39483D01*
X89863Y-39553D01*
X90275Y-39553D01*
X90275Y-39596D01*
X89863Y-39596D01*
X89793Y-39665D01*
X89793Y-39730D01*
X89816Y-39785D01*
X89805Y-39796D01*
X89757Y-39912D01*
X89757Y-40037D01*
X89757Y-40237D01*
X89767Y-40261D01*
X89685Y-40316D01*
X89607Y-40432D01*
X89185Y-40010D01*
X89067Y-39931D01*
X88927Y-39903D01*
X86794Y-39903D01*
X86761Y-39824D01*
X86800Y-39730D01*
X86800Y-39665D01*
X86800Y-39483D01*
X86800Y-39419D01*
X86761Y-39324D01*
X86800Y-39230D01*
X86800Y-39165D01*
X86800Y-38983D01*
X86800Y-38919D01*
X86761Y-38824D01*
X86800Y-38730D01*
X86800Y-38665D01*
X86731Y-38596D01*
X86318Y-38596D01*
X86318Y-38765D01*
X86318Y-38883D01*
X86318Y-39053D01*
X86731Y-39053D01*
X86800Y-38983D01*
X86800Y-39165D01*
X86731Y-39096D01*
X86318Y-39096D01*
X86318Y-39265D01*
X86318Y-39383D01*
X86318Y-39553D01*
X86731Y-39553D01*
X86800Y-39483D01*
X86800Y-39665D01*
X86731Y-39596D01*
X86318Y-39596D01*
X86318Y-39603D01*
X86275Y-39603D01*
X86275Y-39596D01*
X86275Y-39553D01*
X86275Y-39383D01*
X86275Y-39265D01*
X86275Y-39096D01*
X86275Y-39053D01*
X86275Y-38883D01*
X86275Y-38765D01*
X86275Y-38596D01*
X85863Y-38596D01*
X85793Y-38665D01*
X85793Y-38730D01*
X85832Y-38824D01*
X85793Y-38919D01*
X85793Y-38983D01*
X85863Y-39053D01*
X86275Y-39053D01*
X86275Y-39096D01*
X85863Y-39096D01*
X85793Y-39165D01*
X85793Y-39230D01*
X85832Y-39324D01*
X85793Y-39419D01*
X85793Y-39483D01*
X85863Y-39553D01*
X86275Y-39553D01*
X86275Y-39596D01*
X85863Y-39596D01*
X85793Y-39665D01*
X85793Y-39730D01*
X85832Y-39824D01*
X85793Y-39919D01*
X85793Y-39938D01*
X84427Y-39938D01*
X83964Y-39475D01*
X83964Y-39284D01*
X83874Y-39067D01*
X83709Y-38901D01*
X83708Y-38901D01*
X83874Y-38736D01*
X83964Y-38519D01*
X83964Y-38327D01*
X84081Y-38210D01*
X85793Y-38210D01*
X85793Y-38230D01*
X85832Y-38324D01*
X85793Y-38419D01*
X85793Y-38483D01*
X85863Y-38553D01*
X86275Y-38553D01*
X86275Y-38545D01*
X86318Y-38545D01*
X86318Y-38553D01*
X86731Y-38553D01*
X86800Y-38483D01*
X86800Y-38419D01*
X86761Y-38324D01*
X86800Y-38230D01*
X86800Y-38210D01*
X89793Y-38210D01*
X89793Y-38230D01*
X89832Y-38324D01*
X89793Y-38419D01*
X89793Y-38483D01*
X89863Y-38553D01*
X90275Y-38553D01*
X90275Y-38545D01*
X90318Y-38545D01*
X90318Y-38553D01*
X90731Y-38553D01*
X90800Y-38483D01*
X90800Y-38419D01*
X90761Y-38324D01*
X90800Y-38230D01*
X90800Y-38210D01*
X90975Y-38210D01*
X93467Y-40703D01*
X93467Y-40857D01*
X93467Y-40857D01*
G37*
G54D34*
X93467Y-40857D02*
X91794Y-40857D01*
X91725Y-40829D01*
X91600Y-40829D01*
X91486Y-40829D01*
X91486Y-40805D01*
X91486Y-40648D01*
X91449Y-40560D01*
X91449Y-40526D01*
X91380Y-40456D01*
X91362Y-40456D01*
X91349Y-40443D01*
X91277Y-40413D01*
X91380Y-40413D01*
X91449Y-40344D01*
X91449Y-40301D01*
X91407Y-40198D01*
X91329Y-40120D01*
X91226Y-40077D01*
X91144Y-40077D01*
X91074Y-40147D01*
X91074Y-40395D01*
X91031Y-40395D01*
X91031Y-40147D01*
X90962Y-40077D01*
X90879Y-40077D01*
X90837Y-40095D01*
X90837Y-39912D01*
X90789Y-39796D01*
X90778Y-39785D01*
X90800Y-39730D01*
X90800Y-39665D01*
X90800Y-39483D01*
X90800Y-39419D01*
X90761Y-39324D01*
X90800Y-39230D01*
X90800Y-39165D01*
X90800Y-38983D01*
X90800Y-38919D01*
X90761Y-38824D01*
X90800Y-38730D01*
X90800Y-38665D01*
X90731Y-38596D01*
X90318Y-38596D01*
X90318Y-38765D01*
X90318Y-38883D01*
X90318Y-39053D01*
X90731Y-39053D01*
X90800Y-38983D01*
X90800Y-39165D01*
X90731Y-39096D01*
X90318Y-39096D01*
X90318Y-39265D01*
X90318Y-39383D01*
X90318Y-39553D01*
X90731Y-39553D01*
X90800Y-39483D01*
X90800Y-39665D01*
X90731Y-39596D01*
X90318Y-39596D01*
X90318Y-39603D01*
X90275Y-39603D01*
X90275Y-39596D01*
X90275Y-39553D01*
X90275Y-39383D01*
X90275Y-39265D01*
X90275Y-39096D01*
X90275Y-39053D01*
X90275Y-38883D01*
X90275Y-38765D01*
X90275Y-38596D01*
X89863Y-38596D01*
X89793Y-38665D01*
X89793Y-38730D01*
X89832Y-38824D01*
X89793Y-38919D01*
X89793Y-38983D01*
X89863Y-39053D01*
X90275Y-39053D01*
X90275Y-39096D01*
X89863Y-39096D01*
X89793Y-39165D01*
X89793Y-39230D01*
X89832Y-39324D01*
X89793Y-39419D01*
X89793Y-39483D01*
X89863Y-39553D01*
X90275Y-39553D01*
X90275Y-39596D01*
X89863Y-39596D01*
X89793Y-39665D01*
X89793Y-39730D01*
X89816Y-39785D01*
X89805Y-39796D01*
X89757Y-39912D01*
X89757Y-40037D01*
X89757Y-40237D01*
X89767Y-40261D01*
X89685Y-40316D01*
X89607Y-40432D01*
X89185Y-40010D01*
X89067Y-39931D01*
X88927Y-39903D01*
X86794Y-39903D01*
X86761Y-39824D01*
X86800Y-39730D01*
X86800Y-39665D01*
X86800Y-39483D01*
X86800Y-39419D01*
X86761Y-39324D01*
X86800Y-39230D01*
X86800Y-39165D01*
X86800Y-38983D01*
X86800Y-38919D01*
X86761Y-38824D01*
X86800Y-38730D01*
X86800Y-38665D01*
X86731Y-38596D01*
X86318Y-38596D01*
X86318Y-38765D01*
X86318Y-38883D01*
X86318Y-39053D01*
X86731Y-39053D01*
X86800Y-38983D01*
X86800Y-39165D01*
X86731Y-39096D01*
X86318Y-39096D01*
X86318Y-39265D01*
X86318Y-39383D01*
X86318Y-39553D01*
X86731Y-39553D01*
X86800Y-39483D01*
X86800Y-39665D01*
X86731Y-39596D01*
X86318Y-39596D01*
X86318Y-39603D01*
X86275Y-39603D01*
X86275Y-39596D01*
X86275Y-39553D01*
X86275Y-39383D01*
X86275Y-39265D01*
X86275Y-39096D01*
X86275Y-39053D01*
X86275Y-38883D01*
X86275Y-38765D01*
X86275Y-38596D01*
X85863Y-38596D01*
X85793Y-38665D01*
X85793Y-38730D01*
X85832Y-38824D01*
X85793Y-38919D01*
X85793Y-38983D01*
X85863Y-39053D01*
X86275Y-39053D01*
X86275Y-39096D01*
X85863Y-39096D01*
X85793Y-39165D01*
X85793Y-39230D01*
X85832Y-39324D01*
X85793Y-39419D01*
X85793Y-39483D01*
X85863Y-39553D01*
X86275Y-39553D01*
X86275Y-39596D01*
X85863Y-39596D01*
X85793Y-39665D01*
X85793Y-39730D01*
X85832Y-39824D01*
X85793Y-39919D01*
X85793Y-39938D01*
X84427Y-39938D01*
X83964Y-39475D01*
X83964Y-39284D01*
X83874Y-39067D01*
X83709Y-38901D01*
X83708Y-38901D01*
X83874Y-38736D01*
X83964Y-38519D01*
X83964Y-38327D01*
X84081Y-38210D01*
X85793Y-38210D01*
X85793Y-38230D01*
X85832Y-38324D01*
X85793Y-38419D01*
X85793Y-38483D01*
X85863Y-38553D01*
X86275Y-38553D01*
X86275Y-38545D01*
X86318Y-38545D01*
X86318Y-38553D01*
X86731Y-38553D01*
X86800Y-38483D01*
X86800Y-38419D01*
X86761Y-38324D01*
X86800Y-38230D01*
X86800Y-38210D01*
X89793Y-38210D01*
X89793Y-38230D01*
X89832Y-38324D01*
X89793Y-38419D01*
X89793Y-38483D01*
X89863Y-38553D01*
X90275Y-38553D01*
X90275Y-38545D01*
X90318Y-38545D01*
X90318Y-38553D01*
X90731Y-38553D01*
X90800Y-38483D01*
X90800Y-38419D01*
X90761Y-38324D01*
X90800Y-38230D01*
X90800Y-38210D01*
X90975Y-38210D01*
X93467Y-40703D01*
X93467Y-40857D01*
G54D10*
G36*
X94832Y-48679D02*
X94792Y-48883D01*
X94726Y-48981D01*
X94726Y-40908D01*
X94726Y-39176D01*
X94705Y-39069D01*
X94726Y-38962D01*
X94726Y-35042D01*
X94698Y-34902D01*
X94698Y-34902D01*
X94619Y-34784D01*
X94559Y-34723D01*
X94559Y-33679D01*
X94559Y-33553D01*
X94559Y-32214D01*
X94511Y-32098D01*
X94422Y-32010D01*
X94306Y-31962D01*
X94181Y-31962D01*
X92842Y-31962D01*
X92726Y-32010D01*
X92638Y-32098D01*
X92590Y-32214D01*
X92590Y-32340D01*
X92590Y-33679D01*
X92638Y-33794D01*
X92726Y-33883D01*
X92842Y-33931D01*
X92967Y-33931D01*
X94306Y-33931D01*
X94422Y-33883D01*
X94511Y-33794D01*
X94559Y-33679D01*
X94559Y-34723D01*
X94512Y-34677D01*
X94394Y-34598D01*
X94259Y-34571D01*
X94188Y-34541D01*
X94063Y-34541D01*
X93827Y-34541D01*
X93758Y-34570D01*
X92190Y-34570D01*
X92121Y-34541D01*
X91996Y-34541D01*
X91760Y-34541D01*
X91691Y-34570D01*
X85039Y-34570D01*
X84899Y-34598D01*
X84781Y-34677D01*
X83965Y-35492D01*
X83964Y-35492D01*
X83964Y-35284D01*
X83874Y-35067D01*
X83709Y-34901D01*
X83708Y-34901D01*
X83874Y-34736D01*
X83964Y-34519D01*
X83964Y-34284D01*
X83874Y-34067D01*
X83709Y-33901D01*
X83708Y-33901D01*
X83874Y-33736D01*
X83964Y-33519D01*
X83964Y-33284D01*
X83874Y-33067D01*
X83709Y-32901D01*
X83492Y-32811D01*
X83257Y-32811D01*
X83040Y-32901D01*
X82874Y-33066D01*
X82784Y-33283D01*
X82784Y-33295D01*
X82222Y-32733D01*
X82104Y-32654D01*
X81964Y-32626D01*
X75815Y-32626D01*
X75815Y-32084D01*
X75767Y-31968D01*
X75679Y-31879D01*
X75563Y-31831D01*
X75438Y-31831D01*
X74838Y-31831D01*
X74722Y-31879D01*
X74633Y-31968D01*
X74621Y-31997D01*
X74549Y-31925D01*
X74323Y-31831D01*
X74079Y-31831D01*
X73852Y-31925D01*
X73700Y-32077D01*
X73549Y-31925D01*
X73323Y-31831D01*
X73079Y-31831D01*
X72852Y-31925D01*
X72700Y-32077D01*
X72549Y-31925D01*
X72323Y-31831D01*
X72079Y-31831D01*
X71852Y-31925D01*
X71679Y-32098D01*
X71673Y-32113D01*
X71583Y-32094D01*
X71553Y-32124D01*
X71553Y-32064D01*
X71530Y-31957D01*
X71317Y-31868D01*
X71087Y-31867D01*
X70874Y-31955D01*
X70871Y-31957D01*
X70848Y-32064D01*
X71200Y-32416D01*
X71553Y-32064D01*
X71553Y-32124D01*
X71230Y-32446D01*
X71583Y-32799D01*
X71673Y-32780D01*
X71679Y-32794D01*
X71831Y-32946D01*
X71679Y-33098D01*
X71673Y-33113D01*
X71583Y-33094D01*
X71553Y-33124D01*
X71553Y-33064D01*
X71530Y-32957D01*
X71506Y-32947D01*
X71527Y-32938D01*
X71530Y-32936D01*
X71553Y-32829D01*
X71200Y-32476D01*
X71170Y-32506D01*
X71170Y-32446D01*
X70818Y-32094D01*
X70711Y-32117D01*
X70622Y-32329D01*
X70621Y-32560D01*
X70709Y-32773D01*
X70711Y-32776D01*
X70818Y-32799D01*
X71170Y-32446D01*
X71170Y-32506D01*
X70848Y-32829D01*
X70871Y-32936D01*
X70895Y-32946D01*
X70874Y-32955D01*
X70871Y-32957D01*
X70848Y-33064D01*
X71200Y-33416D01*
X71553Y-33064D01*
X71553Y-33124D01*
X71230Y-33446D01*
X71583Y-33799D01*
X71673Y-33780D01*
X71679Y-33794D01*
X71851Y-33967D01*
X72077Y-34061D01*
X72322Y-34061D01*
X72548Y-33968D01*
X72700Y-33816D01*
X72851Y-33967D01*
X73077Y-34061D01*
X73322Y-34061D01*
X73548Y-33968D01*
X73700Y-33816D01*
X73835Y-33951D01*
X73835Y-34235D01*
X73863Y-34375D01*
X73942Y-34493D01*
X74519Y-35070D01*
X74380Y-35042D01*
X71553Y-35042D01*
X71553Y-33829D01*
X71200Y-33476D01*
X71170Y-33506D01*
X71170Y-33446D01*
X70818Y-33094D01*
X70711Y-33117D01*
X70622Y-33329D01*
X70621Y-33560D01*
X70709Y-33773D01*
X70711Y-33776D01*
X70818Y-33799D01*
X71170Y-33446D01*
X71170Y-33506D01*
X70848Y-33829D01*
X70871Y-33936D01*
X71083Y-34025D01*
X71314Y-34025D01*
X71527Y-33938D01*
X71530Y-33936D01*
X71553Y-33829D01*
X71553Y-35042D01*
X71057Y-35042D01*
X70966Y-34906D01*
X70736Y-34753D01*
X70465Y-34699D01*
X70149Y-34699D01*
X70149Y-33679D01*
X70149Y-33553D01*
X70149Y-32214D01*
X70101Y-32098D01*
X70013Y-32010D01*
X69897Y-31962D01*
X69772Y-31962D01*
X68433Y-31962D01*
X68317Y-32010D01*
X68228Y-32098D01*
X68180Y-32214D01*
X68180Y-32340D01*
X68180Y-33679D01*
X68228Y-33794D01*
X68317Y-33883D01*
X68433Y-33931D01*
X68558Y-33931D01*
X69897Y-33931D01*
X70013Y-33883D01*
X70101Y-33794D01*
X70149Y-33679D01*
X70149Y-34699D01*
X70030Y-34699D01*
X69759Y-34753D01*
X69529Y-34906D01*
X69375Y-35136D01*
X69321Y-35407D01*
X69375Y-35678D01*
X69529Y-35908D01*
X69759Y-36062D01*
X70030Y-36116D01*
X70465Y-36116D01*
X70736Y-36062D01*
X70966Y-35908D01*
X71057Y-35772D01*
X74228Y-35772D01*
X76784Y-38327D01*
X76783Y-38518D01*
X76873Y-38735D01*
X77039Y-38901D01*
X77039Y-38901D01*
X76904Y-39036D01*
X71153Y-39036D01*
X71110Y-39007D01*
X71108Y-39007D01*
X71108Y-37501D01*
X71108Y-37249D01*
X71077Y-37138D01*
X70938Y-36915D01*
X70724Y-36762D01*
X70469Y-36703D01*
X70269Y-36703D01*
X70269Y-37354D01*
X71050Y-37354D01*
X71108Y-37249D01*
X71108Y-37501D01*
X71050Y-37396D01*
X70269Y-37396D01*
X70269Y-38047D01*
X70469Y-38047D01*
X70724Y-37988D01*
X70938Y-37836D01*
X71077Y-37613D01*
X71108Y-37501D01*
X71108Y-39007D01*
X71071Y-38999D01*
X70966Y-38843D01*
X70736Y-38690D01*
X70465Y-38636D01*
X70226Y-38636D01*
X70226Y-38047D01*
X70226Y-37396D01*
X70226Y-37354D01*
X70226Y-36703D01*
X70026Y-36703D01*
X69771Y-36762D01*
X69557Y-36915D01*
X69418Y-37138D01*
X69387Y-37249D01*
X69445Y-37354D01*
X70226Y-37354D01*
X70226Y-37396D01*
X69445Y-37396D01*
X69387Y-37501D01*
X69418Y-37613D01*
X69557Y-37836D01*
X69771Y-37988D01*
X70026Y-38047D01*
X70226Y-38047D01*
X70226Y-38636D01*
X70030Y-38636D01*
X69759Y-38690D01*
X69529Y-38843D01*
X69375Y-39073D01*
X69321Y-39344D01*
X69375Y-39615D01*
X69529Y-39845D01*
X69759Y-39999D01*
X70030Y-40053D01*
X70465Y-40053D01*
X70736Y-39999D01*
X70966Y-39845D01*
X71020Y-39765D01*
X71027Y-39766D01*
X76904Y-39766D01*
X77039Y-39901D01*
X77039Y-39901D01*
X76874Y-40066D01*
X76784Y-40283D01*
X76783Y-40475D01*
X74330Y-42928D01*
X71108Y-42928D01*
X71108Y-41438D01*
X71108Y-41186D01*
X71077Y-41075D01*
X70938Y-40852D01*
X70724Y-40699D01*
X70469Y-40640D01*
X70269Y-40640D01*
X70269Y-41291D01*
X71050Y-41291D01*
X71108Y-41186D01*
X71108Y-41438D01*
X71050Y-41334D01*
X70269Y-41334D01*
X70269Y-41984D01*
X70469Y-41984D01*
X70724Y-41925D01*
X70938Y-41773D01*
X71077Y-41550D01*
X71108Y-41438D01*
X71108Y-42928D01*
X71057Y-42928D01*
X70966Y-42792D01*
X70736Y-42639D01*
X70465Y-42585D01*
X70226Y-42585D01*
X70226Y-41984D01*
X70226Y-41334D01*
X70226Y-41291D01*
X70226Y-40640D01*
X70026Y-40640D01*
X69771Y-40699D01*
X69557Y-40852D01*
X69418Y-41075D01*
X69387Y-41186D01*
X69445Y-41291D01*
X70226Y-41291D01*
X70226Y-41334D01*
X69445Y-41334D01*
X69387Y-41438D01*
X69418Y-41550D01*
X69557Y-41773D01*
X69771Y-41925D01*
X70026Y-41984D01*
X70226Y-41984D01*
X70226Y-42585D01*
X70030Y-42585D01*
X69759Y-42639D01*
X69529Y-42792D01*
X69375Y-43022D01*
X69321Y-43293D01*
X69375Y-43564D01*
X69529Y-43794D01*
X69759Y-43948D01*
X70030Y-44002D01*
X70465Y-44002D01*
X70736Y-43948D01*
X70966Y-43794D01*
X71057Y-43658D01*
X74482Y-43658D01*
X74621Y-43630D01*
X74621Y-43630D01*
X74740Y-43551D01*
X76636Y-41655D01*
X76622Y-41676D01*
X76594Y-41815D01*
X76594Y-44566D01*
X76622Y-44706D01*
X76701Y-44824D01*
X76908Y-45032D01*
X76874Y-45066D01*
X76784Y-45283D01*
X76783Y-45518D01*
X76873Y-45735D01*
X77039Y-45901D01*
X77086Y-45921D01*
X77061Y-45931D01*
X77059Y-45932D01*
X77039Y-46036D01*
X77374Y-46371D01*
X77708Y-46036D01*
X77688Y-45932D01*
X77661Y-45921D01*
X77707Y-45902D01*
X77873Y-45736D01*
X77963Y-45519D01*
X77964Y-45331D01*
X79664Y-45331D01*
X79648Y-45372D01*
X79648Y-45463D01*
X79635Y-45482D01*
X79607Y-45622D01*
X79607Y-46025D01*
X79547Y-46085D01*
X79499Y-46201D01*
X79499Y-46326D01*
X79499Y-46759D01*
X79547Y-46875D01*
X79636Y-46963D01*
X79752Y-47011D01*
X79877Y-47011D01*
X80192Y-47011D01*
X80284Y-46973D01*
X80303Y-46986D01*
X80484Y-47022D01*
X80665Y-46986D01*
X80780Y-46909D01*
X80848Y-46950D01*
X80907Y-46966D01*
X80974Y-46905D01*
X80974Y-46501D01*
X80967Y-46501D01*
X80967Y-46459D01*
X80974Y-46459D01*
X80974Y-46055D01*
X80907Y-45994D01*
X80849Y-46010D01*
X80849Y-45641D01*
X80821Y-45502D01*
X80821Y-45502D01*
X80788Y-45453D01*
X80788Y-45453D01*
X80788Y-45372D01*
X80772Y-45331D01*
X82784Y-45331D01*
X82784Y-45518D01*
X82874Y-45735D01*
X83039Y-45901D01*
X83040Y-45901D01*
X82874Y-46066D01*
X82784Y-46283D01*
X82784Y-46518D01*
X82874Y-46735D01*
X82975Y-46837D01*
X82921Y-46859D01*
X82832Y-46948D01*
X82784Y-47063D01*
X82784Y-47189D01*
X82784Y-47739D01*
X82832Y-47854D01*
X82921Y-47943D01*
X83036Y-47991D01*
X83162Y-47991D01*
X83712Y-47991D01*
X83827Y-47943D01*
X83916Y-47854D01*
X83964Y-47739D01*
X83964Y-47613D01*
X83964Y-47063D01*
X83916Y-46948D01*
X83827Y-46859D01*
X83773Y-46836D01*
X83874Y-46736D01*
X83964Y-46519D01*
X83964Y-46284D01*
X83874Y-46067D01*
X83709Y-45901D01*
X83708Y-45901D01*
X83874Y-45736D01*
X83964Y-45519D01*
X83964Y-45331D01*
X87224Y-45331D01*
X87860Y-45967D01*
X87806Y-45967D01*
X87589Y-46056D01*
X87453Y-46192D01*
X85400Y-46192D01*
X85265Y-46057D01*
X85048Y-45967D01*
X84814Y-45967D01*
X84597Y-46056D01*
X84431Y-46222D01*
X84341Y-46439D01*
X84341Y-46673D01*
X84430Y-46890D01*
X84596Y-47056D01*
X84813Y-47146D01*
X85047Y-47147D01*
X85264Y-47057D01*
X85400Y-46922D01*
X87453Y-46922D01*
X87588Y-47056D01*
X87805Y-47146D01*
X88040Y-47147D01*
X88256Y-47057D01*
X88423Y-46891D01*
X88444Y-46839D01*
X88466Y-46890D01*
X88631Y-47056D01*
X88848Y-47146D01*
X89083Y-47147D01*
X89300Y-47057D01*
X89435Y-46922D01*
X91489Y-46922D01*
X91624Y-47056D01*
X91840Y-47146D01*
X92075Y-47147D01*
X92292Y-47057D01*
X92458Y-46891D01*
X92548Y-46674D01*
X92548Y-46440D01*
X92459Y-46223D01*
X92293Y-46057D01*
X92076Y-45967D01*
X91841Y-45967D01*
X91624Y-46056D01*
X91489Y-46192D01*
X89435Y-46192D01*
X89301Y-46057D01*
X89084Y-45967D01*
X88892Y-45967D01*
X87634Y-44708D01*
X87515Y-44629D01*
X87376Y-44601D01*
X83890Y-44601D01*
X83928Y-44512D01*
X83928Y-44292D01*
X83844Y-44088D01*
X83843Y-44087D01*
X83739Y-44066D01*
X83404Y-44401D01*
X83410Y-44407D01*
X83380Y-44437D01*
X83374Y-44431D01*
X83368Y-44437D01*
X83338Y-44407D01*
X83344Y-44401D01*
X83009Y-44066D01*
X82905Y-44087D01*
X82820Y-44290D01*
X82820Y-44510D01*
X82858Y-44601D01*
X81432Y-44601D01*
X81432Y-44588D01*
X81432Y-44588D01*
X81432Y-44529D01*
X81391Y-44364D01*
X81329Y-44281D01*
X82844Y-42766D01*
X82905Y-42766D01*
X83039Y-42901D01*
X83040Y-42901D01*
X82874Y-43066D01*
X82784Y-43283D01*
X82784Y-43518D01*
X82874Y-43735D01*
X83039Y-43901D01*
X83087Y-43921D01*
X83061Y-43931D01*
X83060Y-43932D01*
X83039Y-44036D01*
X83374Y-44371D01*
X83709Y-44036D01*
X83688Y-43932D01*
X83661Y-43921D01*
X83708Y-43902D01*
X83874Y-43736D01*
X83964Y-43519D01*
X83964Y-43284D01*
X83874Y-43067D01*
X83709Y-42901D01*
X83708Y-42901D01*
X83874Y-42736D01*
X83964Y-42519D01*
X83964Y-42284D01*
X83874Y-42067D01*
X83709Y-41901D01*
X83708Y-41901D01*
X83874Y-41736D01*
X83964Y-41519D01*
X83964Y-41439D01*
X85757Y-41439D01*
X85757Y-41537D01*
X85757Y-41737D01*
X85805Y-41853D01*
X85893Y-41941D01*
X86009Y-41989D01*
X86134Y-41989D01*
X86584Y-41989D01*
X86700Y-41941D01*
X86715Y-41926D01*
X86790Y-41911D01*
X86909Y-41832D01*
X86988Y-41714D01*
X87016Y-41574D01*
X87016Y-40939D01*
X88461Y-40939D01*
X88511Y-40989D01*
X88691Y-41064D01*
X88886Y-41064D01*
X89066Y-40990D01*
X89099Y-40957D01*
X89182Y-41039D01*
X89182Y-41345D01*
X89210Y-41484D01*
X89289Y-41603D01*
X92805Y-45119D01*
X92923Y-45198D01*
X92923Y-45198D01*
X93063Y-45225D01*
X93577Y-45225D01*
X93604Y-45253D01*
X93720Y-45300D01*
X93845Y-45300D01*
X94295Y-45300D01*
X94411Y-45253D01*
X94499Y-45164D01*
X94547Y-45048D01*
X94547Y-44923D01*
X94547Y-44673D01*
X94501Y-44561D01*
X94547Y-44448D01*
X94547Y-44323D01*
X94547Y-44073D01*
X94499Y-43957D01*
X94411Y-43869D01*
X94372Y-43853D01*
X94372Y-43833D01*
X94392Y-43813D01*
X94440Y-43698D01*
X94440Y-43572D01*
X94440Y-43415D01*
X94425Y-43379D01*
X94440Y-43344D01*
X94440Y-43218D01*
X94440Y-43061D01*
X94392Y-42946D01*
X94372Y-42925D01*
X94372Y-41413D01*
X94619Y-41166D01*
X94698Y-41047D01*
X94698Y-41047D01*
X94726Y-40908D01*
X94726Y-48981D01*
X94695Y-49028D01*
X94559Y-49119D01*
X94559Y-48639D01*
X94559Y-48514D01*
X94559Y-47175D01*
X94511Y-47059D01*
X94422Y-46970D01*
X94306Y-46923D01*
X94181Y-46923D01*
X92842Y-46923D01*
X92726Y-46970D01*
X92638Y-47059D01*
X92590Y-47175D01*
X92590Y-47300D01*
X92590Y-48639D01*
X92638Y-48755D01*
X92726Y-48843D01*
X92842Y-48891D01*
X92967Y-48891D01*
X94306Y-48891D01*
X94422Y-48843D01*
X94511Y-48755D01*
X94559Y-48639D01*
X94559Y-49119D01*
X94550Y-49124D01*
X94346Y-49165D01*
X92512Y-49165D01*
X92512Y-48337D01*
X92428Y-48133D01*
X92427Y-48132D01*
X92323Y-48112D01*
X92293Y-48142D01*
X92293Y-48082D01*
X92273Y-47977D01*
X92069Y-47893D01*
X91849Y-47892D01*
X91645Y-47976D01*
X91644Y-47977D01*
X91624Y-48082D01*
X91958Y-48416D01*
X92293Y-48082D01*
X92293Y-48142D01*
X91988Y-48446D01*
X92323Y-48781D01*
X92427Y-48761D01*
X92512Y-48557D01*
X92512Y-48337D01*
X92512Y-49165D01*
X92293Y-49165D01*
X92293Y-48811D01*
X91958Y-48476D01*
X91928Y-48506D01*
X91928Y-48446D01*
X91594Y-48112D01*
X91489Y-48132D01*
X91405Y-48335D01*
X91404Y-48556D01*
X91488Y-48759D01*
X91489Y-48761D01*
X91594Y-48781D01*
X91928Y-48446D01*
X91928Y-48506D01*
X91624Y-48811D01*
X91644Y-48915D01*
X91847Y-49000D01*
X92067Y-49000D01*
X92271Y-48916D01*
X92273Y-48915D01*
X92293Y-48811D01*
X92293Y-49165D01*
X89520Y-49165D01*
X89520Y-48337D01*
X89436Y-48133D01*
X89435Y-48132D01*
X89331Y-48112D01*
X89301Y-48142D01*
X89301Y-48082D01*
X89280Y-47977D01*
X89077Y-47893D01*
X88857Y-47892D01*
X88653Y-47976D01*
X88652Y-47977D01*
X88631Y-48082D01*
X88966Y-48416D01*
X89301Y-48082D01*
X89301Y-48142D01*
X88996Y-48446D01*
X89331Y-48781D01*
X89435Y-48761D01*
X89520Y-48557D01*
X89520Y-48337D01*
X89520Y-49165D01*
X89301Y-49165D01*
X89301Y-48811D01*
X88966Y-48476D01*
X88936Y-48506D01*
X88936Y-48446D01*
X88601Y-48112D01*
X88497Y-48132D01*
X88444Y-48259D01*
X88393Y-48133D01*
X88392Y-48132D01*
X88287Y-48112D01*
X88257Y-48142D01*
X88257Y-48082D01*
X88237Y-47977D01*
X88034Y-47893D01*
X87813Y-47892D01*
X87610Y-47976D01*
X87608Y-47977D01*
X87588Y-48082D01*
X87923Y-48416D01*
X88257Y-48082D01*
X88257Y-48142D01*
X87953Y-48446D01*
X88287Y-48781D01*
X88392Y-48761D01*
X88444Y-48634D01*
X88496Y-48759D01*
X88497Y-48761D01*
X88601Y-48781D01*
X88936Y-48446D01*
X88936Y-48506D01*
X88631Y-48811D01*
X88652Y-48915D01*
X88855Y-49000D01*
X89075Y-49000D01*
X89279Y-48916D01*
X89280Y-48915D01*
X89301Y-48811D01*
X89301Y-49165D01*
X88257Y-49165D01*
X88257Y-48811D01*
X87923Y-48476D01*
X87893Y-48506D01*
X87893Y-48446D01*
X87558Y-48112D01*
X87454Y-48132D01*
X87369Y-48335D01*
X87369Y-48556D01*
X87453Y-48759D01*
X87454Y-48761D01*
X87558Y-48781D01*
X87893Y-48446D01*
X87893Y-48506D01*
X87588Y-48811D01*
X87608Y-48915D01*
X87812Y-49000D01*
X88032Y-49000D01*
X88236Y-48916D01*
X88237Y-48915D01*
X88257Y-48811D01*
X88257Y-49165D01*
X85485Y-49165D01*
X85485Y-48337D01*
X85401Y-48133D01*
X85400Y-48132D01*
X85295Y-48112D01*
X85265Y-48142D01*
X85265Y-48082D01*
X85245Y-47977D01*
X85042Y-47893D01*
X84821Y-47892D01*
X84618Y-47976D01*
X84616Y-47977D01*
X84596Y-48082D01*
X84931Y-48416D01*
X85265Y-48082D01*
X85265Y-48142D01*
X84961Y-48446D01*
X85295Y-48781D01*
X85400Y-48761D01*
X85484Y-48557D01*
X85485Y-48337D01*
X85485Y-49165D01*
X85265Y-49165D01*
X85265Y-48811D01*
X84931Y-48476D01*
X84901Y-48506D01*
X84901Y-48446D01*
X84566Y-48112D01*
X84462Y-48132D01*
X84377Y-48335D01*
X84377Y-48556D01*
X84461Y-48759D01*
X84462Y-48761D01*
X84566Y-48781D01*
X84901Y-48446D01*
X84901Y-48506D01*
X84596Y-48811D01*
X84616Y-48915D01*
X84820Y-49000D01*
X85040Y-49000D01*
X85244Y-48916D01*
X85245Y-48915D01*
X85265Y-48811D01*
X85265Y-49165D01*
X81432Y-49165D01*
X81432Y-46560D01*
X81432Y-46501D01*
X81432Y-46459D01*
X81432Y-46400D01*
X81391Y-46234D01*
X81289Y-46097D01*
X81143Y-46010D01*
X81085Y-45994D01*
X81017Y-46055D01*
X81017Y-46459D01*
X81432Y-46459D01*
X81432Y-46501D01*
X81017Y-46501D01*
X81017Y-46905D01*
X81085Y-46966D01*
X81143Y-46950D01*
X81289Y-46862D01*
X81391Y-46725D01*
X81432Y-46560D01*
X81432Y-49165D01*
X77964Y-49165D01*
X77964Y-47284D01*
X77927Y-47197D01*
X77927Y-46292D01*
X77843Y-46088D01*
X77842Y-46087D01*
X77738Y-46066D01*
X77404Y-46401D01*
X77738Y-46736D01*
X77842Y-46715D01*
X77927Y-46512D01*
X77927Y-46292D01*
X77927Y-47197D01*
X77874Y-47067D01*
X77708Y-46901D01*
X77661Y-46882D01*
X77686Y-46871D01*
X77688Y-46870D01*
X77708Y-46766D01*
X77374Y-46431D01*
X77343Y-46461D01*
X77343Y-46401D01*
X77009Y-46066D01*
X76905Y-46087D01*
X76820Y-46290D01*
X76820Y-46510D01*
X76904Y-46714D01*
X76905Y-46715D01*
X77009Y-46736D01*
X77343Y-46401D01*
X77343Y-46461D01*
X77039Y-46766D01*
X77059Y-46870D01*
X77086Y-46881D01*
X77040Y-46901D01*
X76904Y-47036D01*
X76464Y-47036D01*
X76402Y-46885D01*
X76297Y-46780D01*
X76370Y-46764D01*
X76457Y-46555D01*
X76458Y-46328D01*
X76372Y-46118D01*
X76370Y-46116D01*
X76264Y-46094D01*
X76234Y-46124D01*
X76234Y-46064D01*
X76212Y-45958D01*
X76002Y-45870D01*
X75775Y-45870D01*
X75566Y-45956D01*
X75563Y-45958D01*
X75541Y-46064D01*
X75887Y-46410D01*
X76234Y-46064D01*
X76234Y-46124D01*
X75917Y-46440D01*
X75923Y-46446D01*
X75893Y-46476D01*
X75887Y-46470D01*
X75882Y-46476D01*
X75852Y-46446D01*
X75857Y-46440D01*
X75511Y-46094D01*
X75405Y-46116D01*
X75317Y-46325D01*
X75317Y-46552D01*
X75403Y-46762D01*
X75405Y-46764D01*
X75478Y-46780D01*
X75394Y-46863D01*
X74893Y-46863D01*
X74868Y-46739D01*
X74715Y-46509D01*
X74485Y-46356D01*
X74214Y-46302D01*
X73943Y-46356D01*
X73713Y-46509D01*
X73559Y-46739D01*
X73505Y-47010D01*
X73505Y-47446D01*
X73559Y-47717D01*
X73713Y-47947D01*
X73943Y-48100D01*
X74214Y-48154D01*
X74485Y-48100D01*
X74715Y-47947D01*
X74868Y-47717D01*
X74893Y-47593D01*
X75395Y-47593D01*
X75543Y-47742D01*
X75766Y-47835D01*
X76007Y-47835D01*
X76174Y-47766D01*
X76904Y-47766D01*
X77039Y-47901D01*
X77256Y-47991D01*
X77490Y-47991D01*
X77707Y-47902D01*
X77873Y-47736D01*
X77963Y-47519D01*
X77964Y-47284D01*
X77964Y-49165D01*
X72918Y-49165D01*
X72918Y-47449D01*
X72918Y-47249D01*
X72918Y-47207D01*
X72918Y-47007D01*
X72859Y-46751D01*
X72706Y-46537D01*
X72483Y-46399D01*
X72372Y-46368D01*
X72267Y-46426D01*
X72267Y-47207D01*
X72918Y-47207D01*
X72918Y-47249D01*
X72267Y-47249D01*
X72267Y-48030D01*
X72372Y-48088D01*
X72483Y-48057D01*
X72706Y-47918D01*
X72859Y-47705D01*
X72918Y-47449D01*
X72918Y-49165D01*
X72225Y-49165D01*
X72225Y-48030D01*
X72225Y-47249D01*
X72225Y-47207D01*
X72225Y-46426D01*
X72120Y-46368D01*
X72008Y-46399D01*
X71786Y-46537D01*
X71633Y-46751D01*
X71574Y-47007D01*
X71574Y-47207D01*
X72225Y-47207D01*
X72225Y-47249D01*
X71574Y-47249D01*
X71574Y-47449D01*
X71633Y-47705D01*
X71786Y-47918D01*
X72008Y-48057D01*
X72120Y-48088D01*
X72225Y-48030D01*
X72225Y-49165D01*
X71108Y-49165D01*
X71108Y-45387D01*
X71108Y-45135D01*
X71077Y-45023D01*
X70938Y-44801D01*
X70724Y-44648D01*
X70469Y-44589D01*
X70269Y-44589D01*
X70269Y-45240D01*
X71050Y-45240D01*
X71108Y-45135D01*
X71108Y-45387D01*
X71050Y-45282D01*
X70269Y-45282D01*
X70269Y-45933D01*
X70469Y-45933D01*
X70724Y-45874D01*
X70938Y-45721D01*
X71077Y-45499D01*
X71108Y-45387D01*
X71108Y-49165D01*
X70226Y-49165D01*
X70226Y-45933D01*
X70226Y-45282D01*
X70226Y-45240D01*
X70226Y-44589D01*
X70026Y-44589D01*
X69771Y-44648D01*
X69557Y-44801D01*
X69418Y-45023D01*
X69387Y-45135D01*
X69445Y-45240D01*
X70226Y-45240D01*
X70226Y-45282D01*
X69445Y-45282D01*
X69387Y-45387D01*
X69418Y-45499D01*
X69557Y-45721D01*
X69771Y-45874D01*
X70026Y-45933D01*
X70226Y-45933D01*
X70226Y-49165D01*
X70149Y-49165D01*
X70149Y-48639D01*
X70149Y-48514D01*
X70149Y-47175D01*
X70101Y-47059D01*
X70013Y-46970D01*
X69897Y-46923D01*
X69772Y-46923D01*
X68433Y-46923D01*
X68317Y-46970D01*
X68228Y-47059D01*
X68180Y-47175D01*
X68180Y-47300D01*
X68180Y-48639D01*
X68228Y-48755D01*
X68317Y-48843D01*
X68433Y-48891D01*
X68558Y-48891D01*
X69897Y-48891D01*
X70013Y-48843D01*
X70101Y-48755D01*
X70149Y-48639D01*
X70149Y-49165D01*
X68428Y-49165D01*
X68224Y-49124D01*
X68080Y-49028D01*
X67983Y-48883D01*
X67942Y-48679D01*
X67942Y-32210D01*
X67983Y-32006D01*
X68080Y-31861D01*
X68224Y-31764D01*
X68428Y-31724D01*
X94346Y-31724D01*
X94550Y-31764D01*
X94695Y-31861D01*
X94792Y-32006D01*
X94832Y-32210D01*
X94832Y-48679D01*
X94832Y-48679D01*
G37*
G54D34*
X94832Y-48679D02*
X94792Y-48883D01*
X94726Y-48981D01*
X94726Y-40908D01*
X94726Y-39176D01*
X94705Y-39069D01*
X94726Y-38962D01*
X94726Y-35042D01*
X94698Y-34902D01*
X94698Y-34902D01*
X94619Y-34784D01*
X94559Y-34723D01*
X94559Y-33679D01*
X94559Y-33553D01*
X94559Y-32214D01*
X94511Y-32098D01*
X94422Y-32010D01*
X94306Y-31962D01*
X94181Y-31962D01*
X92842Y-31962D01*
X92726Y-32010D01*
X92638Y-32098D01*
X92590Y-32214D01*
X92590Y-32340D01*
X92590Y-33679D01*
X92638Y-33794D01*
X92726Y-33883D01*
X92842Y-33931D01*
X92967Y-33931D01*
X94306Y-33931D01*
X94422Y-33883D01*
X94511Y-33794D01*
X94559Y-33679D01*
X94559Y-34723D01*
X94512Y-34677D01*
X94394Y-34598D01*
X94259Y-34571D01*
X94188Y-34541D01*
X94063Y-34541D01*
X93827Y-34541D01*
X93758Y-34570D01*
X92190Y-34570D01*
X92121Y-34541D01*
X91996Y-34541D01*
X91760Y-34541D01*
X91691Y-34570D01*
X85039Y-34570D01*
X84899Y-34598D01*
X84781Y-34677D01*
X83965Y-35492D01*
X83964Y-35492D01*
X83964Y-35284D01*
X83874Y-35067D01*
X83709Y-34901D01*
X83708Y-34901D01*
X83874Y-34736D01*
X83964Y-34519D01*
X83964Y-34284D01*
X83874Y-34067D01*
X83709Y-33901D01*
X83708Y-33901D01*
X83874Y-33736D01*
X83964Y-33519D01*
X83964Y-33284D01*
X83874Y-33067D01*
X83709Y-32901D01*
X83492Y-32811D01*
X83257Y-32811D01*
X83040Y-32901D01*
X82874Y-33066D01*
X82784Y-33283D01*
X82784Y-33295D01*
X82222Y-32733D01*
X82104Y-32654D01*
X81964Y-32626D01*
X75815Y-32626D01*
X75815Y-32084D01*
X75767Y-31968D01*
X75679Y-31879D01*
X75563Y-31831D01*
X75438Y-31831D01*
X74838Y-31831D01*
X74722Y-31879D01*
X74633Y-31968D01*
X74621Y-31997D01*
X74549Y-31925D01*
X74323Y-31831D01*
X74079Y-31831D01*
X73852Y-31925D01*
X73700Y-32077D01*
X73549Y-31925D01*
X73323Y-31831D01*
X73079Y-31831D01*
X72852Y-31925D01*
X72700Y-32077D01*
X72549Y-31925D01*
X72323Y-31831D01*
X72079Y-31831D01*
X71852Y-31925D01*
X71679Y-32098D01*
X71673Y-32113D01*
X71583Y-32094D01*
X71553Y-32124D01*
X71553Y-32064D01*
X71530Y-31957D01*
X71317Y-31868D01*
X71087Y-31867D01*
X70874Y-31955D01*
X70871Y-31957D01*
X70848Y-32064D01*
X71200Y-32416D01*
X71553Y-32064D01*
X71553Y-32124D01*
X71230Y-32446D01*
X71583Y-32799D01*
X71673Y-32780D01*
X71679Y-32794D01*
X71831Y-32946D01*
X71679Y-33098D01*
X71673Y-33113D01*
X71583Y-33094D01*
X71553Y-33124D01*
X71553Y-33064D01*
X71530Y-32957D01*
X71506Y-32947D01*
X71527Y-32938D01*
X71530Y-32936D01*
X71553Y-32829D01*
X71200Y-32476D01*
X71170Y-32506D01*
X71170Y-32446D01*
X70818Y-32094D01*
X70711Y-32117D01*
X70622Y-32329D01*
X70621Y-32560D01*
X70709Y-32773D01*
X70711Y-32776D01*
X70818Y-32799D01*
X71170Y-32446D01*
X71170Y-32506D01*
X70848Y-32829D01*
X70871Y-32936D01*
X70895Y-32946D01*
X70874Y-32955D01*
X70871Y-32957D01*
X70848Y-33064D01*
X71200Y-33416D01*
X71553Y-33064D01*
X71553Y-33124D01*
X71230Y-33446D01*
X71583Y-33799D01*
X71673Y-33780D01*
X71679Y-33794D01*
X71851Y-33967D01*
X72077Y-34061D01*
X72322Y-34061D01*
X72548Y-33968D01*
X72700Y-33816D01*
X72851Y-33967D01*
X73077Y-34061D01*
X73322Y-34061D01*
X73548Y-33968D01*
X73700Y-33816D01*
X73835Y-33951D01*
X73835Y-34235D01*
X73863Y-34375D01*
X73942Y-34493D01*
X74519Y-35070D01*
X74380Y-35042D01*
X71553Y-35042D01*
X71553Y-33829D01*
X71200Y-33476D01*
X71170Y-33506D01*
X71170Y-33446D01*
X70818Y-33094D01*
X70711Y-33117D01*
X70622Y-33329D01*
X70621Y-33560D01*
X70709Y-33773D01*
X70711Y-33776D01*
X70818Y-33799D01*
X71170Y-33446D01*
X71170Y-33506D01*
X70848Y-33829D01*
X70871Y-33936D01*
X71083Y-34025D01*
X71314Y-34025D01*
X71527Y-33938D01*
X71530Y-33936D01*
X71553Y-33829D01*
X71553Y-35042D01*
X71057Y-35042D01*
X70966Y-34906D01*
X70736Y-34753D01*
X70465Y-34699D01*
X70149Y-34699D01*
X70149Y-33679D01*
X70149Y-33553D01*
X70149Y-32214D01*
X70101Y-32098D01*
X70013Y-32010D01*
X69897Y-31962D01*
X69772Y-31962D01*
X68433Y-31962D01*
X68317Y-32010D01*
X68228Y-32098D01*
X68180Y-32214D01*
X68180Y-32340D01*
X68180Y-33679D01*
X68228Y-33794D01*
X68317Y-33883D01*
X68433Y-33931D01*
X68558Y-33931D01*
X69897Y-33931D01*
X70013Y-33883D01*
X70101Y-33794D01*
X70149Y-33679D01*
X70149Y-34699D01*
X70030Y-34699D01*
X69759Y-34753D01*
X69529Y-34906D01*
X69375Y-35136D01*
X69321Y-35407D01*
X69375Y-35678D01*
X69529Y-35908D01*
X69759Y-36062D01*
X70030Y-36116D01*
X70465Y-36116D01*
X70736Y-36062D01*
X70966Y-35908D01*
X71057Y-35772D01*
X74228Y-35772D01*
X76784Y-38327D01*
X76783Y-38518D01*
X76873Y-38735D01*
X77039Y-38901D01*
X77039Y-38901D01*
X76904Y-39036D01*
X71153Y-39036D01*
X71110Y-39007D01*
X71108Y-39007D01*
X71108Y-37501D01*
X71108Y-37249D01*
X71077Y-37138D01*
X70938Y-36915D01*
X70724Y-36762D01*
X70469Y-36703D01*
X70269Y-36703D01*
X70269Y-37354D01*
X71050Y-37354D01*
X71108Y-37249D01*
X71108Y-37501D01*
X71050Y-37396D01*
X70269Y-37396D01*
X70269Y-38047D01*
X70469Y-38047D01*
X70724Y-37988D01*
X70938Y-37836D01*
X71077Y-37613D01*
X71108Y-37501D01*
X71108Y-39007D01*
X71071Y-38999D01*
X70966Y-38843D01*
X70736Y-38690D01*
X70465Y-38636D01*
X70226Y-38636D01*
X70226Y-38047D01*
X70226Y-37396D01*
X70226Y-37354D01*
X70226Y-36703D01*
X70026Y-36703D01*
X69771Y-36762D01*
X69557Y-36915D01*
X69418Y-37138D01*
X69387Y-37249D01*
X69445Y-37354D01*
X70226Y-37354D01*
X70226Y-37396D01*
X69445Y-37396D01*
X69387Y-37501D01*
X69418Y-37613D01*
X69557Y-37836D01*
X69771Y-37988D01*
X70026Y-38047D01*
X70226Y-38047D01*
X70226Y-38636D01*
X70030Y-38636D01*
X69759Y-38690D01*
X69529Y-38843D01*
X69375Y-39073D01*
X69321Y-39344D01*
X69375Y-39615D01*
X69529Y-39845D01*
X69759Y-39999D01*
X70030Y-40053D01*
X70465Y-40053D01*
X70736Y-39999D01*
X70966Y-39845D01*
X71020Y-39765D01*
X71027Y-39766D01*
X76904Y-39766D01*
X77039Y-39901D01*
X77039Y-39901D01*
X76874Y-40066D01*
X76784Y-40283D01*
X76783Y-40475D01*
X74330Y-42928D01*
X71108Y-42928D01*
X71108Y-41438D01*
X71108Y-41186D01*
X71077Y-41075D01*
X70938Y-40852D01*
X70724Y-40699D01*
X70469Y-40640D01*
X70269Y-40640D01*
X70269Y-41291D01*
X71050Y-41291D01*
X71108Y-41186D01*
X71108Y-41438D01*
X71050Y-41334D01*
X70269Y-41334D01*
X70269Y-41984D01*
X70469Y-41984D01*
X70724Y-41925D01*
X70938Y-41773D01*
X71077Y-41550D01*
X71108Y-41438D01*
X71108Y-42928D01*
X71057Y-42928D01*
X70966Y-42792D01*
X70736Y-42639D01*
X70465Y-42585D01*
X70226Y-42585D01*
X70226Y-41984D01*
X70226Y-41334D01*
X70226Y-41291D01*
X70226Y-40640D01*
X70026Y-40640D01*
X69771Y-40699D01*
X69557Y-40852D01*
X69418Y-41075D01*
X69387Y-41186D01*
X69445Y-41291D01*
X70226Y-41291D01*
X70226Y-41334D01*
X69445Y-41334D01*
X69387Y-41438D01*
X69418Y-41550D01*
X69557Y-41773D01*
X69771Y-41925D01*
X70026Y-41984D01*
X70226Y-41984D01*
X70226Y-42585D01*
X70030Y-42585D01*
X69759Y-42639D01*
X69529Y-42792D01*
X69375Y-43022D01*
X69321Y-43293D01*
X69375Y-43564D01*
X69529Y-43794D01*
X69759Y-43948D01*
X70030Y-44002D01*
X70465Y-44002D01*
X70736Y-43948D01*
X70966Y-43794D01*
X71057Y-43658D01*
X74482Y-43658D01*
X74621Y-43630D01*
X74621Y-43630D01*
X74740Y-43551D01*
X76636Y-41655D01*
X76622Y-41676D01*
X76594Y-41815D01*
X76594Y-44566D01*
X76622Y-44706D01*
X76701Y-44824D01*
X76908Y-45032D01*
X76874Y-45066D01*
X76784Y-45283D01*
X76783Y-45518D01*
X76873Y-45735D01*
X77039Y-45901D01*
X77086Y-45921D01*
X77061Y-45931D01*
X77059Y-45932D01*
X77039Y-46036D01*
X77374Y-46371D01*
X77708Y-46036D01*
X77688Y-45932D01*
X77661Y-45921D01*
X77707Y-45902D01*
X77873Y-45736D01*
X77963Y-45519D01*
X77964Y-45331D01*
X79664Y-45331D01*
X79648Y-45372D01*
X79648Y-45463D01*
X79635Y-45482D01*
X79607Y-45622D01*
X79607Y-46025D01*
X79547Y-46085D01*
X79499Y-46201D01*
X79499Y-46326D01*
X79499Y-46759D01*
X79547Y-46875D01*
X79636Y-46963D01*
X79752Y-47011D01*
X79877Y-47011D01*
X80192Y-47011D01*
X80284Y-46973D01*
X80303Y-46986D01*
X80484Y-47022D01*
X80665Y-46986D01*
X80780Y-46909D01*
X80848Y-46950D01*
X80907Y-46966D01*
X80974Y-46905D01*
X80974Y-46501D01*
X80967Y-46501D01*
X80967Y-46459D01*
X80974Y-46459D01*
X80974Y-46055D01*
X80907Y-45994D01*
X80849Y-46010D01*
X80849Y-45641D01*
X80821Y-45502D01*
X80821Y-45502D01*
X80788Y-45453D01*
X80788Y-45453D01*
X80788Y-45372D01*
X80772Y-45331D01*
X82784Y-45331D01*
X82784Y-45518D01*
X82874Y-45735D01*
X83039Y-45901D01*
X83040Y-45901D01*
X82874Y-46066D01*
X82784Y-46283D01*
X82784Y-46518D01*
X82874Y-46735D01*
X82975Y-46837D01*
X82921Y-46859D01*
X82832Y-46948D01*
X82784Y-47063D01*
X82784Y-47189D01*
X82784Y-47739D01*
X82832Y-47854D01*
X82921Y-47943D01*
X83036Y-47991D01*
X83162Y-47991D01*
X83712Y-47991D01*
X83827Y-47943D01*
X83916Y-47854D01*
X83964Y-47739D01*
X83964Y-47613D01*
X83964Y-47063D01*
X83916Y-46948D01*
X83827Y-46859D01*
X83773Y-46836D01*
X83874Y-46736D01*
X83964Y-46519D01*
X83964Y-46284D01*
X83874Y-46067D01*
X83709Y-45901D01*
X83708Y-45901D01*
X83874Y-45736D01*
X83964Y-45519D01*
X83964Y-45331D01*
X87224Y-45331D01*
X87860Y-45967D01*
X87806Y-45967D01*
X87589Y-46056D01*
X87453Y-46192D01*
X85400Y-46192D01*
X85265Y-46057D01*
X85048Y-45967D01*
X84814Y-45967D01*
X84597Y-46056D01*
X84431Y-46222D01*
X84341Y-46439D01*
X84341Y-46673D01*
X84430Y-46890D01*
X84596Y-47056D01*
X84813Y-47146D01*
X85047Y-47147D01*
X85264Y-47057D01*
X85400Y-46922D01*
X87453Y-46922D01*
X87588Y-47056D01*
X87805Y-47146D01*
X88040Y-47147D01*
X88256Y-47057D01*
X88423Y-46891D01*
X88444Y-46839D01*
X88466Y-46890D01*
X88631Y-47056D01*
X88848Y-47146D01*
X89083Y-47147D01*
X89300Y-47057D01*
X89435Y-46922D01*
X91489Y-46922D01*
X91624Y-47056D01*
X91840Y-47146D01*
X92075Y-47147D01*
X92292Y-47057D01*
X92458Y-46891D01*
X92548Y-46674D01*
X92548Y-46440D01*
X92459Y-46223D01*
X92293Y-46057D01*
X92076Y-45967D01*
X91841Y-45967D01*
X91624Y-46056D01*
X91489Y-46192D01*
X89435Y-46192D01*
X89301Y-46057D01*
X89084Y-45967D01*
X88892Y-45967D01*
X87634Y-44708D01*
X87515Y-44629D01*
X87376Y-44601D01*
X83890Y-44601D01*
X83928Y-44512D01*
X83928Y-44292D01*
X83844Y-44088D01*
X83843Y-44087D01*
X83739Y-44066D01*
X83404Y-44401D01*
X83410Y-44407D01*
X83380Y-44437D01*
X83374Y-44431D01*
X83368Y-44437D01*
X83338Y-44407D01*
X83344Y-44401D01*
X83009Y-44066D01*
X82905Y-44087D01*
X82820Y-44290D01*
X82820Y-44510D01*
X82858Y-44601D01*
X81432Y-44601D01*
X81432Y-44588D01*
X81432Y-44588D01*
X81432Y-44529D01*
X81391Y-44364D01*
X81329Y-44281D01*
X82844Y-42766D01*
X82905Y-42766D01*
X83039Y-42901D01*
X83040Y-42901D01*
X82874Y-43066D01*
X82784Y-43283D01*
X82784Y-43518D01*
X82874Y-43735D01*
X83039Y-43901D01*
X83087Y-43921D01*
X83061Y-43931D01*
X83060Y-43932D01*
X83039Y-44036D01*
X83374Y-44371D01*
X83709Y-44036D01*
X83688Y-43932D01*
X83661Y-43921D01*
X83708Y-43902D01*
X83874Y-43736D01*
X83964Y-43519D01*
X83964Y-43284D01*
X83874Y-43067D01*
X83709Y-42901D01*
X83708Y-42901D01*
X83874Y-42736D01*
X83964Y-42519D01*
X83964Y-42284D01*
X83874Y-42067D01*
X83709Y-41901D01*
X83708Y-41901D01*
X83874Y-41736D01*
X83964Y-41519D01*
X83964Y-41439D01*
X85757Y-41439D01*
X85757Y-41537D01*
X85757Y-41737D01*
X85805Y-41853D01*
X85893Y-41941D01*
X86009Y-41989D01*
X86134Y-41989D01*
X86584Y-41989D01*
X86700Y-41941D01*
X86715Y-41926D01*
X86790Y-41911D01*
X86909Y-41832D01*
X86988Y-41714D01*
X87016Y-41574D01*
X87016Y-40939D01*
X88461Y-40939D01*
X88511Y-40989D01*
X88691Y-41064D01*
X88886Y-41064D01*
X89066Y-40990D01*
X89099Y-40957D01*
X89182Y-41039D01*
X89182Y-41345D01*
X89210Y-41484D01*
X89289Y-41603D01*
X92805Y-45119D01*
X92923Y-45198D01*
X92923Y-45198D01*
X93063Y-45225D01*
X93577Y-45225D01*
X93604Y-45253D01*
X93720Y-45300D01*
X93845Y-45300D01*
X94295Y-45300D01*
X94411Y-45253D01*
X94499Y-45164D01*
X94547Y-45048D01*
X94547Y-44923D01*
X94547Y-44673D01*
X94501Y-44561D01*
X94547Y-44448D01*
X94547Y-44323D01*
X94547Y-44073D01*
X94499Y-43957D01*
X94411Y-43869D01*
X94372Y-43853D01*
X94372Y-43833D01*
X94392Y-43813D01*
X94440Y-43698D01*
X94440Y-43572D01*
X94440Y-43415D01*
X94425Y-43379D01*
X94440Y-43344D01*
X94440Y-43218D01*
X94440Y-43061D01*
X94392Y-42946D01*
X94372Y-42925D01*
X94372Y-41413D01*
X94619Y-41166D01*
X94698Y-41047D01*
X94698Y-41047D01*
X94726Y-40908D01*
X94726Y-48981D01*
X94695Y-49028D01*
X94559Y-49119D01*
X94559Y-48639D01*
X94559Y-48514D01*
X94559Y-47175D01*
X94511Y-47059D01*
X94422Y-46970D01*
X94306Y-46923D01*
X94181Y-46923D01*
X92842Y-46923D01*
X92726Y-46970D01*
X92638Y-47059D01*
X92590Y-47175D01*
X92590Y-47300D01*
X92590Y-48639D01*
X92638Y-48755D01*
X92726Y-48843D01*
X92842Y-48891D01*
X92967Y-48891D01*
X94306Y-48891D01*
X94422Y-48843D01*
X94511Y-48755D01*
X94559Y-48639D01*
X94559Y-49119D01*
X94550Y-49124D01*
X94346Y-49165D01*
X92512Y-49165D01*
X92512Y-48337D01*
X92428Y-48133D01*
X92427Y-48132D01*
X92323Y-48112D01*
X92293Y-48142D01*
X92293Y-48082D01*
X92273Y-47977D01*
X92069Y-47893D01*
X91849Y-47892D01*
X91645Y-47976D01*
X91644Y-47977D01*
X91624Y-48082D01*
X91958Y-48416D01*
X92293Y-48082D01*
X92293Y-48142D01*
X91988Y-48446D01*
X92323Y-48781D01*
X92427Y-48761D01*
X92512Y-48557D01*
X92512Y-48337D01*
X92512Y-49165D01*
X92293Y-49165D01*
X92293Y-48811D01*
X91958Y-48476D01*
X91928Y-48506D01*
X91928Y-48446D01*
X91594Y-48112D01*
X91489Y-48132D01*
X91405Y-48335D01*
X91404Y-48556D01*
X91488Y-48759D01*
X91489Y-48761D01*
X91594Y-48781D01*
X91928Y-48446D01*
X91928Y-48506D01*
X91624Y-48811D01*
X91644Y-48915D01*
X91847Y-49000D01*
X92067Y-49000D01*
X92271Y-48916D01*
X92273Y-48915D01*
X92293Y-48811D01*
X92293Y-49165D01*
X89520Y-49165D01*
X89520Y-48337D01*
X89436Y-48133D01*
X89435Y-48132D01*
X89331Y-48112D01*
X89301Y-48142D01*
X89301Y-48082D01*
X89280Y-47977D01*
X89077Y-47893D01*
X88857Y-47892D01*
X88653Y-47976D01*
X88652Y-47977D01*
X88631Y-48082D01*
X88966Y-48416D01*
X89301Y-48082D01*
X89301Y-48142D01*
X88996Y-48446D01*
X89331Y-48781D01*
X89435Y-48761D01*
X89520Y-48557D01*
X89520Y-48337D01*
X89520Y-49165D01*
X89301Y-49165D01*
X89301Y-48811D01*
X88966Y-48476D01*
X88936Y-48506D01*
X88936Y-48446D01*
X88601Y-48112D01*
X88497Y-48132D01*
X88444Y-48259D01*
X88393Y-48133D01*
X88392Y-48132D01*
X88287Y-48112D01*
X88257Y-48142D01*
X88257Y-48082D01*
X88237Y-47977D01*
X88034Y-47893D01*
X87813Y-47892D01*
X87610Y-47976D01*
X87608Y-47977D01*
X87588Y-48082D01*
X87923Y-48416D01*
X88257Y-48082D01*
X88257Y-48142D01*
X87953Y-48446D01*
X88287Y-48781D01*
X88392Y-48761D01*
X88444Y-48634D01*
X88496Y-48759D01*
X88497Y-48761D01*
X88601Y-48781D01*
X88936Y-48446D01*
X88936Y-48506D01*
X88631Y-48811D01*
X88652Y-48915D01*
X88855Y-49000D01*
X89075Y-49000D01*
X89279Y-48916D01*
X89280Y-48915D01*
X89301Y-48811D01*
X89301Y-49165D01*
X88257Y-49165D01*
X88257Y-48811D01*
X87923Y-48476D01*
X87893Y-48506D01*
X87893Y-48446D01*
X87558Y-48112D01*
X87454Y-48132D01*
X87369Y-48335D01*
X87369Y-48556D01*
X87453Y-48759D01*
X87454Y-48761D01*
X87558Y-48781D01*
X87893Y-48446D01*
X87893Y-48506D01*
X87588Y-48811D01*
X87608Y-48915D01*
X87812Y-49000D01*
X88032Y-49000D01*
X88236Y-48916D01*
X88237Y-48915D01*
X88257Y-48811D01*
X88257Y-49165D01*
X85485Y-49165D01*
X85485Y-48337D01*
X85401Y-48133D01*
X85400Y-48132D01*
X85295Y-48112D01*
X85265Y-48142D01*
X85265Y-48082D01*
X85245Y-47977D01*
X85042Y-47893D01*
X84821Y-47892D01*
X84618Y-47976D01*
X84616Y-47977D01*
X84596Y-48082D01*
X84931Y-48416D01*
X85265Y-48082D01*
X85265Y-48142D01*
X84961Y-48446D01*
X85295Y-48781D01*
X85400Y-48761D01*
X85484Y-48557D01*
X85485Y-48337D01*
X85485Y-49165D01*
X85265Y-49165D01*
X85265Y-48811D01*
X84931Y-48476D01*
X84901Y-48506D01*
X84901Y-48446D01*
X84566Y-48112D01*
X84462Y-48132D01*
X84377Y-48335D01*
X84377Y-48556D01*
X84461Y-48759D01*
X84462Y-48761D01*
X84566Y-48781D01*
X84901Y-48446D01*
X84901Y-48506D01*
X84596Y-48811D01*
X84616Y-48915D01*
X84820Y-49000D01*
X85040Y-49000D01*
X85244Y-48916D01*
X85245Y-48915D01*
X85265Y-48811D01*
X85265Y-49165D01*
X81432Y-49165D01*
X81432Y-46560D01*
X81432Y-46501D01*
X81432Y-46459D01*
X81432Y-46400D01*
X81391Y-46234D01*
X81289Y-46097D01*
X81143Y-46010D01*
X81085Y-45994D01*
X81017Y-46055D01*
X81017Y-46459D01*
X81432Y-46459D01*
X81432Y-46501D01*
X81017Y-46501D01*
X81017Y-46905D01*
X81085Y-46966D01*
X81143Y-46950D01*
X81289Y-46862D01*
X81391Y-46725D01*
X81432Y-46560D01*
X81432Y-49165D01*
X77964Y-49165D01*
X77964Y-47284D01*
X77927Y-47197D01*
X77927Y-46292D01*
X77843Y-46088D01*
X77842Y-46087D01*
X77738Y-46066D01*
X77404Y-46401D01*
X77738Y-46736D01*
X77842Y-46715D01*
X77927Y-46512D01*
X77927Y-46292D01*
X77927Y-47197D01*
X77874Y-47067D01*
X77708Y-46901D01*
X77661Y-46882D01*
X77686Y-46871D01*
X77688Y-46870D01*
X77708Y-46766D01*
X77374Y-46431D01*
X77343Y-46461D01*
X77343Y-46401D01*
X77009Y-46066D01*
X76905Y-46087D01*
X76820Y-46290D01*
X76820Y-46510D01*
X76904Y-46714D01*
X76905Y-46715D01*
X77009Y-46736D01*
X77343Y-46401D01*
X77343Y-46461D01*
X77039Y-46766D01*
X77059Y-46870D01*
X77086Y-46881D01*
X77040Y-46901D01*
X76904Y-47036D01*
X76464Y-47036D01*
X76402Y-46885D01*
X76297Y-46780D01*
X76370Y-46764D01*
X76457Y-46555D01*
X76458Y-46328D01*
X76372Y-46118D01*
X76370Y-46116D01*
X76264Y-46094D01*
X76234Y-46124D01*
X76234Y-46064D01*
X76212Y-45958D01*
X76002Y-45870D01*
X75775Y-45870D01*
X75566Y-45956D01*
X75563Y-45958D01*
X75541Y-46064D01*
X75887Y-46410D01*
X76234Y-46064D01*
X76234Y-46124D01*
X75917Y-46440D01*
X75923Y-46446D01*
X75893Y-46476D01*
X75887Y-46470D01*
X75882Y-46476D01*
X75852Y-46446D01*
X75857Y-46440D01*
X75511Y-46094D01*
X75405Y-46116D01*
X75317Y-46325D01*
X75317Y-46552D01*
X75403Y-46762D01*
X75405Y-46764D01*
X75478Y-46780D01*
X75394Y-46863D01*
X74893Y-46863D01*
X74868Y-46739D01*
X74715Y-46509D01*
X74485Y-46356D01*
X74214Y-46302D01*
X73943Y-46356D01*
X73713Y-46509D01*
X73559Y-46739D01*
X73505Y-47010D01*
X73505Y-47446D01*
X73559Y-47717D01*
X73713Y-47947D01*
X73943Y-48100D01*
X74214Y-48154D01*
X74485Y-48100D01*
X74715Y-47947D01*
X74868Y-47717D01*
X74893Y-47593D01*
X75395Y-47593D01*
X75543Y-47742D01*
X75766Y-47835D01*
X76007Y-47835D01*
X76174Y-47766D01*
X76904Y-47766D01*
X77039Y-47901D01*
X77256Y-47991D01*
X77490Y-47991D01*
X77707Y-47902D01*
X77873Y-47736D01*
X77963Y-47519D01*
X77964Y-47284D01*
X77964Y-49165D01*
X72918Y-49165D01*
X72918Y-47449D01*
X72918Y-47249D01*
X72918Y-47207D01*
X72918Y-47007D01*
X72859Y-46751D01*
X72706Y-46537D01*
X72483Y-46399D01*
X72372Y-46368D01*
X72267Y-46426D01*
X72267Y-47207D01*
X72918Y-47207D01*
X72918Y-47249D01*
X72267Y-47249D01*
X72267Y-48030D01*
X72372Y-48088D01*
X72483Y-48057D01*
X72706Y-47918D01*
X72859Y-47705D01*
X72918Y-47449D01*
X72918Y-49165D01*
X72225Y-49165D01*
X72225Y-48030D01*
X72225Y-47249D01*
X72225Y-47207D01*
X72225Y-46426D01*
X72120Y-46368D01*
X72008Y-46399D01*
X71786Y-46537D01*
X71633Y-46751D01*
X71574Y-47007D01*
X71574Y-47207D01*
X72225Y-47207D01*
X72225Y-47249D01*
X71574Y-47249D01*
X71574Y-47449D01*
X71633Y-47705D01*
X71786Y-47918D01*
X72008Y-48057D01*
X72120Y-48088D01*
X72225Y-48030D01*
X72225Y-49165D01*
X71108Y-49165D01*
X71108Y-45387D01*
X71108Y-45135D01*
X71077Y-45023D01*
X70938Y-44801D01*
X70724Y-44648D01*
X70469Y-44589D01*
X70269Y-44589D01*
X70269Y-45240D01*
X71050Y-45240D01*
X71108Y-45135D01*
X71108Y-45387D01*
X71050Y-45282D01*
X70269Y-45282D01*
X70269Y-45933D01*
X70469Y-45933D01*
X70724Y-45874D01*
X70938Y-45721D01*
X71077Y-45499D01*
X71108Y-45387D01*
X71108Y-49165D01*
X70226Y-49165D01*
X70226Y-45933D01*
X70226Y-45282D01*
X70226Y-45240D01*
X70226Y-44589D01*
X70026Y-44589D01*
X69771Y-44648D01*
X69557Y-44801D01*
X69418Y-45023D01*
X69387Y-45135D01*
X69445Y-45240D01*
X70226Y-45240D01*
X70226Y-45282D01*
X69445Y-45282D01*
X69387Y-45387D01*
X69418Y-45499D01*
X69557Y-45721D01*
X69771Y-45874D01*
X70026Y-45933D01*
X70226Y-45933D01*
X70226Y-49165D01*
X70149Y-49165D01*
X70149Y-48639D01*
X70149Y-48514D01*
X70149Y-47175D01*
X70101Y-47059D01*
X70013Y-46970D01*
X69897Y-46923D01*
X69772Y-46923D01*
X68433Y-46923D01*
X68317Y-46970D01*
X68228Y-47059D01*
X68180Y-47175D01*
X68180Y-47300D01*
X68180Y-48639D01*
X68228Y-48755D01*
X68317Y-48843D01*
X68433Y-48891D01*
X68558Y-48891D01*
X69897Y-48891D01*
X70013Y-48843D01*
X70101Y-48755D01*
X70149Y-48639D01*
X70149Y-49165D01*
X68428Y-49165D01*
X68224Y-49124D01*
X68080Y-49028D01*
X67983Y-48883D01*
X67942Y-48679D01*
X67942Y-32210D01*
X67983Y-32006D01*
X68080Y-31861D01*
X68224Y-31764D01*
X68428Y-31724D01*
X94346Y-31724D01*
X94550Y-31764D01*
X94695Y-31861D01*
X94792Y-32006D01*
X94832Y-32210D01*
X94832Y-48679D01*
M02*
