%FSLAX34Y34*%
G04 Gerber Fmt 3.4, Leading zero omitted, Abs format*
G04 (created by PCBNEW (2014-03-19 BZR 4756)-product) date Sat 05 Jul 2014 22:59:34 BST*
%MOIN*%
G01*
G70*
G90*
G04 APERTURE LIST*
%ADD10C,0.005906*%
%ADD11C,0.009843*%
%ADD12R,0.015700X0.023600*%
%ADD13C,0.058300*%
%ADD14O,0.031496X0.043307*%
%ADD15R,0.031496X0.043307*%
%ADD16O,0.062992X0.039370*%
%ADD17R,0.062992X0.039370*%
%ADD18O,0.055118X0.086614*%
%ADD19R,0.055118X0.086614*%
%ADD20R,0.068000X0.080000*%
%ADD21O,0.068000X0.080000*%
%ADD22R,0.060000X0.060000*%
%ADD23C,0.060000*%
%ADD24C,0.055000*%
%ADD25R,0.055000X0.055000*%
%ADD26R,0.133900X0.133900*%
%ADD27O,0.078700X0.118700*%
G04 APERTURE END LIST*
G54D10*
G54D11*
X80576Y-48900D02*
X80801Y-48900D01*
X80689Y-48900D02*
X80689Y-48506D01*
X80726Y-48563D01*
X80764Y-48600D01*
X80801Y-48619D01*
X80333Y-48506D02*
X80295Y-48506D01*
X80258Y-48525D01*
X80239Y-48544D01*
X80220Y-48581D01*
X80202Y-48656D01*
X80202Y-48750D01*
X80220Y-48825D01*
X80239Y-48863D01*
X80258Y-48881D01*
X80295Y-48900D01*
X80333Y-48900D01*
X80370Y-48881D01*
X80389Y-48863D01*
X80408Y-48825D01*
X80426Y-48750D01*
X80426Y-48656D01*
X80408Y-48581D01*
X80389Y-48544D01*
X80370Y-48525D01*
X80333Y-48506D01*
X80089Y-48638D02*
X79939Y-48638D01*
X80033Y-48506D02*
X80033Y-48844D01*
X80014Y-48881D01*
X79977Y-48900D01*
X79939Y-48900D01*
X79752Y-48900D02*
X79789Y-48881D01*
X79808Y-48863D01*
X79827Y-48825D01*
X79827Y-48713D01*
X79808Y-48675D01*
X79789Y-48656D01*
X79752Y-48638D01*
X79695Y-48638D01*
X79658Y-48656D01*
X79639Y-48675D01*
X79620Y-48713D01*
X79620Y-48825D01*
X79639Y-48863D01*
X79658Y-48881D01*
X79695Y-48900D01*
X79752Y-48900D01*
X79489Y-48506D02*
X79227Y-48506D01*
X79395Y-48900D01*
X79077Y-48863D02*
X79058Y-48881D01*
X79077Y-48900D01*
X79095Y-48881D01*
X79077Y-48863D01*
X79077Y-48900D01*
X78720Y-48881D02*
X78758Y-48900D01*
X78833Y-48900D01*
X78870Y-48881D01*
X78889Y-48863D01*
X78908Y-48825D01*
X78908Y-48713D01*
X78889Y-48675D01*
X78870Y-48656D01*
X78833Y-48638D01*
X78758Y-48638D01*
X78720Y-48656D01*
X78495Y-48900D02*
X78533Y-48881D01*
X78552Y-48863D01*
X78570Y-48825D01*
X78570Y-48713D01*
X78552Y-48675D01*
X78533Y-48656D01*
X78495Y-48638D01*
X78439Y-48638D01*
X78402Y-48656D01*
X78383Y-48675D01*
X78364Y-48713D01*
X78364Y-48825D01*
X78383Y-48863D01*
X78402Y-48881D01*
X78439Y-48900D01*
X78495Y-48900D01*
X78196Y-48900D02*
X78196Y-48638D01*
X78196Y-48675D02*
X78177Y-48656D01*
X78139Y-48638D01*
X78083Y-48638D01*
X78046Y-48656D01*
X78027Y-48694D01*
X78027Y-48900D01*
X78027Y-48694D02*
X78008Y-48656D01*
X77971Y-48638D01*
X77914Y-48638D01*
X77877Y-48656D01*
X77858Y-48694D01*
X77858Y-48900D01*
X87377Y-36209D02*
X87190Y-36209D01*
X87415Y-36321D02*
X87283Y-35928D01*
X87152Y-36321D01*
X87058Y-35928D02*
X86796Y-35928D01*
X86965Y-36321D01*
X85320Y-36321D02*
X85320Y-35928D01*
X85226Y-35928D01*
X85170Y-35946D01*
X85132Y-35984D01*
X85113Y-36021D01*
X85095Y-36096D01*
X85095Y-36153D01*
X85113Y-36228D01*
X85132Y-36265D01*
X85170Y-36303D01*
X85226Y-36321D01*
X85320Y-36321D01*
X84870Y-36096D02*
X84907Y-36078D01*
X84926Y-36059D01*
X84945Y-36021D01*
X84945Y-36003D01*
X84926Y-35965D01*
X84907Y-35946D01*
X84870Y-35928D01*
X84795Y-35928D01*
X84757Y-35946D01*
X84738Y-35965D01*
X84720Y-36003D01*
X84720Y-36021D01*
X84738Y-36059D01*
X84757Y-36078D01*
X84795Y-36096D01*
X84870Y-36096D01*
X84907Y-36115D01*
X84926Y-36134D01*
X84945Y-36171D01*
X84945Y-36246D01*
X84926Y-36284D01*
X84907Y-36303D01*
X84870Y-36321D01*
X84795Y-36321D01*
X84757Y-36303D01*
X84738Y-36284D01*
X84720Y-36246D01*
X84720Y-36171D01*
X84738Y-36134D01*
X84757Y-36115D01*
X84795Y-36096D01*
X87387Y-40455D02*
X87387Y-40061D01*
X87293Y-40061D01*
X87237Y-40080D01*
X87199Y-40118D01*
X87180Y-40155D01*
X87162Y-40230D01*
X87162Y-40286D01*
X87180Y-40361D01*
X87199Y-40399D01*
X87237Y-40436D01*
X87293Y-40455D01*
X87387Y-40455D01*
X87030Y-40061D02*
X86768Y-40061D01*
X86937Y-40455D01*
X87387Y-44589D02*
X87387Y-44195D01*
X87293Y-44195D01*
X87237Y-44214D01*
X87199Y-44252D01*
X87180Y-44289D01*
X87162Y-44364D01*
X87162Y-44420D01*
X87180Y-44495D01*
X87199Y-44533D01*
X87237Y-44570D01*
X87293Y-44589D01*
X87387Y-44589D01*
X86824Y-44195D02*
X86899Y-44195D01*
X86937Y-44214D01*
X86955Y-44233D01*
X86993Y-44289D01*
X87012Y-44364D01*
X87012Y-44514D01*
X86993Y-44552D01*
X86974Y-44570D01*
X86937Y-44589D01*
X86862Y-44589D01*
X86824Y-44570D01*
X86805Y-44552D01*
X86787Y-44514D01*
X86787Y-44420D01*
X86805Y-44383D01*
X86824Y-44364D01*
X86862Y-44345D01*
X86937Y-44345D01*
X86974Y-44364D01*
X86993Y-44383D01*
X87012Y-44420D01*
G54D12*
X75129Y-34669D03*
X74775Y-34669D03*
X75129Y-35161D03*
X74775Y-35161D03*
G54D13*
X74883Y-47081D03*
X74883Y-46293D03*
G54D14*
X79480Y-44462D03*
X79992Y-44462D03*
G54D15*
X78968Y-44462D03*
G54D14*
X79480Y-46332D03*
X79992Y-46332D03*
G54D15*
X78968Y-46332D03*
G54D16*
X80562Y-40919D03*
X80562Y-41509D03*
G54D17*
X80562Y-40328D03*
G54D16*
X80562Y-42100D03*
X78397Y-40919D03*
X78397Y-41509D03*
G54D17*
X78397Y-40328D03*
G54D16*
X78397Y-42100D03*
G54D18*
X79873Y-34226D03*
X78889Y-34226D03*
G54D19*
X80857Y-34226D03*
G54D18*
X77905Y-34226D03*
G54D20*
X77881Y-37297D03*
G54D21*
X78881Y-37297D03*
X79881Y-37297D03*
X80881Y-37297D03*
G54D22*
X74196Y-32299D03*
G54D23*
X74196Y-33299D03*
X73196Y-32299D03*
X73196Y-33299D03*
X72196Y-32299D03*
X72196Y-33299D03*
X71196Y-32299D03*
X71196Y-33299D03*
X70196Y-32299D03*
X70196Y-33299D03*
G54D24*
X76370Y-33253D03*
X82370Y-34253D03*
X82370Y-35253D03*
X82370Y-36253D03*
X82370Y-37253D03*
X82370Y-38253D03*
X82370Y-39253D03*
X82370Y-40253D03*
X82370Y-41253D03*
X82370Y-42253D03*
X82370Y-43253D03*
X82370Y-44253D03*
X82370Y-45253D03*
X82370Y-46253D03*
G54D25*
X82370Y-47253D03*
G54D24*
X76370Y-47253D03*
X76370Y-46253D03*
X76370Y-45253D03*
X76370Y-44253D03*
X76370Y-43253D03*
X76370Y-42253D03*
X76370Y-41253D03*
X76370Y-40253D03*
X76370Y-39253D03*
X76370Y-38253D03*
X76370Y-37253D03*
X76370Y-36253D03*
X76370Y-35253D03*
X76370Y-34253D03*
X82370Y-33253D03*
X84086Y-38783D03*
X85976Y-38783D03*
X84086Y-41775D03*
X85976Y-41775D03*
X84086Y-42917D03*
X85976Y-42917D03*
X84086Y-45909D03*
X85976Y-45909D03*
G54D26*
X68161Y-32799D03*
X86665Y-32799D03*
X86665Y-47759D03*
X68161Y-47759D03*
G54D27*
X73210Y-47080D03*
X71242Y-47080D03*
M02*
