%FSLAX34Y34*%
G04 Gerber Fmt 3.4, Leading zero omitted, Abs format*
G04 (created by PCBNEW (2014-03-19 BZR 4756)-product) date Fri 10 Oct 2014 23:51:35 BST*
%MOIN*%
G01*
G70*
G90*
G04 APERTURE LIST*
%ADD10C,0.005906*%
%ADD11C,0.009843*%
%ADD12O,0.078700X0.118700*%
%ADD13R,0.015700X0.023600*%
%ADD14C,0.058300*%
%ADD15O,0.031496X0.043307*%
%ADD16R,0.031496X0.043307*%
%ADD17O,0.062992X0.039370*%
%ADD18R,0.062992X0.039370*%
%ADD19O,0.055118X0.086614*%
%ADD20R,0.055118X0.086614*%
%ADD21R,0.068000X0.080000*%
%ADD22O,0.068000X0.080000*%
%ADD23R,0.060000X0.060000*%
%ADD24C,0.060000*%
%ADD25C,0.055000*%
%ADD26R,0.055000X0.055000*%
%ADD27R,0.133900X0.133900*%
%ADD28R,0.157480X0.157480*%
G04 APERTURE END LIST*
G54D10*
G54D11*
X81780Y-49148D02*
X82005Y-49148D01*
X81893Y-49148D02*
X81893Y-48754D01*
X81930Y-48810D01*
X81968Y-48848D01*
X82005Y-48866D01*
X81537Y-48754D02*
X81499Y-48754D01*
X81462Y-48773D01*
X81443Y-48791D01*
X81424Y-48829D01*
X81405Y-48904D01*
X81405Y-48998D01*
X81424Y-49073D01*
X81443Y-49110D01*
X81462Y-49129D01*
X81499Y-49148D01*
X81537Y-49148D01*
X81574Y-49129D01*
X81593Y-49110D01*
X81612Y-49073D01*
X81630Y-48998D01*
X81630Y-48904D01*
X81612Y-48829D01*
X81593Y-48791D01*
X81574Y-48773D01*
X81537Y-48754D01*
X81293Y-48885D02*
X81143Y-48885D01*
X81237Y-48754D02*
X81237Y-49091D01*
X81218Y-49129D01*
X81180Y-49148D01*
X81143Y-49148D01*
X80955Y-49148D02*
X80993Y-49129D01*
X81012Y-49110D01*
X81030Y-49073D01*
X81030Y-48960D01*
X81012Y-48923D01*
X80993Y-48904D01*
X80955Y-48885D01*
X80899Y-48885D01*
X80862Y-48904D01*
X80843Y-48923D01*
X80824Y-48960D01*
X80824Y-49073D01*
X80843Y-49110D01*
X80862Y-49129D01*
X80899Y-49148D01*
X80955Y-49148D01*
X80693Y-48754D02*
X80431Y-48754D01*
X80599Y-49148D01*
X80281Y-49110D02*
X80262Y-49129D01*
X80281Y-49148D01*
X80299Y-49129D01*
X80281Y-49110D01*
X80281Y-49148D01*
X79924Y-49129D02*
X79962Y-49148D01*
X80037Y-49148D01*
X80074Y-49129D01*
X80093Y-49110D01*
X80112Y-49073D01*
X80112Y-48960D01*
X80093Y-48923D01*
X80074Y-48904D01*
X80037Y-48885D01*
X79962Y-48885D01*
X79924Y-48904D01*
X79699Y-49148D02*
X79737Y-49129D01*
X79756Y-49110D01*
X79774Y-49073D01*
X79774Y-48960D01*
X79756Y-48923D01*
X79737Y-48904D01*
X79699Y-48885D01*
X79643Y-48885D01*
X79606Y-48904D01*
X79587Y-48923D01*
X79568Y-48960D01*
X79568Y-49073D01*
X79587Y-49110D01*
X79606Y-49129D01*
X79643Y-49148D01*
X79699Y-49148D01*
X79399Y-49148D02*
X79399Y-48885D01*
X79399Y-48923D02*
X79381Y-48904D01*
X79343Y-48885D01*
X79287Y-48885D01*
X79249Y-48904D01*
X79231Y-48941D01*
X79231Y-49148D01*
X79231Y-48941D02*
X79212Y-48904D01*
X79174Y-48885D01*
X79118Y-48885D01*
X79081Y-48904D01*
X79062Y-48941D01*
X79062Y-49148D01*
X94487Y-36456D02*
X94299Y-36456D01*
X94524Y-36569D02*
X94393Y-36175D01*
X94262Y-36569D01*
X93924Y-36569D02*
X94149Y-36569D01*
X94037Y-36569D02*
X94037Y-36175D01*
X94074Y-36231D01*
X94112Y-36269D01*
X94149Y-36288D01*
X90627Y-45777D02*
X91020Y-45777D01*
X91020Y-45683D01*
X91001Y-45627D01*
X90964Y-45589D01*
X90926Y-45570D01*
X90851Y-45552D01*
X90795Y-45552D01*
X90720Y-45570D01*
X90683Y-45589D01*
X90645Y-45627D01*
X90627Y-45683D01*
X90627Y-45777D01*
X91020Y-45420D02*
X91020Y-45158D01*
X90627Y-45327D01*
X86493Y-45777D02*
X86886Y-45777D01*
X86886Y-45683D01*
X86868Y-45627D01*
X86830Y-45589D01*
X86793Y-45570D01*
X86718Y-45552D01*
X86661Y-45552D01*
X86586Y-45570D01*
X86549Y-45589D01*
X86511Y-45627D01*
X86493Y-45683D01*
X86493Y-45777D01*
X86886Y-45214D02*
X86886Y-45289D01*
X86868Y-45327D01*
X86849Y-45346D01*
X86793Y-45383D01*
X86718Y-45402D01*
X86568Y-45402D01*
X86530Y-45383D01*
X86511Y-45364D01*
X86493Y-45327D01*
X86493Y-45252D01*
X86511Y-45214D01*
X86530Y-45196D01*
X86568Y-45177D01*
X86661Y-45177D01*
X86699Y-45196D01*
X86718Y-45214D01*
X86736Y-45252D01*
X86736Y-45327D01*
X86718Y-45364D01*
X86699Y-45383D01*
X86661Y-45402D01*
G54D12*
X74414Y-47328D03*
X72446Y-47328D03*
G54D13*
X76333Y-34916D03*
X75979Y-34916D03*
X76333Y-35409D03*
X75979Y-35409D03*
G54D14*
X76087Y-47328D03*
X76087Y-46540D03*
G54D15*
X80684Y-44710D03*
X81196Y-44710D03*
G54D16*
X80172Y-44710D03*
G54D15*
X80684Y-46580D03*
X81196Y-46580D03*
G54D16*
X80172Y-46580D03*
G54D17*
X81766Y-41167D03*
X81766Y-41757D03*
G54D18*
X81766Y-40576D03*
G54D17*
X81766Y-42348D03*
X79601Y-41167D03*
X79601Y-41757D03*
G54D18*
X79601Y-40576D03*
G54D17*
X79601Y-42348D03*
G54D19*
X81077Y-34474D03*
X80093Y-34474D03*
G54D20*
X82061Y-34474D03*
G54D19*
X79109Y-34474D03*
G54D21*
X79085Y-37544D03*
G54D22*
X80085Y-37544D03*
X81085Y-37544D03*
X82085Y-37544D03*
G54D23*
X75400Y-32546D03*
G54D24*
X75400Y-33546D03*
X74400Y-32546D03*
X74400Y-33546D03*
X73400Y-32546D03*
X73400Y-33546D03*
X72400Y-32546D03*
X72400Y-33546D03*
X71400Y-32546D03*
X71400Y-33546D03*
G54D25*
X77574Y-33501D03*
X83574Y-34501D03*
X83574Y-35501D03*
X83574Y-36501D03*
X83574Y-37501D03*
X83574Y-38501D03*
X83574Y-39501D03*
X83574Y-40501D03*
X83574Y-41501D03*
X83574Y-42501D03*
X83574Y-43501D03*
X83574Y-44501D03*
X83574Y-45501D03*
X83574Y-46501D03*
G54D26*
X83574Y-47501D03*
G54D25*
X77574Y-47501D03*
X77574Y-46501D03*
X77574Y-45501D03*
X77574Y-44501D03*
X77574Y-43501D03*
X77574Y-42501D03*
X77574Y-41501D03*
X77574Y-40501D03*
X77574Y-39501D03*
X77574Y-38501D03*
X77574Y-37501D03*
X77574Y-36501D03*
X77574Y-35501D03*
X77574Y-34501D03*
X83574Y-33501D03*
X89166Y-48546D03*
X89166Y-46657D03*
X92158Y-48546D03*
X92158Y-46657D03*
X85131Y-48546D03*
X85131Y-46657D03*
X88123Y-48546D03*
X88123Y-46657D03*
G54D27*
X69365Y-33046D03*
X93774Y-33046D03*
X93774Y-48007D03*
X69365Y-48007D03*
G54D28*
X88989Y-32739D03*
X88989Y-44353D03*
M02*
