%FSLAX34Y34*%
G04 Gerber Fmt 3.4, Leading zero omitted, Abs format*
G04 (created by PCBNEW (2014-03-19 BZR 4756)-product) date Sat 05 Jul 2014 22:34:08 BST*
%MOIN*%
G01*
G70*
G90*
G04 APERTURE LIST*
%ADD10C,0.005906*%
%ADD11C,0.009843*%
%ADD12C,0.015000*%
%ADD13R,0.015700X0.023600*%
%ADD14C,0.058300*%
%ADD15O,0.031496X0.043307*%
%ADD16R,0.031496X0.043307*%
%ADD17O,0.062992X0.039370*%
%ADD18R,0.062992X0.039370*%
%ADD19O,0.055118X0.086614*%
%ADD20R,0.055118X0.086614*%
%ADD21O,0.118700X0.078700*%
%ADD22R,0.068000X0.080000*%
%ADD23O,0.068000X0.080000*%
%ADD24R,0.060000X0.060000*%
%ADD25C,0.060000*%
%ADD26C,0.055000*%
%ADD27R,0.055000X0.055000*%
%ADD28R,0.133900X0.133900*%
%ADD29O,0.078700X0.118700*%
%ADD30C,0.010000*%
%ADD31C,0.015748*%
G04 APERTURE END LIST*
G54D10*
G54D11*
X80576Y-48900D02*
X80801Y-48900D01*
X80689Y-48900D02*
X80689Y-48506D01*
X80726Y-48563D01*
X80764Y-48600D01*
X80801Y-48619D01*
X80333Y-48506D02*
X80295Y-48506D01*
X80258Y-48525D01*
X80239Y-48544D01*
X80220Y-48581D01*
X80202Y-48656D01*
X80202Y-48750D01*
X80220Y-48825D01*
X80239Y-48863D01*
X80258Y-48881D01*
X80295Y-48900D01*
X80333Y-48900D01*
X80370Y-48881D01*
X80389Y-48863D01*
X80408Y-48825D01*
X80426Y-48750D01*
X80426Y-48656D01*
X80408Y-48581D01*
X80389Y-48544D01*
X80370Y-48525D01*
X80333Y-48506D01*
X80089Y-48638D02*
X79939Y-48638D01*
X80033Y-48506D02*
X80033Y-48844D01*
X80014Y-48881D01*
X79977Y-48900D01*
X79939Y-48900D01*
X79752Y-48900D02*
X79789Y-48881D01*
X79808Y-48863D01*
X79827Y-48825D01*
X79827Y-48713D01*
X79808Y-48675D01*
X79789Y-48656D01*
X79752Y-48638D01*
X79695Y-48638D01*
X79658Y-48656D01*
X79639Y-48675D01*
X79620Y-48713D01*
X79620Y-48825D01*
X79639Y-48863D01*
X79658Y-48881D01*
X79695Y-48900D01*
X79752Y-48900D01*
X79489Y-48506D02*
X79227Y-48506D01*
X79395Y-48900D01*
X79077Y-48863D02*
X79058Y-48881D01*
X79077Y-48900D01*
X79095Y-48881D01*
X79077Y-48863D01*
X79077Y-48900D01*
X78720Y-48881D02*
X78758Y-48900D01*
X78833Y-48900D01*
X78870Y-48881D01*
X78889Y-48863D01*
X78908Y-48825D01*
X78908Y-48713D01*
X78889Y-48675D01*
X78870Y-48656D01*
X78833Y-48638D01*
X78758Y-48638D01*
X78720Y-48656D01*
X78495Y-48900D02*
X78533Y-48881D01*
X78552Y-48863D01*
X78570Y-48825D01*
X78570Y-48713D01*
X78552Y-48675D01*
X78533Y-48656D01*
X78495Y-48638D01*
X78439Y-48638D01*
X78402Y-48656D01*
X78383Y-48675D01*
X78364Y-48713D01*
X78364Y-48825D01*
X78383Y-48863D01*
X78402Y-48881D01*
X78439Y-48900D01*
X78495Y-48900D01*
X78196Y-48900D02*
X78196Y-48638D01*
X78196Y-48675D02*
X78177Y-48656D01*
X78139Y-48638D01*
X78083Y-48638D01*
X78046Y-48656D01*
X78027Y-48694D01*
X78027Y-48900D01*
X78027Y-48694D02*
X78008Y-48656D01*
X77971Y-48638D01*
X77914Y-48638D01*
X77877Y-48656D01*
X77858Y-48694D01*
X77858Y-48900D01*
X87377Y-36209D02*
X87190Y-36209D01*
X87415Y-36321D02*
X87283Y-35928D01*
X87152Y-36321D01*
X87058Y-35928D02*
X86796Y-35928D01*
X86965Y-36321D01*
X85320Y-36321D02*
X85320Y-35928D01*
X85226Y-35928D01*
X85170Y-35946D01*
X85132Y-35984D01*
X85113Y-36021D01*
X85095Y-36096D01*
X85095Y-36153D01*
X85113Y-36228D01*
X85132Y-36265D01*
X85170Y-36303D01*
X85226Y-36321D01*
X85320Y-36321D01*
X84870Y-36096D02*
X84907Y-36078D01*
X84926Y-36059D01*
X84945Y-36021D01*
X84945Y-36003D01*
X84926Y-35965D01*
X84907Y-35946D01*
X84870Y-35928D01*
X84795Y-35928D01*
X84757Y-35946D01*
X84738Y-35965D01*
X84720Y-36003D01*
X84720Y-36021D01*
X84738Y-36059D01*
X84757Y-36078D01*
X84795Y-36096D01*
X84870Y-36096D01*
X84907Y-36115D01*
X84926Y-36134D01*
X84945Y-36171D01*
X84945Y-36246D01*
X84926Y-36284D01*
X84907Y-36303D01*
X84870Y-36321D01*
X84795Y-36321D01*
X84757Y-36303D01*
X84738Y-36284D01*
X84720Y-36246D01*
X84720Y-36171D01*
X84738Y-36134D01*
X84757Y-36115D01*
X84795Y-36096D01*
X87387Y-40455D02*
X87387Y-40061D01*
X87293Y-40061D01*
X87237Y-40080D01*
X87199Y-40118D01*
X87180Y-40155D01*
X87162Y-40230D01*
X87162Y-40286D01*
X87180Y-40361D01*
X87199Y-40399D01*
X87237Y-40436D01*
X87293Y-40455D01*
X87387Y-40455D01*
X87030Y-40061D02*
X86768Y-40061D01*
X86937Y-40455D01*
X87387Y-44589D02*
X87387Y-44195D01*
X87293Y-44195D01*
X87237Y-44214D01*
X87199Y-44252D01*
X87180Y-44289D01*
X87162Y-44364D01*
X87162Y-44420D01*
X87180Y-44495D01*
X87199Y-44533D01*
X87237Y-44570D01*
X87293Y-44589D01*
X87387Y-44589D01*
X86824Y-44195D02*
X86899Y-44195D01*
X86937Y-44214D01*
X86955Y-44233D01*
X86993Y-44289D01*
X87012Y-44364D01*
X87012Y-44514D01*
X86993Y-44552D01*
X86974Y-44570D01*
X86937Y-44589D01*
X86862Y-44589D01*
X86824Y-44570D01*
X86805Y-44552D01*
X86787Y-44514D01*
X86787Y-44420D01*
X86805Y-44383D01*
X86824Y-44364D01*
X86862Y-44345D01*
X86937Y-44345D01*
X86974Y-44364D01*
X86993Y-44383D01*
X87012Y-44420D01*
G54D12*
X75513Y-47002D02*
X75395Y-47002D01*
X75513Y-47002D02*
X75513Y-46884D01*
X75513Y-47120D02*
X75513Y-47002D01*
X75513Y-47002D02*
X75631Y-47002D01*
G54D13*
X75129Y-34669D03*
X74775Y-34669D03*
X75129Y-35161D03*
X74775Y-35161D03*
G54D14*
X74883Y-47081D03*
X74883Y-46293D03*
G54D15*
X79480Y-44462D03*
X79992Y-44462D03*
G54D16*
X78968Y-44462D03*
G54D15*
X79480Y-46332D03*
X79992Y-46332D03*
G54D16*
X78968Y-46332D03*
G54D17*
X80562Y-40919D03*
X80562Y-41509D03*
G54D18*
X80562Y-40328D03*
G54D17*
X80562Y-42100D03*
X78397Y-40919D03*
X78397Y-41509D03*
G54D18*
X78397Y-40328D03*
G54D17*
X78397Y-42100D03*
G54D19*
X79873Y-34226D03*
X78889Y-34226D03*
G54D20*
X80857Y-34226D03*
G54D19*
X77905Y-34226D03*
G54D21*
X69244Y-43145D03*
X69244Y-45113D03*
X69244Y-35260D03*
X69244Y-37228D03*
X69244Y-39197D03*
X69244Y-41165D03*
G54D22*
X77881Y-37297D03*
G54D23*
X78881Y-37297D03*
X79881Y-37297D03*
X80881Y-37297D03*
G54D24*
X74196Y-32299D03*
G54D25*
X74196Y-33299D03*
X73196Y-32299D03*
X73196Y-33299D03*
X72196Y-32299D03*
X72196Y-33299D03*
X71196Y-32299D03*
X71196Y-33299D03*
X70196Y-32299D03*
X70196Y-33299D03*
G54D26*
X76370Y-33253D03*
X82370Y-34253D03*
X82370Y-35253D03*
X82370Y-36253D03*
X82370Y-37253D03*
X82370Y-38253D03*
X82370Y-39253D03*
X82370Y-40253D03*
X82370Y-41253D03*
X82370Y-42253D03*
X82370Y-43253D03*
X82370Y-44253D03*
X82370Y-45253D03*
X82370Y-46253D03*
G54D27*
X82370Y-47253D03*
G54D26*
X76370Y-47253D03*
X76370Y-46253D03*
X76370Y-45253D03*
X76370Y-44253D03*
X76370Y-43253D03*
X76370Y-42253D03*
X76370Y-41253D03*
X76370Y-40253D03*
X76370Y-39253D03*
X76370Y-38253D03*
X76370Y-37253D03*
X76370Y-36253D03*
X76370Y-35253D03*
X76370Y-34253D03*
X82370Y-33253D03*
X84086Y-38783D03*
X85976Y-38783D03*
X84086Y-41775D03*
X85976Y-41775D03*
X84086Y-42917D03*
X85976Y-42917D03*
X84086Y-45909D03*
X85976Y-45909D03*
G54D28*
X68161Y-32799D03*
X86665Y-32799D03*
X86665Y-47759D03*
X68161Y-47759D03*
G54D29*
X73210Y-47080D03*
X71242Y-47080D03*
G54D30*
X75415Y-33299D02*
X76370Y-34253D01*
X74196Y-33299D02*
X75415Y-33299D01*
X74196Y-32299D02*
X74196Y-33299D01*
X74775Y-35161D02*
X74775Y-34669D01*
X81828Y-37753D02*
X81372Y-37297D01*
X83057Y-37753D02*
X81828Y-37753D01*
X84086Y-38783D02*
X83057Y-37753D01*
X80881Y-37297D02*
X81372Y-37297D01*
X84086Y-42917D02*
X84086Y-41775D01*
X75665Y-34401D02*
X74775Y-34401D01*
X76074Y-34809D02*
X75665Y-34401D01*
X77905Y-34809D02*
X76074Y-34809D01*
X77905Y-34226D02*
X77905Y-34809D01*
X74775Y-34669D02*
X74775Y-34401D01*
X74922Y-46253D02*
X74883Y-46292D01*
X78397Y-41509D02*
X77932Y-41509D01*
X75888Y-35691D02*
X75358Y-35161D01*
X75932Y-35691D02*
X75888Y-35691D01*
X75932Y-36427D02*
X75932Y-35691D01*
X76258Y-36753D02*
X75932Y-36427D01*
X76483Y-36753D02*
X76258Y-36753D01*
X76997Y-37268D02*
X76483Y-36753D01*
X76997Y-40575D02*
X76997Y-37268D01*
X77932Y-41509D02*
X76997Y-40575D01*
X75932Y-35691D02*
X76370Y-35253D01*
X75129Y-35161D02*
X75244Y-35161D01*
X75244Y-35161D02*
X75358Y-35161D01*
X75129Y-35047D02*
X75129Y-34669D01*
X75244Y-35161D02*
X75129Y-35047D01*
X79381Y-35301D02*
X78889Y-34809D01*
X79381Y-37552D02*
X79381Y-35301D01*
X81532Y-39703D02*
X79381Y-37552D01*
X82536Y-39703D02*
X81532Y-39703D01*
X82799Y-39440D02*
X82536Y-39703D01*
X82799Y-38683D02*
X82799Y-39440D01*
X82370Y-38253D02*
X82799Y-38683D01*
X78889Y-34226D02*
X78889Y-34809D01*
X80381Y-35317D02*
X79873Y-34809D01*
X80381Y-37555D02*
X80381Y-35317D01*
X82080Y-39253D02*
X80381Y-37555D01*
X82370Y-39253D02*
X82080Y-39253D01*
X79873Y-34226D02*
X79873Y-34809D01*
X80188Y-43753D02*
X79480Y-44462D01*
X82472Y-43753D02*
X80188Y-43753D01*
X82795Y-43430D02*
X82472Y-43753D01*
X82795Y-42679D02*
X82795Y-43430D01*
X82370Y-42253D02*
X82795Y-42679D01*
X80562Y-40919D02*
X78397Y-40919D01*
X80562Y-40328D02*
X78397Y-40328D01*
X73478Y-43145D02*
X69244Y-43145D01*
X76370Y-40253D02*
X73478Y-43145D01*
X71694Y-38253D02*
X69244Y-35803D01*
X76370Y-38253D02*
X71694Y-38253D01*
X69244Y-35260D02*
X69244Y-35803D01*
X78391Y-36835D02*
X78391Y-37297D01*
X77810Y-36253D02*
X78391Y-36835D01*
X76370Y-36253D02*
X77810Y-36253D01*
X78881Y-37297D02*
X78391Y-37297D01*
X77569Y-42452D02*
X76370Y-41253D01*
X81409Y-42452D02*
X77569Y-42452D01*
X82108Y-41753D02*
X81409Y-42452D01*
X82520Y-41753D02*
X82108Y-41753D01*
X82943Y-41331D02*
X82520Y-41753D01*
X85976Y-41331D02*
X82943Y-41331D01*
X85976Y-41775D02*
X85976Y-41331D01*
X85976Y-41331D02*
X85976Y-38783D01*
X85976Y-45909D02*
X85976Y-42917D01*
X81931Y-36253D02*
X82370Y-36253D01*
X80432Y-34754D02*
X81931Y-36253D01*
X80432Y-34025D02*
X80432Y-34754D01*
X78256Y-31849D02*
X80432Y-34025D01*
X73647Y-31849D02*
X78256Y-31849D01*
X73196Y-32299D02*
X73647Y-31849D01*
X72696Y-32799D02*
X72196Y-33299D01*
X72696Y-32160D02*
X72696Y-32799D01*
X73219Y-31637D02*
X72696Y-32160D01*
X79753Y-31637D02*
X73219Y-31637D01*
X82370Y-34253D02*
X79753Y-31637D01*
X75651Y-37753D02*
X71196Y-33299D01*
X76472Y-37753D02*
X75651Y-37753D01*
X76797Y-38079D02*
X76472Y-37753D01*
X76797Y-40445D02*
X76797Y-38079D01*
X76563Y-40679D02*
X76797Y-40445D01*
X76342Y-40679D02*
X76563Y-40679D01*
X75932Y-41090D02*
X76342Y-40679D01*
X75932Y-41426D02*
X75932Y-41090D01*
X76259Y-41753D02*
X75932Y-41426D01*
X76587Y-41753D02*
X76259Y-41753D01*
X78087Y-43253D02*
X76587Y-41753D01*
X82370Y-43253D02*
X78087Y-43253D01*
G54D10*
G36*
X76035Y-34753D02*
X75870Y-34919D01*
X75800Y-35087D01*
X75616Y-34903D01*
X75523Y-34841D01*
X75523Y-34724D01*
X75523Y-34488D01*
X75475Y-34372D01*
X75386Y-34284D01*
X75270Y-34236D01*
X75145Y-34236D01*
X74988Y-34236D01*
X74901Y-34272D01*
X74866Y-34272D01*
X74797Y-34342D01*
X74797Y-34360D01*
X74784Y-34372D01*
X74754Y-34444D01*
X74754Y-34342D01*
X74684Y-34272D01*
X74641Y-34272D01*
X74539Y-34314D01*
X74460Y-34393D01*
X74418Y-34495D01*
X74418Y-34578D01*
X74488Y-34648D01*
X74736Y-34648D01*
X74736Y-34690D01*
X74488Y-34690D01*
X74418Y-34760D01*
X74418Y-34842D01*
X74448Y-34915D01*
X74418Y-34987D01*
X74418Y-35070D01*
X74488Y-35140D01*
X74736Y-35140D01*
X74736Y-35182D01*
X74488Y-35182D01*
X74418Y-35252D01*
X74418Y-35334D01*
X74460Y-35437D01*
X74539Y-35515D01*
X74641Y-35558D01*
X74684Y-35558D01*
X74754Y-35488D01*
X74754Y-35386D01*
X74784Y-35457D01*
X74797Y-35470D01*
X74797Y-35488D01*
X74866Y-35558D01*
X74901Y-35558D01*
X74988Y-35594D01*
X75113Y-35594D01*
X75270Y-35594D01*
X75273Y-35593D01*
X75567Y-35886D01*
X75567Y-36427D01*
X75595Y-36567D01*
X75674Y-36685D01*
X75889Y-36900D01*
X75870Y-36919D01*
X75780Y-37136D01*
X75780Y-37366D01*
X72325Y-33911D01*
X72544Y-33820D01*
X72696Y-33668D01*
X72848Y-33820D01*
X73073Y-33914D01*
X73318Y-33914D01*
X73544Y-33820D01*
X73696Y-33668D01*
X73848Y-33820D01*
X74073Y-33914D01*
X74318Y-33914D01*
X74544Y-33820D01*
X74701Y-33664D01*
X75264Y-33664D01*
X75780Y-34180D01*
X75780Y-34370D01*
X75869Y-34587D01*
X76035Y-34753D01*
X76035Y-34753D01*
X76035Y-34753D01*
G37*
G54D31*
X76035Y-34753D02*
X75870Y-34919D01*
X75800Y-35087D01*
X75616Y-34903D01*
X75523Y-34841D01*
X75523Y-34724D01*
X75523Y-34488D01*
X75475Y-34372D01*
X75386Y-34284D01*
X75270Y-34236D01*
X75145Y-34236D01*
X74988Y-34236D01*
X74901Y-34272D01*
X74866Y-34272D01*
X74797Y-34342D01*
X74797Y-34360D01*
X74784Y-34372D01*
X74754Y-34444D01*
X74754Y-34342D01*
X74684Y-34272D01*
X74641Y-34272D01*
X74539Y-34314D01*
X74460Y-34393D01*
X74418Y-34495D01*
X74418Y-34578D01*
X74488Y-34648D01*
X74736Y-34648D01*
X74736Y-34690D01*
X74488Y-34690D01*
X74418Y-34760D01*
X74418Y-34842D01*
X74448Y-34915D01*
X74418Y-34987D01*
X74418Y-35070D01*
X74488Y-35140D01*
X74736Y-35140D01*
X74736Y-35182D01*
X74488Y-35182D01*
X74418Y-35252D01*
X74418Y-35334D01*
X74460Y-35437D01*
X74539Y-35515D01*
X74641Y-35558D01*
X74684Y-35558D01*
X74754Y-35488D01*
X74754Y-35386D01*
X74784Y-35457D01*
X74797Y-35470D01*
X74797Y-35488D01*
X74866Y-35558D01*
X74901Y-35558D01*
X74988Y-35594D01*
X75113Y-35594D01*
X75270Y-35594D01*
X75273Y-35593D01*
X75567Y-35886D01*
X75567Y-36427D01*
X75595Y-36567D01*
X75674Y-36685D01*
X75889Y-36900D01*
X75870Y-36919D01*
X75780Y-37136D01*
X75780Y-37366D01*
X72325Y-33911D01*
X72544Y-33820D01*
X72696Y-33668D01*
X72848Y-33820D01*
X73073Y-33914D01*
X73318Y-33914D01*
X73544Y-33820D01*
X73696Y-33668D01*
X73848Y-33820D01*
X74073Y-33914D01*
X74318Y-33914D01*
X74544Y-33820D01*
X74701Y-33664D01*
X75264Y-33664D01*
X75780Y-34180D01*
X75780Y-34370D01*
X75869Y-34587D01*
X76035Y-34753D01*
X76035Y-34753D01*
G54D10*
G36*
X79498Y-33608D02*
X79456Y-33636D01*
X79381Y-33748D01*
X79307Y-33636D01*
X79115Y-33508D01*
X78889Y-33463D01*
X78663Y-33508D01*
X78472Y-33636D01*
X78372Y-33785D01*
X78282Y-33661D01*
X78098Y-33548D01*
X78013Y-33525D01*
X77927Y-33584D01*
X77927Y-34205D01*
X77935Y-34205D01*
X77935Y-34247D01*
X77927Y-34247D01*
X77927Y-34868D01*
X78013Y-34927D01*
X78098Y-34904D01*
X78282Y-34790D01*
X78372Y-34666D01*
X78472Y-34816D01*
X78534Y-34857D01*
X78552Y-34949D01*
X78631Y-35067D01*
X79016Y-35452D01*
X79016Y-36595D01*
X78881Y-36568D01*
X78671Y-36610D01*
X78649Y-36577D01*
X78068Y-35995D01*
X77949Y-35916D01*
X77884Y-35903D01*
X77884Y-34868D01*
X77884Y-34247D01*
X77884Y-34205D01*
X77884Y-33584D01*
X77798Y-33525D01*
X77713Y-33548D01*
X77528Y-33661D01*
X77401Y-33837D01*
X77351Y-34047D01*
X77351Y-34205D01*
X77884Y-34205D01*
X77884Y-34247D01*
X77351Y-34247D01*
X77351Y-34405D01*
X77401Y-34615D01*
X77528Y-34790D01*
X77713Y-34904D01*
X77798Y-34927D01*
X77884Y-34868D01*
X77884Y-35903D01*
X77810Y-35888D01*
X76839Y-35888D01*
X76704Y-35754D01*
X76704Y-35753D01*
X76869Y-35588D01*
X76959Y-35371D01*
X76960Y-35137D01*
X76870Y-34920D01*
X76704Y-34754D01*
X76704Y-34753D01*
X76869Y-34588D01*
X76959Y-34371D01*
X76960Y-34137D01*
X76870Y-33920D01*
X76704Y-33754D01*
X76704Y-33753D01*
X76869Y-33588D01*
X76959Y-33371D01*
X76960Y-33137D01*
X76870Y-32920D01*
X76704Y-32754D01*
X76487Y-32664D01*
X76253Y-32663D01*
X76036Y-32753D01*
X75870Y-32919D01*
X75780Y-33136D01*
X75780Y-33147D01*
X75673Y-33041D01*
X75555Y-32962D01*
X75415Y-32934D01*
X74701Y-32934D01*
X74645Y-32878D01*
X74675Y-32866D01*
X74763Y-32777D01*
X74811Y-32661D01*
X74811Y-32536D01*
X74811Y-32214D01*
X78104Y-32214D01*
X79498Y-33608D01*
X79498Y-33608D01*
G37*
G54D31*
X79498Y-33608D02*
X79456Y-33636D01*
X79381Y-33748D01*
X79307Y-33636D01*
X79115Y-33508D01*
X78889Y-33463D01*
X78663Y-33508D01*
X78472Y-33636D01*
X78372Y-33785D01*
X78282Y-33661D01*
X78098Y-33548D01*
X78013Y-33525D01*
X77927Y-33584D01*
X77927Y-34205D01*
X77935Y-34205D01*
X77935Y-34247D01*
X77927Y-34247D01*
X77927Y-34868D01*
X78013Y-34927D01*
X78098Y-34904D01*
X78282Y-34790D01*
X78372Y-34666D01*
X78472Y-34816D01*
X78534Y-34857D01*
X78552Y-34949D01*
X78631Y-35067D01*
X79016Y-35452D01*
X79016Y-36595D01*
X78881Y-36568D01*
X78671Y-36610D01*
X78649Y-36577D01*
X78068Y-35995D01*
X77949Y-35916D01*
X77884Y-35903D01*
X77884Y-34868D01*
X77884Y-34247D01*
X77884Y-34205D01*
X77884Y-33584D01*
X77798Y-33525D01*
X77713Y-33548D01*
X77528Y-33661D01*
X77401Y-33837D01*
X77351Y-34047D01*
X77351Y-34205D01*
X77884Y-34205D01*
X77884Y-34247D01*
X77351Y-34247D01*
X77351Y-34405D01*
X77401Y-34615D01*
X77528Y-34790D01*
X77713Y-34904D01*
X77798Y-34927D01*
X77884Y-34868D01*
X77884Y-35903D01*
X77810Y-35888D01*
X76839Y-35888D01*
X76704Y-35754D01*
X76704Y-35753D01*
X76869Y-35588D01*
X76959Y-35371D01*
X76960Y-35137D01*
X76870Y-34920D01*
X76704Y-34754D01*
X76704Y-34753D01*
X76869Y-34588D01*
X76959Y-34371D01*
X76960Y-34137D01*
X76870Y-33920D01*
X76704Y-33754D01*
X76704Y-33753D01*
X76869Y-33588D01*
X76959Y-33371D01*
X76960Y-33137D01*
X76870Y-32920D01*
X76704Y-32754D01*
X76487Y-32664D01*
X76253Y-32663D01*
X76036Y-32753D01*
X75870Y-32919D01*
X75780Y-33136D01*
X75780Y-33147D01*
X75673Y-33041D01*
X75555Y-32962D01*
X75415Y-32934D01*
X74701Y-32934D01*
X74645Y-32878D01*
X74675Y-32866D01*
X74763Y-32777D01*
X74811Y-32661D01*
X74811Y-32536D01*
X74811Y-32214D01*
X78104Y-32214D01*
X79498Y-33608D01*
G54D10*
G36*
X80016Y-36634D02*
X79999Y-36629D01*
X79903Y-36688D01*
X79903Y-37275D01*
X79911Y-37275D01*
X79911Y-37318D01*
X79903Y-37318D01*
X79903Y-37326D01*
X79860Y-37326D01*
X79860Y-37318D01*
X79852Y-37318D01*
X79852Y-37275D01*
X79860Y-37275D01*
X79860Y-36688D01*
X79764Y-36629D01*
X79746Y-36634D01*
X79746Y-35301D01*
X79721Y-35173D01*
X80016Y-35468D01*
X80016Y-36634D01*
X80016Y-36634D01*
G37*
G54D31*
X80016Y-36634D02*
X79999Y-36629D01*
X79903Y-36688D01*
X79903Y-37275D01*
X79911Y-37275D01*
X79911Y-37318D01*
X79903Y-37318D01*
X79903Y-37326D01*
X79860Y-37326D01*
X79860Y-37318D01*
X79852Y-37318D01*
X79852Y-37275D01*
X79860Y-37275D01*
X79860Y-36688D01*
X79764Y-36629D01*
X79746Y-36634D01*
X79746Y-35301D01*
X79721Y-35173D01*
X80016Y-35468D01*
X80016Y-36634D01*
G54D10*
G36*
X82036Y-37753D02*
X81870Y-37919D01*
X81780Y-38136D01*
X81780Y-38370D01*
X81827Y-38485D01*
X81210Y-37867D01*
X81304Y-37809D01*
X81445Y-37613D01*
X81500Y-37378D01*
X81500Y-37318D01*
X81500Y-37275D01*
X81500Y-37215D01*
X81445Y-36980D01*
X81304Y-36784D01*
X81099Y-36657D01*
X80999Y-36629D01*
X80903Y-36688D01*
X80903Y-37275D01*
X81500Y-37275D01*
X81500Y-37318D01*
X80903Y-37318D01*
X80903Y-37326D01*
X80860Y-37326D01*
X80860Y-37318D01*
X80852Y-37318D01*
X80852Y-37275D01*
X80860Y-37275D01*
X80860Y-36688D01*
X80764Y-36629D01*
X80746Y-36634D01*
X80746Y-35585D01*
X81673Y-36512D01*
X81791Y-36591D01*
X81791Y-36591D01*
X81893Y-36611D01*
X82035Y-36753D01*
X82036Y-36753D01*
X81870Y-36919D01*
X81780Y-37136D01*
X81780Y-37370D01*
X81870Y-37587D01*
X82035Y-37753D01*
X82036Y-37753D01*
X82036Y-37753D01*
G37*
G54D31*
X82036Y-37753D02*
X81870Y-37919D01*
X81780Y-38136D01*
X81780Y-38370D01*
X81827Y-38485D01*
X81210Y-37867D01*
X81304Y-37809D01*
X81445Y-37613D01*
X81500Y-37378D01*
X81500Y-37318D01*
X81500Y-37275D01*
X81500Y-37215D01*
X81445Y-36980D01*
X81304Y-36784D01*
X81099Y-36657D01*
X80999Y-36629D01*
X80903Y-36688D01*
X80903Y-37275D01*
X81500Y-37275D01*
X81500Y-37318D01*
X80903Y-37318D01*
X80903Y-37326D01*
X80860Y-37326D01*
X80860Y-37318D01*
X80852Y-37318D01*
X80852Y-37275D01*
X80860Y-37275D01*
X80860Y-36688D01*
X80764Y-36629D01*
X80746Y-36634D01*
X80746Y-35585D01*
X81673Y-36512D01*
X81791Y-36591D01*
X81791Y-36591D01*
X81893Y-36611D01*
X82035Y-36753D01*
X82036Y-36753D01*
X81870Y-36919D01*
X81780Y-37136D01*
X81780Y-37370D01*
X81870Y-37587D01*
X82035Y-37753D01*
X82036Y-37753D01*
G54D10*
G36*
X87923Y-48532D02*
X87882Y-48735D01*
X87844Y-48792D01*
X87844Y-45051D01*
X87844Y-43673D01*
X87844Y-40917D01*
X87844Y-39539D01*
X87816Y-39539D01*
X87816Y-36783D01*
X87816Y-35405D01*
X87649Y-35405D01*
X87649Y-33531D01*
X87649Y-33406D01*
X87649Y-32067D01*
X87601Y-31951D01*
X87513Y-31862D01*
X87397Y-31814D01*
X87272Y-31814D01*
X85933Y-31814D01*
X85817Y-31862D01*
X85728Y-31951D01*
X85680Y-32067D01*
X85680Y-32192D01*
X85680Y-33531D01*
X85728Y-33647D01*
X85817Y-33735D01*
X85933Y-33783D01*
X86058Y-33783D01*
X87397Y-33783D01*
X87513Y-33735D01*
X87601Y-33647D01*
X87649Y-33531D01*
X87649Y-35405D01*
X86376Y-35405D01*
X86376Y-36783D01*
X87816Y-36783D01*
X87816Y-39539D01*
X86347Y-39539D01*
X86347Y-40917D01*
X87844Y-40917D01*
X87844Y-43673D01*
X86347Y-43673D01*
X86347Y-45051D01*
X87844Y-45051D01*
X87844Y-48792D01*
X87785Y-48880D01*
X87649Y-48971D01*
X87649Y-48491D01*
X87649Y-48366D01*
X87649Y-47027D01*
X87601Y-46911D01*
X87513Y-46823D01*
X87397Y-46775D01*
X87272Y-46775D01*
X85933Y-46775D01*
X85817Y-46823D01*
X85728Y-46911D01*
X85680Y-47027D01*
X85680Y-47152D01*
X85680Y-48491D01*
X85728Y-48607D01*
X85817Y-48696D01*
X85933Y-48744D01*
X86058Y-48744D01*
X87397Y-48744D01*
X87513Y-48696D01*
X87601Y-48607D01*
X87649Y-48491D01*
X87649Y-48971D01*
X87641Y-48977D01*
X87437Y-49017D01*
X84640Y-49017D01*
X84640Y-45800D01*
X84640Y-42808D01*
X84556Y-42604D01*
X84555Y-42602D01*
X84451Y-42582D01*
X84421Y-42612D01*
X84421Y-42552D01*
X84421Y-42140D01*
X84086Y-41805D01*
X83752Y-42140D01*
X83772Y-42244D01*
X83975Y-42329D01*
X84195Y-42329D01*
X84399Y-42245D01*
X84401Y-42244D01*
X84421Y-42140D01*
X84421Y-42552D01*
X84401Y-42448D01*
X84197Y-42363D01*
X83977Y-42363D01*
X83773Y-42447D01*
X83772Y-42448D01*
X83752Y-42552D01*
X84086Y-42887D01*
X84421Y-42552D01*
X84421Y-42612D01*
X84116Y-42917D01*
X84451Y-43251D01*
X84555Y-43231D01*
X84640Y-43028D01*
X84640Y-42808D01*
X84640Y-45800D01*
X84556Y-45596D01*
X84555Y-45595D01*
X84451Y-45574D01*
X84421Y-45604D01*
X84421Y-45544D01*
X84421Y-43281D01*
X84086Y-42947D01*
X84056Y-42977D01*
X84056Y-42917D01*
X83721Y-42582D01*
X83617Y-42602D01*
X83533Y-42806D01*
X83532Y-43026D01*
X83616Y-43230D01*
X83617Y-43231D01*
X83721Y-43251D01*
X84056Y-42917D01*
X84056Y-42977D01*
X83752Y-43281D01*
X83772Y-43386D01*
X83975Y-43470D01*
X84195Y-43471D01*
X84399Y-43387D01*
X84401Y-43386D01*
X84421Y-43281D01*
X84421Y-45544D01*
X84401Y-45440D01*
X84197Y-45355D01*
X83977Y-45355D01*
X83773Y-45439D01*
X83772Y-45440D01*
X83752Y-45544D01*
X84086Y-45879D01*
X84421Y-45544D01*
X84421Y-45604D01*
X84116Y-45909D01*
X84451Y-46244D01*
X84555Y-46223D01*
X84640Y-46020D01*
X84640Y-45800D01*
X84640Y-49017D01*
X84421Y-49017D01*
X84421Y-46274D01*
X84086Y-45939D01*
X84056Y-45969D01*
X84056Y-45909D01*
X83721Y-45574D01*
X83617Y-45595D01*
X83533Y-45798D01*
X83532Y-46018D01*
X83616Y-46222D01*
X83617Y-46223D01*
X83721Y-46244D01*
X84056Y-45909D01*
X84056Y-45969D01*
X83752Y-46274D01*
X83772Y-46378D01*
X83975Y-46463D01*
X84195Y-46463D01*
X84399Y-46379D01*
X84401Y-46378D01*
X84421Y-46274D01*
X84421Y-49017D01*
X82960Y-49017D01*
X82960Y-46137D01*
X82871Y-45920D01*
X82705Y-45754D01*
X82704Y-45753D01*
X82870Y-45588D01*
X82960Y-45371D01*
X82960Y-45137D01*
X82871Y-44920D01*
X82705Y-44754D01*
X82657Y-44734D01*
X82683Y-44723D01*
X82684Y-44722D01*
X82705Y-44618D01*
X82370Y-44284D01*
X82035Y-44618D01*
X82056Y-44722D01*
X82083Y-44734D01*
X82036Y-44753D01*
X81870Y-44919D01*
X81780Y-45136D01*
X81780Y-45370D01*
X81870Y-45587D01*
X82035Y-45753D01*
X82036Y-45753D01*
X81870Y-45919D01*
X81780Y-46136D01*
X81780Y-46370D01*
X81870Y-46587D01*
X81971Y-46689D01*
X81917Y-46711D01*
X81828Y-46800D01*
X81780Y-46916D01*
X81780Y-47041D01*
X81780Y-47591D01*
X81828Y-47707D01*
X81917Y-47795D01*
X82032Y-47843D01*
X82158Y-47843D01*
X82708Y-47843D01*
X82823Y-47795D01*
X82912Y-47707D01*
X82960Y-47591D01*
X82960Y-47466D01*
X82960Y-46916D01*
X82912Y-46800D01*
X82823Y-46711D01*
X82769Y-46689D01*
X82870Y-46588D01*
X82960Y-46371D01*
X82960Y-46137D01*
X82960Y-49017D01*
X81241Y-49017D01*
X81241Y-47984D01*
X80428Y-47984D01*
X80428Y-46412D01*
X80428Y-46353D01*
X80428Y-46311D01*
X80428Y-46252D01*
X80428Y-44542D01*
X80428Y-44483D01*
X80013Y-44483D01*
X80013Y-44887D01*
X80081Y-44948D01*
X80139Y-44932D01*
X80285Y-44845D01*
X80387Y-44708D01*
X80428Y-44542D01*
X80428Y-46252D01*
X80387Y-46087D01*
X80285Y-45950D01*
X80139Y-45862D01*
X80081Y-45846D01*
X80013Y-45907D01*
X80013Y-46311D01*
X80428Y-46311D01*
X80428Y-46353D01*
X80013Y-46353D01*
X80013Y-46757D01*
X80081Y-46818D01*
X80139Y-46802D01*
X80285Y-46715D01*
X80387Y-46578D01*
X80428Y-46412D01*
X80428Y-47984D01*
X79971Y-47984D01*
X79971Y-46757D01*
X79971Y-46353D01*
X79963Y-46353D01*
X79963Y-46311D01*
X79971Y-46311D01*
X79971Y-45907D01*
X79903Y-45846D01*
X79845Y-45862D01*
X79776Y-45903D01*
X79661Y-45826D01*
X79480Y-45790D01*
X79299Y-45826D01*
X79280Y-45839D01*
X79188Y-45801D01*
X79063Y-45801D01*
X78748Y-45801D01*
X78632Y-45849D01*
X78543Y-45937D01*
X78495Y-46053D01*
X78495Y-46178D01*
X78495Y-46611D01*
X78543Y-46727D01*
X78632Y-46816D01*
X78748Y-46864D01*
X78873Y-46864D01*
X79188Y-46864D01*
X79280Y-46825D01*
X79299Y-46838D01*
X79480Y-46874D01*
X79661Y-46838D01*
X79776Y-46761D01*
X79845Y-46802D01*
X79903Y-46818D01*
X79971Y-46757D01*
X79971Y-47984D01*
X77400Y-47984D01*
X77400Y-49017D01*
X76960Y-49017D01*
X76960Y-47137D01*
X76923Y-47049D01*
X76923Y-46144D01*
X76840Y-45941D01*
X76839Y-45939D01*
X76734Y-45919D01*
X76400Y-46253D01*
X76734Y-46588D01*
X76839Y-46568D01*
X76923Y-46364D01*
X76923Y-46144D01*
X76923Y-47049D01*
X76870Y-46920D01*
X76704Y-46754D01*
X76657Y-46734D01*
X76682Y-46723D01*
X76684Y-46722D01*
X76704Y-46618D01*
X76370Y-46284D01*
X76340Y-46314D01*
X76340Y-46253D01*
X76005Y-45919D01*
X75901Y-45939D01*
X75816Y-46142D01*
X75816Y-46363D01*
X75900Y-46566D01*
X75901Y-46568D01*
X76005Y-46588D01*
X76340Y-46253D01*
X76340Y-46314D01*
X76035Y-46618D01*
X76055Y-46722D01*
X76082Y-46734D01*
X76036Y-46753D01*
X75970Y-46819D01*
X75907Y-46726D01*
X75836Y-46678D01*
X75789Y-46608D01*
X75663Y-46523D01*
X75513Y-46494D01*
X75409Y-46514D01*
X75453Y-46407D01*
X75454Y-46181D01*
X75368Y-45971D01*
X75366Y-45968D01*
X75260Y-45946D01*
X75230Y-45976D01*
X75230Y-45916D01*
X75208Y-45810D01*
X74998Y-45723D01*
X74771Y-45722D01*
X74562Y-45808D01*
X74559Y-45810D01*
X74537Y-45916D01*
X74883Y-46262D01*
X75230Y-45916D01*
X75230Y-45976D01*
X74913Y-46293D01*
X74919Y-46298D01*
X74889Y-46328D01*
X74883Y-46323D01*
X74878Y-46328D01*
X74848Y-46298D01*
X74853Y-46293D01*
X74507Y-45946D01*
X74401Y-45968D01*
X74313Y-46178D01*
X74313Y-46404D01*
X74399Y-46614D01*
X74401Y-46617D01*
X74474Y-46632D01*
X74370Y-46737D01*
X74277Y-46959D01*
X74277Y-47201D01*
X74369Y-47424D01*
X74539Y-47594D01*
X74762Y-47687D01*
X75003Y-47687D01*
X75226Y-47595D01*
X75351Y-47471D01*
X75364Y-47480D01*
X75513Y-47509D01*
X75663Y-47480D01*
X75789Y-47395D01*
X75790Y-47395D01*
X75869Y-47587D01*
X76035Y-47753D01*
X76252Y-47843D01*
X76486Y-47843D01*
X76703Y-47754D01*
X76869Y-47588D01*
X76959Y-47371D01*
X76960Y-47137D01*
X76960Y-49017D01*
X73918Y-49017D01*
X73918Y-47298D01*
X73918Y-46862D01*
X73864Y-46591D01*
X73711Y-46361D01*
X73481Y-46208D01*
X73210Y-46154D01*
X72939Y-46208D01*
X72709Y-46361D01*
X72555Y-46591D01*
X72501Y-46862D01*
X72501Y-47298D01*
X72555Y-47569D01*
X72709Y-47799D01*
X72939Y-47953D01*
X73210Y-48006D01*
X73481Y-47953D01*
X73711Y-47799D01*
X73864Y-47569D01*
X73918Y-47298D01*
X73918Y-49017D01*
X71914Y-49017D01*
X71914Y-47301D01*
X71914Y-47101D01*
X71914Y-47059D01*
X71914Y-46859D01*
X71855Y-46603D01*
X71702Y-46390D01*
X71479Y-46251D01*
X71368Y-46220D01*
X71263Y-46278D01*
X71263Y-47059D01*
X71914Y-47059D01*
X71914Y-47101D01*
X71263Y-47101D01*
X71263Y-47882D01*
X71368Y-47941D01*
X71479Y-47909D01*
X71702Y-47771D01*
X71855Y-47557D01*
X71914Y-47301D01*
X71914Y-49017D01*
X71221Y-49017D01*
X71221Y-47882D01*
X71221Y-47101D01*
X71221Y-47059D01*
X71221Y-46278D01*
X71116Y-46220D01*
X71004Y-46251D01*
X70782Y-46390D01*
X70629Y-46603D01*
X70570Y-46859D01*
X70570Y-47059D01*
X71221Y-47059D01*
X71221Y-47101D01*
X70570Y-47101D01*
X70570Y-47301D01*
X70629Y-47557D01*
X70782Y-47771D01*
X71004Y-47909D01*
X71116Y-47941D01*
X71221Y-47882D01*
X71221Y-49017D01*
X70104Y-49017D01*
X70104Y-45240D01*
X70104Y-44987D01*
X70073Y-44876D01*
X69934Y-44653D01*
X69720Y-44500D01*
X69465Y-44441D01*
X69265Y-44441D01*
X69265Y-45092D01*
X70046Y-45092D01*
X70104Y-44987D01*
X70104Y-45240D01*
X70046Y-45135D01*
X69265Y-45135D01*
X69265Y-45786D01*
X69465Y-45786D01*
X69720Y-45726D01*
X69934Y-45574D01*
X70073Y-45351D01*
X70104Y-45240D01*
X70104Y-49017D01*
X69222Y-49017D01*
X69222Y-45786D01*
X69222Y-45135D01*
X69222Y-45092D01*
X69222Y-44441D01*
X69022Y-44441D01*
X68767Y-44500D01*
X68553Y-44653D01*
X68414Y-44876D01*
X68383Y-44987D01*
X68441Y-45092D01*
X69222Y-45092D01*
X69222Y-45135D01*
X68441Y-45135D01*
X68383Y-45240D01*
X68414Y-45351D01*
X68553Y-45574D01*
X68767Y-45726D01*
X69022Y-45786D01*
X69222Y-45786D01*
X69222Y-49017D01*
X69145Y-49017D01*
X69145Y-48491D01*
X69145Y-48366D01*
X69145Y-47027D01*
X69097Y-46911D01*
X69009Y-46823D01*
X68893Y-46775D01*
X68768Y-46775D01*
X67429Y-46775D01*
X67313Y-46823D01*
X67224Y-46911D01*
X67176Y-47027D01*
X67176Y-47152D01*
X67176Y-48491D01*
X67224Y-48607D01*
X67313Y-48696D01*
X67429Y-48744D01*
X67554Y-48744D01*
X68893Y-48744D01*
X69009Y-48696D01*
X69097Y-48607D01*
X69145Y-48491D01*
X69145Y-49017D01*
X67424Y-49017D01*
X67220Y-48977D01*
X67076Y-48880D01*
X66979Y-48735D01*
X66938Y-48532D01*
X66938Y-32062D01*
X66979Y-31858D01*
X67076Y-31714D01*
X67220Y-31617D01*
X67424Y-31576D01*
X72763Y-31576D01*
X72554Y-31786D01*
X72545Y-31778D01*
X72319Y-31684D01*
X72075Y-31684D01*
X71848Y-31777D01*
X71696Y-31929D01*
X71545Y-31778D01*
X71319Y-31684D01*
X71075Y-31684D01*
X70848Y-31777D01*
X70675Y-31950D01*
X70669Y-31966D01*
X70579Y-31946D01*
X70549Y-31976D01*
X70549Y-31916D01*
X70526Y-31809D01*
X70313Y-31720D01*
X70083Y-31720D01*
X69870Y-31807D01*
X69867Y-31809D01*
X69844Y-31916D01*
X70196Y-32269D01*
X70549Y-31916D01*
X70549Y-31976D01*
X70226Y-32299D01*
X70579Y-32651D01*
X70669Y-32632D01*
X70675Y-32647D01*
X70827Y-32799D01*
X70675Y-32950D01*
X70669Y-32966D01*
X70579Y-32946D01*
X70549Y-32976D01*
X70549Y-32916D01*
X70526Y-32809D01*
X70502Y-32799D01*
X70523Y-32790D01*
X70526Y-32788D01*
X70549Y-32681D01*
X70196Y-32329D01*
X70166Y-32359D01*
X70166Y-32299D01*
X69814Y-31946D01*
X69707Y-31969D01*
X69618Y-32182D01*
X69617Y-32412D01*
X69705Y-32625D01*
X69707Y-32628D01*
X69814Y-32651D01*
X70166Y-32299D01*
X70166Y-32359D01*
X69844Y-32681D01*
X69867Y-32788D01*
X69891Y-32798D01*
X69870Y-32807D01*
X69867Y-32809D01*
X69844Y-32916D01*
X70196Y-33269D01*
X70549Y-32916D01*
X70549Y-32976D01*
X70226Y-33299D01*
X70579Y-33651D01*
X70669Y-33632D01*
X70675Y-33647D01*
X70848Y-33820D01*
X71073Y-33914D01*
X71295Y-33914D01*
X75270Y-37888D01*
X71845Y-37888D01*
X70549Y-36592D01*
X70549Y-33681D01*
X70196Y-33329D01*
X70166Y-33359D01*
X70166Y-33299D01*
X69814Y-32946D01*
X69707Y-32969D01*
X69618Y-33182D01*
X69617Y-33412D01*
X69705Y-33625D01*
X69707Y-33628D01*
X69814Y-33651D01*
X70166Y-33299D01*
X70166Y-33359D01*
X69844Y-33681D01*
X69867Y-33788D01*
X70079Y-33877D01*
X70310Y-33878D01*
X70523Y-33790D01*
X70526Y-33788D01*
X70549Y-33681D01*
X70549Y-36592D01*
X69815Y-35859D01*
X69962Y-35761D01*
X70116Y-35531D01*
X70170Y-35260D01*
X70116Y-34988D01*
X69962Y-34759D01*
X69733Y-34605D01*
X69461Y-34551D01*
X69145Y-34551D01*
X69145Y-33531D01*
X69145Y-33406D01*
X69145Y-32067D01*
X69097Y-31951D01*
X69009Y-31862D01*
X68893Y-31814D01*
X68768Y-31814D01*
X67429Y-31814D01*
X67313Y-31862D01*
X67224Y-31951D01*
X67176Y-32067D01*
X67176Y-32192D01*
X67176Y-33531D01*
X67224Y-33647D01*
X67313Y-33735D01*
X67429Y-33783D01*
X67554Y-33783D01*
X68893Y-33783D01*
X69009Y-33735D01*
X69097Y-33647D01*
X69145Y-33531D01*
X69145Y-34551D01*
X69026Y-34551D01*
X68755Y-34605D01*
X68525Y-34759D01*
X68371Y-34988D01*
X68317Y-35260D01*
X68371Y-35531D01*
X68525Y-35761D01*
X68755Y-35914D01*
X68908Y-35945D01*
X68908Y-35945D01*
X68986Y-36061D01*
X69484Y-36560D01*
X69465Y-36555D01*
X69265Y-36555D01*
X69265Y-37206D01*
X70046Y-37206D01*
X70076Y-37152D01*
X71436Y-38512D01*
X71554Y-38591D01*
X71554Y-38591D01*
X71694Y-38618D01*
X75900Y-38618D01*
X76035Y-38753D01*
X76035Y-38753D01*
X75870Y-38919D01*
X75780Y-39136D01*
X75780Y-39370D01*
X75869Y-39587D01*
X76035Y-39753D01*
X76035Y-39753D01*
X75870Y-39919D01*
X75780Y-40136D01*
X75780Y-40327D01*
X73326Y-42780D01*
X70170Y-42780D01*
X70170Y-39197D01*
X70116Y-38925D01*
X70104Y-38907D01*
X70104Y-37354D01*
X70046Y-37249D01*
X69265Y-37249D01*
X69265Y-37900D01*
X69465Y-37900D01*
X69720Y-37841D01*
X69934Y-37688D01*
X70073Y-37465D01*
X70104Y-37354D01*
X70104Y-38907D01*
X69962Y-38696D01*
X69733Y-38542D01*
X69461Y-38488D01*
X69222Y-38488D01*
X69222Y-37900D01*
X69222Y-37249D01*
X69222Y-37206D01*
X69222Y-36555D01*
X69022Y-36555D01*
X68767Y-36615D01*
X68553Y-36767D01*
X68414Y-36990D01*
X68383Y-37101D01*
X68441Y-37206D01*
X69222Y-37206D01*
X69222Y-37249D01*
X68441Y-37249D01*
X68383Y-37354D01*
X68414Y-37465D01*
X68553Y-37688D01*
X68767Y-37841D01*
X69022Y-37900D01*
X69222Y-37900D01*
X69222Y-38488D01*
X69026Y-38488D01*
X68755Y-38542D01*
X68525Y-38696D01*
X68371Y-38925D01*
X68317Y-39197D01*
X68371Y-39468D01*
X68525Y-39698D01*
X68755Y-39851D01*
X69026Y-39905D01*
X69461Y-39905D01*
X69733Y-39851D01*
X69962Y-39698D01*
X70116Y-39468D01*
X70170Y-39197D01*
X70170Y-42780D01*
X70104Y-42780D01*
X70104Y-41291D01*
X70104Y-41038D01*
X70073Y-40927D01*
X69934Y-40704D01*
X69720Y-40552D01*
X69465Y-40492D01*
X69265Y-40492D01*
X69265Y-41143D01*
X70046Y-41143D01*
X70104Y-41038D01*
X70104Y-41291D01*
X70046Y-41186D01*
X69265Y-41186D01*
X69265Y-41837D01*
X69465Y-41837D01*
X69720Y-41778D01*
X69934Y-41625D01*
X70073Y-41402D01*
X70104Y-41291D01*
X70104Y-42780D01*
X70053Y-42780D01*
X69962Y-42644D01*
X69733Y-42491D01*
X69461Y-42437D01*
X69222Y-42437D01*
X69222Y-41837D01*
X69222Y-41186D01*
X69222Y-41143D01*
X69222Y-40492D01*
X69022Y-40492D01*
X68767Y-40552D01*
X68553Y-40704D01*
X68414Y-40927D01*
X68383Y-41038D01*
X68441Y-41143D01*
X69222Y-41143D01*
X69222Y-41186D01*
X68441Y-41186D01*
X68383Y-41291D01*
X68414Y-41402D01*
X68553Y-41625D01*
X68767Y-41778D01*
X69022Y-41837D01*
X69222Y-41837D01*
X69222Y-42437D01*
X69026Y-42437D01*
X68755Y-42491D01*
X68525Y-42644D01*
X68371Y-42874D01*
X68317Y-43145D01*
X68371Y-43417D01*
X68525Y-43646D01*
X68755Y-43800D01*
X69026Y-43854D01*
X69461Y-43854D01*
X69733Y-43800D01*
X69962Y-43646D01*
X70053Y-43510D01*
X73478Y-43510D01*
X73617Y-43483D01*
X73617Y-43483D01*
X73736Y-43403D01*
X75591Y-41548D01*
X75594Y-41566D01*
X75674Y-41684D01*
X75889Y-41900D01*
X75870Y-41919D01*
X75780Y-42136D01*
X75780Y-42370D01*
X75869Y-42587D01*
X76035Y-42753D01*
X76035Y-42753D01*
X75870Y-42919D01*
X75780Y-43136D01*
X75780Y-43370D01*
X75869Y-43587D01*
X76035Y-43753D01*
X76035Y-43753D01*
X75870Y-43919D01*
X75780Y-44136D01*
X75780Y-44370D01*
X75869Y-44587D01*
X76035Y-44753D01*
X76035Y-44753D01*
X75870Y-44919D01*
X75780Y-45136D01*
X75780Y-45370D01*
X75869Y-45587D01*
X76035Y-45753D01*
X76082Y-45773D01*
X76057Y-45783D01*
X76055Y-45785D01*
X76035Y-45889D01*
X76370Y-46223D01*
X76704Y-45889D01*
X76684Y-45785D01*
X76657Y-45773D01*
X76703Y-45754D01*
X76869Y-45588D01*
X76959Y-45371D01*
X76960Y-45137D01*
X76870Y-44920D01*
X76704Y-44754D01*
X76704Y-44753D01*
X76869Y-44588D01*
X76959Y-44371D01*
X76960Y-44137D01*
X76870Y-43920D01*
X76704Y-43754D01*
X76704Y-43753D01*
X76869Y-43588D01*
X76959Y-43371D01*
X76960Y-43137D01*
X76870Y-42920D01*
X76704Y-42754D01*
X76704Y-42753D01*
X76869Y-42588D01*
X76880Y-42563D01*
X77828Y-43512D01*
X77947Y-43591D01*
X77947Y-43591D01*
X78087Y-43618D01*
X79807Y-43618D01*
X79501Y-43924D01*
X79480Y-43920D01*
X79299Y-43956D01*
X79280Y-43969D01*
X79188Y-43931D01*
X79063Y-43931D01*
X78748Y-43931D01*
X78632Y-43979D01*
X78543Y-44067D01*
X78495Y-44183D01*
X78495Y-44308D01*
X78495Y-44741D01*
X78543Y-44857D01*
X78632Y-44946D01*
X78748Y-44994D01*
X78873Y-44994D01*
X79188Y-44994D01*
X79280Y-44955D01*
X79299Y-44968D01*
X79480Y-45004D01*
X79661Y-44968D01*
X79776Y-44891D01*
X79845Y-44932D01*
X79903Y-44948D01*
X79971Y-44887D01*
X79971Y-44487D01*
X80017Y-44441D01*
X80428Y-44441D01*
X80428Y-44382D01*
X80387Y-44216D01*
X80325Y-44133D01*
X80340Y-44118D01*
X81826Y-44118D01*
X81817Y-44142D01*
X81816Y-44363D01*
X81900Y-44566D01*
X81901Y-44568D01*
X82005Y-44588D01*
X82340Y-44253D01*
X82334Y-44248D01*
X82364Y-44218D01*
X82370Y-44223D01*
X82376Y-44218D01*
X82406Y-44248D01*
X82400Y-44253D01*
X82735Y-44588D01*
X82839Y-44568D01*
X82924Y-44364D01*
X82924Y-44144D01*
X82840Y-43941D01*
X82839Y-43939D01*
X82808Y-43933D01*
X83053Y-43688D01*
X83132Y-43569D01*
X83132Y-43569D01*
X83160Y-43430D01*
X83160Y-42679D01*
X83132Y-42539D01*
X83132Y-42539D01*
X83053Y-42421D01*
X82960Y-42327D01*
X82960Y-42137D01*
X82871Y-41920D01*
X82870Y-41919D01*
X83094Y-41696D01*
X83533Y-41696D01*
X83532Y-41884D01*
X83616Y-42088D01*
X83617Y-42090D01*
X83721Y-42110D01*
X84056Y-41775D01*
X84050Y-41770D01*
X84081Y-41739D01*
X84086Y-41745D01*
X84092Y-41739D01*
X84122Y-41770D01*
X84116Y-41775D01*
X84451Y-42110D01*
X84555Y-42090D01*
X84640Y-41886D01*
X84640Y-41696D01*
X85386Y-41696D01*
X85386Y-41892D01*
X85475Y-42109D01*
X85641Y-42275D01*
X85812Y-42346D01*
X85642Y-42416D01*
X85476Y-42582D01*
X85386Y-42799D01*
X85386Y-43034D01*
X85475Y-43251D01*
X85611Y-43386D01*
X85611Y-45440D01*
X85476Y-45574D01*
X85386Y-45791D01*
X85386Y-46026D01*
X85475Y-46243D01*
X85641Y-46409D01*
X85858Y-46499D01*
X86093Y-46499D01*
X86310Y-46409D01*
X86476Y-46244D01*
X86566Y-46027D01*
X86566Y-45792D01*
X86476Y-45575D01*
X86341Y-45439D01*
X86341Y-43386D01*
X86476Y-43251D01*
X86566Y-43035D01*
X86566Y-42800D01*
X86476Y-42583D01*
X86311Y-42417D01*
X86139Y-42346D01*
X86310Y-42276D01*
X86476Y-42110D01*
X86566Y-41893D01*
X86566Y-41658D01*
X86476Y-41441D01*
X86341Y-41306D01*
X86341Y-39252D01*
X86476Y-39118D01*
X86566Y-38901D01*
X86566Y-38666D01*
X86476Y-38449D01*
X86311Y-38283D01*
X86094Y-38193D01*
X85859Y-38193D01*
X85778Y-38227D01*
X85778Y-36783D01*
X85778Y-35405D01*
X84281Y-35405D01*
X84281Y-36783D01*
X85778Y-36783D01*
X85778Y-38227D01*
X85642Y-38283D01*
X85476Y-38448D01*
X85386Y-38665D01*
X85386Y-38900D01*
X85475Y-39117D01*
X85611Y-39252D01*
X85611Y-40966D01*
X84640Y-40966D01*
X84640Y-38674D01*
X84556Y-38470D01*
X84555Y-38469D01*
X84451Y-38448D01*
X84421Y-38478D01*
X84421Y-38418D01*
X84401Y-38314D01*
X84197Y-38229D01*
X83977Y-38229D01*
X83773Y-38313D01*
X83772Y-38314D01*
X83752Y-38418D01*
X84086Y-38753D01*
X84421Y-38418D01*
X84421Y-38478D01*
X84116Y-38783D01*
X84451Y-39118D01*
X84555Y-39097D01*
X84640Y-38894D01*
X84640Y-38674D01*
X84640Y-40966D01*
X84421Y-40966D01*
X84421Y-39148D01*
X84086Y-38813D01*
X84056Y-38843D01*
X84056Y-38783D01*
X83721Y-38448D01*
X83617Y-38469D01*
X83533Y-38672D01*
X83532Y-38892D01*
X83616Y-39096D01*
X83617Y-39097D01*
X83721Y-39118D01*
X84056Y-38783D01*
X84056Y-38843D01*
X83752Y-39148D01*
X83772Y-39252D01*
X83975Y-39337D01*
X84195Y-39337D01*
X84399Y-39253D01*
X84401Y-39252D01*
X84421Y-39148D01*
X84421Y-40966D01*
X82943Y-40966D01*
X82894Y-40975D01*
X82871Y-40920D01*
X82705Y-40754D01*
X82704Y-40753D01*
X82870Y-40588D01*
X82960Y-40371D01*
X82960Y-40137D01*
X82871Y-39920D01*
X82853Y-39902D01*
X83057Y-39698D01*
X83137Y-39580D01*
X83137Y-39580D01*
X83164Y-39440D01*
X83164Y-38683D01*
X83137Y-38543D01*
X83137Y-38543D01*
X83057Y-38425D01*
X82960Y-38327D01*
X82960Y-38137D01*
X82871Y-37920D01*
X82705Y-37754D01*
X82704Y-37753D01*
X82870Y-37588D01*
X82960Y-37371D01*
X82960Y-37137D01*
X82871Y-36920D01*
X82705Y-36754D01*
X82704Y-36753D01*
X82870Y-36588D01*
X82960Y-36371D01*
X82960Y-36137D01*
X82871Y-35920D01*
X82705Y-35754D01*
X82704Y-35753D01*
X82870Y-35588D01*
X82960Y-35371D01*
X82960Y-35137D01*
X82871Y-34920D01*
X82705Y-34754D01*
X82704Y-34753D01*
X82870Y-34588D01*
X82960Y-34371D01*
X82960Y-34137D01*
X82871Y-33920D01*
X82705Y-33754D01*
X82704Y-33753D01*
X82870Y-33588D01*
X82960Y-33371D01*
X82960Y-33137D01*
X82871Y-32920D01*
X82705Y-32754D01*
X82488Y-32664D01*
X82253Y-32663D01*
X82036Y-32753D01*
X81870Y-32919D01*
X81780Y-33136D01*
X81780Y-33147D01*
X80209Y-31576D01*
X87437Y-31576D01*
X87641Y-31617D01*
X87785Y-31714D01*
X87882Y-31858D01*
X87923Y-32062D01*
X87923Y-48532D01*
X87923Y-48532D01*
G37*
G54D31*
X87923Y-48532D02*
X87882Y-48735D01*
X87844Y-48792D01*
X87844Y-45051D01*
X87844Y-43673D01*
X87844Y-40917D01*
X87844Y-39539D01*
X87816Y-39539D01*
X87816Y-36783D01*
X87816Y-35405D01*
X87649Y-35405D01*
X87649Y-33531D01*
X87649Y-33406D01*
X87649Y-32067D01*
X87601Y-31951D01*
X87513Y-31862D01*
X87397Y-31814D01*
X87272Y-31814D01*
X85933Y-31814D01*
X85817Y-31862D01*
X85728Y-31951D01*
X85680Y-32067D01*
X85680Y-32192D01*
X85680Y-33531D01*
X85728Y-33647D01*
X85817Y-33735D01*
X85933Y-33783D01*
X86058Y-33783D01*
X87397Y-33783D01*
X87513Y-33735D01*
X87601Y-33647D01*
X87649Y-33531D01*
X87649Y-35405D01*
X86376Y-35405D01*
X86376Y-36783D01*
X87816Y-36783D01*
X87816Y-39539D01*
X86347Y-39539D01*
X86347Y-40917D01*
X87844Y-40917D01*
X87844Y-43673D01*
X86347Y-43673D01*
X86347Y-45051D01*
X87844Y-45051D01*
X87844Y-48792D01*
X87785Y-48880D01*
X87649Y-48971D01*
X87649Y-48491D01*
X87649Y-48366D01*
X87649Y-47027D01*
X87601Y-46911D01*
X87513Y-46823D01*
X87397Y-46775D01*
X87272Y-46775D01*
X85933Y-46775D01*
X85817Y-46823D01*
X85728Y-46911D01*
X85680Y-47027D01*
X85680Y-47152D01*
X85680Y-48491D01*
X85728Y-48607D01*
X85817Y-48696D01*
X85933Y-48744D01*
X86058Y-48744D01*
X87397Y-48744D01*
X87513Y-48696D01*
X87601Y-48607D01*
X87649Y-48491D01*
X87649Y-48971D01*
X87641Y-48977D01*
X87437Y-49017D01*
X84640Y-49017D01*
X84640Y-45800D01*
X84640Y-42808D01*
X84556Y-42604D01*
X84555Y-42602D01*
X84451Y-42582D01*
X84421Y-42612D01*
X84421Y-42552D01*
X84421Y-42140D01*
X84086Y-41805D01*
X83752Y-42140D01*
X83772Y-42244D01*
X83975Y-42329D01*
X84195Y-42329D01*
X84399Y-42245D01*
X84401Y-42244D01*
X84421Y-42140D01*
X84421Y-42552D01*
X84401Y-42448D01*
X84197Y-42363D01*
X83977Y-42363D01*
X83773Y-42447D01*
X83772Y-42448D01*
X83752Y-42552D01*
X84086Y-42887D01*
X84421Y-42552D01*
X84421Y-42612D01*
X84116Y-42917D01*
X84451Y-43251D01*
X84555Y-43231D01*
X84640Y-43028D01*
X84640Y-42808D01*
X84640Y-45800D01*
X84556Y-45596D01*
X84555Y-45595D01*
X84451Y-45574D01*
X84421Y-45604D01*
X84421Y-45544D01*
X84421Y-43281D01*
X84086Y-42947D01*
X84056Y-42977D01*
X84056Y-42917D01*
X83721Y-42582D01*
X83617Y-42602D01*
X83533Y-42806D01*
X83532Y-43026D01*
X83616Y-43230D01*
X83617Y-43231D01*
X83721Y-43251D01*
X84056Y-42917D01*
X84056Y-42977D01*
X83752Y-43281D01*
X83772Y-43386D01*
X83975Y-43470D01*
X84195Y-43471D01*
X84399Y-43387D01*
X84401Y-43386D01*
X84421Y-43281D01*
X84421Y-45544D01*
X84401Y-45440D01*
X84197Y-45355D01*
X83977Y-45355D01*
X83773Y-45439D01*
X83772Y-45440D01*
X83752Y-45544D01*
X84086Y-45879D01*
X84421Y-45544D01*
X84421Y-45604D01*
X84116Y-45909D01*
X84451Y-46244D01*
X84555Y-46223D01*
X84640Y-46020D01*
X84640Y-45800D01*
X84640Y-49017D01*
X84421Y-49017D01*
X84421Y-46274D01*
X84086Y-45939D01*
X84056Y-45969D01*
X84056Y-45909D01*
X83721Y-45574D01*
X83617Y-45595D01*
X83533Y-45798D01*
X83532Y-46018D01*
X83616Y-46222D01*
X83617Y-46223D01*
X83721Y-46244D01*
X84056Y-45909D01*
X84056Y-45969D01*
X83752Y-46274D01*
X83772Y-46378D01*
X83975Y-46463D01*
X84195Y-46463D01*
X84399Y-46379D01*
X84401Y-46378D01*
X84421Y-46274D01*
X84421Y-49017D01*
X82960Y-49017D01*
X82960Y-46137D01*
X82871Y-45920D01*
X82705Y-45754D01*
X82704Y-45753D01*
X82870Y-45588D01*
X82960Y-45371D01*
X82960Y-45137D01*
X82871Y-44920D01*
X82705Y-44754D01*
X82657Y-44734D01*
X82683Y-44723D01*
X82684Y-44722D01*
X82705Y-44618D01*
X82370Y-44284D01*
X82035Y-44618D01*
X82056Y-44722D01*
X82083Y-44734D01*
X82036Y-44753D01*
X81870Y-44919D01*
X81780Y-45136D01*
X81780Y-45370D01*
X81870Y-45587D01*
X82035Y-45753D01*
X82036Y-45753D01*
X81870Y-45919D01*
X81780Y-46136D01*
X81780Y-46370D01*
X81870Y-46587D01*
X81971Y-46689D01*
X81917Y-46711D01*
X81828Y-46800D01*
X81780Y-46916D01*
X81780Y-47041D01*
X81780Y-47591D01*
X81828Y-47707D01*
X81917Y-47795D01*
X82032Y-47843D01*
X82158Y-47843D01*
X82708Y-47843D01*
X82823Y-47795D01*
X82912Y-47707D01*
X82960Y-47591D01*
X82960Y-47466D01*
X82960Y-46916D01*
X82912Y-46800D01*
X82823Y-46711D01*
X82769Y-46689D01*
X82870Y-46588D01*
X82960Y-46371D01*
X82960Y-46137D01*
X82960Y-49017D01*
X81241Y-49017D01*
X81241Y-47984D01*
X80428Y-47984D01*
X80428Y-46412D01*
X80428Y-46353D01*
X80428Y-46311D01*
X80428Y-46252D01*
X80428Y-44542D01*
X80428Y-44483D01*
X80013Y-44483D01*
X80013Y-44887D01*
X80081Y-44948D01*
X80139Y-44932D01*
X80285Y-44845D01*
X80387Y-44708D01*
X80428Y-44542D01*
X80428Y-46252D01*
X80387Y-46087D01*
X80285Y-45950D01*
X80139Y-45862D01*
X80081Y-45846D01*
X80013Y-45907D01*
X80013Y-46311D01*
X80428Y-46311D01*
X80428Y-46353D01*
X80013Y-46353D01*
X80013Y-46757D01*
X80081Y-46818D01*
X80139Y-46802D01*
X80285Y-46715D01*
X80387Y-46578D01*
X80428Y-46412D01*
X80428Y-47984D01*
X79971Y-47984D01*
X79971Y-46757D01*
X79971Y-46353D01*
X79963Y-46353D01*
X79963Y-46311D01*
X79971Y-46311D01*
X79971Y-45907D01*
X79903Y-45846D01*
X79845Y-45862D01*
X79776Y-45903D01*
X79661Y-45826D01*
X79480Y-45790D01*
X79299Y-45826D01*
X79280Y-45839D01*
X79188Y-45801D01*
X79063Y-45801D01*
X78748Y-45801D01*
X78632Y-45849D01*
X78543Y-45937D01*
X78495Y-46053D01*
X78495Y-46178D01*
X78495Y-46611D01*
X78543Y-46727D01*
X78632Y-46816D01*
X78748Y-46864D01*
X78873Y-46864D01*
X79188Y-46864D01*
X79280Y-46825D01*
X79299Y-46838D01*
X79480Y-46874D01*
X79661Y-46838D01*
X79776Y-46761D01*
X79845Y-46802D01*
X79903Y-46818D01*
X79971Y-46757D01*
X79971Y-47984D01*
X77400Y-47984D01*
X77400Y-49017D01*
X76960Y-49017D01*
X76960Y-47137D01*
X76923Y-47049D01*
X76923Y-46144D01*
X76840Y-45941D01*
X76839Y-45939D01*
X76734Y-45919D01*
X76400Y-46253D01*
X76734Y-46588D01*
X76839Y-46568D01*
X76923Y-46364D01*
X76923Y-46144D01*
X76923Y-47049D01*
X76870Y-46920D01*
X76704Y-46754D01*
X76657Y-46734D01*
X76682Y-46723D01*
X76684Y-46722D01*
X76704Y-46618D01*
X76370Y-46284D01*
X76340Y-46314D01*
X76340Y-46253D01*
X76005Y-45919D01*
X75901Y-45939D01*
X75816Y-46142D01*
X75816Y-46363D01*
X75900Y-46566D01*
X75901Y-46568D01*
X76005Y-46588D01*
X76340Y-46253D01*
X76340Y-46314D01*
X76035Y-46618D01*
X76055Y-46722D01*
X76082Y-46734D01*
X76036Y-46753D01*
X75970Y-46819D01*
X75907Y-46726D01*
X75836Y-46678D01*
X75789Y-46608D01*
X75663Y-46523D01*
X75513Y-46494D01*
X75409Y-46514D01*
X75453Y-46407D01*
X75454Y-46181D01*
X75368Y-45971D01*
X75366Y-45968D01*
X75260Y-45946D01*
X75230Y-45976D01*
X75230Y-45916D01*
X75208Y-45810D01*
X74998Y-45723D01*
X74771Y-45722D01*
X74562Y-45808D01*
X74559Y-45810D01*
X74537Y-45916D01*
X74883Y-46262D01*
X75230Y-45916D01*
X75230Y-45976D01*
X74913Y-46293D01*
X74919Y-46298D01*
X74889Y-46328D01*
X74883Y-46323D01*
X74878Y-46328D01*
X74848Y-46298D01*
X74853Y-46293D01*
X74507Y-45946D01*
X74401Y-45968D01*
X74313Y-46178D01*
X74313Y-46404D01*
X74399Y-46614D01*
X74401Y-46617D01*
X74474Y-46632D01*
X74370Y-46737D01*
X74277Y-46959D01*
X74277Y-47201D01*
X74369Y-47424D01*
X74539Y-47594D01*
X74762Y-47687D01*
X75003Y-47687D01*
X75226Y-47595D01*
X75351Y-47471D01*
X75364Y-47480D01*
X75513Y-47509D01*
X75663Y-47480D01*
X75789Y-47395D01*
X75790Y-47395D01*
X75869Y-47587D01*
X76035Y-47753D01*
X76252Y-47843D01*
X76486Y-47843D01*
X76703Y-47754D01*
X76869Y-47588D01*
X76959Y-47371D01*
X76960Y-47137D01*
X76960Y-49017D01*
X73918Y-49017D01*
X73918Y-47298D01*
X73918Y-46862D01*
X73864Y-46591D01*
X73711Y-46361D01*
X73481Y-46208D01*
X73210Y-46154D01*
X72939Y-46208D01*
X72709Y-46361D01*
X72555Y-46591D01*
X72501Y-46862D01*
X72501Y-47298D01*
X72555Y-47569D01*
X72709Y-47799D01*
X72939Y-47953D01*
X73210Y-48006D01*
X73481Y-47953D01*
X73711Y-47799D01*
X73864Y-47569D01*
X73918Y-47298D01*
X73918Y-49017D01*
X71914Y-49017D01*
X71914Y-47301D01*
X71914Y-47101D01*
X71914Y-47059D01*
X71914Y-46859D01*
X71855Y-46603D01*
X71702Y-46390D01*
X71479Y-46251D01*
X71368Y-46220D01*
X71263Y-46278D01*
X71263Y-47059D01*
X71914Y-47059D01*
X71914Y-47101D01*
X71263Y-47101D01*
X71263Y-47882D01*
X71368Y-47941D01*
X71479Y-47909D01*
X71702Y-47771D01*
X71855Y-47557D01*
X71914Y-47301D01*
X71914Y-49017D01*
X71221Y-49017D01*
X71221Y-47882D01*
X71221Y-47101D01*
X71221Y-47059D01*
X71221Y-46278D01*
X71116Y-46220D01*
X71004Y-46251D01*
X70782Y-46390D01*
X70629Y-46603D01*
X70570Y-46859D01*
X70570Y-47059D01*
X71221Y-47059D01*
X71221Y-47101D01*
X70570Y-47101D01*
X70570Y-47301D01*
X70629Y-47557D01*
X70782Y-47771D01*
X71004Y-47909D01*
X71116Y-47941D01*
X71221Y-47882D01*
X71221Y-49017D01*
X70104Y-49017D01*
X70104Y-45240D01*
X70104Y-44987D01*
X70073Y-44876D01*
X69934Y-44653D01*
X69720Y-44500D01*
X69465Y-44441D01*
X69265Y-44441D01*
X69265Y-45092D01*
X70046Y-45092D01*
X70104Y-44987D01*
X70104Y-45240D01*
X70046Y-45135D01*
X69265Y-45135D01*
X69265Y-45786D01*
X69465Y-45786D01*
X69720Y-45726D01*
X69934Y-45574D01*
X70073Y-45351D01*
X70104Y-45240D01*
X70104Y-49017D01*
X69222Y-49017D01*
X69222Y-45786D01*
X69222Y-45135D01*
X69222Y-45092D01*
X69222Y-44441D01*
X69022Y-44441D01*
X68767Y-44500D01*
X68553Y-44653D01*
X68414Y-44876D01*
X68383Y-44987D01*
X68441Y-45092D01*
X69222Y-45092D01*
X69222Y-45135D01*
X68441Y-45135D01*
X68383Y-45240D01*
X68414Y-45351D01*
X68553Y-45574D01*
X68767Y-45726D01*
X69022Y-45786D01*
X69222Y-45786D01*
X69222Y-49017D01*
X69145Y-49017D01*
X69145Y-48491D01*
X69145Y-48366D01*
X69145Y-47027D01*
X69097Y-46911D01*
X69009Y-46823D01*
X68893Y-46775D01*
X68768Y-46775D01*
X67429Y-46775D01*
X67313Y-46823D01*
X67224Y-46911D01*
X67176Y-47027D01*
X67176Y-47152D01*
X67176Y-48491D01*
X67224Y-48607D01*
X67313Y-48696D01*
X67429Y-48744D01*
X67554Y-48744D01*
X68893Y-48744D01*
X69009Y-48696D01*
X69097Y-48607D01*
X69145Y-48491D01*
X69145Y-49017D01*
X67424Y-49017D01*
X67220Y-48977D01*
X67076Y-48880D01*
X66979Y-48735D01*
X66938Y-48532D01*
X66938Y-32062D01*
X66979Y-31858D01*
X67076Y-31714D01*
X67220Y-31617D01*
X67424Y-31576D01*
X72763Y-31576D01*
X72554Y-31786D01*
X72545Y-31778D01*
X72319Y-31684D01*
X72075Y-31684D01*
X71848Y-31777D01*
X71696Y-31929D01*
X71545Y-31778D01*
X71319Y-31684D01*
X71075Y-31684D01*
X70848Y-31777D01*
X70675Y-31950D01*
X70669Y-31966D01*
X70579Y-31946D01*
X70549Y-31976D01*
X70549Y-31916D01*
X70526Y-31809D01*
X70313Y-31720D01*
X70083Y-31720D01*
X69870Y-31807D01*
X69867Y-31809D01*
X69844Y-31916D01*
X70196Y-32269D01*
X70549Y-31916D01*
X70549Y-31976D01*
X70226Y-32299D01*
X70579Y-32651D01*
X70669Y-32632D01*
X70675Y-32647D01*
X70827Y-32799D01*
X70675Y-32950D01*
X70669Y-32966D01*
X70579Y-32946D01*
X70549Y-32976D01*
X70549Y-32916D01*
X70526Y-32809D01*
X70502Y-32799D01*
X70523Y-32790D01*
X70526Y-32788D01*
X70549Y-32681D01*
X70196Y-32329D01*
X70166Y-32359D01*
X70166Y-32299D01*
X69814Y-31946D01*
X69707Y-31969D01*
X69618Y-32182D01*
X69617Y-32412D01*
X69705Y-32625D01*
X69707Y-32628D01*
X69814Y-32651D01*
X70166Y-32299D01*
X70166Y-32359D01*
X69844Y-32681D01*
X69867Y-32788D01*
X69891Y-32798D01*
X69870Y-32807D01*
X69867Y-32809D01*
X69844Y-32916D01*
X70196Y-33269D01*
X70549Y-32916D01*
X70549Y-32976D01*
X70226Y-33299D01*
X70579Y-33651D01*
X70669Y-33632D01*
X70675Y-33647D01*
X70848Y-33820D01*
X71073Y-33914D01*
X71295Y-33914D01*
X75270Y-37888D01*
X71845Y-37888D01*
X70549Y-36592D01*
X70549Y-33681D01*
X70196Y-33329D01*
X70166Y-33359D01*
X70166Y-33299D01*
X69814Y-32946D01*
X69707Y-32969D01*
X69618Y-33182D01*
X69617Y-33412D01*
X69705Y-33625D01*
X69707Y-33628D01*
X69814Y-33651D01*
X70166Y-33299D01*
X70166Y-33359D01*
X69844Y-33681D01*
X69867Y-33788D01*
X70079Y-33877D01*
X70310Y-33878D01*
X70523Y-33790D01*
X70526Y-33788D01*
X70549Y-33681D01*
X70549Y-36592D01*
X69815Y-35859D01*
X69962Y-35761D01*
X70116Y-35531D01*
X70170Y-35260D01*
X70116Y-34988D01*
X69962Y-34759D01*
X69733Y-34605D01*
X69461Y-34551D01*
X69145Y-34551D01*
X69145Y-33531D01*
X69145Y-33406D01*
X69145Y-32067D01*
X69097Y-31951D01*
X69009Y-31862D01*
X68893Y-31814D01*
X68768Y-31814D01*
X67429Y-31814D01*
X67313Y-31862D01*
X67224Y-31951D01*
X67176Y-32067D01*
X67176Y-32192D01*
X67176Y-33531D01*
X67224Y-33647D01*
X67313Y-33735D01*
X67429Y-33783D01*
X67554Y-33783D01*
X68893Y-33783D01*
X69009Y-33735D01*
X69097Y-33647D01*
X69145Y-33531D01*
X69145Y-34551D01*
X69026Y-34551D01*
X68755Y-34605D01*
X68525Y-34759D01*
X68371Y-34988D01*
X68317Y-35260D01*
X68371Y-35531D01*
X68525Y-35761D01*
X68755Y-35914D01*
X68908Y-35945D01*
X68908Y-35945D01*
X68986Y-36061D01*
X69484Y-36560D01*
X69465Y-36555D01*
X69265Y-36555D01*
X69265Y-37206D01*
X70046Y-37206D01*
X70076Y-37152D01*
X71436Y-38512D01*
X71554Y-38591D01*
X71554Y-38591D01*
X71694Y-38618D01*
X75900Y-38618D01*
X76035Y-38753D01*
X76035Y-38753D01*
X75870Y-38919D01*
X75780Y-39136D01*
X75780Y-39370D01*
X75869Y-39587D01*
X76035Y-39753D01*
X76035Y-39753D01*
X75870Y-39919D01*
X75780Y-40136D01*
X75780Y-40327D01*
X73326Y-42780D01*
X70170Y-42780D01*
X70170Y-39197D01*
X70116Y-38925D01*
X70104Y-38907D01*
X70104Y-37354D01*
X70046Y-37249D01*
X69265Y-37249D01*
X69265Y-37900D01*
X69465Y-37900D01*
X69720Y-37841D01*
X69934Y-37688D01*
X70073Y-37465D01*
X70104Y-37354D01*
X70104Y-38907D01*
X69962Y-38696D01*
X69733Y-38542D01*
X69461Y-38488D01*
X69222Y-38488D01*
X69222Y-37900D01*
X69222Y-37249D01*
X69222Y-37206D01*
X69222Y-36555D01*
X69022Y-36555D01*
X68767Y-36615D01*
X68553Y-36767D01*
X68414Y-36990D01*
X68383Y-37101D01*
X68441Y-37206D01*
X69222Y-37206D01*
X69222Y-37249D01*
X68441Y-37249D01*
X68383Y-37354D01*
X68414Y-37465D01*
X68553Y-37688D01*
X68767Y-37841D01*
X69022Y-37900D01*
X69222Y-37900D01*
X69222Y-38488D01*
X69026Y-38488D01*
X68755Y-38542D01*
X68525Y-38696D01*
X68371Y-38925D01*
X68317Y-39197D01*
X68371Y-39468D01*
X68525Y-39698D01*
X68755Y-39851D01*
X69026Y-39905D01*
X69461Y-39905D01*
X69733Y-39851D01*
X69962Y-39698D01*
X70116Y-39468D01*
X70170Y-39197D01*
X70170Y-42780D01*
X70104Y-42780D01*
X70104Y-41291D01*
X70104Y-41038D01*
X70073Y-40927D01*
X69934Y-40704D01*
X69720Y-40552D01*
X69465Y-40492D01*
X69265Y-40492D01*
X69265Y-41143D01*
X70046Y-41143D01*
X70104Y-41038D01*
X70104Y-41291D01*
X70046Y-41186D01*
X69265Y-41186D01*
X69265Y-41837D01*
X69465Y-41837D01*
X69720Y-41778D01*
X69934Y-41625D01*
X70073Y-41402D01*
X70104Y-41291D01*
X70104Y-42780D01*
X70053Y-42780D01*
X69962Y-42644D01*
X69733Y-42491D01*
X69461Y-42437D01*
X69222Y-42437D01*
X69222Y-41837D01*
X69222Y-41186D01*
X69222Y-41143D01*
X69222Y-40492D01*
X69022Y-40492D01*
X68767Y-40552D01*
X68553Y-40704D01*
X68414Y-40927D01*
X68383Y-41038D01*
X68441Y-41143D01*
X69222Y-41143D01*
X69222Y-41186D01*
X68441Y-41186D01*
X68383Y-41291D01*
X68414Y-41402D01*
X68553Y-41625D01*
X68767Y-41778D01*
X69022Y-41837D01*
X69222Y-41837D01*
X69222Y-42437D01*
X69026Y-42437D01*
X68755Y-42491D01*
X68525Y-42644D01*
X68371Y-42874D01*
X68317Y-43145D01*
X68371Y-43417D01*
X68525Y-43646D01*
X68755Y-43800D01*
X69026Y-43854D01*
X69461Y-43854D01*
X69733Y-43800D01*
X69962Y-43646D01*
X70053Y-43510D01*
X73478Y-43510D01*
X73617Y-43483D01*
X73617Y-43483D01*
X73736Y-43403D01*
X75591Y-41548D01*
X75594Y-41566D01*
X75674Y-41684D01*
X75889Y-41900D01*
X75870Y-41919D01*
X75780Y-42136D01*
X75780Y-42370D01*
X75869Y-42587D01*
X76035Y-42753D01*
X76035Y-42753D01*
X75870Y-42919D01*
X75780Y-43136D01*
X75780Y-43370D01*
X75869Y-43587D01*
X76035Y-43753D01*
X76035Y-43753D01*
X75870Y-43919D01*
X75780Y-44136D01*
X75780Y-44370D01*
X75869Y-44587D01*
X76035Y-44753D01*
X76035Y-44753D01*
X75870Y-44919D01*
X75780Y-45136D01*
X75780Y-45370D01*
X75869Y-45587D01*
X76035Y-45753D01*
X76082Y-45773D01*
X76057Y-45783D01*
X76055Y-45785D01*
X76035Y-45889D01*
X76370Y-46223D01*
X76704Y-45889D01*
X76684Y-45785D01*
X76657Y-45773D01*
X76703Y-45754D01*
X76869Y-45588D01*
X76959Y-45371D01*
X76960Y-45137D01*
X76870Y-44920D01*
X76704Y-44754D01*
X76704Y-44753D01*
X76869Y-44588D01*
X76959Y-44371D01*
X76960Y-44137D01*
X76870Y-43920D01*
X76704Y-43754D01*
X76704Y-43753D01*
X76869Y-43588D01*
X76959Y-43371D01*
X76960Y-43137D01*
X76870Y-42920D01*
X76704Y-42754D01*
X76704Y-42753D01*
X76869Y-42588D01*
X76880Y-42563D01*
X77828Y-43512D01*
X77947Y-43591D01*
X77947Y-43591D01*
X78087Y-43618D01*
X79807Y-43618D01*
X79501Y-43924D01*
X79480Y-43920D01*
X79299Y-43956D01*
X79280Y-43969D01*
X79188Y-43931D01*
X79063Y-43931D01*
X78748Y-43931D01*
X78632Y-43979D01*
X78543Y-44067D01*
X78495Y-44183D01*
X78495Y-44308D01*
X78495Y-44741D01*
X78543Y-44857D01*
X78632Y-44946D01*
X78748Y-44994D01*
X78873Y-44994D01*
X79188Y-44994D01*
X79280Y-44955D01*
X79299Y-44968D01*
X79480Y-45004D01*
X79661Y-44968D01*
X79776Y-44891D01*
X79845Y-44932D01*
X79903Y-44948D01*
X79971Y-44887D01*
X79971Y-44487D01*
X80017Y-44441D01*
X80428Y-44441D01*
X80428Y-44382D01*
X80387Y-44216D01*
X80325Y-44133D01*
X80340Y-44118D01*
X81826Y-44118D01*
X81817Y-44142D01*
X81816Y-44363D01*
X81900Y-44566D01*
X81901Y-44568D01*
X82005Y-44588D01*
X82340Y-44253D01*
X82334Y-44248D01*
X82364Y-44218D01*
X82370Y-44223D01*
X82376Y-44218D01*
X82406Y-44248D01*
X82400Y-44253D01*
X82735Y-44588D01*
X82839Y-44568D01*
X82924Y-44364D01*
X82924Y-44144D01*
X82840Y-43941D01*
X82839Y-43939D01*
X82808Y-43933D01*
X83053Y-43688D01*
X83132Y-43569D01*
X83132Y-43569D01*
X83160Y-43430D01*
X83160Y-42679D01*
X83132Y-42539D01*
X83132Y-42539D01*
X83053Y-42421D01*
X82960Y-42327D01*
X82960Y-42137D01*
X82871Y-41920D01*
X82870Y-41919D01*
X83094Y-41696D01*
X83533Y-41696D01*
X83532Y-41884D01*
X83616Y-42088D01*
X83617Y-42090D01*
X83721Y-42110D01*
X84056Y-41775D01*
X84050Y-41770D01*
X84081Y-41739D01*
X84086Y-41745D01*
X84092Y-41739D01*
X84122Y-41770D01*
X84116Y-41775D01*
X84451Y-42110D01*
X84555Y-42090D01*
X84640Y-41886D01*
X84640Y-41696D01*
X85386Y-41696D01*
X85386Y-41892D01*
X85475Y-42109D01*
X85641Y-42275D01*
X85812Y-42346D01*
X85642Y-42416D01*
X85476Y-42582D01*
X85386Y-42799D01*
X85386Y-43034D01*
X85475Y-43251D01*
X85611Y-43386D01*
X85611Y-45440D01*
X85476Y-45574D01*
X85386Y-45791D01*
X85386Y-46026D01*
X85475Y-46243D01*
X85641Y-46409D01*
X85858Y-46499D01*
X86093Y-46499D01*
X86310Y-46409D01*
X86476Y-46244D01*
X86566Y-46027D01*
X86566Y-45792D01*
X86476Y-45575D01*
X86341Y-45439D01*
X86341Y-43386D01*
X86476Y-43251D01*
X86566Y-43035D01*
X86566Y-42800D01*
X86476Y-42583D01*
X86311Y-42417D01*
X86139Y-42346D01*
X86310Y-42276D01*
X86476Y-42110D01*
X86566Y-41893D01*
X86566Y-41658D01*
X86476Y-41441D01*
X86341Y-41306D01*
X86341Y-39252D01*
X86476Y-39118D01*
X86566Y-38901D01*
X86566Y-38666D01*
X86476Y-38449D01*
X86311Y-38283D01*
X86094Y-38193D01*
X85859Y-38193D01*
X85778Y-38227D01*
X85778Y-36783D01*
X85778Y-35405D01*
X84281Y-35405D01*
X84281Y-36783D01*
X85778Y-36783D01*
X85778Y-38227D01*
X85642Y-38283D01*
X85476Y-38448D01*
X85386Y-38665D01*
X85386Y-38900D01*
X85475Y-39117D01*
X85611Y-39252D01*
X85611Y-40966D01*
X84640Y-40966D01*
X84640Y-38674D01*
X84556Y-38470D01*
X84555Y-38469D01*
X84451Y-38448D01*
X84421Y-38478D01*
X84421Y-38418D01*
X84401Y-38314D01*
X84197Y-38229D01*
X83977Y-38229D01*
X83773Y-38313D01*
X83772Y-38314D01*
X83752Y-38418D01*
X84086Y-38753D01*
X84421Y-38418D01*
X84421Y-38478D01*
X84116Y-38783D01*
X84451Y-39118D01*
X84555Y-39097D01*
X84640Y-38894D01*
X84640Y-38674D01*
X84640Y-40966D01*
X84421Y-40966D01*
X84421Y-39148D01*
X84086Y-38813D01*
X84056Y-38843D01*
X84056Y-38783D01*
X83721Y-38448D01*
X83617Y-38469D01*
X83533Y-38672D01*
X83532Y-38892D01*
X83616Y-39096D01*
X83617Y-39097D01*
X83721Y-39118D01*
X84056Y-38783D01*
X84056Y-38843D01*
X83752Y-39148D01*
X83772Y-39252D01*
X83975Y-39337D01*
X84195Y-39337D01*
X84399Y-39253D01*
X84401Y-39252D01*
X84421Y-39148D01*
X84421Y-40966D01*
X82943Y-40966D01*
X82894Y-40975D01*
X82871Y-40920D01*
X82705Y-40754D01*
X82704Y-40753D01*
X82870Y-40588D01*
X82960Y-40371D01*
X82960Y-40137D01*
X82871Y-39920D01*
X82853Y-39902D01*
X83057Y-39698D01*
X83137Y-39580D01*
X83137Y-39580D01*
X83164Y-39440D01*
X83164Y-38683D01*
X83137Y-38543D01*
X83137Y-38543D01*
X83057Y-38425D01*
X82960Y-38327D01*
X82960Y-38137D01*
X82871Y-37920D01*
X82705Y-37754D01*
X82704Y-37753D01*
X82870Y-37588D01*
X82960Y-37371D01*
X82960Y-37137D01*
X82871Y-36920D01*
X82705Y-36754D01*
X82704Y-36753D01*
X82870Y-36588D01*
X82960Y-36371D01*
X82960Y-36137D01*
X82871Y-35920D01*
X82705Y-35754D01*
X82704Y-35753D01*
X82870Y-35588D01*
X82960Y-35371D01*
X82960Y-35137D01*
X82871Y-34920D01*
X82705Y-34754D01*
X82704Y-34753D01*
X82870Y-34588D01*
X82960Y-34371D01*
X82960Y-34137D01*
X82871Y-33920D01*
X82705Y-33754D01*
X82704Y-33753D01*
X82870Y-33588D01*
X82960Y-33371D01*
X82960Y-33137D01*
X82871Y-32920D01*
X82705Y-32754D01*
X82488Y-32664D01*
X82253Y-32663D01*
X82036Y-32753D01*
X81870Y-32919D01*
X81780Y-33136D01*
X81780Y-33147D01*
X80209Y-31576D01*
X87437Y-31576D01*
X87641Y-31617D01*
X87785Y-31714D01*
X87882Y-31858D01*
X87923Y-32062D01*
X87923Y-48532D01*
M02*
