%FSLAX34Y34*%
G04 Gerber Fmt 3.4, Leading zero omitted, Abs format*
G04 (created by PCBNEW (2014-03-19 BZR 4756)-product) date Sat 05 Jul 2014 22:59:34 BST*
%MOIN*%
G01*
G70*
G90*
G04 APERTURE LIST*
%ADD10C,0.005906*%
%ADD11C,0.004921*%
%ADD12C,0.015000*%
%ADD13C,0.010000*%
%ADD14C,0.003000*%
%ADD15C,0.012000*%
%ADD16C,0.003500*%
G04 APERTURE END LIST*
G54D10*
X73177Y-36022D02*
X72941Y-36022D01*
X72941Y-36112D01*
X72952Y-36135D01*
X72964Y-36146D01*
X72986Y-36157D01*
X73020Y-36157D01*
X73042Y-36146D01*
X73053Y-36135D01*
X73065Y-36112D01*
X73065Y-36022D01*
X73020Y-36360D02*
X73177Y-36360D01*
X73020Y-36258D02*
X73143Y-36258D01*
X73166Y-36270D01*
X73177Y-36292D01*
X73177Y-36326D01*
X73166Y-36348D01*
X73155Y-36360D01*
X73177Y-36472D02*
X73020Y-36472D01*
X73042Y-36472D02*
X73031Y-36483D01*
X73020Y-36506D01*
X73020Y-36540D01*
X73031Y-36562D01*
X73053Y-36573D01*
X73177Y-36573D01*
X73053Y-36573D02*
X73031Y-36585D01*
X73020Y-36607D01*
X73020Y-36641D01*
X73031Y-36663D01*
X73053Y-36675D01*
X73177Y-36675D01*
X73020Y-36787D02*
X73256Y-36787D01*
X73031Y-36787D02*
X73020Y-36810D01*
X73020Y-36855D01*
X73031Y-36877D01*
X73042Y-36888D01*
X73065Y-36900D01*
X73132Y-36900D01*
X73155Y-36888D01*
X73166Y-36877D01*
X73177Y-36855D01*
X73177Y-36810D01*
X73166Y-36787D01*
X73567Y-36022D02*
X73331Y-36022D01*
X73331Y-36112D01*
X73342Y-36135D01*
X73353Y-36146D01*
X73376Y-36157D01*
X73410Y-36157D01*
X73432Y-36146D01*
X73443Y-36135D01*
X73455Y-36112D01*
X73455Y-36022D01*
X73477Y-36258D02*
X73477Y-36438D01*
X73556Y-36540D02*
X73567Y-36573D01*
X73567Y-36630D01*
X73556Y-36652D01*
X73544Y-36663D01*
X73522Y-36675D01*
X73500Y-36675D01*
X73477Y-36663D01*
X73466Y-36652D01*
X73455Y-36630D01*
X73443Y-36585D01*
X73432Y-36562D01*
X73421Y-36551D01*
X73398Y-36540D01*
X73376Y-36540D01*
X73353Y-36551D01*
X73342Y-36562D01*
X73331Y-36585D01*
X73331Y-36641D01*
X73342Y-36675D01*
X73331Y-36753D02*
X73567Y-36810D01*
X73398Y-36855D01*
X73567Y-36900D01*
X73331Y-36956D01*
X73957Y-36135D02*
X73957Y-36022D01*
X73721Y-36022D01*
X73957Y-36214D02*
X73799Y-36214D01*
X73721Y-36214D02*
X73732Y-36202D01*
X73743Y-36214D01*
X73732Y-36225D01*
X73721Y-36214D01*
X73743Y-36214D01*
X73799Y-36427D02*
X73991Y-36427D01*
X74013Y-36416D01*
X74024Y-36405D01*
X74035Y-36382D01*
X74035Y-36348D01*
X74024Y-36326D01*
X73946Y-36427D02*
X73957Y-36405D01*
X73957Y-36360D01*
X73946Y-36337D01*
X73934Y-36326D01*
X73912Y-36315D01*
X73844Y-36315D01*
X73822Y-36326D01*
X73811Y-36337D01*
X73799Y-36360D01*
X73799Y-36405D01*
X73811Y-36427D01*
X73957Y-36540D02*
X73721Y-36540D01*
X73957Y-36641D02*
X73833Y-36641D01*
X73811Y-36630D01*
X73799Y-36607D01*
X73799Y-36573D01*
X73811Y-36551D01*
X73822Y-36540D01*
X73799Y-36720D02*
X73799Y-36810D01*
X73721Y-36753D02*
X73923Y-36753D01*
X73946Y-36765D01*
X73957Y-36787D01*
X73957Y-36810D01*
X74347Y-36135D02*
X74347Y-36022D01*
X74110Y-36022D01*
X74257Y-36214D02*
X74257Y-36393D01*
X74335Y-36495D02*
X74347Y-36528D01*
X74347Y-36585D01*
X74335Y-36607D01*
X74324Y-36618D01*
X74302Y-36630D01*
X74279Y-36630D01*
X74257Y-36618D01*
X74245Y-36607D01*
X74234Y-36585D01*
X74223Y-36540D01*
X74212Y-36517D01*
X74200Y-36506D01*
X74178Y-36495D01*
X74155Y-36495D01*
X74133Y-36506D01*
X74122Y-36517D01*
X74110Y-36540D01*
X74110Y-36596D01*
X74122Y-36630D01*
X74110Y-36708D02*
X74347Y-36765D01*
X74178Y-36810D01*
X74347Y-36855D01*
X74110Y-36911D01*
X74613Y-36022D02*
X74613Y-36101D01*
X74736Y-36135D02*
X74736Y-36022D01*
X74500Y-36022D01*
X74500Y-36135D01*
X74736Y-36236D02*
X74579Y-36236D01*
X74624Y-36236D02*
X74601Y-36247D01*
X74590Y-36258D01*
X74579Y-36281D01*
X74579Y-36303D01*
X74736Y-36382D02*
X74579Y-36382D01*
X74624Y-36382D02*
X74601Y-36393D01*
X74590Y-36405D01*
X74579Y-36427D01*
X74579Y-36450D01*
X74736Y-36562D02*
X74725Y-36540D01*
X74714Y-36528D01*
X74691Y-36517D01*
X74624Y-36517D01*
X74601Y-36528D01*
X74590Y-36540D01*
X74579Y-36562D01*
X74579Y-36596D01*
X74590Y-36618D01*
X74601Y-36630D01*
X74624Y-36641D01*
X74691Y-36641D01*
X74714Y-36630D01*
X74725Y-36618D01*
X74736Y-36596D01*
X74736Y-36562D01*
X74736Y-36742D02*
X74579Y-36742D01*
X74624Y-36742D02*
X74601Y-36753D01*
X74590Y-36765D01*
X74579Y-36787D01*
X74579Y-36810D01*
X75126Y-36135D02*
X75126Y-36022D01*
X74890Y-36022D01*
X75126Y-36214D02*
X74969Y-36214D01*
X74890Y-36214D02*
X74901Y-36202D01*
X74912Y-36214D01*
X74901Y-36225D01*
X74890Y-36214D01*
X74912Y-36214D01*
X74969Y-36326D02*
X75126Y-36326D01*
X74991Y-36326D02*
X74980Y-36337D01*
X74969Y-36360D01*
X74969Y-36393D01*
X74980Y-36416D01*
X75002Y-36427D01*
X75126Y-36427D01*
X75126Y-36540D02*
X74890Y-36540D01*
X75036Y-36562D02*
X75126Y-36630D01*
X74969Y-36630D02*
X75059Y-36540D01*
X73177Y-37372D02*
X72941Y-37372D01*
X72941Y-37428D01*
X72952Y-37462D01*
X72975Y-37485D01*
X72997Y-37496D01*
X73042Y-37507D01*
X73076Y-37507D01*
X73121Y-37496D01*
X73143Y-37485D01*
X73166Y-37462D01*
X73177Y-37428D01*
X73177Y-37372D01*
X72941Y-37710D02*
X72941Y-37665D01*
X72952Y-37642D01*
X72964Y-37631D01*
X72997Y-37608D01*
X73042Y-37597D01*
X73132Y-37597D01*
X73155Y-37608D01*
X73166Y-37620D01*
X73177Y-37642D01*
X73177Y-37687D01*
X73166Y-37710D01*
X73155Y-37721D01*
X73132Y-37732D01*
X73076Y-37732D01*
X73053Y-37721D01*
X73042Y-37710D01*
X73031Y-37687D01*
X73031Y-37642D01*
X73042Y-37620D01*
X73053Y-37608D01*
X73076Y-37597D01*
X73500Y-37395D02*
X73500Y-37507D01*
X73567Y-37372D02*
X73331Y-37451D01*
X73567Y-37530D01*
X73331Y-37710D02*
X73331Y-37665D01*
X73342Y-37642D01*
X73353Y-37631D01*
X73387Y-37608D01*
X73432Y-37597D01*
X73522Y-37597D01*
X73544Y-37608D01*
X73556Y-37620D01*
X73567Y-37642D01*
X73567Y-37687D01*
X73556Y-37710D01*
X73544Y-37721D01*
X73522Y-37732D01*
X73466Y-37732D01*
X73443Y-37721D01*
X73432Y-37710D01*
X73421Y-37687D01*
X73421Y-37642D01*
X73432Y-37620D01*
X73443Y-37608D01*
X73466Y-37597D01*
X73957Y-37372D02*
X73721Y-37372D01*
X73721Y-37428D01*
X73732Y-37462D01*
X73754Y-37485D01*
X73777Y-37496D01*
X73822Y-37507D01*
X73856Y-37507D01*
X73901Y-37496D01*
X73923Y-37485D01*
X73946Y-37462D01*
X73957Y-37428D01*
X73957Y-37372D01*
X73721Y-37586D02*
X73721Y-37743D01*
X73957Y-37642D01*
X74279Y-37395D02*
X74279Y-37507D01*
X74347Y-37372D02*
X74110Y-37451D01*
X74347Y-37530D01*
X74110Y-37721D02*
X74110Y-37608D01*
X74223Y-37597D01*
X74212Y-37608D01*
X74200Y-37631D01*
X74200Y-37687D01*
X74212Y-37710D01*
X74223Y-37721D01*
X74245Y-37732D01*
X74302Y-37732D01*
X74324Y-37721D01*
X74335Y-37710D01*
X74347Y-37687D01*
X74347Y-37631D01*
X74335Y-37608D01*
X74324Y-37597D01*
X74736Y-37372D02*
X74500Y-37372D01*
X74500Y-37428D01*
X74511Y-37462D01*
X74534Y-37485D01*
X74556Y-37496D01*
X74601Y-37507D01*
X74635Y-37507D01*
X74680Y-37496D01*
X74703Y-37485D01*
X74725Y-37462D01*
X74736Y-37428D01*
X74736Y-37372D01*
X74601Y-37642D02*
X74590Y-37620D01*
X74579Y-37608D01*
X74556Y-37597D01*
X74545Y-37597D01*
X74523Y-37608D01*
X74511Y-37620D01*
X74500Y-37642D01*
X74500Y-37687D01*
X74511Y-37710D01*
X74523Y-37721D01*
X74545Y-37732D01*
X74556Y-37732D01*
X74579Y-37721D01*
X74590Y-37710D01*
X74601Y-37687D01*
X74601Y-37642D01*
X74613Y-37620D01*
X74624Y-37608D01*
X74646Y-37597D01*
X74691Y-37597D01*
X74714Y-37608D01*
X74725Y-37620D01*
X74736Y-37642D01*
X74736Y-37687D01*
X74725Y-37710D01*
X74714Y-37721D01*
X74691Y-37732D01*
X74646Y-37732D01*
X74624Y-37721D01*
X74613Y-37710D01*
X74601Y-37687D01*
X75059Y-37395D02*
X75059Y-37507D01*
X75126Y-37372D02*
X74890Y-37451D01*
X75126Y-37530D01*
X74890Y-37586D02*
X74890Y-37743D01*
X75126Y-37642D01*
X73215Y-39419D02*
X72978Y-39419D01*
X72978Y-39476D01*
X72990Y-39509D01*
X73012Y-39532D01*
X73035Y-39543D01*
X73080Y-39554D01*
X73113Y-39554D01*
X73158Y-39543D01*
X73181Y-39532D01*
X73203Y-39509D01*
X73215Y-39476D01*
X73215Y-39419D01*
X73057Y-39757D02*
X73215Y-39757D01*
X72967Y-39701D02*
X73136Y-39644D01*
X73136Y-39791D01*
X73604Y-39419D02*
X73368Y-39419D01*
X73368Y-39476D01*
X73379Y-39509D01*
X73402Y-39532D01*
X73424Y-39543D01*
X73469Y-39554D01*
X73503Y-39554D01*
X73548Y-39543D01*
X73571Y-39532D01*
X73593Y-39509D01*
X73604Y-39476D01*
X73604Y-39419D01*
X73368Y-39768D02*
X73368Y-39656D01*
X73481Y-39644D01*
X73469Y-39656D01*
X73458Y-39678D01*
X73458Y-39734D01*
X73469Y-39757D01*
X73481Y-39768D01*
X73503Y-39779D01*
X73559Y-39779D01*
X73582Y-39768D01*
X73593Y-39757D01*
X73604Y-39734D01*
X73604Y-39678D01*
X73593Y-39656D01*
X73582Y-39644D01*
X73927Y-39442D02*
X73927Y-39554D01*
X73994Y-39419D02*
X73758Y-39498D01*
X73994Y-39577D01*
X73994Y-39779D02*
X73994Y-39644D01*
X73994Y-39712D02*
X73758Y-39712D01*
X73792Y-39689D01*
X73814Y-39667D01*
X73825Y-39644D01*
X74316Y-39442D02*
X74316Y-39554D01*
X74384Y-39419D02*
X74148Y-39498D01*
X74384Y-39577D01*
X74148Y-39701D02*
X74148Y-39723D01*
X74159Y-39746D01*
X74170Y-39757D01*
X74193Y-39768D01*
X74238Y-39779D01*
X74294Y-39779D01*
X74339Y-39768D01*
X74361Y-39757D01*
X74373Y-39746D01*
X74384Y-39723D01*
X74384Y-39701D01*
X74373Y-39678D01*
X74361Y-39667D01*
X74339Y-39656D01*
X74294Y-39644D01*
X74238Y-39644D01*
X74193Y-39656D01*
X74170Y-39667D01*
X74159Y-39678D01*
X74148Y-39701D01*
X74774Y-39419D02*
X74537Y-39419D01*
X74537Y-39476D01*
X74549Y-39509D01*
X74571Y-39532D01*
X74594Y-39543D01*
X74639Y-39554D01*
X74672Y-39554D01*
X74717Y-39543D01*
X74740Y-39532D01*
X74762Y-39509D01*
X74774Y-39476D01*
X74774Y-39419D01*
X74537Y-39633D02*
X74537Y-39779D01*
X74627Y-39701D01*
X74627Y-39734D01*
X74639Y-39757D01*
X74650Y-39768D01*
X74672Y-39779D01*
X74729Y-39779D01*
X74751Y-39768D01*
X74762Y-39757D01*
X74774Y-39734D01*
X74774Y-39667D01*
X74762Y-39644D01*
X74751Y-39633D01*
X73203Y-38452D02*
X73215Y-38486D01*
X73215Y-38542D01*
X73203Y-38564D01*
X73192Y-38576D01*
X73170Y-38587D01*
X73147Y-38587D01*
X73125Y-38576D01*
X73113Y-38564D01*
X73102Y-38542D01*
X73091Y-38497D01*
X73080Y-38474D01*
X73068Y-38463D01*
X73046Y-38452D01*
X73023Y-38452D01*
X73001Y-38463D01*
X72990Y-38474D01*
X72978Y-38497D01*
X72978Y-38553D01*
X72990Y-38587D01*
X73215Y-38688D02*
X72978Y-38688D01*
X72978Y-38744D01*
X72990Y-38778D01*
X73012Y-38801D01*
X73035Y-38812D01*
X73080Y-38823D01*
X73113Y-38823D01*
X73158Y-38812D01*
X73181Y-38801D01*
X73203Y-38778D01*
X73215Y-38744D01*
X73215Y-38688D01*
X73147Y-38913D02*
X73147Y-39026D01*
X73215Y-38891D02*
X72978Y-38969D01*
X73215Y-39048D01*
X73593Y-38452D02*
X73604Y-38486D01*
X73604Y-38542D01*
X73593Y-38564D01*
X73582Y-38576D01*
X73559Y-38587D01*
X73537Y-38587D01*
X73514Y-38576D01*
X73503Y-38564D01*
X73492Y-38542D01*
X73481Y-38497D01*
X73469Y-38474D01*
X73458Y-38463D01*
X73436Y-38452D01*
X73413Y-38452D01*
X73391Y-38463D01*
X73379Y-38474D01*
X73368Y-38497D01*
X73368Y-38553D01*
X73379Y-38587D01*
X73582Y-38823D02*
X73593Y-38812D01*
X73604Y-38778D01*
X73604Y-38756D01*
X73593Y-38722D01*
X73571Y-38699D01*
X73548Y-38688D01*
X73503Y-38677D01*
X73469Y-38677D01*
X73424Y-38688D01*
X73402Y-38699D01*
X73379Y-38722D01*
X73368Y-38756D01*
X73368Y-38778D01*
X73379Y-38812D01*
X73391Y-38823D01*
X73604Y-39037D02*
X73604Y-38924D01*
X73368Y-38924D01*
X73994Y-38598D02*
X73882Y-38519D01*
X73994Y-38463D02*
X73758Y-38463D01*
X73758Y-38553D01*
X73769Y-38576D01*
X73780Y-38587D01*
X73803Y-38598D01*
X73837Y-38598D01*
X73859Y-38587D01*
X73870Y-38576D01*
X73882Y-38553D01*
X73882Y-38463D01*
X73983Y-38789D02*
X73994Y-38767D01*
X73994Y-38722D01*
X73983Y-38699D01*
X73960Y-38688D01*
X73870Y-38688D01*
X73848Y-38699D01*
X73837Y-38722D01*
X73837Y-38767D01*
X73848Y-38789D01*
X73870Y-38801D01*
X73893Y-38801D01*
X73915Y-38688D01*
X73837Y-38868D02*
X73837Y-38958D01*
X73994Y-38902D02*
X73792Y-38902D01*
X73769Y-38913D01*
X73758Y-38936D01*
X73758Y-38958D01*
X74148Y-38429D02*
X74384Y-38508D01*
X74148Y-38587D01*
X74384Y-38767D02*
X74260Y-38767D01*
X74238Y-38756D01*
X74226Y-38733D01*
X74226Y-38688D01*
X74238Y-38666D01*
X74373Y-38767D02*
X74384Y-38744D01*
X74384Y-38688D01*
X74373Y-38666D01*
X74350Y-38654D01*
X74328Y-38654D01*
X74305Y-38666D01*
X74294Y-38688D01*
X74294Y-38744D01*
X74283Y-38767D01*
X74384Y-38913D02*
X74373Y-38891D01*
X74350Y-38879D01*
X74148Y-38879D01*
X74774Y-38587D02*
X74774Y-38452D01*
X74774Y-38519D02*
X74537Y-38519D01*
X74571Y-38497D01*
X74594Y-38474D01*
X74605Y-38452D01*
X74537Y-38666D02*
X74774Y-38722D01*
X74605Y-38767D01*
X74774Y-38812D01*
X74537Y-38868D01*
X74774Y-38958D02*
X74616Y-38958D01*
X74537Y-38958D02*
X74549Y-38947D01*
X74560Y-38958D01*
X74549Y-38969D01*
X74537Y-38958D01*
X74560Y-38958D01*
G54D11*
X77800Y-32037D02*
X77790Y-32018D01*
X77790Y-31990D01*
X77800Y-31962D01*
X77818Y-31943D01*
X77837Y-31933D01*
X77875Y-31924D01*
X77903Y-31924D01*
X77940Y-31933D01*
X77959Y-31943D01*
X77978Y-31962D01*
X77987Y-31990D01*
X77987Y-32008D01*
X77978Y-32037D01*
X77968Y-32046D01*
X77903Y-32046D01*
X77903Y-32008D01*
X77987Y-32130D02*
X77790Y-32130D01*
X77987Y-32243D01*
X77790Y-32243D01*
X77987Y-32336D02*
X77790Y-32336D01*
X77790Y-32383D01*
X77800Y-32411D01*
X77818Y-32430D01*
X77837Y-32440D01*
X77875Y-32449D01*
X77903Y-32449D01*
X77940Y-32440D01*
X77959Y-32430D01*
X77978Y-32411D01*
X77987Y-32383D01*
X77987Y-32336D01*
X78962Y-31966D02*
X78962Y-31872D01*
X78765Y-31872D01*
X78962Y-32032D02*
X78830Y-32032D01*
X78765Y-32032D02*
X78774Y-32022D01*
X78783Y-32032D01*
X78774Y-32041D01*
X78765Y-32032D01*
X78783Y-32032D01*
X78830Y-32210D02*
X78990Y-32210D01*
X79008Y-32201D01*
X79018Y-32191D01*
X79027Y-32172D01*
X79027Y-32144D01*
X79018Y-32126D01*
X78952Y-32210D02*
X78962Y-32191D01*
X78962Y-32154D01*
X78952Y-32135D01*
X78943Y-32126D01*
X78924Y-32116D01*
X78868Y-32116D01*
X78849Y-32126D01*
X78840Y-32135D01*
X78830Y-32154D01*
X78830Y-32191D01*
X78840Y-32210D01*
X78962Y-32304D02*
X78765Y-32304D01*
X78962Y-32388D02*
X78858Y-32388D01*
X78840Y-32379D01*
X78830Y-32360D01*
X78830Y-32332D01*
X78840Y-32313D01*
X78849Y-32304D01*
X78830Y-32454D02*
X78830Y-32529D01*
X78765Y-32482D02*
X78933Y-32482D01*
X78952Y-32491D01*
X78962Y-32510D01*
X78962Y-32529D01*
X79936Y-31826D02*
X79739Y-31826D01*
X79739Y-31901D01*
X79749Y-31919D01*
X79758Y-31929D01*
X79777Y-31938D01*
X79805Y-31938D01*
X79824Y-31929D01*
X79833Y-31919D01*
X79842Y-31901D01*
X79842Y-31826D01*
X79805Y-32107D02*
X79936Y-32107D01*
X79805Y-32022D02*
X79908Y-32022D01*
X79927Y-32032D01*
X79936Y-32051D01*
X79936Y-32079D01*
X79927Y-32097D01*
X79917Y-32107D01*
X79936Y-32201D02*
X79805Y-32201D01*
X79824Y-32201D02*
X79814Y-32210D01*
X79805Y-32229D01*
X79805Y-32257D01*
X79814Y-32276D01*
X79833Y-32285D01*
X79936Y-32285D01*
X79833Y-32285D02*
X79814Y-32294D01*
X79805Y-32313D01*
X79805Y-32341D01*
X79814Y-32360D01*
X79833Y-32369D01*
X79936Y-32369D01*
X79805Y-32463D02*
X80002Y-32463D01*
X79814Y-32463D02*
X79805Y-32482D01*
X79805Y-32519D01*
X79814Y-32538D01*
X79824Y-32547D01*
X79842Y-32557D01*
X79898Y-32557D01*
X79917Y-32547D01*
X79927Y-32538D01*
X79936Y-32519D01*
X79936Y-32482D01*
X79927Y-32463D01*
X80714Y-32149D02*
X80714Y-32055D01*
X80807Y-32046D01*
X80798Y-32055D01*
X80789Y-32074D01*
X80789Y-32121D01*
X80798Y-32140D01*
X80807Y-32149D01*
X80826Y-32158D01*
X80873Y-32158D01*
X80892Y-32149D01*
X80901Y-32140D01*
X80910Y-32121D01*
X80910Y-32074D01*
X80901Y-32055D01*
X80892Y-32046D01*
X80714Y-32215D02*
X80910Y-32280D01*
X80714Y-32346D01*
X78007Y-36339D02*
X77913Y-36273D01*
X78007Y-36227D02*
X77810Y-36227D01*
X77810Y-36302D01*
X77819Y-36320D01*
X77829Y-36330D01*
X77848Y-36339D01*
X77876Y-36339D01*
X77894Y-36330D01*
X77904Y-36320D01*
X77913Y-36302D01*
X77913Y-36227D01*
X77997Y-36498D02*
X78007Y-36480D01*
X78007Y-36442D01*
X77997Y-36423D01*
X77979Y-36414D01*
X77904Y-36414D01*
X77885Y-36423D01*
X77876Y-36442D01*
X77876Y-36480D01*
X77885Y-36498D01*
X77904Y-36508D01*
X77922Y-36508D01*
X77941Y-36414D01*
X77876Y-36564D02*
X77876Y-36639D01*
X78007Y-36592D02*
X77838Y-36592D01*
X77819Y-36602D01*
X77810Y-36620D01*
X77810Y-36639D01*
X78784Y-36213D02*
X78981Y-36278D01*
X78784Y-36344D01*
X78981Y-36494D02*
X78878Y-36494D01*
X78859Y-36484D01*
X78850Y-36466D01*
X78850Y-36428D01*
X78859Y-36409D01*
X78972Y-36494D02*
X78981Y-36475D01*
X78981Y-36428D01*
X78972Y-36409D01*
X78953Y-36400D01*
X78934Y-36400D01*
X78916Y-36409D01*
X78906Y-36428D01*
X78906Y-36475D01*
X78897Y-36494D01*
X78981Y-36616D02*
X78972Y-36597D01*
X78953Y-36588D01*
X78784Y-36588D01*
X79768Y-36269D02*
X79759Y-36250D01*
X79759Y-36222D01*
X79768Y-36194D01*
X79787Y-36175D01*
X79806Y-36166D01*
X79843Y-36156D01*
X79871Y-36156D01*
X79909Y-36166D01*
X79928Y-36175D01*
X79946Y-36194D01*
X79956Y-36222D01*
X79956Y-36241D01*
X79946Y-36269D01*
X79937Y-36278D01*
X79871Y-36278D01*
X79871Y-36241D01*
X79956Y-36363D02*
X79759Y-36363D01*
X79956Y-36475D01*
X79759Y-36475D01*
X79956Y-36569D02*
X79759Y-36569D01*
X79759Y-36616D01*
X79768Y-36644D01*
X79787Y-36663D01*
X79806Y-36672D01*
X79843Y-36681D01*
X79871Y-36681D01*
X79909Y-36672D01*
X79928Y-36663D01*
X79946Y-36644D01*
X79956Y-36616D01*
X79956Y-36569D01*
X80743Y-36269D02*
X80733Y-36250D01*
X80733Y-36222D01*
X80743Y-36194D01*
X80761Y-36175D01*
X80780Y-36166D01*
X80818Y-36156D01*
X80846Y-36156D01*
X80883Y-36166D01*
X80902Y-36175D01*
X80921Y-36194D01*
X80930Y-36222D01*
X80930Y-36241D01*
X80921Y-36269D01*
X80911Y-36278D01*
X80846Y-36278D01*
X80846Y-36241D01*
X80930Y-36363D02*
X80733Y-36363D01*
X80930Y-36475D01*
X80733Y-36475D01*
X80930Y-36569D02*
X80733Y-36569D01*
X80733Y-36616D01*
X80743Y-36644D01*
X80761Y-36663D01*
X80780Y-36672D01*
X80818Y-36681D01*
X80846Y-36681D01*
X80883Y-36672D01*
X80902Y-36663D01*
X80921Y-36644D01*
X80930Y-36616D01*
X80930Y-36569D01*
X79712Y-40347D02*
X79684Y-40356D01*
X79637Y-40356D01*
X79618Y-40347D01*
X79609Y-40338D01*
X79600Y-40319D01*
X79600Y-40300D01*
X79609Y-40281D01*
X79618Y-40272D01*
X79637Y-40263D01*
X79675Y-40253D01*
X79693Y-40244D01*
X79703Y-40234D01*
X79712Y-40216D01*
X79712Y-40197D01*
X79703Y-40178D01*
X79693Y-40169D01*
X79675Y-40159D01*
X79628Y-40159D01*
X79600Y-40169D01*
X79403Y-40338D02*
X79412Y-40347D01*
X79440Y-40356D01*
X79459Y-40356D01*
X79487Y-40347D01*
X79506Y-40328D01*
X79515Y-40309D01*
X79525Y-40272D01*
X79525Y-40244D01*
X79515Y-40206D01*
X79506Y-40188D01*
X79487Y-40169D01*
X79459Y-40159D01*
X79440Y-40159D01*
X79412Y-40169D01*
X79403Y-40178D01*
X79225Y-40356D02*
X79318Y-40356D01*
X79318Y-40159D01*
X79717Y-40997D02*
X79689Y-41006D01*
X79642Y-41006D01*
X79623Y-40997D01*
X79614Y-40987D01*
X79604Y-40968D01*
X79604Y-40950D01*
X79614Y-40931D01*
X79623Y-40922D01*
X79642Y-40912D01*
X79679Y-40903D01*
X79698Y-40893D01*
X79708Y-40884D01*
X79717Y-40865D01*
X79717Y-40847D01*
X79708Y-40828D01*
X79698Y-40818D01*
X79679Y-40809D01*
X79633Y-40809D01*
X79604Y-40818D01*
X79520Y-41006D02*
X79520Y-40809D01*
X79473Y-40809D01*
X79445Y-40818D01*
X79426Y-40837D01*
X79417Y-40856D01*
X79408Y-40893D01*
X79408Y-40922D01*
X79417Y-40959D01*
X79426Y-40978D01*
X79445Y-40997D01*
X79473Y-41006D01*
X79520Y-41006D01*
X79333Y-40950D02*
X79239Y-40950D01*
X79351Y-41006D02*
X79286Y-40809D01*
X79220Y-41006D01*
X79515Y-41459D02*
X79609Y-41459D01*
X79618Y-41552D01*
X79609Y-41543D01*
X79590Y-41534D01*
X79543Y-41534D01*
X79525Y-41543D01*
X79515Y-41552D01*
X79506Y-41571D01*
X79506Y-41618D01*
X79515Y-41637D01*
X79525Y-41646D01*
X79543Y-41655D01*
X79590Y-41655D01*
X79609Y-41646D01*
X79618Y-41637D01*
X79450Y-41459D02*
X79384Y-41655D01*
X79318Y-41459D01*
X79628Y-42118D02*
X79647Y-42108D01*
X79675Y-42108D01*
X79703Y-42118D01*
X79722Y-42136D01*
X79731Y-42155D01*
X79740Y-42193D01*
X79740Y-42221D01*
X79731Y-42258D01*
X79722Y-42277D01*
X79703Y-42296D01*
X79675Y-42305D01*
X79656Y-42305D01*
X79628Y-42296D01*
X79618Y-42286D01*
X79618Y-42221D01*
X79656Y-42221D01*
X79534Y-42305D02*
X79534Y-42108D01*
X79422Y-42305D01*
X79422Y-42108D01*
X79328Y-42305D02*
X79328Y-42108D01*
X79281Y-42108D01*
X79253Y-42118D01*
X79234Y-42136D01*
X79225Y-42155D01*
X79215Y-42193D01*
X79215Y-42221D01*
X79225Y-42258D01*
X79234Y-42277D01*
X79253Y-42296D01*
X79281Y-42305D01*
X79328Y-42305D01*
G54D10*
X78440Y-45285D02*
X78553Y-45285D01*
X78564Y-45398D01*
X78553Y-45387D01*
X78530Y-45375D01*
X78474Y-45375D01*
X78451Y-45387D01*
X78440Y-45398D01*
X78429Y-45420D01*
X78429Y-45477D01*
X78440Y-45499D01*
X78451Y-45510D01*
X78474Y-45522D01*
X78530Y-45522D01*
X78553Y-45510D01*
X78564Y-45499D01*
X78361Y-45285D02*
X78283Y-45522D01*
X78204Y-45285D01*
X79866Y-45522D02*
X80001Y-45522D01*
X79933Y-45522D02*
X79933Y-45285D01*
X79956Y-45319D01*
X79978Y-45342D01*
X80001Y-45353D01*
X79607Y-45285D02*
X79551Y-45522D01*
X79506Y-45353D01*
X79461Y-45522D01*
X79405Y-45285D01*
X79315Y-45522D02*
X79315Y-45364D01*
X79315Y-45285D02*
X79326Y-45297D01*
X79315Y-45308D01*
X79303Y-45297D01*
X79315Y-45285D01*
X79315Y-45308D01*
X79202Y-45522D02*
X79202Y-45364D01*
X79202Y-45409D02*
X79191Y-45387D01*
X79180Y-45375D01*
X79157Y-45364D01*
X79135Y-45364D01*
X78966Y-45510D02*
X78989Y-45522D01*
X79034Y-45522D01*
X79056Y-45510D01*
X79067Y-45488D01*
X79067Y-45398D01*
X79056Y-45375D01*
X79034Y-45364D01*
X78989Y-45364D01*
X78966Y-45375D01*
X78955Y-45398D01*
X78955Y-45420D01*
X79067Y-45443D01*
X80760Y-45297D02*
X80783Y-45285D01*
X80816Y-45285D01*
X80850Y-45297D01*
X80873Y-45319D01*
X80884Y-45342D01*
X80895Y-45387D01*
X80895Y-45420D01*
X80884Y-45465D01*
X80873Y-45488D01*
X80850Y-45510D01*
X80816Y-45522D01*
X80794Y-45522D01*
X80760Y-45510D01*
X80749Y-45499D01*
X80749Y-45420D01*
X80794Y-45420D01*
X80648Y-45522D02*
X80648Y-45285D01*
X80513Y-45522D01*
X80513Y-45285D01*
X80400Y-45522D02*
X80400Y-45285D01*
X80344Y-45285D01*
X80310Y-45297D01*
X80288Y-45319D01*
X80276Y-45342D01*
X80265Y-45387D01*
X80265Y-45420D01*
X80276Y-45465D01*
X80288Y-45488D01*
X80310Y-45510D01*
X80344Y-45522D01*
X80400Y-45522D01*
X75336Y-34915D02*
X74568Y-34915D01*
X74568Y-34915D02*
X74568Y-34423D01*
X74568Y-34423D02*
X75336Y-34423D01*
X75336Y-34423D02*
X75336Y-34915D01*
X75336Y-35407D02*
X74568Y-35407D01*
X74568Y-35407D02*
X74568Y-34915D01*
X74568Y-34915D02*
X75336Y-34915D01*
X75336Y-34915D02*
X75336Y-35407D01*
G54D12*
X75631Y-47002D02*
X75395Y-47002D01*
X75513Y-47120D02*
X75513Y-46884D01*
X75867Y-46687D02*
G75*
G03X75867Y-46687I-984J0D01*
G74*
G01*
X80582Y-44462D02*
X80582Y-45092D01*
X80582Y-45092D02*
X78378Y-45092D01*
X78378Y-45092D02*
X78378Y-43832D01*
X78378Y-43832D02*
X80582Y-43832D01*
X80582Y-43832D02*
X80582Y-44462D01*
X80582Y-46332D02*
X80582Y-46962D01*
X80582Y-46962D02*
X78378Y-46962D01*
X78378Y-46962D02*
X78378Y-45702D01*
X78378Y-45702D02*
X80582Y-45702D01*
X80582Y-45702D02*
X80582Y-46332D01*
X81271Y-39738D02*
X80562Y-39738D01*
X81271Y-42690D02*
X81271Y-39738D01*
X79853Y-42690D02*
X81271Y-42690D01*
X79853Y-39738D02*
X79853Y-42690D01*
X80562Y-39738D02*
X79853Y-39738D01*
X80562Y-39738D02*
X79853Y-39738D01*
X79853Y-39738D02*
X79853Y-42690D01*
X79853Y-42690D02*
X81271Y-42690D01*
X81271Y-42690D02*
X81271Y-39738D01*
X81271Y-39738D02*
X80562Y-39738D01*
X79106Y-39738D02*
X78397Y-39738D01*
X79106Y-42690D02*
X79106Y-39738D01*
X77688Y-42690D02*
X79106Y-42690D01*
X77688Y-39738D02*
X77688Y-42690D01*
X78397Y-39738D02*
X77688Y-39738D01*
X78397Y-39738D02*
X77688Y-39738D01*
X77688Y-39738D02*
X77688Y-42690D01*
X77688Y-42690D02*
X79106Y-42690D01*
X79106Y-42690D02*
X79106Y-39738D01*
X79106Y-39738D02*
X78397Y-39738D01*
X81861Y-33921D02*
X81861Y-32779D01*
X81861Y-32779D02*
X76901Y-32779D01*
X76901Y-32779D02*
X76901Y-35063D01*
X76901Y-35063D02*
X81861Y-35063D01*
X81861Y-35063D02*
X81861Y-33921D01*
X68260Y-42160D02*
X68260Y-46098D01*
X67275Y-42160D02*
X71213Y-42160D01*
X71213Y-42160D02*
X71213Y-46098D01*
X71213Y-46098D02*
X67275Y-46098D01*
X67275Y-46098D02*
X67275Y-42160D01*
X68260Y-34275D02*
X68260Y-38213D01*
X67275Y-34275D02*
X71213Y-34275D01*
X71213Y-34275D02*
X71213Y-38213D01*
X71213Y-38213D02*
X67275Y-38213D01*
X67275Y-38213D02*
X67275Y-34275D01*
X68260Y-38212D02*
X68260Y-42150D01*
X67275Y-38212D02*
X71213Y-38212D01*
X71213Y-38212D02*
X71213Y-42150D01*
X71213Y-42150D02*
X67275Y-42150D01*
X67275Y-42150D02*
X67275Y-38212D01*
G54D13*
X78381Y-36797D02*
X81381Y-36797D01*
X78381Y-37797D02*
X81381Y-37797D01*
X77381Y-37797D02*
X78381Y-37797D01*
X81381Y-36797D02*
X81381Y-37797D01*
X78381Y-37797D02*
X78381Y-36797D01*
X77381Y-37797D02*
X77381Y-36797D01*
X77381Y-36797D02*
X78381Y-36797D01*
G54D14*
X75505Y-34686D02*
X75511Y-34680D01*
X75516Y-34663D01*
X75516Y-34652D01*
X75511Y-34635D01*
X75499Y-34623D01*
X75488Y-34618D01*
X75465Y-34612D01*
X75448Y-34612D01*
X75425Y-34618D01*
X75414Y-34623D01*
X75402Y-34635D01*
X75396Y-34652D01*
X75396Y-34663D01*
X75402Y-34680D01*
X75408Y-34686D01*
X75408Y-34732D02*
X75402Y-34738D01*
X75396Y-34749D01*
X75396Y-34778D01*
X75402Y-34789D01*
X75408Y-34795D01*
X75419Y-34800D01*
X75431Y-34800D01*
X75448Y-34795D01*
X75516Y-34726D01*
X75516Y-34800D01*
X75505Y-35080D02*
X75511Y-35074D01*
X75516Y-35057D01*
X75516Y-35046D01*
X75511Y-35028D01*
X75499Y-35017D01*
X75488Y-35011D01*
X75465Y-35006D01*
X75448Y-35006D01*
X75425Y-35011D01*
X75414Y-35017D01*
X75402Y-35028D01*
X75396Y-35046D01*
X75396Y-35057D01*
X75402Y-35074D01*
X75408Y-35080D01*
X75396Y-35120D02*
X75396Y-35194D01*
X75442Y-35154D01*
X75442Y-35171D01*
X75448Y-35183D01*
X75454Y-35188D01*
X75465Y-35194D01*
X75494Y-35194D01*
X75505Y-35188D01*
X75511Y-35183D01*
X75516Y-35171D01*
X75516Y-35137D01*
X75511Y-35126D01*
X75505Y-35120D01*
G54D15*
X80316Y-47804D02*
X80659Y-47804D01*
X80487Y-47804D02*
X80487Y-47204D01*
X80544Y-47290D01*
X80601Y-47347D01*
X80659Y-47376D01*
X80116Y-47204D02*
X79973Y-47804D01*
X79859Y-47376D01*
X79744Y-47804D01*
X79601Y-47204D01*
X79373Y-47804D02*
X79373Y-47404D01*
X79373Y-47204D02*
X79401Y-47233D01*
X79373Y-47262D01*
X79344Y-47233D01*
X79373Y-47204D01*
X79373Y-47262D01*
X79087Y-47804D02*
X79087Y-47404D01*
X79087Y-47519D02*
X79059Y-47462D01*
X79030Y-47433D01*
X78973Y-47404D01*
X78916Y-47404D01*
X78487Y-47776D02*
X78544Y-47804D01*
X78659Y-47804D01*
X78716Y-47776D01*
X78744Y-47719D01*
X78744Y-47490D01*
X78716Y-47433D01*
X78659Y-47404D01*
X78544Y-47404D01*
X78487Y-47433D01*
X78459Y-47490D01*
X78459Y-47547D01*
X78744Y-47604D01*
X79908Y-43474D02*
X79908Y-42874D01*
X79651Y-42931D02*
X79622Y-42902D01*
X79565Y-42874D01*
X79422Y-42874D01*
X79365Y-42902D01*
X79337Y-42931D01*
X79308Y-42988D01*
X79308Y-43045D01*
X79337Y-43131D01*
X79679Y-43474D01*
X79308Y-43474D01*
X78708Y-43417D02*
X78737Y-43445D01*
X78822Y-43474D01*
X78879Y-43474D01*
X78965Y-43445D01*
X79022Y-43388D01*
X79051Y-43331D01*
X79079Y-43217D01*
X79079Y-43131D01*
X79051Y-43017D01*
X79022Y-42959D01*
X78965Y-42902D01*
X78879Y-42874D01*
X78822Y-42874D01*
X78737Y-42902D01*
X78708Y-42931D01*
X80130Y-35836D02*
X80330Y-35550D01*
X80473Y-35836D02*
X80473Y-35236D01*
X80244Y-35236D01*
X80187Y-35264D01*
X80158Y-35293D01*
X80130Y-35350D01*
X80130Y-35436D01*
X80158Y-35493D01*
X80187Y-35522D01*
X80244Y-35550D01*
X80473Y-35550D01*
X79644Y-35807D02*
X79701Y-35836D01*
X79815Y-35836D01*
X79873Y-35807D01*
X79901Y-35750D01*
X79901Y-35522D01*
X79873Y-35464D01*
X79815Y-35436D01*
X79701Y-35436D01*
X79644Y-35464D01*
X79615Y-35522D01*
X79615Y-35579D01*
X79901Y-35636D01*
X79273Y-35836D02*
X79330Y-35807D01*
X79358Y-35750D01*
X79358Y-35236D01*
X78787Y-35836D02*
X78787Y-35522D01*
X78815Y-35464D01*
X78873Y-35436D01*
X78987Y-35436D01*
X79044Y-35464D01*
X78787Y-35807D02*
X78844Y-35836D01*
X78987Y-35836D01*
X79044Y-35807D01*
X79073Y-35750D01*
X79073Y-35693D01*
X79044Y-35636D01*
X78987Y-35607D01*
X78844Y-35607D01*
X78787Y-35579D01*
X78558Y-35436D02*
X78415Y-35836D01*
X78273Y-35436D02*
X78415Y-35836D01*
X78473Y-35979D01*
X78501Y-36007D01*
X78558Y-36036D01*
G54D16*
X68047Y-42346D02*
X67647Y-42346D01*
X67647Y-42498D01*
X67666Y-42536D01*
X67685Y-42556D01*
X67723Y-42575D01*
X67780Y-42575D01*
X67818Y-42556D01*
X67837Y-42536D01*
X67856Y-42498D01*
X67856Y-42346D01*
X67780Y-42917D02*
X68047Y-42917D01*
X67628Y-42822D02*
X67913Y-42727D01*
X67913Y-42975D01*
X71945Y-42891D02*
X71945Y-42701D01*
X71545Y-42701D01*
X71945Y-43082D02*
X71925Y-43044D01*
X71906Y-43025D01*
X71868Y-43006D01*
X71754Y-43006D01*
X71716Y-43025D01*
X71697Y-43044D01*
X71678Y-43082D01*
X71678Y-43139D01*
X71697Y-43177D01*
X71716Y-43196D01*
X71754Y-43215D01*
X71868Y-43215D01*
X71906Y-43196D01*
X71925Y-43177D01*
X71945Y-43139D01*
X71945Y-43082D01*
X71678Y-43348D02*
X71945Y-43425D01*
X71754Y-43501D01*
X71945Y-43577D01*
X71678Y-43653D01*
X71545Y-44072D02*
X71945Y-44168D01*
X71659Y-44244D01*
X71945Y-44320D01*
X71545Y-44415D01*
X71945Y-44739D02*
X71735Y-44739D01*
X71697Y-44720D01*
X71678Y-44682D01*
X71678Y-44606D01*
X71697Y-44568D01*
X71925Y-44739D02*
X71945Y-44701D01*
X71945Y-44606D01*
X71925Y-44568D01*
X71887Y-44548D01*
X71849Y-44548D01*
X71811Y-44568D01*
X71792Y-44606D01*
X71792Y-44701D01*
X71773Y-44739D01*
X71678Y-44872D02*
X71678Y-45025D01*
X71545Y-44929D02*
X71887Y-44929D01*
X71925Y-44948D01*
X71945Y-44987D01*
X71945Y-45025D01*
X71925Y-45310D02*
X71945Y-45272D01*
X71945Y-45196D01*
X71925Y-45158D01*
X71887Y-45139D01*
X71735Y-45139D01*
X71697Y-45158D01*
X71678Y-45196D01*
X71678Y-45272D01*
X71697Y-45310D01*
X71735Y-45329D01*
X71773Y-45329D01*
X71811Y-45139D01*
X71945Y-45501D02*
X71678Y-45501D01*
X71754Y-45501D02*
X71716Y-45520D01*
X71697Y-45539D01*
X71678Y-45577D01*
X71678Y-45615D01*
X68047Y-34472D02*
X67647Y-34472D01*
X67647Y-34624D01*
X67666Y-34662D01*
X67685Y-34682D01*
X67723Y-34701D01*
X67780Y-34701D01*
X67818Y-34682D01*
X67837Y-34662D01*
X67856Y-34624D01*
X67856Y-34472D01*
X67647Y-35062D02*
X67647Y-34872D01*
X67837Y-34853D01*
X67818Y-34872D01*
X67799Y-34910D01*
X67799Y-35005D01*
X67818Y-35043D01*
X67837Y-35062D01*
X67875Y-35082D01*
X67970Y-35082D01*
X68008Y-35062D01*
X68028Y-35043D01*
X68047Y-35005D01*
X68047Y-34910D01*
X68028Y-34872D01*
X68008Y-34853D01*
X71545Y-34444D02*
X71545Y-34672D01*
X71945Y-34558D02*
X71545Y-34558D01*
X71945Y-34977D02*
X71735Y-34977D01*
X71697Y-34958D01*
X71678Y-34920D01*
X71678Y-34844D01*
X71697Y-34805D01*
X71925Y-34977D02*
X71945Y-34939D01*
X71945Y-34844D01*
X71925Y-34805D01*
X71887Y-34786D01*
X71849Y-34786D01*
X71811Y-34805D01*
X71792Y-34844D01*
X71792Y-34939D01*
X71773Y-34977D01*
X71678Y-35167D02*
X71945Y-35167D01*
X71716Y-35167D02*
X71697Y-35186D01*
X71678Y-35225D01*
X71678Y-35282D01*
X71697Y-35320D01*
X71735Y-35339D01*
X71945Y-35339D01*
X71945Y-35529D02*
X71545Y-35529D01*
X71792Y-35567D02*
X71945Y-35682D01*
X71678Y-35682D02*
X71830Y-35529D01*
X71945Y-36367D02*
X71945Y-36139D01*
X71945Y-36253D02*
X71545Y-36253D01*
X71602Y-36215D01*
X71640Y-36177D01*
X71659Y-36139D01*
X71945Y-36844D02*
X71545Y-36844D01*
X71735Y-36844D02*
X71735Y-37072D01*
X71945Y-37072D02*
X71545Y-37072D01*
X71945Y-37263D02*
X71678Y-37263D01*
X71545Y-37263D02*
X71564Y-37244D01*
X71583Y-37263D01*
X71564Y-37282D01*
X71545Y-37263D01*
X71583Y-37263D01*
X71678Y-37625D02*
X72002Y-37625D01*
X72040Y-37605D01*
X72059Y-37586D01*
X72078Y-37548D01*
X72078Y-37491D01*
X72059Y-37453D01*
X71925Y-37625D02*
X71945Y-37586D01*
X71945Y-37510D01*
X71925Y-37472D01*
X71906Y-37453D01*
X71868Y-37434D01*
X71754Y-37434D01*
X71716Y-37453D01*
X71697Y-37472D01*
X71678Y-37510D01*
X71678Y-37586D01*
X71697Y-37625D01*
X71945Y-37815D02*
X71545Y-37815D01*
X71945Y-37986D02*
X71735Y-37986D01*
X71697Y-37967D01*
X71678Y-37929D01*
X71678Y-37872D01*
X71697Y-37834D01*
X71716Y-37815D01*
X68047Y-38409D02*
X67647Y-38409D01*
X67647Y-38561D01*
X67666Y-38599D01*
X67685Y-38619D01*
X67723Y-38638D01*
X67780Y-38638D01*
X67818Y-38619D01*
X67837Y-38599D01*
X67856Y-38561D01*
X67856Y-38409D01*
X67647Y-38980D02*
X67647Y-38904D01*
X67666Y-38866D01*
X67685Y-38847D01*
X67742Y-38809D01*
X67818Y-38790D01*
X67970Y-38790D01*
X68008Y-38809D01*
X68028Y-38828D01*
X68047Y-38866D01*
X68047Y-38942D01*
X68028Y-38980D01*
X68008Y-38999D01*
X67970Y-39019D01*
X67875Y-39019D01*
X67837Y-38999D01*
X67818Y-38980D01*
X67799Y-38942D01*
X67799Y-38866D01*
X67818Y-38828D01*
X67837Y-38809D01*
X67875Y-38790D01*
X71545Y-38381D02*
X71545Y-38609D01*
X71945Y-38495D02*
X71545Y-38495D01*
X71945Y-38914D02*
X71735Y-38914D01*
X71697Y-38895D01*
X71678Y-38857D01*
X71678Y-38781D01*
X71697Y-38743D01*
X71925Y-38914D02*
X71945Y-38876D01*
X71945Y-38781D01*
X71925Y-38743D01*
X71887Y-38723D01*
X71849Y-38723D01*
X71811Y-38743D01*
X71792Y-38781D01*
X71792Y-38876D01*
X71773Y-38914D01*
X71678Y-39104D02*
X71945Y-39104D01*
X71716Y-39104D02*
X71697Y-39123D01*
X71678Y-39162D01*
X71678Y-39219D01*
X71697Y-39257D01*
X71735Y-39276D01*
X71945Y-39276D01*
X71945Y-39466D02*
X71545Y-39466D01*
X71792Y-39504D02*
X71945Y-39619D01*
X71678Y-39619D02*
X71830Y-39466D01*
X71583Y-40076D02*
X71564Y-40095D01*
X71545Y-40133D01*
X71545Y-40228D01*
X71564Y-40266D01*
X71583Y-40285D01*
X71621Y-40304D01*
X71659Y-40304D01*
X71716Y-40285D01*
X71945Y-40057D01*
X71945Y-40304D01*
X71945Y-40781D02*
X71545Y-40781D01*
X71735Y-40781D02*
X71735Y-41009D01*
X71945Y-41009D02*
X71545Y-41009D01*
X71945Y-41200D02*
X71678Y-41200D01*
X71545Y-41200D02*
X71564Y-41181D01*
X71583Y-41200D01*
X71564Y-41219D01*
X71545Y-41200D01*
X71583Y-41200D01*
X71678Y-41562D02*
X72002Y-41562D01*
X72040Y-41543D01*
X72059Y-41523D01*
X72078Y-41485D01*
X72078Y-41428D01*
X72059Y-41390D01*
X71925Y-41562D02*
X71945Y-41523D01*
X71945Y-41447D01*
X71925Y-41409D01*
X71906Y-41390D01*
X71868Y-41371D01*
X71754Y-41371D01*
X71716Y-41390D01*
X71697Y-41409D01*
X71678Y-41447D01*
X71678Y-41523D01*
X71697Y-41562D01*
X71945Y-41752D02*
X71545Y-41752D01*
X71945Y-41923D02*
X71735Y-41923D01*
X71697Y-41904D01*
X71678Y-41866D01*
X71678Y-41809D01*
X71697Y-41771D01*
X71716Y-41752D01*
G54D15*
X80313Y-38492D02*
X80371Y-38521D01*
X80485Y-38521D01*
X80542Y-38492D01*
X80571Y-38435D01*
X80571Y-38207D01*
X80542Y-38150D01*
X80485Y-38121D01*
X80371Y-38121D01*
X80313Y-38150D01*
X80285Y-38207D01*
X80285Y-38264D01*
X80571Y-38321D01*
X80113Y-37921D02*
X79771Y-37921D01*
X79942Y-38521D02*
X79942Y-37921D01*
X79313Y-38521D02*
X79313Y-38207D01*
X79342Y-38150D01*
X79399Y-38121D01*
X79513Y-38121D01*
X79571Y-38150D01*
X79313Y-38492D02*
X79371Y-38521D01*
X79513Y-38521D01*
X79571Y-38492D01*
X79599Y-38435D01*
X79599Y-38378D01*
X79571Y-38321D01*
X79513Y-38292D01*
X79371Y-38292D01*
X79313Y-38264D01*
X79028Y-38121D02*
X79028Y-38721D01*
X79028Y-38150D02*
X78971Y-38121D01*
X78856Y-38121D01*
X78799Y-38150D01*
X78771Y-38178D01*
X78742Y-38235D01*
X78742Y-38407D01*
X78771Y-38464D01*
X78799Y-38492D01*
X78856Y-38521D01*
X78971Y-38521D01*
X79028Y-38492D01*
X78256Y-38492D02*
X78313Y-38521D01*
X78428Y-38521D01*
X78485Y-38492D01*
X78513Y-38435D01*
X78513Y-38207D01*
X78485Y-38150D01*
X78428Y-38121D01*
X78313Y-38121D01*
X78256Y-38150D01*
X78228Y-38207D01*
X78228Y-38264D01*
X78513Y-38321D01*
M02*
