%FSLAX34Y34*%
G04 Gerber Fmt 3.4, Leading zero omitted, Abs format*
G04 (created by PCBNEW (2014-03-19 BZR 4756)-product) date Sat 05 Jul 2014 22:59:34 BST*
%MOIN*%
G01*
G70*
G90*
G04 APERTURE LIST*
%ADD10C,0.005906*%
%ADD11R,0.025000X0.045000*%
%ADD12R,0.015700X0.023600*%
%ADD13C,0.058300*%
%ADD14R,0.045000X0.025000*%
%ADD15O,0.031496X0.043307*%
%ADD16R,0.031496X0.043307*%
%ADD17O,0.062992X0.039370*%
%ADD18R,0.062992X0.039370*%
%ADD19O,0.055118X0.086614*%
%ADD20R,0.055118X0.086614*%
%ADD21O,0.118700X0.078700*%
%ADD22R,0.068000X0.080000*%
%ADD23O,0.068000X0.080000*%
%ADD24R,0.023600X0.015700*%
%ADD25R,0.060000X0.060000*%
%ADD26C,0.060000*%
%ADD27C,0.055000*%
%ADD28R,0.055000X0.055000*%
%ADD29R,0.133900X0.133900*%
%ADD30O,0.078700X0.118700*%
%ADD31C,0.010000*%
%ADD32C,0.015748*%
G04 APERTURE END LIST*
G54D10*
G54D11*
X75055Y-34472D03*
X74455Y-34472D03*
G54D12*
X75031Y-35062D03*
X74677Y-35062D03*
G54D13*
X74883Y-47081D03*
X74883Y-46293D03*
G54D14*
X87098Y-36445D03*
X87098Y-35845D03*
X85031Y-36445D03*
X85031Y-35845D03*
X87098Y-40579D03*
X87098Y-39979D03*
X87098Y-44713D03*
X87098Y-44113D03*
G54D15*
X79480Y-44462D03*
X79992Y-44462D03*
G54D16*
X78968Y-44462D03*
G54D15*
X79480Y-46332D03*
X79992Y-46332D03*
G54D16*
X78968Y-46332D03*
G54D17*
X80562Y-40919D03*
X80562Y-41509D03*
G54D18*
X80562Y-40328D03*
G54D17*
X80562Y-42100D03*
X78397Y-40919D03*
X78397Y-41509D03*
G54D18*
X78397Y-40328D03*
G54D17*
X78397Y-42100D03*
G54D19*
X79873Y-34226D03*
X78889Y-34226D03*
G54D20*
X80857Y-34226D03*
G54D19*
X77905Y-34226D03*
G54D21*
X69244Y-43145D03*
X69244Y-45113D03*
X69244Y-35260D03*
X69244Y-37228D03*
X69244Y-39197D03*
X69244Y-41165D03*
G54D22*
X77881Y-37297D03*
G54D23*
X78881Y-37297D03*
X79881Y-37297D03*
X80881Y-37297D03*
G54D24*
X87098Y-35141D03*
X87098Y-34787D03*
X85031Y-35141D03*
X85031Y-34787D03*
G54D11*
X79780Y-41017D03*
X79180Y-41017D03*
X79780Y-40328D03*
X79180Y-40328D03*
G54D24*
X87098Y-39275D03*
X87098Y-38921D03*
X87098Y-43409D03*
X87098Y-43055D03*
X78594Y-36135D03*
X78594Y-36489D03*
X78102Y-36135D03*
X78102Y-36489D03*
G54D25*
X74196Y-32299D03*
G54D26*
X74196Y-33299D03*
X73196Y-32299D03*
X73196Y-33299D03*
X72196Y-32299D03*
X72196Y-33299D03*
X71196Y-32299D03*
X71196Y-33299D03*
X70196Y-32299D03*
X70196Y-33299D03*
G54D27*
X76370Y-33253D03*
X82370Y-34253D03*
X82370Y-35253D03*
X82370Y-36253D03*
X82370Y-37253D03*
X82370Y-38253D03*
X82370Y-39253D03*
X82370Y-40253D03*
X82370Y-41253D03*
X82370Y-42253D03*
X82370Y-43253D03*
X82370Y-44253D03*
X82370Y-45253D03*
X82370Y-46253D03*
G54D28*
X82370Y-47253D03*
G54D27*
X76370Y-47253D03*
X76370Y-46253D03*
X76370Y-45253D03*
X76370Y-44253D03*
X76370Y-43253D03*
X76370Y-42253D03*
X76370Y-41253D03*
X76370Y-40253D03*
X76370Y-39253D03*
X76370Y-38253D03*
X76370Y-37253D03*
X76370Y-36253D03*
X76370Y-35253D03*
X76370Y-34253D03*
X82370Y-33253D03*
X84086Y-38783D03*
X85976Y-38783D03*
X84086Y-41775D03*
X85976Y-41775D03*
X84086Y-42917D03*
X85976Y-42917D03*
X84086Y-45909D03*
X85976Y-45909D03*
G54D29*
X68161Y-32799D03*
X86665Y-32799D03*
X86665Y-47759D03*
X68161Y-47759D03*
G54D30*
X73210Y-47080D03*
X71242Y-47080D03*
G54D31*
X75055Y-34472D02*
X75331Y-34472D01*
X76370Y-34253D02*
X75549Y-34253D01*
X75549Y-34253D02*
X75331Y-34472D01*
X75055Y-34472D02*
X75055Y-34847D01*
X75031Y-35062D02*
X75031Y-34872D01*
X75031Y-34872D02*
X75055Y-34847D01*
X79992Y-46332D02*
X79992Y-44462D01*
X80881Y-37297D02*
X80391Y-37297D01*
X79881Y-37022D02*
X80116Y-37022D01*
X80116Y-37022D02*
X80391Y-37297D01*
X79881Y-37022D02*
X79881Y-36747D01*
X79881Y-37297D02*
X79881Y-37022D01*
X79881Y-36747D02*
X79843Y-36747D01*
X79843Y-36747D02*
X77905Y-34809D01*
X74677Y-35062D02*
X74677Y-35331D01*
X77905Y-34226D02*
X77905Y-34809D01*
X77905Y-34809D02*
X75760Y-34809D01*
X75760Y-34809D02*
X75238Y-35331D01*
X75238Y-35331D02*
X74677Y-35331D01*
X74677Y-35062D02*
X74677Y-34794D01*
X74677Y-34794D02*
X74455Y-34573D01*
X74455Y-34573D02*
X74455Y-34472D01*
X80562Y-42100D02*
X81028Y-42100D01*
X81028Y-42100D02*
X81353Y-41775D01*
X81353Y-41775D02*
X84086Y-41775D01*
X78397Y-42100D02*
X80562Y-42100D01*
X87098Y-40867D02*
X87379Y-40867D01*
X87379Y-40867D02*
X87473Y-40773D01*
X87473Y-40773D02*
X87473Y-39028D01*
X87473Y-39028D02*
X87366Y-38921D01*
X80055Y-40328D02*
X80055Y-40088D01*
X80055Y-40088D02*
X81321Y-38822D01*
X81321Y-38822D02*
X82540Y-38822D01*
X82540Y-38822D02*
X84585Y-40867D01*
X84585Y-40867D02*
X87098Y-40867D01*
X87098Y-42826D02*
X87098Y-40867D01*
X79780Y-40328D02*
X80055Y-40328D01*
X79780Y-41017D02*
X79780Y-40328D01*
X87098Y-43055D02*
X87098Y-42826D01*
X76795Y-43828D02*
X76370Y-44253D01*
X78397Y-41509D02*
X77432Y-41509D01*
X77432Y-41509D02*
X77188Y-41753D01*
X77188Y-41753D02*
X76266Y-41753D01*
X76266Y-41753D02*
X75931Y-42088D01*
X75931Y-42088D02*
X75931Y-42430D01*
X75931Y-42430D02*
X76184Y-42683D01*
X76184Y-42683D02*
X76424Y-42683D01*
X76424Y-42683D02*
X76795Y-43054D01*
X76795Y-43054D02*
X76795Y-43828D01*
X76795Y-43828D02*
X78026Y-43828D01*
X78026Y-43828D02*
X78660Y-44462D01*
X78968Y-44462D02*
X78660Y-44462D01*
X79505Y-41017D02*
X79505Y-41258D01*
X79505Y-41258D02*
X79254Y-41509D01*
X79254Y-41509D02*
X78397Y-41509D01*
X87366Y-38921D02*
X87473Y-38814D01*
X87473Y-38814D02*
X87473Y-34894D01*
X87473Y-34894D02*
X87366Y-34787D01*
X87098Y-34787D02*
X87366Y-34787D01*
X87098Y-38921D02*
X87366Y-38921D01*
X85031Y-34787D02*
X87098Y-34787D01*
X79780Y-41017D02*
X80055Y-41017D01*
X80562Y-41509D02*
X80097Y-41509D01*
X80097Y-41509D02*
X80097Y-41060D01*
X80097Y-41060D02*
X80055Y-41017D01*
X79780Y-41017D02*
X79505Y-41017D01*
X76370Y-35253D02*
X77334Y-35253D01*
X77334Y-35253D02*
X78102Y-36021D01*
X78594Y-36135D02*
X78326Y-36135D01*
X78102Y-36021D02*
X78212Y-36021D01*
X78212Y-36021D02*
X78326Y-36135D01*
X78102Y-36135D02*
X78102Y-36021D01*
X78968Y-46332D02*
X78968Y-44462D01*
X75522Y-47081D02*
X76197Y-47081D01*
X76197Y-47081D02*
X76370Y-47253D01*
X74883Y-47081D02*
X75522Y-47081D01*
X75522Y-47081D02*
X75522Y-40494D01*
X75522Y-40494D02*
X76263Y-39753D01*
X76263Y-39753D02*
X76795Y-39753D01*
X76795Y-39753D02*
X78146Y-38402D01*
X78146Y-38402D02*
X80543Y-38402D01*
X80543Y-38402D02*
X81386Y-37559D01*
X81386Y-37559D02*
X81386Y-35337D01*
X81386Y-35337D02*
X80857Y-34809D01*
X80857Y-34226D02*
X80857Y-34809D01*
X74883Y-47081D02*
X73754Y-47081D01*
X73754Y-47081D02*
X73754Y-47080D01*
X73210Y-47080D02*
X73754Y-47080D01*
X87098Y-36445D02*
X87098Y-36720D01*
X76370Y-43253D02*
X75722Y-42606D01*
X75722Y-42606D02*
X75722Y-41271D01*
X75722Y-41271D02*
X76165Y-40828D01*
X76165Y-40828D02*
X76945Y-40828D01*
X76945Y-40828D02*
X78586Y-39187D01*
X78586Y-39187D02*
X80545Y-39187D01*
X80545Y-39187D02*
X82005Y-37728D01*
X82005Y-37728D02*
X86090Y-37728D01*
X86090Y-37728D02*
X87098Y-36720D01*
X87098Y-35845D02*
X87098Y-35141D01*
X85031Y-36445D02*
X85031Y-36720D01*
X82370Y-37253D02*
X84498Y-37253D01*
X84498Y-37253D02*
X85031Y-36720D01*
X85031Y-35845D02*
X85031Y-35141D01*
X87098Y-40579D02*
X84696Y-40579D01*
X84696Y-40579D02*
X82370Y-38253D01*
X87098Y-39979D02*
X87098Y-39275D01*
X87098Y-44713D02*
X87098Y-44438D01*
X82370Y-39253D02*
X85317Y-42200D01*
X85317Y-42200D02*
X85866Y-42200D01*
X85866Y-42200D02*
X86723Y-43057D01*
X86723Y-43057D02*
X86723Y-44303D01*
X86723Y-44303D02*
X86857Y-44438D01*
X86857Y-44438D02*
X87098Y-44438D01*
X87098Y-44113D02*
X87098Y-43409D01*
X79480Y-46332D02*
X79480Y-44462D01*
X82370Y-41253D02*
X82036Y-40919D01*
X82036Y-40919D02*
X80562Y-40919D01*
X78397Y-40919D02*
X78862Y-40919D01*
X79180Y-41017D02*
X78905Y-41017D01*
X78862Y-40919D02*
X78862Y-40975D01*
X78862Y-40975D02*
X78905Y-41017D01*
X79180Y-40328D02*
X78905Y-40328D01*
X78397Y-40328D02*
X78905Y-40328D01*
X78905Y-40328D02*
X78905Y-40328D01*
X80562Y-40328D02*
X81028Y-40328D01*
X82370Y-40253D02*
X81102Y-40253D01*
X81102Y-40253D02*
X81028Y-40328D01*
X69244Y-39197D02*
X69987Y-39197D01*
X76370Y-39253D02*
X70044Y-39253D01*
X70044Y-39253D02*
X69987Y-39197D01*
X77636Y-37297D02*
X78102Y-36831D01*
X78102Y-36831D02*
X78102Y-36490D01*
X77636Y-37297D02*
X77391Y-37297D01*
X77881Y-37297D02*
X77636Y-37297D01*
X76370Y-37253D02*
X77348Y-37253D01*
X77348Y-37253D02*
X77391Y-37297D01*
X78594Y-36490D02*
X78594Y-36718D01*
X78881Y-37297D02*
X78881Y-36747D01*
X78881Y-36747D02*
X78622Y-36747D01*
X78622Y-36747D02*
X78594Y-36718D01*
X85976Y-42917D02*
X85541Y-42482D01*
X85541Y-42482D02*
X83858Y-42482D01*
X83858Y-42482D02*
X83654Y-42685D01*
X83654Y-42685D02*
X76802Y-42685D01*
X76802Y-42685D02*
X76370Y-42253D01*
X82370Y-35253D02*
X81450Y-34334D01*
X81450Y-34334D02*
X81450Y-33888D01*
X81450Y-33888D02*
X81204Y-33642D01*
X81204Y-33642D02*
X77256Y-33642D01*
X77256Y-33642D02*
X77140Y-33758D01*
X77140Y-33758D02*
X73656Y-33758D01*
X73656Y-33758D02*
X73196Y-33299D01*
X76370Y-33253D02*
X75915Y-32799D01*
X75915Y-32799D02*
X72696Y-32799D01*
X72696Y-32799D02*
X72196Y-32299D01*
X82370Y-33253D02*
X80961Y-31844D01*
X80961Y-31844D02*
X71651Y-31844D01*
X71651Y-31844D02*
X71196Y-32299D01*
G54D10*
G36*
X81021Y-36635D02*
X80999Y-36629D01*
X80903Y-36688D01*
X80903Y-37275D01*
X80911Y-37275D01*
X80911Y-37318D01*
X80903Y-37318D01*
X80903Y-37326D01*
X80860Y-37326D01*
X80860Y-37318D01*
X80860Y-37275D01*
X80860Y-36688D01*
X80764Y-36629D01*
X80664Y-36657D01*
X80459Y-36784D01*
X80381Y-36892D01*
X80304Y-36784D01*
X80099Y-36657D01*
X79999Y-36629D01*
X79903Y-36688D01*
X79903Y-37275D01*
X80263Y-37275D01*
X80500Y-37275D01*
X80860Y-37275D01*
X80860Y-37318D01*
X80500Y-37318D01*
X80263Y-37318D01*
X79903Y-37318D01*
X79903Y-37905D01*
X79999Y-37964D01*
X80099Y-37937D01*
X80304Y-37809D01*
X80381Y-37701D01*
X80459Y-37809D01*
X80558Y-37871D01*
X80392Y-38037D01*
X78146Y-38037D01*
X78007Y-38065D01*
X77888Y-38144D01*
X76941Y-39091D01*
X76870Y-38920D01*
X76704Y-38754D01*
X76704Y-38753D01*
X76869Y-38588D01*
X76959Y-38371D01*
X76960Y-38137D01*
X76870Y-37920D01*
X76704Y-37754D01*
X76704Y-37753D01*
X76839Y-37618D01*
X77226Y-37618D01*
X77226Y-37759D01*
X77274Y-37875D01*
X77363Y-37964D01*
X77479Y-38012D01*
X77604Y-38012D01*
X78284Y-38012D01*
X78400Y-37964D01*
X78485Y-37879D01*
X78631Y-37976D01*
X78881Y-38026D01*
X79132Y-37976D01*
X79345Y-37834D01*
X79408Y-37739D01*
X79459Y-37809D01*
X79664Y-37937D01*
X79764Y-37964D01*
X79860Y-37905D01*
X79860Y-37318D01*
X79852Y-37318D01*
X79852Y-37275D01*
X79860Y-37275D01*
X79860Y-36688D01*
X79764Y-36629D01*
X79664Y-36657D01*
X79459Y-36784D01*
X79408Y-36855D01*
X79345Y-36760D01*
X79234Y-36686D01*
X79219Y-36607D01*
X79139Y-36489D01*
X79027Y-36413D01*
X79027Y-36348D01*
X79012Y-36312D01*
X79027Y-36277D01*
X79027Y-36151D01*
X79027Y-35994D01*
X78979Y-35879D01*
X78890Y-35790D01*
X78775Y-35742D01*
X78649Y-35742D01*
X78438Y-35742D01*
X78351Y-35684D01*
X78263Y-35666D01*
X77884Y-35287D01*
X77884Y-34868D01*
X77884Y-34247D01*
X77351Y-34247D01*
X77351Y-34405D01*
X77401Y-34615D01*
X77528Y-34790D01*
X77713Y-34904D01*
X77798Y-34927D01*
X77884Y-34868D01*
X77884Y-35287D01*
X77592Y-34995D01*
X77474Y-34916D01*
X77334Y-34888D01*
X76839Y-34888D01*
X76704Y-34754D01*
X76704Y-34753D01*
X76869Y-34588D01*
X76959Y-34371D01*
X76960Y-34137D01*
X76954Y-34123D01*
X77140Y-34123D01*
X77280Y-34095D01*
X77280Y-34095D01*
X77351Y-34048D01*
X77351Y-34205D01*
X77884Y-34205D01*
X77884Y-34197D01*
X77927Y-34197D01*
X77927Y-34205D01*
X77935Y-34205D01*
X77935Y-34247D01*
X77927Y-34247D01*
X77927Y-34868D01*
X78013Y-34927D01*
X78098Y-34904D01*
X78282Y-34790D01*
X78372Y-34666D01*
X78472Y-34816D01*
X78663Y-34944D01*
X78889Y-34989D01*
X79115Y-34944D01*
X79307Y-34816D01*
X79381Y-34704D01*
X79456Y-34816D01*
X79647Y-34944D01*
X79873Y-34989D01*
X80099Y-34944D01*
X80291Y-34816D01*
X80300Y-34802D01*
X80315Y-34837D01*
X80403Y-34926D01*
X80519Y-34974D01*
X80537Y-34974D01*
X80599Y-35067D01*
X81021Y-35489D01*
X81021Y-36635D01*
X81021Y-36635D01*
G37*
G54D32*
X81021Y-36635D02*
X80999Y-36629D01*
X80903Y-36688D01*
X80903Y-37275D01*
X80911Y-37275D01*
X80911Y-37318D01*
X80903Y-37318D01*
X80903Y-37326D01*
X80860Y-37326D01*
X80860Y-37318D01*
X80860Y-37275D01*
X80860Y-36688D01*
X80764Y-36629D01*
X80664Y-36657D01*
X80459Y-36784D01*
X80381Y-36892D01*
X80304Y-36784D01*
X80099Y-36657D01*
X79999Y-36629D01*
X79903Y-36688D01*
X79903Y-37275D01*
X80263Y-37275D01*
X80500Y-37275D01*
X80860Y-37275D01*
X80860Y-37318D01*
X80500Y-37318D01*
X80263Y-37318D01*
X79903Y-37318D01*
X79903Y-37905D01*
X79999Y-37964D01*
X80099Y-37937D01*
X80304Y-37809D01*
X80381Y-37701D01*
X80459Y-37809D01*
X80558Y-37871D01*
X80392Y-38037D01*
X78146Y-38037D01*
X78007Y-38065D01*
X77888Y-38144D01*
X76941Y-39091D01*
X76870Y-38920D01*
X76704Y-38754D01*
X76704Y-38753D01*
X76869Y-38588D01*
X76959Y-38371D01*
X76960Y-38137D01*
X76870Y-37920D01*
X76704Y-37754D01*
X76704Y-37753D01*
X76839Y-37618D01*
X77226Y-37618D01*
X77226Y-37759D01*
X77274Y-37875D01*
X77363Y-37964D01*
X77479Y-38012D01*
X77604Y-38012D01*
X78284Y-38012D01*
X78400Y-37964D01*
X78485Y-37879D01*
X78631Y-37976D01*
X78881Y-38026D01*
X79132Y-37976D01*
X79345Y-37834D01*
X79408Y-37739D01*
X79459Y-37809D01*
X79664Y-37937D01*
X79764Y-37964D01*
X79860Y-37905D01*
X79860Y-37318D01*
X79852Y-37318D01*
X79852Y-37275D01*
X79860Y-37275D01*
X79860Y-36688D01*
X79764Y-36629D01*
X79664Y-36657D01*
X79459Y-36784D01*
X79408Y-36855D01*
X79345Y-36760D01*
X79234Y-36686D01*
X79219Y-36607D01*
X79139Y-36489D01*
X79027Y-36413D01*
X79027Y-36348D01*
X79012Y-36312D01*
X79027Y-36277D01*
X79027Y-36151D01*
X79027Y-35994D01*
X78979Y-35879D01*
X78890Y-35790D01*
X78775Y-35742D01*
X78649Y-35742D01*
X78438Y-35742D01*
X78351Y-35684D01*
X78263Y-35666D01*
X77884Y-35287D01*
X77884Y-34868D01*
X77884Y-34247D01*
X77351Y-34247D01*
X77351Y-34405D01*
X77401Y-34615D01*
X77528Y-34790D01*
X77713Y-34904D01*
X77798Y-34927D01*
X77884Y-34868D01*
X77884Y-35287D01*
X77592Y-34995D01*
X77474Y-34916D01*
X77334Y-34888D01*
X76839Y-34888D01*
X76704Y-34754D01*
X76704Y-34753D01*
X76869Y-34588D01*
X76959Y-34371D01*
X76960Y-34137D01*
X76954Y-34123D01*
X77140Y-34123D01*
X77280Y-34095D01*
X77280Y-34095D01*
X77351Y-34048D01*
X77351Y-34205D01*
X77884Y-34205D01*
X77884Y-34197D01*
X77927Y-34197D01*
X77927Y-34205D01*
X77935Y-34205D01*
X77935Y-34247D01*
X77927Y-34247D01*
X77927Y-34868D01*
X78013Y-34927D01*
X78098Y-34904D01*
X78282Y-34790D01*
X78372Y-34666D01*
X78472Y-34816D01*
X78663Y-34944D01*
X78889Y-34989D01*
X79115Y-34944D01*
X79307Y-34816D01*
X79381Y-34704D01*
X79456Y-34816D01*
X79647Y-34944D01*
X79873Y-34989D01*
X80099Y-34944D01*
X80291Y-34816D01*
X80300Y-34802D01*
X80315Y-34837D01*
X80403Y-34926D01*
X80519Y-34974D01*
X80537Y-34974D01*
X80599Y-35067D01*
X81021Y-35489D01*
X81021Y-36635D01*
G54D10*
G36*
X82036Y-41753D02*
X81870Y-41919D01*
X81780Y-42136D01*
X81780Y-42320D01*
X81093Y-42320D01*
X81128Y-42262D01*
X81147Y-42195D01*
X81086Y-42121D01*
X80584Y-42121D01*
X80584Y-42129D01*
X80541Y-42129D01*
X80541Y-42121D01*
X80039Y-42121D01*
X79978Y-42195D01*
X79997Y-42262D01*
X80032Y-42320D01*
X78928Y-42320D01*
X78963Y-42262D01*
X78981Y-42195D01*
X78921Y-42121D01*
X78418Y-42121D01*
X78418Y-42129D01*
X78376Y-42129D01*
X78376Y-42121D01*
X77874Y-42121D01*
X77813Y-42195D01*
X77832Y-42262D01*
X77867Y-42320D01*
X76959Y-42320D01*
X76960Y-42137D01*
X76952Y-42118D01*
X77188Y-42118D01*
X77327Y-42091D01*
X77327Y-42091D01*
X77446Y-42012D01*
X77583Y-41874D01*
X77870Y-41874D01*
X77832Y-41938D01*
X77813Y-42005D01*
X77874Y-42079D01*
X78376Y-42079D01*
X78376Y-42071D01*
X78418Y-42071D01*
X78418Y-42079D01*
X78921Y-42079D01*
X78981Y-42005D01*
X78963Y-41938D01*
X78924Y-41874D01*
X79254Y-41874D01*
X79393Y-41846D01*
X79393Y-41846D01*
X79512Y-41767D01*
X79722Y-41557D01*
X79742Y-41557D01*
X79760Y-41649D01*
X79839Y-41767D01*
X79958Y-41846D01*
X80042Y-41863D01*
X79997Y-41938D01*
X79978Y-42005D01*
X80039Y-42079D01*
X80541Y-42079D01*
X80541Y-42071D01*
X80584Y-42071D01*
X80584Y-42079D01*
X81086Y-42079D01*
X81147Y-42005D01*
X81128Y-41938D01*
X81072Y-41845D01*
X81166Y-41705D01*
X81205Y-41509D01*
X81166Y-41313D01*
X81146Y-41284D01*
X81780Y-41284D01*
X81780Y-41370D01*
X81870Y-41587D01*
X82035Y-41753D01*
X82036Y-41753D01*
X82036Y-41753D01*
G37*
G54D32*
X82036Y-41753D02*
X81870Y-41919D01*
X81780Y-42136D01*
X81780Y-42320D01*
X81093Y-42320D01*
X81128Y-42262D01*
X81147Y-42195D01*
X81086Y-42121D01*
X80584Y-42121D01*
X80584Y-42129D01*
X80541Y-42129D01*
X80541Y-42121D01*
X80039Y-42121D01*
X79978Y-42195D01*
X79997Y-42262D01*
X80032Y-42320D01*
X78928Y-42320D01*
X78963Y-42262D01*
X78981Y-42195D01*
X78921Y-42121D01*
X78418Y-42121D01*
X78418Y-42129D01*
X78376Y-42129D01*
X78376Y-42121D01*
X77874Y-42121D01*
X77813Y-42195D01*
X77832Y-42262D01*
X77867Y-42320D01*
X76959Y-42320D01*
X76960Y-42137D01*
X76952Y-42118D01*
X77188Y-42118D01*
X77327Y-42091D01*
X77327Y-42091D01*
X77446Y-42012D01*
X77583Y-41874D01*
X77870Y-41874D01*
X77832Y-41938D01*
X77813Y-42005D01*
X77874Y-42079D01*
X78376Y-42079D01*
X78376Y-42071D01*
X78418Y-42071D01*
X78418Y-42079D01*
X78921Y-42079D01*
X78981Y-42005D01*
X78963Y-41938D01*
X78924Y-41874D01*
X79254Y-41874D01*
X79393Y-41846D01*
X79393Y-41846D01*
X79512Y-41767D01*
X79722Y-41557D01*
X79742Y-41557D01*
X79760Y-41649D01*
X79839Y-41767D01*
X79958Y-41846D01*
X80042Y-41863D01*
X79997Y-41938D01*
X79978Y-42005D01*
X80039Y-42079D01*
X80541Y-42079D01*
X80541Y-42071D01*
X80584Y-42071D01*
X80584Y-42079D01*
X81086Y-42079D01*
X81147Y-42005D01*
X81128Y-41938D01*
X81072Y-41845D01*
X81166Y-41705D01*
X81205Y-41509D01*
X81166Y-41313D01*
X81146Y-41284D01*
X81780Y-41284D01*
X81780Y-41370D01*
X81870Y-41587D01*
X82035Y-41753D01*
X82036Y-41753D01*
G54D10*
G36*
X84122Y-41781D02*
X84092Y-41811D01*
X84086Y-41805D01*
X84081Y-41811D01*
X84056Y-41786D01*
X84050Y-41781D01*
X84056Y-41775D01*
X83721Y-41440D01*
X83617Y-41461D01*
X83533Y-41664D01*
X83532Y-41884D01*
X83616Y-42088D01*
X83617Y-42090D01*
X83721Y-42110D01*
X83673Y-42158D01*
X83683Y-42168D01*
X83600Y-42224D01*
X83503Y-42320D01*
X82960Y-42320D01*
X82960Y-42137D01*
X82871Y-41920D01*
X82705Y-41754D01*
X82704Y-41753D01*
X82870Y-41588D01*
X82960Y-41371D01*
X82960Y-41137D01*
X82871Y-40920D01*
X82705Y-40754D01*
X82704Y-40753D01*
X82870Y-40588D01*
X82960Y-40371D01*
X82960Y-40359D01*
X83867Y-41266D01*
X83773Y-41305D01*
X83772Y-41306D01*
X83752Y-41410D01*
X84086Y-41745D01*
X84092Y-41739D01*
X84122Y-41770D01*
X84116Y-41775D01*
X84122Y-41781D01*
X84122Y-41781D01*
G37*
G54D32*
X84122Y-41781D02*
X84092Y-41811D01*
X84086Y-41805D01*
X84081Y-41811D01*
X84056Y-41786D01*
X84050Y-41781D01*
X84056Y-41775D01*
X83721Y-41440D01*
X83617Y-41461D01*
X83533Y-41664D01*
X83532Y-41884D01*
X83616Y-42088D01*
X83617Y-42090D01*
X83721Y-42110D01*
X83673Y-42158D01*
X83683Y-42168D01*
X83600Y-42224D01*
X83503Y-42320D01*
X82960Y-42320D01*
X82960Y-42137D01*
X82871Y-41920D01*
X82705Y-41754D01*
X82704Y-41753D01*
X82870Y-41588D01*
X82960Y-41371D01*
X82960Y-41137D01*
X82871Y-40920D01*
X82705Y-40754D01*
X82704Y-40753D01*
X82870Y-40588D01*
X82960Y-40371D01*
X82960Y-40359D01*
X83867Y-41266D01*
X83773Y-41305D01*
X83772Y-41306D01*
X83752Y-41410D01*
X84086Y-41745D01*
X84092Y-41739D01*
X84122Y-41770D01*
X84116Y-41775D01*
X84122Y-41781D01*
G54D10*
G36*
X87108Y-38527D02*
X86917Y-38527D01*
X86802Y-38575D01*
X86713Y-38664D01*
X86665Y-38780D01*
X86665Y-38905D01*
X86665Y-39062D01*
X86680Y-39098D01*
X86665Y-39134D01*
X86665Y-39259D01*
X86665Y-39416D01*
X86713Y-39532D01*
X86733Y-39552D01*
X86733Y-39571D01*
X86695Y-39587D01*
X86606Y-39676D01*
X86566Y-39772D01*
X86566Y-38666D01*
X86476Y-38449D01*
X86311Y-38283D01*
X86094Y-38193D01*
X85859Y-38193D01*
X85642Y-38283D01*
X85476Y-38448D01*
X85386Y-38665D01*
X85386Y-38900D01*
X85475Y-39117D01*
X85641Y-39283D01*
X85858Y-39373D01*
X86093Y-39373D01*
X86310Y-39283D01*
X86476Y-39118D01*
X86566Y-38901D01*
X86566Y-38666D01*
X86566Y-39772D01*
X86558Y-39791D01*
X86558Y-39917D01*
X86558Y-40167D01*
X86578Y-40214D01*
X84847Y-40214D01*
X84640Y-40007D01*
X84640Y-38674D01*
X84556Y-38470D01*
X84555Y-38469D01*
X84451Y-38448D01*
X84421Y-38478D01*
X84421Y-38418D01*
X84401Y-38314D01*
X84197Y-38229D01*
X83977Y-38229D01*
X83773Y-38313D01*
X83772Y-38314D01*
X83752Y-38418D01*
X84086Y-38753D01*
X84421Y-38418D01*
X84421Y-38478D01*
X84116Y-38783D01*
X84451Y-39118D01*
X84555Y-39097D01*
X84640Y-38894D01*
X84640Y-38674D01*
X84640Y-40007D01*
X83965Y-39332D01*
X83975Y-39337D01*
X84195Y-39337D01*
X84399Y-39253D01*
X84401Y-39252D01*
X84421Y-39148D01*
X84086Y-38813D01*
X84081Y-38819D01*
X84050Y-38789D01*
X84056Y-38783D01*
X83721Y-38448D01*
X83617Y-38469D01*
X83533Y-38672D01*
X83532Y-38892D01*
X83537Y-38905D01*
X82960Y-38327D01*
X82960Y-38137D01*
X82942Y-38093D01*
X86090Y-38093D01*
X86230Y-38065D01*
X86230Y-38065D01*
X86349Y-37986D01*
X87108Y-37226D01*
X87108Y-38527D01*
X87108Y-38527D01*
G37*
G54D32*
X87108Y-38527D02*
X86917Y-38527D01*
X86802Y-38575D01*
X86713Y-38664D01*
X86665Y-38780D01*
X86665Y-38905D01*
X86665Y-39062D01*
X86680Y-39098D01*
X86665Y-39134D01*
X86665Y-39259D01*
X86665Y-39416D01*
X86713Y-39532D01*
X86733Y-39552D01*
X86733Y-39571D01*
X86695Y-39587D01*
X86606Y-39676D01*
X86566Y-39772D01*
X86566Y-38666D01*
X86476Y-38449D01*
X86311Y-38283D01*
X86094Y-38193D01*
X85859Y-38193D01*
X85642Y-38283D01*
X85476Y-38448D01*
X85386Y-38665D01*
X85386Y-38900D01*
X85475Y-39117D01*
X85641Y-39283D01*
X85858Y-39373D01*
X86093Y-39373D01*
X86310Y-39283D01*
X86476Y-39118D01*
X86566Y-38901D01*
X86566Y-38666D01*
X86566Y-39772D01*
X86558Y-39791D01*
X86558Y-39917D01*
X86558Y-40167D01*
X86578Y-40214D01*
X84847Y-40214D01*
X84640Y-40007D01*
X84640Y-38674D01*
X84556Y-38470D01*
X84555Y-38469D01*
X84451Y-38448D01*
X84421Y-38478D01*
X84421Y-38418D01*
X84401Y-38314D01*
X84197Y-38229D01*
X83977Y-38229D01*
X83773Y-38313D01*
X83772Y-38314D01*
X83752Y-38418D01*
X84086Y-38753D01*
X84421Y-38418D01*
X84421Y-38478D01*
X84116Y-38783D01*
X84451Y-39118D01*
X84555Y-39097D01*
X84640Y-38894D01*
X84640Y-38674D01*
X84640Y-40007D01*
X83965Y-39332D01*
X83975Y-39337D01*
X84195Y-39337D01*
X84399Y-39253D01*
X84401Y-39252D01*
X84421Y-39148D01*
X84086Y-38813D01*
X84081Y-38819D01*
X84050Y-38789D01*
X84056Y-38783D01*
X83721Y-38448D01*
X83617Y-38469D01*
X83533Y-38672D01*
X83532Y-38892D01*
X83537Y-38905D01*
X82960Y-38327D01*
X82960Y-38137D01*
X82942Y-38093D01*
X86090Y-38093D01*
X86230Y-38065D01*
X86230Y-38065D01*
X86349Y-37986D01*
X87108Y-37226D01*
X87108Y-38527D01*
G54D10*
G36*
X87923Y-48532D02*
X87882Y-48735D01*
X87785Y-48880D01*
X87649Y-48971D01*
X87649Y-48491D01*
X87649Y-48366D01*
X87649Y-47027D01*
X87601Y-46911D01*
X87513Y-46823D01*
X87397Y-46775D01*
X87272Y-46775D01*
X86566Y-46775D01*
X86566Y-45792D01*
X86476Y-45575D01*
X86311Y-45409D01*
X86094Y-45319D01*
X85859Y-45319D01*
X85642Y-45409D01*
X85476Y-45574D01*
X85386Y-45791D01*
X85386Y-46026D01*
X85475Y-46243D01*
X85641Y-46409D01*
X85858Y-46499D01*
X86093Y-46499D01*
X86310Y-46409D01*
X86476Y-46244D01*
X86566Y-46027D01*
X86566Y-45792D01*
X86566Y-46775D01*
X85933Y-46775D01*
X85817Y-46823D01*
X85728Y-46911D01*
X85680Y-47027D01*
X85680Y-47152D01*
X85680Y-48491D01*
X85728Y-48607D01*
X85817Y-48696D01*
X85933Y-48744D01*
X86058Y-48744D01*
X87397Y-48744D01*
X87513Y-48696D01*
X87601Y-48607D01*
X87649Y-48491D01*
X87649Y-48971D01*
X87641Y-48977D01*
X87437Y-49017D01*
X84640Y-49017D01*
X84640Y-45800D01*
X84556Y-45596D01*
X84555Y-45595D01*
X84451Y-45574D01*
X84421Y-45604D01*
X84421Y-45544D01*
X84421Y-43281D01*
X84086Y-42947D01*
X83752Y-43281D01*
X83772Y-43386D01*
X83975Y-43470D01*
X84195Y-43471D01*
X84399Y-43387D01*
X84401Y-43386D01*
X84421Y-43281D01*
X84421Y-45544D01*
X84401Y-45440D01*
X84197Y-45355D01*
X83977Y-45355D01*
X83773Y-45439D01*
X83772Y-45440D01*
X83752Y-45544D01*
X84086Y-45879D01*
X84421Y-45544D01*
X84421Y-45604D01*
X84116Y-45909D01*
X84451Y-46244D01*
X84555Y-46223D01*
X84640Y-46020D01*
X84640Y-45800D01*
X84640Y-49017D01*
X84421Y-49017D01*
X84421Y-46274D01*
X84086Y-45939D01*
X84056Y-45969D01*
X84056Y-45909D01*
X83721Y-45574D01*
X83617Y-45595D01*
X83533Y-45798D01*
X83532Y-46018D01*
X83616Y-46222D01*
X83617Y-46223D01*
X83721Y-46244D01*
X84056Y-45909D01*
X84056Y-45969D01*
X83752Y-46274D01*
X83772Y-46378D01*
X83975Y-46463D01*
X84195Y-46463D01*
X84399Y-46379D01*
X84401Y-46378D01*
X84421Y-46274D01*
X84421Y-49017D01*
X82960Y-49017D01*
X82960Y-46137D01*
X82871Y-45920D01*
X82705Y-45754D01*
X82704Y-45753D01*
X82870Y-45588D01*
X82960Y-45371D01*
X82960Y-45137D01*
X82924Y-45049D01*
X82924Y-44144D01*
X82840Y-43941D01*
X82839Y-43939D01*
X82735Y-43919D01*
X82400Y-44253D01*
X82735Y-44588D01*
X82839Y-44568D01*
X82924Y-44364D01*
X82924Y-44144D01*
X82924Y-45049D01*
X82871Y-44920D01*
X82705Y-44754D01*
X82657Y-44734D01*
X82683Y-44723D01*
X82684Y-44722D01*
X82705Y-44618D01*
X82370Y-44284D01*
X82340Y-44314D01*
X82340Y-44253D01*
X82005Y-43919D01*
X81901Y-43939D01*
X81817Y-44142D01*
X81816Y-44363D01*
X81900Y-44566D01*
X81901Y-44568D01*
X82005Y-44588D01*
X82340Y-44253D01*
X82340Y-44314D01*
X82035Y-44618D01*
X82056Y-44722D01*
X82083Y-44734D01*
X82036Y-44753D01*
X81870Y-44919D01*
X81780Y-45136D01*
X81780Y-45370D01*
X81870Y-45587D01*
X82035Y-45753D01*
X82036Y-45753D01*
X81870Y-45919D01*
X81780Y-46136D01*
X81780Y-46370D01*
X81870Y-46587D01*
X81971Y-46689D01*
X81917Y-46711D01*
X81828Y-46800D01*
X81780Y-46916D01*
X81780Y-47041D01*
X81780Y-47591D01*
X81828Y-47707D01*
X81917Y-47795D01*
X82032Y-47843D01*
X82158Y-47843D01*
X82708Y-47843D01*
X82823Y-47795D01*
X82912Y-47707D01*
X82960Y-47591D01*
X82960Y-47466D01*
X82960Y-46916D01*
X82912Y-46800D01*
X82823Y-46711D01*
X82769Y-46689D01*
X82870Y-46588D01*
X82960Y-46371D01*
X82960Y-46137D01*
X82960Y-49017D01*
X80428Y-49017D01*
X80428Y-46412D01*
X80428Y-46353D01*
X80428Y-46311D01*
X80428Y-46252D01*
X80428Y-44542D01*
X80428Y-44483D01*
X80428Y-44441D01*
X80428Y-44382D01*
X80387Y-44216D01*
X80285Y-44080D01*
X80139Y-43992D01*
X80081Y-43976D01*
X80013Y-44037D01*
X80013Y-44441D01*
X80428Y-44441D01*
X80428Y-44483D01*
X80013Y-44483D01*
X80013Y-44887D01*
X80081Y-44948D01*
X80139Y-44932D01*
X80285Y-44845D01*
X80387Y-44708D01*
X80428Y-44542D01*
X80428Y-46252D01*
X80387Y-46087D01*
X80285Y-45950D01*
X80139Y-45862D01*
X80081Y-45846D01*
X80013Y-45907D01*
X80013Y-46311D01*
X80428Y-46311D01*
X80428Y-46353D01*
X80013Y-46353D01*
X80013Y-46757D01*
X80081Y-46818D01*
X80139Y-46802D01*
X80285Y-46715D01*
X80387Y-46578D01*
X80428Y-46412D01*
X80428Y-49017D01*
X71914Y-49017D01*
X71914Y-47301D01*
X71914Y-47101D01*
X71914Y-47059D01*
X71914Y-46859D01*
X71855Y-46603D01*
X71702Y-46390D01*
X71479Y-46251D01*
X71368Y-46220D01*
X71263Y-46278D01*
X71263Y-47059D01*
X71914Y-47059D01*
X71914Y-47101D01*
X71263Y-47101D01*
X71263Y-47882D01*
X71368Y-47941D01*
X71479Y-47909D01*
X71702Y-47771D01*
X71855Y-47557D01*
X71914Y-47301D01*
X71914Y-49017D01*
X71221Y-49017D01*
X71221Y-47882D01*
X71221Y-47101D01*
X71221Y-47059D01*
X71221Y-46278D01*
X71116Y-46220D01*
X71004Y-46251D01*
X70782Y-46390D01*
X70629Y-46603D01*
X70570Y-46859D01*
X70570Y-47059D01*
X71221Y-47059D01*
X71221Y-47101D01*
X70570Y-47101D01*
X70570Y-47301D01*
X70629Y-47557D01*
X70782Y-47771D01*
X71004Y-47909D01*
X71116Y-47941D01*
X71221Y-47882D01*
X71221Y-49017D01*
X70170Y-49017D01*
X70170Y-43145D01*
X70116Y-42874D01*
X70104Y-42856D01*
X70104Y-41291D01*
X70104Y-41038D01*
X70073Y-40927D01*
X69934Y-40704D01*
X69720Y-40552D01*
X69465Y-40492D01*
X69265Y-40492D01*
X69265Y-41143D01*
X70046Y-41143D01*
X70104Y-41038D01*
X70104Y-41291D01*
X70046Y-41186D01*
X69265Y-41186D01*
X69265Y-41837D01*
X69465Y-41837D01*
X69720Y-41778D01*
X69934Y-41625D01*
X70073Y-41402D01*
X70104Y-41291D01*
X70104Y-42856D01*
X69962Y-42644D01*
X69733Y-42491D01*
X69461Y-42437D01*
X69222Y-42437D01*
X69222Y-41837D01*
X69222Y-41186D01*
X69222Y-41143D01*
X69222Y-40492D01*
X69022Y-40492D01*
X68767Y-40552D01*
X68553Y-40704D01*
X68414Y-40927D01*
X68383Y-41038D01*
X68441Y-41143D01*
X69222Y-41143D01*
X69222Y-41186D01*
X68441Y-41186D01*
X68383Y-41291D01*
X68414Y-41402D01*
X68553Y-41625D01*
X68767Y-41778D01*
X69022Y-41837D01*
X69222Y-41837D01*
X69222Y-42437D01*
X69026Y-42437D01*
X68755Y-42491D01*
X68525Y-42644D01*
X68371Y-42874D01*
X68317Y-43145D01*
X68371Y-43417D01*
X68525Y-43646D01*
X68755Y-43800D01*
X69026Y-43854D01*
X69461Y-43854D01*
X69733Y-43800D01*
X69962Y-43646D01*
X70116Y-43417D01*
X70170Y-43145D01*
X70170Y-49017D01*
X70104Y-49017D01*
X70104Y-45240D01*
X70104Y-44987D01*
X70073Y-44876D01*
X69934Y-44653D01*
X69720Y-44500D01*
X69465Y-44441D01*
X69265Y-44441D01*
X69265Y-45092D01*
X70046Y-45092D01*
X70104Y-44987D01*
X70104Y-45240D01*
X70046Y-45135D01*
X69265Y-45135D01*
X69265Y-45786D01*
X69465Y-45786D01*
X69720Y-45726D01*
X69934Y-45574D01*
X70073Y-45351D01*
X70104Y-45240D01*
X70104Y-49017D01*
X69222Y-49017D01*
X69222Y-45786D01*
X69222Y-45135D01*
X69222Y-45092D01*
X69222Y-44441D01*
X69022Y-44441D01*
X68767Y-44500D01*
X68553Y-44653D01*
X68414Y-44876D01*
X68383Y-44987D01*
X68441Y-45092D01*
X69222Y-45092D01*
X69222Y-45135D01*
X68441Y-45135D01*
X68383Y-45240D01*
X68414Y-45351D01*
X68553Y-45574D01*
X68767Y-45726D01*
X69022Y-45786D01*
X69222Y-45786D01*
X69222Y-49017D01*
X69145Y-49017D01*
X69145Y-48491D01*
X69145Y-48366D01*
X69145Y-47027D01*
X69097Y-46911D01*
X69009Y-46823D01*
X68893Y-46775D01*
X68768Y-46775D01*
X67429Y-46775D01*
X67313Y-46823D01*
X67224Y-46911D01*
X67176Y-47027D01*
X67176Y-47152D01*
X67176Y-48491D01*
X67224Y-48607D01*
X67313Y-48696D01*
X67429Y-48744D01*
X67554Y-48744D01*
X68893Y-48744D01*
X69009Y-48696D01*
X69097Y-48607D01*
X69145Y-48491D01*
X69145Y-49017D01*
X67424Y-49017D01*
X67220Y-48977D01*
X67076Y-48880D01*
X66979Y-48735D01*
X66938Y-48532D01*
X66938Y-32062D01*
X66979Y-31858D01*
X67076Y-31714D01*
X67220Y-31617D01*
X67424Y-31576D01*
X71407Y-31576D01*
X71393Y-31586D01*
X71295Y-31684D01*
X71075Y-31684D01*
X70848Y-31777D01*
X70675Y-31950D01*
X70669Y-31966D01*
X70579Y-31946D01*
X70549Y-31976D01*
X70549Y-31916D01*
X70526Y-31809D01*
X70313Y-31720D01*
X70083Y-31720D01*
X69870Y-31807D01*
X69867Y-31809D01*
X69844Y-31916D01*
X70196Y-32269D01*
X70549Y-31916D01*
X70549Y-31976D01*
X70226Y-32299D01*
X70579Y-32651D01*
X70669Y-32632D01*
X70675Y-32647D01*
X70827Y-32799D01*
X70675Y-32950D01*
X70669Y-32966D01*
X70579Y-32946D01*
X70549Y-32976D01*
X70549Y-32916D01*
X70526Y-32809D01*
X70502Y-32799D01*
X70523Y-32790D01*
X70526Y-32788D01*
X70549Y-32681D01*
X70196Y-32329D01*
X70166Y-32359D01*
X70166Y-32299D01*
X69814Y-31946D01*
X69707Y-31969D01*
X69618Y-32182D01*
X69617Y-32412D01*
X69705Y-32625D01*
X69707Y-32628D01*
X69814Y-32651D01*
X70166Y-32299D01*
X70166Y-32359D01*
X69844Y-32681D01*
X69867Y-32788D01*
X69891Y-32798D01*
X69870Y-32807D01*
X69867Y-32809D01*
X69844Y-32916D01*
X70196Y-33269D01*
X70549Y-32916D01*
X70549Y-32976D01*
X70226Y-33299D01*
X70579Y-33651D01*
X70669Y-33632D01*
X70675Y-33647D01*
X70848Y-33820D01*
X71073Y-33914D01*
X71318Y-33914D01*
X71544Y-33820D01*
X71696Y-33668D01*
X71848Y-33820D01*
X72073Y-33914D01*
X72318Y-33914D01*
X72544Y-33820D01*
X72696Y-33668D01*
X72848Y-33820D01*
X73073Y-33914D01*
X73295Y-33914D01*
X73398Y-34016D01*
X73516Y-34095D01*
X73516Y-34095D01*
X73656Y-34123D01*
X74080Y-34123D01*
X74052Y-34191D01*
X74052Y-34302D01*
X74052Y-34381D01*
X74121Y-34451D01*
X74434Y-34451D01*
X74434Y-34443D01*
X74477Y-34443D01*
X74477Y-34451D01*
X74485Y-34451D01*
X74485Y-34493D01*
X74477Y-34493D01*
X74477Y-34501D01*
X74434Y-34501D01*
X74434Y-34493D01*
X74121Y-34493D01*
X74052Y-34563D01*
X74052Y-34641D01*
X74052Y-34752D01*
X74094Y-34855D01*
X74173Y-34933D01*
X74275Y-34976D01*
X74320Y-34976D01*
X74324Y-34976D01*
X74389Y-35041D01*
X74637Y-35041D01*
X74637Y-35084D01*
X74389Y-35084D01*
X74320Y-35153D01*
X74320Y-35236D01*
X74362Y-35338D01*
X74440Y-35417D01*
X74543Y-35459D01*
X74586Y-35459D01*
X74656Y-35390D01*
X74656Y-35287D01*
X74685Y-35359D01*
X74698Y-35372D01*
X74698Y-35390D01*
X74768Y-35459D01*
X74802Y-35459D01*
X74890Y-35495D01*
X75015Y-35495D01*
X75172Y-35495D01*
X75288Y-35448D01*
X75376Y-35359D01*
X75424Y-35243D01*
X75424Y-35118D01*
X75424Y-34898D01*
X75447Y-34875D01*
X75477Y-34805D01*
X75477Y-34805D01*
X75589Y-34730D01*
X75700Y-34618D01*
X75900Y-34618D01*
X76035Y-34753D01*
X76035Y-34753D01*
X75870Y-34919D01*
X75780Y-35136D01*
X75780Y-35370D01*
X75869Y-35587D01*
X76035Y-35753D01*
X76035Y-35753D01*
X75870Y-35919D01*
X75780Y-36136D01*
X75780Y-36370D01*
X75869Y-36587D01*
X76035Y-36753D01*
X76035Y-36753D01*
X75870Y-36919D01*
X75780Y-37136D01*
X75780Y-37370D01*
X75869Y-37587D01*
X76035Y-37753D01*
X76035Y-37753D01*
X75870Y-37919D01*
X75780Y-38136D01*
X75780Y-38370D01*
X75869Y-38587D01*
X76035Y-38753D01*
X76035Y-38753D01*
X75900Y-38888D01*
X70549Y-38888D01*
X70549Y-33681D01*
X70196Y-33329D01*
X70166Y-33359D01*
X70166Y-33299D01*
X69814Y-32946D01*
X69707Y-32969D01*
X69618Y-33182D01*
X69617Y-33412D01*
X69705Y-33625D01*
X69707Y-33628D01*
X69814Y-33651D01*
X70166Y-33299D01*
X70166Y-33359D01*
X69844Y-33681D01*
X69867Y-33788D01*
X70079Y-33877D01*
X70310Y-33878D01*
X70523Y-33790D01*
X70526Y-33788D01*
X70549Y-33681D01*
X70549Y-38888D01*
X70170Y-38888D01*
X70170Y-38888D01*
X70170Y-35260D01*
X70116Y-34988D01*
X69962Y-34759D01*
X69733Y-34605D01*
X69461Y-34551D01*
X69145Y-34551D01*
X69145Y-33531D01*
X69145Y-33406D01*
X69145Y-32067D01*
X69097Y-31951D01*
X69009Y-31862D01*
X68893Y-31814D01*
X68768Y-31814D01*
X67429Y-31814D01*
X67313Y-31862D01*
X67224Y-31951D01*
X67176Y-32067D01*
X67176Y-32192D01*
X67176Y-33531D01*
X67224Y-33647D01*
X67313Y-33735D01*
X67429Y-33783D01*
X67554Y-33783D01*
X68893Y-33783D01*
X69009Y-33735D01*
X69097Y-33647D01*
X69145Y-33531D01*
X69145Y-34551D01*
X69026Y-34551D01*
X68755Y-34605D01*
X68525Y-34759D01*
X68371Y-34988D01*
X68317Y-35260D01*
X68371Y-35531D01*
X68525Y-35761D01*
X68755Y-35914D01*
X69026Y-35968D01*
X69461Y-35968D01*
X69733Y-35914D01*
X69962Y-35761D01*
X70116Y-35531D01*
X70170Y-35260D01*
X70170Y-38888D01*
X70127Y-38859D01*
X70104Y-38855D01*
X70104Y-37354D01*
X70104Y-37101D01*
X70073Y-36990D01*
X69934Y-36767D01*
X69720Y-36615D01*
X69465Y-36555D01*
X69265Y-36555D01*
X69265Y-37206D01*
X70046Y-37206D01*
X70104Y-37101D01*
X70104Y-37354D01*
X70046Y-37249D01*
X69265Y-37249D01*
X69265Y-37900D01*
X69465Y-37900D01*
X69720Y-37841D01*
X69934Y-37688D01*
X70073Y-37465D01*
X70104Y-37354D01*
X70104Y-38855D01*
X70063Y-38847D01*
X69962Y-38696D01*
X69733Y-38542D01*
X69461Y-38488D01*
X69222Y-38488D01*
X69222Y-37900D01*
X69222Y-37249D01*
X69222Y-37206D01*
X69222Y-36555D01*
X69022Y-36555D01*
X68767Y-36615D01*
X68553Y-36767D01*
X68414Y-36990D01*
X68383Y-37101D01*
X68441Y-37206D01*
X69222Y-37206D01*
X69222Y-37249D01*
X68441Y-37249D01*
X68383Y-37354D01*
X68414Y-37465D01*
X68553Y-37688D01*
X68767Y-37841D01*
X69022Y-37900D01*
X69222Y-37900D01*
X69222Y-38488D01*
X69026Y-38488D01*
X68755Y-38542D01*
X68525Y-38696D01*
X68371Y-38925D01*
X68317Y-39197D01*
X68371Y-39468D01*
X68525Y-39698D01*
X68755Y-39851D01*
X69026Y-39905D01*
X69461Y-39905D01*
X69733Y-39851D01*
X69962Y-39698D01*
X70019Y-39613D01*
X70044Y-39618D01*
X75882Y-39618D01*
X75264Y-40236D01*
X75185Y-40355D01*
X75157Y-40494D01*
X75157Y-45789D01*
X74998Y-45723D01*
X74771Y-45722D01*
X74562Y-45808D01*
X74559Y-45810D01*
X74537Y-45916D01*
X74883Y-46262D01*
X74889Y-46257D01*
X74919Y-46287D01*
X74913Y-46293D01*
X74919Y-46298D01*
X74889Y-46328D01*
X74883Y-46323D01*
X74878Y-46328D01*
X74848Y-46298D01*
X74853Y-46293D01*
X74507Y-45946D01*
X74401Y-45968D01*
X74313Y-46178D01*
X74313Y-46404D01*
X74399Y-46614D01*
X74401Y-46617D01*
X74474Y-46632D01*
X74391Y-46716D01*
X73889Y-46716D01*
X73864Y-46591D01*
X73711Y-46361D01*
X73481Y-46208D01*
X73210Y-46154D01*
X72939Y-46208D01*
X72709Y-46361D01*
X72555Y-46591D01*
X72501Y-46862D01*
X72501Y-47298D01*
X72555Y-47569D01*
X72709Y-47799D01*
X72939Y-47953D01*
X73210Y-48006D01*
X73481Y-47953D01*
X73711Y-47799D01*
X73864Y-47569D01*
X73889Y-47445D01*
X74391Y-47445D01*
X74539Y-47594D01*
X74762Y-47687D01*
X75003Y-47687D01*
X75226Y-47595D01*
X75376Y-47445D01*
X75522Y-47445D01*
X75811Y-47445D01*
X75869Y-47587D01*
X76035Y-47753D01*
X76252Y-47843D01*
X76486Y-47843D01*
X76703Y-47754D01*
X76869Y-47588D01*
X76959Y-47371D01*
X76960Y-47137D01*
X76923Y-47049D01*
X76923Y-46144D01*
X76840Y-45941D01*
X76839Y-45939D01*
X76734Y-45919D01*
X76400Y-46253D01*
X76734Y-46588D01*
X76839Y-46568D01*
X76923Y-46364D01*
X76923Y-46144D01*
X76923Y-47049D01*
X76870Y-46920D01*
X76704Y-46754D01*
X76657Y-46734D01*
X76682Y-46723D01*
X76684Y-46722D01*
X76704Y-46618D01*
X76370Y-46284D01*
X76035Y-46618D01*
X76054Y-46716D01*
X75887Y-46716D01*
X75887Y-46535D01*
X75900Y-46566D01*
X75901Y-46568D01*
X76005Y-46588D01*
X76340Y-46253D01*
X76005Y-45919D01*
X75901Y-45939D01*
X75887Y-45972D01*
X75887Y-45605D01*
X76035Y-45753D01*
X76082Y-45773D01*
X76057Y-45783D01*
X76055Y-45785D01*
X76035Y-45889D01*
X76370Y-46223D01*
X76704Y-45889D01*
X76684Y-45785D01*
X76657Y-45773D01*
X76703Y-45754D01*
X76869Y-45588D01*
X76959Y-45371D01*
X76960Y-45137D01*
X76870Y-44920D01*
X76704Y-44754D01*
X76704Y-44753D01*
X76869Y-44588D01*
X76959Y-44371D01*
X76960Y-44193D01*
X77875Y-44193D01*
X78402Y-44720D01*
X78519Y-44798D01*
X78519Y-44798D01*
X78543Y-44857D01*
X78603Y-44917D01*
X78603Y-45878D01*
X78543Y-45937D01*
X78495Y-46053D01*
X78495Y-46178D01*
X78495Y-46611D01*
X78543Y-46727D01*
X78632Y-46816D01*
X78748Y-46864D01*
X78873Y-46864D01*
X79188Y-46864D01*
X79280Y-46825D01*
X79299Y-46838D01*
X79480Y-46874D01*
X79661Y-46838D01*
X79776Y-46761D01*
X79845Y-46802D01*
X79903Y-46818D01*
X79971Y-46757D01*
X79971Y-46353D01*
X79963Y-46353D01*
X79963Y-46311D01*
X79971Y-46311D01*
X79971Y-45907D01*
X79903Y-45846D01*
X79845Y-45862D01*
X79845Y-44932D01*
X79903Y-44948D01*
X79971Y-44887D01*
X79971Y-44483D01*
X79963Y-44483D01*
X79963Y-44441D01*
X79971Y-44441D01*
X79971Y-44037D01*
X79903Y-43976D01*
X79845Y-43992D01*
X79776Y-44033D01*
X79661Y-43956D01*
X79480Y-43920D01*
X79299Y-43956D01*
X79280Y-43969D01*
X79188Y-43931D01*
X79063Y-43931D01*
X78748Y-43931D01*
X78675Y-43961D01*
X78284Y-43570D01*
X78166Y-43491D01*
X78026Y-43463D01*
X77160Y-43463D01*
X77160Y-43054D01*
X77159Y-43050D01*
X81816Y-43050D01*
X81780Y-43136D01*
X81780Y-43370D01*
X81870Y-43587D01*
X82035Y-43753D01*
X82083Y-43773D01*
X82057Y-43783D01*
X82056Y-43785D01*
X82035Y-43889D01*
X82370Y-44223D01*
X82705Y-43889D01*
X82684Y-43785D01*
X82657Y-43773D01*
X82704Y-43754D01*
X82870Y-43588D01*
X82960Y-43371D01*
X82960Y-43137D01*
X82925Y-43050D01*
X83542Y-43050D01*
X83616Y-43230D01*
X83617Y-43231D01*
X83721Y-43251D01*
X84056Y-42917D01*
X84050Y-42911D01*
X84081Y-42881D01*
X84086Y-42887D01*
X84092Y-42881D01*
X84122Y-42911D01*
X84116Y-42917D01*
X84451Y-43251D01*
X84555Y-43231D01*
X84640Y-43028D01*
X84640Y-42847D01*
X85386Y-42847D01*
X85386Y-43034D01*
X85475Y-43251D01*
X85641Y-43417D01*
X85858Y-43507D01*
X86093Y-43507D01*
X86310Y-43417D01*
X86358Y-43369D01*
X86358Y-44303D01*
X86386Y-44443D01*
X86465Y-44561D01*
X86558Y-44655D01*
X86558Y-44901D01*
X86606Y-45016D01*
X86695Y-45105D01*
X86810Y-45153D01*
X86936Y-45153D01*
X87386Y-45153D01*
X87501Y-45105D01*
X87590Y-45016D01*
X87638Y-44901D01*
X87638Y-44775D01*
X87638Y-44525D01*
X87591Y-44413D01*
X87638Y-44301D01*
X87638Y-44175D01*
X87638Y-43925D01*
X87590Y-43809D01*
X87501Y-43721D01*
X87463Y-43705D01*
X87463Y-43686D01*
X87483Y-43666D01*
X87531Y-43550D01*
X87531Y-43425D01*
X87531Y-43268D01*
X87516Y-43232D01*
X87531Y-43196D01*
X87531Y-43071D01*
X87531Y-42914D01*
X87483Y-42798D01*
X87463Y-42778D01*
X87463Y-41215D01*
X87519Y-41204D01*
X87519Y-41204D01*
X87637Y-41125D01*
X87731Y-41031D01*
X87810Y-40913D01*
X87810Y-40913D01*
X87838Y-40773D01*
X87838Y-39028D01*
X87817Y-38921D01*
X87838Y-38814D01*
X87838Y-34894D01*
X87810Y-34754D01*
X87810Y-34754D01*
X87731Y-34636D01*
X87649Y-34554D01*
X87649Y-33531D01*
X87649Y-33406D01*
X87649Y-32067D01*
X87601Y-31951D01*
X87513Y-31862D01*
X87397Y-31814D01*
X87272Y-31814D01*
X85933Y-31814D01*
X85817Y-31862D01*
X85728Y-31951D01*
X85680Y-32067D01*
X85680Y-32192D01*
X85680Y-33531D01*
X85728Y-33647D01*
X85817Y-33735D01*
X85933Y-33783D01*
X86058Y-33783D01*
X87397Y-33783D01*
X87513Y-33735D01*
X87601Y-33647D01*
X87649Y-33531D01*
X87649Y-34554D01*
X87624Y-34529D01*
X87506Y-34450D01*
X87366Y-34422D01*
X87347Y-34422D01*
X87279Y-34394D01*
X87153Y-34394D01*
X86917Y-34394D01*
X86848Y-34422D01*
X85280Y-34422D01*
X85212Y-34394D01*
X85086Y-34394D01*
X84850Y-34394D01*
X84735Y-34442D01*
X84646Y-34530D01*
X84598Y-34646D01*
X84598Y-34771D01*
X84598Y-34928D01*
X84613Y-34964D01*
X84598Y-35000D01*
X84598Y-35125D01*
X84598Y-35282D01*
X84646Y-35398D01*
X84666Y-35418D01*
X84666Y-35437D01*
X84628Y-35453D01*
X84539Y-35542D01*
X84491Y-35658D01*
X84491Y-35783D01*
X84491Y-36033D01*
X84538Y-36145D01*
X84491Y-36258D01*
X84491Y-36383D01*
X84491Y-36633D01*
X84524Y-36712D01*
X84347Y-36888D01*
X82839Y-36888D01*
X82705Y-36754D01*
X82704Y-36753D01*
X82870Y-36588D01*
X82960Y-36371D01*
X82960Y-36137D01*
X82871Y-35920D01*
X82705Y-35754D01*
X82704Y-35753D01*
X82870Y-35588D01*
X82960Y-35371D01*
X82960Y-35137D01*
X82871Y-34920D01*
X82705Y-34754D01*
X82704Y-34753D01*
X82870Y-34588D01*
X82960Y-34371D01*
X82960Y-34137D01*
X82871Y-33920D01*
X82705Y-33754D01*
X82704Y-33753D01*
X82870Y-33588D01*
X82960Y-33371D01*
X82960Y-33137D01*
X82871Y-32920D01*
X82705Y-32754D01*
X82488Y-32664D01*
X82296Y-32663D01*
X81219Y-31586D01*
X81204Y-31576D01*
X87437Y-31576D01*
X87641Y-31617D01*
X87785Y-31714D01*
X87882Y-31858D01*
X87923Y-32062D01*
X87923Y-48532D01*
X87923Y-48532D01*
G37*
G54D32*
X87923Y-48532D02*
X87882Y-48735D01*
X87785Y-48880D01*
X87649Y-48971D01*
X87649Y-48491D01*
X87649Y-48366D01*
X87649Y-47027D01*
X87601Y-46911D01*
X87513Y-46823D01*
X87397Y-46775D01*
X87272Y-46775D01*
X86566Y-46775D01*
X86566Y-45792D01*
X86476Y-45575D01*
X86311Y-45409D01*
X86094Y-45319D01*
X85859Y-45319D01*
X85642Y-45409D01*
X85476Y-45574D01*
X85386Y-45791D01*
X85386Y-46026D01*
X85475Y-46243D01*
X85641Y-46409D01*
X85858Y-46499D01*
X86093Y-46499D01*
X86310Y-46409D01*
X86476Y-46244D01*
X86566Y-46027D01*
X86566Y-45792D01*
X86566Y-46775D01*
X85933Y-46775D01*
X85817Y-46823D01*
X85728Y-46911D01*
X85680Y-47027D01*
X85680Y-47152D01*
X85680Y-48491D01*
X85728Y-48607D01*
X85817Y-48696D01*
X85933Y-48744D01*
X86058Y-48744D01*
X87397Y-48744D01*
X87513Y-48696D01*
X87601Y-48607D01*
X87649Y-48491D01*
X87649Y-48971D01*
X87641Y-48977D01*
X87437Y-49017D01*
X84640Y-49017D01*
X84640Y-45800D01*
X84556Y-45596D01*
X84555Y-45595D01*
X84451Y-45574D01*
X84421Y-45604D01*
X84421Y-45544D01*
X84421Y-43281D01*
X84086Y-42947D01*
X83752Y-43281D01*
X83772Y-43386D01*
X83975Y-43470D01*
X84195Y-43471D01*
X84399Y-43387D01*
X84401Y-43386D01*
X84421Y-43281D01*
X84421Y-45544D01*
X84401Y-45440D01*
X84197Y-45355D01*
X83977Y-45355D01*
X83773Y-45439D01*
X83772Y-45440D01*
X83752Y-45544D01*
X84086Y-45879D01*
X84421Y-45544D01*
X84421Y-45604D01*
X84116Y-45909D01*
X84451Y-46244D01*
X84555Y-46223D01*
X84640Y-46020D01*
X84640Y-45800D01*
X84640Y-49017D01*
X84421Y-49017D01*
X84421Y-46274D01*
X84086Y-45939D01*
X84056Y-45969D01*
X84056Y-45909D01*
X83721Y-45574D01*
X83617Y-45595D01*
X83533Y-45798D01*
X83532Y-46018D01*
X83616Y-46222D01*
X83617Y-46223D01*
X83721Y-46244D01*
X84056Y-45909D01*
X84056Y-45969D01*
X83752Y-46274D01*
X83772Y-46378D01*
X83975Y-46463D01*
X84195Y-46463D01*
X84399Y-46379D01*
X84401Y-46378D01*
X84421Y-46274D01*
X84421Y-49017D01*
X82960Y-49017D01*
X82960Y-46137D01*
X82871Y-45920D01*
X82705Y-45754D01*
X82704Y-45753D01*
X82870Y-45588D01*
X82960Y-45371D01*
X82960Y-45137D01*
X82924Y-45049D01*
X82924Y-44144D01*
X82840Y-43941D01*
X82839Y-43939D01*
X82735Y-43919D01*
X82400Y-44253D01*
X82735Y-44588D01*
X82839Y-44568D01*
X82924Y-44364D01*
X82924Y-44144D01*
X82924Y-45049D01*
X82871Y-44920D01*
X82705Y-44754D01*
X82657Y-44734D01*
X82683Y-44723D01*
X82684Y-44722D01*
X82705Y-44618D01*
X82370Y-44284D01*
X82340Y-44314D01*
X82340Y-44253D01*
X82005Y-43919D01*
X81901Y-43939D01*
X81817Y-44142D01*
X81816Y-44363D01*
X81900Y-44566D01*
X81901Y-44568D01*
X82005Y-44588D01*
X82340Y-44253D01*
X82340Y-44314D01*
X82035Y-44618D01*
X82056Y-44722D01*
X82083Y-44734D01*
X82036Y-44753D01*
X81870Y-44919D01*
X81780Y-45136D01*
X81780Y-45370D01*
X81870Y-45587D01*
X82035Y-45753D01*
X82036Y-45753D01*
X81870Y-45919D01*
X81780Y-46136D01*
X81780Y-46370D01*
X81870Y-46587D01*
X81971Y-46689D01*
X81917Y-46711D01*
X81828Y-46800D01*
X81780Y-46916D01*
X81780Y-47041D01*
X81780Y-47591D01*
X81828Y-47707D01*
X81917Y-47795D01*
X82032Y-47843D01*
X82158Y-47843D01*
X82708Y-47843D01*
X82823Y-47795D01*
X82912Y-47707D01*
X82960Y-47591D01*
X82960Y-47466D01*
X82960Y-46916D01*
X82912Y-46800D01*
X82823Y-46711D01*
X82769Y-46689D01*
X82870Y-46588D01*
X82960Y-46371D01*
X82960Y-46137D01*
X82960Y-49017D01*
X80428Y-49017D01*
X80428Y-46412D01*
X80428Y-46353D01*
X80428Y-46311D01*
X80428Y-46252D01*
X80428Y-44542D01*
X80428Y-44483D01*
X80428Y-44441D01*
X80428Y-44382D01*
X80387Y-44216D01*
X80285Y-44080D01*
X80139Y-43992D01*
X80081Y-43976D01*
X80013Y-44037D01*
X80013Y-44441D01*
X80428Y-44441D01*
X80428Y-44483D01*
X80013Y-44483D01*
X80013Y-44887D01*
X80081Y-44948D01*
X80139Y-44932D01*
X80285Y-44845D01*
X80387Y-44708D01*
X80428Y-44542D01*
X80428Y-46252D01*
X80387Y-46087D01*
X80285Y-45950D01*
X80139Y-45862D01*
X80081Y-45846D01*
X80013Y-45907D01*
X80013Y-46311D01*
X80428Y-46311D01*
X80428Y-46353D01*
X80013Y-46353D01*
X80013Y-46757D01*
X80081Y-46818D01*
X80139Y-46802D01*
X80285Y-46715D01*
X80387Y-46578D01*
X80428Y-46412D01*
X80428Y-49017D01*
X71914Y-49017D01*
X71914Y-47301D01*
X71914Y-47101D01*
X71914Y-47059D01*
X71914Y-46859D01*
X71855Y-46603D01*
X71702Y-46390D01*
X71479Y-46251D01*
X71368Y-46220D01*
X71263Y-46278D01*
X71263Y-47059D01*
X71914Y-47059D01*
X71914Y-47101D01*
X71263Y-47101D01*
X71263Y-47882D01*
X71368Y-47941D01*
X71479Y-47909D01*
X71702Y-47771D01*
X71855Y-47557D01*
X71914Y-47301D01*
X71914Y-49017D01*
X71221Y-49017D01*
X71221Y-47882D01*
X71221Y-47101D01*
X71221Y-47059D01*
X71221Y-46278D01*
X71116Y-46220D01*
X71004Y-46251D01*
X70782Y-46390D01*
X70629Y-46603D01*
X70570Y-46859D01*
X70570Y-47059D01*
X71221Y-47059D01*
X71221Y-47101D01*
X70570Y-47101D01*
X70570Y-47301D01*
X70629Y-47557D01*
X70782Y-47771D01*
X71004Y-47909D01*
X71116Y-47941D01*
X71221Y-47882D01*
X71221Y-49017D01*
X70170Y-49017D01*
X70170Y-43145D01*
X70116Y-42874D01*
X70104Y-42856D01*
X70104Y-41291D01*
X70104Y-41038D01*
X70073Y-40927D01*
X69934Y-40704D01*
X69720Y-40552D01*
X69465Y-40492D01*
X69265Y-40492D01*
X69265Y-41143D01*
X70046Y-41143D01*
X70104Y-41038D01*
X70104Y-41291D01*
X70046Y-41186D01*
X69265Y-41186D01*
X69265Y-41837D01*
X69465Y-41837D01*
X69720Y-41778D01*
X69934Y-41625D01*
X70073Y-41402D01*
X70104Y-41291D01*
X70104Y-42856D01*
X69962Y-42644D01*
X69733Y-42491D01*
X69461Y-42437D01*
X69222Y-42437D01*
X69222Y-41837D01*
X69222Y-41186D01*
X69222Y-41143D01*
X69222Y-40492D01*
X69022Y-40492D01*
X68767Y-40552D01*
X68553Y-40704D01*
X68414Y-40927D01*
X68383Y-41038D01*
X68441Y-41143D01*
X69222Y-41143D01*
X69222Y-41186D01*
X68441Y-41186D01*
X68383Y-41291D01*
X68414Y-41402D01*
X68553Y-41625D01*
X68767Y-41778D01*
X69022Y-41837D01*
X69222Y-41837D01*
X69222Y-42437D01*
X69026Y-42437D01*
X68755Y-42491D01*
X68525Y-42644D01*
X68371Y-42874D01*
X68317Y-43145D01*
X68371Y-43417D01*
X68525Y-43646D01*
X68755Y-43800D01*
X69026Y-43854D01*
X69461Y-43854D01*
X69733Y-43800D01*
X69962Y-43646D01*
X70116Y-43417D01*
X70170Y-43145D01*
X70170Y-49017D01*
X70104Y-49017D01*
X70104Y-45240D01*
X70104Y-44987D01*
X70073Y-44876D01*
X69934Y-44653D01*
X69720Y-44500D01*
X69465Y-44441D01*
X69265Y-44441D01*
X69265Y-45092D01*
X70046Y-45092D01*
X70104Y-44987D01*
X70104Y-45240D01*
X70046Y-45135D01*
X69265Y-45135D01*
X69265Y-45786D01*
X69465Y-45786D01*
X69720Y-45726D01*
X69934Y-45574D01*
X70073Y-45351D01*
X70104Y-45240D01*
X70104Y-49017D01*
X69222Y-49017D01*
X69222Y-45786D01*
X69222Y-45135D01*
X69222Y-45092D01*
X69222Y-44441D01*
X69022Y-44441D01*
X68767Y-44500D01*
X68553Y-44653D01*
X68414Y-44876D01*
X68383Y-44987D01*
X68441Y-45092D01*
X69222Y-45092D01*
X69222Y-45135D01*
X68441Y-45135D01*
X68383Y-45240D01*
X68414Y-45351D01*
X68553Y-45574D01*
X68767Y-45726D01*
X69022Y-45786D01*
X69222Y-45786D01*
X69222Y-49017D01*
X69145Y-49017D01*
X69145Y-48491D01*
X69145Y-48366D01*
X69145Y-47027D01*
X69097Y-46911D01*
X69009Y-46823D01*
X68893Y-46775D01*
X68768Y-46775D01*
X67429Y-46775D01*
X67313Y-46823D01*
X67224Y-46911D01*
X67176Y-47027D01*
X67176Y-47152D01*
X67176Y-48491D01*
X67224Y-48607D01*
X67313Y-48696D01*
X67429Y-48744D01*
X67554Y-48744D01*
X68893Y-48744D01*
X69009Y-48696D01*
X69097Y-48607D01*
X69145Y-48491D01*
X69145Y-49017D01*
X67424Y-49017D01*
X67220Y-48977D01*
X67076Y-48880D01*
X66979Y-48735D01*
X66938Y-48532D01*
X66938Y-32062D01*
X66979Y-31858D01*
X67076Y-31714D01*
X67220Y-31617D01*
X67424Y-31576D01*
X71407Y-31576D01*
X71393Y-31586D01*
X71295Y-31684D01*
X71075Y-31684D01*
X70848Y-31777D01*
X70675Y-31950D01*
X70669Y-31966D01*
X70579Y-31946D01*
X70549Y-31976D01*
X70549Y-31916D01*
X70526Y-31809D01*
X70313Y-31720D01*
X70083Y-31720D01*
X69870Y-31807D01*
X69867Y-31809D01*
X69844Y-31916D01*
X70196Y-32269D01*
X70549Y-31916D01*
X70549Y-31976D01*
X70226Y-32299D01*
X70579Y-32651D01*
X70669Y-32632D01*
X70675Y-32647D01*
X70827Y-32799D01*
X70675Y-32950D01*
X70669Y-32966D01*
X70579Y-32946D01*
X70549Y-32976D01*
X70549Y-32916D01*
X70526Y-32809D01*
X70502Y-32799D01*
X70523Y-32790D01*
X70526Y-32788D01*
X70549Y-32681D01*
X70196Y-32329D01*
X70166Y-32359D01*
X70166Y-32299D01*
X69814Y-31946D01*
X69707Y-31969D01*
X69618Y-32182D01*
X69617Y-32412D01*
X69705Y-32625D01*
X69707Y-32628D01*
X69814Y-32651D01*
X70166Y-32299D01*
X70166Y-32359D01*
X69844Y-32681D01*
X69867Y-32788D01*
X69891Y-32798D01*
X69870Y-32807D01*
X69867Y-32809D01*
X69844Y-32916D01*
X70196Y-33269D01*
X70549Y-32916D01*
X70549Y-32976D01*
X70226Y-33299D01*
X70579Y-33651D01*
X70669Y-33632D01*
X70675Y-33647D01*
X70848Y-33820D01*
X71073Y-33914D01*
X71318Y-33914D01*
X71544Y-33820D01*
X71696Y-33668D01*
X71848Y-33820D01*
X72073Y-33914D01*
X72318Y-33914D01*
X72544Y-33820D01*
X72696Y-33668D01*
X72848Y-33820D01*
X73073Y-33914D01*
X73295Y-33914D01*
X73398Y-34016D01*
X73516Y-34095D01*
X73516Y-34095D01*
X73656Y-34123D01*
X74080Y-34123D01*
X74052Y-34191D01*
X74052Y-34302D01*
X74052Y-34381D01*
X74121Y-34451D01*
X74434Y-34451D01*
X74434Y-34443D01*
X74477Y-34443D01*
X74477Y-34451D01*
X74485Y-34451D01*
X74485Y-34493D01*
X74477Y-34493D01*
X74477Y-34501D01*
X74434Y-34501D01*
X74434Y-34493D01*
X74121Y-34493D01*
X74052Y-34563D01*
X74052Y-34641D01*
X74052Y-34752D01*
X74094Y-34855D01*
X74173Y-34933D01*
X74275Y-34976D01*
X74320Y-34976D01*
X74324Y-34976D01*
X74389Y-35041D01*
X74637Y-35041D01*
X74637Y-35084D01*
X74389Y-35084D01*
X74320Y-35153D01*
X74320Y-35236D01*
X74362Y-35338D01*
X74440Y-35417D01*
X74543Y-35459D01*
X74586Y-35459D01*
X74656Y-35390D01*
X74656Y-35287D01*
X74685Y-35359D01*
X74698Y-35372D01*
X74698Y-35390D01*
X74768Y-35459D01*
X74802Y-35459D01*
X74890Y-35495D01*
X75015Y-35495D01*
X75172Y-35495D01*
X75288Y-35448D01*
X75376Y-35359D01*
X75424Y-35243D01*
X75424Y-35118D01*
X75424Y-34898D01*
X75447Y-34875D01*
X75477Y-34805D01*
X75477Y-34805D01*
X75589Y-34730D01*
X75700Y-34618D01*
X75900Y-34618D01*
X76035Y-34753D01*
X76035Y-34753D01*
X75870Y-34919D01*
X75780Y-35136D01*
X75780Y-35370D01*
X75869Y-35587D01*
X76035Y-35753D01*
X76035Y-35753D01*
X75870Y-35919D01*
X75780Y-36136D01*
X75780Y-36370D01*
X75869Y-36587D01*
X76035Y-36753D01*
X76035Y-36753D01*
X75870Y-36919D01*
X75780Y-37136D01*
X75780Y-37370D01*
X75869Y-37587D01*
X76035Y-37753D01*
X76035Y-37753D01*
X75870Y-37919D01*
X75780Y-38136D01*
X75780Y-38370D01*
X75869Y-38587D01*
X76035Y-38753D01*
X76035Y-38753D01*
X75900Y-38888D01*
X70549Y-38888D01*
X70549Y-33681D01*
X70196Y-33329D01*
X70166Y-33359D01*
X70166Y-33299D01*
X69814Y-32946D01*
X69707Y-32969D01*
X69618Y-33182D01*
X69617Y-33412D01*
X69705Y-33625D01*
X69707Y-33628D01*
X69814Y-33651D01*
X70166Y-33299D01*
X70166Y-33359D01*
X69844Y-33681D01*
X69867Y-33788D01*
X70079Y-33877D01*
X70310Y-33878D01*
X70523Y-33790D01*
X70526Y-33788D01*
X70549Y-33681D01*
X70549Y-38888D01*
X70170Y-38888D01*
X70170Y-38888D01*
X70170Y-35260D01*
X70116Y-34988D01*
X69962Y-34759D01*
X69733Y-34605D01*
X69461Y-34551D01*
X69145Y-34551D01*
X69145Y-33531D01*
X69145Y-33406D01*
X69145Y-32067D01*
X69097Y-31951D01*
X69009Y-31862D01*
X68893Y-31814D01*
X68768Y-31814D01*
X67429Y-31814D01*
X67313Y-31862D01*
X67224Y-31951D01*
X67176Y-32067D01*
X67176Y-32192D01*
X67176Y-33531D01*
X67224Y-33647D01*
X67313Y-33735D01*
X67429Y-33783D01*
X67554Y-33783D01*
X68893Y-33783D01*
X69009Y-33735D01*
X69097Y-33647D01*
X69145Y-33531D01*
X69145Y-34551D01*
X69026Y-34551D01*
X68755Y-34605D01*
X68525Y-34759D01*
X68371Y-34988D01*
X68317Y-35260D01*
X68371Y-35531D01*
X68525Y-35761D01*
X68755Y-35914D01*
X69026Y-35968D01*
X69461Y-35968D01*
X69733Y-35914D01*
X69962Y-35761D01*
X70116Y-35531D01*
X70170Y-35260D01*
X70170Y-38888D01*
X70127Y-38859D01*
X70104Y-38855D01*
X70104Y-37354D01*
X70104Y-37101D01*
X70073Y-36990D01*
X69934Y-36767D01*
X69720Y-36615D01*
X69465Y-36555D01*
X69265Y-36555D01*
X69265Y-37206D01*
X70046Y-37206D01*
X70104Y-37101D01*
X70104Y-37354D01*
X70046Y-37249D01*
X69265Y-37249D01*
X69265Y-37900D01*
X69465Y-37900D01*
X69720Y-37841D01*
X69934Y-37688D01*
X70073Y-37465D01*
X70104Y-37354D01*
X70104Y-38855D01*
X70063Y-38847D01*
X69962Y-38696D01*
X69733Y-38542D01*
X69461Y-38488D01*
X69222Y-38488D01*
X69222Y-37900D01*
X69222Y-37249D01*
X69222Y-37206D01*
X69222Y-36555D01*
X69022Y-36555D01*
X68767Y-36615D01*
X68553Y-36767D01*
X68414Y-36990D01*
X68383Y-37101D01*
X68441Y-37206D01*
X69222Y-37206D01*
X69222Y-37249D01*
X68441Y-37249D01*
X68383Y-37354D01*
X68414Y-37465D01*
X68553Y-37688D01*
X68767Y-37841D01*
X69022Y-37900D01*
X69222Y-37900D01*
X69222Y-38488D01*
X69026Y-38488D01*
X68755Y-38542D01*
X68525Y-38696D01*
X68371Y-38925D01*
X68317Y-39197D01*
X68371Y-39468D01*
X68525Y-39698D01*
X68755Y-39851D01*
X69026Y-39905D01*
X69461Y-39905D01*
X69733Y-39851D01*
X69962Y-39698D01*
X70019Y-39613D01*
X70044Y-39618D01*
X75882Y-39618D01*
X75264Y-40236D01*
X75185Y-40355D01*
X75157Y-40494D01*
X75157Y-45789D01*
X74998Y-45723D01*
X74771Y-45722D01*
X74562Y-45808D01*
X74559Y-45810D01*
X74537Y-45916D01*
X74883Y-46262D01*
X74889Y-46257D01*
X74919Y-46287D01*
X74913Y-46293D01*
X74919Y-46298D01*
X74889Y-46328D01*
X74883Y-46323D01*
X74878Y-46328D01*
X74848Y-46298D01*
X74853Y-46293D01*
X74507Y-45946D01*
X74401Y-45968D01*
X74313Y-46178D01*
X74313Y-46404D01*
X74399Y-46614D01*
X74401Y-46617D01*
X74474Y-46632D01*
X74391Y-46716D01*
X73889Y-46716D01*
X73864Y-46591D01*
X73711Y-46361D01*
X73481Y-46208D01*
X73210Y-46154D01*
X72939Y-46208D01*
X72709Y-46361D01*
X72555Y-46591D01*
X72501Y-46862D01*
X72501Y-47298D01*
X72555Y-47569D01*
X72709Y-47799D01*
X72939Y-47953D01*
X73210Y-48006D01*
X73481Y-47953D01*
X73711Y-47799D01*
X73864Y-47569D01*
X73889Y-47445D01*
X74391Y-47445D01*
X74539Y-47594D01*
X74762Y-47687D01*
X75003Y-47687D01*
X75226Y-47595D01*
X75376Y-47445D01*
X75522Y-47445D01*
X75811Y-47445D01*
X75869Y-47587D01*
X76035Y-47753D01*
X76252Y-47843D01*
X76486Y-47843D01*
X76703Y-47754D01*
X76869Y-47588D01*
X76959Y-47371D01*
X76960Y-47137D01*
X76923Y-47049D01*
X76923Y-46144D01*
X76840Y-45941D01*
X76839Y-45939D01*
X76734Y-45919D01*
X76400Y-46253D01*
X76734Y-46588D01*
X76839Y-46568D01*
X76923Y-46364D01*
X76923Y-46144D01*
X76923Y-47049D01*
X76870Y-46920D01*
X76704Y-46754D01*
X76657Y-46734D01*
X76682Y-46723D01*
X76684Y-46722D01*
X76704Y-46618D01*
X76370Y-46284D01*
X76035Y-46618D01*
X76054Y-46716D01*
X75887Y-46716D01*
X75887Y-46535D01*
X75900Y-46566D01*
X75901Y-46568D01*
X76005Y-46588D01*
X76340Y-46253D01*
X76005Y-45919D01*
X75901Y-45939D01*
X75887Y-45972D01*
X75887Y-45605D01*
X76035Y-45753D01*
X76082Y-45773D01*
X76057Y-45783D01*
X76055Y-45785D01*
X76035Y-45889D01*
X76370Y-46223D01*
X76704Y-45889D01*
X76684Y-45785D01*
X76657Y-45773D01*
X76703Y-45754D01*
X76869Y-45588D01*
X76959Y-45371D01*
X76960Y-45137D01*
X76870Y-44920D01*
X76704Y-44754D01*
X76704Y-44753D01*
X76869Y-44588D01*
X76959Y-44371D01*
X76960Y-44193D01*
X77875Y-44193D01*
X78402Y-44720D01*
X78519Y-44798D01*
X78519Y-44798D01*
X78543Y-44857D01*
X78603Y-44917D01*
X78603Y-45878D01*
X78543Y-45937D01*
X78495Y-46053D01*
X78495Y-46178D01*
X78495Y-46611D01*
X78543Y-46727D01*
X78632Y-46816D01*
X78748Y-46864D01*
X78873Y-46864D01*
X79188Y-46864D01*
X79280Y-46825D01*
X79299Y-46838D01*
X79480Y-46874D01*
X79661Y-46838D01*
X79776Y-46761D01*
X79845Y-46802D01*
X79903Y-46818D01*
X79971Y-46757D01*
X79971Y-46353D01*
X79963Y-46353D01*
X79963Y-46311D01*
X79971Y-46311D01*
X79971Y-45907D01*
X79903Y-45846D01*
X79845Y-45862D01*
X79845Y-44932D01*
X79903Y-44948D01*
X79971Y-44887D01*
X79971Y-44483D01*
X79963Y-44483D01*
X79963Y-44441D01*
X79971Y-44441D01*
X79971Y-44037D01*
X79903Y-43976D01*
X79845Y-43992D01*
X79776Y-44033D01*
X79661Y-43956D01*
X79480Y-43920D01*
X79299Y-43956D01*
X79280Y-43969D01*
X79188Y-43931D01*
X79063Y-43931D01*
X78748Y-43931D01*
X78675Y-43961D01*
X78284Y-43570D01*
X78166Y-43491D01*
X78026Y-43463D01*
X77160Y-43463D01*
X77160Y-43054D01*
X77159Y-43050D01*
X81816Y-43050D01*
X81780Y-43136D01*
X81780Y-43370D01*
X81870Y-43587D01*
X82035Y-43753D01*
X82083Y-43773D01*
X82057Y-43783D01*
X82056Y-43785D01*
X82035Y-43889D01*
X82370Y-44223D01*
X82705Y-43889D01*
X82684Y-43785D01*
X82657Y-43773D01*
X82704Y-43754D01*
X82870Y-43588D01*
X82960Y-43371D01*
X82960Y-43137D01*
X82925Y-43050D01*
X83542Y-43050D01*
X83616Y-43230D01*
X83617Y-43231D01*
X83721Y-43251D01*
X84056Y-42917D01*
X84050Y-42911D01*
X84081Y-42881D01*
X84086Y-42887D01*
X84092Y-42881D01*
X84122Y-42911D01*
X84116Y-42917D01*
X84451Y-43251D01*
X84555Y-43231D01*
X84640Y-43028D01*
X84640Y-42847D01*
X85386Y-42847D01*
X85386Y-43034D01*
X85475Y-43251D01*
X85641Y-43417D01*
X85858Y-43507D01*
X86093Y-43507D01*
X86310Y-43417D01*
X86358Y-43369D01*
X86358Y-44303D01*
X86386Y-44443D01*
X86465Y-44561D01*
X86558Y-44655D01*
X86558Y-44901D01*
X86606Y-45016D01*
X86695Y-45105D01*
X86810Y-45153D01*
X86936Y-45153D01*
X87386Y-45153D01*
X87501Y-45105D01*
X87590Y-45016D01*
X87638Y-44901D01*
X87638Y-44775D01*
X87638Y-44525D01*
X87591Y-44413D01*
X87638Y-44301D01*
X87638Y-44175D01*
X87638Y-43925D01*
X87590Y-43809D01*
X87501Y-43721D01*
X87463Y-43705D01*
X87463Y-43686D01*
X87483Y-43666D01*
X87531Y-43550D01*
X87531Y-43425D01*
X87531Y-43268D01*
X87516Y-43232D01*
X87531Y-43196D01*
X87531Y-43071D01*
X87531Y-42914D01*
X87483Y-42798D01*
X87463Y-42778D01*
X87463Y-41215D01*
X87519Y-41204D01*
X87519Y-41204D01*
X87637Y-41125D01*
X87731Y-41031D01*
X87810Y-40913D01*
X87810Y-40913D01*
X87838Y-40773D01*
X87838Y-39028D01*
X87817Y-38921D01*
X87838Y-38814D01*
X87838Y-34894D01*
X87810Y-34754D01*
X87810Y-34754D01*
X87731Y-34636D01*
X87649Y-34554D01*
X87649Y-33531D01*
X87649Y-33406D01*
X87649Y-32067D01*
X87601Y-31951D01*
X87513Y-31862D01*
X87397Y-31814D01*
X87272Y-31814D01*
X85933Y-31814D01*
X85817Y-31862D01*
X85728Y-31951D01*
X85680Y-32067D01*
X85680Y-32192D01*
X85680Y-33531D01*
X85728Y-33647D01*
X85817Y-33735D01*
X85933Y-33783D01*
X86058Y-33783D01*
X87397Y-33783D01*
X87513Y-33735D01*
X87601Y-33647D01*
X87649Y-33531D01*
X87649Y-34554D01*
X87624Y-34529D01*
X87506Y-34450D01*
X87366Y-34422D01*
X87347Y-34422D01*
X87279Y-34394D01*
X87153Y-34394D01*
X86917Y-34394D01*
X86848Y-34422D01*
X85280Y-34422D01*
X85212Y-34394D01*
X85086Y-34394D01*
X84850Y-34394D01*
X84735Y-34442D01*
X84646Y-34530D01*
X84598Y-34646D01*
X84598Y-34771D01*
X84598Y-34928D01*
X84613Y-34964D01*
X84598Y-35000D01*
X84598Y-35125D01*
X84598Y-35282D01*
X84646Y-35398D01*
X84666Y-35418D01*
X84666Y-35437D01*
X84628Y-35453D01*
X84539Y-35542D01*
X84491Y-35658D01*
X84491Y-35783D01*
X84491Y-36033D01*
X84538Y-36145D01*
X84491Y-36258D01*
X84491Y-36383D01*
X84491Y-36633D01*
X84524Y-36712D01*
X84347Y-36888D01*
X82839Y-36888D01*
X82705Y-36754D01*
X82704Y-36753D01*
X82870Y-36588D01*
X82960Y-36371D01*
X82960Y-36137D01*
X82871Y-35920D01*
X82705Y-35754D01*
X82704Y-35753D01*
X82870Y-35588D01*
X82960Y-35371D01*
X82960Y-35137D01*
X82871Y-34920D01*
X82705Y-34754D01*
X82704Y-34753D01*
X82870Y-34588D01*
X82960Y-34371D01*
X82960Y-34137D01*
X82871Y-33920D01*
X82705Y-33754D01*
X82704Y-33753D01*
X82870Y-33588D01*
X82960Y-33371D01*
X82960Y-33137D01*
X82871Y-32920D01*
X82705Y-32754D01*
X82488Y-32664D01*
X82296Y-32663D01*
X81219Y-31586D01*
X81204Y-31576D01*
X87437Y-31576D01*
X87641Y-31617D01*
X87785Y-31714D01*
X87882Y-31858D01*
X87923Y-32062D01*
X87923Y-48532D01*
M02*
