G04 (created by PCBNEW-RS274X (2012-apr-16-27)-stable) date Mon 12 May 2014 12:41:31 BST*
G01*
G70*
G90*
%MOIN*%
G04 Gerber Fmt 3.4, Leading zero omitted, Abs format*
%FSLAX34Y34*%
G04 APERTURE LIST*
%ADD10C,0.006000*%
%ADD11C,0.075000*%
%ADD12R,0.080000X0.080000*%
%ADD13C,0.080000*%
%ADD14O,0.059400X0.047600*%
%ADD15R,0.059400X0.047600*%
%ADD16O,0.047600X0.059400*%
%ADD17R,0.047600X0.059400*%
%ADD18R,0.075000X0.075000*%
%ADD19C,0.114500*%
%ADD20O,0.098700X0.067200*%
%ADD21R,0.098800X0.067200*%
G04 APERTURE END LIST*
G54D10*
G54D11*
X73863Y-44276D03*
X73863Y-46276D03*
X70863Y-44276D03*
X70863Y-46276D03*
X67406Y-44276D03*
X67406Y-46276D03*
X64406Y-44276D03*
X64406Y-46276D03*
X63312Y-44276D03*
X63312Y-46276D03*
X60312Y-44276D03*
X60312Y-46276D03*
G54D12*
X69134Y-43933D03*
G54D13*
X69134Y-44933D03*
X69134Y-45933D03*
X69134Y-46933D03*
G54D12*
X67854Y-30945D03*
G54D13*
X66854Y-30945D03*
X65854Y-30945D03*
X64854Y-30945D03*
X63854Y-30945D03*
X62854Y-30945D03*
G54D14*
X71574Y-33130D03*
G54D15*
X71574Y-34902D03*
G54D14*
X71574Y-33721D03*
X71574Y-34311D03*
X71574Y-34311D03*
X71574Y-33721D03*
G54D15*
X71574Y-34902D03*
G54D14*
X71574Y-33130D03*
X73622Y-33130D03*
G54D15*
X73622Y-34902D03*
G54D14*
X73622Y-33721D03*
X73622Y-34311D03*
X73622Y-34311D03*
X73622Y-33721D03*
G54D15*
X73622Y-34902D03*
G54D14*
X73622Y-33130D03*
G54D16*
X67481Y-34882D03*
X66969Y-34882D03*
G54D17*
X67993Y-34882D03*
G54D16*
X67481Y-33071D03*
X66969Y-33071D03*
G54D17*
X67993Y-33071D03*
G54D18*
X63701Y-33594D03*
G54D11*
X63701Y-34594D03*
X74351Y-42500D03*
X73351Y-36594D03*
X72351Y-36594D03*
X71351Y-36594D03*
X70351Y-36594D03*
X69351Y-36594D03*
X68351Y-36594D03*
X67351Y-36594D03*
X66351Y-36594D03*
X65351Y-36594D03*
X64351Y-36594D03*
X63351Y-36594D03*
X62351Y-36594D03*
X61351Y-36594D03*
X60351Y-36594D03*
G54D18*
X60351Y-42500D03*
G54D11*
X61351Y-42500D03*
X62351Y-42500D03*
X63351Y-42500D03*
X64351Y-42500D03*
X65351Y-42500D03*
X66351Y-42500D03*
X67351Y-42500D03*
X68351Y-42500D03*
X69351Y-42500D03*
X70351Y-42500D03*
X71351Y-42500D03*
X72351Y-42500D03*
X73351Y-42500D03*
X74351Y-36594D03*
G54D12*
X74043Y-30819D03*
G54D13*
X73043Y-30819D03*
X74043Y-29819D03*
X73043Y-29819D03*
X74043Y-28819D03*
X73043Y-28819D03*
X74043Y-27819D03*
X73043Y-27819D03*
X74043Y-26819D03*
X73043Y-26819D03*
G54D19*
X74962Y-47165D03*
X59213Y-25512D03*
X74961Y-25512D03*
X59214Y-47165D03*
G54D20*
X60709Y-32106D03*
X60709Y-33090D03*
G54D21*
X60709Y-31122D03*
G54D20*
X60709Y-34074D03*
M02*
