G04 (created by PCBNEW-RS274X (2012-apr-16-27)-stable) date Mon 12 May 2014 12:41:31 BST*
G01*
G70*
G90*
%MOIN*%
G04 Gerber Fmt 3.4, Leading zero omitted, Abs format*
%FSLAX34Y34*%
G04 APERTURE LIST*
%ADD10C,0.006000*%
%ADD11C,0.007900*%
%ADD12C,0.003900*%
%ADD13C,0.055000*%
%ADD14R,0.020000X0.045000*%
%ADD15R,0.035000X0.055000*%
%ADD16R,0.045000X0.025000*%
%ADD17R,0.025000X0.045000*%
%ADD18R,0.023600X0.015700*%
%ADD19R,0.015700X0.023600*%
%ADD20R,0.060000X0.060000*%
%ADD21C,0.060000*%
%ADD22R,0.031400X0.031400*%
%ADD23O,0.039400X0.027600*%
%ADD24R,0.039400X0.027600*%
%ADD25O,0.027600X0.039400*%
%ADD26R,0.027600X0.039400*%
%ADD27R,0.055000X0.055000*%
%ADD28C,0.094500*%
%ADD29O,0.078700X0.047200*%
%ADD30R,0.078800X0.047200*%
%ADD31O,0.078700X0.118700*%
%ADD32C,0.035000*%
%ADD33C,0.008000*%
%ADD34C,0.010000*%
G04 APERTURE END LIST*
G54D10*
G54D11*
X61436Y-47529D02*
X61256Y-47529D01*
X61346Y-47529D02*
X61346Y-47214D01*
X61316Y-47259D01*
X61286Y-47289D01*
X61256Y-47304D01*
X61631Y-47214D02*
X61661Y-47214D01*
X61691Y-47229D01*
X61706Y-47244D01*
X61721Y-47274D01*
X61736Y-47334D01*
X61736Y-47409D01*
X61721Y-47469D01*
X61706Y-47499D01*
X61691Y-47514D01*
X61661Y-47529D01*
X61631Y-47529D01*
X61601Y-47514D01*
X61586Y-47499D01*
X61571Y-47469D01*
X61556Y-47409D01*
X61556Y-47334D01*
X61571Y-47274D01*
X61586Y-47244D01*
X61601Y-47229D01*
X61631Y-47214D01*
X61826Y-47319D02*
X61946Y-47319D01*
X61871Y-47214D02*
X61871Y-47484D01*
X61886Y-47514D01*
X61916Y-47529D01*
X61946Y-47529D01*
X62096Y-47529D02*
X62066Y-47514D01*
X62051Y-47499D01*
X62036Y-47469D01*
X62036Y-47379D01*
X62051Y-47349D01*
X62066Y-47334D01*
X62096Y-47319D01*
X62141Y-47319D01*
X62171Y-47334D01*
X62186Y-47349D01*
X62201Y-47379D01*
X62201Y-47469D01*
X62186Y-47499D01*
X62171Y-47514D01*
X62141Y-47529D01*
X62096Y-47529D01*
X62306Y-47214D02*
X62516Y-47214D01*
X62381Y-47529D01*
X62636Y-47499D02*
X62651Y-47514D01*
X62636Y-47529D01*
X62621Y-47514D01*
X62636Y-47499D01*
X62636Y-47529D01*
X62921Y-47514D02*
X62891Y-47529D01*
X62831Y-47529D01*
X62801Y-47514D01*
X62786Y-47499D01*
X62771Y-47469D01*
X62771Y-47379D01*
X62786Y-47349D01*
X62801Y-47334D01*
X62831Y-47319D01*
X62891Y-47319D01*
X62921Y-47334D01*
X63101Y-47529D02*
X63071Y-47514D01*
X63056Y-47499D01*
X63041Y-47469D01*
X63041Y-47379D01*
X63056Y-47349D01*
X63071Y-47334D01*
X63101Y-47319D01*
X63146Y-47319D01*
X63176Y-47334D01*
X63191Y-47349D01*
X63206Y-47379D01*
X63206Y-47469D01*
X63191Y-47499D01*
X63176Y-47514D01*
X63146Y-47529D01*
X63101Y-47529D01*
X63341Y-47529D02*
X63341Y-47319D01*
X63341Y-47349D02*
X63356Y-47334D01*
X63386Y-47319D01*
X63431Y-47319D01*
X63461Y-47334D01*
X63476Y-47364D01*
X63476Y-47529D01*
X63476Y-47364D02*
X63491Y-47334D01*
X63521Y-47319D01*
X63566Y-47319D01*
X63596Y-47334D01*
X63611Y-47364D01*
X63611Y-47529D01*
G54D12*
X73858Y-40599D02*
X73866Y-40607D01*
X73858Y-40614D01*
X73851Y-40607D01*
X73858Y-40599D01*
X73858Y-40614D01*
X73858Y-39339D02*
X73866Y-39347D01*
X73858Y-39354D01*
X73851Y-39347D01*
X73858Y-39339D01*
X73858Y-39354D01*
X73071Y-37922D02*
X73079Y-37930D01*
X73071Y-37937D01*
X73064Y-37930D01*
X73071Y-37922D01*
X73071Y-37937D01*
X70394Y-37843D02*
X70402Y-37851D01*
X70394Y-37858D01*
X70387Y-37851D01*
X70394Y-37843D01*
X70394Y-37858D01*
X63622Y-40914D02*
X63630Y-40922D01*
X63622Y-40929D01*
X63615Y-40922D01*
X63622Y-40914D01*
X63622Y-40929D01*
X62362Y-39812D02*
X62370Y-39820D01*
X62362Y-39827D01*
X62355Y-39820D01*
X62362Y-39812D01*
X62362Y-39827D01*
X60236Y-39812D02*
X60244Y-39820D01*
X60236Y-39827D01*
X60229Y-39820D01*
X60236Y-39812D01*
X60236Y-39827D01*
X60866Y-41072D02*
X60874Y-41080D01*
X60866Y-41087D01*
X60859Y-41080D01*
X60866Y-41072D01*
X60866Y-41087D01*
G54D13*
X73863Y-44276D03*
X73863Y-46276D03*
X70863Y-44276D03*
X70863Y-46276D03*
X67406Y-44276D03*
X67406Y-46276D03*
X64406Y-44276D03*
X64406Y-46276D03*
X63312Y-44276D03*
X63312Y-46276D03*
X60312Y-44276D03*
X60312Y-46276D03*
G54D14*
X64786Y-40055D03*
X65286Y-40055D03*
X65786Y-40055D03*
X66286Y-40055D03*
X66786Y-40055D03*
X67286Y-40055D03*
X67786Y-40055D03*
X68286Y-40055D03*
X68286Y-38055D03*
X67786Y-38055D03*
X67286Y-38055D03*
X66786Y-38055D03*
X66286Y-38055D03*
X65786Y-38055D03*
X65286Y-38055D03*
X64786Y-38055D03*
G54D15*
X71950Y-31811D03*
X71200Y-31811D03*
G54D16*
X61339Y-37574D03*
X61339Y-38174D03*
G54D17*
X71354Y-37559D03*
X71954Y-37559D03*
G54D18*
X63800Y-37795D03*
X63800Y-38149D03*
X62362Y-37618D03*
X62362Y-37972D03*
G54D19*
X71007Y-38149D03*
X70653Y-38149D03*
X73603Y-38208D03*
X73249Y-38208D03*
X74411Y-40905D03*
X74057Y-40905D03*
X74410Y-39627D03*
X74056Y-39627D03*
G54D18*
X60455Y-39527D03*
X60455Y-39173D03*
X63308Y-39527D03*
X63308Y-39173D03*
X62620Y-39527D03*
X62620Y-39173D03*
X68189Y-44271D03*
X68189Y-43917D03*
X68189Y-44783D03*
X68189Y-45137D03*
X69527Y-34548D03*
X69527Y-34902D03*
X70156Y-33918D03*
X70156Y-34272D03*
G54D20*
X69134Y-43933D03*
G54D21*
X69134Y-44933D03*
X69134Y-45933D03*
X69134Y-46933D03*
G54D20*
X67854Y-30945D03*
G54D21*
X66854Y-30945D03*
X65854Y-30945D03*
X64854Y-30945D03*
X63854Y-30945D03*
X62854Y-30945D03*
G54D22*
X62620Y-40137D03*
X62620Y-40727D03*
X60455Y-40137D03*
X60455Y-40727D03*
X73544Y-39627D03*
X72954Y-39627D03*
X73544Y-40905D03*
X72954Y-40905D03*
X72737Y-38208D03*
X72147Y-38208D03*
X70141Y-38150D03*
X69551Y-38150D03*
X63308Y-40727D03*
X63308Y-40137D03*
X61143Y-40727D03*
X61143Y-40137D03*
G54D23*
X71574Y-33130D03*
G54D24*
X71574Y-34902D03*
G54D23*
X71574Y-33721D03*
X71574Y-34311D03*
X71574Y-34311D03*
X71574Y-33721D03*
G54D24*
X71574Y-34902D03*
G54D23*
X71574Y-33130D03*
X73622Y-33130D03*
G54D24*
X73622Y-34902D03*
G54D23*
X73622Y-33721D03*
X73622Y-34311D03*
X73622Y-34311D03*
X73622Y-33721D03*
G54D24*
X73622Y-34902D03*
G54D23*
X73622Y-33130D03*
G54D25*
X67481Y-34882D03*
X66969Y-34882D03*
G54D26*
X67993Y-34882D03*
G54D25*
X67481Y-33071D03*
X66969Y-33071D03*
G54D26*
X67993Y-33071D03*
G54D27*
X63701Y-33594D03*
G54D13*
X63701Y-34594D03*
X74351Y-42500D03*
X73351Y-36594D03*
X72351Y-36594D03*
X71351Y-36594D03*
X70351Y-36594D03*
X69351Y-36594D03*
X68351Y-36594D03*
X67351Y-36594D03*
X66351Y-36594D03*
X65351Y-36594D03*
X64351Y-36594D03*
X63351Y-36594D03*
X62351Y-36594D03*
X61351Y-36594D03*
X60351Y-36594D03*
G54D27*
X60351Y-42500D03*
G54D13*
X61351Y-42500D03*
X62351Y-42500D03*
X63351Y-42500D03*
X64351Y-42500D03*
X65351Y-42500D03*
X66351Y-42500D03*
X67351Y-42500D03*
X68351Y-42500D03*
X69351Y-42500D03*
X70351Y-42500D03*
X71351Y-42500D03*
X72351Y-42500D03*
X73351Y-42500D03*
X74351Y-36594D03*
G54D18*
X61143Y-39173D03*
X61143Y-39527D03*
G54D20*
X74043Y-30819D03*
G54D21*
X73043Y-30819D03*
X74043Y-29819D03*
X73043Y-29819D03*
X74043Y-28819D03*
X73043Y-28819D03*
X74043Y-27819D03*
X73043Y-27819D03*
X74043Y-26819D03*
X73043Y-26819D03*
G54D28*
X74962Y-47165D03*
X59213Y-25512D03*
X74961Y-25512D03*
X59214Y-47165D03*
G54D29*
X60709Y-32106D03*
X60709Y-33090D03*
G54D30*
X60709Y-31122D03*
G54D29*
X60709Y-34074D03*
G54D31*
X63189Y-26929D03*
X61221Y-26929D03*
X67125Y-26930D03*
X65157Y-26930D03*
X71063Y-26929D03*
X69095Y-26929D03*
G54D32*
X65919Y-37551D03*
X68316Y-38560D03*
X64786Y-39238D03*
X66917Y-42076D03*
G54D33*
X72268Y-31594D02*
X72268Y-31811D01*
X73043Y-30819D02*
X72268Y-31594D01*
X71950Y-31811D02*
X72268Y-31811D01*
X61339Y-36606D02*
X61339Y-37574D01*
X61351Y-36594D02*
X61339Y-36606D01*
X67993Y-33411D02*
X68126Y-33544D01*
X71234Y-33721D02*
X71037Y-33918D01*
X70156Y-33918D02*
X69895Y-33918D01*
X69895Y-33918D02*
X69895Y-33959D01*
X69895Y-33959D02*
X69527Y-34327D01*
X67786Y-35429D02*
X67786Y-38055D01*
X68126Y-33544D02*
X68126Y-34327D01*
X68126Y-34409D02*
X67993Y-34542D01*
X71037Y-33918D02*
X70156Y-33918D01*
X68126Y-34327D02*
X68126Y-34409D01*
X71354Y-37559D02*
X71354Y-36597D01*
X71007Y-38149D02*
X71228Y-38149D01*
X62362Y-37618D02*
X62101Y-37618D01*
X67993Y-33071D02*
X67993Y-33411D01*
X64786Y-38055D02*
X64786Y-37687D01*
X74411Y-41166D02*
X73905Y-41166D01*
X73905Y-41166D02*
X73775Y-41296D01*
X63800Y-35113D02*
X63800Y-37795D01*
X63308Y-39173D02*
X63308Y-38951D01*
X63308Y-38951D02*
X63530Y-38951D01*
X63530Y-38951D02*
X64061Y-38420D01*
X64061Y-38420D02*
X64061Y-37795D01*
X62351Y-36594D02*
X62351Y-35065D01*
X62351Y-35065D02*
X63388Y-34028D01*
X63388Y-34028D02*
X63743Y-34028D01*
X63743Y-34028D02*
X64298Y-34583D01*
X64298Y-34583D02*
X64298Y-34615D01*
X64298Y-34615D02*
X63800Y-35113D01*
X60737Y-37896D02*
X61823Y-37896D01*
X62362Y-37397D02*
X62351Y-37386D01*
X62351Y-37386D02*
X62351Y-36594D01*
X63800Y-37795D02*
X64061Y-37795D01*
X67993Y-34882D02*
X67993Y-34542D01*
X64061Y-37795D02*
X64169Y-37687D01*
X64169Y-37687D02*
X64786Y-37687D01*
X62362Y-37618D02*
X62362Y-37397D01*
X60455Y-39173D02*
X60455Y-38178D01*
X60455Y-38178D02*
X60737Y-37896D01*
X71354Y-36597D02*
X71351Y-36594D01*
X71351Y-36594D02*
X71931Y-36014D01*
X71931Y-36014D02*
X71931Y-34182D01*
X71751Y-34002D02*
X71574Y-34002D01*
X70372Y-44377D02*
X68189Y-44377D01*
X61823Y-37896D02*
X62101Y-37618D01*
X69527Y-34548D02*
X69527Y-34327D01*
X68126Y-34327D02*
X69527Y-34327D01*
X67993Y-35222D02*
X67786Y-35429D01*
X71574Y-33721D02*
X71234Y-33721D01*
X67993Y-34882D02*
X67993Y-35222D01*
X71354Y-37559D02*
X71354Y-37927D01*
X73775Y-41296D02*
X72420Y-41296D01*
X71228Y-38149D02*
X71228Y-38053D01*
X71228Y-38053D02*
X71354Y-37927D01*
X73622Y-33721D02*
X73622Y-34002D01*
X73603Y-38208D02*
X73714Y-38208D01*
X71574Y-33721D02*
X71574Y-34002D01*
X73882Y-38040D02*
X73714Y-38208D01*
X72420Y-41296D02*
X71851Y-41865D01*
X71851Y-41865D02*
X71851Y-43884D01*
X71851Y-43884D02*
X70881Y-44854D01*
X70881Y-44854D02*
X70849Y-44854D01*
X70849Y-44854D02*
X70372Y-44377D01*
X71931Y-34182D02*
X71751Y-34002D01*
X74411Y-40905D02*
X74411Y-40644D01*
X74410Y-39627D02*
X74410Y-40644D01*
X74410Y-40644D02*
X74411Y-40644D01*
X73714Y-38208D02*
X74410Y-38904D01*
X74410Y-38904D02*
X74410Y-39627D01*
X73882Y-35392D02*
X73882Y-38040D01*
X73969Y-35305D02*
X73882Y-35392D01*
X73969Y-34172D02*
X73969Y-35305D01*
X73799Y-34002D02*
X73969Y-34172D01*
X73622Y-34002D02*
X73799Y-34002D01*
X68189Y-44377D02*
X68189Y-44271D01*
X68189Y-44672D02*
X68189Y-44377D01*
X68189Y-44783D02*
X68189Y-44672D01*
X74411Y-40905D02*
X74411Y-41166D01*
X67481Y-33411D02*
X67481Y-34542D01*
X67481Y-33071D02*
X67481Y-33411D01*
X67481Y-34882D02*
X67481Y-34542D01*
X66547Y-37687D02*
X67286Y-37687D01*
X66542Y-37692D02*
X66547Y-37687D01*
X66542Y-40691D02*
X66542Y-37692D01*
X68351Y-42500D02*
X66542Y-40691D01*
X67286Y-38055D02*
X67286Y-37687D01*
X66029Y-38666D02*
X65786Y-38423D01*
X68926Y-42925D02*
X67954Y-42925D01*
X69351Y-42500D02*
X68926Y-42925D01*
X67932Y-42903D02*
X67932Y-42397D01*
X67954Y-42925D02*
X67932Y-42903D01*
X67932Y-42397D02*
X66029Y-40494D01*
X66029Y-40494D02*
X66029Y-38666D01*
X65786Y-38055D02*
X65786Y-38423D01*
X67286Y-40055D02*
X67286Y-40423D01*
X72954Y-39627D02*
X72654Y-39627D01*
X67469Y-40606D02*
X67286Y-40423D01*
X72654Y-39627D02*
X71675Y-40606D01*
X71675Y-40606D02*
X67469Y-40606D01*
X67266Y-45415D02*
X64351Y-42500D01*
X71423Y-45415D02*
X67266Y-45415D01*
X73917Y-42921D02*
X71423Y-45415D01*
X73917Y-42195D02*
X73917Y-42921D01*
X74112Y-42000D02*
X73917Y-42195D01*
X74399Y-42000D02*
X74112Y-42000D01*
X75153Y-41246D02*
X74399Y-42000D01*
X75153Y-29190D02*
X75153Y-41246D01*
X74282Y-28319D02*
X75153Y-29190D01*
X73543Y-28319D02*
X74282Y-28319D01*
X73043Y-27819D02*
X73543Y-28319D01*
X66786Y-38055D02*
X66786Y-38423D01*
X68693Y-40842D02*
X67374Y-40842D01*
X67029Y-40497D02*
X67029Y-38666D01*
X67374Y-40842D02*
X67029Y-40497D01*
X67029Y-38666D02*
X66786Y-38423D01*
X70351Y-42500D02*
X68693Y-40842D01*
X65919Y-37551D02*
X66030Y-37662D01*
X66030Y-37662D02*
X66030Y-38382D01*
X66030Y-38382D02*
X66286Y-38638D01*
X66286Y-38638D02*
X66286Y-40055D01*
X71893Y-40905D02*
X70851Y-41947D01*
X70851Y-42599D02*
X70525Y-42925D01*
X66786Y-40674D02*
X66786Y-40055D01*
X70851Y-41947D02*
X70851Y-42599D01*
X70525Y-42925D02*
X69954Y-42925D01*
X72954Y-40905D02*
X71893Y-40905D01*
X69119Y-41529D02*
X67641Y-41529D01*
X69932Y-42342D02*
X69119Y-41529D01*
X67641Y-41529D02*
X66786Y-40674D01*
X69932Y-42903D02*
X69932Y-42342D01*
X69954Y-42925D02*
X69932Y-42903D01*
X66382Y-31267D02*
X65895Y-31754D01*
X65895Y-37052D02*
X66893Y-37052D01*
X65529Y-37418D02*
X65895Y-37052D01*
X67756Y-28493D02*
X66382Y-29867D01*
X66382Y-29867D02*
X66382Y-31267D01*
X65286Y-39687D02*
X65529Y-39444D01*
X67366Y-26192D02*
X67756Y-26582D01*
X66893Y-37052D02*
X67351Y-36594D01*
X63726Y-26929D02*
X64463Y-26192D01*
X65529Y-39444D02*
X65529Y-37418D01*
X67756Y-26582D02*
X67756Y-28493D01*
X64463Y-26192D02*
X67366Y-26192D01*
X60455Y-40727D02*
X60755Y-40727D01*
X64682Y-41027D02*
X61743Y-41027D01*
X61143Y-40727D02*
X61143Y-40877D01*
X65895Y-31754D02*
X65895Y-37052D01*
X65286Y-40055D02*
X65286Y-40423D01*
X61143Y-40877D02*
X60905Y-40877D01*
X61143Y-40727D02*
X61443Y-40727D01*
X61743Y-41027D02*
X61443Y-40727D01*
X65286Y-40055D02*
X65286Y-39687D01*
X65286Y-40423D02*
X64682Y-41027D01*
X60905Y-40877D02*
X60755Y-40727D01*
X63189Y-26929D02*
X63726Y-26929D01*
X75400Y-41451D02*
X74351Y-42500D01*
X75400Y-29176D02*
X75400Y-41451D01*
X74043Y-27819D02*
X75400Y-29176D01*
X74171Y-29319D02*
X74969Y-30117D01*
X74438Y-41700D02*
X74151Y-41700D01*
X74969Y-41169D02*
X74438Y-41700D01*
X73043Y-28819D02*
X73543Y-29319D01*
X74969Y-30117D02*
X74969Y-41169D01*
X73543Y-29319D02*
X74171Y-29319D01*
X74151Y-41700D02*
X73351Y-42500D01*
X68726Y-38150D02*
X68316Y-38560D01*
X69551Y-38150D02*
X68726Y-38150D01*
X64786Y-39238D02*
X64786Y-40055D01*
X65069Y-41292D02*
X65786Y-40575D01*
X63859Y-41292D02*
X65069Y-41292D01*
X62917Y-42234D02*
X63859Y-41292D01*
X62917Y-42586D02*
X62917Y-42234D01*
X60709Y-32106D02*
X60172Y-32106D01*
X65786Y-40575D02*
X65786Y-40055D01*
X62584Y-42919D02*
X62917Y-42586D01*
X59760Y-42919D02*
X62584Y-42919D01*
X59738Y-42897D02*
X59760Y-42919D01*
X59738Y-32540D02*
X59738Y-42897D01*
X60172Y-32106D02*
X59738Y-32540D01*
X60154Y-41303D02*
X60154Y-37883D01*
X61351Y-42500D02*
X60154Y-41303D01*
X60154Y-37883D02*
X60851Y-37186D01*
X60851Y-37186D02*
X60851Y-34948D01*
X60851Y-34948D02*
X64854Y-30945D01*
X62620Y-40727D02*
X62920Y-40727D01*
X62920Y-40727D02*
X63308Y-40727D01*
X65286Y-38055D02*
X65286Y-38423D01*
X64303Y-39732D02*
X63308Y-40727D01*
X64303Y-39271D02*
X64303Y-39732D01*
X65151Y-38423D02*
X64303Y-39271D01*
X65286Y-38423D02*
X65151Y-38423D01*
X67854Y-30945D02*
X68297Y-30945D01*
X72351Y-33883D02*
X72351Y-36594D01*
X70777Y-33425D02*
X71893Y-33425D01*
X71893Y-33425D02*
X72351Y-33883D01*
X68297Y-30945D02*
X70777Y-33425D01*
X71574Y-34902D02*
X69527Y-34902D01*
X70456Y-34311D02*
X70417Y-34272D01*
X71574Y-34311D02*
X70456Y-34311D01*
X70156Y-34272D02*
X70417Y-34272D01*
X73599Y-30375D02*
X73599Y-32638D01*
X73043Y-29819D02*
X73599Y-30375D01*
X73599Y-32638D02*
X74786Y-33825D01*
X74786Y-33825D02*
X74786Y-41053D01*
X74786Y-41053D02*
X74370Y-41469D01*
X74370Y-41469D02*
X73862Y-41469D01*
X73862Y-41469D02*
X73759Y-41572D01*
X73759Y-41572D02*
X73279Y-41572D01*
X73279Y-41572D02*
X72351Y-42500D01*
X66917Y-42076D02*
X66917Y-42866D01*
X69718Y-43131D02*
X70863Y-44276D01*
X67182Y-43131D02*
X69718Y-43131D01*
X66917Y-42866D02*
X67182Y-43131D01*
X60351Y-42500D02*
X60351Y-42082D01*
X63854Y-31686D02*
X63854Y-30945D01*
X59932Y-35608D02*
X63854Y-31686D01*
X59932Y-41663D02*
X59932Y-35608D01*
X60351Y-42082D02*
X59932Y-41663D01*
X65351Y-28167D02*
X65351Y-36594D01*
X66588Y-26930D02*
X65351Y-28167D01*
X67125Y-26930D02*
X66588Y-26930D01*
X66351Y-36594D02*
X66351Y-32448D01*
X66351Y-32448D02*
X67410Y-31389D01*
X71063Y-26929D02*
X70526Y-26929D01*
X67410Y-31389D02*
X67410Y-30045D01*
X67410Y-30045D02*
X70526Y-26929D01*
X72147Y-38208D02*
X71847Y-38208D01*
X67786Y-40055D02*
X67786Y-40423D01*
X69632Y-40423D02*
X71847Y-38208D01*
X67786Y-40423D02*
X69632Y-40423D01*
X68930Y-45137D02*
X68189Y-45137D01*
X69134Y-44933D02*
X68930Y-45137D01*
X69134Y-43933D02*
X68691Y-43933D01*
X68189Y-43917D02*
X68675Y-43917D01*
X68675Y-43917D02*
X68691Y-43933D01*
X62362Y-38035D02*
X62224Y-38173D01*
X71954Y-37559D02*
X72222Y-37559D01*
X62362Y-38035D02*
X62913Y-38035D01*
X62913Y-35382D02*
X62913Y-38035D01*
X62224Y-38173D02*
X61707Y-38173D01*
X61707Y-38173D02*
X61707Y-38174D01*
X63800Y-38149D02*
X63539Y-38149D01*
X62854Y-30945D02*
X62854Y-31929D01*
X62854Y-31929D02*
X60709Y-34074D01*
X63190Y-28360D02*
X63190Y-28361D01*
X71574Y-33130D02*
X71574Y-32849D01*
X71200Y-32475D02*
X71574Y-32849D01*
X68286Y-39087D02*
X70565Y-39087D01*
X70565Y-39087D02*
X71954Y-37698D01*
X71954Y-37698D02*
X71954Y-37559D01*
X66286Y-38055D02*
X66286Y-37684D01*
X66286Y-37684D02*
X66479Y-37491D01*
X66479Y-37491D02*
X67508Y-37491D01*
X67508Y-37491D02*
X67530Y-37513D01*
X67530Y-37513D02*
X67530Y-38331D01*
X67530Y-38331D02*
X68286Y-39087D01*
X68286Y-39087D02*
X68286Y-40055D01*
X73043Y-26819D02*
X71200Y-28662D01*
X71200Y-28662D02*
X71200Y-31811D01*
X62913Y-38035D02*
X63027Y-38149D01*
X63027Y-38149D02*
X63539Y-38149D01*
X63701Y-34594D02*
X62913Y-35382D01*
X71200Y-31811D02*
X71200Y-32475D01*
X62620Y-39527D02*
X62359Y-39527D01*
X71574Y-33130D02*
X72988Y-33130D01*
X72988Y-33130D02*
X73269Y-33411D01*
X73269Y-33411D02*
X73269Y-36512D01*
X73269Y-36512D02*
X73351Y-36594D01*
X73269Y-36512D02*
X72222Y-37559D01*
X61339Y-38174D02*
X61707Y-38174D01*
X62362Y-37972D02*
X62362Y-38035D01*
X63190Y-28361D02*
X63190Y-28897D01*
X61339Y-38174D02*
X61339Y-38442D01*
X61143Y-39173D02*
X61143Y-38638D01*
X61143Y-38638D02*
X61339Y-38442D01*
X73622Y-33130D02*
X73622Y-33411D01*
X62005Y-39173D02*
X62359Y-39527D01*
X73269Y-33411D02*
X73622Y-33411D01*
X66969Y-33071D02*
X66969Y-34882D01*
X63190Y-28897D02*
X62854Y-29233D01*
X62854Y-29233D02*
X62854Y-30945D01*
X61143Y-39173D02*
X62005Y-39173D01*
X63190Y-28360D02*
X61758Y-26929D01*
X64620Y-26930D02*
X63190Y-28360D01*
X65157Y-26930D02*
X64620Y-26930D01*
X61221Y-26929D02*
X61758Y-26929D01*
X63859Y-45729D02*
X64406Y-46276D01*
X63351Y-42500D02*
X63859Y-43008D01*
X63859Y-43008D02*
X63859Y-45729D01*
X63859Y-45729D02*
X63312Y-46276D01*
X70863Y-46276D02*
X73863Y-46276D01*
X73544Y-40905D02*
X74057Y-40905D01*
X73544Y-39627D02*
X74056Y-39627D01*
X72737Y-38208D02*
X73249Y-38208D01*
X70431Y-38150D02*
X70431Y-38149D01*
X70141Y-38150D02*
X70431Y-38150D01*
X70653Y-38149D02*
X70431Y-38149D01*
X62620Y-40137D02*
X62920Y-40137D01*
X63308Y-40137D02*
X62920Y-40137D01*
X62620Y-39173D02*
X62881Y-39173D01*
X63308Y-40137D02*
X63308Y-39527D01*
X63047Y-39339D02*
X62881Y-39173D01*
X63047Y-39527D02*
X63047Y-39339D01*
X63308Y-39527D02*
X63047Y-39527D01*
X61143Y-40137D02*
X60455Y-40137D01*
X61143Y-39527D02*
X61143Y-40137D01*
X60455Y-40137D02*
X60455Y-39527D01*
G54D10*
G36*
X63771Y-38199D02*
X63750Y-38199D01*
X63750Y-38188D01*
X63494Y-38188D01*
X63432Y-38250D01*
X63433Y-38276D01*
X63471Y-38368D01*
X63541Y-38438D01*
X63605Y-38465D01*
X63410Y-38661D01*
X63308Y-38661D01*
X63197Y-38683D01*
X63103Y-38746D01*
X63040Y-38840D01*
X63026Y-38906D01*
X63013Y-38919D01*
X62992Y-38905D01*
X62881Y-38883D01*
X62878Y-38883D01*
X62876Y-38883D01*
X62788Y-38846D01*
X62730Y-38846D01*
X62730Y-38073D01*
X62668Y-38011D01*
X62412Y-38011D01*
X62412Y-38238D01*
X62473Y-38299D01*
X62530Y-38299D01*
X62621Y-38261D01*
X62691Y-38191D01*
X62729Y-38099D01*
X62730Y-38073D01*
X62730Y-38846D01*
X62689Y-38846D01*
X62453Y-38846D01*
X62361Y-38884D01*
X62291Y-38954D01*
X62253Y-39045D01*
X62253Y-39144D01*
X62253Y-39300D01*
X62272Y-39347D01*
X62056Y-39347D01*
X62056Y-40143D01*
X62214Y-40143D01*
X62214Y-40343D01*
X62250Y-40431D01*
X62214Y-40520D01*
X62214Y-40619D01*
X62214Y-40737D01*
X61863Y-40737D01*
X61814Y-40688D01*
X61648Y-40522D01*
X61554Y-40459D01*
X61520Y-40452D01*
X61512Y-40432D01*
X61549Y-40344D01*
X61549Y-40245D01*
X61549Y-39931D01*
X61511Y-39839D01*
X61445Y-39773D01*
X61472Y-39746D01*
X61510Y-39655D01*
X61510Y-39556D01*
X61510Y-39400D01*
X61489Y-39350D01*
X61510Y-39300D01*
X61511Y-39274D01*
X61511Y-39072D01*
X61510Y-39046D01*
X61472Y-38954D01*
X61402Y-38884D01*
X61311Y-38846D01*
X61289Y-38846D01*
X61254Y-38846D01*
X61193Y-38907D01*
X61193Y-39134D01*
X61449Y-39134D01*
X61511Y-39072D01*
X61511Y-39274D01*
X61449Y-39212D01*
X61339Y-39212D01*
X61311Y-39200D01*
X61212Y-39200D01*
X61093Y-39200D01*
X61093Y-39134D01*
X61093Y-39073D01*
X61093Y-38907D01*
X61032Y-38846D01*
X60975Y-38846D01*
X60884Y-38884D01*
X60814Y-38954D01*
X60799Y-38990D01*
X60784Y-38954D01*
X60745Y-38915D01*
X60745Y-38298D01*
X60857Y-38186D01*
X60864Y-38186D01*
X60864Y-38274D01*
X60876Y-38274D01*
X60864Y-38286D01*
X60865Y-38348D01*
X60903Y-38440D01*
X60973Y-38510D01*
X61064Y-38548D01*
X61163Y-38548D01*
X61227Y-38549D01*
X61289Y-38487D01*
X61289Y-38274D01*
X61289Y-38224D01*
X61289Y-38186D01*
X61389Y-38186D01*
X61389Y-38224D01*
X61389Y-38274D01*
X61389Y-38487D01*
X61451Y-38549D01*
X61515Y-38548D01*
X61614Y-38548D01*
X61705Y-38510D01*
X61775Y-38440D01*
X61813Y-38348D01*
X61814Y-38286D01*
X61802Y-38274D01*
X61814Y-38274D01*
X61814Y-38186D01*
X61823Y-38186D01*
X61934Y-38164D01*
X62002Y-38117D01*
X62033Y-38191D01*
X62103Y-38261D01*
X62194Y-38299D01*
X62251Y-38299D01*
X62312Y-38238D01*
X62312Y-38072D01*
X62312Y-38011D01*
X62312Y-37945D01*
X62529Y-37945D01*
X62558Y-37933D01*
X62668Y-37933D01*
X62730Y-37871D01*
X62729Y-37845D01*
X62708Y-37795D01*
X62729Y-37746D01*
X62729Y-37647D01*
X62729Y-37491D01*
X62691Y-37399D01*
X62642Y-37350D01*
X62641Y-37341D01*
X62641Y-37041D01*
X62648Y-37039D01*
X62796Y-36892D01*
X62851Y-36758D01*
X62906Y-36891D01*
X63053Y-37039D01*
X63246Y-37119D01*
X63455Y-37119D01*
X63510Y-37096D01*
X63510Y-37537D01*
X63471Y-37576D01*
X63433Y-37667D01*
X63433Y-37766D01*
X63433Y-37922D01*
X63453Y-37972D01*
X63433Y-38022D01*
X63432Y-38048D01*
X63494Y-38110D01*
X63603Y-38110D01*
X63632Y-38122D01*
X63731Y-38122D01*
X63771Y-38122D01*
X63771Y-38199D01*
X63771Y-38199D01*
G37*
G54D34*
X63771Y-38199D02*
X63750Y-38199D01*
X63750Y-38188D01*
X63494Y-38188D01*
X63432Y-38250D01*
X63433Y-38276D01*
X63471Y-38368D01*
X63541Y-38438D01*
X63605Y-38465D01*
X63410Y-38661D01*
X63308Y-38661D01*
X63197Y-38683D01*
X63103Y-38746D01*
X63040Y-38840D01*
X63026Y-38906D01*
X63013Y-38919D01*
X62992Y-38905D01*
X62881Y-38883D01*
X62878Y-38883D01*
X62876Y-38883D01*
X62788Y-38846D01*
X62730Y-38846D01*
X62730Y-38073D01*
X62668Y-38011D01*
X62412Y-38011D01*
X62412Y-38238D01*
X62473Y-38299D01*
X62530Y-38299D01*
X62621Y-38261D01*
X62691Y-38191D01*
X62729Y-38099D01*
X62730Y-38073D01*
X62730Y-38846D01*
X62689Y-38846D01*
X62453Y-38846D01*
X62361Y-38884D01*
X62291Y-38954D01*
X62253Y-39045D01*
X62253Y-39144D01*
X62253Y-39300D01*
X62272Y-39347D01*
X62056Y-39347D01*
X62056Y-40143D01*
X62214Y-40143D01*
X62214Y-40343D01*
X62250Y-40431D01*
X62214Y-40520D01*
X62214Y-40619D01*
X62214Y-40737D01*
X61863Y-40737D01*
X61814Y-40688D01*
X61648Y-40522D01*
X61554Y-40459D01*
X61520Y-40452D01*
X61512Y-40432D01*
X61549Y-40344D01*
X61549Y-40245D01*
X61549Y-39931D01*
X61511Y-39839D01*
X61445Y-39773D01*
X61472Y-39746D01*
X61510Y-39655D01*
X61510Y-39556D01*
X61510Y-39400D01*
X61489Y-39350D01*
X61510Y-39300D01*
X61511Y-39274D01*
X61511Y-39072D01*
X61510Y-39046D01*
X61472Y-38954D01*
X61402Y-38884D01*
X61311Y-38846D01*
X61289Y-38846D01*
X61254Y-38846D01*
X61193Y-38907D01*
X61193Y-39134D01*
X61449Y-39134D01*
X61511Y-39072D01*
X61511Y-39274D01*
X61449Y-39212D01*
X61339Y-39212D01*
X61311Y-39200D01*
X61212Y-39200D01*
X61093Y-39200D01*
X61093Y-39134D01*
X61093Y-39073D01*
X61093Y-38907D01*
X61032Y-38846D01*
X60975Y-38846D01*
X60884Y-38884D01*
X60814Y-38954D01*
X60799Y-38990D01*
X60784Y-38954D01*
X60745Y-38915D01*
X60745Y-38298D01*
X60857Y-38186D01*
X60864Y-38186D01*
X60864Y-38274D01*
X60876Y-38274D01*
X60864Y-38286D01*
X60865Y-38348D01*
X60903Y-38440D01*
X60973Y-38510D01*
X61064Y-38548D01*
X61163Y-38548D01*
X61227Y-38549D01*
X61289Y-38487D01*
X61289Y-38274D01*
X61289Y-38224D01*
X61289Y-38186D01*
X61389Y-38186D01*
X61389Y-38224D01*
X61389Y-38274D01*
X61389Y-38487D01*
X61451Y-38549D01*
X61515Y-38548D01*
X61614Y-38548D01*
X61705Y-38510D01*
X61775Y-38440D01*
X61813Y-38348D01*
X61814Y-38286D01*
X61802Y-38274D01*
X61814Y-38274D01*
X61814Y-38186D01*
X61823Y-38186D01*
X61934Y-38164D01*
X62002Y-38117D01*
X62033Y-38191D01*
X62103Y-38261D01*
X62194Y-38299D01*
X62251Y-38299D01*
X62312Y-38238D01*
X62312Y-38072D01*
X62312Y-38011D01*
X62312Y-37945D01*
X62529Y-37945D01*
X62558Y-37933D01*
X62668Y-37933D01*
X62730Y-37871D01*
X62729Y-37845D01*
X62708Y-37795D01*
X62729Y-37746D01*
X62729Y-37647D01*
X62729Y-37491D01*
X62691Y-37399D01*
X62642Y-37350D01*
X62641Y-37341D01*
X62641Y-37041D01*
X62648Y-37039D01*
X62796Y-36892D01*
X62851Y-36758D01*
X62906Y-36891D01*
X63053Y-37039D01*
X63246Y-37119D01*
X63455Y-37119D01*
X63510Y-37096D01*
X63510Y-37537D01*
X63471Y-37576D01*
X63433Y-37667D01*
X63433Y-37766D01*
X63433Y-37922D01*
X63453Y-37972D01*
X63433Y-38022D01*
X63432Y-38048D01*
X63494Y-38110D01*
X63603Y-38110D01*
X63632Y-38122D01*
X63731Y-38122D01*
X63771Y-38122D01*
X63771Y-38199D01*
G54D10*
G36*
X63772Y-34594D02*
X63701Y-34665D01*
X63666Y-34700D01*
X63411Y-34955D01*
X63434Y-35046D01*
X63517Y-35074D01*
X63510Y-35113D01*
X63510Y-36091D01*
X63456Y-36069D01*
X63247Y-36069D01*
X63054Y-36149D01*
X62906Y-36296D01*
X62850Y-36429D01*
X62796Y-36297D01*
X62649Y-36149D01*
X62641Y-36145D01*
X62641Y-35185D01*
X63188Y-34637D01*
X63193Y-34724D01*
X63249Y-34861D01*
X63340Y-34884D01*
X63595Y-34629D01*
X63630Y-34594D01*
X63701Y-34523D01*
X63772Y-34594D01*
X63772Y-34594D01*
G37*
G54D34*
X63772Y-34594D02*
X63701Y-34665D01*
X63666Y-34700D01*
X63411Y-34955D01*
X63434Y-35046D01*
X63517Y-35074D01*
X63510Y-35113D01*
X63510Y-36091D01*
X63456Y-36069D01*
X63247Y-36069D01*
X63054Y-36149D01*
X62906Y-36296D01*
X62850Y-36429D01*
X62796Y-36297D01*
X62649Y-36149D01*
X62641Y-36145D01*
X62641Y-35185D01*
X63188Y-34637D01*
X63193Y-34724D01*
X63249Y-34861D01*
X63340Y-34884D01*
X63595Y-34629D01*
X63630Y-34594D01*
X63701Y-34523D01*
X63772Y-34594D01*
G54D10*
G36*
X70570Y-33628D02*
X70412Y-33628D01*
X70324Y-33591D01*
X70225Y-33591D01*
X69989Y-33591D01*
X69899Y-33628D01*
X69897Y-33628D01*
X69895Y-33628D01*
X69784Y-33650D01*
X69690Y-33713D01*
X69627Y-33807D01*
X69624Y-33819D01*
X69407Y-34037D01*
X68416Y-34037D01*
X68416Y-33544D01*
X68394Y-33433D01*
X68355Y-33375D01*
X68380Y-33318D01*
X68380Y-33219D01*
X68380Y-32825D01*
X68342Y-32733D01*
X68272Y-32663D01*
X68181Y-32625D01*
X68082Y-32625D01*
X67806Y-32625D01*
X67714Y-32663D01*
X67695Y-32681D01*
X67558Y-32623D01*
X67406Y-32623D01*
X67266Y-32681D01*
X67220Y-32726D01*
X67203Y-32706D01*
X67078Y-32641D01*
X67019Y-32690D01*
X67019Y-32971D01*
X67019Y-33021D01*
X67019Y-33121D01*
X67019Y-33171D01*
X67019Y-33452D01*
X67078Y-33501D01*
X67191Y-33442D01*
X67191Y-34510D01*
X67078Y-34452D01*
X67019Y-34501D01*
X67019Y-34782D01*
X67019Y-34832D01*
X67019Y-34932D01*
X67019Y-34982D01*
X67019Y-35263D01*
X67078Y-35312D01*
X67203Y-35247D01*
X67220Y-35226D01*
X67265Y-35271D01*
X67404Y-35330D01*
X67515Y-35330D01*
X67496Y-35429D01*
X67496Y-36085D01*
X67456Y-36069D01*
X67247Y-36069D01*
X67054Y-36149D01*
X66906Y-36296D01*
X66850Y-36429D01*
X66796Y-36297D01*
X66649Y-36149D01*
X66641Y-36145D01*
X66641Y-35139D01*
X66735Y-35247D01*
X66860Y-35312D01*
X66919Y-35263D01*
X66919Y-34982D01*
X66919Y-34932D01*
X66919Y-34832D01*
X66919Y-34782D01*
X66919Y-34501D01*
X66860Y-34452D01*
X66735Y-34517D01*
X66641Y-34624D01*
X66641Y-33328D01*
X66735Y-33436D01*
X66860Y-33501D01*
X66919Y-33452D01*
X66919Y-33171D01*
X66919Y-33121D01*
X66919Y-33021D01*
X66919Y-32971D01*
X66919Y-32690D01*
X66860Y-32641D01*
X66735Y-32706D01*
X66641Y-32813D01*
X66641Y-32568D01*
X67615Y-31595D01*
X67615Y-31594D01*
X67678Y-31500D01*
X67679Y-31494D01*
X68203Y-31494D01*
X68295Y-31456D01*
X68346Y-31404D01*
X70570Y-33628D01*
X70570Y-33628D01*
G37*
G54D34*
X70570Y-33628D02*
X70412Y-33628D01*
X70324Y-33591D01*
X70225Y-33591D01*
X69989Y-33591D01*
X69899Y-33628D01*
X69897Y-33628D01*
X69895Y-33628D01*
X69784Y-33650D01*
X69690Y-33713D01*
X69627Y-33807D01*
X69624Y-33819D01*
X69407Y-34037D01*
X68416Y-34037D01*
X68416Y-33544D01*
X68394Y-33433D01*
X68355Y-33375D01*
X68380Y-33318D01*
X68380Y-33219D01*
X68380Y-32825D01*
X68342Y-32733D01*
X68272Y-32663D01*
X68181Y-32625D01*
X68082Y-32625D01*
X67806Y-32625D01*
X67714Y-32663D01*
X67695Y-32681D01*
X67558Y-32623D01*
X67406Y-32623D01*
X67266Y-32681D01*
X67220Y-32726D01*
X67203Y-32706D01*
X67078Y-32641D01*
X67019Y-32690D01*
X67019Y-32971D01*
X67019Y-33021D01*
X67019Y-33121D01*
X67019Y-33171D01*
X67019Y-33452D01*
X67078Y-33501D01*
X67191Y-33442D01*
X67191Y-34510D01*
X67078Y-34452D01*
X67019Y-34501D01*
X67019Y-34782D01*
X67019Y-34832D01*
X67019Y-34932D01*
X67019Y-34982D01*
X67019Y-35263D01*
X67078Y-35312D01*
X67203Y-35247D01*
X67220Y-35226D01*
X67265Y-35271D01*
X67404Y-35330D01*
X67515Y-35330D01*
X67496Y-35429D01*
X67496Y-36085D01*
X67456Y-36069D01*
X67247Y-36069D01*
X67054Y-36149D01*
X66906Y-36296D01*
X66850Y-36429D01*
X66796Y-36297D01*
X66649Y-36149D01*
X66641Y-36145D01*
X66641Y-35139D01*
X66735Y-35247D01*
X66860Y-35312D01*
X66919Y-35263D01*
X66919Y-34982D01*
X66919Y-34932D01*
X66919Y-34832D01*
X66919Y-34782D01*
X66919Y-34501D01*
X66860Y-34452D01*
X66735Y-34517D01*
X66641Y-34624D01*
X66641Y-33328D01*
X66735Y-33436D01*
X66860Y-33501D01*
X66919Y-33452D01*
X66919Y-33171D01*
X66919Y-33121D01*
X66919Y-33021D01*
X66919Y-32971D01*
X66919Y-32690D01*
X66860Y-32641D01*
X66735Y-32706D01*
X66641Y-32813D01*
X66641Y-32568D01*
X67615Y-31595D01*
X67615Y-31594D01*
X67678Y-31500D01*
X67679Y-31494D01*
X68203Y-31494D01*
X68295Y-31456D01*
X68346Y-31404D01*
X70570Y-33628D01*
G54D10*
G36*
X71129Y-38516D02*
X69512Y-40133D01*
X68636Y-40133D01*
X68636Y-39943D01*
X68635Y-39879D01*
X68635Y-39780D01*
X68597Y-39689D01*
X68527Y-39619D01*
X68435Y-39581D01*
X68398Y-39580D01*
X68336Y-39642D01*
X68336Y-40005D01*
X68574Y-40005D01*
X68636Y-39943D01*
X68636Y-40133D01*
X68602Y-40133D01*
X68574Y-40105D01*
X68386Y-40105D01*
X68336Y-40105D01*
X68236Y-40105D01*
X68236Y-40005D01*
X68236Y-39955D01*
X68236Y-39642D01*
X68174Y-39580D01*
X68137Y-39581D01*
X68045Y-39619D01*
X68036Y-39628D01*
X68027Y-39619D01*
X67936Y-39581D01*
X67837Y-39581D01*
X67637Y-39581D01*
X67545Y-39619D01*
X67536Y-39628D01*
X67527Y-39619D01*
X67436Y-39581D01*
X67337Y-39581D01*
X67319Y-39581D01*
X67319Y-38666D01*
X67297Y-38555D01*
X67279Y-38529D01*
X67435Y-38529D01*
X67527Y-38491D01*
X67536Y-38482D01*
X67545Y-38491D01*
X67636Y-38529D01*
X67735Y-38529D01*
X67891Y-38529D01*
X67891Y-38644D01*
X67955Y-38800D01*
X68075Y-38920D01*
X68231Y-38985D01*
X68400Y-38985D01*
X68556Y-38921D01*
X68676Y-38801D01*
X68741Y-38645D01*
X68741Y-38545D01*
X68846Y-38440D01*
X69179Y-38440D01*
X69183Y-38448D01*
X69253Y-38518D01*
X69344Y-38556D01*
X69443Y-38556D01*
X69757Y-38556D01*
X69845Y-38519D01*
X69934Y-38556D01*
X70033Y-38556D01*
X70347Y-38556D01*
X70439Y-38518D01*
X70465Y-38491D01*
X70525Y-38516D01*
X70624Y-38516D01*
X70780Y-38516D01*
X70829Y-38495D01*
X70879Y-38516D01*
X70978Y-38516D01*
X71129Y-38516D01*
X71129Y-38516D01*
G37*
G54D34*
X71129Y-38516D02*
X69512Y-40133D01*
X68636Y-40133D01*
X68636Y-39943D01*
X68635Y-39879D01*
X68635Y-39780D01*
X68597Y-39689D01*
X68527Y-39619D01*
X68435Y-39581D01*
X68398Y-39580D01*
X68336Y-39642D01*
X68336Y-40005D01*
X68574Y-40005D01*
X68636Y-39943D01*
X68636Y-40133D01*
X68602Y-40133D01*
X68574Y-40105D01*
X68386Y-40105D01*
X68336Y-40105D01*
X68236Y-40105D01*
X68236Y-40005D01*
X68236Y-39955D01*
X68236Y-39642D01*
X68174Y-39580D01*
X68137Y-39581D01*
X68045Y-39619D01*
X68036Y-39628D01*
X68027Y-39619D01*
X67936Y-39581D01*
X67837Y-39581D01*
X67637Y-39581D01*
X67545Y-39619D01*
X67536Y-39628D01*
X67527Y-39619D01*
X67436Y-39581D01*
X67337Y-39581D01*
X67319Y-39581D01*
X67319Y-38666D01*
X67297Y-38555D01*
X67279Y-38529D01*
X67435Y-38529D01*
X67527Y-38491D01*
X67536Y-38482D01*
X67545Y-38491D01*
X67636Y-38529D01*
X67735Y-38529D01*
X67891Y-38529D01*
X67891Y-38644D01*
X67955Y-38800D01*
X68075Y-38920D01*
X68231Y-38985D01*
X68400Y-38985D01*
X68556Y-38921D01*
X68676Y-38801D01*
X68741Y-38645D01*
X68741Y-38545D01*
X68846Y-38440D01*
X69179Y-38440D01*
X69183Y-38448D01*
X69253Y-38518D01*
X69344Y-38556D01*
X69443Y-38556D01*
X69757Y-38556D01*
X69845Y-38519D01*
X69934Y-38556D01*
X70033Y-38556D01*
X70347Y-38556D01*
X70439Y-38518D01*
X70465Y-38491D01*
X70525Y-38516D01*
X70624Y-38516D01*
X70780Y-38516D01*
X70829Y-38495D01*
X70879Y-38516D01*
X70978Y-38516D01*
X71129Y-38516D01*
G54D10*
G36*
X75695Y-47139D02*
X75690Y-47164D01*
X75690Y-41451D01*
X75690Y-29176D01*
X75668Y-29065D01*
X75605Y-28971D01*
X74583Y-27949D01*
X74592Y-27928D01*
X74592Y-27710D01*
X74586Y-27695D01*
X74586Y-26898D01*
X74575Y-26685D01*
X74515Y-26538D01*
X74421Y-26511D01*
X74351Y-26581D01*
X74351Y-26441D01*
X74324Y-26347D01*
X74122Y-26276D01*
X73909Y-26287D01*
X73762Y-26347D01*
X73735Y-26441D01*
X74043Y-26748D01*
X74351Y-26441D01*
X74351Y-26581D01*
X74114Y-26819D01*
X74421Y-27127D01*
X74515Y-27100D01*
X74586Y-26898D01*
X74586Y-27695D01*
X74508Y-27508D01*
X74354Y-27354D01*
X74262Y-27316D01*
X74324Y-27291D01*
X74351Y-27197D01*
X74043Y-26890D01*
X73972Y-26960D01*
X73972Y-26819D01*
X73665Y-26511D01*
X73571Y-26538D01*
X73545Y-26611D01*
X73515Y-26538D01*
X73421Y-26511D01*
X73351Y-26581D01*
X73351Y-26441D01*
X73324Y-26347D01*
X73122Y-26276D01*
X72909Y-26287D01*
X72762Y-26347D01*
X72735Y-26441D01*
X73043Y-26748D01*
X73351Y-26441D01*
X73351Y-26581D01*
X73114Y-26819D01*
X73421Y-27127D01*
X73515Y-27100D01*
X73540Y-27026D01*
X73571Y-27100D01*
X73665Y-27127D01*
X73972Y-26819D01*
X73972Y-26960D01*
X73735Y-27197D01*
X73762Y-27291D01*
X73827Y-27314D01*
X73732Y-27354D01*
X73578Y-27508D01*
X73543Y-27592D01*
X73508Y-27508D01*
X73354Y-27354D01*
X73262Y-27316D01*
X73324Y-27291D01*
X73351Y-27197D01*
X73043Y-26890D01*
X72972Y-26960D01*
X72972Y-26819D01*
X72665Y-26511D01*
X72571Y-26538D01*
X72500Y-26740D01*
X72511Y-26953D01*
X72571Y-27100D01*
X72665Y-27127D01*
X72972Y-26819D01*
X72972Y-26960D01*
X72735Y-27197D01*
X72762Y-27291D01*
X72827Y-27314D01*
X72732Y-27354D01*
X72578Y-27508D01*
X72494Y-27710D01*
X72494Y-27928D01*
X72578Y-28130D01*
X72732Y-28284D01*
X72816Y-28319D01*
X72732Y-28354D01*
X72578Y-28508D01*
X72494Y-28710D01*
X72494Y-28928D01*
X72578Y-29130D01*
X72732Y-29284D01*
X72816Y-29319D01*
X72732Y-29354D01*
X72578Y-29508D01*
X72494Y-29710D01*
X72494Y-29928D01*
X72578Y-30130D01*
X72732Y-30284D01*
X72816Y-30319D01*
X72732Y-30354D01*
X72578Y-30508D01*
X72494Y-30710D01*
X72494Y-30928D01*
X72502Y-30949D01*
X72165Y-31287D01*
X72076Y-31287D01*
X71726Y-31287D01*
X71634Y-31325D01*
X71575Y-31384D01*
X71516Y-31325D01*
X71424Y-31287D01*
X71312Y-31286D01*
X71250Y-31348D01*
X71250Y-31711D01*
X71250Y-31761D01*
X71250Y-31861D01*
X71250Y-31911D01*
X71250Y-32274D01*
X71312Y-32336D01*
X71424Y-32335D01*
X71516Y-32297D01*
X71575Y-32238D01*
X71634Y-32297D01*
X71725Y-32335D01*
X71824Y-32335D01*
X72174Y-32335D01*
X72266Y-32297D01*
X72336Y-32227D01*
X72374Y-32136D01*
X72374Y-32079D01*
X72379Y-32079D01*
X72473Y-32016D01*
X72536Y-31922D01*
X72558Y-31811D01*
X72558Y-31714D01*
X72912Y-31359D01*
X72934Y-31368D01*
X73152Y-31368D01*
X73309Y-31302D01*
X73309Y-32638D01*
X73331Y-32749D01*
X73365Y-32800D01*
X73257Y-32896D01*
X73192Y-33021D01*
X73241Y-33080D01*
X73522Y-33080D01*
X73572Y-33080D01*
X73630Y-33080D01*
X73672Y-33121D01*
X73672Y-33180D01*
X73572Y-33180D01*
X73522Y-33180D01*
X73241Y-33180D01*
X73192Y-33239D01*
X73257Y-33364D01*
X73319Y-33418D01*
X73233Y-33505D01*
X73174Y-33644D01*
X73174Y-33796D01*
X73232Y-33936D01*
X73312Y-34016D01*
X73233Y-34095D01*
X73174Y-34234D01*
X73174Y-34386D01*
X73232Y-34526D01*
X73271Y-34565D01*
X73214Y-34623D01*
X73176Y-34714D01*
X73176Y-34813D01*
X73176Y-35089D01*
X73214Y-35181D01*
X73284Y-35251D01*
X73375Y-35289D01*
X73474Y-35289D01*
X73612Y-35289D01*
X73592Y-35392D01*
X73592Y-36132D01*
X73425Y-36075D01*
X73221Y-36086D01*
X73084Y-36142D01*
X73061Y-36233D01*
X73316Y-36488D01*
X73351Y-36523D01*
X73422Y-36594D01*
X73351Y-36665D01*
X73316Y-36700D01*
X73061Y-36955D01*
X73084Y-37046D01*
X73277Y-37113D01*
X73481Y-37102D01*
X73592Y-37056D01*
X73592Y-37841D01*
X73476Y-37841D01*
X73426Y-37861D01*
X73378Y-37841D01*
X73378Y-37457D01*
X72765Y-37457D01*
X72765Y-37802D01*
X72531Y-37802D01*
X72442Y-37838D01*
X72354Y-37802D01*
X72328Y-37802D01*
X72328Y-37735D01*
X72329Y-37671D01*
X72329Y-37447D01*
X72328Y-37383D01*
X72328Y-37284D01*
X72290Y-37193D01*
X72220Y-37123D01*
X72128Y-37085D01*
X72066Y-37084D01*
X72004Y-37146D01*
X72004Y-37509D01*
X72267Y-37509D01*
X72329Y-37447D01*
X72329Y-37671D01*
X72267Y-37609D01*
X72054Y-37609D01*
X72004Y-37609D01*
X71904Y-37609D01*
X71904Y-37509D01*
X71904Y-37459D01*
X71904Y-37146D01*
X71842Y-37084D01*
X71780Y-37085D01*
X71688Y-37123D01*
X71654Y-37157D01*
X71644Y-37147D01*
X71644Y-37040D01*
X71648Y-37039D01*
X71796Y-36892D01*
X71851Y-36758D01*
X71906Y-36891D01*
X72053Y-37039D01*
X72246Y-37119D01*
X72455Y-37119D01*
X72648Y-37039D01*
X72796Y-36892D01*
X72854Y-36751D01*
X72899Y-36861D01*
X72990Y-36884D01*
X73280Y-36594D01*
X72990Y-36304D01*
X72899Y-36327D01*
X72857Y-36445D01*
X72796Y-36297D01*
X72649Y-36149D01*
X72641Y-36145D01*
X72641Y-33883D01*
X72640Y-33882D01*
X72619Y-33772D01*
X72618Y-33771D01*
X72597Y-33740D01*
X72556Y-33678D01*
X72556Y-33677D01*
X72098Y-33220D01*
X72004Y-33157D01*
X72004Y-33021D01*
X71939Y-32896D01*
X71826Y-32797D01*
X71684Y-32748D01*
X71624Y-32807D01*
X71624Y-33080D01*
X71955Y-33080D01*
X72004Y-33021D01*
X72004Y-33157D01*
X71893Y-33135D01*
X71524Y-33135D01*
X71524Y-33080D01*
X71524Y-32807D01*
X71464Y-32748D01*
X71322Y-32797D01*
X71209Y-32896D01*
X71150Y-33009D01*
X71150Y-32274D01*
X71150Y-31861D01*
X71150Y-31761D01*
X71150Y-31348D01*
X71088Y-31286D01*
X70976Y-31287D01*
X70884Y-31325D01*
X70814Y-31395D01*
X70776Y-31486D01*
X70776Y-31585D01*
X70775Y-31699D01*
X70837Y-31761D01*
X71150Y-31761D01*
X71150Y-31861D01*
X70837Y-31861D01*
X70775Y-31923D01*
X70776Y-32037D01*
X70776Y-32136D01*
X70814Y-32227D01*
X70884Y-32297D01*
X70976Y-32335D01*
X71088Y-32336D01*
X71150Y-32274D01*
X71150Y-33009D01*
X71144Y-33021D01*
X71193Y-33080D01*
X71524Y-33080D01*
X71524Y-33135D01*
X70897Y-33135D01*
X68502Y-30740D01*
X68408Y-30677D01*
X68403Y-30676D01*
X68403Y-30596D01*
X68365Y-30504D01*
X68295Y-30434D01*
X68204Y-30396D01*
X68105Y-30396D01*
X67700Y-30396D01*
X67700Y-30165D01*
X70479Y-27385D01*
X70528Y-27502D01*
X70705Y-27680D01*
X70937Y-27776D01*
X71188Y-27776D01*
X71420Y-27680D01*
X71598Y-27503D01*
X71694Y-27271D01*
X71694Y-27020D01*
X71694Y-26588D01*
X71598Y-26356D01*
X71421Y-26178D01*
X71189Y-26082D01*
X70938Y-26082D01*
X70706Y-26178D01*
X70528Y-26355D01*
X70432Y-26587D01*
X70432Y-26657D01*
X70414Y-26661D01*
X70320Y-26724D01*
X69688Y-27355D01*
X69738Y-27179D01*
X69738Y-26979D01*
X69738Y-26879D01*
X69738Y-26679D01*
X69670Y-26437D01*
X69514Y-26239D01*
X69295Y-26116D01*
X69245Y-26104D01*
X69145Y-26151D01*
X69145Y-26879D01*
X69738Y-26879D01*
X69738Y-26979D01*
X69145Y-26979D01*
X69145Y-27707D01*
X69245Y-27754D01*
X69295Y-27742D01*
X69311Y-27732D01*
X69045Y-27998D01*
X69045Y-27707D01*
X69045Y-26979D01*
X69045Y-26879D01*
X69045Y-26151D01*
X68945Y-26104D01*
X68895Y-26116D01*
X68676Y-26239D01*
X68520Y-26437D01*
X68452Y-26679D01*
X68452Y-26879D01*
X69045Y-26879D01*
X69045Y-26979D01*
X68452Y-26979D01*
X68452Y-27179D01*
X68520Y-27421D01*
X68676Y-27619D01*
X68895Y-27742D01*
X68945Y-27754D01*
X69045Y-27707D01*
X69045Y-27998D01*
X67205Y-29840D01*
X67142Y-29934D01*
X67120Y-30045D01*
X67120Y-30461D01*
X66963Y-30396D01*
X66745Y-30396D01*
X66672Y-30426D01*
X66672Y-29987D01*
X67961Y-28698D01*
X68024Y-28604D01*
X68046Y-28493D01*
X68046Y-26582D01*
X68024Y-26471D01*
X67961Y-26377D01*
X67571Y-25987D01*
X67477Y-25924D01*
X67366Y-25902D01*
X64463Y-25902D01*
X64352Y-25924D01*
X64258Y-25987D01*
X63772Y-26472D01*
X63724Y-26356D01*
X63547Y-26178D01*
X63315Y-26082D01*
X63064Y-26082D01*
X62832Y-26178D01*
X62654Y-26355D01*
X62558Y-26587D01*
X62558Y-26838D01*
X62558Y-27270D01*
X62654Y-27502D01*
X62831Y-27680D01*
X63063Y-27776D01*
X63314Y-27776D01*
X63546Y-27680D01*
X63724Y-27503D01*
X63820Y-27271D01*
X63820Y-27200D01*
X63837Y-27197D01*
X63931Y-27134D01*
X64564Y-26500D01*
X64514Y-26680D01*
X64514Y-26880D01*
X65057Y-26880D01*
X65107Y-26880D01*
X65207Y-26880D01*
X65257Y-26880D01*
X65800Y-26880D01*
X65800Y-26680D01*
X65744Y-26482D01*
X66537Y-26482D01*
X66494Y-26588D01*
X66494Y-26658D01*
X66477Y-26662D01*
X66383Y-26725D01*
X65749Y-27358D01*
X65800Y-27180D01*
X65800Y-26980D01*
X65207Y-26980D01*
X65207Y-27708D01*
X65307Y-27755D01*
X65357Y-27743D01*
X65375Y-27732D01*
X65146Y-27962D01*
X65107Y-28020D01*
X65107Y-27708D01*
X65107Y-26980D01*
X64514Y-26980D01*
X64514Y-27180D01*
X64582Y-27422D01*
X64738Y-27620D01*
X64957Y-27743D01*
X65007Y-27755D01*
X65107Y-27708D01*
X65107Y-28020D01*
X65083Y-28056D01*
X65061Y-28167D01*
X65061Y-30436D01*
X64963Y-30396D01*
X64745Y-30396D01*
X64543Y-30480D01*
X64389Y-30634D01*
X64354Y-30718D01*
X64319Y-30634D01*
X64165Y-30480D01*
X63963Y-30396D01*
X63745Y-30396D01*
X63543Y-30480D01*
X63389Y-30634D01*
X63351Y-30725D01*
X63326Y-30664D01*
X63232Y-30637D01*
X63162Y-30707D01*
X63162Y-30567D01*
X63135Y-30473D01*
X62933Y-30402D01*
X62720Y-30413D01*
X62573Y-30473D01*
X62546Y-30567D01*
X62854Y-30874D01*
X63162Y-30567D01*
X63162Y-30707D01*
X62925Y-30945D01*
X63232Y-31253D01*
X63326Y-31226D01*
X63349Y-31160D01*
X63389Y-31256D01*
X63543Y-31410D01*
X63564Y-31418D01*
X63564Y-31566D01*
X63162Y-31967D01*
X63162Y-31323D01*
X62854Y-31016D01*
X62783Y-31086D01*
X62783Y-30945D01*
X62476Y-30637D01*
X62382Y-30664D01*
X62311Y-30866D01*
X62322Y-31079D01*
X62382Y-31226D01*
X62476Y-31253D01*
X62783Y-30945D01*
X62783Y-31086D01*
X62546Y-31323D01*
X62573Y-31417D01*
X62775Y-31488D01*
X62988Y-31477D01*
X63135Y-31417D01*
X63162Y-31323D01*
X63162Y-31967D01*
X61864Y-33265D01*
X61864Y-27179D01*
X61864Y-26979D01*
X61864Y-26879D01*
X61864Y-26679D01*
X61796Y-26437D01*
X61640Y-26239D01*
X61421Y-26116D01*
X61371Y-26104D01*
X61271Y-26151D01*
X61271Y-26879D01*
X61864Y-26879D01*
X61864Y-26979D01*
X61271Y-26979D01*
X61271Y-27707D01*
X61371Y-27754D01*
X61421Y-27742D01*
X61640Y-27619D01*
X61796Y-27421D01*
X61864Y-27179D01*
X61864Y-33265D01*
X61355Y-33774D01*
X61355Y-33186D01*
X61355Y-32996D01*
X61283Y-32821D01*
X61149Y-32686D01*
X60974Y-32613D01*
X60784Y-32613D01*
X60446Y-32613D01*
X60271Y-32685D01*
X60136Y-32819D01*
X60063Y-32994D01*
X60063Y-33184D01*
X60135Y-33359D01*
X60269Y-33494D01*
X60444Y-33567D01*
X60634Y-33567D01*
X60972Y-33567D01*
X61147Y-33495D01*
X61282Y-33361D01*
X61355Y-33186D01*
X61355Y-33774D01*
X61284Y-33845D01*
X61229Y-33750D01*
X61078Y-33636D01*
X60894Y-33588D01*
X60759Y-33588D01*
X60759Y-33974D01*
X60759Y-34024D01*
X60759Y-34124D01*
X60659Y-34124D01*
X60659Y-34024D01*
X60659Y-33588D01*
X60524Y-33588D01*
X60340Y-33636D01*
X60189Y-33750D01*
X60093Y-33914D01*
X60083Y-33949D01*
X60131Y-34024D01*
X60659Y-34024D01*
X60659Y-34124D01*
X60609Y-34124D01*
X60131Y-34124D01*
X60083Y-34199D01*
X60093Y-34234D01*
X60189Y-34398D01*
X60340Y-34512D01*
X60524Y-34560D01*
X60570Y-34560D01*
X60028Y-35102D01*
X60028Y-32660D01*
X60223Y-32464D01*
X60269Y-32510D01*
X60444Y-32583D01*
X60634Y-32583D01*
X60972Y-32583D01*
X61147Y-32511D01*
X61282Y-32377D01*
X61355Y-32202D01*
X61355Y-32012D01*
X61352Y-32004D01*
X61352Y-31408D01*
X61352Y-31309D01*
X61352Y-30837D01*
X61314Y-30745D01*
X61244Y-30675D01*
X61171Y-30644D01*
X61171Y-27707D01*
X61171Y-26979D01*
X61171Y-26879D01*
X61171Y-26151D01*
X61071Y-26104D01*
X61021Y-26116D01*
X60802Y-26239D01*
X60646Y-26437D01*
X60578Y-26679D01*
X60578Y-26879D01*
X61171Y-26879D01*
X61171Y-26979D01*
X60578Y-26979D01*
X60578Y-27179D01*
X60646Y-27421D01*
X60802Y-27619D01*
X61021Y-27742D01*
X61071Y-27754D01*
X61171Y-27707D01*
X61171Y-30644D01*
X61153Y-30637D01*
X61054Y-30637D01*
X60266Y-30637D01*
X60174Y-30675D01*
X60104Y-30745D01*
X60066Y-30836D01*
X60066Y-30935D01*
X60066Y-31407D01*
X60104Y-31499D01*
X60174Y-31569D01*
X60265Y-31607D01*
X60364Y-31607D01*
X61152Y-31607D01*
X61244Y-31569D01*
X61314Y-31499D01*
X61352Y-31408D01*
X61352Y-32004D01*
X61283Y-31837D01*
X61149Y-31702D01*
X60974Y-31629D01*
X60784Y-31629D01*
X60446Y-31629D01*
X60271Y-31701D01*
X60150Y-31820D01*
X60061Y-31838D01*
X60029Y-31859D01*
X59966Y-31901D01*
X59533Y-32335D01*
X59470Y-32429D01*
X59448Y-32540D01*
X59448Y-42897D01*
X59470Y-43008D01*
X59533Y-43102D01*
X59555Y-43124D01*
X59649Y-43187D01*
X59760Y-43209D01*
X62584Y-43209D01*
X62695Y-43187D01*
X62789Y-43124D01*
X63004Y-42908D01*
X63044Y-42948D01*
X63075Y-42916D01*
X63084Y-42952D01*
X63277Y-43019D01*
X63481Y-43008D01*
X63618Y-42952D01*
X63641Y-42861D01*
X63386Y-42606D01*
X63351Y-42571D01*
X63280Y-42500D01*
X63351Y-42429D01*
X63386Y-42394D01*
X63641Y-42139D01*
X63618Y-42048D01*
X63540Y-42020D01*
X63979Y-41582D01*
X65069Y-41582D01*
X65180Y-41560D01*
X65274Y-41497D01*
X65948Y-40823D01*
X66792Y-41667D01*
X66677Y-41715D01*
X66557Y-41835D01*
X66492Y-41990D01*
X66456Y-41975D01*
X66247Y-41975D01*
X66054Y-42055D01*
X65906Y-42202D01*
X65850Y-42335D01*
X65796Y-42203D01*
X65649Y-42055D01*
X65456Y-41975D01*
X65247Y-41975D01*
X65054Y-42055D01*
X64906Y-42202D01*
X64850Y-42335D01*
X64796Y-42203D01*
X64649Y-42055D01*
X64456Y-41975D01*
X64247Y-41975D01*
X64054Y-42055D01*
X63906Y-42202D01*
X63847Y-42342D01*
X63803Y-42233D01*
X63712Y-42210D01*
X63422Y-42500D01*
X63712Y-42790D01*
X63803Y-42767D01*
X63844Y-42648D01*
X63906Y-42797D01*
X64053Y-42945D01*
X64246Y-43025D01*
X64455Y-43025D01*
X64462Y-43021D01*
X67061Y-45620D01*
X67155Y-45683D01*
X67266Y-45705D01*
X68643Y-45705D01*
X68591Y-45854D01*
X68602Y-46067D01*
X68662Y-46214D01*
X68756Y-46241D01*
X69028Y-45968D01*
X69063Y-45933D01*
X69134Y-45862D01*
X69205Y-45933D01*
X69240Y-45968D01*
X69512Y-46241D01*
X69606Y-46214D01*
X69677Y-46012D01*
X69666Y-45799D01*
X69627Y-45705D01*
X71423Y-45705D01*
X71534Y-45683D01*
X71628Y-45620D01*
X74122Y-43126D01*
X74185Y-43032D01*
X74190Y-43002D01*
X74246Y-43025D01*
X74455Y-43025D01*
X74648Y-42945D01*
X74796Y-42798D01*
X74876Y-42605D01*
X74876Y-42396D01*
X74872Y-42388D01*
X75605Y-41656D01*
X75668Y-41562D01*
X75690Y-41451D01*
X75690Y-47164D01*
X75684Y-47194D01*
X75684Y-47022D01*
X75574Y-46757D01*
X75371Y-46553D01*
X75106Y-46443D01*
X74819Y-46443D01*
X74554Y-46553D01*
X74388Y-46718D01*
X74388Y-44381D01*
X74388Y-44172D01*
X74308Y-43979D01*
X74161Y-43831D01*
X73968Y-43751D01*
X73759Y-43751D01*
X73566Y-43831D01*
X73418Y-43978D01*
X73338Y-44171D01*
X73338Y-44380D01*
X73418Y-44573D01*
X73565Y-44721D01*
X73758Y-44801D01*
X73967Y-44801D01*
X74160Y-44721D01*
X74308Y-44574D01*
X74388Y-44381D01*
X74388Y-46718D01*
X74382Y-46724D01*
X74382Y-46350D01*
X74371Y-46146D01*
X74315Y-46009D01*
X74224Y-45986D01*
X74153Y-46057D01*
X74153Y-45915D01*
X74130Y-45824D01*
X73937Y-45757D01*
X73733Y-45768D01*
X73596Y-45824D01*
X73573Y-45915D01*
X73863Y-46205D01*
X74153Y-45915D01*
X74153Y-46057D01*
X73934Y-46276D01*
X74224Y-46566D01*
X74315Y-46543D01*
X74382Y-46350D01*
X74382Y-46724D01*
X74350Y-46756D01*
X74240Y-47021D01*
X74240Y-47308D01*
X74350Y-47573D01*
X74553Y-47777D01*
X74818Y-47887D01*
X74994Y-47887D01*
X74929Y-47900D01*
X74153Y-47900D01*
X74153Y-46637D01*
X73863Y-46347D01*
X73792Y-46418D01*
X73792Y-46276D01*
X73502Y-45986D01*
X73411Y-46009D01*
X73344Y-46202D01*
X73355Y-46406D01*
X73411Y-46543D01*
X73502Y-46566D01*
X73792Y-46276D01*
X73792Y-46418D01*
X73573Y-46637D01*
X73596Y-46728D01*
X73789Y-46795D01*
X73993Y-46784D01*
X74130Y-46728D01*
X74153Y-46637D01*
X74153Y-47900D01*
X71382Y-47900D01*
X71382Y-46350D01*
X71371Y-46146D01*
X71315Y-46009D01*
X71224Y-45986D01*
X71153Y-46057D01*
X71153Y-45915D01*
X71130Y-45824D01*
X70937Y-45757D01*
X70733Y-45768D01*
X70596Y-45824D01*
X70573Y-45915D01*
X70863Y-46205D01*
X71153Y-45915D01*
X71153Y-46057D01*
X70934Y-46276D01*
X71224Y-46566D01*
X71315Y-46543D01*
X71382Y-46350D01*
X71382Y-47900D01*
X71153Y-47900D01*
X71153Y-46637D01*
X70863Y-46347D01*
X70792Y-46418D01*
X70792Y-46276D01*
X70502Y-45986D01*
X70411Y-46009D01*
X70344Y-46202D01*
X70355Y-46406D01*
X70411Y-46543D01*
X70502Y-46566D01*
X70792Y-46276D01*
X70792Y-46418D01*
X70573Y-46637D01*
X70596Y-46728D01*
X70789Y-46795D01*
X70993Y-46784D01*
X71130Y-46728D01*
X71153Y-46637D01*
X71153Y-47900D01*
X69677Y-47900D01*
X69677Y-47012D01*
X69666Y-46799D01*
X69606Y-46652D01*
X69512Y-46625D01*
X69442Y-46695D01*
X69442Y-46555D01*
X69415Y-46461D01*
X69341Y-46435D01*
X69415Y-46405D01*
X69442Y-46311D01*
X69134Y-46004D01*
X68826Y-46311D01*
X68853Y-46405D01*
X68926Y-46430D01*
X68853Y-46461D01*
X68826Y-46555D01*
X69134Y-46862D01*
X69442Y-46555D01*
X69442Y-46695D01*
X69205Y-46933D01*
X69512Y-47241D01*
X69606Y-47214D01*
X69677Y-47012D01*
X69677Y-47900D01*
X69442Y-47900D01*
X69442Y-47311D01*
X69134Y-47004D01*
X69063Y-47074D01*
X69063Y-46933D01*
X68756Y-46625D01*
X68662Y-46652D01*
X68591Y-46854D01*
X68602Y-47067D01*
X68662Y-47214D01*
X68756Y-47241D01*
X69063Y-46933D01*
X69063Y-47074D01*
X68826Y-47311D01*
X68853Y-47405D01*
X69055Y-47476D01*
X69268Y-47465D01*
X69415Y-47405D01*
X69442Y-47311D01*
X69442Y-47900D01*
X67925Y-47900D01*
X67925Y-46350D01*
X67914Y-46146D01*
X67858Y-46009D01*
X67767Y-45986D01*
X67696Y-46057D01*
X67696Y-45915D01*
X67673Y-45824D01*
X67480Y-45757D01*
X67276Y-45768D01*
X67139Y-45824D01*
X67116Y-45915D01*
X67406Y-46205D01*
X67696Y-45915D01*
X67696Y-46057D01*
X67477Y-46276D01*
X67767Y-46566D01*
X67858Y-46543D01*
X67925Y-46350D01*
X67925Y-47900D01*
X67696Y-47900D01*
X67696Y-46637D01*
X67406Y-46347D01*
X67335Y-46418D01*
X67335Y-46276D01*
X67045Y-45986D01*
X66954Y-46009D01*
X66887Y-46202D01*
X66898Y-46406D01*
X66954Y-46543D01*
X67045Y-46566D01*
X67335Y-46276D01*
X67335Y-46418D01*
X67116Y-46637D01*
X67139Y-46728D01*
X67332Y-46795D01*
X67536Y-46784D01*
X67673Y-46728D01*
X67696Y-46637D01*
X67696Y-47900D01*
X64931Y-47900D01*
X64931Y-44381D01*
X64931Y-44172D01*
X64851Y-43979D01*
X64704Y-43831D01*
X64511Y-43751D01*
X64302Y-43751D01*
X64109Y-43831D01*
X63961Y-43978D01*
X63881Y-44171D01*
X63881Y-44380D01*
X63961Y-44573D01*
X64108Y-44721D01*
X64301Y-44801D01*
X64510Y-44801D01*
X64703Y-44721D01*
X64851Y-44574D01*
X64931Y-44381D01*
X64931Y-47900D01*
X64925Y-47900D01*
X64925Y-46350D01*
X64914Y-46146D01*
X64858Y-46009D01*
X64767Y-45986D01*
X64696Y-46057D01*
X64696Y-45915D01*
X64673Y-45824D01*
X64480Y-45757D01*
X64276Y-45768D01*
X64139Y-45824D01*
X64116Y-45915D01*
X64406Y-46205D01*
X64696Y-45915D01*
X64696Y-46057D01*
X64477Y-46276D01*
X64767Y-46566D01*
X64858Y-46543D01*
X64925Y-46350D01*
X64925Y-47900D01*
X64696Y-47900D01*
X64696Y-46637D01*
X64406Y-46347D01*
X64335Y-46418D01*
X64335Y-46276D01*
X64045Y-45986D01*
X63954Y-46009D01*
X63887Y-46202D01*
X63898Y-46406D01*
X63954Y-46543D01*
X64045Y-46566D01*
X64335Y-46276D01*
X64335Y-46418D01*
X64116Y-46637D01*
X64139Y-46728D01*
X64332Y-46795D01*
X64536Y-46784D01*
X64673Y-46728D01*
X64696Y-46637D01*
X64696Y-47900D01*
X63975Y-47900D01*
X63975Y-46814D01*
X63837Y-46814D01*
X63837Y-44381D01*
X63837Y-44172D01*
X63757Y-43979D01*
X63641Y-43862D01*
X63610Y-43831D01*
X63417Y-43751D01*
X63208Y-43751D01*
X63015Y-43831D01*
X62867Y-43978D01*
X62787Y-44171D01*
X62787Y-44380D01*
X62867Y-44573D01*
X63014Y-44721D01*
X63207Y-44801D01*
X63416Y-44801D01*
X63609Y-44721D01*
X63757Y-44574D01*
X63837Y-44381D01*
X63837Y-46814D01*
X63831Y-46814D01*
X63831Y-46350D01*
X63820Y-46146D01*
X63764Y-46009D01*
X63673Y-45986D01*
X63602Y-46057D01*
X63602Y-45915D01*
X63579Y-45824D01*
X63386Y-45757D01*
X63182Y-45768D01*
X63045Y-45824D01*
X63022Y-45915D01*
X63312Y-46205D01*
X63602Y-45915D01*
X63602Y-46057D01*
X63383Y-46276D01*
X63673Y-46566D01*
X63764Y-46543D01*
X63831Y-46350D01*
X63831Y-46814D01*
X63602Y-46814D01*
X63602Y-46637D01*
X63312Y-46347D01*
X63241Y-46418D01*
X63241Y-46276D01*
X62951Y-45986D01*
X62860Y-46009D01*
X62793Y-46202D01*
X62804Y-46406D01*
X62860Y-46543D01*
X62951Y-46566D01*
X63241Y-46276D01*
X63241Y-46418D01*
X63022Y-46637D01*
X63045Y-46728D01*
X63238Y-46795D01*
X63442Y-46784D01*
X63579Y-46728D01*
X63602Y-46637D01*
X63602Y-46814D01*
X60907Y-46814D01*
X60907Y-47900D01*
X60837Y-47900D01*
X60837Y-44381D01*
X60837Y-44172D01*
X60757Y-43979D01*
X60610Y-43831D01*
X60417Y-43751D01*
X60208Y-43751D01*
X60015Y-43831D01*
X59867Y-43978D01*
X59787Y-44171D01*
X59787Y-44380D01*
X59867Y-44573D01*
X60014Y-44721D01*
X60207Y-44801D01*
X60416Y-44801D01*
X60609Y-44721D01*
X60757Y-44574D01*
X60837Y-44381D01*
X60837Y-47900D01*
X60831Y-47900D01*
X60831Y-46350D01*
X60820Y-46146D01*
X60764Y-46009D01*
X60673Y-45986D01*
X60602Y-46057D01*
X60602Y-45915D01*
X60579Y-45824D01*
X60386Y-45757D01*
X60182Y-45768D01*
X60045Y-45824D01*
X60022Y-45915D01*
X60312Y-46205D01*
X60602Y-45915D01*
X60602Y-46057D01*
X60383Y-46276D01*
X60673Y-46566D01*
X60764Y-46543D01*
X60831Y-46350D01*
X60831Y-47900D01*
X60602Y-47900D01*
X60602Y-46637D01*
X60312Y-46347D01*
X60241Y-46418D01*
X60241Y-46276D01*
X59951Y-45986D01*
X59860Y-46009D01*
X59793Y-46202D01*
X59804Y-46406D01*
X59860Y-46543D01*
X59951Y-46566D01*
X60241Y-46276D01*
X60241Y-46418D01*
X60022Y-46637D01*
X60045Y-46728D01*
X60238Y-46795D01*
X60442Y-46784D01*
X60579Y-46728D01*
X60602Y-46637D01*
X60602Y-47900D01*
X59238Y-47900D01*
X59173Y-47887D01*
X59357Y-47887D01*
X59622Y-47777D01*
X59826Y-47574D01*
X59936Y-47309D01*
X59936Y-47022D01*
X59826Y-46757D01*
X59623Y-46553D01*
X59358Y-46443D01*
X59071Y-46443D01*
X58806Y-46553D01*
X58602Y-46756D01*
X58492Y-47021D01*
X58492Y-47207D01*
X58478Y-47137D01*
X58478Y-25591D01*
X58478Y-25539D01*
X58491Y-25474D01*
X58491Y-25655D01*
X58601Y-25920D01*
X58804Y-26124D01*
X59069Y-26234D01*
X59356Y-26234D01*
X59621Y-26124D01*
X59825Y-25921D01*
X59935Y-25656D01*
X59935Y-25369D01*
X59825Y-25104D01*
X59622Y-24900D01*
X59357Y-24790D01*
X59173Y-24790D01*
X59238Y-24777D01*
X74933Y-24777D01*
X74998Y-24790D01*
X74818Y-24790D01*
X74553Y-24900D01*
X74349Y-25103D01*
X74239Y-25368D01*
X74239Y-25655D01*
X74349Y-25920D01*
X74552Y-26124D01*
X74817Y-26234D01*
X75104Y-26234D01*
X75369Y-26124D01*
X75573Y-25921D01*
X75683Y-25656D01*
X75683Y-25472D01*
X75695Y-25532D01*
X75695Y-25591D01*
X75695Y-47139D01*
X75695Y-47139D01*
G37*
G54D34*
X75695Y-47139D02*
X75690Y-47164D01*
X75690Y-41451D01*
X75690Y-29176D01*
X75668Y-29065D01*
X75605Y-28971D01*
X74583Y-27949D01*
X74592Y-27928D01*
X74592Y-27710D01*
X74586Y-27695D01*
X74586Y-26898D01*
X74575Y-26685D01*
X74515Y-26538D01*
X74421Y-26511D01*
X74351Y-26581D01*
X74351Y-26441D01*
X74324Y-26347D01*
X74122Y-26276D01*
X73909Y-26287D01*
X73762Y-26347D01*
X73735Y-26441D01*
X74043Y-26748D01*
X74351Y-26441D01*
X74351Y-26581D01*
X74114Y-26819D01*
X74421Y-27127D01*
X74515Y-27100D01*
X74586Y-26898D01*
X74586Y-27695D01*
X74508Y-27508D01*
X74354Y-27354D01*
X74262Y-27316D01*
X74324Y-27291D01*
X74351Y-27197D01*
X74043Y-26890D01*
X73972Y-26960D01*
X73972Y-26819D01*
X73665Y-26511D01*
X73571Y-26538D01*
X73545Y-26611D01*
X73515Y-26538D01*
X73421Y-26511D01*
X73351Y-26581D01*
X73351Y-26441D01*
X73324Y-26347D01*
X73122Y-26276D01*
X72909Y-26287D01*
X72762Y-26347D01*
X72735Y-26441D01*
X73043Y-26748D01*
X73351Y-26441D01*
X73351Y-26581D01*
X73114Y-26819D01*
X73421Y-27127D01*
X73515Y-27100D01*
X73540Y-27026D01*
X73571Y-27100D01*
X73665Y-27127D01*
X73972Y-26819D01*
X73972Y-26960D01*
X73735Y-27197D01*
X73762Y-27291D01*
X73827Y-27314D01*
X73732Y-27354D01*
X73578Y-27508D01*
X73543Y-27592D01*
X73508Y-27508D01*
X73354Y-27354D01*
X73262Y-27316D01*
X73324Y-27291D01*
X73351Y-27197D01*
X73043Y-26890D01*
X72972Y-26960D01*
X72972Y-26819D01*
X72665Y-26511D01*
X72571Y-26538D01*
X72500Y-26740D01*
X72511Y-26953D01*
X72571Y-27100D01*
X72665Y-27127D01*
X72972Y-26819D01*
X72972Y-26960D01*
X72735Y-27197D01*
X72762Y-27291D01*
X72827Y-27314D01*
X72732Y-27354D01*
X72578Y-27508D01*
X72494Y-27710D01*
X72494Y-27928D01*
X72578Y-28130D01*
X72732Y-28284D01*
X72816Y-28319D01*
X72732Y-28354D01*
X72578Y-28508D01*
X72494Y-28710D01*
X72494Y-28928D01*
X72578Y-29130D01*
X72732Y-29284D01*
X72816Y-29319D01*
X72732Y-29354D01*
X72578Y-29508D01*
X72494Y-29710D01*
X72494Y-29928D01*
X72578Y-30130D01*
X72732Y-30284D01*
X72816Y-30319D01*
X72732Y-30354D01*
X72578Y-30508D01*
X72494Y-30710D01*
X72494Y-30928D01*
X72502Y-30949D01*
X72165Y-31287D01*
X72076Y-31287D01*
X71726Y-31287D01*
X71634Y-31325D01*
X71575Y-31384D01*
X71516Y-31325D01*
X71424Y-31287D01*
X71312Y-31286D01*
X71250Y-31348D01*
X71250Y-31711D01*
X71250Y-31761D01*
X71250Y-31861D01*
X71250Y-31911D01*
X71250Y-32274D01*
X71312Y-32336D01*
X71424Y-32335D01*
X71516Y-32297D01*
X71575Y-32238D01*
X71634Y-32297D01*
X71725Y-32335D01*
X71824Y-32335D01*
X72174Y-32335D01*
X72266Y-32297D01*
X72336Y-32227D01*
X72374Y-32136D01*
X72374Y-32079D01*
X72379Y-32079D01*
X72473Y-32016D01*
X72536Y-31922D01*
X72558Y-31811D01*
X72558Y-31714D01*
X72912Y-31359D01*
X72934Y-31368D01*
X73152Y-31368D01*
X73309Y-31302D01*
X73309Y-32638D01*
X73331Y-32749D01*
X73365Y-32800D01*
X73257Y-32896D01*
X73192Y-33021D01*
X73241Y-33080D01*
X73522Y-33080D01*
X73572Y-33080D01*
X73630Y-33080D01*
X73672Y-33121D01*
X73672Y-33180D01*
X73572Y-33180D01*
X73522Y-33180D01*
X73241Y-33180D01*
X73192Y-33239D01*
X73257Y-33364D01*
X73319Y-33418D01*
X73233Y-33505D01*
X73174Y-33644D01*
X73174Y-33796D01*
X73232Y-33936D01*
X73312Y-34016D01*
X73233Y-34095D01*
X73174Y-34234D01*
X73174Y-34386D01*
X73232Y-34526D01*
X73271Y-34565D01*
X73214Y-34623D01*
X73176Y-34714D01*
X73176Y-34813D01*
X73176Y-35089D01*
X73214Y-35181D01*
X73284Y-35251D01*
X73375Y-35289D01*
X73474Y-35289D01*
X73612Y-35289D01*
X73592Y-35392D01*
X73592Y-36132D01*
X73425Y-36075D01*
X73221Y-36086D01*
X73084Y-36142D01*
X73061Y-36233D01*
X73316Y-36488D01*
X73351Y-36523D01*
X73422Y-36594D01*
X73351Y-36665D01*
X73316Y-36700D01*
X73061Y-36955D01*
X73084Y-37046D01*
X73277Y-37113D01*
X73481Y-37102D01*
X73592Y-37056D01*
X73592Y-37841D01*
X73476Y-37841D01*
X73426Y-37861D01*
X73378Y-37841D01*
X73378Y-37457D01*
X72765Y-37457D01*
X72765Y-37802D01*
X72531Y-37802D01*
X72442Y-37838D01*
X72354Y-37802D01*
X72328Y-37802D01*
X72328Y-37735D01*
X72329Y-37671D01*
X72329Y-37447D01*
X72328Y-37383D01*
X72328Y-37284D01*
X72290Y-37193D01*
X72220Y-37123D01*
X72128Y-37085D01*
X72066Y-37084D01*
X72004Y-37146D01*
X72004Y-37509D01*
X72267Y-37509D01*
X72329Y-37447D01*
X72329Y-37671D01*
X72267Y-37609D01*
X72054Y-37609D01*
X72004Y-37609D01*
X71904Y-37609D01*
X71904Y-37509D01*
X71904Y-37459D01*
X71904Y-37146D01*
X71842Y-37084D01*
X71780Y-37085D01*
X71688Y-37123D01*
X71654Y-37157D01*
X71644Y-37147D01*
X71644Y-37040D01*
X71648Y-37039D01*
X71796Y-36892D01*
X71851Y-36758D01*
X71906Y-36891D01*
X72053Y-37039D01*
X72246Y-37119D01*
X72455Y-37119D01*
X72648Y-37039D01*
X72796Y-36892D01*
X72854Y-36751D01*
X72899Y-36861D01*
X72990Y-36884D01*
X73280Y-36594D01*
X72990Y-36304D01*
X72899Y-36327D01*
X72857Y-36445D01*
X72796Y-36297D01*
X72649Y-36149D01*
X72641Y-36145D01*
X72641Y-33883D01*
X72640Y-33882D01*
X72619Y-33772D01*
X72618Y-33771D01*
X72597Y-33740D01*
X72556Y-33678D01*
X72556Y-33677D01*
X72098Y-33220D01*
X72004Y-33157D01*
X72004Y-33021D01*
X71939Y-32896D01*
X71826Y-32797D01*
X71684Y-32748D01*
X71624Y-32807D01*
X71624Y-33080D01*
X71955Y-33080D01*
X72004Y-33021D01*
X72004Y-33157D01*
X71893Y-33135D01*
X71524Y-33135D01*
X71524Y-33080D01*
X71524Y-32807D01*
X71464Y-32748D01*
X71322Y-32797D01*
X71209Y-32896D01*
X71150Y-33009D01*
X71150Y-32274D01*
X71150Y-31861D01*
X71150Y-31761D01*
X71150Y-31348D01*
X71088Y-31286D01*
X70976Y-31287D01*
X70884Y-31325D01*
X70814Y-31395D01*
X70776Y-31486D01*
X70776Y-31585D01*
X70775Y-31699D01*
X70837Y-31761D01*
X71150Y-31761D01*
X71150Y-31861D01*
X70837Y-31861D01*
X70775Y-31923D01*
X70776Y-32037D01*
X70776Y-32136D01*
X70814Y-32227D01*
X70884Y-32297D01*
X70976Y-32335D01*
X71088Y-32336D01*
X71150Y-32274D01*
X71150Y-33009D01*
X71144Y-33021D01*
X71193Y-33080D01*
X71524Y-33080D01*
X71524Y-33135D01*
X70897Y-33135D01*
X68502Y-30740D01*
X68408Y-30677D01*
X68403Y-30676D01*
X68403Y-30596D01*
X68365Y-30504D01*
X68295Y-30434D01*
X68204Y-30396D01*
X68105Y-30396D01*
X67700Y-30396D01*
X67700Y-30165D01*
X70479Y-27385D01*
X70528Y-27502D01*
X70705Y-27680D01*
X70937Y-27776D01*
X71188Y-27776D01*
X71420Y-27680D01*
X71598Y-27503D01*
X71694Y-27271D01*
X71694Y-27020D01*
X71694Y-26588D01*
X71598Y-26356D01*
X71421Y-26178D01*
X71189Y-26082D01*
X70938Y-26082D01*
X70706Y-26178D01*
X70528Y-26355D01*
X70432Y-26587D01*
X70432Y-26657D01*
X70414Y-26661D01*
X70320Y-26724D01*
X69688Y-27355D01*
X69738Y-27179D01*
X69738Y-26979D01*
X69738Y-26879D01*
X69738Y-26679D01*
X69670Y-26437D01*
X69514Y-26239D01*
X69295Y-26116D01*
X69245Y-26104D01*
X69145Y-26151D01*
X69145Y-26879D01*
X69738Y-26879D01*
X69738Y-26979D01*
X69145Y-26979D01*
X69145Y-27707D01*
X69245Y-27754D01*
X69295Y-27742D01*
X69311Y-27732D01*
X69045Y-27998D01*
X69045Y-27707D01*
X69045Y-26979D01*
X69045Y-26879D01*
X69045Y-26151D01*
X68945Y-26104D01*
X68895Y-26116D01*
X68676Y-26239D01*
X68520Y-26437D01*
X68452Y-26679D01*
X68452Y-26879D01*
X69045Y-26879D01*
X69045Y-26979D01*
X68452Y-26979D01*
X68452Y-27179D01*
X68520Y-27421D01*
X68676Y-27619D01*
X68895Y-27742D01*
X68945Y-27754D01*
X69045Y-27707D01*
X69045Y-27998D01*
X67205Y-29840D01*
X67142Y-29934D01*
X67120Y-30045D01*
X67120Y-30461D01*
X66963Y-30396D01*
X66745Y-30396D01*
X66672Y-30426D01*
X66672Y-29987D01*
X67961Y-28698D01*
X68024Y-28604D01*
X68046Y-28493D01*
X68046Y-26582D01*
X68024Y-26471D01*
X67961Y-26377D01*
X67571Y-25987D01*
X67477Y-25924D01*
X67366Y-25902D01*
X64463Y-25902D01*
X64352Y-25924D01*
X64258Y-25987D01*
X63772Y-26472D01*
X63724Y-26356D01*
X63547Y-26178D01*
X63315Y-26082D01*
X63064Y-26082D01*
X62832Y-26178D01*
X62654Y-26355D01*
X62558Y-26587D01*
X62558Y-26838D01*
X62558Y-27270D01*
X62654Y-27502D01*
X62831Y-27680D01*
X63063Y-27776D01*
X63314Y-27776D01*
X63546Y-27680D01*
X63724Y-27503D01*
X63820Y-27271D01*
X63820Y-27200D01*
X63837Y-27197D01*
X63931Y-27134D01*
X64564Y-26500D01*
X64514Y-26680D01*
X64514Y-26880D01*
X65057Y-26880D01*
X65107Y-26880D01*
X65207Y-26880D01*
X65257Y-26880D01*
X65800Y-26880D01*
X65800Y-26680D01*
X65744Y-26482D01*
X66537Y-26482D01*
X66494Y-26588D01*
X66494Y-26658D01*
X66477Y-26662D01*
X66383Y-26725D01*
X65749Y-27358D01*
X65800Y-27180D01*
X65800Y-26980D01*
X65207Y-26980D01*
X65207Y-27708D01*
X65307Y-27755D01*
X65357Y-27743D01*
X65375Y-27732D01*
X65146Y-27962D01*
X65107Y-28020D01*
X65107Y-27708D01*
X65107Y-26980D01*
X64514Y-26980D01*
X64514Y-27180D01*
X64582Y-27422D01*
X64738Y-27620D01*
X64957Y-27743D01*
X65007Y-27755D01*
X65107Y-27708D01*
X65107Y-28020D01*
X65083Y-28056D01*
X65061Y-28167D01*
X65061Y-30436D01*
X64963Y-30396D01*
X64745Y-30396D01*
X64543Y-30480D01*
X64389Y-30634D01*
X64354Y-30718D01*
X64319Y-30634D01*
X64165Y-30480D01*
X63963Y-30396D01*
X63745Y-30396D01*
X63543Y-30480D01*
X63389Y-30634D01*
X63351Y-30725D01*
X63326Y-30664D01*
X63232Y-30637D01*
X63162Y-30707D01*
X63162Y-30567D01*
X63135Y-30473D01*
X62933Y-30402D01*
X62720Y-30413D01*
X62573Y-30473D01*
X62546Y-30567D01*
X62854Y-30874D01*
X63162Y-30567D01*
X63162Y-30707D01*
X62925Y-30945D01*
X63232Y-31253D01*
X63326Y-31226D01*
X63349Y-31160D01*
X63389Y-31256D01*
X63543Y-31410D01*
X63564Y-31418D01*
X63564Y-31566D01*
X63162Y-31967D01*
X63162Y-31323D01*
X62854Y-31016D01*
X62783Y-31086D01*
X62783Y-30945D01*
X62476Y-30637D01*
X62382Y-30664D01*
X62311Y-30866D01*
X62322Y-31079D01*
X62382Y-31226D01*
X62476Y-31253D01*
X62783Y-30945D01*
X62783Y-31086D01*
X62546Y-31323D01*
X62573Y-31417D01*
X62775Y-31488D01*
X62988Y-31477D01*
X63135Y-31417D01*
X63162Y-31323D01*
X63162Y-31967D01*
X61864Y-33265D01*
X61864Y-27179D01*
X61864Y-26979D01*
X61864Y-26879D01*
X61864Y-26679D01*
X61796Y-26437D01*
X61640Y-26239D01*
X61421Y-26116D01*
X61371Y-26104D01*
X61271Y-26151D01*
X61271Y-26879D01*
X61864Y-26879D01*
X61864Y-26979D01*
X61271Y-26979D01*
X61271Y-27707D01*
X61371Y-27754D01*
X61421Y-27742D01*
X61640Y-27619D01*
X61796Y-27421D01*
X61864Y-27179D01*
X61864Y-33265D01*
X61355Y-33774D01*
X61355Y-33186D01*
X61355Y-32996D01*
X61283Y-32821D01*
X61149Y-32686D01*
X60974Y-32613D01*
X60784Y-32613D01*
X60446Y-32613D01*
X60271Y-32685D01*
X60136Y-32819D01*
X60063Y-32994D01*
X60063Y-33184D01*
X60135Y-33359D01*
X60269Y-33494D01*
X60444Y-33567D01*
X60634Y-33567D01*
X60972Y-33567D01*
X61147Y-33495D01*
X61282Y-33361D01*
X61355Y-33186D01*
X61355Y-33774D01*
X61284Y-33845D01*
X61229Y-33750D01*
X61078Y-33636D01*
X60894Y-33588D01*
X60759Y-33588D01*
X60759Y-33974D01*
X60759Y-34024D01*
X60759Y-34124D01*
X60659Y-34124D01*
X60659Y-34024D01*
X60659Y-33588D01*
X60524Y-33588D01*
X60340Y-33636D01*
X60189Y-33750D01*
X60093Y-33914D01*
X60083Y-33949D01*
X60131Y-34024D01*
X60659Y-34024D01*
X60659Y-34124D01*
X60609Y-34124D01*
X60131Y-34124D01*
X60083Y-34199D01*
X60093Y-34234D01*
X60189Y-34398D01*
X60340Y-34512D01*
X60524Y-34560D01*
X60570Y-34560D01*
X60028Y-35102D01*
X60028Y-32660D01*
X60223Y-32464D01*
X60269Y-32510D01*
X60444Y-32583D01*
X60634Y-32583D01*
X60972Y-32583D01*
X61147Y-32511D01*
X61282Y-32377D01*
X61355Y-32202D01*
X61355Y-32012D01*
X61352Y-32004D01*
X61352Y-31408D01*
X61352Y-31309D01*
X61352Y-30837D01*
X61314Y-30745D01*
X61244Y-30675D01*
X61171Y-30644D01*
X61171Y-27707D01*
X61171Y-26979D01*
X61171Y-26879D01*
X61171Y-26151D01*
X61071Y-26104D01*
X61021Y-26116D01*
X60802Y-26239D01*
X60646Y-26437D01*
X60578Y-26679D01*
X60578Y-26879D01*
X61171Y-26879D01*
X61171Y-26979D01*
X60578Y-26979D01*
X60578Y-27179D01*
X60646Y-27421D01*
X60802Y-27619D01*
X61021Y-27742D01*
X61071Y-27754D01*
X61171Y-27707D01*
X61171Y-30644D01*
X61153Y-30637D01*
X61054Y-30637D01*
X60266Y-30637D01*
X60174Y-30675D01*
X60104Y-30745D01*
X60066Y-30836D01*
X60066Y-30935D01*
X60066Y-31407D01*
X60104Y-31499D01*
X60174Y-31569D01*
X60265Y-31607D01*
X60364Y-31607D01*
X61152Y-31607D01*
X61244Y-31569D01*
X61314Y-31499D01*
X61352Y-31408D01*
X61352Y-32004D01*
X61283Y-31837D01*
X61149Y-31702D01*
X60974Y-31629D01*
X60784Y-31629D01*
X60446Y-31629D01*
X60271Y-31701D01*
X60150Y-31820D01*
X60061Y-31838D01*
X60029Y-31859D01*
X59966Y-31901D01*
X59533Y-32335D01*
X59470Y-32429D01*
X59448Y-32540D01*
X59448Y-42897D01*
X59470Y-43008D01*
X59533Y-43102D01*
X59555Y-43124D01*
X59649Y-43187D01*
X59760Y-43209D01*
X62584Y-43209D01*
X62695Y-43187D01*
X62789Y-43124D01*
X63004Y-42908D01*
X63044Y-42948D01*
X63075Y-42916D01*
X63084Y-42952D01*
X63277Y-43019D01*
X63481Y-43008D01*
X63618Y-42952D01*
X63641Y-42861D01*
X63386Y-42606D01*
X63351Y-42571D01*
X63280Y-42500D01*
X63351Y-42429D01*
X63386Y-42394D01*
X63641Y-42139D01*
X63618Y-42048D01*
X63540Y-42020D01*
X63979Y-41582D01*
X65069Y-41582D01*
X65180Y-41560D01*
X65274Y-41497D01*
X65948Y-40823D01*
X66792Y-41667D01*
X66677Y-41715D01*
X66557Y-41835D01*
X66492Y-41990D01*
X66456Y-41975D01*
X66247Y-41975D01*
X66054Y-42055D01*
X65906Y-42202D01*
X65850Y-42335D01*
X65796Y-42203D01*
X65649Y-42055D01*
X65456Y-41975D01*
X65247Y-41975D01*
X65054Y-42055D01*
X64906Y-42202D01*
X64850Y-42335D01*
X64796Y-42203D01*
X64649Y-42055D01*
X64456Y-41975D01*
X64247Y-41975D01*
X64054Y-42055D01*
X63906Y-42202D01*
X63847Y-42342D01*
X63803Y-42233D01*
X63712Y-42210D01*
X63422Y-42500D01*
X63712Y-42790D01*
X63803Y-42767D01*
X63844Y-42648D01*
X63906Y-42797D01*
X64053Y-42945D01*
X64246Y-43025D01*
X64455Y-43025D01*
X64462Y-43021D01*
X67061Y-45620D01*
X67155Y-45683D01*
X67266Y-45705D01*
X68643Y-45705D01*
X68591Y-45854D01*
X68602Y-46067D01*
X68662Y-46214D01*
X68756Y-46241D01*
X69028Y-45968D01*
X69063Y-45933D01*
X69134Y-45862D01*
X69205Y-45933D01*
X69240Y-45968D01*
X69512Y-46241D01*
X69606Y-46214D01*
X69677Y-46012D01*
X69666Y-45799D01*
X69627Y-45705D01*
X71423Y-45705D01*
X71534Y-45683D01*
X71628Y-45620D01*
X74122Y-43126D01*
X74185Y-43032D01*
X74190Y-43002D01*
X74246Y-43025D01*
X74455Y-43025D01*
X74648Y-42945D01*
X74796Y-42798D01*
X74876Y-42605D01*
X74876Y-42396D01*
X74872Y-42388D01*
X75605Y-41656D01*
X75668Y-41562D01*
X75690Y-41451D01*
X75690Y-47164D01*
X75684Y-47194D01*
X75684Y-47022D01*
X75574Y-46757D01*
X75371Y-46553D01*
X75106Y-46443D01*
X74819Y-46443D01*
X74554Y-46553D01*
X74388Y-46718D01*
X74388Y-44381D01*
X74388Y-44172D01*
X74308Y-43979D01*
X74161Y-43831D01*
X73968Y-43751D01*
X73759Y-43751D01*
X73566Y-43831D01*
X73418Y-43978D01*
X73338Y-44171D01*
X73338Y-44380D01*
X73418Y-44573D01*
X73565Y-44721D01*
X73758Y-44801D01*
X73967Y-44801D01*
X74160Y-44721D01*
X74308Y-44574D01*
X74388Y-44381D01*
X74388Y-46718D01*
X74382Y-46724D01*
X74382Y-46350D01*
X74371Y-46146D01*
X74315Y-46009D01*
X74224Y-45986D01*
X74153Y-46057D01*
X74153Y-45915D01*
X74130Y-45824D01*
X73937Y-45757D01*
X73733Y-45768D01*
X73596Y-45824D01*
X73573Y-45915D01*
X73863Y-46205D01*
X74153Y-45915D01*
X74153Y-46057D01*
X73934Y-46276D01*
X74224Y-46566D01*
X74315Y-46543D01*
X74382Y-46350D01*
X74382Y-46724D01*
X74350Y-46756D01*
X74240Y-47021D01*
X74240Y-47308D01*
X74350Y-47573D01*
X74553Y-47777D01*
X74818Y-47887D01*
X74994Y-47887D01*
X74929Y-47900D01*
X74153Y-47900D01*
X74153Y-46637D01*
X73863Y-46347D01*
X73792Y-46418D01*
X73792Y-46276D01*
X73502Y-45986D01*
X73411Y-46009D01*
X73344Y-46202D01*
X73355Y-46406D01*
X73411Y-46543D01*
X73502Y-46566D01*
X73792Y-46276D01*
X73792Y-46418D01*
X73573Y-46637D01*
X73596Y-46728D01*
X73789Y-46795D01*
X73993Y-46784D01*
X74130Y-46728D01*
X74153Y-46637D01*
X74153Y-47900D01*
X71382Y-47900D01*
X71382Y-46350D01*
X71371Y-46146D01*
X71315Y-46009D01*
X71224Y-45986D01*
X71153Y-46057D01*
X71153Y-45915D01*
X71130Y-45824D01*
X70937Y-45757D01*
X70733Y-45768D01*
X70596Y-45824D01*
X70573Y-45915D01*
X70863Y-46205D01*
X71153Y-45915D01*
X71153Y-46057D01*
X70934Y-46276D01*
X71224Y-46566D01*
X71315Y-46543D01*
X71382Y-46350D01*
X71382Y-47900D01*
X71153Y-47900D01*
X71153Y-46637D01*
X70863Y-46347D01*
X70792Y-46418D01*
X70792Y-46276D01*
X70502Y-45986D01*
X70411Y-46009D01*
X70344Y-46202D01*
X70355Y-46406D01*
X70411Y-46543D01*
X70502Y-46566D01*
X70792Y-46276D01*
X70792Y-46418D01*
X70573Y-46637D01*
X70596Y-46728D01*
X70789Y-46795D01*
X70993Y-46784D01*
X71130Y-46728D01*
X71153Y-46637D01*
X71153Y-47900D01*
X69677Y-47900D01*
X69677Y-47012D01*
X69666Y-46799D01*
X69606Y-46652D01*
X69512Y-46625D01*
X69442Y-46695D01*
X69442Y-46555D01*
X69415Y-46461D01*
X69341Y-46435D01*
X69415Y-46405D01*
X69442Y-46311D01*
X69134Y-46004D01*
X68826Y-46311D01*
X68853Y-46405D01*
X68926Y-46430D01*
X68853Y-46461D01*
X68826Y-46555D01*
X69134Y-46862D01*
X69442Y-46555D01*
X69442Y-46695D01*
X69205Y-46933D01*
X69512Y-47241D01*
X69606Y-47214D01*
X69677Y-47012D01*
X69677Y-47900D01*
X69442Y-47900D01*
X69442Y-47311D01*
X69134Y-47004D01*
X69063Y-47074D01*
X69063Y-46933D01*
X68756Y-46625D01*
X68662Y-46652D01*
X68591Y-46854D01*
X68602Y-47067D01*
X68662Y-47214D01*
X68756Y-47241D01*
X69063Y-46933D01*
X69063Y-47074D01*
X68826Y-47311D01*
X68853Y-47405D01*
X69055Y-47476D01*
X69268Y-47465D01*
X69415Y-47405D01*
X69442Y-47311D01*
X69442Y-47900D01*
X67925Y-47900D01*
X67925Y-46350D01*
X67914Y-46146D01*
X67858Y-46009D01*
X67767Y-45986D01*
X67696Y-46057D01*
X67696Y-45915D01*
X67673Y-45824D01*
X67480Y-45757D01*
X67276Y-45768D01*
X67139Y-45824D01*
X67116Y-45915D01*
X67406Y-46205D01*
X67696Y-45915D01*
X67696Y-46057D01*
X67477Y-46276D01*
X67767Y-46566D01*
X67858Y-46543D01*
X67925Y-46350D01*
X67925Y-47900D01*
X67696Y-47900D01*
X67696Y-46637D01*
X67406Y-46347D01*
X67335Y-46418D01*
X67335Y-46276D01*
X67045Y-45986D01*
X66954Y-46009D01*
X66887Y-46202D01*
X66898Y-46406D01*
X66954Y-46543D01*
X67045Y-46566D01*
X67335Y-46276D01*
X67335Y-46418D01*
X67116Y-46637D01*
X67139Y-46728D01*
X67332Y-46795D01*
X67536Y-46784D01*
X67673Y-46728D01*
X67696Y-46637D01*
X67696Y-47900D01*
X64931Y-47900D01*
X64931Y-44381D01*
X64931Y-44172D01*
X64851Y-43979D01*
X64704Y-43831D01*
X64511Y-43751D01*
X64302Y-43751D01*
X64109Y-43831D01*
X63961Y-43978D01*
X63881Y-44171D01*
X63881Y-44380D01*
X63961Y-44573D01*
X64108Y-44721D01*
X64301Y-44801D01*
X64510Y-44801D01*
X64703Y-44721D01*
X64851Y-44574D01*
X64931Y-44381D01*
X64931Y-47900D01*
X64925Y-47900D01*
X64925Y-46350D01*
X64914Y-46146D01*
X64858Y-46009D01*
X64767Y-45986D01*
X64696Y-46057D01*
X64696Y-45915D01*
X64673Y-45824D01*
X64480Y-45757D01*
X64276Y-45768D01*
X64139Y-45824D01*
X64116Y-45915D01*
X64406Y-46205D01*
X64696Y-45915D01*
X64696Y-46057D01*
X64477Y-46276D01*
X64767Y-46566D01*
X64858Y-46543D01*
X64925Y-46350D01*
X64925Y-47900D01*
X64696Y-47900D01*
X64696Y-46637D01*
X64406Y-46347D01*
X64335Y-46418D01*
X64335Y-46276D01*
X64045Y-45986D01*
X63954Y-46009D01*
X63887Y-46202D01*
X63898Y-46406D01*
X63954Y-46543D01*
X64045Y-46566D01*
X64335Y-46276D01*
X64335Y-46418D01*
X64116Y-46637D01*
X64139Y-46728D01*
X64332Y-46795D01*
X64536Y-46784D01*
X64673Y-46728D01*
X64696Y-46637D01*
X64696Y-47900D01*
X63975Y-47900D01*
X63975Y-46814D01*
X63837Y-46814D01*
X63837Y-44381D01*
X63837Y-44172D01*
X63757Y-43979D01*
X63641Y-43862D01*
X63610Y-43831D01*
X63417Y-43751D01*
X63208Y-43751D01*
X63015Y-43831D01*
X62867Y-43978D01*
X62787Y-44171D01*
X62787Y-44380D01*
X62867Y-44573D01*
X63014Y-44721D01*
X63207Y-44801D01*
X63416Y-44801D01*
X63609Y-44721D01*
X63757Y-44574D01*
X63837Y-44381D01*
X63837Y-46814D01*
X63831Y-46814D01*
X63831Y-46350D01*
X63820Y-46146D01*
X63764Y-46009D01*
X63673Y-45986D01*
X63602Y-46057D01*
X63602Y-45915D01*
X63579Y-45824D01*
X63386Y-45757D01*
X63182Y-45768D01*
X63045Y-45824D01*
X63022Y-45915D01*
X63312Y-46205D01*
X63602Y-45915D01*
X63602Y-46057D01*
X63383Y-46276D01*
X63673Y-46566D01*
X63764Y-46543D01*
X63831Y-46350D01*
X63831Y-46814D01*
X63602Y-46814D01*
X63602Y-46637D01*
X63312Y-46347D01*
X63241Y-46418D01*
X63241Y-46276D01*
X62951Y-45986D01*
X62860Y-46009D01*
X62793Y-46202D01*
X62804Y-46406D01*
X62860Y-46543D01*
X62951Y-46566D01*
X63241Y-46276D01*
X63241Y-46418D01*
X63022Y-46637D01*
X63045Y-46728D01*
X63238Y-46795D01*
X63442Y-46784D01*
X63579Y-46728D01*
X63602Y-46637D01*
X63602Y-46814D01*
X60907Y-46814D01*
X60907Y-47900D01*
X60837Y-47900D01*
X60837Y-44381D01*
X60837Y-44172D01*
X60757Y-43979D01*
X60610Y-43831D01*
X60417Y-43751D01*
X60208Y-43751D01*
X60015Y-43831D01*
X59867Y-43978D01*
X59787Y-44171D01*
X59787Y-44380D01*
X59867Y-44573D01*
X60014Y-44721D01*
X60207Y-44801D01*
X60416Y-44801D01*
X60609Y-44721D01*
X60757Y-44574D01*
X60837Y-44381D01*
X60837Y-47900D01*
X60831Y-47900D01*
X60831Y-46350D01*
X60820Y-46146D01*
X60764Y-46009D01*
X60673Y-45986D01*
X60602Y-46057D01*
X60602Y-45915D01*
X60579Y-45824D01*
X60386Y-45757D01*
X60182Y-45768D01*
X60045Y-45824D01*
X60022Y-45915D01*
X60312Y-46205D01*
X60602Y-45915D01*
X60602Y-46057D01*
X60383Y-46276D01*
X60673Y-46566D01*
X60764Y-46543D01*
X60831Y-46350D01*
X60831Y-47900D01*
X60602Y-47900D01*
X60602Y-46637D01*
X60312Y-46347D01*
X60241Y-46418D01*
X60241Y-46276D01*
X59951Y-45986D01*
X59860Y-46009D01*
X59793Y-46202D01*
X59804Y-46406D01*
X59860Y-46543D01*
X59951Y-46566D01*
X60241Y-46276D01*
X60241Y-46418D01*
X60022Y-46637D01*
X60045Y-46728D01*
X60238Y-46795D01*
X60442Y-46784D01*
X60579Y-46728D01*
X60602Y-46637D01*
X60602Y-47900D01*
X59238Y-47900D01*
X59173Y-47887D01*
X59357Y-47887D01*
X59622Y-47777D01*
X59826Y-47574D01*
X59936Y-47309D01*
X59936Y-47022D01*
X59826Y-46757D01*
X59623Y-46553D01*
X59358Y-46443D01*
X59071Y-46443D01*
X58806Y-46553D01*
X58602Y-46756D01*
X58492Y-47021D01*
X58492Y-47207D01*
X58478Y-47137D01*
X58478Y-25591D01*
X58478Y-25539D01*
X58491Y-25474D01*
X58491Y-25655D01*
X58601Y-25920D01*
X58804Y-26124D01*
X59069Y-26234D01*
X59356Y-26234D01*
X59621Y-26124D01*
X59825Y-25921D01*
X59935Y-25656D01*
X59935Y-25369D01*
X59825Y-25104D01*
X59622Y-24900D01*
X59357Y-24790D01*
X59173Y-24790D01*
X59238Y-24777D01*
X74933Y-24777D01*
X74998Y-24790D01*
X74818Y-24790D01*
X74553Y-24900D01*
X74349Y-25103D01*
X74239Y-25368D01*
X74239Y-25655D01*
X74349Y-25920D01*
X74552Y-26124D01*
X74817Y-26234D01*
X75104Y-26234D01*
X75369Y-26124D01*
X75573Y-25921D01*
X75683Y-25656D01*
X75683Y-25472D01*
X75695Y-25532D01*
X75695Y-25591D01*
X75695Y-47139D01*
M02*
