G04 (created by PCBNEW-RS274X (2012-apr-16-27)-stable) date Mon 12 May 2014 12:41:31 BST*
G01*
G70*
G90*
%MOIN*%
G04 Gerber Fmt 3.4, Leading zero omitted, Abs format*
%FSLAX34Y34*%
G04 APERTURE LIST*
%ADD10C,0.006000*%
%ADD11C,0.007900*%
G04 APERTURE END LIST*
G54D10*
G54D11*
X74961Y-24488D02*
X59213Y-24488D01*
X75984Y-25591D02*
X75984Y-25512D01*
X75985Y-25512D02*
X75981Y-25423D01*
X75969Y-25335D01*
X75950Y-25247D01*
X75923Y-25162D01*
X75889Y-25080D01*
X75847Y-25001D01*
X75799Y-24925D01*
X75745Y-24854D01*
X75685Y-24788D01*
X75619Y-24728D01*
X75548Y-24674D01*
X75473Y-24626D01*
X75393Y-24584D01*
X75311Y-24550D01*
X75226Y-24523D01*
X75138Y-24504D01*
X75050Y-24492D01*
X74961Y-24488D01*
X58189Y-25591D02*
X58189Y-25512D01*
X59213Y-24488D02*
X59124Y-24492D01*
X59036Y-24504D01*
X58948Y-24523D01*
X58863Y-24550D01*
X58781Y-24584D01*
X58702Y-24626D01*
X58626Y-24674D01*
X58555Y-24728D01*
X58489Y-24788D01*
X58429Y-24854D01*
X58375Y-24925D01*
X58327Y-25001D01*
X58285Y-25080D01*
X58251Y-25162D01*
X58224Y-25247D01*
X58205Y-25335D01*
X58193Y-25423D01*
X58189Y-25512D01*
X58189Y-25591D02*
X58189Y-47165D01*
X75984Y-47165D02*
X75984Y-25591D01*
X59213Y-48189D02*
X74961Y-48189D01*
X58189Y-47165D02*
X58193Y-47254D01*
X58205Y-47342D01*
X58224Y-47430D01*
X58251Y-47515D01*
X58285Y-47597D01*
X58327Y-47676D01*
X58375Y-47752D01*
X58429Y-47823D01*
X58489Y-47889D01*
X58555Y-47949D01*
X58626Y-48003D01*
X58702Y-48051D01*
X58781Y-48093D01*
X58863Y-48127D01*
X58948Y-48154D01*
X59036Y-48173D01*
X59124Y-48185D01*
X59213Y-48189D01*
X74961Y-48188D02*
X75050Y-48184D01*
X75138Y-48172D01*
X75225Y-48153D01*
X75310Y-48126D01*
X75393Y-48092D01*
X75472Y-48050D01*
X75547Y-48002D01*
X75618Y-47948D01*
X75684Y-47888D01*
X75744Y-47822D01*
X75798Y-47751D01*
X75846Y-47676D01*
X75888Y-47597D01*
X75922Y-47514D01*
X75949Y-47429D01*
X75968Y-47342D01*
X75980Y-47254D01*
X75984Y-47165D01*
M02*
