M48
INCH,TZ
T1C0.020
T2C0.024
T3C0.032
T4C0.032
T5C0.035
T6C0.039
T7C0.040
T8C0.059
T9C0.079
%
G90
G05
T1
X39193Y-30197
X39193Y-33189
X39705Y-30197
X39705Y-33189
X40217Y-30197
X40217Y-33189
T2
X31614Y-30276
X31614Y-33189
X32205Y-30276
X32205Y-33189
X32795Y-30276
X32795Y-33189
X33386Y-30276
X33386Y-33189
T3
X27697Y-26850
X28485Y-26850
T4
X27673Y-28740
X27673Y-34741
X28673Y-28740
X28673Y-34741
X29673Y-28740
X29673Y-34741
X30673Y-28740
X30673Y-34741
X31673Y-28740
X31673Y-34741
X32673Y-28740
X32673Y-34741
X33673Y-28740
X33673Y-34741
X34673Y-28740
X34673Y-34741
X35673Y-28740
X35673Y-34741
X36673Y-28740
X36673Y-34741
X37673Y-28740
X37673Y-34741
X38673Y-28740
X38673Y-34741
X39673Y-28740
X39673Y-34741
X40673Y-28740
X40673Y-34741
X41673Y-28740
X41673Y-34741
T5
X28602Y-30217
X28602Y-31201
X28602Y-32185
X28602Y-33169
T6
X28598Y-36165
X28598Y-38165
X31598Y-36165
X31598Y-38165
X33323Y-36165
X33323Y-38165
X36323Y-36165
X36323Y-38165
T7
X36043Y-30193
X36043Y-31193
X36043Y-32193
X36043Y-33193
X41685Y-23157
X41685Y-24157
X41685Y-25157
X41685Y-26157
X41685Y-27157
X42685Y-23157
X42685Y-24157
X42685Y-25157
X42685Y-26157
X42685Y-27157
T8
X29509Y-23287
X31477Y-23287
X33444Y-23288
X35412Y-23288
X37383Y-23287
X39351Y-23287
T9
X26949Y-21535
X26949Y-39252
X42697Y-21535
X42697Y-39252
T0
M30
