G04 (created by PCBNEW-RS274X (2012-apr-16-27)-stable) date Mon 12 May 2014 12:41:31 BST*
G01*
G70*
G90*
%MOIN*%
G04 Gerber Fmt 3.4, Leading zero omitted, Abs format*
%FSLAX34Y34*%
G04 APERTURE LIST*
%ADD10C,0.006000*%
%ADD11C,0.055000*%
%ADD12R,0.060000X0.060000*%
%ADD13C,0.060000*%
%ADD14O,0.039400X0.027600*%
%ADD15R,0.039400X0.027600*%
%ADD16O,0.027600X0.039400*%
%ADD17R,0.027600X0.039400*%
%ADD18R,0.055000X0.055000*%
%ADD19C,0.094500*%
%ADD20O,0.078700X0.047200*%
%ADD21R,0.078800X0.047200*%
%ADD22O,0.078700X0.118700*%
%ADD23C,0.035000*%
%ADD24C,0.008000*%
%ADD25C,0.010000*%
G04 APERTURE END LIST*
G54D10*
G54D11*
X73863Y-44276D03*
X73863Y-46276D03*
X70863Y-44276D03*
X70863Y-46276D03*
X67406Y-44276D03*
X67406Y-46276D03*
X64406Y-44276D03*
X64406Y-46276D03*
X63312Y-44276D03*
X63312Y-46276D03*
X60312Y-44276D03*
X60312Y-46276D03*
G54D12*
X69134Y-43933D03*
G54D13*
X69134Y-44933D03*
X69134Y-45933D03*
X69134Y-46933D03*
G54D12*
X67854Y-30945D03*
G54D13*
X66854Y-30945D03*
X65854Y-30945D03*
X64854Y-30945D03*
X63854Y-30945D03*
X62854Y-30945D03*
G54D14*
X71574Y-33130D03*
G54D15*
X71574Y-34902D03*
G54D14*
X71574Y-33721D03*
X71574Y-34311D03*
X71574Y-34311D03*
X71574Y-33721D03*
G54D15*
X71574Y-34902D03*
G54D14*
X71574Y-33130D03*
X73622Y-33130D03*
G54D15*
X73622Y-34902D03*
G54D14*
X73622Y-33721D03*
X73622Y-34311D03*
X73622Y-34311D03*
X73622Y-33721D03*
G54D15*
X73622Y-34902D03*
G54D14*
X73622Y-33130D03*
G54D16*
X67481Y-34882D03*
X66969Y-34882D03*
G54D17*
X67993Y-34882D03*
G54D16*
X67481Y-33071D03*
X66969Y-33071D03*
G54D17*
X67993Y-33071D03*
G54D18*
X63701Y-33594D03*
G54D11*
X63701Y-34594D03*
X74351Y-42500D03*
X73351Y-36594D03*
X72351Y-36594D03*
X71351Y-36594D03*
X70351Y-36594D03*
X69351Y-36594D03*
X68351Y-36594D03*
X67351Y-36594D03*
X66351Y-36594D03*
X65351Y-36594D03*
X64351Y-36594D03*
X63351Y-36594D03*
X62351Y-36594D03*
X61351Y-36594D03*
X60351Y-36594D03*
G54D18*
X60351Y-42500D03*
G54D11*
X61351Y-42500D03*
X62351Y-42500D03*
X63351Y-42500D03*
X64351Y-42500D03*
X65351Y-42500D03*
X66351Y-42500D03*
X67351Y-42500D03*
X68351Y-42500D03*
X69351Y-42500D03*
X70351Y-42500D03*
X71351Y-42500D03*
X72351Y-42500D03*
X73351Y-42500D03*
X74351Y-36594D03*
G54D12*
X74043Y-30819D03*
G54D13*
X73043Y-30819D03*
X74043Y-29819D03*
X73043Y-29819D03*
X74043Y-28819D03*
X73043Y-28819D03*
X74043Y-27819D03*
X73043Y-27819D03*
X74043Y-26819D03*
X73043Y-26819D03*
G54D19*
X74962Y-47165D03*
X59213Y-25512D03*
X74961Y-25512D03*
X59214Y-47165D03*
G54D20*
X60709Y-32106D03*
X60709Y-33090D03*
G54D21*
X60709Y-31122D03*
G54D20*
X60709Y-34074D03*
G54D22*
X63189Y-26929D03*
X61221Y-26929D03*
X67125Y-26930D03*
X65157Y-26930D03*
X71063Y-26929D03*
X69095Y-26929D03*
G54D23*
X65919Y-37551D03*
X68316Y-38560D03*
X64786Y-39238D03*
X66917Y-42076D03*
G54D24*
X66600Y-34158D02*
X65647Y-35111D01*
X69704Y-34158D02*
X66600Y-34158D01*
X73043Y-30819D02*
X69704Y-34158D01*
X74043Y-30819D02*
X73600Y-30819D01*
X73043Y-30819D02*
X73600Y-30819D01*
X62834Y-35111D02*
X61351Y-36594D01*
X65647Y-35111D02*
X62834Y-35111D01*
X65223Y-35888D02*
X63057Y-35888D01*
X66705Y-34406D02*
X65223Y-35888D01*
X67517Y-34406D02*
X66705Y-34406D01*
X67993Y-34882D02*
X67517Y-34406D01*
X63057Y-35888D02*
X62351Y-36594D01*
X71574Y-33721D02*
X71914Y-33721D01*
X73622Y-33721D02*
X73282Y-33721D01*
X73282Y-33721D02*
X71914Y-33721D01*
X67481Y-34882D02*
X67481Y-35222D01*
X68785Y-39066D02*
X65351Y-42500D01*
X68785Y-36196D02*
X68785Y-39066D01*
X67811Y-35222D02*
X68785Y-36196D01*
X67481Y-35222D02*
X67811Y-35222D01*
X74382Y-29819D02*
X74043Y-29819D01*
X71351Y-42500D02*
X74776Y-39075D01*
X74776Y-39075D02*
X74776Y-30213D01*
X74776Y-30213D02*
X74382Y-29819D01*
X61599Y-42989D02*
X61917Y-42989D01*
X60312Y-44276D02*
X61599Y-42989D01*
X62025Y-42989D02*
X63312Y-44276D01*
X61917Y-42989D02*
X62025Y-42989D01*
X67055Y-37890D02*
X68351Y-36594D01*
X65600Y-37890D02*
X67055Y-37890D01*
X61917Y-41573D02*
X65600Y-37890D01*
X61917Y-42989D02*
X61917Y-41573D01*
X64748Y-36160D02*
X64770Y-36182D01*
X63193Y-36160D02*
X64748Y-36160D01*
X62785Y-36568D02*
X63193Y-36160D01*
X62785Y-36832D02*
X62785Y-36568D01*
X62604Y-37013D02*
X62785Y-36832D01*
X60172Y-33090D02*
X60172Y-35003D01*
X64770Y-36182D02*
X64770Y-36665D01*
X64770Y-36665D02*
X65656Y-37551D01*
X65656Y-37551D02*
X65919Y-37551D01*
X60709Y-33090D02*
X60172Y-33090D01*
X61118Y-37013D02*
X62604Y-37013D01*
X60770Y-36665D02*
X61118Y-37013D01*
X60770Y-35601D02*
X60770Y-36665D01*
X60172Y-35003D02*
X60770Y-35601D01*
X65464Y-38560D02*
X68316Y-38560D01*
X64786Y-39238D02*
X65464Y-38560D01*
X67668Y-44695D02*
X68677Y-43686D01*
X72351Y-38541D02*
X72351Y-36594D01*
X68851Y-42041D02*
X72351Y-38541D01*
X62351Y-42500D02*
X63970Y-44119D01*
X68677Y-43150D02*
X68851Y-42976D01*
X63992Y-44695D02*
X67668Y-44695D01*
X63970Y-44673D02*
X63992Y-44695D01*
X63970Y-44119D02*
X63970Y-44673D01*
X68851Y-42976D02*
X68851Y-42041D01*
X68677Y-43686D02*
X68677Y-43150D01*
X59805Y-36048D02*
X60351Y-36594D01*
X59805Y-30932D02*
X59805Y-36048D01*
X61436Y-29301D02*
X59805Y-30932D01*
X73561Y-29301D02*
X61436Y-29301D01*
X74043Y-28819D02*
X73561Y-29301D01*
X70851Y-35906D02*
X71574Y-35183D01*
X71574Y-35042D02*
X73142Y-35042D01*
X73142Y-35042D02*
X73282Y-34902D01*
X71574Y-35042D02*
X71574Y-35183D01*
X71574Y-34902D02*
X71574Y-35042D01*
X67351Y-42500D02*
X70851Y-39000D01*
X70851Y-39000D02*
X70851Y-35906D01*
X73622Y-34902D02*
X73282Y-34902D01*
X71574Y-34311D02*
X71574Y-34592D01*
X69851Y-38692D02*
X66351Y-42192D01*
X66351Y-42192D02*
X66351Y-42500D01*
X69851Y-36066D02*
X69851Y-38692D01*
X71325Y-34592D02*
X69851Y-36066D01*
X71574Y-34592D02*
X71325Y-34592D01*
X73622Y-34311D02*
X73282Y-34311D01*
X71574Y-34311D02*
X71914Y-34311D01*
X71914Y-34311D02*
X73282Y-34311D01*
X65851Y-42261D02*
X65851Y-43551D01*
X69351Y-38761D02*
X65851Y-42261D01*
X69351Y-36594D02*
X69351Y-38761D01*
X66681Y-43551D02*
X65851Y-43551D01*
X67406Y-44276D02*
X66681Y-43551D01*
X65131Y-43551D02*
X64406Y-44276D01*
X65851Y-43551D02*
X65131Y-43551D01*
X70351Y-38642D02*
X66917Y-42076D01*
X73863Y-44276D02*
X70863Y-44276D01*
X70351Y-36594D02*
X70351Y-38642D01*
X69006Y-45061D02*
X69134Y-44933D01*
X59889Y-45061D02*
X69006Y-45061D01*
X59685Y-44857D02*
X59889Y-45061D01*
X59685Y-40260D02*
X59685Y-44857D01*
X63351Y-36594D02*
X59685Y-40260D01*
X59888Y-41057D02*
X59888Y-44532D01*
X60234Y-44878D02*
X67746Y-44878D01*
X59888Y-44532D02*
X60234Y-44878D01*
X67746Y-44878D02*
X68691Y-43933D01*
X64351Y-36594D02*
X59888Y-41057D01*
X69134Y-43933D02*
X68691Y-43933D01*
X69134Y-45933D02*
X69134Y-46276D01*
X69134Y-46276D02*
X69134Y-46933D01*
X69134Y-45933D02*
X70306Y-45933D01*
X70306Y-45933D02*
X70520Y-45933D01*
X70520Y-45933D02*
X70863Y-46276D01*
X73351Y-36594D02*
X73351Y-39848D01*
X73351Y-39848D02*
X70932Y-42267D01*
X70932Y-42267D02*
X70932Y-42571D01*
X70932Y-42571D02*
X70306Y-43197D01*
X70306Y-43197D02*
X70306Y-45933D01*
X64406Y-46276D02*
X67406Y-46276D01*
X66688Y-33071D02*
X65502Y-34257D01*
X65502Y-34257D02*
X63701Y-34257D01*
X63701Y-34594D02*
X63701Y-34257D01*
X60709Y-34074D02*
X61246Y-34074D01*
X66969Y-33071D02*
X66688Y-33071D01*
X68558Y-26929D02*
X67509Y-25880D01*
X61429Y-34257D02*
X61246Y-34074D01*
X60312Y-46276D02*
X63312Y-46276D01*
X74043Y-26819D02*
X73043Y-26819D01*
X63701Y-34257D02*
X61429Y-34257D01*
X67509Y-25880D02*
X66744Y-25880D01*
X68827Y-26929D02*
X69095Y-26929D01*
X65157Y-26930D02*
X65694Y-26930D01*
X67406Y-46276D02*
X69134Y-46276D01*
X69095Y-26929D02*
X69632Y-26929D01*
X69632Y-26929D02*
X70432Y-26129D01*
X70432Y-26129D02*
X72353Y-26129D01*
X72353Y-26129D02*
X73043Y-26819D01*
X68827Y-26929D02*
X68558Y-26929D01*
X66744Y-25880D02*
X65694Y-26930D01*
X60709Y-31122D02*
X61246Y-31122D01*
X63701Y-33594D02*
X63701Y-33176D01*
X63300Y-33176D02*
X63701Y-33176D01*
X61246Y-31122D02*
X63300Y-33176D01*
X63701Y-33098D02*
X65854Y-30945D01*
X63701Y-33176D02*
X63701Y-33098D01*
X74487Y-36458D02*
X74351Y-36594D01*
X74487Y-30397D02*
X74487Y-36458D01*
X74465Y-30375D02*
X74487Y-30397D01*
X66424Y-30375D02*
X74465Y-30375D01*
X65854Y-30945D02*
X66424Y-30375D01*
G54D10*
G36*
X68248Y-36069D02*
X68247Y-36069D01*
X68054Y-36149D01*
X67906Y-36296D01*
X67850Y-36429D01*
X67796Y-36297D01*
X67649Y-36149D01*
X67456Y-36069D01*
X67247Y-36069D01*
X67054Y-36149D01*
X66919Y-36283D01*
X66906Y-36296D01*
X66850Y-36429D01*
X66796Y-36297D01*
X66649Y-36149D01*
X66456Y-36069D01*
X66247Y-36069D01*
X66054Y-36149D01*
X65906Y-36296D01*
X65850Y-36429D01*
X65796Y-36297D01*
X65649Y-36149D01*
X65456Y-36069D01*
X65452Y-36069D01*
X66581Y-34940D01*
X66581Y-34982D01*
X66596Y-34982D01*
X66587Y-34992D01*
X66636Y-35134D01*
X66735Y-35247D01*
X66860Y-35312D01*
X66919Y-35263D01*
X66919Y-34982D01*
X66919Y-34932D01*
X66919Y-34832D01*
X67019Y-34832D01*
X67019Y-34932D01*
X67019Y-34982D01*
X67019Y-35263D01*
X67078Y-35312D01*
X67196Y-35250D01*
X67213Y-35333D01*
X67276Y-35427D01*
X67370Y-35490D01*
X67481Y-35512D01*
X67691Y-35512D01*
X68248Y-36069D01*
X68248Y-36069D01*
G37*
G54D25*
X68248Y-36069D02*
X68247Y-36069D01*
X68054Y-36149D01*
X67906Y-36296D01*
X67850Y-36429D01*
X67796Y-36297D01*
X67649Y-36149D01*
X67456Y-36069D01*
X67247Y-36069D01*
X67054Y-36149D01*
X66919Y-36283D01*
X66906Y-36296D01*
X66850Y-36429D01*
X66796Y-36297D01*
X66649Y-36149D01*
X66456Y-36069D01*
X66247Y-36069D01*
X66054Y-36149D01*
X65906Y-36296D01*
X65850Y-36429D01*
X65796Y-36297D01*
X65649Y-36149D01*
X65456Y-36069D01*
X65452Y-36069D01*
X66581Y-34940D01*
X66581Y-34982D01*
X66596Y-34982D01*
X66587Y-34992D01*
X66636Y-35134D01*
X66735Y-35247D01*
X66860Y-35312D01*
X66919Y-35263D01*
X66919Y-34982D01*
X66919Y-34932D01*
X66919Y-34832D01*
X67019Y-34832D01*
X67019Y-34932D01*
X67019Y-34982D01*
X67019Y-35263D01*
X67078Y-35312D01*
X67196Y-35250D01*
X67213Y-35333D01*
X67276Y-35427D01*
X67370Y-35490D01*
X67481Y-35512D01*
X67691Y-35512D01*
X68248Y-36069D01*
G54D10*
G36*
X68494Y-38946D02*
X65463Y-41977D01*
X65456Y-41975D01*
X65247Y-41975D01*
X65054Y-42055D01*
X64906Y-42202D01*
X64850Y-42335D01*
X64796Y-42203D01*
X64649Y-42055D01*
X64456Y-41975D01*
X64247Y-41975D01*
X64054Y-42055D01*
X63906Y-42202D01*
X63847Y-42342D01*
X63803Y-42233D01*
X63712Y-42210D01*
X63641Y-42281D01*
X63641Y-42139D01*
X63618Y-42048D01*
X63425Y-41981D01*
X63221Y-41992D01*
X63084Y-42048D01*
X63061Y-42139D01*
X63351Y-42429D01*
X63641Y-42139D01*
X63641Y-42281D01*
X63422Y-42500D01*
X63712Y-42790D01*
X63803Y-42767D01*
X63844Y-42648D01*
X63906Y-42797D01*
X64053Y-42945D01*
X64246Y-43025D01*
X64455Y-43025D01*
X64648Y-42945D01*
X64796Y-42798D01*
X64851Y-42664D01*
X64906Y-42797D01*
X65053Y-42945D01*
X65246Y-43025D01*
X65455Y-43025D01*
X65561Y-42981D01*
X65561Y-43261D01*
X65131Y-43261D01*
X65020Y-43283D01*
X64926Y-43346D01*
X64518Y-43753D01*
X64511Y-43751D01*
X64302Y-43751D01*
X64109Y-43831D01*
X64100Y-43839D01*
X63279Y-43018D01*
X63481Y-43008D01*
X63618Y-42952D01*
X63641Y-42861D01*
X63386Y-42606D01*
X63351Y-42571D01*
X63280Y-42500D01*
X63245Y-42465D01*
X62990Y-42210D01*
X62899Y-42233D01*
X62857Y-42351D01*
X62796Y-42203D01*
X62649Y-42055D01*
X62456Y-41975D01*
X62247Y-41975D01*
X62207Y-41991D01*
X62207Y-41693D01*
X64424Y-39475D01*
X64425Y-39478D01*
X64545Y-39598D01*
X64701Y-39663D01*
X64870Y-39663D01*
X65026Y-39599D01*
X65146Y-39479D01*
X65211Y-39323D01*
X65211Y-39223D01*
X65584Y-38850D01*
X68005Y-38850D01*
X68075Y-38920D01*
X68231Y-38985D01*
X68400Y-38985D01*
X68494Y-38946D01*
X68494Y-38946D01*
G37*
G54D25*
X68494Y-38946D02*
X65463Y-41977D01*
X65456Y-41975D01*
X65247Y-41975D01*
X65054Y-42055D01*
X64906Y-42202D01*
X64850Y-42335D01*
X64796Y-42203D01*
X64649Y-42055D01*
X64456Y-41975D01*
X64247Y-41975D01*
X64054Y-42055D01*
X63906Y-42202D01*
X63847Y-42342D01*
X63803Y-42233D01*
X63712Y-42210D01*
X63641Y-42281D01*
X63641Y-42139D01*
X63618Y-42048D01*
X63425Y-41981D01*
X63221Y-41992D01*
X63084Y-42048D01*
X63061Y-42139D01*
X63351Y-42429D01*
X63641Y-42139D01*
X63641Y-42281D01*
X63422Y-42500D01*
X63712Y-42790D01*
X63803Y-42767D01*
X63844Y-42648D01*
X63906Y-42797D01*
X64053Y-42945D01*
X64246Y-43025D01*
X64455Y-43025D01*
X64648Y-42945D01*
X64796Y-42798D01*
X64851Y-42664D01*
X64906Y-42797D01*
X65053Y-42945D01*
X65246Y-43025D01*
X65455Y-43025D01*
X65561Y-42981D01*
X65561Y-43261D01*
X65131Y-43261D01*
X65020Y-43283D01*
X64926Y-43346D01*
X64518Y-43753D01*
X64511Y-43751D01*
X64302Y-43751D01*
X64109Y-43831D01*
X64100Y-43839D01*
X63279Y-43018D01*
X63481Y-43008D01*
X63618Y-42952D01*
X63641Y-42861D01*
X63386Y-42606D01*
X63351Y-42571D01*
X63280Y-42500D01*
X63245Y-42465D01*
X62990Y-42210D01*
X62899Y-42233D01*
X62857Y-42351D01*
X62796Y-42203D01*
X62649Y-42055D01*
X62456Y-41975D01*
X62247Y-41975D01*
X62207Y-41991D01*
X62207Y-41693D01*
X64424Y-39475D01*
X64425Y-39478D01*
X64545Y-39598D01*
X64701Y-39663D01*
X64870Y-39663D01*
X65026Y-39599D01*
X65146Y-39479D01*
X65211Y-39323D01*
X65211Y-39223D01*
X65584Y-38850D01*
X68005Y-38850D01*
X68075Y-38920D01*
X68231Y-38985D01*
X68400Y-38985D01*
X68494Y-38946D01*
G54D10*
G36*
X72512Y-30665D02*
X72494Y-30710D01*
X72494Y-30928D01*
X72502Y-30949D01*
X69584Y-33868D01*
X68380Y-33868D01*
X68380Y-33318D01*
X68380Y-33219D01*
X68380Y-32825D01*
X68342Y-32733D01*
X68272Y-32663D01*
X68181Y-32625D01*
X68082Y-32625D01*
X67806Y-32625D01*
X67714Y-32663D01*
X67695Y-32681D01*
X67558Y-32623D01*
X67406Y-32623D01*
X67266Y-32681D01*
X67220Y-32726D01*
X67203Y-32706D01*
X67078Y-32641D01*
X67019Y-32690D01*
X67019Y-32971D01*
X67019Y-33021D01*
X67019Y-33121D01*
X67019Y-33171D01*
X67019Y-33452D01*
X67078Y-33501D01*
X67203Y-33436D01*
X67220Y-33415D01*
X67265Y-33460D01*
X67404Y-33519D01*
X67556Y-33519D01*
X67696Y-33461D01*
X67714Y-33479D01*
X67805Y-33517D01*
X67904Y-33517D01*
X68180Y-33517D01*
X68272Y-33479D01*
X68342Y-33409D01*
X68380Y-33318D01*
X68380Y-33868D01*
X66919Y-33868D01*
X66919Y-33452D01*
X66919Y-33121D01*
X66919Y-33021D01*
X66919Y-32690D01*
X66860Y-32641D01*
X66735Y-32706D01*
X66636Y-32819D01*
X66587Y-32961D01*
X66646Y-33021D01*
X66919Y-33021D01*
X66919Y-33121D01*
X66646Y-33121D01*
X66587Y-33181D01*
X66636Y-33323D01*
X66735Y-33436D01*
X66860Y-33501D01*
X66919Y-33452D01*
X66919Y-33868D01*
X66600Y-33868D01*
X66489Y-33890D01*
X66457Y-33911D01*
X66394Y-33953D01*
X65526Y-34821D01*
X64166Y-34821D01*
X64220Y-34668D01*
X64209Y-34464D01*
X64153Y-34327D01*
X64062Y-34304D01*
X63807Y-34559D01*
X63772Y-34594D01*
X63701Y-34665D01*
X63630Y-34594D01*
X63595Y-34559D01*
X63340Y-34304D01*
X63249Y-34327D01*
X63182Y-34520D01*
X63193Y-34724D01*
X63232Y-34821D01*
X62834Y-34821D01*
X62723Y-34843D01*
X62629Y-34906D01*
X61463Y-36071D01*
X61456Y-36069D01*
X61335Y-36069D01*
X61335Y-34199D01*
X61335Y-33949D01*
X61325Y-33914D01*
X61229Y-33750D01*
X61078Y-33636D01*
X60894Y-33588D01*
X60759Y-33588D01*
X60759Y-34024D01*
X61287Y-34024D01*
X61335Y-33949D01*
X61335Y-34199D01*
X61287Y-34124D01*
X60759Y-34124D01*
X60759Y-34560D01*
X60894Y-34560D01*
X61078Y-34512D01*
X61229Y-34398D01*
X61325Y-34234D01*
X61335Y-34199D01*
X61335Y-36069D01*
X61247Y-36069D01*
X61060Y-36146D01*
X61060Y-35601D01*
X61038Y-35490D01*
X61037Y-35489D01*
X61016Y-35458D01*
X60975Y-35396D01*
X60975Y-35395D01*
X60462Y-34882D01*
X60462Y-34543D01*
X60524Y-34560D01*
X60659Y-34560D01*
X60659Y-34174D01*
X60659Y-34124D01*
X60659Y-34024D01*
X60659Y-33974D01*
X60659Y-33588D01*
X60524Y-33588D01*
X60462Y-33604D01*
X60462Y-33567D01*
X60634Y-33567D01*
X60972Y-33567D01*
X61147Y-33495D01*
X61282Y-33361D01*
X61355Y-33186D01*
X61355Y-32996D01*
X61283Y-32821D01*
X61149Y-32686D01*
X60974Y-32613D01*
X60784Y-32613D01*
X60446Y-32613D01*
X60271Y-32685D01*
X60150Y-32804D01*
X60095Y-32815D01*
X60095Y-32277D01*
X60135Y-32375D01*
X60269Y-32510D01*
X60444Y-32583D01*
X60634Y-32583D01*
X60972Y-32583D01*
X61147Y-32511D01*
X61282Y-32377D01*
X61355Y-32202D01*
X61355Y-32012D01*
X61283Y-31837D01*
X61149Y-31702D01*
X60974Y-31629D01*
X60784Y-31629D01*
X60446Y-31629D01*
X60271Y-31701D01*
X60136Y-31835D01*
X60095Y-31933D01*
X60095Y-31477D01*
X60104Y-31499D01*
X60174Y-31569D01*
X60265Y-31607D01*
X60364Y-31607D01*
X61152Y-31607D01*
X61244Y-31569D01*
X61263Y-31549D01*
X63094Y-33380D01*
X63095Y-33381D01*
X63177Y-33435D01*
X63177Y-33918D01*
X63215Y-34010D01*
X63285Y-34080D01*
X63376Y-34118D01*
X63475Y-34118D01*
X63492Y-34118D01*
X63434Y-34142D01*
X63411Y-34233D01*
X63701Y-34523D01*
X63991Y-34233D01*
X63968Y-34142D01*
X63898Y-34118D01*
X64025Y-34118D01*
X64117Y-34080D01*
X64187Y-34010D01*
X64225Y-33919D01*
X64225Y-33820D01*
X64225Y-33270D01*
X64187Y-33178D01*
X64117Y-33108D01*
X64105Y-33103D01*
X65723Y-31485D01*
X65745Y-31494D01*
X65963Y-31494D01*
X66165Y-31410D01*
X66319Y-31256D01*
X66354Y-31171D01*
X66389Y-31256D01*
X66543Y-31410D01*
X66745Y-31494D01*
X66963Y-31494D01*
X67165Y-31410D01*
X67305Y-31270D01*
X67305Y-31294D01*
X67343Y-31386D01*
X67413Y-31456D01*
X67504Y-31494D01*
X67603Y-31494D01*
X68203Y-31494D01*
X68295Y-31456D01*
X68365Y-31386D01*
X68403Y-31295D01*
X68403Y-31196D01*
X68403Y-30665D01*
X72512Y-30665D01*
X72512Y-30665D01*
G37*
G54D25*
X72512Y-30665D02*
X72494Y-30710D01*
X72494Y-30928D01*
X72502Y-30949D01*
X69584Y-33868D01*
X68380Y-33868D01*
X68380Y-33318D01*
X68380Y-33219D01*
X68380Y-32825D01*
X68342Y-32733D01*
X68272Y-32663D01*
X68181Y-32625D01*
X68082Y-32625D01*
X67806Y-32625D01*
X67714Y-32663D01*
X67695Y-32681D01*
X67558Y-32623D01*
X67406Y-32623D01*
X67266Y-32681D01*
X67220Y-32726D01*
X67203Y-32706D01*
X67078Y-32641D01*
X67019Y-32690D01*
X67019Y-32971D01*
X67019Y-33021D01*
X67019Y-33121D01*
X67019Y-33171D01*
X67019Y-33452D01*
X67078Y-33501D01*
X67203Y-33436D01*
X67220Y-33415D01*
X67265Y-33460D01*
X67404Y-33519D01*
X67556Y-33519D01*
X67696Y-33461D01*
X67714Y-33479D01*
X67805Y-33517D01*
X67904Y-33517D01*
X68180Y-33517D01*
X68272Y-33479D01*
X68342Y-33409D01*
X68380Y-33318D01*
X68380Y-33868D01*
X66919Y-33868D01*
X66919Y-33452D01*
X66919Y-33121D01*
X66919Y-33021D01*
X66919Y-32690D01*
X66860Y-32641D01*
X66735Y-32706D01*
X66636Y-32819D01*
X66587Y-32961D01*
X66646Y-33021D01*
X66919Y-33021D01*
X66919Y-33121D01*
X66646Y-33121D01*
X66587Y-33181D01*
X66636Y-33323D01*
X66735Y-33436D01*
X66860Y-33501D01*
X66919Y-33452D01*
X66919Y-33868D01*
X66600Y-33868D01*
X66489Y-33890D01*
X66457Y-33911D01*
X66394Y-33953D01*
X65526Y-34821D01*
X64166Y-34821D01*
X64220Y-34668D01*
X64209Y-34464D01*
X64153Y-34327D01*
X64062Y-34304D01*
X63807Y-34559D01*
X63772Y-34594D01*
X63701Y-34665D01*
X63630Y-34594D01*
X63595Y-34559D01*
X63340Y-34304D01*
X63249Y-34327D01*
X63182Y-34520D01*
X63193Y-34724D01*
X63232Y-34821D01*
X62834Y-34821D01*
X62723Y-34843D01*
X62629Y-34906D01*
X61463Y-36071D01*
X61456Y-36069D01*
X61335Y-36069D01*
X61335Y-34199D01*
X61335Y-33949D01*
X61325Y-33914D01*
X61229Y-33750D01*
X61078Y-33636D01*
X60894Y-33588D01*
X60759Y-33588D01*
X60759Y-34024D01*
X61287Y-34024D01*
X61335Y-33949D01*
X61335Y-34199D01*
X61287Y-34124D01*
X60759Y-34124D01*
X60759Y-34560D01*
X60894Y-34560D01*
X61078Y-34512D01*
X61229Y-34398D01*
X61325Y-34234D01*
X61335Y-34199D01*
X61335Y-36069D01*
X61247Y-36069D01*
X61060Y-36146D01*
X61060Y-35601D01*
X61038Y-35490D01*
X61037Y-35489D01*
X61016Y-35458D01*
X60975Y-35396D01*
X60975Y-35395D01*
X60462Y-34882D01*
X60462Y-34543D01*
X60524Y-34560D01*
X60659Y-34560D01*
X60659Y-34174D01*
X60659Y-34124D01*
X60659Y-34024D01*
X60659Y-33974D01*
X60659Y-33588D01*
X60524Y-33588D01*
X60462Y-33604D01*
X60462Y-33567D01*
X60634Y-33567D01*
X60972Y-33567D01*
X61147Y-33495D01*
X61282Y-33361D01*
X61355Y-33186D01*
X61355Y-32996D01*
X61283Y-32821D01*
X61149Y-32686D01*
X60974Y-32613D01*
X60784Y-32613D01*
X60446Y-32613D01*
X60271Y-32685D01*
X60150Y-32804D01*
X60095Y-32815D01*
X60095Y-32277D01*
X60135Y-32375D01*
X60269Y-32510D01*
X60444Y-32583D01*
X60634Y-32583D01*
X60972Y-32583D01*
X61147Y-32511D01*
X61282Y-32377D01*
X61355Y-32202D01*
X61355Y-32012D01*
X61283Y-31837D01*
X61149Y-31702D01*
X60974Y-31629D01*
X60784Y-31629D01*
X60446Y-31629D01*
X60271Y-31701D01*
X60136Y-31835D01*
X60095Y-31933D01*
X60095Y-31477D01*
X60104Y-31499D01*
X60174Y-31569D01*
X60265Y-31607D01*
X60364Y-31607D01*
X61152Y-31607D01*
X61244Y-31569D01*
X61263Y-31549D01*
X63094Y-33380D01*
X63095Y-33381D01*
X63177Y-33435D01*
X63177Y-33918D01*
X63215Y-34010D01*
X63285Y-34080D01*
X63376Y-34118D01*
X63475Y-34118D01*
X63492Y-34118D01*
X63434Y-34142D01*
X63411Y-34233D01*
X63701Y-34523D01*
X63991Y-34233D01*
X63968Y-34142D01*
X63898Y-34118D01*
X64025Y-34118D01*
X64117Y-34080D01*
X64187Y-34010D01*
X64225Y-33919D01*
X64225Y-33820D01*
X64225Y-33270D01*
X64187Y-33178D01*
X64117Y-33108D01*
X64105Y-33103D01*
X65723Y-31485D01*
X65745Y-31494D01*
X65963Y-31494D01*
X66165Y-31410D01*
X66319Y-31256D01*
X66354Y-31171D01*
X66389Y-31256D01*
X66543Y-31410D01*
X66745Y-31494D01*
X66963Y-31494D01*
X67165Y-31410D01*
X67305Y-31270D01*
X67305Y-31294D01*
X67343Y-31386D01*
X67413Y-31456D01*
X67504Y-31494D01*
X67603Y-31494D01*
X68203Y-31494D01*
X68295Y-31456D01*
X68365Y-31386D01*
X68403Y-31295D01*
X68403Y-31196D01*
X68403Y-30665D01*
X72512Y-30665D01*
G54D10*
G36*
X72559Y-30085D02*
X66424Y-30085D01*
X66313Y-30107D01*
X66219Y-30170D01*
X65984Y-30404D01*
X65963Y-30396D01*
X65745Y-30396D01*
X65543Y-30480D01*
X65389Y-30634D01*
X65354Y-30718D01*
X65319Y-30634D01*
X65165Y-30480D01*
X64963Y-30396D01*
X64745Y-30396D01*
X64543Y-30480D01*
X64389Y-30634D01*
X64354Y-30718D01*
X64319Y-30634D01*
X64165Y-30480D01*
X63963Y-30396D01*
X63745Y-30396D01*
X63543Y-30480D01*
X63389Y-30634D01*
X63351Y-30725D01*
X63326Y-30664D01*
X63232Y-30637D01*
X63162Y-30707D01*
X63162Y-30567D01*
X63135Y-30473D01*
X62933Y-30402D01*
X62720Y-30413D01*
X62573Y-30473D01*
X62546Y-30567D01*
X62854Y-30874D01*
X63162Y-30567D01*
X63162Y-30707D01*
X62925Y-30945D01*
X63232Y-31253D01*
X63326Y-31226D01*
X63349Y-31160D01*
X63389Y-31256D01*
X63543Y-31410D01*
X63745Y-31494D01*
X63963Y-31494D01*
X64165Y-31410D01*
X64319Y-31256D01*
X64354Y-31171D01*
X64389Y-31256D01*
X64543Y-31410D01*
X64745Y-31494D01*
X64895Y-31494D01*
X63503Y-32886D01*
X63420Y-32886D01*
X63162Y-32628D01*
X63162Y-31323D01*
X62854Y-31016D01*
X62783Y-31086D01*
X62783Y-30945D01*
X62476Y-30637D01*
X62382Y-30664D01*
X62311Y-30866D01*
X62322Y-31079D01*
X62382Y-31226D01*
X62476Y-31253D01*
X62783Y-30945D01*
X62783Y-31086D01*
X62546Y-31323D01*
X62573Y-31417D01*
X62775Y-31488D01*
X62988Y-31477D01*
X63135Y-31417D01*
X63162Y-31323D01*
X63162Y-32628D01*
X61451Y-30917D01*
X61357Y-30854D01*
X61352Y-30853D01*
X61352Y-30837D01*
X61314Y-30745D01*
X61244Y-30675D01*
X61153Y-30637D01*
X61054Y-30637D01*
X60510Y-30637D01*
X61556Y-29591D01*
X72543Y-29591D01*
X72494Y-29710D01*
X72494Y-29928D01*
X72559Y-30085D01*
X72559Y-30085D01*
G37*
G54D25*
X72559Y-30085D02*
X66424Y-30085D01*
X66313Y-30107D01*
X66219Y-30170D01*
X65984Y-30404D01*
X65963Y-30396D01*
X65745Y-30396D01*
X65543Y-30480D01*
X65389Y-30634D01*
X65354Y-30718D01*
X65319Y-30634D01*
X65165Y-30480D01*
X64963Y-30396D01*
X64745Y-30396D01*
X64543Y-30480D01*
X64389Y-30634D01*
X64354Y-30718D01*
X64319Y-30634D01*
X64165Y-30480D01*
X63963Y-30396D01*
X63745Y-30396D01*
X63543Y-30480D01*
X63389Y-30634D01*
X63351Y-30725D01*
X63326Y-30664D01*
X63232Y-30637D01*
X63162Y-30707D01*
X63162Y-30567D01*
X63135Y-30473D01*
X62933Y-30402D01*
X62720Y-30413D01*
X62573Y-30473D01*
X62546Y-30567D01*
X62854Y-30874D01*
X63162Y-30567D01*
X63162Y-30707D01*
X62925Y-30945D01*
X63232Y-31253D01*
X63326Y-31226D01*
X63349Y-31160D01*
X63389Y-31256D01*
X63543Y-31410D01*
X63745Y-31494D01*
X63963Y-31494D01*
X64165Y-31410D01*
X64319Y-31256D01*
X64354Y-31171D01*
X64389Y-31256D01*
X64543Y-31410D01*
X64745Y-31494D01*
X64895Y-31494D01*
X63503Y-32886D01*
X63420Y-32886D01*
X63162Y-32628D01*
X63162Y-31323D01*
X62854Y-31016D01*
X62783Y-31086D01*
X62783Y-30945D01*
X62476Y-30637D01*
X62382Y-30664D01*
X62311Y-30866D01*
X62322Y-31079D01*
X62382Y-31226D01*
X62476Y-31253D01*
X62783Y-30945D01*
X62783Y-31086D01*
X62546Y-31323D01*
X62573Y-31417D01*
X62775Y-31488D01*
X62988Y-31477D01*
X63135Y-31417D01*
X63162Y-31323D01*
X63162Y-32628D01*
X61451Y-30917D01*
X61357Y-30854D01*
X61352Y-30853D01*
X61352Y-30837D01*
X61314Y-30745D01*
X61244Y-30675D01*
X61153Y-30637D01*
X61054Y-30637D01*
X60510Y-30637D01*
X61556Y-29591D01*
X72543Y-29591D01*
X72494Y-29710D01*
X72494Y-29928D01*
X72559Y-30085D01*
G54D10*
G36*
X74486Y-38954D02*
X73641Y-39799D01*
X73641Y-36955D01*
X73351Y-36665D01*
X73061Y-36955D01*
X73084Y-37046D01*
X73277Y-37113D01*
X73481Y-37102D01*
X73618Y-37046D01*
X73641Y-36955D01*
X73641Y-39799D01*
X71463Y-41977D01*
X71456Y-41975D01*
X71247Y-41975D01*
X71054Y-42055D01*
X70906Y-42202D01*
X70850Y-42335D01*
X70796Y-42203D01*
X70649Y-42055D01*
X70456Y-41975D01*
X70247Y-41975D01*
X70054Y-42055D01*
X69906Y-42202D01*
X69850Y-42335D01*
X69796Y-42203D01*
X69649Y-42055D01*
X69456Y-41975D01*
X69327Y-41975D01*
X72556Y-38747D01*
X72556Y-38746D01*
X72597Y-38684D01*
X72618Y-38653D01*
X72619Y-38652D01*
X72640Y-38542D01*
X72641Y-38541D01*
X72641Y-37041D01*
X72648Y-37039D01*
X72796Y-36892D01*
X72854Y-36751D01*
X72899Y-36861D01*
X72990Y-36884D01*
X73280Y-36594D01*
X72990Y-36304D01*
X72899Y-36327D01*
X72857Y-36445D01*
X72796Y-36297D01*
X72649Y-36149D01*
X72456Y-36069D01*
X72247Y-36069D01*
X72054Y-36149D01*
X71906Y-36296D01*
X71850Y-36429D01*
X71796Y-36297D01*
X71649Y-36149D01*
X71456Y-36069D01*
X71247Y-36069D01*
X71141Y-36112D01*
X71141Y-36026D01*
X71779Y-35388D01*
X71816Y-35332D01*
X73142Y-35332D01*
X73253Y-35310D01*
X73319Y-35265D01*
X73375Y-35289D01*
X73474Y-35289D01*
X73868Y-35289D01*
X73960Y-35251D01*
X74030Y-35181D01*
X74068Y-35090D01*
X74068Y-34991D01*
X74068Y-34715D01*
X74030Y-34623D01*
X73972Y-34565D01*
X74011Y-34527D01*
X74070Y-34388D01*
X74070Y-34236D01*
X74012Y-34096D01*
X73932Y-34016D01*
X74011Y-33937D01*
X74070Y-33798D01*
X74070Y-33646D01*
X74012Y-33506D01*
X73924Y-33418D01*
X73987Y-33364D01*
X74052Y-33239D01*
X74052Y-33021D01*
X73987Y-32896D01*
X73874Y-32797D01*
X73732Y-32748D01*
X73672Y-32807D01*
X73672Y-33080D01*
X74003Y-33080D01*
X74052Y-33021D01*
X74052Y-33239D01*
X74003Y-33180D01*
X73722Y-33180D01*
X73672Y-33180D01*
X73572Y-33180D01*
X73572Y-33080D01*
X73572Y-32807D01*
X73512Y-32748D01*
X73370Y-32797D01*
X73257Y-32896D01*
X73192Y-33021D01*
X73241Y-33080D01*
X73572Y-33080D01*
X73572Y-33180D01*
X73522Y-33180D01*
X73241Y-33180D01*
X73192Y-33239D01*
X73257Y-33364D01*
X73319Y-33418D01*
X73307Y-33431D01*
X73282Y-33431D01*
X71914Y-33431D01*
X71889Y-33431D01*
X71876Y-33418D01*
X71939Y-33364D01*
X72004Y-33239D01*
X72004Y-33021D01*
X71939Y-32896D01*
X71826Y-32797D01*
X71684Y-32748D01*
X71624Y-32807D01*
X71624Y-33080D01*
X71955Y-33080D01*
X72004Y-33021D01*
X72004Y-33239D01*
X71955Y-33180D01*
X71674Y-33180D01*
X71624Y-33180D01*
X71524Y-33180D01*
X71524Y-33080D01*
X71524Y-33030D01*
X71524Y-32807D01*
X71494Y-32777D01*
X72912Y-31359D01*
X72934Y-31368D01*
X73152Y-31368D01*
X73354Y-31284D01*
X73494Y-31144D01*
X73494Y-31168D01*
X73532Y-31260D01*
X73602Y-31330D01*
X73693Y-31368D01*
X73792Y-31368D01*
X74197Y-31368D01*
X74197Y-36089D01*
X74054Y-36149D01*
X73906Y-36296D01*
X73847Y-36436D01*
X73803Y-36327D01*
X73712Y-36304D01*
X73641Y-36375D01*
X73641Y-36233D01*
X73618Y-36142D01*
X73425Y-36075D01*
X73221Y-36086D01*
X73084Y-36142D01*
X73061Y-36233D01*
X73351Y-36523D01*
X73641Y-36233D01*
X73641Y-36375D01*
X73422Y-36594D01*
X73712Y-36884D01*
X73803Y-36861D01*
X73844Y-36742D01*
X73906Y-36891D01*
X74053Y-37039D01*
X74246Y-37119D01*
X74455Y-37119D01*
X74486Y-37106D01*
X74486Y-38954D01*
X74486Y-38954D01*
G37*
G54D25*
X74486Y-38954D02*
X73641Y-39799D01*
X73641Y-36955D01*
X73351Y-36665D01*
X73061Y-36955D01*
X73084Y-37046D01*
X73277Y-37113D01*
X73481Y-37102D01*
X73618Y-37046D01*
X73641Y-36955D01*
X73641Y-39799D01*
X71463Y-41977D01*
X71456Y-41975D01*
X71247Y-41975D01*
X71054Y-42055D01*
X70906Y-42202D01*
X70850Y-42335D01*
X70796Y-42203D01*
X70649Y-42055D01*
X70456Y-41975D01*
X70247Y-41975D01*
X70054Y-42055D01*
X69906Y-42202D01*
X69850Y-42335D01*
X69796Y-42203D01*
X69649Y-42055D01*
X69456Y-41975D01*
X69327Y-41975D01*
X72556Y-38747D01*
X72556Y-38746D01*
X72597Y-38684D01*
X72618Y-38653D01*
X72619Y-38652D01*
X72640Y-38542D01*
X72641Y-38541D01*
X72641Y-37041D01*
X72648Y-37039D01*
X72796Y-36892D01*
X72854Y-36751D01*
X72899Y-36861D01*
X72990Y-36884D01*
X73280Y-36594D01*
X72990Y-36304D01*
X72899Y-36327D01*
X72857Y-36445D01*
X72796Y-36297D01*
X72649Y-36149D01*
X72456Y-36069D01*
X72247Y-36069D01*
X72054Y-36149D01*
X71906Y-36296D01*
X71850Y-36429D01*
X71796Y-36297D01*
X71649Y-36149D01*
X71456Y-36069D01*
X71247Y-36069D01*
X71141Y-36112D01*
X71141Y-36026D01*
X71779Y-35388D01*
X71816Y-35332D01*
X73142Y-35332D01*
X73253Y-35310D01*
X73319Y-35265D01*
X73375Y-35289D01*
X73474Y-35289D01*
X73868Y-35289D01*
X73960Y-35251D01*
X74030Y-35181D01*
X74068Y-35090D01*
X74068Y-34991D01*
X74068Y-34715D01*
X74030Y-34623D01*
X73972Y-34565D01*
X74011Y-34527D01*
X74070Y-34388D01*
X74070Y-34236D01*
X74012Y-34096D01*
X73932Y-34016D01*
X74011Y-33937D01*
X74070Y-33798D01*
X74070Y-33646D01*
X74012Y-33506D01*
X73924Y-33418D01*
X73987Y-33364D01*
X74052Y-33239D01*
X74052Y-33021D01*
X73987Y-32896D01*
X73874Y-32797D01*
X73732Y-32748D01*
X73672Y-32807D01*
X73672Y-33080D01*
X74003Y-33080D01*
X74052Y-33021D01*
X74052Y-33239D01*
X74003Y-33180D01*
X73722Y-33180D01*
X73672Y-33180D01*
X73572Y-33180D01*
X73572Y-33080D01*
X73572Y-32807D01*
X73512Y-32748D01*
X73370Y-32797D01*
X73257Y-32896D01*
X73192Y-33021D01*
X73241Y-33080D01*
X73572Y-33080D01*
X73572Y-33180D01*
X73522Y-33180D01*
X73241Y-33180D01*
X73192Y-33239D01*
X73257Y-33364D01*
X73319Y-33418D01*
X73307Y-33431D01*
X73282Y-33431D01*
X71914Y-33431D01*
X71889Y-33431D01*
X71876Y-33418D01*
X71939Y-33364D01*
X72004Y-33239D01*
X72004Y-33021D01*
X71939Y-32896D01*
X71826Y-32797D01*
X71684Y-32748D01*
X71624Y-32807D01*
X71624Y-33080D01*
X71955Y-33080D01*
X72004Y-33021D01*
X72004Y-33239D01*
X71955Y-33180D01*
X71674Y-33180D01*
X71624Y-33180D01*
X71524Y-33180D01*
X71524Y-33080D01*
X71524Y-33030D01*
X71524Y-32807D01*
X71494Y-32777D01*
X72912Y-31359D01*
X72934Y-31368D01*
X73152Y-31368D01*
X73354Y-31284D01*
X73494Y-31144D01*
X73494Y-31168D01*
X73532Y-31260D01*
X73602Y-31330D01*
X73693Y-31368D01*
X73792Y-31368D01*
X74197Y-31368D01*
X74197Y-36089D01*
X74054Y-36149D01*
X73906Y-36296D01*
X73847Y-36436D01*
X73803Y-36327D01*
X73712Y-36304D01*
X73641Y-36375D01*
X73641Y-36233D01*
X73618Y-36142D01*
X73425Y-36075D01*
X73221Y-36086D01*
X73084Y-36142D01*
X73061Y-36233D01*
X73351Y-36523D01*
X73641Y-36233D01*
X73641Y-36375D01*
X73422Y-36594D01*
X73712Y-36884D01*
X73803Y-36861D01*
X73844Y-36742D01*
X73906Y-36891D01*
X74053Y-37039D01*
X74246Y-37119D01*
X74455Y-37119D01*
X74486Y-37106D01*
X74486Y-38954D01*
G54D10*
G36*
X75695Y-47139D02*
X75684Y-47194D01*
X75684Y-47022D01*
X75574Y-46757D01*
X75371Y-46553D01*
X75106Y-46443D01*
X75066Y-46443D01*
X75066Y-39075D01*
X75066Y-30213D01*
X75044Y-30102D01*
X74981Y-30008D01*
X74587Y-29614D01*
X74538Y-29581D01*
X74508Y-29508D01*
X74354Y-29354D01*
X74269Y-29319D01*
X74354Y-29284D01*
X74508Y-29130D01*
X74592Y-28928D01*
X74592Y-28710D01*
X74508Y-28508D01*
X74354Y-28354D01*
X74269Y-28319D01*
X74354Y-28284D01*
X74508Y-28130D01*
X74592Y-27928D01*
X74592Y-27710D01*
X74586Y-27695D01*
X74586Y-26898D01*
X74575Y-26685D01*
X74515Y-26538D01*
X74421Y-26511D01*
X74351Y-26581D01*
X74351Y-26441D01*
X74324Y-26347D01*
X74122Y-26276D01*
X73909Y-26287D01*
X73762Y-26347D01*
X73735Y-26441D01*
X74043Y-26748D01*
X74351Y-26441D01*
X74351Y-26581D01*
X74114Y-26819D01*
X74421Y-27127D01*
X74515Y-27100D01*
X74586Y-26898D01*
X74586Y-27695D01*
X74508Y-27508D01*
X74354Y-27354D01*
X74262Y-27316D01*
X74324Y-27291D01*
X74351Y-27197D01*
X74043Y-26890D01*
X73972Y-26960D01*
X73972Y-26819D01*
X73665Y-26511D01*
X73571Y-26538D01*
X73545Y-26611D01*
X73515Y-26538D01*
X73421Y-26511D01*
X73351Y-26581D01*
X73351Y-26441D01*
X73324Y-26347D01*
X73122Y-26276D01*
X72909Y-26287D01*
X72762Y-26347D01*
X72735Y-26441D01*
X73043Y-26748D01*
X73351Y-26441D01*
X73351Y-26581D01*
X73114Y-26819D01*
X73421Y-27127D01*
X73515Y-27100D01*
X73540Y-27026D01*
X73571Y-27100D01*
X73665Y-27127D01*
X73972Y-26819D01*
X73972Y-26960D01*
X73735Y-27197D01*
X73762Y-27291D01*
X73827Y-27314D01*
X73732Y-27354D01*
X73578Y-27508D01*
X73543Y-27592D01*
X73508Y-27508D01*
X73354Y-27354D01*
X73262Y-27316D01*
X73324Y-27291D01*
X73351Y-27197D01*
X73043Y-26890D01*
X72972Y-26960D01*
X72972Y-26819D01*
X72665Y-26511D01*
X72571Y-26538D01*
X72500Y-26740D01*
X72511Y-26953D01*
X72571Y-27100D01*
X72665Y-27127D01*
X72972Y-26819D01*
X72972Y-26960D01*
X72735Y-27197D01*
X72762Y-27291D01*
X72827Y-27314D01*
X72732Y-27354D01*
X72578Y-27508D01*
X72494Y-27710D01*
X72494Y-27928D01*
X72578Y-28130D01*
X72732Y-28284D01*
X72816Y-28319D01*
X72732Y-28354D01*
X72578Y-28508D01*
X72494Y-28710D01*
X72494Y-28928D01*
X72528Y-29011D01*
X71694Y-29011D01*
X71694Y-27271D01*
X71694Y-27020D01*
X71694Y-26588D01*
X71598Y-26356D01*
X71421Y-26178D01*
X71189Y-26082D01*
X70938Y-26082D01*
X70706Y-26178D01*
X70528Y-26355D01*
X70432Y-26587D01*
X70432Y-26838D01*
X70432Y-27270D01*
X70528Y-27502D01*
X70705Y-27680D01*
X70937Y-27776D01*
X71188Y-27776D01*
X71420Y-27680D01*
X71598Y-27503D01*
X71694Y-27271D01*
X71694Y-29011D01*
X69738Y-29011D01*
X69738Y-27179D01*
X69738Y-26979D01*
X69738Y-26879D01*
X69738Y-26679D01*
X69670Y-26437D01*
X69514Y-26239D01*
X69295Y-26116D01*
X69245Y-26104D01*
X69145Y-26151D01*
X69145Y-26879D01*
X69738Y-26879D01*
X69738Y-26979D01*
X69145Y-26979D01*
X69145Y-27707D01*
X69245Y-27754D01*
X69295Y-27742D01*
X69514Y-27619D01*
X69670Y-27421D01*
X69738Y-27179D01*
X69738Y-29011D01*
X69045Y-29011D01*
X69045Y-27707D01*
X69045Y-26979D01*
X69045Y-26879D01*
X69045Y-26151D01*
X68945Y-26104D01*
X68895Y-26116D01*
X68676Y-26239D01*
X68520Y-26437D01*
X68452Y-26679D01*
X68452Y-26879D01*
X69045Y-26879D01*
X69045Y-26979D01*
X68452Y-26979D01*
X68452Y-27179D01*
X68520Y-27421D01*
X68676Y-27619D01*
X68895Y-27742D01*
X68945Y-27754D01*
X69045Y-27707D01*
X69045Y-29011D01*
X67756Y-29011D01*
X67756Y-27272D01*
X67756Y-27021D01*
X67756Y-26589D01*
X67660Y-26357D01*
X67483Y-26179D01*
X67251Y-26083D01*
X67000Y-26083D01*
X66768Y-26179D01*
X66590Y-26356D01*
X66494Y-26588D01*
X66494Y-26839D01*
X66494Y-27271D01*
X66590Y-27503D01*
X66767Y-27681D01*
X66999Y-27777D01*
X67250Y-27777D01*
X67482Y-27681D01*
X67660Y-27504D01*
X67756Y-27272D01*
X67756Y-29011D01*
X65800Y-29011D01*
X65800Y-27180D01*
X65800Y-26980D01*
X65800Y-26880D01*
X65800Y-26680D01*
X65732Y-26438D01*
X65576Y-26240D01*
X65357Y-26117D01*
X65307Y-26105D01*
X65207Y-26152D01*
X65207Y-26880D01*
X65800Y-26880D01*
X65800Y-26980D01*
X65207Y-26980D01*
X65207Y-27708D01*
X65307Y-27755D01*
X65357Y-27743D01*
X65576Y-27620D01*
X65732Y-27422D01*
X65800Y-27180D01*
X65800Y-29011D01*
X65107Y-29011D01*
X65107Y-27708D01*
X65107Y-26980D01*
X65107Y-26880D01*
X65107Y-26152D01*
X65007Y-26105D01*
X64957Y-26117D01*
X64738Y-26240D01*
X64582Y-26438D01*
X64514Y-26680D01*
X64514Y-26880D01*
X65107Y-26880D01*
X65107Y-26980D01*
X64514Y-26980D01*
X64514Y-27180D01*
X64582Y-27422D01*
X64738Y-27620D01*
X64957Y-27743D01*
X65007Y-27755D01*
X65107Y-27708D01*
X65107Y-29011D01*
X63820Y-29011D01*
X63820Y-27271D01*
X63820Y-27020D01*
X63820Y-26588D01*
X63724Y-26356D01*
X63547Y-26178D01*
X63315Y-26082D01*
X63064Y-26082D01*
X62832Y-26178D01*
X62654Y-26355D01*
X62558Y-26587D01*
X62558Y-26838D01*
X62558Y-27270D01*
X62654Y-27502D01*
X62831Y-27680D01*
X63063Y-27776D01*
X63314Y-27776D01*
X63546Y-27680D01*
X63724Y-27503D01*
X63820Y-27271D01*
X63820Y-29011D01*
X61864Y-29011D01*
X61864Y-27179D01*
X61864Y-26979D01*
X61864Y-26879D01*
X61864Y-26679D01*
X61796Y-26437D01*
X61640Y-26239D01*
X61421Y-26116D01*
X61371Y-26104D01*
X61271Y-26151D01*
X61271Y-26879D01*
X61864Y-26879D01*
X61864Y-26979D01*
X61271Y-26979D01*
X61271Y-27707D01*
X61371Y-27754D01*
X61421Y-27742D01*
X61640Y-27619D01*
X61796Y-27421D01*
X61864Y-27179D01*
X61864Y-29011D01*
X61436Y-29011D01*
X61325Y-29033D01*
X61231Y-29096D01*
X61171Y-29156D01*
X61171Y-27707D01*
X61171Y-26979D01*
X61171Y-26879D01*
X61171Y-26151D01*
X61071Y-26104D01*
X61021Y-26116D01*
X60802Y-26239D01*
X60646Y-26437D01*
X60578Y-26679D01*
X60578Y-26879D01*
X61171Y-26879D01*
X61171Y-26979D01*
X60578Y-26979D01*
X60578Y-27179D01*
X60646Y-27421D01*
X60802Y-27619D01*
X61021Y-27742D01*
X61071Y-27754D01*
X61171Y-27707D01*
X61171Y-29156D01*
X59600Y-30727D01*
X59537Y-30821D01*
X59515Y-30932D01*
X59515Y-36048D01*
X59537Y-36159D01*
X59600Y-36253D01*
X59828Y-36481D01*
X59826Y-36489D01*
X59826Y-36698D01*
X59906Y-36891D01*
X60053Y-37039D01*
X60246Y-37119D01*
X60455Y-37119D01*
X60648Y-37039D01*
X60691Y-36996D01*
X60913Y-37218D01*
X61007Y-37281D01*
X61118Y-37303D01*
X62232Y-37303D01*
X59480Y-40055D01*
X59417Y-40149D01*
X59395Y-40260D01*
X59395Y-44857D01*
X59417Y-44968D01*
X59480Y-45062D01*
X59684Y-45266D01*
X59778Y-45329D01*
X59889Y-45351D01*
X68776Y-45351D01*
X68823Y-45398D01*
X68914Y-45435D01*
X68853Y-45461D01*
X68826Y-45555D01*
X69134Y-45862D01*
X69442Y-45555D01*
X69415Y-45461D01*
X69349Y-45437D01*
X69445Y-45398D01*
X69599Y-45244D01*
X69683Y-45042D01*
X69683Y-44824D01*
X69599Y-44622D01*
X69459Y-44482D01*
X69483Y-44482D01*
X69575Y-44444D01*
X69645Y-44374D01*
X69683Y-44283D01*
X69683Y-44184D01*
X69683Y-43584D01*
X69645Y-43492D01*
X69575Y-43422D01*
X69484Y-43384D01*
X69385Y-43384D01*
X68967Y-43384D01*
X68967Y-43270D01*
X69056Y-43181D01*
X69119Y-43087D01*
X69139Y-42981D01*
X69246Y-43025D01*
X69455Y-43025D01*
X69648Y-42945D01*
X69796Y-42798D01*
X69851Y-42664D01*
X69906Y-42797D01*
X70053Y-42945D01*
X70246Y-43025D01*
X70455Y-43025D01*
X70648Y-42945D01*
X70796Y-42798D01*
X70851Y-42664D01*
X70906Y-42797D01*
X71053Y-42945D01*
X71246Y-43025D01*
X71455Y-43025D01*
X71648Y-42945D01*
X71796Y-42798D01*
X71851Y-42664D01*
X71906Y-42797D01*
X72053Y-42945D01*
X72246Y-43025D01*
X72455Y-43025D01*
X72648Y-42945D01*
X72796Y-42798D01*
X72851Y-42664D01*
X72906Y-42797D01*
X73053Y-42945D01*
X73246Y-43025D01*
X73455Y-43025D01*
X73648Y-42945D01*
X73796Y-42798D01*
X73851Y-42664D01*
X73906Y-42797D01*
X74053Y-42945D01*
X74246Y-43025D01*
X74455Y-43025D01*
X74648Y-42945D01*
X74796Y-42798D01*
X74876Y-42605D01*
X74876Y-42396D01*
X74796Y-42203D01*
X74649Y-42055D01*
X74456Y-41975D01*
X74247Y-41975D01*
X74054Y-42055D01*
X73906Y-42202D01*
X73850Y-42335D01*
X73796Y-42203D01*
X73649Y-42055D01*
X73456Y-41975D01*
X73247Y-41975D01*
X73054Y-42055D01*
X72906Y-42202D01*
X72850Y-42335D01*
X72796Y-42203D01*
X72649Y-42055D01*
X72456Y-41975D01*
X72286Y-41975D01*
X74981Y-39281D01*
X74981Y-39280D01*
X75044Y-39186D01*
X75065Y-39075D01*
X75066Y-39075D01*
X75066Y-46443D01*
X74819Y-46443D01*
X74554Y-46553D01*
X74388Y-46718D01*
X74388Y-44381D01*
X74388Y-44172D01*
X74308Y-43979D01*
X74161Y-43831D01*
X73968Y-43751D01*
X73759Y-43751D01*
X73566Y-43831D01*
X73418Y-43978D01*
X73414Y-43986D01*
X71310Y-43986D01*
X71308Y-43979D01*
X71161Y-43831D01*
X70968Y-43751D01*
X70759Y-43751D01*
X70566Y-43831D01*
X70418Y-43978D01*
X70338Y-44171D01*
X70338Y-44380D01*
X70418Y-44573D01*
X70565Y-44721D01*
X70758Y-44801D01*
X70967Y-44801D01*
X71160Y-44721D01*
X71308Y-44574D01*
X71311Y-44566D01*
X73415Y-44566D01*
X73418Y-44573D01*
X73565Y-44721D01*
X73758Y-44801D01*
X73967Y-44801D01*
X74160Y-44721D01*
X74308Y-44574D01*
X74388Y-44381D01*
X74388Y-46718D01*
X74382Y-46724D01*
X74382Y-46350D01*
X74371Y-46146D01*
X74315Y-46009D01*
X74224Y-45986D01*
X74153Y-46057D01*
X74153Y-45915D01*
X74130Y-45824D01*
X73937Y-45757D01*
X73733Y-45768D01*
X73596Y-45824D01*
X73573Y-45915D01*
X73863Y-46205D01*
X74153Y-45915D01*
X74153Y-46057D01*
X73934Y-46276D01*
X74224Y-46566D01*
X74315Y-46543D01*
X74382Y-46350D01*
X74382Y-46724D01*
X74350Y-46756D01*
X74240Y-47021D01*
X74240Y-47308D01*
X74350Y-47573D01*
X74553Y-47777D01*
X74818Y-47887D01*
X74994Y-47887D01*
X74929Y-47900D01*
X74153Y-47900D01*
X74153Y-46637D01*
X73863Y-46347D01*
X73792Y-46418D01*
X73792Y-46276D01*
X73502Y-45986D01*
X73411Y-46009D01*
X73344Y-46202D01*
X73355Y-46406D01*
X73411Y-46543D01*
X73502Y-46566D01*
X73792Y-46276D01*
X73792Y-46418D01*
X73573Y-46637D01*
X73596Y-46728D01*
X73789Y-46795D01*
X73993Y-46784D01*
X74130Y-46728D01*
X74153Y-46637D01*
X74153Y-47900D01*
X71382Y-47900D01*
X71382Y-46350D01*
X71371Y-46146D01*
X71315Y-46009D01*
X71224Y-45986D01*
X71153Y-46057D01*
X71153Y-45915D01*
X71130Y-45824D01*
X70937Y-45757D01*
X70733Y-45768D01*
X70596Y-45824D01*
X70573Y-45915D01*
X70863Y-46205D01*
X71153Y-45915D01*
X71153Y-46057D01*
X70934Y-46276D01*
X71224Y-46566D01*
X71315Y-46543D01*
X71382Y-46350D01*
X71382Y-47900D01*
X71153Y-47900D01*
X71153Y-46637D01*
X70863Y-46347D01*
X70792Y-46418D01*
X70792Y-46276D01*
X70502Y-45986D01*
X70411Y-46009D01*
X70344Y-46202D01*
X70355Y-46406D01*
X70411Y-46543D01*
X70502Y-46566D01*
X70792Y-46276D01*
X70792Y-46418D01*
X70573Y-46637D01*
X70596Y-46728D01*
X70789Y-46795D01*
X70993Y-46784D01*
X71130Y-46728D01*
X71153Y-46637D01*
X71153Y-47900D01*
X69677Y-47900D01*
X69677Y-47012D01*
X69677Y-46012D01*
X69666Y-45799D01*
X69606Y-45652D01*
X69512Y-45625D01*
X69205Y-45933D01*
X69512Y-46241D01*
X69606Y-46214D01*
X69677Y-46012D01*
X69677Y-47012D01*
X69666Y-46799D01*
X69606Y-46652D01*
X69512Y-46625D01*
X69442Y-46695D01*
X69442Y-46555D01*
X69415Y-46461D01*
X69341Y-46435D01*
X69415Y-46405D01*
X69442Y-46311D01*
X69134Y-46004D01*
X69063Y-46074D01*
X69063Y-45933D01*
X68756Y-45625D01*
X68662Y-45652D01*
X68591Y-45854D01*
X68602Y-46067D01*
X68662Y-46214D01*
X68756Y-46241D01*
X69063Y-45933D01*
X69063Y-46074D01*
X68826Y-46311D01*
X68853Y-46405D01*
X68926Y-46430D01*
X68853Y-46461D01*
X68826Y-46555D01*
X69134Y-46862D01*
X69442Y-46555D01*
X69442Y-46695D01*
X69205Y-46933D01*
X69512Y-47241D01*
X69606Y-47214D01*
X69677Y-47012D01*
X69677Y-47900D01*
X69442Y-47900D01*
X69442Y-47311D01*
X69134Y-47004D01*
X69063Y-47074D01*
X69063Y-46933D01*
X68756Y-46625D01*
X68662Y-46652D01*
X68591Y-46854D01*
X68602Y-47067D01*
X68662Y-47214D01*
X68756Y-47241D01*
X69063Y-46933D01*
X69063Y-47074D01*
X68826Y-47311D01*
X68853Y-47405D01*
X69055Y-47476D01*
X69268Y-47465D01*
X69415Y-47405D01*
X69442Y-47311D01*
X69442Y-47900D01*
X67925Y-47900D01*
X67925Y-46350D01*
X67914Y-46146D01*
X67858Y-46009D01*
X67767Y-45986D01*
X67696Y-46057D01*
X67696Y-45915D01*
X67673Y-45824D01*
X67480Y-45757D01*
X67276Y-45768D01*
X67139Y-45824D01*
X67116Y-45915D01*
X67406Y-46205D01*
X67696Y-45915D01*
X67696Y-46057D01*
X67477Y-46276D01*
X67767Y-46566D01*
X67858Y-46543D01*
X67925Y-46350D01*
X67925Y-47900D01*
X67696Y-47900D01*
X67696Y-46637D01*
X67406Y-46347D01*
X67335Y-46418D01*
X67335Y-46276D01*
X67045Y-45986D01*
X66954Y-46009D01*
X66887Y-46202D01*
X66898Y-46406D01*
X66954Y-46543D01*
X67045Y-46566D01*
X67335Y-46276D01*
X67335Y-46418D01*
X67116Y-46637D01*
X67139Y-46728D01*
X67332Y-46795D01*
X67536Y-46784D01*
X67673Y-46728D01*
X67696Y-46637D01*
X67696Y-47900D01*
X64925Y-47900D01*
X64925Y-46350D01*
X64914Y-46146D01*
X64858Y-46009D01*
X64767Y-45986D01*
X64696Y-46057D01*
X64696Y-45915D01*
X64673Y-45824D01*
X64480Y-45757D01*
X64276Y-45768D01*
X64139Y-45824D01*
X64116Y-45915D01*
X64406Y-46205D01*
X64696Y-45915D01*
X64696Y-46057D01*
X64477Y-46276D01*
X64767Y-46566D01*
X64858Y-46543D01*
X64925Y-46350D01*
X64925Y-47900D01*
X64696Y-47900D01*
X64696Y-46637D01*
X64406Y-46347D01*
X64335Y-46418D01*
X64335Y-46276D01*
X64045Y-45986D01*
X63954Y-46009D01*
X63887Y-46202D01*
X63898Y-46406D01*
X63954Y-46543D01*
X64045Y-46566D01*
X64335Y-46276D01*
X64335Y-46418D01*
X64116Y-46637D01*
X64139Y-46728D01*
X64332Y-46795D01*
X64536Y-46784D01*
X64673Y-46728D01*
X64696Y-46637D01*
X64696Y-47900D01*
X63831Y-47900D01*
X63831Y-46350D01*
X63820Y-46146D01*
X63764Y-46009D01*
X63673Y-45986D01*
X63602Y-46057D01*
X63602Y-45915D01*
X63579Y-45824D01*
X63386Y-45757D01*
X63182Y-45768D01*
X63045Y-45824D01*
X63022Y-45915D01*
X63312Y-46205D01*
X63602Y-45915D01*
X63602Y-46057D01*
X63383Y-46276D01*
X63673Y-46566D01*
X63764Y-46543D01*
X63831Y-46350D01*
X63831Y-47900D01*
X63602Y-47900D01*
X63602Y-46637D01*
X63312Y-46347D01*
X63241Y-46418D01*
X63241Y-46276D01*
X62951Y-45986D01*
X62860Y-46009D01*
X62793Y-46202D01*
X62804Y-46406D01*
X62860Y-46543D01*
X62951Y-46566D01*
X63241Y-46276D01*
X63241Y-46418D01*
X63022Y-46637D01*
X63045Y-46728D01*
X63238Y-46795D01*
X63442Y-46784D01*
X63579Y-46728D01*
X63602Y-46637D01*
X63602Y-47900D01*
X60831Y-47900D01*
X60831Y-46350D01*
X60820Y-46146D01*
X60764Y-46009D01*
X60673Y-45986D01*
X60602Y-46057D01*
X60602Y-45915D01*
X60579Y-45824D01*
X60386Y-45757D01*
X60182Y-45768D01*
X60045Y-45824D01*
X60022Y-45915D01*
X60312Y-46205D01*
X60602Y-45915D01*
X60602Y-46057D01*
X60383Y-46276D01*
X60673Y-46566D01*
X60764Y-46543D01*
X60831Y-46350D01*
X60831Y-47900D01*
X60602Y-47900D01*
X60602Y-46637D01*
X60312Y-46347D01*
X60241Y-46418D01*
X60241Y-46276D01*
X59951Y-45986D01*
X59860Y-46009D01*
X59793Y-46202D01*
X59804Y-46406D01*
X59860Y-46543D01*
X59951Y-46566D01*
X60241Y-46276D01*
X60241Y-46418D01*
X60022Y-46637D01*
X60045Y-46728D01*
X60238Y-46795D01*
X60442Y-46784D01*
X60579Y-46728D01*
X60602Y-46637D01*
X60602Y-47900D01*
X59238Y-47900D01*
X59173Y-47887D01*
X59357Y-47887D01*
X59622Y-47777D01*
X59826Y-47574D01*
X59936Y-47309D01*
X59936Y-47022D01*
X59826Y-46757D01*
X59623Y-46553D01*
X59358Y-46443D01*
X59071Y-46443D01*
X58806Y-46553D01*
X58602Y-46756D01*
X58492Y-47021D01*
X58492Y-47207D01*
X58478Y-47137D01*
X58478Y-25591D01*
X58478Y-25539D01*
X58491Y-25474D01*
X58491Y-25655D01*
X58601Y-25920D01*
X58804Y-26124D01*
X59069Y-26234D01*
X59356Y-26234D01*
X59621Y-26124D01*
X59825Y-25921D01*
X59935Y-25656D01*
X59935Y-25369D01*
X59825Y-25104D01*
X59622Y-24900D01*
X59357Y-24790D01*
X59173Y-24790D01*
X59238Y-24777D01*
X74933Y-24777D01*
X74998Y-24790D01*
X74818Y-24790D01*
X74553Y-24900D01*
X74349Y-25103D01*
X74239Y-25368D01*
X74239Y-25655D01*
X74349Y-25920D01*
X74552Y-26124D01*
X74817Y-26234D01*
X75104Y-26234D01*
X75369Y-26124D01*
X75573Y-25921D01*
X75683Y-25656D01*
X75683Y-25472D01*
X75695Y-25532D01*
X75695Y-25591D01*
X75695Y-47139D01*
X75695Y-47139D01*
G37*
G54D25*
X75695Y-47139D02*
X75684Y-47194D01*
X75684Y-47022D01*
X75574Y-46757D01*
X75371Y-46553D01*
X75106Y-46443D01*
X75066Y-46443D01*
X75066Y-39075D01*
X75066Y-30213D01*
X75044Y-30102D01*
X74981Y-30008D01*
X74587Y-29614D01*
X74538Y-29581D01*
X74508Y-29508D01*
X74354Y-29354D01*
X74269Y-29319D01*
X74354Y-29284D01*
X74508Y-29130D01*
X74592Y-28928D01*
X74592Y-28710D01*
X74508Y-28508D01*
X74354Y-28354D01*
X74269Y-28319D01*
X74354Y-28284D01*
X74508Y-28130D01*
X74592Y-27928D01*
X74592Y-27710D01*
X74586Y-27695D01*
X74586Y-26898D01*
X74575Y-26685D01*
X74515Y-26538D01*
X74421Y-26511D01*
X74351Y-26581D01*
X74351Y-26441D01*
X74324Y-26347D01*
X74122Y-26276D01*
X73909Y-26287D01*
X73762Y-26347D01*
X73735Y-26441D01*
X74043Y-26748D01*
X74351Y-26441D01*
X74351Y-26581D01*
X74114Y-26819D01*
X74421Y-27127D01*
X74515Y-27100D01*
X74586Y-26898D01*
X74586Y-27695D01*
X74508Y-27508D01*
X74354Y-27354D01*
X74262Y-27316D01*
X74324Y-27291D01*
X74351Y-27197D01*
X74043Y-26890D01*
X73972Y-26960D01*
X73972Y-26819D01*
X73665Y-26511D01*
X73571Y-26538D01*
X73545Y-26611D01*
X73515Y-26538D01*
X73421Y-26511D01*
X73351Y-26581D01*
X73351Y-26441D01*
X73324Y-26347D01*
X73122Y-26276D01*
X72909Y-26287D01*
X72762Y-26347D01*
X72735Y-26441D01*
X73043Y-26748D01*
X73351Y-26441D01*
X73351Y-26581D01*
X73114Y-26819D01*
X73421Y-27127D01*
X73515Y-27100D01*
X73540Y-27026D01*
X73571Y-27100D01*
X73665Y-27127D01*
X73972Y-26819D01*
X73972Y-26960D01*
X73735Y-27197D01*
X73762Y-27291D01*
X73827Y-27314D01*
X73732Y-27354D01*
X73578Y-27508D01*
X73543Y-27592D01*
X73508Y-27508D01*
X73354Y-27354D01*
X73262Y-27316D01*
X73324Y-27291D01*
X73351Y-27197D01*
X73043Y-26890D01*
X72972Y-26960D01*
X72972Y-26819D01*
X72665Y-26511D01*
X72571Y-26538D01*
X72500Y-26740D01*
X72511Y-26953D01*
X72571Y-27100D01*
X72665Y-27127D01*
X72972Y-26819D01*
X72972Y-26960D01*
X72735Y-27197D01*
X72762Y-27291D01*
X72827Y-27314D01*
X72732Y-27354D01*
X72578Y-27508D01*
X72494Y-27710D01*
X72494Y-27928D01*
X72578Y-28130D01*
X72732Y-28284D01*
X72816Y-28319D01*
X72732Y-28354D01*
X72578Y-28508D01*
X72494Y-28710D01*
X72494Y-28928D01*
X72528Y-29011D01*
X71694Y-29011D01*
X71694Y-27271D01*
X71694Y-27020D01*
X71694Y-26588D01*
X71598Y-26356D01*
X71421Y-26178D01*
X71189Y-26082D01*
X70938Y-26082D01*
X70706Y-26178D01*
X70528Y-26355D01*
X70432Y-26587D01*
X70432Y-26838D01*
X70432Y-27270D01*
X70528Y-27502D01*
X70705Y-27680D01*
X70937Y-27776D01*
X71188Y-27776D01*
X71420Y-27680D01*
X71598Y-27503D01*
X71694Y-27271D01*
X71694Y-29011D01*
X69738Y-29011D01*
X69738Y-27179D01*
X69738Y-26979D01*
X69738Y-26879D01*
X69738Y-26679D01*
X69670Y-26437D01*
X69514Y-26239D01*
X69295Y-26116D01*
X69245Y-26104D01*
X69145Y-26151D01*
X69145Y-26879D01*
X69738Y-26879D01*
X69738Y-26979D01*
X69145Y-26979D01*
X69145Y-27707D01*
X69245Y-27754D01*
X69295Y-27742D01*
X69514Y-27619D01*
X69670Y-27421D01*
X69738Y-27179D01*
X69738Y-29011D01*
X69045Y-29011D01*
X69045Y-27707D01*
X69045Y-26979D01*
X69045Y-26879D01*
X69045Y-26151D01*
X68945Y-26104D01*
X68895Y-26116D01*
X68676Y-26239D01*
X68520Y-26437D01*
X68452Y-26679D01*
X68452Y-26879D01*
X69045Y-26879D01*
X69045Y-26979D01*
X68452Y-26979D01*
X68452Y-27179D01*
X68520Y-27421D01*
X68676Y-27619D01*
X68895Y-27742D01*
X68945Y-27754D01*
X69045Y-27707D01*
X69045Y-29011D01*
X67756Y-29011D01*
X67756Y-27272D01*
X67756Y-27021D01*
X67756Y-26589D01*
X67660Y-26357D01*
X67483Y-26179D01*
X67251Y-26083D01*
X67000Y-26083D01*
X66768Y-26179D01*
X66590Y-26356D01*
X66494Y-26588D01*
X66494Y-26839D01*
X66494Y-27271D01*
X66590Y-27503D01*
X66767Y-27681D01*
X66999Y-27777D01*
X67250Y-27777D01*
X67482Y-27681D01*
X67660Y-27504D01*
X67756Y-27272D01*
X67756Y-29011D01*
X65800Y-29011D01*
X65800Y-27180D01*
X65800Y-26980D01*
X65800Y-26880D01*
X65800Y-26680D01*
X65732Y-26438D01*
X65576Y-26240D01*
X65357Y-26117D01*
X65307Y-26105D01*
X65207Y-26152D01*
X65207Y-26880D01*
X65800Y-26880D01*
X65800Y-26980D01*
X65207Y-26980D01*
X65207Y-27708D01*
X65307Y-27755D01*
X65357Y-27743D01*
X65576Y-27620D01*
X65732Y-27422D01*
X65800Y-27180D01*
X65800Y-29011D01*
X65107Y-29011D01*
X65107Y-27708D01*
X65107Y-26980D01*
X65107Y-26880D01*
X65107Y-26152D01*
X65007Y-26105D01*
X64957Y-26117D01*
X64738Y-26240D01*
X64582Y-26438D01*
X64514Y-26680D01*
X64514Y-26880D01*
X65107Y-26880D01*
X65107Y-26980D01*
X64514Y-26980D01*
X64514Y-27180D01*
X64582Y-27422D01*
X64738Y-27620D01*
X64957Y-27743D01*
X65007Y-27755D01*
X65107Y-27708D01*
X65107Y-29011D01*
X63820Y-29011D01*
X63820Y-27271D01*
X63820Y-27020D01*
X63820Y-26588D01*
X63724Y-26356D01*
X63547Y-26178D01*
X63315Y-26082D01*
X63064Y-26082D01*
X62832Y-26178D01*
X62654Y-26355D01*
X62558Y-26587D01*
X62558Y-26838D01*
X62558Y-27270D01*
X62654Y-27502D01*
X62831Y-27680D01*
X63063Y-27776D01*
X63314Y-27776D01*
X63546Y-27680D01*
X63724Y-27503D01*
X63820Y-27271D01*
X63820Y-29011D01*
X61864Y-29011D01*
X61864Y-27179D01*
X61864Y-26979D01*
X61864Y-26879D01*
X61864Y-26679D01*
X61796Y-26437D01*
X61640Y-26239D01*
X61421Y-26116D01*
X61371Y-26104D01*
X61271Y-26151D01*
X61271Y-26879D01*
X61864Y-26879D01*
X61864Y-26979D01*
X61271Y-26979D01*
X61271Y-27707D01*
X61371Y-27754D01*
X61421Y-27742D01*
X61640Y-27619D01*
X61796Y-27421D01*
X61864Y-27179D01*
X61864Y-29011D01*
X61436Y-29011D01*
X61325Y-29033D01*
X61231Y-29096D01*
X61171Y-29156D01*
X61171Y-27707D01*
X61171Y-26979D01*
X61171Y-26879D01*
X61171Y-26151D01*
X61071Y-26104D01*
X61021Y-26116D01*
X60802Y-26239D01*
X60646Y-26437D01*
X60578Y-26679D01*
X60578Y-26879D01*
X61171Y-26879D01*
X61171Y-26979D01*
X60578Y-26979D01*
X60578Y-27179D01*
X60646Y-27421D01*
X60802Y-27619D01*
X61021Y-27742D01*
X61071Y-27754D01*
X61171Y-27707D01*
X61171Y-29156D01*
X59600Y-30727D01*
X59537Y-30821D01*
X59515Y-30932D01*
X59515Y-36048D01*
X59537Y-36159D01*
X59600Y-36253D01*
X59828Y-36481D01*
X59826Y-36489D01*
X59826Y-36698D01*
X59906Y-36891D01*
X60053Y-37039D01*
X60246Y-37119D01*
X60455Y-37119D01*
X60648Y-37039D01*
X60691Y-36996D01*
X60913Y-37218D01*
X61007Y-37281D01*
X61118Y-37303D01*
X62232Y-37303D01*
X59480Y-40055D01*
X59417Y-40149D01*
X59395Y-40260D01*
X59395Y-44857D01*
X59417Y-44968D01*
X59480Y-45062D01*
X59684Y-45266D01*
X59778Y-45329D01*
X59889Y-45351D01*
X68776Y-45351D01*
X68823Y-45398D01*
X68914Y-45435D01*
X68853Y-45461D01*
X68826Y-45555D01*
X69134Y-45862D01*
X69442Y-45555D01*
X69415Y-45461D01*
X69349Y-45437D01*
X69445Y-45398D01*
X69599Y-45244D01*
X69683Y-45042D01*
X69683Y-44824D01*
X69599Y-44622D01*
X69459Y-44482D01*
X69483Y-44482D01*
X69575Y-44444D01*
X69645Y-44374D01*
X69683Y-44283D01*
X69683Y-44184D01*
X69683Y-43584D01*
X69645Y-43492D01*
X69575Y-43422D01*
X69484Y-43384D01*
X69385Y-43384D01*
X68967Y-43384D01*
X68967Y-43270D01*
X69056Y-43181D01*
X69119Y-43087D01*
X69139Y-42981D01*
X69246Y-43025D01*
X69455Y-43025D01*
X69648Y-42945D01*
X69796Y-42798D01*
X69851Y-42664D01*
X69906Y-42797D01*
X70053Y-42945D01*
X70246Y-43025D01*
X70455Y-43025D01*
X70648Y-42945D01*
X70796Y-42798D01*
X70851Y-42664D01*
X70906Y-42797D01*
X71053Y-42945D01*
X71246Y-43025D01*
X71455Y-43025D01*
X71648Y-42945D01*
X71796Y-42798D01*
X71851Y-42664D01*
X71906Y-42797D01*
X72053Y-42945D01*
X72246Y-43025D01*
X72455Y-43025D01*
X72648Y-42945D01*
X72796Y-42798D01*
X72851Y-42664D01*
X72906Y-42797D01*
X73053Y-42945D01*
X73246Y-43025D01*
X73455Y-43025D01*
X73648Y-42945D01*
X73796Y-42798D01*
X73851Y-42664D01*
X73906Y-42797D01*
X74053Y-42945D01*
X74246Y-43025D01*
X74455Y-43025D01*
X74648Y-42945D01*
X74796Y-42798D01*
X74876Y-42605D01*
X74876Y-42396D01*
X74796Y-42203D01*
X74649Y-42055D01*
X74456Y-41975D01*
X74247Y-41975D01*
X74054Y-42055D01*
X73906Y-42202D01*
X73850Y-42335D01*
X73796Y-42203D01*
X73649Y-42055D01*
X73456Y-41975D01*
X73247Y-41975D01*
X73054Y-42055D01*
X72906Y-42202D01*
X72850Y-42335D01*
X72796Y-42203D01*
X72649Y-42055D01*
X72456Y-41975D01*
X72286Y-41975D01*
X74981Y-39281D01*
X74981Y-39280D01*
X75044Y-39186D01*
X75065Y-39075D01*
X75066Y-39075D01*
X75066Y-46443D01*
X74819Y-46443D01*
X74554Y-46553D01*
X74388Y-46718D01*
X74388Y-44381D01*
X74388Y-44172D01*
X74308Y-43979D01*
X74161Y-43831D01*
X73968Y-43751D01*
X73759Y-43751D01*
X73566Y-43831D01*
X73418Y-43978D01*
X73414Y-43986D01*
X71310Y-43986D01*
X71308Y-43979D01*
X71161Y-43831D01*
X70968Y-43751D01*
X70759Y-43751D01*
X70566Y-43831D01*
X70418Y-43978D01*
X70338Y-44171D01*
X70338Y-44380D01*
X70418Y-44573D01*
X70565Y-44721D01*
X70758Y-44801D01*
X70967Y-44801D01*
X71160Y-44721D01*
X71308Y-44574D01*
X71311Y-44566D01*
X73415Y-44566D01*
X73418Y-44573D01*
X73565Y-44721D01*
X73758Y-44801D01*
X73967Y-44801D01*
X74160Y-44721D01*
X74308Y-44574D01*
X74388Y-44381D01*
X74388Y-46718D01*
X74382Y-46724D01*
X74382Y-46350D01*
X74371Y-46146D01*
X74315Y-46009D01*
X74224Y-45986D01*
X74153Y-46057D01*
X74153Y-45915D01*
X74130Y-45824D01*
X73937Y-45757D01*
X73733Y-45768D01*
X73596Y-45824D01*
X73573Y-45915D01*
X73863Y-46205D01*
X74153Y-45915D01*
X74153Y-46057D01*
X73934Y-46276D01*
X74224Y-46566D01*
X74315Y-46543D01*
X74382Y-46350D01*
X74382Y-46724D01*
X74350Y-46756D01*
X74240Y-47021D01*
X74240Y-47308D01*
X74350Y-47573D01*
X74553Y-47777D01*
X74818Y-47887D01*
X74994Y-47887D01*
X74929Y-47900D01*
X74153Y-47900D01*
X74153Y-46637D01*
X73863Y-46347D01*
X73792Y-46418D01*
X73792Y-46276D01*
X73502Y-45986D01*
X73411Y-46009D01*
X73344Y-46202D01*
X73355Y-46406D01*
X73411Y-46543D01*
X73502Y-46566D01*
X73792Y-46276D01*
X73792Y-46418D01*
X73573Y-46637D01*
X73596Y-46728D01*
X73789Y-46795D01*
X73993Y-46784D01*
X74130Y-46728D01*
X74153Y-46637D01*
X74153Y-47900D01*
X71382Y-47900D01*
X71382Y-46350D01*
X71371Y-46146D01*
X71315Y-46009D01*
X71224Y-45986D01*
X71153Y-46057D01*
X71153Y-45915D01*
X71130Y-45824D01*
X70937Y-45757D01*
X70733Y-45768D01*
X70596Y-45824D01*
X70573Y-45915D01*
X70863Y-46205D01*
X71153Y-45915D01*
X71153Y-46057D01*
X70934Y-46276D01*
X71224Y-46566D01*
X71315Y-46543D01*
X71382Y-46350D01*
X71382Y-47900D01*
X71153Y-47900D01*
X71153Y-46637D01*
X70863Y-46347D01*
X70792Y-46418D01*
X70792Y-46276D01*
X70502Y-45986D01*
X70411Y-46009D01*
X70344Y-46202D01*
X70355Y-46406D01*
X70411Y-46543D01*
X70502Y-46566D01*
X70792Y-46276D01*
X70792Y-46418D01*
X70573Y-46637D01*
X70596Y-46728D01*
X70789Y-46795D01*
X70993Y-46784D01*
X71130Y-46728D01*
X71153Y-46637D01*
X71153Y-47900D01*
X69677Y-47900D01*
X69677Y-47012D01*
X69677Y-46012D01*
X69666Y-45799D01*
X69606Y-45652D01*
X69512Y-45625D01*
X69205Y-45933D01*
X69512Y-46241D01*
X69606Y-46214D01*
X69677Y-46012D01*
X69677Y-47012D01*
X69666Y-46799D01*
X69606Y-46652D01*
X69512Y-46625D01*
X69442Y-46695D01*
X69442Y-46555D01*
X69415Y-46461D01*
X69341Y-46435D01*
X69415Y-46405D01*
X69442Y-46311D01*
X69134Y-46004D01*
X69063Y-46074D01*
X69063Y-45933D01*
X68756Y-45625D01*
X68662Y-45652D01*
X68591Y-45854D01*
X68602Y-46067D01*
X68662Y-46214D01*
X68756Y-46241D01*
X69063Y-45933D01*
X69063Y-46074D01*
X68826Y-46311D01*
X68853Y-46405D01*
X68926Y-46430D01*
X68853Y-46461D01*
X68826Y-46555D01*
X69134Y-46862D01*
X69442Y-46555D01*
X69442Y-46695D01*
X69205Y-46933D01*
X69512Y-47241D01*
X69606Y-47214D01*
X69677Y-47012D01*
X69677Y-47900D01*
X69442Y-47900D01*
X69442Y-47311D01*
X69134Y-47004D01*
X69063Y-47074D01*
X69063Y-46933D01*
X68756Y-46625D01*
X68662Y-46652D01*
X68591Y-46854D01*
X68602Y-47067D01*
X68662Y-47214D01*
X68756Y-47241D01*
X69063Y-46933D01*
X69063Y-47074D01*
X68826Y-47311D01*
X68853Y-47405D01*
X69055Y-47476D01*
X69268Y-47465D01*
X69415Y-47405D01*
X69442Y-47311D01*
X69442Y-47900D01*
X67925Y-47900D01*
X67925Y-46350D01*
X67914Y-46146D01*
X67858Y-46009D01*
X67767Y-45986D01*
X67696Y-46057D01*
X67696Y-45915D01*
X67673Y-45824D01*
X67480Y-45757D01*
X67276Y-45768D01*
X67139Y-45824D01*
X67116Y-45915D01*
X67406Y-46205D01*
X67696Y-45915D01*
X67696Y-46057D01*
X67477Y-46276D01*
X67767Y-46566D01*
X67858Y-46543D01*
X67925Y-46350D01*
X67925Y-47900D01*
X67696Y-47900D01*
X67696Y-46637D01*
X67406Y-46347D01*
X67335Y-46418D01*
X67335Y-46276D01*
X67045Y-45986D01*
X66954Y-46009D01*
X66887Y-46202D01*
X66898Y-46406D01*
X66954Y-46543D01*
X67045Y-46566D01*
X67335Y-46276D01*
X67335Y-46418D01*
X67116Y-46637D01*
X67139Y-46728D01*
X67332Y-46795D01*
X67536Y-46784D01*
X67673Y-46728D01*
X67696Y-46637D01*
X67696Y-47900D01*
X64925Y-47900D01*
X64925Y-46350D01*
X64914Y-46146D01*
X64858Y-46009D01*
X64767Y-45986D01*
X64696Y-46057D01*
X64696Y-45915D01*
X64673Y-45824D01*
X64480Y-45757D01*
X64276Y-45768D01*
X64139Y-45824D01*
X64116Y-45915D01*
X64406Y-46205D01*
X64696Y-45915D01*
X64696Y-46057D01*
X64477Y-46276D01*
X64767Y-46566D01*
X64858Y-46543D01*
X64925Y-46350D01*
X64925Y-47900D01*
X64696Y-47900D01*
X64696Y-46637D01*
X64406Y-46347D01*
X64335Y-46418D01*
X64335Y-46276D01*
X64045Y-45986D01*
X63954Y-46009D01*
X63887Y-46202D01*
X63898Y-46406D01*
X63954Y-46543D01*
X64045Y-46566D01*
X64335Y-46276D01*
X64335Y-46418D01*
X64116Y-46637D01*
X64139Y-46728D01*
X64332Y-46795D01*
X64536Y-46784D01*
X64673Y-46728D01*
X64696Y-46637D01*
X64696Y-47900D01*
X63831Y-47900D01*
X63831Y-46350D01*
X63820Y-46146D01*
X63764Y-46009D01*
X63673Y-45986D01*
X63602Y-46057D01*
X63602Y-45915D01*
X63579Y-45824D01*
X63386Y-45757D01*
X63182Y-45768D01*
X63045Y-45824D01*
X63022Y-45915D01*
X63312Y-46205D01*
X63602Y-45915D01*
X63602Y-46057D01*
X63383Y-46276D01*
X63673Y-46566D01*
X63764Y-46543D01*
X63831Y-46350D01*
X63831Y-47900D01*
X63602Y-47900D01*
X63602Y-46637D01*
X63312Y-46347D01*
X63241Y-46418D01*
X63241Y-46276D01*
X62951Y-45986D01*
X62860Y-46009D01*
X62793Y-46202D01*
X62804Y-46406D01*
X62860Y-46543D01*
X62951Y-46566D01*
X63241Y-46276D01*
X63241Y-46418D01*
X63022Y-46637D01*
X63045Y-46728D01*
X63238Y-46795D01*
X63442Y-46784D01*
X63579Y-46728D01*
X63602Y-46637D01*
X63602Y-47900D01*
X60831Y-47900D01*
X60831Y-46350D01*
X60820Y-46146D01*
X60764Y-46009D01*
X60673Y-45986D01*
X60602Y-46057D01*
X60602Y-45915D01*
X60579Y-45824D01*
X60386Y-45757D01*
X60182Y-45768D01*
X60045Y-45824D01*
X60022Y-45915D01*
X60312Y-46205D01*
X60602Y-45915D01*
X60602Y-46057D01*
X60383Y-46276D01*
X60673Y-46566D01*
X60764Y-46543D01*
X60831Y-46350D01*
X60831Y-47900D01*
X60602Y-47900D01*
X60602Y-46637D01*
X60312Y-46347D01*
X60241Y-46418D01*
X60241Y-46276D01*
X59951Y-45986D01*
X59860Y-46009D01*
X59793Y-46202D01*
X59804Y-46406D01*
X59860Y-46543D01*
X59951Y-46566D01*
X60241Y-46276D01*
X60241Y-46418D01*
X60022Y-46637D01*
X60045Y-46728D01*
X60238Y-46795D01*
X60442Y-46784D01*
X60579Y-46728D01*
X60602Y-46637D01*
X60602Y-47900D01*
X59238Y-47900D01*
X59173Y-47887D01*
X59357Y-47887D01*
X59622Y-47777D01*
X59826Y-47574D01*
X59936Y-47309D01*
X59936Y-47022D01*
X59826Y-46757D01*
X59623Y-46553D01*
X59358Y-46443D01*
X59071Y-46443D01*
X58806Y-46553D01*
X58602Y-46756D01*
X58492Y-47021D01*
X58492Y-47207D01*
X58478Y-47137D01*
X58478Y-25591D01*
X58478Y-25539D01*
X58491Y-25474D01*
X58491Y-25655D01*
X58601Y-25920D01*
X58804Y-26124D01*
X59069Y-26234D01*
X59356Y-26234D01*
X59621Y-26124D01*
X59825Y-25921D01*
X59935Y-25656D01*
X59935Y-25369D01*
X59825Y-25104D01*
X59622Y-24900D01*
X59357Y-24790D01*
X59173Y-24790D01*
X59238Y-24777D01*
X74933Y-24777D01*
X74998Y-24790D01*
X74818Y-24790D01*
X74553Y-24900D01*
X74349Y-25103D01*
X74239Y-25368D01*
X74239Y-25655D01*
X74349Y-25920D01*
X74552Y-26124D01*
X74817Y-26234D01*
X75104Y-26234D01*
X75369Y-26124D01*
X75573Y-25921D01*
X75683Y-25656D01*
X75683Y-25472D01*
X75695Y-25532D01*
X75695Y-25591D01*
X75695Y-47139D01*
M02*
