%FSLAX34Y34*%
G04 Gerber Fmt 3.4, Leading zero omitted, Abs format*
G04 (created by PCBNEW (2014-03-19 BZR 4756)-product) date Sun 01 Jun 2014 22:33:16 BST*
%MOIN*%
G01*
G70*
G90*
G04 APERTURE LIST*
%ADD10C,0.005906*%
%ADD11C,0.007900*%
%ADD12C,0.007874*%
%ADD13C,0.114500*%
%ADD14R,0.100000X0.088000*%
%ADD15O,0.100000X0.088000*%
%ADD16O,0.098700X0.138700*%
%ADD17R,0.080000X0.080000*%
%ADD18C,0.080000*%
%ADD19C,0.075000*%
%ADD20R,0.075000X0.075000*%
%ADD21R,0.065000X0.045000*%
%ADD22R,0.043600X0.035700*%
%ADD23C,0.078300*%
%ADD24R,0.045000X0.065000*%
%ADD25O,0.106614X0.075118*%
%ADD26R,0.106614X0.075118*%
%ADD27O,0.051496X0.063307*%
%ADD28R,0.051496X0.063307*%
%ADD29O,0.059370X0.075118*%
%ADD30R,0.059370X0.075118*%
%ADD31R,0.035700X0.043600*%
%ADD32C,0.079055*%
G04 APERTURE END LIST*
G54D10*
G54D11*
X52145Y-40433D02*
X67893Y-40433D01*
X51161Y-39448D02*
X51161Y-21732D01*
X51161Y-39448D02*
G75*
G03X52145Y-40433I984J0D01*
G74*
G01*
X52145Y-20748D02*
X67893Y-20748D01*
X52145Y-20748D02*
G75*
G03X51161Y-21732I0J-984D01*
G74*
G01*
X68877Y-39448D02*
X68877Y-21732D01*
X67893Y-40433D02*
G75*
G03X68877Y-39448I0J984D01*
G74*
G01*
X68877Y-21732D02*
G75*
G03X67893Y-20748I-984J0D01*
G74*
G01*
G54D12*
X51530Y-23443D02*
X51530Y-23263D01*
X51530Y-23353D02*
X51845Y-23353D01*
X51800Y-23323D01*
X51770Y-23293D01*
X51755Y-23263D01*
X51845Y-23638D02*
X51845Y-23668D01*
X51830Y-23698D01*
X51815Y-23713D01*
X51785Y-23728D01*
X51725Y-23743D01*
X51650Y-23743D01*
X51590Y-23728D01*
X51560Y-23713D01*
X51545Y-23698D01*
X51530Y-23668D01*
X51530Y-23638D01*
X51545Y-23608D01*
X51560Y-23593D01*
X51590Y-23578D01*
X51650Y-23563D01*
X51725Y-23563D01*
X51785Y-23578D01*
X51815Y-23593D01*
X51830Y-23608D01*
X51845Y-23638D01*
X51740Y-23833D02*
X51740Y-23953D01*
X51845Y-23878D02*
X51575Y-23878D01*
X51545Y-23893D01*
X51530Y-23923D01*
X51530Y-23953D01*
X51530Y-24103D02*
X51545Y-24073D01*
X51560Y-24058D01*
X51590Y-24043D01*
X51680Y-24043D01*
X51710Y-24058D01*
X51725Y-24073D01*
X51740Y-24103D01*
X51740Y-24148D01*
X51725Y-24178D01*
X51710Y-24193D01*
X51680Y-24208D01*
X51590Y-24208D01*
X51560Y-24193D01*
X51545Y-24178D01*
X51530Y-24148D01*
X51530Y-24103D01*
X51845Y-24313D02*
X51845Y-24523D01*
X51530Y-24388D01*
X51560Y-24643D02*
X51545Y-24658D01*
X51530Y-24643D01*
X51545Y-24628D01*
X51560Y-24643D01*
X51530Y-24643D01*
X51545Y-24928D02*
X51530Y-24898D01*
X51530Y-24838D01*
X51545Y-24808D01*
X51560Y-24793D01*
X51590Y-24778D01*
X51680Y-24778D01*
X51710Y-24793D01*
X51725Y-24808D01*
X51740Y-24838D01*
X51740Y-24898D01*
X51725Y-24928D01*
X51530Y-25108D02*
X51545Y-25078D01*
X51560Y-25063D01*
X51590Y-25048D01*
X51680Y-25048D01*
X51710Y-25063D01*
X51725Y-25078D01*
X51740Y-25108D01*
X51740Y-25153D01*
X51725Y-25183D01*
X51710Y-25198D01*
X51680Y-25213D01*
X51590Y-25213D01*
X51560Y-25198D01*
X51545Y-25183D01*
X51530Y-25153D01*
X51530Y-25108D01*
X51530Y-25348D02*
X51740Y-25348D01*
X51710Y-25348D02*
X51725Y-25363D01*
X51740Y-25393D01*
X51740Y-25438D01*
X51725Y-25468D01*
X51695Y-25483D01*
X51530Y-25483D01*
X51695Y-25483D02*
X51725Y-25498D01*
X51740Y-25528D01*
X51740Y-25573D01*
X51725Y-25603D01*
X51695Y-25618D01*
X51530Y-25618D01*
G54D13*
X67893Y-39448D03*
X52145Y-21732D03*
X67893Y-21732D03*
X52145Y-39448D03*
G54D14*
X61240Y-30389D03*
G54D15*
X61240Y-31389D03*
X61240Y-32389D03*
X61240Y-33389D03*
G54D16*
X56673Y-23484D03*
X54705Y-23484D03*
X60609Y-23485D03*
X58641Y-23485D03*
X64547Y-23484D03*
X62579Y-23484D03*
G54D17*
X67881Y-27354D03*
G54D18*
X66881Y-27354D03*
X67881Y-26354D03*
X66881Y-26354D03*
X67881Y-25354D03*
X66881Y-25354D03*
X67881Y-24354D03*
X66881Y-24354D03*
X67881Y-23354D03*
X66881Y-23354D03*
G54D19*
X52874Y-34921D03*
X53874Y-28920D03*
X54874Y-28920D03*
X55874Y-28920D03*
X56874Y-28920D03*
X57874Y-28920D03*
X58874Y-28920D03*
X59874Y-28920D03*
X60874Y-28920D03*
X61874Y-28920D03*
X62874Y-28920D03*
X63874Y-28920D03*
X64874Y-28920D03*
X65874Y-28920D03*
X66874Y-28920D03*
G54D20*
X66874Y-34921D03*
G54D19*
X65874Y-34921D03*
X64874Y-34921D03*
X63874Y-34921D03*
X62874Y-34921D03*
X61874Y-34921D03*
X60874Y-34921D03*
X59874Y-34921D03*
X58874Y-34921D03*
X57874Y-34921D03*
X56874Y-34921D03*
X55874Y-34921D03*
X54874Y-34921D03*
X53874Y-34921D03*
X52874Y-28920D03*
G54D21*
X65728Y-27780D03*
X65728Y-27180D03*
G54D22*
X64862Y-27814D03*
X64862Y-27460D03*
G54D23*
X52893Y-27047D03*
X53681Y-27047D03*
G54D24*
X64444Y-39448D03*
X65044Y-39448D03*
X64444Y-37362D03*
X65044Y-37362D03*
X59719Y-39448D03*
X60319Y-39448D03*
X54995Y-39448D03*
X55595Y-39448D03*
G54D25*
X53799Y-31397D03*
X53799Y-32381D03*
G54D26*
X53799Y-30413D03*
G54D25*
X53799Y-33365D03*
G54D27*
X64901Y-33385D03*
X65413Y-33385D03*
G54D28*
X64389Y-33385D03*
G54D27*
X64901Y-30393D03*
X65413Y-30393D03*
G54D28*
X64389Y-30393D03*
G54D29*
X57991Y-33385D03*
X57401Y-33385D03*
G54D30*
X58582Y-33385D03*
G54D29*
X56810Y-33385D03*
X57991Y-30472D03*
X57401Y-30472D03*
G54D30*
X58582Y-30472D03*
G54D29*
X56810Y-30472D03*
G54D31*
X66023Y-39448D03*
X65669Y-39448D03*
X66023Y-37362D03*
X65669Y-37362D03*
X56574Y-39448D03*
X56220Y-39448D03*
X61338Y-39448D03*
X60984Y-39448D03*
G54D32*
X56795Y-36362D03*
X56795Y-38362D03*
X53795Y-36362D03*
X53795Y-38362D03*
X61519Y-36362D03*
X61519Y-38362D03*
X58519Y-36362D03*
X58519Y-38362D03*
M02*
