%FSLAX34Y34*%
G04 Gerber Fmt 3.4, Leading zero omitted, Abs format*
G04 (created by PCBNEW (2014-03-19 BZR 4756)-product) date Mon 30 Jun 2014 23:44:56 BST*
%MOIN*%
G01*
G70*
G90*
G04 APERTURE LIST*
%ADD10C,0.005906*%
%ADD11C,0.007900*%
%ADD12C,0.007874*%
%ADD13C,0.075000*%
%ADD14R,0.075000X0.075000*%
%ADD15R,0.100000X0.088000*%
%ADD16O,0.100000X0.088000*%
%ADD17R,0.035700X0.043600*%
%ADD18R,0.080000X0.080000*%
%ADD19C,0.080000*%
%ADD20C,0.078300*%
%ADD21O,0.106614X0.075118*%
%ADD22R,0.106614X0.075118*%
%ADD23O,0.051496X0.063307*%
%ADD24R,0.051496X0.063307*%
%ADD25O,0.059370X0.075118*%
%ADD26R,0.059370X0.075118*%
%ADD27C,0.079055*%
%ADD28R,0.153900X0.153900*%
%ADD29R,0.043600X0.035700*%
G04 APERTURE END LIST*
G54D10*
G54D11*
X66712Y-41712D02*
G75*
G03X67696Y-42696I984J0D01*
G74*
G01*
X83444Y-42696D02*
G75*
G03X84429Y-41712I0J984D01*
G74*
G01*
X84429Y-23996D02*
G75*
G03X83444Y-23011I-984J0D01*
G74*
G01*
X67696Y-23011D02*
G75*
G03X66712Y-23996I0J-984D01*
G74*
G01*
X66712Y-41712D02*
X66712Y-23996D01*
X83444Y-42696D02*
X67696Y-42696D01*
X83444Y-23011D02*
X67696Y-23011D01*
X84429Y-41712D02*
X84429Y-23996D01*
G54D12*
X71078Y-41855D02*
X71078Y-41540D01*
X71003Y-41540D01*
X70958Y-41555D01*
X70928Y-41585D01*
X70913Y-41615D01*
X70898Y-41675D01*
X70898Y-41720D01*
X70913Y-41780D01*
X70928Y-41810D01*
X70958Y-41840D01*
X71003Y-41855D01*
X71078Y-41855D01*
X70628Y-41540D02*
X70688Y-41540D01*
X70718Y-41555D01*
X70733Y-41570D01*
X70763Y-41615D01*
X70778Y-41675D01*
X70778Y-41795D01*
X70763Y-41825D01*
X70748Y-41840D01*
X70718Y-41855D01*
X70658Y-41855D01*
X70628Y-41840D01*
X70613Y-41825D01*
X70598Y-41795D01*
X70598Y-41720D01*
X70613Y-41690D01*
X70628Y-41675D01*
X70658Y-41660D01*
X70718Y-41660D01*
X70748Y-41675D01*
X70763Y-41690D01*
X70778Y-41720D01*
X75803Y-41855D02*
X75803Y-41540D01*
X75728Y-41540D01*
X75683Y-41555D01*
X75653Y-41585D01*
X75638Y-41615D01*
X75623Y-41675D01*
X75623Y-41720D01*
X75638Y-41780D01*
X75653Y-41810D01*
X75683Y-41840D01*
X75728Y-41855D01*
X75803Y-41855D01*
X75518Y-41540D02*
X75308Y-41540D01*
X75443Y-41855D01*
G54D13*
X82421Y-31200D03*
X81421Y-37201D03*
X80421Y-37201D03*
X79421Y-37201D03*
X78421Y-37201D03*
X77421Y-37201D03*
X76421Y-37201D03*
X75421Y-37201D03*
X74421Y-37201D03*
X73421Y-37201D03*
X72421Y-37201D03*
X71421Y-37201D03*
X70421Y-37201D03*
X69421Y-37201D03*
G54D14*
X68421Y-37201D03*
G54D13*
X68421Y-31200D03*
X69421Y-31200D03*
X70421Y-31200D03*
X71421Y-31200D03*
X72421Y-31200D03*
X73421Y-31200D03*
X74421Y-31200D03*
X75421Y-31200D03*
X76421Y-31200D03*
X77421Y-31200D03*
X78421Y-31200D03*
X79421Y-31200D03*
X80421Y-31200D03*
X81421Y-31200D03*
X82421Y-37201D03*
G54D15*
X77381Y-32751D03*
G54D16*
X77381Y-33751D03*
X77381Y-34751D03*
X77381Y-35751D03*
G54D17*
X78799Y-33759D03*
X78445Y-33759D03*
X78799Y-32755D03*
X78445Y-32755D03*
G54D18*
X83433Y-29618D03*
G54D19*
X82433Y-29618D03*
X83433Y-28618D03*
X82433Y-28618D03*
X83433Y-27618D03*
X82433Y-27618D03*
X83433Y-26618D03*
X82433Y-26618D03*
X83433Y-25618D03*
X82433Y-25618D03*
G54D20*
X68444Y-29311D03*
X69232Y-29311D03*
G54D21*
X69370Y-33720D03*
X69370Y-34704D03*
G54D22*
X69370Y-32736D03*
G54D21*
X69370Y-35688D03*
G54D23*
X80452Y-35649D03*
X80964Y-35649D03*
G54D24*
X79940Y-35649D03*
G54D23*
X80452Y-32657D03*
X80964Y-32657D03*
G54D24*
X79940Y-32657D03*
G54D25*
X73543Y-35649D03*
X72953Y-35649D03*
G54D26*
X74134Y-35649D03*
G54D25*
X72362Y-35649D03*
X73543Y-32736D03*
X72953Y-32736D03*
G54D26*
X74134Y-32736D03*
G54D25*
X72362Y-32736D03*
G54D27*
X72346Y-38625D03*
X72346Y-40625D03*
X69346Y-38625D03*
X69346Y-40625D03*
X77070Y-38625D03*
X77070Y-40625D03*
X74070Y-38625D03*
X74070Y-40625D03*
G54D28*
X67893Y-24192D03*
X83248Y-24192D03*
X83248Y-41515D03*
X67893Y-41515D03*
G54D29*
X80393Y-30078D03*
X80393Y-29724D03*
X81279Y-30078D03*
X81279Y-29724D03*
M02*
