%FSLAX34Y34*%
G04 Gerber Fmt 3.4, Leading zero omitted, Abs format*
G04 (created by PCBNEW (2014-03-19 BZR 4756)-product) date Thu 05 Jun 2014 00:35:02 BST*
%MOIN*%
G01*
G70*
G90*
G04 APERTURE LIST*
%ADD10C,0.005906*%
%ADD11C,0.007900*%
%ADD12C,0.007874*%
%ADD13C,0.015000*%
%ADD14C,0.055000*%
%ADD15R,0.055000X0.055000*%
%ADD16C,0.094500*%
%ADD17R,0.080000X0.068000*%
%ADD18O,0.080000X0.068000*%
%ADD19O,0.078700X0.118700*%
%ADD20R,0.015700X0.023600*%
%ADD21R,0.060000X0.060000*%
%ADD22C,0.060000*%
%ADD23R,0.045000X0.025000*%
%ADD24C,0.058300*%
%ADD25O,0.086614X0.055118*%
%ADD26R,0.086614X0.055118*%
%ADD27O,0.031496X0.043307*%
%ADD28R,0.031496X0.043307*%
%ADD29O,0.039370X0.055118*%
%ADD30R,0.039370X0.055118*%
%ADD31R,0.023600X0.015700*%
%ADD32C,0.059055*%
%ADD33C,0.008000*%
%ADD34C,0.007087*%
G04 APERTURE END LIST*
G54D10*
G54D11*
X25964Y-39251D02*
G75*
G03X26948Y-40236I984J0D01*
G74*
G01*
X42696Y-40236D02*
G75*
G03X43681Y-39251I0J984D01*
G74*
G01*
X43681Y-21535D02*
G75*
G03X42696Y-20551I-984J0D01*
G74*
G01*
X26948Y-20551D02*
G75*
G03X25964Y-21535I0J-984D01*
G74*
G01*
X25964Y-39251D02*
X25964Y-21535D01*
X42696Y-40236D02*
X26948Y-40236D01*
X42696Y-20551D02*
X26948Y-20551D01*
X43681Y-39251D02*
X43681Y-21535D01*
G54D12*
X35055Y-39394D02*
X35055Y-39079D01*
X34980Y-39079D01*
X34935Y-39094D01*
X34905Y-39124D01*
X34890Y-39154D01*
X34875Y-39214D01*
X34875Y-39259D01*
X34890Y-39319D01*
X34905Y-39349D01*
X34935Y-39379D01*
X34980Y-39394D01*
X35055Y-39394D01*
X34770Y-39079D02*
X34560Y-39079D01*
X34695Y-39394D01*
X30330Y-39394D02*
X30330Y-39079D01*
X30255Y-39079D01*
X30210Y-39094D01*
X30180Y-39124D01*
X30165Y-39154D01*
X30150Y-39214D01*
X30150Y-39259D01*
X30165Y-39319D01*
X30180Y-39349D01*
X30210Y-39379D01*
X30255Y-39394D01*
X30330Y-39394D01*
X29880Y-39079D02*
X29940Y-39079D01*
X29970Y-39094D01*
X29985Y-39109D01*
X30015Y-39154D01*
X30030Y-39214D01*
X30030Y-39334D01*
X30015Y-39364D01*
X30000Y-39379D01*
X29970Y-39394D01*
X29910Y-39394D01*
X29880Y-39379D01*
X29865Y-39364D01*
X29850Y-39334D01*
X29850Y-39259D01*
X29865Y-39229D01*
X29880Y-39214D01*
X29910Y-39199D01*
X29970Y-39199D01*
X30000Y-39214D01*
X30015Y-39229D01*
X30030Y-39259D01*
G54D13*
X27775Y-27480D02*
X27775Y-27362D01*
X27775Y-27480D02*
X27893Y-27480D01*
X27657Y-27480D02*
X27775Y-27480D01*
X27775Y-27480D02*
X27775Y-27598D01*
G54D14*
X41673Y-28740D03*
X40673Y-34740D03*
X39673Y-34740D03*
X38673Y-34740D03*
X37673Y-34740D03*
X36673Y-34740D03*
X35673Y-34740D03*
X34673Y-34740D03*
X33673Y-34740D03*
X32673Y-34740D03*
X31673Y-34740D03*
X30673Y-34740D03*
X29673Y-34740D03*
X28673Y-34740D03*
G54D15*
X27673Y-34740D03*
G54D14*
X27673Y-28740D03*
X28673Y-28740D03*
X29673Y-28740D03*
X30673Y-28740D03*
X31673Y-28740D03*
X32673Y-28740D03*
X33673Y-28740D03*
X34673Y-28740D03*
X35673Y-28740D03*
X36673Y-28740D03*
X37673Y-28740D03*
X38673Y-28740D03*
X39673Y-28740D03*
X40673Y-28740D03*
X41673Y-34740D03*
G54D16*
X42696Y-39251D03*
X26948Y-21535D03*
X42696Y-21535D03*
X26948Y-39251D03*
G54D17*
X36043Y-30192D03*
G54D18*
X36043Y-31192D03*
X36043Y-32192D03*
X36043Y-33192D03*
G54D19*
X31476Y-23287D03*
X29508Y-23287D03*
X35412Y-23288D03*
X33444Y-23288D03*
X39350Y-23287D03*
X37382Y-23287D03*
G54D20*
X37519Y-31220D03*
X37165Y-31220D03*
X37519Y-30236D03*
X37165Y-30236D03*
G54D21*
X42685Y-27157D03*
G54D22*
X41685Y-27157D03*
X42685Y-26157D03*
X41685Y-26157D03*
X42685Y-25157D03*
X41685Y-25157D03*
X42685Y-24157D03*
X41685Y-24157D03*
X42685Y-23157D03*
X41685Y-23157D03*
G54D23*
X40531Y-27583D03*
X40531Y-26983D03*
X39665Y-27583D03*
X39665Y-26983D03*
G54D24*
X27696Y-26850D03*
X28484Y-26850D03*
G54D25*
X28602Y-31200D03*
X28602Y-32184D03*
G54D26*
X28602Y-30216D03*
G54D25*
X28602Y-33168D03*
G54D27*
X39704Y-33188D03*
X40216Y-33188D03*
G54D28*
X39192Y-33188D03*
G54D27*
X39704Y-30196D03*
X40216Y-30196D03*
G54D28*
X39192Y-30196D03*
G54D29*
X32795Y-33188D03*
X32205Y-33188D03*
G54D30*
X33386Y-33188D03*
G54D29*
X31614Y-33188D03*
X32795Y-30275D03*
X32205Y-30275D03*
G54D30*
X33386Y-30275D03*
G54D29*
X31614Y-30275D03*
G54D31*
X35492Y-36200D03*
X35492Y-35846D03*
X34822Y-36200D03*
X34822Y-35846D03*
G54D32*
X31598Y-36165D03*
X31598Y-38165D03*
X28598Y-36165D03*
X28598Y-38165D03*
X36322Y-36165D03*
X36322Y-38165D03*
X33322Y-36165D03*
X33322Y-38165D03*
G54D33*
X40673Y-28740D02*
X40673Y-27838D01*
X40654Y-27819D02*
X40673Y-27838D01*
X40531Y-27819D02*
X40654Y-27819D01*
X40531Y-27583D02*
X40531Y-27819D01*
X42685Y-27157D02*
X42274Y-27157D01*
X41004Y-27838D02*
X41685Y-27157D01*
X40673Y-27838D02*
X41004Y-27838D01*
X41685Y-27157D02*
X42274Y-27157D01*
X32205Y-30271D02*
X32205Y-30275D01*
X30673Y-28740D02*
X32205Y-30271D01*
X39192Y-33188D02*
X38924Y-33188D01*
X32012Y-35132D02*
X32264Y-34880D01*
X31512Y-35132D02*
X32012Y-35132D01*
X31276Y-34897D02*
X31512Y-35132D01*
X31276Y-34117D02*
X31276Y-34897D01*
X32205Y-33188D02*
X31276Y-34117D01*
X32264Y-34603D02*
X32264Y-34880D01*
X32872Y-33995D02*
X32264Y-34603D01*
X38117Y-33995D02*
X32872Y-33995D01*
X38924Y-33188D02*
X38117Y-33995D01*
X33910Y-35288D02*
X34822Y-36200D01*
X32673Y-35288D02*
X33910Y-35288D01*
X32264Y-34880D02*
X32673Y-35288D01*
X34822Y-36200D02*
X35492Y-36200D01*
X39665Y-28732D02*
X39665Y-27583D01*
X39673Y-28740D02*
X39665Y-28732D01*
X38884Y-30236D02*
X38924Y-30196D01*
X37519Y-30236D02*
X38884Y-30236D01*
X37519Y-30236D02*
X37519Y-31220D01*
X39192Y-30196D02*
X38924Y-30196D01*
X39074Y-34146D02*
X39704Y-33516D01*
X33267Y-34146D02*
X39074Y-34146D01*
X32673Y-34740D02*
X33267Y-34146D01*
X39704Y-33188D02*
X39704Y-33516D01*
X43096Y-26568D02*
X42685Y-26157D01*
X43096Y-27529D02*
X43096Y-26568D01*
X42785Y-27839D02*
X43096Y-27529D01*
X42015Y-27839D02*
X42785Y-27839D01*
X41173Y-28682D02*
X42015Y-27839D01*
X41173Y-32671D02*
X41173Y-28682D01*
X39103Y-34740D02*
X41173Y-32671D01*
X38673Y-34740D02*
X39103Y-34740D01*
X35929Y-36559D02*
X36322Y-36165D01*
X33716Y-36559D02*
X35929Y-36559D01*
X33322Y-36165D02*
X33716Y-36559D01*
X31614Y-33188D02*
X31306Y-33188D01*
X33322Y-38165D02*
X31598Y-38165D01*
X36322Y-38165D02*
X33322Y-38165D01*
X28598Y-38165D02*
X31598Y-38165D01*
X28602Y-33168D02*
X29146Y-33168D01*
X29799Y-33821D02*
X29146Y-33168D01*
X30673Y-33821D02*
X29799Y-33821D01*
X30673Y-34740D02*
X30673Y-33821D01*
X30673Y-33821D02*
X31306Y-33188D01*
X30208Y-30275D02*
X28673Y-28740D01*
X31614Y-30275D02*
X30208Y-30275D01*
X41685Y-23157D02*
X42685Y-23157D01*
X36043Y-33192D02*
X36554Y-33192D01*
X36171Y-22580D02*
X36878Y-23287D01*
X34656Y-22580D02*
X36171Y-22580D01*
X33948Y-23288D02*
X34656Y-22580D01*
X33444Y-23288D02*
X33948Y-23288D01*
X37382Y-23287D02*
X36878Y-23287D01*
X39665Y-26983D02*
X39665Y-27219D01*
X40531Y-26983D02*
X40531Y-27219D01*
X40216Y-33188D02*
X39889Y-32861D01*
X36885Y-32861D02*
X36554Y-33192D01*
X39889Y-32861D02*
X36885Y-32861D01*
X40216Y-32533D02*
X40216Y-30196D01*
X39889Y-32861D02*
X40216Y-32533D01*
X40195Y-29848D02*
X40195Y-27321D01*
X40216Y-29869D02*
X40195Y-29848D01*
X40093Y-27219D02*
X40195Y-27321D01*
X39665Y-27219D02*
X40093Y-27219D01*
X40429Y-27321D02*
X40531Y-27219D01*
X40195Y-27321D02*
X40429Y-27321D01*
X40216Y-30196D02*
X40216Y-29869D01*
X28058Y-33340D02*
X28058Y-32184D01*
X28346Y-33627D02*
X28058Y-33340D01*
X29106Y-33627D02*
X28346Y-33627D01*
X30118Y-34639D02*
X29106Y-33627D01*
X30118Y-34734D02*
X30118Y-34639D01*
X30863Y-35479D02*
X30118Y-34734D01*
X33236Y-35479D02*
X30863Y-35479D01*
X34147Y-36390D02*
X33236Y-35479D01*
X35672Y-36390D02*
X34147Y-36390D01*
X35765Y-36297D02*
X35672Y-36390D01*
X35765Y-35648D02*
X35765Y-36297D01*
X36673Y-34740D02*
X35765Y-35648D01*
X28602Y-32184D02*
X28058Y-32184D01*
X35173Y-35338D02*
X35492Y-35657D01*
X35173Y-34692D02*
X35173Y-35338D01*
X34835Y-34354D02*
X35173Y-34692D01*
X34059Y-34354D02*
X34835Y-34354D01*
X33673Y-34740D02*
X34059Y-34354D01*
X35492Y-35846D02*
X35492Y-35657D01*
X34673Y-35507D02*
X34822Y-35657D01*
X34673Y-34740D02*
X34673Y-35507D01*
X34822Y-35846D02*
X34822Y-35657D01*
X36043Y-30192D02*
X36554Y-30192D01*
X37165Y-30192D02*
X36554Y-30192D01*
X37673Y-29685D02*
X37165Y-30192D01*
X37673Y-28740D02*
X37673Y-29685D01*
X37165Y-30192D02*
X37165Y-30236D01*
X36043Y-31192D02*
X36554Y-31192D01*
X36948Y-31192D02*
X36976Y-31220D01*
X36554Y-31192D02*
X36948Y-31192D01*
X37165Y-31220D02*
X36976Y-31220D01*
X39350Y-25062D02*
X39350Y-23287D01*
X35673Y-28740D02*
X39350Y-25062D01*
X28598Y-36165D02*
X31598Y-36165D01*
X43250Y-25722D02*
X42685Y-25157D01*
X43250Y-27594D02*
X43250Y-25722D01*
X42104Y-28740D02*
X43250Y-27594D01*
X41673Y-28740D02*
X42104Y-28740D01*
X37279Y-28563D02*
X41685Y-24157D01*
X37279Y-28683D02*
X37279Y-28563D01*
X36592Y-29370D02*
X37279Y-28683D01*
X35959Y-29370D02*
X36592Y-29370D01*
X35026Y-30303D02*
X35959Y-29370D01*
X35026Y-32195D02*
X35026Y-30303D01*
X33377Y-33844D02*
X35026Y-32195D01*
X32569Y-33844D02*
X33377Y-33844D01*
X31673Y-34740D02*
X32569Y-33844D01*
G54D10*
G36*
X43535Y-39237D02*
X43468Y-39571D01*
X43396Y-39680D01*
X43396Y-27594D01*
X43396Y-25722D01*
X43385Y-25666D01*
X43385Y-25666D01*
X43353Y-25619D01*
X43275Y-25541D01*
X43275Y-21420D01*
X43187Y-21207D01*
X43025Y-21045D01*
X42812Y-20956D01*
X42582Y-20956D01*
X42369Y-21044D01*
X42206Y-21207D01*
X42118Y-21419D01*
X42117Y-21650D01*
X42205Y-21862D01*
X42368Y-22025D01*
X42581Y-22114D01*
X42811Y-22114D01*
X43024Y-22026D01*
X43187Y-21863D01*
X43275Y-21651D01*
X43275Y-21420D01*
X43275Y-25541D01*
X43119Y-25385D01*
X43119Y-23074D01*
X43054Y-22914D01*
X43050Y-22908D01*
X42983Y-22878D01*
X42964Y-22897D01*
X42964Y-22858D01*
X42933Y-22791D01*
X42774Y-22724D01*
X42602Y-22722D01*
X42442Y-22787D01*
X42436Y-22791D01*
X42405Y-22858D01*
X42685Y-23137D01*
X42964Y-22858D01*
X42964Y-22897D01*
X42704Y-23157D01*
X42983Y-23436D01*
X43050Y-23406D01*
X43118Y-23247D01*
X43119Y-23074D01*
X43119Y-25385D01*
X43056Y-25322D01*
X43091Y-25238D01*
X43091Y-25077D01*
X43091Y-24077D01*
X43029Y-23927D01*
X42964Y-23862D01*
X42964Y-23456D01*
X42685Y-23176D01*
X42665Y-23196D01*
X42665Y-23157D01*
X42386Y-22878D01*
X42319Y-22908D01*
X42251Y-23067D01*
X42250Y-23240D01*
X42315Y-23400D01*
X42319Y-23406D01*
X42386Y-23436D01*
X42665Y-23157D01*
X42665Y-23196D01*
X42405Y-23456D01*
X42436Y-23523D01*
X42595Y-23590D01*
X42767Y-23592D01*
X42927Y-23527D01*
X42933Y-23523D01*
X42964Y-23456D01*
X42964Y-23862D01*
X42915Y-23813D01*
X42766Y-23751D01*
X42604Y-23751D01*
X42455Y-23812D01*
X42340Y-23927D01*
X42278Y-24076D01*
X42278Y-24237D01*
X42340Y-24387D01*
X42454Y-24501D01*
X42603Y-24563D01*
X42765Y-24563D01*
X42914Y-24502D01*
X43029Y-24387D01*
X43091Y-24238D01*
X43091Y-24077D01*
X43091Y-25077D01*
X43029Y-24927D01*
X42915Y-24813D01*
X42766Y-24751D01*
X42604Y-24751D01*
X42455Y-24812D01*
X42340Y-24927D01*
X42278Y-25076D01*
X42278Y-25237D01*
X42340Y-25387D01*
X42454Y-25501D01*
X42603Y-25563D01*
X42765Y-25563D01*
X42849Y-25529D01*
X43103Y-25783D01*
X43103Y-26369D01*
X43056Y-26322D01*
X43091Y-26238D01*
X43091Y-26077D01*
X43029Y-25927D01*
X42915Y-25813D01*
X42766Y-25751D01*
X42604Y-25751D01*
X42455Y-25812D01*
X42340Y-25927D01*
X42278Y-26076D01*
X42278Y-26237D01*
X42340Y-26387D01*
X42454Y-26501D01*
X42603Y-26563D01*
X42765Y-26563D01*
X42849Y-26529D01*
X42949Y-26629D01*
X42949Y-26751D01*
X42363Y-26751D01*
X42324Y-26767D01*
X42294Y-26797D01*
X42278Y-26836D01*
X42278Y-26878D01*
X42278Y-27011D01*
X42274Y-27011D01*
X42119Y-27011D01*
X42119Y-23074D01*
X42054Y-22914D01*
X42050Y-22908D01*
X41983Y-22878D01*
X41964Y-22897D01*
X41964Y-22858D01*
X41933Y-22791D01*
X41774Y-22724D01*
X41602Y-22722D01*
X41442Y-22787D01*
X41436Y-22791D01*
X41405Y-22858D01*
X41685Y-23137D01*
X41964Y-22858D01*
X41964Y-22897D01*
X41704Y-23157D01*
X41983Y-23436D01*
X42050Y-23406D01*
X42118Y-23247D01*
X42119Y-23074D01*
X42119Y-27011D01*
X42091Y-27011D01*
X42091Y-26077D01*
X42091Y-25077D01*
X42029Y-24927D01*
X41915Y-24813D01*
X41766Y-24751D01*
X41604Y-24751D01*
X41455Y-24812D01*
X41340Y-24927D01*
X41278Y-25076D01*
X41278Y-25237D01*
X41340Y-25387D01*
X41454Y-25501D01*
X41603Y-25563D01*
X41765Y-25563D01*
X41914Y-25502D01*
X42029Y-25387D01*
X42091Y-25238D01*
X42091Y-25077D01*
X42091Y-26077D01*
X42029Y-25927D01*
X41915Y-25813D01*
X41766Y-25751D01*
X41604Y-25751D01*
X41455Y-25812D01*
X41340Y-25927D01*
X41278Y-26076D01*
X41278Y-26237D01*
X41340Y-26387D01*
X41454Y-26501D01*
X41603Y-26563D01*
X41765Y-26563D01*
X41914Y-26502D01*
X42029Y-26387D01*
X42091Y-26238D01*
X42091Y-26077D01*
X42091Y-27011D01*
X42064Y-27011D01*
X42029Y-26927D01*
X41915Y-26813D01*
X41766Y-26751D01*
X41604Y-26751D01*
X41455Y-26812D01*
X41340Y-26927D01*
X41278Y-27076D01*
X41278Y-27237D01*
X41313Y-27322D01*
X40943Y-27692D01*
X40890Y-27692D01*
X40890Y-27135D01*
X40890Y-27030D01*
X40890Y-26936D01*
X40890Y-26831D01*
X40869Y-26782D01*
X40832Y-26744D01*
X40783Y-26724D01*
X40729Y-26724D01*
X40578Y-26724D01*
X40545Y-26758D01*
X40545Y-26969D01*
X40856Y-26969D01*
X40890Y-26936D01*
X40890Y-27030D01*
X40856Y-26997D01*
X40545Y-26997D01*
X40545Y-27208D01*
X40578Y-27242D01*
X40729Y-27242D01*
X40783Y-27242D01*
X40832Y-27221D01*
X40869Y-27184D01*
X40890Y-27135D01*
X40890Y-27692D01*
X40862Y-27692D01*
X40862Y-27687D01*
X40862Y-27437D01*
X40846Y-27398D01*
X40816Y-27368D01*
X40777Y-27352D01*
X40735Y-27352D01*
X40517Y-27352D01*
X40517Y-27208D01*
X40517Y-26997D01*
X40517Y-26969D01*
X40517Y-26758D01*
X40484Y-26724D01*
X40333Y-26724D01*
X40279Y-26724D01*
X40230Y-26744D01*
X40193Y-26782D01*
X40172Y-26831D01*
X40172Y-26936D01*
X40206Y-26969D01*
X40517Y-26969D01*
X40517Y-26997D01*
X40206Y-26997D01*
X40172Y-27030D01*
X40172Y-27135D01*
X40193Y-27184D01*
X40230Y-27221D01*
X40279Y-27242D01*
X40333Y-27242D01*
X40484Y-27242D01*
X40517Y-27208D01*
X40517Y-27352D01*
X40285Y-27352D01*
X40246Y-27368D01*
X40216Y-27398D01*
X40200Y-27437D01*
X40200Y-27479D01*
X40200Y-27729D01*
X40216Y-27768D01*
X40246Y-27798D01*
X40285Y-27814D01*
X40327Y-27814D01*
X40385Y-27814D01*
X40385Y-27819D01*
X40396Y-27875D01*
X40428Y-27922D01*
X40475Y-27954D01*
X40526Y-27964D01*
X40526Y-28388D01*
X40457Y-28416D01*
X40350Y-28523D01*
X40291Y-28663D01*
X40291Y-28815D01*
X40349Y-28955D01*
X40456Y-29063D01*
X40597Y-29121D01*
X40748Y-29121D01*
X40888Y-29063D01*
X40996Y-28956D01*
X41026Y-28882D01*
X41026Y-32610D01*
X40508Y-33129D01*
X40508Y-33116D01*
X40508Y-30269D01*
X40508Y-30210D01*
X40508Y-30183D01*
X40508Y-30124D01*
X40480Y-30013D01*
X40412Y-29922D01*
X40315Y-29863D01*
X40275Y-29852D01*
X40230Y-29880D01*
X40230Y-30183D01*
X40508Y-30183D01*
X40508Y-30210D01*
X40230Y-30210D01*
X40230Y-30513D01*
X40275Y-30541D01*
X40315Y-30530D01*
X40412Y-30471D01*
X40480Y-30380D01*
X40508Y-30269D01*
X40508Y-33116D01*
X40480Y-33005D01*
X40412Y-32914D01*
X40315Y-32855D01*
X40275Y-32844D01*
X40230Y-32872D01*
X40230Y-33175D01*
X40238Y-33175D01*
X40238Y-33202D01*
X40230Y-33202D01*
X40230Y-33210D01*
X40202Y-33210D01*
X40202Y-33202D01*
X40195Y-33202D01*
X40195Y-33175D01*
X40202Y-33175D01*
X40202Y-32872D01*
X40157Y-32844D01*
X40117Y-32855D01*
X40020Y-32914D01*
X39952Y-33005D01*
X39948Y-33023D01*
X39948Y-33022D01*
X39891Y-32937D01*
X39805Y-32879D01*
X39704Y-32859D01*
X39603Y-32879D01*
X39518Y-32937D01*
X39461Y-33022D01*
X39456Y-33045D01*
X39456Y-32951D01*
X39440Y-32912D01*
X39410Y-32882D01*
X39371Y-32866D01*
X39329Y-32866D01*
X39014Y-32866D01*
X38975Y-32882D01*
X38945Y-32912D01*
X38928Y-32951D01*
X38928Y-32993D01*
X38928Y-33042D01*
X38924Y-33042D01*
X38868Y-33053D01*
X38820Y-33085D01*
X38057Y-33849D01*
X36568Y-33849D01*
X36568Y-33280D01*
X36568Y-33105D01*
X36568Y-32280D01*
X36568Y-32105D01*
X36546Y-32024D01*
X36448Y-31867D01*
X36297Y-31760D01*
X36117Y-31719D01*
X36057Y-31719D01*
X36057Y-32179D01*
X36543Y-32179D01*
X36568Y-32105D01*
X36568Y-32280D01*
X36543Y-32206D01*
X36057Y-32206D01*
X36057Y-32666D01*
X36117Y-32666D01*
X36297Y-32625D01*
X36448Y-32518D01*
X36546Y-32361D01*
X36568Y-32280D01*
X36568Y-33105D01*
X36546Y-33024D01*
X36448Y-32867D01*
X36297Y-32760D01*
X36117Y-32719D01*
X36057Y-32719D01*
X36057Y-33179D01*
X36543Y-33179D01*
X36568Y-33105D01*
X36568Y-33280D01*
X36543Y-33206D01*
X36057Y-33206D01*
X36057Y-33666D01*
X36117Y-33666D01*
X36297Y-33625D01*
X36448Y-33518D01*
X36546Y-33361D01*
X36568Y-33280D01*
X36568Y-33849D01*
X36029Y-33849D01*
X36029Y-33666D01*
X36029Y-33206D01*
X36029Y-33179D01*
X36029Y-32719D01*
X36029Y-32666D01*
X36029Y-32206D01*
X36029Y-32179D01*
X36029Y-31719D01*
X35969Y-31719D01*
X35789Y-31760D01*
X35638Y-31867D01*
X35540Y-32024D01*
X35517Y-32105D01*
X35543Y-32179D01*
X36029Y-32179D01*
X36029Y-32206D01*
X35543Y-32206D01*
X35517Y-32280D01*
X35540Y-32361D01*
X35638Y-32518D01*
X35789Y-32625D01*
X35969Y-32666D01*
X36029Y-32666D01*
X36029Y-32719D01*
X35969Y-32719D01*
X35789Y-32760D01*
X35638Y-32867D01*
X35540Y-33024D01*
X35517Y-33105D01*
X35543Y-33179D01*
X36029Y-33179D01*
X36029Y-33206D01*
X35543Y-33206D01*
X35517Y-33280D01*
X35540Y-33361D01*
X35638Y-33518D01*
X35789Y-33625D01*
X35969Y-33666D01*
X36029Y-33666D01*
X36029Y-33849D01*
X33579Y-33849D01*
X35129Y-32299D01*
X35161Y-32251D01*
X35172Y-32195D01*
X35172Y-30364D01*
X35537Y-29999D01*
X35537Y-30554D01*
X35553Y-30593D01*
X35583Y-30623D01*
X35622Y-30639D01*
X35664Y-30639D01*
X36464Y-30639D01*
X36503Y-30623D01*
X36533Y-30593D01*
X36549Y-30554D01*
X36549Y-30511D01*
X36549Y-30339D01*
X36554Y-30339D01*
X36980Y-30339D01*
X36980Y-30375D01*
X36996Y-30414D01*
X37026Y-30444D01*
X37065Y-30460D01*
X37108Y-30460D01*
X37265Y-30460D01*
X37304Y-30444D01*
X37334Y-30414D01*
X37342Y-30394D01*
X37350Y-30414D01*
X37373Y-30436D01*
X37373Y-31019D01*
X37350Y-31042D01*
X37342Y-31062D01*
X37334Y-31042D01*
X37304Y-31012D01*
X37265Y-30996D01*
X37222Y-30996D01*
X37065Y-30996D01*
X37026Y-31012D01*
X36996Y-31042D01*
X36991Y-31055D01*
X36991Y-31055D01*
X36948Y-31046D01*
X36554Y-31046D01*
X36530Y-31046D01*
X36525Y-31022D01*
X36428Y-30877D01*
X36284Y-30780D01*
X36113Y-30746D01*
X35973Y-30746D01*
X35802Y-30780D01*
X35657Y-30877D01*
X35561Y-31022D01*
X35527Y-31192D01*
X35561Y-31363D01*
X35657Y-31508D01*
X35802Y-31605D01*
X35973Y-31639D01*
X36113Y-31639D01*
X36284Y-31605D01*
X36428Y-31508D01*
X36525Y-31363D01*
X36530Y-31339D01*
X36554Y-31339D01*
X36895Y-31339D01*
X36920Y-31355D01*
X36920Y-31355D01*
X36976Y-31366D01*
X36983Y-31366D01*
X36996Y-31398D01*
X37026Y-31428D01*
X37065Y-31444D01*
X37108Y-31444D01*
X37265Y-31444D01*
X37304Y-31428D01*
X37334Y-31398D01*
X37342Y-31378D01*
X37350Y-31398D01*
X37380Y-31428D01*
X37419Y-31444D01*
X37462Y-31444D01*
X37619Y-31444D01*
X37658Y-31428D01*
X37688Y-31398D01*
X37704Y-31359D01*
X37704Y-31317D01*
X37704Y-31081D01*
X37688Y-31042D01*
X37665Y-31019D01*
X37665Y-30436D01*
X37688Y-30414D01*
X37701Y-30382D01*
X38884Y-30382D01*
X38928Y-30373D01*
X38928Y-30434D01*
X38945Y-30473D01*
X38975Y-30503D01*
X39014Y-30519D01*
X39056Y-30519D01*
X39371Y-30519D01*
X39410Y-30503D01*
X39440Y-30473D01*
X39456Y-30434D01*
X39456Y-30392D01*
X39456Y-30340D01*
X39461Y-30363D01*
X39518Y-30448D01*
X39603Y-30505D01*
X39704Y-30526D01*
X39805Y-30505D01*
X39891Y-30448D01*
X39948Y-30363D01*
X39948Y-30362D01*
X39952Y-30380D01*
X40020Y-30471D01*
X40117Y-30530D01*
X40157Y-30541D01*
X40202Y-30513D01*
X40202Y-30210D01*
X40195Y-30210D01*
X40195Y-30183D01*
X40202Y-30183D01*
X40202Y-29880D01*
X40157Y-29852D01*
X40117Y-29863D01*
X40054Y-29901D01*
X40054Y-28664D01*
X40024Y-28591D01*
X40024Y-27135D01*
X40024Y-27030D01*
X40024Y-26936D01*
X40024Y-26831D01*
X40003Y-26782D01*
X39966Y-26744D01*
X39916Y-26724D01*
X39863Y-26724D01*
X39712Y-26724D01*
X39679Y-26758D01*
X39679Y-26969D01*
X39990Y-26969D01*
X40024Y-26936D01*
X40024Y-27030D01*
X39990Y-26997D01*
X39679Y-26997D01*
X39679Y-27208D01*
X39712Y-27242D01*
X39863Y-27242D01*
X39916Y-27242D01*
X39966Y-27221D01*
X40003Y-27184D01*
X40024Y-27135D01*
X40024Y-28591D01*
X39996Y-28524D01*
X39889Y-28417D01*
X39811Y-28384D01*
X39811Y-27814D01*
X39911Y-27814D01*
X39950Y-27798D01*
X39980Y-27768D01*
X39996Y-27729D01*
X39996Y-27687D01*
X39996Y-27437D01*
X39980Y-27398D01*
X39950Y-27368D01*
X39911Y-27352D01*
X39869Y-27352D01*
X39651Y-27352D01*
X39651Y-27208D01*
X39651Y-26997D01*
X39651Y-26969D01*
X39651Y-26758D01*
X39618Y-26724D01*
X39466Y-26724D01*
X39413Y-26724D01*
X39364Y-26744D01*
X39326Y-26782D01*
X39306Y-26831D01*
X39306Y-26936D01*
X39339Y-26969D01*
X39651Y-26969D01*
X39651Y-26997D01*
X39339Y-26997D01*
X39306Y-27030D01*
X39306Y-27135D01*
X39326Y-27184D01*
X39364Y-27221D01*
X39413Y-27242D01*
X39466Y-27242D01*
X39618Y-27242D01*
X39651Y-27208D01*
X39651Y-27352D01*
X39419Y-27352D01*
X39380Y-27368D01*
X39350Y-27398D01*
X39334Y-27437D01*
X39334Y-27479D01*
X39334Y-27729D01*
X39350Y-27768D01*
X39380Y-27798D01*
X39419Y-27814D01*
X39461Y-27814D01*
X39519Y-27814D01*
X39519Y-28391D01*
X39457Y-28416D01*
X39350Y-28523D01*
X39291Y-28663D01*
X39291Y-28815D01*
X39349Y-28955D01*
X39456Y-29063D01*
X39597Y-29121D01*
X39748Y-29121D01*
X39888Y-29063D01*
X39996Y-28956D01*
X40054Y-28816D01*
X40054Y-28664D01*
X40054Y-29901D01*
X40020Y-29922D01*
X39952Y-30013D01*
X39948Y-30030D01*
X39948Y-30030D01*
X39891Y-29944D01*
X39805Y-29887D01*
X39704Y-29867D01*
X39603Y-29887D01*
X39518Y-29944D01*
X39461Y-30030D01*
X39456Y-30053D01*
X39456Y-29959D01*
X39440Y-29920D01*
X39410Y-29890D01*
X39371Y-29874D01*
X39329Y-29874D01*
X39054Y-29874D01*
X39054Y-28664D01*
X38996Y-28524D01*
X38889Y-28417D01*
X38749Y-28358D01*
X38597Y-28358D01*
X38457Y-28416D01*
X38350Y-28523D01*
X38291Y-28663D01*
X38291Y-28815D01*
X38349Y-28955D01*
X38456Y-29063D01*
X38597Y-29121D01*
X38748Y-29121D01*
X38888Y-29063D01*
X38996Y-28956D01*
X39054Y-28816D01*
X39054Y-28664D01*
X39054Y-29874D01*
X39014Y-29874D01*
X38975Y-29890D01*
X38945Y-29920D01*
X38928Y-29959D01*
X38928Y-30001D01*
X38928Y-30050D01*
X38924Y-30050D01*
X38868Y-30061D01*
X38826Y-30089D01*
X37701Y-30089D01*
X37688Y-30058D01*
X37658Y-30028D01*
X37619Y-30011D01*
X37576Y-30011D01*
X37553Y-30011D01*
X37776Y-29788D01*
X37808Y-29741D01*
X37819Y-29685D01*
X37819Y-29092D01*
X37888Y-29063D01*
X37996Y-28956D01*
X38054Y-28816D01*
X38054Y-28664D01*
X37996Y-28524D01*
X37889Y-28417D01*
X37749Y-28358D01*
X37690Y-28358D01*
X41520Y-24529D01*
X41603Y-24563D01*
X41765Y-24563D01*
X41914Y-24502D01*
X42029Y-24387D01*
X42091Y-24238D01*
X42091Y-24077D01*
X42029Y-23927D01*
X41964Y-23862D01*
X41964Y-23456D01*
X41685Y-23176D01*
X41665Y-23196D01*
X41665Y-23157D01*
X41386Y-22878D01*
X41319Y-22908D01*
X41251Y-23067D01*
X41250Y-23240D01*
X41315Y-23400D01*
X41319Y-23406D01*
X41386Y-23436D01*
X41665Y-23157D01*
X41665Y-23196D01*
X41405Y-23456D01*
X41436Y-23523D01*
X41595Y-23590D01*
X41767Y-23592D01*
X41927Y-23527D01*
X41933Y-23523D01*
X41964Y-23456D01*
X41964Y-23862D01*
X41915Y-23813D01*
X41766Y-23751D01*
X41604Y-23751D01*
X41455Y-23812D01*
X41340Y-23927D01*
X41278Y-24076D01*
X41278Y-24237D01*
X41313Y-24322D01*
X39850Y-25785D01*
X39850Y-23500D01*
X39850Y-23073D01*
X39812Y-22882D01*
X39703Y-22720D01*
X39541Y-22611D01*
X39350Y-22573D01*
X39159Y-22611D01*
X38997Y-22720D01*
X38888Y-22882D01*
X38850Y-23073D01*
X38850Y-23500D01*
X38888Y-23692D01*
X38997Y-23854D01*
X39159Y-23962D01*
X39204Y-23971D01*
X39204Y-25002D01*
X37909Y-26296D01*
X37909Y-23501D01*
X37909Y-23301D01*
X37909Y-23273D01*
X37909Y-23073D01*
X37864Y-22872D01*
X37745Y-22704D01*
X37571Y-22594D01*
X37478Y-22568D01*
X37396Y-22593D01*
X37396Y-23273D01*
X37909Y-23273D01*
X37909Y-23301D01*
X37396Y-23301D01*
X37396Y-23980D01*
X37478Y-24005D01*
X37571Y-23979D01*
X37745Y-23869D01*
X37864Y-23701D01*
X37909Y-23501D01*
X37909Y-26296D01*
X37368Y-26837D01*
X37368Y-23980D01*
X37368Y-23301D01*
X37368Y-23273D01*
X37368Y-22593D01*
X37286Y-22568D01*
X37193Y-22594D01*
X37019Y-22704D01*
X36900Y-22872D01*
X36855Y-23073D01*
X36855Y-23273D01*
X37368Y-23273D01*
X37368Y-23301D01*
X36855Y-23301D01*
X36855Y-23501D01*
X36900Y-23701D01*
X37019Y-23869D01*
X37193Y-23979D01*
X37286Y-24005D01*
X37368Y-23980D01*
X37368Y-26837D01*
X35912Y-28294D01*
X35912Y-23501D01*
X35912Y-23074D01*
X35874Y-22883D01*
X35765Y-22721D01*
X35603Y-22612D01*
X35412Y-22574D01*
X35221Y-22612D01*
X35058Y-22721D01*
X34950Y-22883D01*
X34912Y-23074D01*
X34912Y-23501D01*
X34950Y-23693D01*
X35058Y-23855D01*
X35221Y-23963D01*
X35412Y-24001D01*
X35603Y-23963D01*
X35765Y-23855D01*
X35874Y-23693D01*
X35912Y-23501D01*
X35912Y-28294D01*
X35818Y-28387D01*
X35749Y-28358D01*
X35597Y-28358D01*
X35457Y-28416D01*
X35350Y-28523D01*
X35291Y-28663D01*
X35291Y-28815D01*
X35349Y-28955D01*
X35456Y-29063D01*
X35597Y-29121D01*
X35748Y-29121D01*
X35888Y-29063D01*
X35996Y-28956D01*
X36054Y-28816D01*
X36054Y-28664D01*
X36025Y-28594D01*
X39454Y-25166D01*
X39485Y-25118D01*
X39485Y-25118D01*
X39496Y-25062D01*
X39496Y-23971D01*
X39541Y-23962D01*
X39703Y-23854D01*
X39812Y-23692D01*
X39850Y-23500D01*
X39850Y-25785D01*
X37175Y-28459D01*
X37144Y-28507D01*
X37132Y-28563D01*
X37132Y-28622D01*
X37054Y-28701D01*
X37054Y-28664D01*
X36996Y-28524D01*
X36889Y-28417D01*
X36749Y-28358D01*
X36597Y-28358D01*
X36457Y-28416D01*
X36350Y-28523D01*
X36291Y-28663D01*
X36291Y-28815D01*
X36349Y-28955D01*
X36456Y-29063D01*
X36597Y-29121D01*
X36634Y-29121D01*
X36531Y-29223D01*
X35959Y-29223D01*
X35903Y-29235D01*
X35856Y-29266D01*
X35054Y-30068D01*
X35054Y-28664D01*
X34996Y-28524D01*
X34889Y-28417D01*
X34749Y-28358D01*
X34597Y-28358D01*
X34457Y-28416D01*
X34350Y-28523D01*
X34291Y-28663D01*
X34291Y-28815D01*
X34349Y-28955D01*
X34456Y-29063D01*
X34597Y-29121D01*
X34748Y-29121D01*
X34888Y-29063D01*
X34996Y-28956D01*
X35054Y-28816D01*
X35054Y-28664D01*
X35054Y-30068D01*
X34922Y-30200D01*
X34891Y-30247D01*
X34880Y-30303D01*
X34880Y-32135D01*
X34054Y-32960D01*
X34054Y-28664D01*
X33996Y-28524D01*
X33971Y-28499D01*
X33971Y-23502D01*
X33971Y-23302D01*
X33971Y-23274D01*
X33971Y-23074D01*
X33926Y-22873D01*
X33807Y-22705D01*
X33633Y-22595D01*
X33540Y-22569D01*
X33458Y-22594D01*
X33458Y-23274D01*
X33971Y-23274D01*
X33971Y-23302D01*
X33458Y-23302D01*
X33458Y-23981D01*
X33540Y-24006D01*
X33633Y-23980D01*
X33807Y-23870D01*
X33926Y-23702D01*
X33971Y-23502D01*
X33971Y-28499D01*
X33889Y-28417D01*
X33749Y-28358D01*
X33597Y-28358D01*
X33457Y-28416D01*
X33430Y-28443D01*
X33430Y-23981D01*
X33430Y-23302D01*
X33430Y-23274D01*
X33430Y-22594D01*
X33348Y-22569D01*
X33255Y-22595D01*
X33081Y-22705D01*
X32962Y-22873D01*
X32916Y-23074D01*
X32916Y-23274D01*
X33430Y-23274D01*
X33430Y-23302D01*
X32916Y-23302D01*
X32916Y-23502D01*
X32962Y-23702D01*
X33081Y-23870D01*
X33255Y-23980D01*
X33348Y-24006D01*
X33430Y-23981D01*
X33430Y-28443D01*
X33350Y-28523D01*
X33291Y-28663D01*
X33291Y-28815D01*
X33349Y-28955D01*
X33456Y-29063D01*
X33597Y-29121D01*
X33748Y-29121D01*
X33888Y-29063D01*
X33996Y-28956D01*
X34054Y-28816D01*
X34054Y-28664D01*
X34054Y-32960D01*
X33689Y-33326D01*
X33689Y-32892D01*
X33689Y-30572D01*
X33689Y-30530D01*
X33689Y-29978D01*
X33672Y-29939D01*
X33643Y-29909D01*
X33603Y-29893D01*
X33561Y-29893D01*
X33168Y-29893D01*
X33128Y-29909D01*
X33099Y-29939D01*
X33082Y-29978D01*
X33082Y-30021D01*
X33082Y-30112D01*
X33075Y-30073D01*
X33054Y-30042D01*
X33054Y-28664D01*
X32996Y-28524D01*
X32889Y-28417D01*
X32749Y-28358D01*
X32597Y-28358D01*
X32457Y-28416D01*
X32350Y-28523D01*
X32291Y-28663D01*
X32291Y-28815D01*
X32349Y-28955D01*
X32456Y-29063D01*
X32597Y-29121D01*
X32748Y-29121D01*
X32888Y-29063D01*
X32996Y-28956D01*
X33054Y-28816D01*
X33054Y-28664D01*
X33054Y-30042D01*
X33009Y-29975D01*
X32911Y-29909D01*
X32795Y-29886D01*
X32678Y-29909D01*
X32580Y-29975D01*
X32514Y-30073D01*
X32500Y-30148D01*
X32485Y-30073D01*
X32419Y-29975D01*
X32321Y-29909D01*
X32205Y-29886D01*
X32088Y-29909D01*
X32065Y-29925D01*
X32054Y-29914D01*
X32054Y-28664D01*
X31996Y-28524D01*
X31976Y-28504D01*
X31976Y-23500D01*
X31976Y-23073D01*
X31938Y-22882D01*
X31829Y-22720D01*
X31667Y-22611D01*
X31476Y-22573D01*
X31285Y-22611D01*
X31123Y-22720D01*
X31014Y-22882D01*
X30976Y-23073D01*
X30976Y-23500D01*
X31014Y-23692D01*
X31123Y-23854D01*
X31285Y-23962D01*
X31476Y-24000D01*
X31667Y-23962D01*
X31829Y-23854D01*
X31938Y-23692D01*
X31976Y-23500D01*
X31976Y-28504D01*
X31889Y-28417D01*
X31749Y-28358D01*
X31597Y-28358D01*
X31457Y-28416D01*
X31350Y-28523D01*
X31291Y-28663D01*
X31291Y-28815D01*
X31349Y-28955D01*
X31456Y-29063D01*
X31597Y-29121D01*
X31748Y-29121D01*
X31888Y-29063D01*
X31996Y-28956D01*
X32054Y-28816D01*
X32054Y-28664D01*
X32054Y-29914D01*
X31025Y-28885D01*
X31054Y-28816D01*
X31054Y-28664D01*
X30996Y-28524D01*
X30889Y-28417D01*
X30749Y-28358D01*
X30597Y-28358D01*
X30457Y-28416D01*
X30350Y-28523D01*
X30291Y-28663D01*
X30291Y-28815D01*
X30349Y-28955D01*
X30456Y-29063D01*
X30597Y-29121D01*
X30748Y-29121D01*
X30818Y-29092D01*
X31600Y-29874D01*
X31600Y-29899D01*
X31548Y-29872D01*
X31500Y-29886D01*
X31389Y-29953D01*
X31313Y-30057D01*
X31283Y-30183D01*
X31283Y-30261D01*
X31600Y-30261D01*
X31600Y-30253D01*
X31627Y-30253D01*
X31627Y-30261D01*
X31635Y-30261D01*
X31635Y-30289D01*
X31627Y-30289D01*
X31627Y-30651D01*
X31679Y-30678D01*
X31727Y-30665D01*
X31838Y-30597D01*
X31914Y-30493D01*
X31921Y-30462D01*
X31924Y-30477D01*
X31990Y-30576D01*
X32088Y-30641D01*
X32205Y-30664D01*
X32321Y-30641D01*
X32419Y-30576D01*
X32485Y-30477D01*
X32500Y-30402D01*
X32514Y-30477D01*
X32580Y-30576D01*
X32678Y-30641D01*
X32795Y-30664D01*
X32911Y-30641D01*
X33009Y-30576D01*
X33075Y-30477D01*
X33082Y-30438D01*
X33082Y-30572D01*
X33099Y-30611D01*
X33128Y-30641D01*
X33168Y-30657D01*
X33210Y-30657D01*
X33603Y-30657D01*
X33643Y-30641D01*
X33672Y-30611D01*
X33689Y-30572D01*
X33689Y-32892D01*
X33672Y-32853D01*
X33643Y-32823D01*
X33603Y-32807D01*
X33561Y-32807D01*
X33168Y-32807D01*
X33128Y-32823D01*
X33099Y-32853D01*
X33082Y-32892D01*
X33082Y-32934D01*
X33082Y-33025D01*
X33075Y-32986D01*
X33009Y-32888D01*
X32911Y-32822D01*
X32795Y-32799D01*
X32678Y-32822D01*
X32580Y-32888D01*
X32514Y-32986D01*
X32500Y-33061D01*
X32485Y-32986D01*
X32419Y-32888D01*
X32321Y-32822D01*
X32205Y-32799D01*
X32088Y-32822D01*
X31990Y-32888D01*
X31924Y-32986D01*
X31921Y-33002D01*
X31914Y-32970D01*
X31838Y-32866D01*
X31727Y-32799D01*
X31679Y-32786D01*
X31627Y-32813D01*
X31627Y-33175D01*
X31635Y-33175D01*
X31635Y-33202D01*
X31627Y-33202D01*
X31627Y-33210D01*
X31600Y-33210D01*
X31600Y-33202D01*
X31600Y-33175D01*
X31600Y-32813D01*
X31600Y-30651D01*
X31600Y-30289D01*
X31283Y-30289D01*
X31283Y-30368D01*
X31313Y-30493D01*
X31389Y-30597D01*
X31500Y-30665D01*
X31548Y-30678D01*
X31600Y-30651D01*
X31600Y-32813D01*
X31548Y-32786D01*
X31500Y-32799D01*
X31389Y-32866D01*
X31313Y-32970D01*
X31283Y-33096D01*
X31283Y-33175D01*
X31600Y-33175D01*
X31600Y-33202D01*
X31283Y-33202D01*
X31283Y-33281D01*
X31313Y-33407D01*
X31389Y-33511D01*
X31500Y-33578D01*
X31548Y-33591D01*
X31600Y-33564D01*
X31600Y-33586D01*
X31173Y-34013D01*
X31141Y-34061D01*
X31130Y-34117D01*
X31130Y-34897D01*
X31141Y-34953D01*
X31173Y-35000D01*
X31408Y-35235D01*
X31456Y-35267D01*
X31456Y-35267D01*
X31512Y-35278D01*
X32012Y-35278D01*
X32068Y-35267D01*
X32068Y-35267D01*
X32116Y-35235D01*
X32264Y-35087D01*
X32511Y-35333D01*
X31082Y-35333D01*
X31082Y-34661D01*
X31021Y-34511D01*
X31018Y-34506D01*
X30953Y-34479D01*
X30934Y-34498D01*
X30934Y-34459D01*
X30906Y-34395D01*
X30757Y-34332D01*
X30594Y-34331D01*
X30443Y-34392D01*
X30439Y-34395D01*
X30412Y-34459D01*
X30673Y-34721D01*
X30934Y-34459D01*
X30934Y-34498D01*
X30692Y-34740D01*
X30953Y-35001D01*
X31018Y-34974D01*
X31081Y-34824D01*
X31082Y-34661D01*
X31082Y-35333D01*
X30924Y-35333D01*
X30741Y-35149D01*
X30752Y-35150D01*
X30902Y-35088D01*
X30906Y-35085D01*
X30934Y-35021D01*
X30673Y-34760D01*
X30667Y-34765D01*
X30648Y-34746D01*
X30653Y-34740D01*
X30392Y-34479D01*
X30328Y-34506D01*
X30264Y-34656D01*
X30264Y-34663D01*
X30264Y-34639D01*
X30253Y-34583D01*
X30221Y-34535D01*
X30054Y-34368D01*
X30054Y-28664D01*
X30035Y-28619D01*
X30035Y-23501D01*
X30035Y-23301D01*
X30035Y-23273D01*
X30035Y-23073D01*
X29990Y-22872D01*
X29871Y-22704D01*
X29697Y-22594D01*
X29604Y-22568D01*
X29522Y-22593D01*
X29522Y-23273D01*
X30035Y-23273D01*
X30035Y-23301D01*
X29522Y-23301D01*
X29522Y-23980D01*
X29604Y-24005D01*
X29697Y-23979D01*
X29871Y-23869D01*
X29990Y-23701D01*
X30035Y-23501D01*
X30035Y-28619D01*
X29996Y-28524D01*
X29889Y-28417D01*
X29749Y-28358D01*
X29597Y-28358D01*
X29494Y-28401D01*
X29494Y-23980D01*
X29494Y-23301D01*
X29494Y-23273D01*
X29494Y-22593D01*
X29412Y-22568D01*
X29319Y-22594D01*
X29145Y-22704D01*
X29026Y-22872D01*
X28981Y-23073D01*
X28981Y-23273D01*
X29494Y-23273D01*
X29494Y-23301D01*
X28981Y-23301D01*
X28981Y-23501D01*
X29026Y-23701D01*
X29145Y-23869D01*
X29319Y-23979D01*
X29412Y-24005D01*
X29494Y-23980D01*
X29494Y-28401D01*
X29457Y-28416D01*
X29350Y-28523D01*
X29291Y-28663D01*
X29291Y-28815D01*
X29349Y-28955D01*
X29456Y-29063D01*
X29597Y-29121D01*
X29748Y-29121D01*
X29888Y-29063D01*
X29996Y-28956D01*
X30054Y-28816D01*
X30054Y-28664D01*
X30054Y-34368D01*
X29210Y-33524D01*
X29162Y-33492D01*
X29106Y-33481D01*
X29013Y-33481D01*
X29059Y-33448D01*
X29143Y-33312D01*
X29161Y-33246D01*
X29161Y-33091D01*
X29143Y-33024D01*
X29059Y-32889D01*
X28929Y-32795D01*
X28773Y-32759D01*
X28616Y-32759D01*
X28616Y-33155D01*
X29135Y-33155D01*
X29161Y-33091D01*
X29161Y-33246D01*
X29135Y-33182D01*
X28616Y-33182D01*
X28616Y-33190D01*
X28588Y-33190D01*
X28588Y-33182D01*
X28580Y-33182D01*
X28580Y-33155D01*
X28588Y-33155D01*
X28588Y-32759D01*
X28431Y-32759D01*
X28275Y-32795D01*
X28204Y-32846D01*
X28204Y-32481D01*
X28288Y-32537D01*
X28434Y-32566D01*
X28770Y-32566D01*
X28916Y-32537D01*
X29040Y-32454D01*
X29123Y-32331D01*
X29152Y-32184D01*
X29152Y-31200D01*
X29141Y-31147D01*
X29141Y-30513D01*
X29141Y-30471D01*
X29141Y-29920D01*
X29125Y-29881D01*
X29095Y-29851D01*
X29082Y-29845D01*
X29082Y-28661D01*
X29021Y-28510D01*
X29018Y-28506D01*
X28953Y-28478D01*
X28934Y-28498D01*
X28934Y-28459D01*
X28910Y-28403D01*
X28910Y-26768D01*
X28846Y-26612D01*
X28843Y-26606D01*
X28777Y-26577D01*
X28757Y-26596D01*
X28757Y-26557D01*
X28728Y-26491D01*
X28572Y-26425D01*
X28403Y-26424D01*
X28246Y-26487D01*
X28240Y-26491D01*
X28211Y-26557D01*
X28484Y-26830D01*
X28757Y-26557D01*
X28757Y-26596D01*
X28504Y-26850D01*
X28777Y-27123D01*
X28843Y-27094D01*
X28909Y-26938D01*
X28910Y-26768D01*
X28910Y-28403D01*
X28906Y-28394D01*
X28757Y-28332D01*
X28757Y-27142D01*
X28484Y-26869D01*
X28465Y-26889D01*
X28465Y-26850D01*
X28191Y-26577D01*
X28125Y-26606D01*
X28075Y-26725D01*
X28033Y-26625D01*
X27922Y-26513D01*
X27776Y-26452D01*
X27617Y-26452D01*
X27527Y-26489D01*
X27527Y-21420D01*
X27439Y-21207D01*
X27277Y-21045D01*
X27064Y-20956D01*
X26834Y-20956D01*
X26621Y-21044D01*
X26458Y-21207D01*
X26370Y-21419D01*
X26369Y-21650D01*
X26457Y-21862D01*
X26620Y-22025D01*
X26833Y-22114D01*
X27063Y-22114D01*
X27276Y-22026D01*
X27439Y-21863D01*
X27527Y-21651D01*
X27527Y-21420D01*
X27527Y-26489D01*
X27471Y-26512D01*
X27359Y-26624D01*
X27298Y-26770D01*
X27298Y-26929D01*
X27359Y-27075D01*
X27470Y-27187D01*
X27617Y-27248D01*
X27638Y-27248D01*
X27608Y-27293D01*
X27604Y-27309D01*
X27588Y-27312D01*
X27529Y-27352D01*
X27490Y-27411D01*
X27476Y-27480D01*
X27490Y-27549D01*
X27529Y-27608D01*
X27588Y-27647D01*
X27604Y-27651D01*
X27608Y-27667D01*
X27647Y-27726D01*
X27706Y-27765D01*
X27775Y-27779D01*
X27844Y-27765D01*
X27903Y-27726D01*
X27943Y-27667D01*
X27946Y-27651D01*
X27962Y-27647D01*
X28021Y-27608D01*
X28061Y-27549D01*
X28074Y-27480D01*
X28061Y-27411D01*
X28021Y-27352D01*
X27962Y-27312D01*
X27946Y-27309D01*
X27943Y-27293D01*
X27903Y-27234D01*
X27867Y-27210D01*
X27921Y-27187D01*
X28033Y-27076D01*
X28075Y-26974D01*
X28122Y-27088D01*
X28125Y-27094D01*
X28191Y-27123D01*
X28465Y-26850D01*
X28465Y-26889D01*
X28211Y-27142D01*
X28240Y-27209D01*
X28396Y-27275D01*
X28565Y-27276D01*
X28722Y-27212D01*
X28728Y-27209D01*
X28757Y-27142D01*
X28757Y-28332D01*
X28757Y-28331D01*
X28594Y-28330D01*
X28443Y-28392D01*
X28439Y-28394D01*
X28412Y-28459D01*
X28673Y-28720D01*
X28934Y-28459D01*
X28934Y-28498D01*
X28692Y-28740D01*
X28953Y-29001D01*
X29018Y-28973D01*
X29081Y-28824D01*
X29082Y-28661D01*
X29082Y-29845D01*
X29056Y-29835D01*
X29014Y-29835D01*
X28934Y-29835D01*
X28934Y-29020D01*
X28673Y-28759D01*
X28653Y-28779D01*
X28653Y-28740D01*
X28392Y-28478D01*
X28328Y-28506D01*
X28264Y-28656D01*
X28263Y-28818D01*
X28325Y-28969D01*
X28328Y-28973D01*
X28392Y-29001D01*
X28653Y-28740D01*
X28653Y-28779D01*
X28412Y-29020D01*
X28439Y-29085D01*
X28589Y-29148D01*
X28752Y-29149D01*
X28902Y-29088D01*
X28906Y-29085D01*
X28934Y-29020D01*
X28934Y-29835D01*
X28148Y-29835D01*
X28109Y-29851D01*
X28079Y-29881D01*
X28062Y-29920D01*
X28062Y-29962D01*
X28062Y-30513D01*
X28079Y-30552D01*
X28109Y-30582D01*
X28148Y-30598D01*
X28190Y-30598D01*
X29056Y-30598D01*
X29095Y-30582D01*
X29125Y-30552D01*
X29141Y-30513D01*
X29141Y-31147D01*
X29123Y-31054D01*
X29040Y-30930D01*
X28916Y-30848D01*
X28770Y-30819D01*
X28434Y-30819D01*
X28288Y-30848D01*
X28164Y-30930D01*
X28081Y-31054D01*
X28054Y-31190D01*
X28054Y-28664D01*
X27996Y-28524D01*
X27889Y-28417D01*
X27749Y-28358D01*
X27597Y-28358D01*
X27457Y-28416D01*
X27350Y-28523D01*
X27291Y-28663D01*
X27291Y-28815D01*
X27349Y-28955D01*
X27456Y-29063D01*
X27597Y-29121D01*
X27748Y-29121D01*
X27888Y-29063D01*
X27996Y-28956D01*
X28054Y-28816D01*
X28054Y-28664D01*
X28054Y-31190D01*
X28052Y-31200D01*
X28081Y-31347D01*
X28164Y-31470D01*
X28288Y-31553D01*
X28434Y-31582D01*
X28770Y-31582D01*
X28916Y-31553D01*
X29040Y-31470D01*
X29123Y-31347D01*
X29152Y-31200D01*
X29152Y-32184D01*
X29123Y-32038D01*
X29040Y-31914D01*
X28916Y-31832D01*
X28770Y-31803D01*
X28434Y-31803D01*
X28288Y-31832D01*
X28164Y-31914D01*
X28081Y-32038D01*
X28058Y-32038D01*
X28002Y-32049D01*
X27954Y-32081D01*
X27923Y-32128D01*
X27912Y-32184D01*
X27912Y-33340D01*
X27923Y-33395D01*
X27954Y-33443D01*
X28242Y-33731D01*
X28290Y-33762D01*
X28290Y-33762D01*
X28346Y-33774D01*
X29046Y-33774D01*
X29631Y-34359D01*
X29597Y-34359D01*
X29457Y-34417D01*
X29350Y-34524D01*
X29291Y-34664D01*
X29291Y-34816D01*
X29349Y-34956D01*
X29456Y-35063D01*
X29597Y-35121D01*
X29748Y-35122D01*
X29888Y-35064D01*
X29996Y-34956D01*
X30036Y-34859D01*
X30760Y-35582D01*
X30807Y-35614D01*
X30807Y-35614D01*
X30863Y-35625D01*
X33175Y-35625D01*
X33313Y-35763D01*
X33243Y-35763D01*
X33095Y-35824D01*
X32982Y-35937D01*
X32921Y-36085D01*
X32921Y-36244D01*
X32982Y-36392D01*
X33095Y-36505D01*
X33242Y-36566D01*
X33402Y-36566D01*
X33483Y-36533D01*
X33613Y-36662D01*
X33660Y-36694D01*
X33660Y-36694D01*
X33716Y-36705D01*
X35929Y-36705D01*
X35985Y-36694D01*
X35985Y-36694D01*
X36032Y-36662D01*
X36161Y-36533D01*
X36242Y-36566D01*
X36402Y-36566D01*
X36550Y-36505D01*
X36663Y-36393D01*
X36724Y-36245D01*
X36724Y-36085D01*
X36663Y-35938D01*
X36550Y-35825D01*
X36403Y-35763D01*
X36243Y-35763D01*
X36095Y-35824D01*
X35982Y-35937D01*
X35921Y-36085D01*
X35921Y-36244D01*
X35954Y-36326D01*
X35868Y-36412D01*
X35856Y-36412D01*
X35868Y-36400D01*
X35900Y-36353D01*
X35900Y-36353D01*
X35911Y-36297D01*
X35911Y-35709D01*
X36527Y-35093D01*
X36597Y-35121D01*
X36748Y-35122D01*
X36888Y-35064D01*
X36996Y-34956D01*
X37054Y-34816D01*
X37054Y-34665D01*
X36996Y-34524D01*
X36889Y-34417D01*
X36749Y-34359D01*
X36597Y-34359D01*
X36457Y-34417D01*
X36350Y-34524D01*
X36291Y-34664D01*
X36291Y-34816D01*
X36320Y-34886D01*
X35661Y-35544D01*
X35630Y-35592D01*
X35627Y-35604D01*
X35627Y-35601D01*
X35627Y-35601D01*
X35595Y-35553D01*
X35319Y-35277D01*
X35319Y-34883D01*
X35349Y-34956D01*
X35456Y-35063D01*
X35597Y-35121D01*
X35748Y-35122D01*
X35888Y-35064D01*
X35996Y-34956D01*
X36054Y-34816D01*
X36054Y-34665D01*
X35996Y-34524D01*
X35889Y-34417D01*
X35749Y-34359D01*
X35597Y-34359D01*
X35457Y-34417D01*
X35350Y-34524D01*
X35305Y-34632D01*
X35276Y-34589D01*
X34980Y-34292D01*
X39074Y-34292D01*
X39130Y-34281D01*
X39130Y-34281D01*
X39178Y-34250D01*
X39808Y-33619D01*
X39839Y-33572D01*
X39839Y-33572D01*
X39851Y-33516D01*
X39851Y-33467D01*
X39891Y-33440D01*
X39948Y-33355D01*
X39948Y-33354D01*
X39952Y-33372D01*
X40020Y-33463D01*
X40116Y-33521D01*
X39043Y-34594D01*
X39025Y-34594D01*
X38996Y-34524D01*
X38889Y-34417D01*
X38749Y-34359D01*
X38597Y-34359D01*
X38457Y-34417D01*
X38350Y-34524D01*
X38291Y-34664D01*
X38291Y-34816D01*
X38349Y-34956D01*
X38456Y-35063D01*
X38597Y-35121D01*
X38748Y-35122D01*
X38888Y-35064D01*
X38996Y-34956D01*
X39025Y-34886D01*
X39103Y-34886D01*
X39159Y-34875D01*
X39159Y-34875D01*
X39207Y-34844D01*
X39291Y-34759D01*
X39291Y-34816D01*
X39349Y-34956D01*
X39456Y-35063D01*
X39597Y-35121D01*
X39748Y-35122D01*
X39888Y-35064D01*
X39996Y-34956D01*
X40054Y-34816D01*
X40054Y-34665D01*
X39996Y-34524D01*
X39889Y-34417D01*
X39749Y-34359D01*
X39692Y-34359D01*
X41276Y-32774D01*
X41308Y-32727D01*
X41308Y-32727D01*
X41319Y-32671D01*
X41319Y-28882D01*
X41349Y-28955D01*
X41456Y-29063D01*
X41597Y-29121D01*
X41748Y-29121D01*
X41888Y-29063D01*
X41996Y-28956D01*
X42025Y-28886D01*
X42104Y-28886D01*
X42160Y-28875D01*
X42160Y-28875D01*
X42208Y-28843D01*
X43353Y-27698D01*
X43385Y-27650D01*
X43396Y-27594D01*
X43396Y-39680D01*
X43287Y-39842D01*
X43275Y-39850D01*
X43275Y-39137D01*
X43187Y-38924D01*
X43025Y-38761D01*
X42812Y-38673D01*
X42582Y-38673D01*
X42369Y-38761D01*
X42206Y-38923D01*
X42118Y-39136D01*
X42117Y-39366D01*
X42205Y-39579D01*
X42368Y-39742D01*
X42581Y-39830D01*
X42811Y-39830D01*
X43024Y-39742D01*
X43187Y-39580D01*
X43275Y-39367D01*
X43275Y-39137D01*
X43275Y-39850D01*
X43016Y-40023D01*
X42682Y-40090D01*
X42054Y-40090D01*
X42054Y-34665D01*
X41996Y-34524D01*
X41889Y-34417D01*
X41749Y-34359D01*
X41597Y-34359D01*
X41457Y-34417D01*
X41350Y-34524D01*
X41291Y-34664D01*
X41291Y-34816D01*
X41349Y-34956D01*
X41456Y-35063D01*
X41597Y-35121D01*
X41748Y-35122D01*
X41888Y-35064D01*
X41996Y-34956D01*
X42054Y-34816D01*
X42054Y-34665D01*
X42054Y-40090D01*
X41054Y-40090D01*
X41054Y-34665D01*
X40996Y-34524D01*
X40889Y-34417D01*
X40749Y-34359D01*
X40597Y-34359D01*
X40457Y-34417D01*
X40350Y-34524D01*
X40291Y-34664D01*
X40291Y-34816D01*
X40349Y-34956D01*
X40456Y-35063D01*
X40597Y-35121D01*
X40748Y-35122D01*
X40888Y-35064D01*
X40996Y-34956D01*
X41054Y-34816D01*
X41054Y-34665D01*
X41054Y-40090D01*
X38054Y-40090D01*
X38054Y-34665D01*
X37996Y-34524D01*
X37889Y-34417D01*
X37749Y-34359D01*
X37597Y-34359D01*
X37457Y-34417D01*
X37350Y-34524D01*
X37291Y-34664D01*
X37291Y-34816D01*
X37349Y-34956D01*
X37456Y-35063D01*
X37597Y-35121D01*
X37748Y-35122D01*
X37888Y-35064D01*
X37996Y-34956D01*
X38054Y-34816D01*
X38054Y-34665D01*
X38054Y-40090D01*
X36752Y-40090D01*
X36752Y-38083D01*
X36688Y-37925D01*
X36684Y-37919D01*
X36618Y-37889D01*
X36598Y-37909D01*
X36598Y-37870D01*
X36568Y-37803D01*
X36411Y-37736D01*
X36240Y-37735D01*
X36082Y-37799D01*
X36076Y-37803D01*
X36047Y-37870D01*
X36322Y-38145D01*
X36598Y-37870D01*
X36598Y-37909D01*
X36342Y-38165D01*
X36618Y-38441D01*
X36684Y-38411D01*
X36751Y-38254D01*
X36752Y-38083D01*
X36752Y-40090D01*
X36598Y-40090D01*
X36598Y-38460D01*
X36322Y-38184D01*
X36303Y-38204D01*
X36303Y-38165D01*
X36027Y-37889D01*
X35960Y-37919D01*
X35894Y-38076D01*
X35893Y-38247D01*
X35957Y-38405D01*
X35960Y-38411D01*
X36027Y-38441D01*
X36303Y-38165D01*
X36303Y-38204D01*
X36047Y-38460D01*
X36076Y-38527D01*
X36234Y-38593D01*
X36404Y-38595D01*
X36563Y-38531D01*
X36568Y-38527D01*
X36598Y-38460D01*
X36598Y-40090D01*
X35275Y-40090D01*
X35275Y-39618D01*
X35275Y-38807D01*
X34369Y-38807D01*
X34369Y-39618D01*
X35275Y-39618D01*
X35275Y-40090D01*
X33752Y-40090D01*
X33752Y-38083D01*
X33688Y-37925D01*
X33684Y-37919D01*
X33618Y-37889D01*
X33598Y-37909D01*
X33598Y-37870D01*
X33568Y-37803D01*
X33411Y-37736D01*
X33240Y-37735D01*
X33082Y-37799D01*
X33076Y-37803D01*
X33047Y-37870D01*
X33322Y-38145D01*
X33598Y-37870D01*
X33598Y-37909D01*
X33342Y-38165D01*
X33618Y-38441D01*
X33684Y-38411D01*
X33751Y-38254D01*
X33752Y-38083D01*
X33752Y-40090D01*
X33598Y-40090D01*
X33598Y-38460D01*
X33322Y-38184D01*
X33303Y-38204D01*
X33303Y-38165D01*
X33027Y-37889D01*
X32960Y-37919D01*
X32894Y-38076D01*
X32893Y-38247D01*
X32957Y-38405D01*
X32960Y-38411D01*
X33027Y-38441D01*
X33303Y-38165D01*
X33303Y-38204D01*
X33047Y-38460D01*
X33076Y-38527D01*
X33234Y-38593D01*
X33404Y-38595D01*
X33563Y-38531D01*
X33568Y-38527D01*
X33598Y-38460D01*
X33598Y-40090D01*
X32028Y-40090D01*
X32028Y-38083D01*
X32000Y-38013D01*
X32000Y-36085D01*
X31939Y-35938D01*
X31826Y-35825D01*
X31678Y-35763D01*
X31518Y-35763D01*
X31371Y-35824D01*
X31258Y-35937D01*
X31224Y-36019D01*
X29054Y-36019D01*
X29054Y-34665D01*
X28996Y-34524D01*
X28889Y-34417D01*
X28749Y-34359D01*
X28597Y-34359D01*
X28457Y-34417D01*
X28350Y-34524D01*
X28291Y-34664D01*
X28291Y-34816D01*
X28349Y-34956D01*
X28456Y-35063D01*
X28597Y-35121D01*
X28748Y-35122D01*
X28888Y-35064D01*
X28996Y-34956D01*
X29054Y-34816D01*
X29054Y-34665D01*
X29054Y-36019D01*
X28972Y-36019D01*
X28939Y-35938D01*
X28826Y-35825D01*
X28678Y-35763D01*
X28518Y-35763D01*
X28371Y-35824D01*
X28258Y-35937D01*
X28196Y-36085D01*
X28196Y-36244D01*
X28257Y-36392D01*
X28370Y-36505D01*
X28518Y-36566D01*
X28677Y-36566D01*
X28825Y-36505D01*
X28938Y-36393D01*
X28972Y-36311D01*
X31224Y-36311D01*
X31257Y-36392D01*
X31370Y-36505D01*
X31518Y-36566D01*
X31677Y-36566D01*
X31825Y-36505D01*
X31938Y-36393D01*
X31999Y-36245D01*
X32000Y-36085D01*
X32000Y-38013D01*
X31964Y-37925D01*
X31960Y-37919D01*
X31893Y-37889D01*
X31874Y-37909D01*
X31874Y-37870D01*
X31844Y-37803D01*
X31687Y-37736D01*
X31516Y-37735D01*
X31358Y-37799D01*
X31352Y-37803D01*
X31322Y-37870D01*
X31598Y-38145D01*
X31874Y-37870D01*
X31874Y-37909D01*
X31617Y-38165D01*
X31893Y-38441D01*
X31960Y-38411D01*
X32026Y-38254D01*
X32028Y-38083D01*
X32028Y-40090D01*
X31874Y-40090D01*
X31874Y-38460D01*
X31598Y-38184D01*
X31578Y-38204D01*
X31578Y-38165D01*
X31303Y-37889D01*
X31236Y-37919D01*
X31169Y-38076D01*
X31168Y-38247D01*
X31232Y-38405D01*
X31236Y-38411D01*
X31303Y-38441D01*
X31578Y-38165D01*
X31578Y-38204D01*
X31322Y-38460D01*
X31352Y-38527D01*
X31509Y-38593D01*
X31680Y-38595D01*
X31838Y-38531D01*
X31844Y-38527D01*
X31874Y-38460D01*
X31874Y-40090D01*
X30551Y-40090D01*
X30551Y-39618D01*
X30551Y-38807D01*
X29645Y-38807D01*
X29645Y-39618D01*
X30551Y-39618D01*
X30551Y-40090D01*
X29028Y-40090D01*
X29028Y-38083D01*
X28964Y-37925D01*
X28960Y-37919D01*
X28893Y-37889D01*
X28874Y-37909D01*
X28874Y-37870D01*
X28844Y-37803D01*
X28687Y-37736D01*
X28516Y-37735D01*
X28358Y-37799D01*
X28352Y-37803D01*
X28322Y-37870D01*
X28598Y-38145D01*
X28874Y-37870D01*
X28874Y-37909D01*
X28617Y-38165D01*
X28893Y-38441D01*
X28960Y-38411D01*
X29026Y-38254D01*
X29028Y-38083D01*
X29028Y-40090D01*
X28874Y-40090D01*
X28874Y-38460D01*
X28598Y-38184D01*
X28578Y-38204D01*
X28578Y-38165D01*
X28303Y-37889D01*
X28236Y-37919D01*
X28169Y-38076D01*
X28168Y-38247D01*
X28232Y-38405D01*
X28236Y-38411D01*
X28303Y-38441D01*
X28578Y-38165D01*
X28578Y-38204D01*
X28322Y-38460D01*
X28352Y-38527D01*
X28509Y-38593D01*
X28680Y-38595D01*
X28838Y-38531D01*
X28844Y-38527D01*
X28874Y-38460D01*
X28874Y-40090D01*
X28054Y-40090D01*
X28054Y-35036D01*
X28054Y-34994D01*
X28054Y-34444D01*
X28038Y-34405D01*
X28008Y-34375D01*
X27969Y-34359D01*
X27927Y-34359D01*
X27377Y-34359D01*
X27338Y-34375D01*
X27308Y-34405D01*
X27291Y-34444D01*
X27291Y-34486D01*
X27291Y-35036D01*
X27308Y-35075D01*
X27338Y-35105D01*
X27377Y-35121D01*
X27419Y-35121D01*
X27969Y-35121D01*
X28008Y-35105D01*
X28038Y-35075D01*
X28054Y-35036D01*
X28054Y-40090D01*
X27527Y-40090D01*
X27527Y-39137D01*
X27439Y-38924D01*
X27277Y-38761D01*
X27064Y-38673D01*
X26834Y-38673D01*
X26621Y-38761D01*
X26458Y-38923D01*
X26370Y-39136D01*
X26369Y-39366D01*
X26457Y-39579D01*
X26620Y-39742D01*
X26833Y-39830D01*
X27063Y-39830D01*
X27276Y-39742D01*
X27439Y-39580D01*
X27527Y-39367D01*
X27527Y-39137D01*
X27527Y-40090D01*
X26963Y-40090D01*
X26629Y-40023D01*
X26357Y-39842D01*
X26176Y-39571D01*
X26110Y-39237D01*
X26110Y-21549D01*
X26176Y-21215D01*
X26357Y-20944D01*
X26629Y-20763D01*
X26963Y-20696D01*
X42682Y-20696D01*
X43016Y-20763D01*
X43287Y-20944D01*
X43468Y-21215D01*
X43535Y-21549D01*
X43535Y-39237D01*
X43535Y-39237D01*
G37*
G54D34*
X43535Y-39237D02*
X43468Y-39571D01*
X43396Y-39680D01*
X43396Y-27594D01*
X43396Y-25722D01*
X43385Y-25666D01*
X43385Y-25666D01*
X43353Y-25619D01*
X43275Y-25541D01*
X43275Y-21420D01*
X43187Y-21207D01*
X43025Y-21045D01*
X42812Y-20956D01*
X42582Y-20956D01*
X42369Y-21044D01*
X42206Y-21207D01*
X42118Y-21419D01*
X42117Y-21650D01*
X42205Y-21862D01*
X42368Y-22025D01*
X42581Y-22114D01*
X42811Y-22114D01*
X43024Y-22026D01*
X43187Y-21863D01*
X43275Y-21651D01*
X43275Y-21420D01*
X43275Y-25541D01*
X43119Y-25385D01*
X43119Y-23074D01*
X43054Y-22914D01*
X43050Y-22908D01*
X42983Y-22878D01*
X42964Y-22897D01*
X42964Y-22858D01*
X42933Y-22791D01*
X42774Y-22724D01*
X42602Y-22722D01*
X42442Y-22787D01*
X42436Y-22791D01*
X42405Y-22858D01*
X42685Y-23137D01*
X42964Y-22858D01*
X42964Y-22897D01*
X42704Y-23157D01*
X42983Y-23436D01*
X43050Y-23406D01*
X43118Y-23247D01*
X43119Y-23074D01*
X43119Y-25385D01*
X43056Y-25322D01*
X43091Y-25238D01*
X43091Y-25077D01*
X43091Y-24077D01*
X43029Y-23927D01*
X42964Y-23862D01*
X42964Y-23456D01*
X42685Y-23176D01*
X42665Y-23196D01*
X42665Y-23157D01*
X42386Y-22878D01*
X42319Y-22908D01*
X42251Y-23067D01*
X42250Y-23240D01*
X42315Y-23400D01*
X42319Y-23406D01*
X42386Y-23436D01*
X42665Y-23157D01*
X42665Y-23196D01*
X42405Y-23456D01*
X42436Y-23523D01*
X42595Y-23590D01*
X42767Y-23592D01*
X42927Y-23527D01*
X42933Y-23523D01*
X42964Y-23456D01*
X42964Y-23862D01*
X42915Y-23813D01*
X42766Y-23751D01*
X42604Y-23751D01*
X42455Y-23812D01*
X42340Y-23927D01*
X42278Y-24076D01*
X42278Y-24237D01*
X42340Y-24387D01*
X42454Y-24501D01*
X42603Y-24563D01*
X42765Y-24563D01*
X42914Y-24502D01*
X43029Y-24387D01*
X43091Y-24238D01*
X43091Y-24077D01*
X43091Y-25077D01*
X43029Y-24927D01*
X42915Y-24813D01*
X42766Y-24751D01*
X42604Y-24751D01*
X42455Y-24812D01*
X42340Y-24927D01*
X42278Y-25076D01*
X42278Y-25237D01*
X42340Y-25387D01*
X42454Y-25501D01*
X42603Y-25563D01*
X42765Y-25563D01*
X42849Y-25529D01*
X43103Y-25783D01*
X43103Y-26369D01*
X43056Y-26322D01*
X43091Y-26238D01*
X43091Y-26077D01*
X43029Y-25927D01*
X42915Y-25813D01*
X42766Y-25751D01*
X42604Y-25751D01*
X42455Y-25812D01*
X42340Y-25927D01*
X42278Y-26076D01*
X42278Y-26237D01*
X42340Y-26387D01*
X42454Y-26501D01*
X42603Y-26563D01*
X42765Y-26563D01*
X42849Y-26529D01*
X42949Y-26629D01*
X42949Y-26751D01*
X42363Y-26751D01*
X42324Y-26767D01*
X42294Y-26797D01*
X42278Y-26836D01*
X42278Y-26878D01*
X42278Y-27011D01*
X42274Y-27011D01*
X42119Y-27011D01*
X42119Y-23074D01*
X42054Y-22914D01*
X42050Y-22908D01*
X41983Y-22878D01*
X41964Y-22897D01*
X41964Y-22858D01*
X41933Y-22791D01*
X41774Y-22724D01*
X41602Y-22722D01*
X41442Y-22787D01*
X41436Y-22791D01*
X41405Y-22858D01*
X41685Y-23137D01*
X41964Y-22858D01*
X41964Y-22897D01*
X41704Y-23157D01*
X41983Y-23436D01*
X42050Y-23406D01*
X42118Y-23247D01*
X42119Y-23074D01*
X42119Y-27011D01*
X42091Y-27011D01*
X42091Y-26077D01*
X42091Y-25077D01*
X42029Y-24927D01*
X41915Y-24813D01*
X41766Y-24751D01*
X41604Y-24751D01*
X41455Y-24812D01*
X41340Y-24927D01*
X41278Y-25076D01*
X41278Y-25237D01*
X41340Y-25387D01*
X41454Y-25501D01*
X41603Y-25563D01*
X41765Y-25563D01*
X41914Y-25502D01*
X42029Y-25387D01*
X42091Y-25238D01*
X42091Y-25077D01*
X42091Y-26077D01*
X42029Y-25927D01*
X41915Y-25813D01*
X41766Y-25751D01*
X41604Y-25751D01*
X41455Y-25812D01*
X41340Y-25927D01*
X41278Y-26076D01*
X41278Y-26237D01*
X41340Y-26387D01*
X41454Y-26501D01*
X41603Y-26563D01*
X41765Y-26563D01*
X41914Y-26502D01*
X42029Y-26387D01*
X42091Y-26238D01*
X42091Y-26077D01*
X42091Y-27011D01*
X42064Y-27011D01*
X42029Y-26927D01*
X41915Y-26813D01*
X41766Y-26751D01*
X41604Y-26751D01*
X41455Y-26812D01*
X41340Y-26927D01*
X41278Y-27076D01*
X41278Y-27237D01*
X41313Y-27322D01*
X40943Y-27692D01*
X40890Y-27692D01*
X40890Y-27135D01*
X40890Y-27030D01*
X40890Y-26936D01*
X40890Y-26831D01*
X40869Y-26782D01*
X40832Y-26744D01*
X40783Y-26724D01*
X40729Y-26724D01*
X40578Y-26724D01*
X40545Y-26758D01*
X40545Y-26969D01*
X40856Y-26969D01*
X40890Y-26936D01*
X40890Y-27030D01*
X40856Y-26997D01*
X40545Y-26997D01*
X40545Y-27208D01*
X40578Y-27242D01*
X40729Y-27242D01*
X40783Y-27242D01*
X40832Y-27221D01*
X40869Y-27184D01*
X40890Y-27135D01*
X40890Y-27692D01*
X40862Y-27692D01*
X40862Y-27687D01*
X40862Y-27437D01*
X40846Y-27398D01*
X40816Y-27368D01*
X40777Y-27352D01*
X40735Y-27352D01*
X40517Y-27352D01*
X40517Y-27208D01*
X40517Y-26997D01*
X40517Y-26969D01*
X40517Y-26758D01*
X40484Y-26724D01*
X40333Y-26724D01*
X40279Y-26724D01*
X40230Y-26744D01*
X40193Y-26782D01*
X40172Y-26831D01*
X40172Y-26936D01*
X40206Y-26969D01*
X40517Y-26969D01*
X40517Y-26997D01*
X40206Y-26997D01*
X40172Y-27030D01*
X40172Y-27135D01*
X40193Y-27184D01*
X40230Y-27221D01*
X40279Y-27242D01*
X40333Y-27242D01*
X40484Y-27242D01*
X40517Y-27208D01*
X40517Y-27352D01*
X40285Y-27352D01*
X40246Y-27368D01*
X40216Y-27398D01*
X40200Y-27437D01*
X40200Y-27479D01*
X40200Y-27729D01*
X40216Y-27768D01*
X40246Y-27798D01*
X40285Y-27814D01*
X40327Y-27814D01*
X40385Y-27814D01*
X40385Y-27819D01*
X40396Y-27875D01*
X40428Y-27922D01*
X40475Y-27954D01*
X40526Y-27964D01*
X40526Y-28388D01*
X40457Y-28416D01*
X40350Y-28523D01*
X40291Y-28663D01*
X40291Y-28815D01*
X40349Y-28955D01*
X40456Y-29063D01*
X40597Y-29121D01*
X40748Y-29121D01*
X40888Y-29063D01*
X40996Y-28956D01*
X41026Y-28882D01*
X41026Y-32610D01*
X40508Y-33129D01*
X40508Y-33116D01*
X40508Y-30269D01*
X40508Y-30210D01*
X40508Y-30183D01*
X40508Y-30124D01*
X40480Y-30013D01*
X40412Y-29922D01*
X40315Y-29863D01*
X40275Y-29852D01*
X40230Y-29880D01*
X40230Y-30183D01*
X40508Y-30183D01*
X40508Y-30210D01*
X40230Y-30210D01*
X40230Y-30513D01*
X40275Y-30541D01*
X40315Y-30530D01*
X40412Y-30471D01*
X40480Y-30380D01*
X40508Y-30269D01*
X40508Y-33116D01*
X40480Y-33005D01*
X40412Y-32914D01*
X40315Y-32855D01*
X40275Y-32844D01*
X40230Y-32872D01*
X40230Y-33175D01*
X40238Y-33175D01*
X40238Y-33202D01*
X40230Y-33202D01*
X40230Y-33210D01*
X40202Y-33210D01*
X40202Y-33202D01*
X40195Y-33202D01*
X40195Y-33175D01*
X40202Y-33175D01*
X40202Y-32872D01*
X40157Y-32844D01*
X40117Y-32855D01*
X40020Y-32914D01*
X39952Y-33005D01*
X39948Y-33023D01*
X39948Y-33022D01*
X39891Y-32937D01*
X39805Y-32879D01*
X39704Y-32859D01*
X39603Y-32879D01*
X39518Y-32937D01*
X39461Y-33022D01*
X39456Y-33045D01*
X39456Y-32951D01*
X39440Y-32912D01*
X39410Y-32882D01*
X39371Y-32866D01*
X39329Y-32866D01*
X39014Y-32866D01*
X38975Y-32882D01*
X38945Y-32912D01*
X38928Y-32951D01*
X38928Y-32993D01*
X38928Y-33042D01*
X38924Y-33042D01*
X38868Y-33053D01*
X38820Y-33085D01*
X38057Y-33849D01*
X36568Y-33849D01*
X36568Y-33280D01*
X36568Y-33105D01*
X36568Y-32280D01*
X36568Y-32105D01*
X36546Y-32024D01*
X36448Y-31867D01*
X36297Y-31760D01*
X36117Y-31719D01*
X36057Y-31719D01*
X36057Y-32179D01*
X36543Y-32179D01*
X36568Y-32105D01*
X36568Y-32280D01*
X36543Y-32206D01*
X36057Y-32206D01*
X36057Y-32666D01*
X36117Y-32666D01*
X36297Y-32625D01*
X36448Y-32518D01*
X36546Y-32361D01*
X36568Y-32280D01*
X36568Y-33105D01*
X36546Y-33024D01*
X36448Y-32867D01*
X36297Y-32760D01*
X36117Y-32719D01*
X36057Y-32719D01*
X36057Y-33179D01*
X36543Y-33179D01*
X36568Y-33105D01*
X36568Y-33280D01*
X36543Y-33206D01*
X36057Y-33206D01*
X36057Y-33666D01*
X36117Y-33666D01*
X36297Y-33625D01*
X36448Y-33518D01*
X36546Y-33361D01*
X36568Y-33280D01*
X36568Y-33849D01*
X36029Y-33849D01*
X36029Y-33666D01*
X36029Y-33206D01*
X36029Y-33179D01*
X36029Y-32719D01*
X36029Y-32666D01*
X36029Y-32206D01*
X36029Y-32179D01*
X36029Y-31719D01*
X35969Y-31719D01*
X35789Y-31760D01*
X35638Y-31867D01*
X35540Y-32024D01*
X35517Y-32105D01*
X35543Y-32179D01*
X36029Y-32179D01*
X36029Y-32206D01*
X35543Y-32206D01*
X35517Y-32280D01*
X35540Y-32361D01*
X35638Y-32518D01*
X35789Y-32625D01*
X35969Y-32666D01*
X36029Y-32666D01*
X36029Y-32719D01*
X35969Y-32719D01*
X35789Y-32760D01*
X35638Y-32867D01*
X35540Y-33024D01*
X35517Y-33105D01*
X35543Y-33179D01*
X36029Y-33179D01*
X36029Y-33206D01*
X35543Y-33206D01*
X35517Y-33280D01*
X35540Y-33361D01*
X35638Y-33518D01*
X35789Y-33625D01*
X35969Y-33666D01*
X36029Y-33666D01*
X36029Y-33849D01*
X33579Y-33849D01*
X35129Y-32299D01*
X35161Y-32251D01*
X35172Y-32195D01*
X35172Y-30364D01*
X35537Y-29999D01*
X35537Y-30554D01*
X35553Y-30593D01*
X35583Y-30623D01*
X35622Y-30639D01*
X35664Y-30639D01*
X36464Y-30639D01*
X36503Y-30623D01*
X36533Y-30593D01*
X36549Y-30554D01*
X36549Y-30511D01*
X36549Y-30339D01*
X36554Y-30339D01*
X36980Y-30339D01*
X36980Y-30375D01*
X36996Y-30414D01*
X37026Y-30444D01*
X37065Y-30460D01*
X37108Y-30460D01*
X37265Y-30460D01*
X37304Y-30444D01*
X37334Y-30414D01*
X37342Y-30394D01*
X37350Y-30414D01*
X37373Y-30436D01*
X37373Y-31019D01*
X37350Y-31042D01*
X37342Y-31062D01*
X37334Y-31042D01*
X37304Y-31012D01*
X37265Y-30996D01*
X37222Y-30996D01*
X37065Y-30996D01*
X37026Y-31012D01*
X36996Y-31042D01*
X36991Y-31055D01*
X36991Y-31055D01*
X36948Y-31046D01*
X36554Y-31046D01*
X36530Y-31046D01*
X36525Y-31022D01*
X36428Y-30877D01*
X36284Y-30780D01*
X36113Y-30746D01*
X35973Y-30746D01*
X35802Y-30780D01*
X35657Y-30877D01*
X35561Y-31022D01*
X35527Y-31192D01*
X35561Y-31363D01*
X35657Y-31508D01*
X35802Y-31605D01*
X35973Y-31639D01*
X36113Y-31639D01*
X36284Y-31605D01*
X36428Y-31508D01*
X36525Y-31363D01*
X36530Y-31339D01*
X36554Y-31339D01*
X36895Y-31339D01*
X36920Y-31355D01*
X36920Y-31355D01*
X36976Y-31366D01*
X36983Y-31366D01*
X36996Y-31398D01*
X37026Y-31428D01*
X37065Y-31444D01*
X37108Y-31444D01*
X37265Y-31444D01*
X37304Y-31428D01*
X37334Y-31398D01*
X37342Y-31378D01*
X37350Y-31398D01*
X37380Y-31428D01*
X37419Y-31444D01*
X37462Y-31444D01*
X37619Y-31444D01*
X37658Y-31428D01*
X37688Y-31398D01*
X37704Y-31359D01*
X37704Y-31317D01*
X37704Y-31081D01*
X37688Y-31042D01*
X37665Y-31019D01*
X37665Y-30436D01*
X37688Y-30414D01*
X37701Y-30382D01*
X38884Y-30382D01*
X38928Y-30373D01*
X38928Y-30434D01*
X38945Y-30473D01*
X38975Y-30503D01*
X39014Y-30519D01*
X39056Y-30519D01*
X39371Y-30519D01*
X39410Y-30503D01*
X39440Y-30473D01*
X39456Y-30434D01*
X39456Y-30392D01*
X39456Y-30340D01*
X39461Y-30363D01*
X39518Y-30448D01*
X39603Y-30505D01*
X39704Y-30526D01*
X39805Y-30505D01*
X39891Y-30448D01*
X39948Y-30363D01*
X39948Y-30362D01*
X39952Y-30380D01*
X40020Y-30471D01*
X40117Y-30530D01*
X40157Y-30541D01*
X40202Y-30513D01*
X40202Y-30210D01*
X40195Y-30210D01*
X40195Y-30183D01*
X40202Y-30183D01*
X40202Y-29880D01*
X40157Y-29852D01*
X40117Y-29863D01*
X40054Y-29901D01*
X40054Y-28664D01*
X40024Y-28591D01*
X40024Y-27135D01*
X40024Y-27030D01*
X40024Y-26936D01*
X40024Y-26831D01*
X40003Y-26782D01*
X39966Y-26744D01*
X39916Y-26724D01*
X39863Y-26724D01*
X39712Y-26724D01*
X39679Y-26758D01*
X39679Y-26969D01*
X39990Y-26969D01*
X40024Y-26936D01*
X40024Y-27030D01*
X39990Y-26997D01*
X39679Y-26997D01*
X39679Y-27208D01*
X39712Y-27242D01*
X39863Y-27242D01*
X39916Y-27242D01*
X39966Y-27221D01*
X40003Y-27184D01*
X40024Y-27135D01*
X40024Y-28591D01*
X39996Y-28524D01*
X39889Y-28417D01*
X39811Y-28384D01*
X39811Y-27814D01*
X39911Y-27814D01*
X39950Y-27798D01*
X39980Y-27768D01*
X39996Y-27729D01*
X39996Y-27687D01*
X39996Y-27437D01*
X39980Y-27398D01*
X39950Y-27368D01*
X39911Y-27352D01*
X39869Y-27352D01*
X39651Y-27352D01*
X39651Y-27208D01*
X39651Y-26997D01*
X39651Y-26969D01*
X39651Y-26758D01*
X39618Y-26724D01*
X39466Y-26724D01*
X39413Y-26724D01*
X39364Y-26744D01*
X39326Y-26782D01*
X39306Y-26831D01*
X39306Y-26936D01*
X39339Y-26969D01*
X39651Y-26969D01*
X39651Y-26997D01*
X39339Y-26997D01*
X39306Y-27030D01*
X39306Y-27135D01*
X39326Y-27184D01*
X39364Y-27221D01*
X39413Y-27242D01*
X39466Y-27242D01*
X39618Y-27242D01*
X39651Y-27208D01*
X39651Y-27352D01*
X39419Y-27352D01*
X39380Y-27368D01*
X39350Y-27398D01*
X39334Y-27437D01*
X39334Y-27479D01*
X39334Y-27729D01*
X39350Y-27768D01*
X39380Y-27798D01*
X39419Y-27814D01*
X39461Y-27814D01*
X39519Y-27814D01*
X39519Y-28391D01*
X39457Y-28416D01*
X39350Y-28523D01*
X39291Y-28663D01*
X39291Y-28815D01*
X39349Y-28955D01*
X39456Y-29063D01*
X39597Y-29121D01*
X39748Y-29121D01*
X39888Y-29063D01*
X39996Y-28956D01*
X40054Y-28816D01*
X40054Y-28664D01*
X40054Y-29901D01*
X40020Y-29922D01*
X39952Y-30013D01*
X39948Y-30030D01*
X39948Y-30030D01*
X39891Y-29944D01*
X39805Y-29887D01*
X39704Y-29867D01*
X39603Y-29887D01*
X39518Y-29944D01*
X39461Y-30030D01*
X39456Y-30053D01*
X39456Y-29959D01*
X39440Y-29920D01*
X39410Y-29890D01*
X39371Y-29874D01*
X39329Y-29874D01*
X39054Y-29874D01*
X39054Y-28664D01*
X38996Y-28524D01*
X38889Y-28417D01*
X38749Y-28358D01*
X38597Y-28358D01*
X38457Y-28416D01*
X38350Y-28523D01*
X38291Y-28663D01*
X38291Y-28815D01*
X38349Y-28955D01*
X38456Y-29063D01*
X38597Y-29121D01*
X38748Y-29121D01*
X38888Y-29063D01*
X38996Y-28956D01*
X39054Y-28816D01*
X39054Y-28664D01*
X39054Y-29874D01*
X39014Y-29874D01*
X38975Y-29890D01*
X38945Y-29920D01*
X38928Y-29959D01*
X38928Y-30001D01*
X38928Y-30050D01*
X38924Y-30050D01*
X38868Y-30061D01*
X38826Y-30089D01*
X37701Y-30089D01*
X37688Y-30058D01*
X37658Y-30028D01*
X37619Y-30011D01*
X37576Y-30011D01*
X37553Y-30011D01*
X37776Y-29788D01*
X37808Y-29741D01*
X37819Y-29685D01*
X37819Y-29092D01*
X37888Y-29063D01*
X37996Y-28956D01*
X38054Y-28816D01*
X38054Y-28664D01*
X37996Y-28524D01*
X37889Y-28417D01*
X37749Y-28358D01*
X37690Y-28358D01*
X41520Y-24529D01*
X41603Y-24563D01*
X41765Y-24563D01*
X41914Y-24502D01*
X42029Y-24387D01*
X42091Y-24238D01*
X42091Y-24077D01*
X42029Y-23927D01*
X41964Y-23862D01*
X41964Y-23456D01*
X41685Y-23176D01*
X41665Y-23196D01*
X41665Y-23157D01*
X41386Y-22878D01*
X41319Y-22908D01*
X41251Y-23067D01*
X41250Y-23240D01*
X41315Y-23400D01*
X41319Y-23406D01*
X41386Y-23436D01*
X41665Y-23157D01*
X41665Y-23196D01*
X41405Y-23456D01*
X41436Y-23523D01*
X41595Y-23590D01*
X41767Y-23592D01*
X41927Y-23527D01*
X41933Y-23523D01*
X41964Y-23456D01*
X41964Y-23862D01*
X41915Y-23813D01*
X41766Y-23751D01*
X41604Y-23751D01*
X41455Y-23812D01*
X41340Y-23927D01*
X41278Y-24076D01*
X41278Y-24237D01*
X41313Y-24322D01*
X39850Y-25785D01*
X39850Y-23500D01*
X39850Y-23073D01*
X39812Y-22882D01*
X39703Y-22720D01*
X39541Y-22611D01*
X39350Y-22573D01*
X39159Y-22611D01*
X38997Y-22720D01*
X38888Y-22882D01*
X38850Y-23073D01*
X38850Y-23500D01*
X38888Y-23692D01*
X38997Y-23854D01*
X39159Y-23962D01*
X39204Y-23971D01*
X39204Y-25002D01*
X37909Y-26296D01*
X37909Y-23501D01*
X37909Y-23301D01*
X37909Y-23273D01*
X37909Y-23073D01*
X37864Y-22872D01*
X37745Y-22704D01*
X37571Y-22594D01*
X37478Y-22568D01*
X37396Y-22593D01*
X37396Y-23273D01*
X37909Y-23273D01*
X37909Y-23301D01*
X37396Y-23301D01*
X37396Y-23980D01*
X37478Y-24005D01*
X37571Y-23979D01*
X37745Y-23869D01*
X37864Y-23701D01*
X37909Y-23501D01*
X37909Y-26296D01*
X37368Y-26837D01*
X37368Y-23980D01*
X37368Y-23301D01*
X37368Y-23273D01*
X37368Y-22593D01*
X37286Y-22568D01*
X37193Y-22594D01*
X37019Y-22704D01*
X36900Y-22872D01*
X36855Y-23073D01*
X36855Y-23273D01*
X37368Y-23273D01*
X37368Y-23301D01*
X36855Y-23301D01*
X36855Y-23501D01*
X36900Y-23701D01*
X37019Y-23869D01*
X37193Y-23979D01*
X37286Y-24005D01*
X37368Y-23980D01*
X37368Y-26837D01*
X35912Y-28294D01*
X35912Y-23501D01*
X35912Y-23074D01*
X35874Y-22883D01*
X35765Y-22721D01*
X35603Y-22612D01*
X35412Y-22574D01*
X35221Y-22612D01*
X35058Y-22721D01*
X34950Y-22883D01*
X34912Y-23074D01*
X34912Y-23501D01*
X34950Y-23693D01*
X35058Y-23855D01*
X35221Y-23963D01*
X35412Y-24001D01*
X35603Y-23963D01*
X35765Y-23855D01*
X35874Y-23693D01*
X35912Y-23501D01*
X35912Y-28294D01*
X35818Y-28387D01*
X35749Y-28358D01*
X35597Y-28358D01*
X35457Y-28416D01*
X35350Y-28523D01*
X35291Y-28663D01*
X35291Y-28815D01*
X35349Y-28955D01*
X35456Y-29063D01*
X35597Y-29121D01*
X35748Y-29121D01*
X35888Y-29063D01*
X35996Y-28956D01*
X36054Y-28816D01*
X36054Y-28664D01*
X36025Y-28594D01*
X39454Y-25166D01*
X39485Y-25118D01*
X39485Y-25118D01*
X39496Y-25062D01*
X39496Y-23971D01*
X39541Y-23962D01*
X39703Y-23854D01*
X39812Y-23692D01*
X39850Y-23500D01*
X39850Y-25785D01*
X37175Y-28459D01*
X37144Y-28507D01*
X37132Y-28563D01*
X37132Y-28622D01*
X37054Y-28701D01*
X37054Y-28664D01*
X36996Y-28524D01*
X36889Y-28417D01*
X36749Y-28358D01*
X36597Y-28358D01*
X36457Y-28416D01*
X36350Y-28523D01*
X36291Y-28663D01*
X36291Y-28815D01*
X36349Y-28955D01*
X36456Y-29063D01*
X36597Y-29121D01*
X36634Y-29121D01*
X36531Y-29223D01*
X35959Y-29223D01*
X35903Y-29235D01*
X35856Y-29266D01*
X35054Y-30068D01*
X35054Y-28664D01*
X34996Y-28524D01*
X34889Y-28417D01*
X34749Y-28358D01*
X34597Y-28358D01*
X34457Y-28416D01*
X34350Y-28523D01*
X34291Y-28663D01*
X34291Y-28815D01*
X34349Y-28955D01*
X34456Y-29063D01*
X34597Y-29121D01*
X34748Y-29121D01*
X34888Y-29063D01*
X34996Y-28956D01*
X35054Y-28816D01*
X35054Y-28664D01*
X35054Y-30068D01*
X34922Y-30200D01*
X34891Y-30247D01*
X34880Y-30303D01*
X34880Y-32135D01*
X34054Y-32960D01*
X34054Y-28664D01*
X33996Y-28524D01*
X33971Y-28499D01*
X33971Y-23502D01*
X33971Y-23302D01*
X33971Y-23274D01*
X33971Y-23074D01*
X33926Y-22873D01*
X33807Y-22705D01*
X33633Y-22595D01*
X33540Y-22569D01*
X33458Y-22594D01*
X33458Y-23274D01*
X33971Y-23274D01*
X33971Y-23302D01*
X33458Y-23302D01*
X33458Y-23981D01*
X33540Y-24006D01*
X33633Y-23980D01*
X33807Y-23870D01*
X33926Y-23702D01*
X33971Y-23502D01*
X33971Y-28499D01*
X33889Y-28417D01*
X33749Y-28358D01*
X33597Y-28358D01*
X33457Y-28416D01*
X33430Y-28443D01*
X33430Y-23981D01*
X33430Y-23302D01*
X33430Y-23274D01*
X33430Y-22594D01*
X33348Y-22569D01*
X33255Y-22595D01*
X33081Y-22705D01*
X32962Y-22873D01*
X32916Y-23074D01*
X32916Y-23274D01*
X33430Y-23274D01*
X33430Y-23302D01*
X32916Y-23302D01*
X32916Y-23502D01*
X32962Y-23702D01*
X33081Y-23870D01*
X33255Y-23980D01*
X33348Y-24006D01*
X33430Y-23981D01*
X33430Y-28443D01*
X33350Y-28523D01*
X33291Y-28663D01*
X33291Y-28815D01*
X33349Y-28955D01*
X33456Y-29063D01*
X33597Y-29121D01*
X33748Y-29121D01*
X33888Y-29063D01*
X33996Y-28956D01*
X34054Y-28816D01*
X34054Y-28664D01*
X34054Y-32960D01*
X33689Y-33326D01*
X33689Y-32892D01*
X33689Y-30572D01*
X33689Y-30530D01*
X33689Y-29978D01*
X33672Y-29939D01*
X33643Y-29909D01*
X33603Y-29893D01*
X33561Y-29893D01*
X33168Y-29893D01*
X33128Y-29909D01*
X33099Y-29939D01*
X33082Y-29978D01*
X33082Y-30021D01*
X33082Y-30112D01*
X33075Y-30073D01*
X33054Y-30042D01*
X33054Y-28664D01*
X32996Y-28524D01*
X32889Y-28417D01*
X32749Y-28358D01*
X32597Y-28358D01*
X32457Y-28416D01*
X32350Y-28523D01*
X32291Y-28663D01*
X32291Y-28815D01*
X32349Y-28955D01*
X32456Y-29063D01*
X32597Y-29121D01*
X32748Y-29121D01*
X32888Y-29063D01*
X32996Y-28956D01*
X33054Y-28816D01*
X33054Y-28664D01*
X33054Y-30042D01*
X33009Y-29975D01*
X32911Y-29909D01*
X32795Y-29886D01*
X32678Y-29909D01*
X32580Y-29975D01*
X32514Y-30073D01*
X32500Y-30148D01*
X32485Y-30073D01*
X32419Y-29975D01*
X32321Y-29909D01*
X32205Y-29886D01*
X32088Y-29909D01*
X32065Y-29925D01*
X32054Y-29914D01*
X32054Y-28664D01*
X31996Y-28524D01*
X31976Y-28504D01*
X31976Y-23500D01*
X31976Y-23073D01*
X31938Y-22882D01*
X31829Y-22720D01*
X31667Y-22611D01*
X31476Y-22573D01*
X31285Y-22611D01*
X31123Y-22720D01*
X31014Y-22882D01*
X30976Y-23073D01*
X30976Y-23500D01*
X31014Y-23692D01*
X31123Y-23854D01*
X31285Y-23962D01*
X31476Y-24000D01*
X31667Y-23962D01*
X31829Y-23854D01*
X31938Y-23692D01*
X31976Y-23500D01*
X31976Y-28504D01*
X31889Y-28417D01*
X31749Y-28358D01*
X31597Y-28358D01*
X31457Y-28416D01*
X31350Y-28523D01*
X31291Y-28663D01*
X31291Y-28815D01*
X31349Y-28955D01*
X31456Y-29063D01*
X31597Y-29121D01*
X31748Y-29121D01*
X31888Y-29063D01*
X31996Y-28956D01*
X32054Y-28816D01*
X32054Y-28664D01*
X32054Y-29914D01*
X31025Y-28885D01*
X31054Y-28816D01*
X31054Y-28664D01*
X30996Y-28524D01*
X30889Y-28417D01*
X30749Y-28358D01*
X30597Y-28358D01*
X30457Y-28416D01*
X30350Y-28523D01*
X30291Y-28663D01*
X30291Y-28815D01*
X30349Y-28955D01*
X30456Y-29063D01*
X30597Y-29121D01*
X30748Y-29121D01*
X30818Y-29092D01*
X31600Y-29874D01*
X31600Y-29899D01*
X31548Y-29872D01*
X31500Y-29886D01*
X31389Y-29953D01*
X31313Y-30057D01*
X31283Y-30183D01*
X31283Y-30261D01*
X31600Y-30261D01*
X31600Y-30253D01*
X31627Y-30253D01*
X31627Y-30261D01*
X31635Y-30261D01*
X31635Y-30289D01*
X31627Y-30289D01*
X31627Y-30651D01*
X31679Y-30678D01*
X31727Y-30665D01*
X31838Y-30597D01*
X31914Y-30493D01*
X31921Y-30462D01*
X31924Y-30477D01*
X31990Y-30576D01*
X32088Y-30641D01*
X32205Y-30664D01*
X32321Y-30641D01*
X32419Y-30576D01*
X32485Y-30477D01*
X32500Y-30402D01*
X32514Y-30477D01*
X32580Y-30576D01*
X32678Y-30641D01*
X32795Y-30664D01*
X32911Y-30641D01*
X33009Y-30576D01*
X33075Y-30477D01*
X33082Y-30438D01*
X33082Y-30572D01*
X33099Y-30611D01*
X33128Y-30641D01*
X33168Y-30657D01*
X33210Y-30657D01*
X33603Y-30657D01*
X33643Y-30641D01*
X33672Y-30611D01*
X33689Y-30572D01*
X33689Y-32892D01*
X33672Y-32853D01*
X33643Y-32823D01*
X33603Y-32807D01*
X33561Y-32807D01*
X33168Y-32807D01*
X33128Y-32823D01*
X33099Y-32853D01*
X33082Y-32892D01*
X33082Y-32934D01*
X33082Y-33025D01*
X33075Y-32986D01*
X33009Y-32888D01*
X32911Y-32822D01*
X32795Y-32799D01*
X32678Y-32822D01*
X32580Y-32888D01*
X32514Y-32986D01*
X32500Y-33061D01*
X32485Y-32986D01*
X32419Y-32888D01*
X32321Y-32822D01*
X32205Y-32799D01*
X32088Y-32822D01*
X31990Y-32888D01*
X31924Y-32986D01*
X31921Y-33002D01*
X31914Y-32970D01*
X31838Y-32866D01*
X31727Y-32799D01*
X31679Y-32786D01*
X31627Y-32813D01*
X31627Y-33175D01*
X31635Y-33175D01*
X31635Y-33202D01*
X31627Y-33202D01*
X31627Y-33210D01*
X31600Y-33210D01*
X31600Y-33202D01*
X31600Y-33175D01*
X31600Y-32813D01*
X31600Y-30651D01*
X31600Y-30289D01*
X31283Y-30289D01*
X31283Y-30368D01*
X31313Y-30493D01*
X31389Y-30597D01*
X31500Y-30665D01*
X31548Y-30678D01*
X31600Y-30651D01*
X31600Y-32813D01*
X31548Y-32786D01*
X31500Y-32799D01*
X31389Y-32866D01*
X31313Y-32970D01*
X31283Y-33096D01*
X31283Y-33175D01*
X31600Y-33175D01*
X31600Y-33202D01*
X31283Y-33202D01*
X31283Y-33281D01*
X31313Y-33407D01*
X31389Y-33511D01*
X31500Y-33578D01*
X31548Y-33591D01*
X31600Y-33564D01*
X31600Y-33586D01*
X31173Y-34013D01*
X31141Y-34061D01*
X31130Y-34117D01*
X31130Y-34897D01*
X31141Y-34953D01*
X31173Y-35000D01*
X31408Y-35235D01*
X31456Y-35267D01*
X31456Y-35267D01*
X31512Y-35278D01*
X32012Y-35278D01*
X32068Y-35267D01*
X32068Y-35267D01*
X32116Y-35235D01*
X32264Y-35087D01*
X32511Y-35333D01*
X31082Y-35333D01*
X31082Y-34661D01*
X31021Y-34511D01*
X31018Y-34506D01*
X30953Y-34479D01*
X30934Y-34498D01*
X30934Y-34459D01*
X30906Y-34395D01*
X30757Y-34332D01*
X30594Y-34331D01*
X30443Y-34392D01*
X30439Y-34395D01*
X30412Y-34459D01*
X30673Y-34721D01*
X30934Y-34459D01*
X30934Y-34498D01*
X30692Y-34740D01*
X30953Y-35001D01*
X31018Y-34974D01*
X31081Y-34824D01*
X31082Y-34661D01*
X31082Y-35333D01*
X30924Y-35333D01*
X30741Y-35149D01*
X30752Y-35150D01*
X30902Y-35088D01*
X30906Y-35085D01*
X30934Y-35021D01*
X30673Y-34760D01*
X30667Y-34765D01*
X30648Y-34746D01*
X30653Y-34740D01*
X30392Y-34479D01*
X30328Y-34506D01*
X30264Y-34656D01*
X30264Y-34663D01*
X30264Y-34639D01*
X30253Y-34583D01*
X30221Y-34535D01*
X30054Y-34368D01*
X30054Y-28664D01*
X30035Y-28619D01*
X30035Y-23501D01*
X30035Y-23301D01*
X30035Y-23273D01*
X30035Y-23073D01*
X29990Y-22872D01*
X29871Y-22704D01*
X29697Y-22594D01*
X29604Y-22568D01*
X29522Y-22593D01*
X29522Y-23273D01*
X30035Y-23273D01*
X30035Y-23301D01*
X29522Y-23301D01*
X29522Y-23980D01*
X29604Y-24005D01*
X29697Y-23979D01*
X29871Y-23869D01*
X29990Y-23701D01*
X30035Y-23501D01*
X30035Y-28619D01*
X29996Y-28524D01*
X29889Y-28417D01*
X29749Y-28358D01*
X29597Y-28358D01*
X29494Y-28401D01*
X29494Y-23980D01*
X29494Y-23301D01*
X29494Y-23273D01*
X29494Y-22593D01*
X29412Y-22568D01*
X29319Y-22594D01*
X29145Y-22704D01*
X29026Y-22872D01*
X28981Y-23073D01*
X28981Y-23273D01*
X29494Y-23273D01*
X29494Y-23301D01*
X28981Y-23301D01*
X28981Y-23501D01*
X29026Y-23701D01*
X29145Y-23869D01*
X29319Y-23979D01*
X29412Y-24005D01*
X29494Y-23980D01*
X29494Y-28401D01*
X29457Y-28416D01*
X29350Y-28523D01*
X29291Y-28663D01*
X29291Y-28815D01*
X29349Y-28955D01*
X29456Y-29063D01*
X29597Y-29121D01*
X29748Y-29121D01*
X29888Y-29063D01*
X29996Y-28956D01*
X30054Y-28816D01*
X30054Y-28664D01*
X30054Y-34368D01*
X29210Y-33524D01*
X29162Y-33492D01*
X29106Y-33481D01*
X29013Y-33481D01*
X29059Y-33448D01*
X29143Y-33312D01*
X29161Y-33246D01*
X29161Y-33091D01*
X29143Y-33024D01*
X29059Y-32889D01*
X28929Y-32795D01*
X28773Y-32759D01*
X28616Y-32759D01*
X28616Y-33155D01*
X29135Y-33155D01*
X29161Y-33091D01*
X29161Y-33246D01*
X29135Y-33182D01*
X28616Y-33182D01*
X28616Y-33190D01*
X28588Y-33190D01*
X28588Y-33182D01*
X28580Y-33182D01*
X28580Y-33155D01*
X28588Y-33155D01*
X28588Y-32759D01*
X28431Y-32759D01*
X28275Y-32795D01*
X28204Y-32846D01*
X28204Y-32481D01*
X28288Y-32537D01*
X28434Y-32566D01*
X28770Y-32566D01*
X28916Y-32537D01*
X29040Y-32454D01*
X29123Y-32331D01*
X29152Y-32184D01*
X29152Y-31200D01*
X29141Y-31147D01*
X29141Y-30513D01*
X29141Y-30471D01*
X29141Y-29920D01*
X29125Y-29881D01*
X29095Y-29851D01*
X29082Y-29845D01*
X29082Y-28661D01*
X29021Y-28510D01*
X29018Y-28506D01*
X28953Y-28478D01*
X28934Y-28498D01*
X28934Y-28459D01*
X28910Y-28403D01*
X28910Y-26768D01*
X28846Y-26612D01*
X28843Y-26606D01*
X28777Y-26577D01*
X28757Y-26596D01*
X28757Y-26557D01*
X28728Y-26491D01*
X28572Y-26425D01*
X28403Y-26424D01*
X28246Y-26487D01*
X28240Y-26491D01*
X28211Y-26557D01*
X28484Y-26830D01*
X28757Y-26557D01*
X28757Y-26596D01*
X28504Y-26850D01*
X28777Y-27123D01*
X28843Y-27094D01*
X28909Y-26938D01*
X28910Y-26768D01*
X28910Y-28403D01*
X28906Y-28394D01*
X28757Y-28332D01*
X28757Y-27142D01*
X28484Y-26869D01*
X28465Y-26889D01*
X28465Y-26850D01*
X28191Y-26577D01*
X28125Y-26606D01*
X28075Y-26725D01*
X28033Y-26625D01*
X27922Y-26513D01*
X27776Y-26452D01*
X27617Y-26452D01*
X27527Y-26489D01*
X27527Y-21420D01*
X27439Y-21207D01*
X27277Y-21045D01*
X27064Y-20956D01*
X26834Y-20956D01*
X26621Y-21044D01*
X26458Y-21207D01*
X26370Y-21419D01*
X26369Y-21650D01*
X26457Y-21862D01*
X26620Y-22025D01*
X26833Y-22114D01*
X27063Y-22114D01*
X27276Y-22026D01*
X27439Y-21863D01*
X27527Y-21651D01*
X27527Y-21420D01*
X27527Y-26489D01*
X27471Y-26512D01*
X27359Y-26624D01*
X27298Y-26770D01*
X27298Y-26929D01*
X27359Y-27075D01*
X27470Y-27187D01*
X27617Y-27248D01*
X27638Y-27248D01*
X27608Y-27293D01*
X27604Y-27309D01*
X27588Y-27312D01*
X27529Y-27352D01*
X27490Y-27411D01*
X27476Y-27480D01*
X27490Y-27549D01*
X27529Y-27608D01*
X27588Y-27647D01*
X27604Y-27651D01*
X27608Y-27667D01*
X27647Y-27726D01*
X27706Y-27765D01*
X27775Y-27779D01*
X27844Y-27765D01*
X27903Y-27726D01*
X27943Y-27667D01*
X27946Y-27651D01*
X27962Y-27647D01*
X28021Y-27608D01*
X28061Y-27549D01*
X28074Y-27480D01*
X28061Y-27411D01*
X28021Y-27352D01*
X27962Y-27312D01*
X27946Y-27309D01*
X27943Y-27293D01*
X27903Y-27234D01*
X27867Y-27210D01*
X27921Y-27187D01*
X28033Y-27076D01*
X28075Y-26974D01*
X28122Y-27088D01*
X28125Y-27094D01*
X28191Y-27123D01*
X28465Y-26850D01*
X28465Y-26889D01*
X28211Y-27142D01*
X28240Y-27209D01*
X28396Y-27275D01*
X28565Y-27276D01*
X28722Y-27212D01*
X28728Y-27209D01*
X28757Y-27142D01*
X28757Y-28332D01*
X28757Y-28331D01*
X28594Y-28330D01*
X28443Y-28392D01*
X28439Y-28394D01*
X28412Y-28459D01*
X28673Y-28720D01*
X28934Y-28459D01*
X28934Y-28498D01*
X28692Y-28740D01*
X28953Y-29001D01*
X29018Y-28973D01*
X29081Y-28824D01*
X29082Y-28661D01*
X29082Y-29845D01*
X29056Y-29835D01*
X29014Y-29835D01*
X28934Y-29835D01*
X28934Y-29020D01*
X28673Y-28759D01*
X28653Y-28779D01*
X28653Y-28740D01*
X28392Y-28478D01*
X28328Y-28506D01*
X28264Y-28656D01*
X28263Y-28818D01*
X28325Y-28969D01*
X28328Y-28973D01*
X28392Y-29001D01*
X28653Y-28740D01*
X28653Y-28779D01*
X28412Y-29020D01*
X28439Y-29085D01*
X28589Y-29148D01*
X28752Y-29149D01*
X28902Y-29088D01*
X28906Y-29085D01*
X28934Y-29020D01*
X28934Y-29835D01*
X28148Y-29835D01*
X28109Y-29851D01*
X28079Y-29881D01*
X28062Y-29920D01*
X28062Y-29962D01*
X28062Y-30513D01*
X28079Y-30552D01*
X28109Y-30582D01*
X28148Y-30598D01*
X28190Y-30598D01*
X29056Y-30598D01*
X29095Y-30582D01*
X29125Y-30552D01*
X29141Y-30513D01*
X29141Y-31147D01*
X29123Y-31054D01*
X29040Y-30930D01*
X28916Y-30848D01*
X28770Y-30819D01*
X28434Y-30819D01*
X28288Y-30848D01*
X28164Y-30930D01*
X28081Y-31054D01*
X28054Y-31190D01*
X28054Y-28664D01*
X27996Y-28524D01*
X27889Y-28417D01*
X27749Y-28358D01*
X27597Y-28358D01*
X27457Y-28416D01*
X27350Y-28523D01*
X27291Y-28663D01*
X27291Y-28815D01*
X27349Y-28955D01*
X27456Y-29063D01*
X27597Y-29121D01*
X27748Y-29121D01*
X27888Y-29063D01*
X27996Y-28956D01*
X28054Y-28816D01*
X28054Y-28664D01*
X28054Y-31190D01*
X28052Y-31200D01*
X28081Y-31347D01*
X28164Y-31470D01*
X28288Y-31553D01*
X28434Y-31582D01*
X28770Y-31582D01*
X28916Y-31553D01*
X29040Y-31470D01*
X29123Y-31347D01*
X29152Y-31200D01*
X29152Y-32184D01*
X29123Y-32038D01*
X29040Y-31914D01*
X28916Y-31832D01*
X28770Y-31803D01*
X28434Y-31803D01*
X28288Y-31832D01*
X28164Y-31914D01*
X28081Y-32038D01*
X28058Y-32038D01*
X28002Y-32049D01*
X27954Y-32081D01*
X27923Y-32128D01*
X27912Y-32184D01*
X27912Y-33340D01*
X27923Y-33395D01*
X27954Y-33443D01*
X28242Y-33731D01*
X28290Y-33762D01*
X28290Y-33762D01*
X28346Y-33774D01*
X29046Y-33774D01*
X29631Y-34359D01*
X29597Y-34359D01*
X29457Y-34417D01*
X29350Y-34524D01*
X29291Y-34664D01*
X29291Y-34816D01*
X29349Y-34956D01*
X29456Y-35063D01*
X29597Y-35121D01*
X29748Y-35122D01*
X29888Y-35064D01*
X29996Y-34956D01*
X30036Y-34859D01*
X30760Y-35582D01*
X30807Y-35614D01*
X30807Y-35614D01*
X30863Y-35625D01*
X33175Y-35625D01*
X33313Y-35763D01*
X33243Y-35763D01*
X33095Y-35824D01*
X32982Y-35937D01*
X32921Y-36085D01*
X32921Y-36244D01*
X32982Y-36392D01*
X33095Y-36505D01*
X33242Y-36566D01*
X33402Y-36566D01*
X33483Y-36533D01*
X33613Y-36662D01*
X33660Y-36694D01*
X33660Y-36694D01*
X33716Y-36705D01*
X35929Y-36705D01*
X35985Y-36694D01*
X35985Y-36694D01*
X36032Y-36662D01*
X36161Y-36533D01*
X36242Y-36566D01*
X36402Y-36566D01*
X36550Y-36505D01*
X36663Y-36393D01*
X36724Y-36245D01*
X36724Y-36085D01*
X36663Y-35938D01*
X36550Y-35825D01*
X36403Y-35763D01*
X36243Y-35763D01*
X36095Y-35824D01*
X35982Y-35937D01*
X35921Y-36085D01*
X35921Y-36244D01*
X35954Y-36326D01*
X35868Y-36412D01*
X35856Y-36412D01*
X35868Y-36400D01*
X35900Y-36353D01*
X35900Y-36353D01*
X35911Y-36297D01*
X35911Y-35709D01*
X36527Y-35093D01*
X36597Y-35121D01*
X36748Y-35122D01*
X36888Y-35064D01*
X36996Y-34956D01*
X37054Y-34816D01*
X37054Y-34665D01*
X36996Y-34524D01*
X36889Y-34417D01*
X36749Y-34359D01*
X36597Y-34359D01*
X36457Y-34417D01*
X36350Y-34524D01*
X36291Y-34664D01*
X36291Y-34816D01*
X36320Y-34886D01*
X35661Y-35544D01*
X35630Y-35592D01*
X35627Y-35604D01*
X35627Y-35601D01*
X35627Y-35601D01*
X35595Y-35553D01*
X35319Y-35277D01*
X35319Y-34883D01*
X35349Y-34956D01*
X35456Y-35063D01*
X35597Y-35121D01*
X35748Y-35122D01*
X35888Y-35064D01*
X35996Y-34956D01*
X36054Y-34816D01*
X36054Y-34665D01*
X35996Y-34524D01*
X35889Y-34417D01*
X35749Y-34359D01*
X35597Y-34359D01*
X35457Y-34417D01*
X35350Y-34524D01*
X35305Y-34632D01*
X35276Y-34589D01*
X34980Y-34292D01*
X39074Y-34292D01*
X39130Y-34281D01*
X39130Y-34281D01*
X39178Y-34250D01*
X39808Y-33619D01*
X39839Y-33572D01*
X39839Y-33572D01*
X39851Y-33516D01*
X39851Y-33467D01*
X39891Y-33440D01*
X39948Y-33355D01*
X39948Y-33354D01*
X39952Y-33372D01*
X40020Y-33463D01*
X40116Y-33521D01*
X39043Y-34594D01*
X39025Y-34594D01*
X38996Y-34524D01*
X38889Y-34417D01*
X38749Y-34359D01*
X38597Y-34359D01*
X38457Y-34417D01*
X38350Y-34524D01*
X38291Y-34664D01*
X38291Y-34816D01*
X38349Y-34956D01*
X38456Y-35063D01*
X38597Y-35121D01*
X38748Y-35122D01*
X38888Y-35064D01*
X38996Y-34956D01*
X39025Y-34886D01*
X39103Y-34886D01*
X39159Y-34875D01*
X39159Y-34875D01*
X39207Y-34844D01*
X39291Y-34759D01*
X39291Y-34816D01*
X39349Y-34956D01*
X39456Y-35063D01*
X39597Y-35121D01*
X39748Y-35122D01*
X39888Y-35064D01*
X39996Y-34956D01*
X40054Y-34816D01*
X40054Y-34665D01*
X39996Y-34524D01*
X39889Y-34417D01*
X39749Y-34359D01*
X39692Y-34359D01*
X41276Y-32774D01*
X41308Y-32727D01*
X41308Y-32727D01*
X41319Y-32671D01*
X41319Y-28882D01*
X41349Y-28955D01*
X41456Y-29063D01*
X41597Y-29121D01*
X41748Y-29121D01*
X41888Y-29063D01*
X41996Y-28956D01*
X42025Y-28886D01*
X42104Y-28886D01*
X42160Y-28875D01*
X42160Y-28875D01*
X42208Y-28843D01*
X43353Y-27698D01*
X43385Y-27650D01*
X43396Y-27594D01*
X43396Y-39680D01*
X43287Y-39842D01*
X43275Y-39850D01*
X43275Y-39137D01*
X43187Y-38924D01*
X43025Y-38761D01*
X42812Y-38673D01*
X42582Y-38673D01*
X42369Y-38761D01*
X42206Y-38923D01*
X42118Y-39136D01*
X42117Y-39366D01*
X42205Y-39579D01*
X42368Y-39742D01*
X42581Y-39830D01*
X42811Y-39830D01*
X43024Y-39742D01*
X43187Y-39580D01*
X43275Y-39367D01*
X43275Y-39137D01*
X43275Y-39850D01*
X43016Y-40023D01*
X42682Y-40090D01*
X42054Y-40090D01*
X42054Y-34665D01*
X41996Y-34524D01*
X41889Y-34417D01*
X41749Y-34359D01*
X41597Y-34359D01*
X41457Y-34417D01*
X41350Y-34524D01*
X41291Y-34664D01*
X41291Y-34816D01*
X41349Y-34956D01*
X41456Y-35063D01*
X41597Y-35121D01*
X41748Y-35122D01*
X41888Y-35064D01*
X41996Y-34956D01*
X42054Y-34816D01*
X42054Y-34665D01*
X42054Y-40090D01*
X41054Y-40090D01*
X41054Y-34665D01*
X40996Y-34524D01*
X40889Y-34417D01*
X40749Y-34359D01*
X40597Y-34359D01*
X40457Y-34417D01*
X40350Y-34524D01*
X40291Y-34664D01*
X40291Y-34816D01*
X40349Y-34956D01*
X40456Y-35063D01*
X40597Y-35121D01*
X40748Y-35122D01*
X40888Y-35064D01*
X40996Y-34956D01*
X41054Y-34816D01*
X41054Y-34665D01*
X41054Y-40090D01*
X38054Y-40090D01*
X38054Y-34665D01*
X37996Y-34524D01*
X37889Y-34417D01*
X37749Y-34359D01*
X37597Y-34359D01*
X37457Y-34417D01*
X37350Y-34524D01*
X37291Y-34664D01*
X37291Y-34816D01*
X37349Y-34956D01*
X37456Y-35063D01*
X37597Y-35121D01*
X37748Y-35122D01*
X37888Y-35064D01*
X37996Y-34956D01*
X38054Y-34816D01*
X38054Y-34665D01*
X38054Y-40090D01*
X36752Y-40090D01*
X36752Y-38083D01*
X36688Y-37925D01*
X36684Y-37919D01*
X36618Y-37889D01*
X36598Y-37909D01*
X36598Y-37870D01*
X36568Y-37803D01*
X36411Y-37736D01*
X36240Y-37735D01*
X36082Y-37799D01*
X36076Y-37803D01*
X36047Y-37870D01*
X36322Y-38145D01*
X36598Y-37870D01*
X36598Y-37909D01*
X36342Y-38165D01*
X36618Y-38441D01*
X36684Y-38411D01*
X36751Y-38254D01*
X36752Y-38083D01*
X36752Y-40090D01*
X36598Y-40090D01*
X36598Y-38460D01*
X36322Y-38184D01*
X36303Y-38204D01*
X36303Y-38165D01*
X36027Y-37889D01*
X35960Y-37919D01*
X35894Y-38076D01*
X35893Y-38247D01*
X35957Y-38405D01*
X35960Y-38411D01*
X36027Y-38441D01*
X36303Y-38165D01*
X36303Y-38204D01*
X36047Y-38460D01*
X36076Y-38527D01*
X36234Y-38593D01*
X36404Y-38595D01*
X36563Y-38531D01*
X36568Y-38527D01*
X36598Y-38460D01*
X36598Y-40090D01*
X35275Y-40090D01*
X35275Y-39618D01*
X35275Y-38807D01*
X34369Y-38807D01*
X34369Y-39618D01*
X35275Y-39618D01*
X35275Y-40090D01*
X33752Y-40090D01*
X33752Y-38083D01*
X33688Y-37925D01*
X33684Y-37919D01*
X33618Y-37889D01*
X33598Y-37909D01*
X33598Y-37870D01*
X33568Y-37803D01*
X33411Y-37736D01*
X33240Y-37735D01*
X33082Y-37799D01*
X33076Y-37803D01*
X33047Y-37870D01*
X33322Y-38145D01*
X33598Y-37870D01*
X33598Y-37909D01*
X33342Y-38165D01*
X33618Y-38441D01*
X33684Y-38411D01*
X33751Y-38254D01*
X33752Y-38083D01*
X33752Y-40090D01*
X33598Y-40090D01*
X33598Y-38460D01*
X33322Y-38184D01*
X33303Y-38204D01*
X33303Y-38165D01*
X33027Y-37889D01*
X32960Y-37919D01*
X32894Y-38076D01*
X32893Y-38247D01*
X32957Y-38405D01*
X32960Y-38411D01*
X33027Y-38441D01*
X33303Y-38165D01*
X33303Y-38204D01*
X33047Y-38460D01*
X33076Y-38527D01*
X33234Y-38593D01*
X33404Y-38595D01*
X33563Y-38531D01*
X33568Y-38527D01*
X33598Y-38460D01*
X33598Y-40090D01*
X32028Y-40090D01*
X32028Y-38083D01*
X32000Y-38013D01*
X32000Y-36085D01*
X31939Y-35938D01*
X31826Y-35825D01*
X31678Y-35763D01*
X31518Y-35763D01*
X31371Y-35824D01*
X31258Y-35937D01*
X31224Y-36019D01*
X29054Y-36019D01*
X29054Y-34665D01*
X28996Y-34524D01*
X28889Y-34417D01*
X28749Y-34359D01*
X28597Y-34359D01*
X28457Y-34417D01*
X28350Y-34524D01*
X28291Y-34664D01*
X28291Y-34816D01*
X28349Y-34956D01*
X28456Y-35063D01*
X28597Y-35121D01*
X28748Y-35122D01*
X28888Y-35064D01*
X28996Y-34956D01*
X29054Y-34816D01*
X29054Y-34665D01*
X29054Y-36019D01*
X28972Y-36019D01*
X28939Y-35938D01*
X28826Y-35825D01*
X28678Y-35763D01*
X28518Y-35763D01*
X28371Y-35824D01*
X28258Y-35937D01*
X28196Y-36085D01*
X28196Y-36244D01*
X28257Y-36392D01*
X28370Y-36505D01*
X28518Y-36566D01*
X28677Y-36566D01*
X28825Y-36505D01*
X28938Y-36393D01*
X28972Y-36311D01*
X31224Y-36311D01*
X31257Y-36392D01*
X31370Y-36505D01*
X31518Y-36566D01*
X31677Y-36566D01*
X31825Y-36505D01*
X31938Y-36393D01*
X31999Y-36245D01*
X32000Y-36085D01*
X32000Y-38013D01*
X31964Y-37925D01*
X31960Y-37919D01*
X31893Y-37889D01*
X31874Y-37909D01*
X31874Y-37870D01*
X31844Y-37803D01*
X31687Y-37736D01*
X31516Y-37735D01*
X31358Y-37799D01*
X31352Y-37803D01*
X31322Y-37870D01*
X31598Y-38145D01*
X31874Y-37870D01*
X31874Y-37909D01*
X31617Y-38165D01*
X31893Y-38441D01*
X31960Y-38411D01*
X32026Y-38254D01*
X32028Y-38083D01*
X32028Y-40090D01*
X31874Y-40090D01*
X31874Y-38460D01*
X31598Y-38184D01*
X31578Y-38204D01*
X31578Y-38165D01*
X31303Y-37889D01*
X31236Y-37919D01*
X31169Y-38076D01*
X31168Y-38247D01*
X31232Y-38405D01*
X31236Y-38411D01*
X31303Y-38441D01*
X31578Y-38165D01*
X31578Y-38204D01*
X31322Y-38460D01*
X31352Y-38527D01*
X31509Y-38593D01*
X31680Y-38595D01*
X31838Y-38531D01*
X31844Y-38527D01*
X31874Y-38460D01*
X31874Y-40090D01*
X30551Y-40090D01*
X30551Y-39618D01*
X30551Y-38807D01*
X29645Y-38807D01*
X29645Y-39618D01*
X30551Y-39618D01*
X30551Y-40090D01*
X29028Y-40090D01*
X29028Y-38083D01*
X28964Y-37925D01*
X28960Y-37919D01*
X28893Y-37889D01*
X28874Y-37909D01*
X28874Y-37870D01*
X28844Y-37803D01*
X28687Y-37736D01*
X28516Y-37735D01*
X28358Y-37799D01*
X28352Y-37803D01*
X28322Y-37870D01*
X28598Y-38145D01*
X28874Y-37870D01*
X28874Y-37909D01*
X28617Y-38165D01*
X28893Y-38441D01*
X28960Y-38411D01*
X29026Y-38254D01*
X29028Y-38083D01*
X29028Y-40090D01*
X28874Y-40090D01*
X28874Y-38460D01*
X28598Y-38184D01*
X28578Y-38204D01*
X28578Y-38165D01*
X28303Y-37889D01*
X28236Y-37919D01*
X28169Y-38076D01*
X28168Y-38247D01*
X28232Y-38405D01*
X28236Y-38411D01*
X28303Y-38441D01*
X28578Y-38165D01*
X28578Y-38204D01*
X28322Y-38460D01*
X28352Y-38527D01*
X28509Y-38593D01*
X28680Y-38595D01*
X28838Y-38531D01*
X28844Y-38527D01*
X28874Y-38460D01*
X28874Y-40090D01*
X28054Y-40090D01*
X28054Y-35036D01*
X28054Y-34994D01*
X28054Y-34444D01*
X28038Y-34405D01*
X28008Y-34375D01*
X27969Y-34359D01*
X27927Y-34359D01*
X27377Y-34359D01*
X27338Y-34375D01*
X27308Y-34405D01*
X27291Y-34444D01*
X27291Y-34486D01*
X27291Y-35036D01*
X27308Y-35075D01*
X27338Y-35105D01*
X27377Y-35121D01*
X27419Y-35121D01*
X27969Y-35121D01*
X28008Y-35105D01*
X28038Y-35075D01*
X28054Y-35036D01*
X28054Y-40090D01*
X27527Y-40090D01*
X27527Y-39137D01*
X27439Y-38924D01*
X27277Y-38761D01*
X27064Y-38673D01*
X26834Y-38673D01*
X26621Y-38761D01*
X26458Y-38923D01*
X26370Y-39136D01*
X26369Y-39366D01*
X26457Y-39579D01*
X26620Y-39742D01*
X26833Y-39830D01*
X27063Y-39830D01*
X27276Y-39742D01*
X27439Y-39580D01*
X27527Y-39367D01*
X27527Y-39137D01*
X27527Y-40090D01*
X26963Y-40090D01*
X26629Y-40023D01*
X26357Y-39842D01*
X26176Y-39571D01*
X26110Y-39237D01*
X26110Y-21549D01*
X26176Y-21215D01*
X26357Y-20944D01*
X26629Y-20763D01*
X26963Y-20696D01*
X42682Y-20696D01*
X43016Y-20763D01*
X43287Y-20944D01*
X43468Y-21215D01*
X43535Y-21549D01*
X43535Y-39237D01*
M02*
