%FSLAX34Y34*%
G04 Gerber Fmt 3.4, Leading zero omitted, Abs format*
G04 (created by PCBNEW (2014-03-19 BZR 4756)-product) date Thu 05 Jun 2014 00:35:02 BST*
%MOIN*%
G01*
G70*
G90*
G04 APERTURE LIST*
%ADD10C,0.005906*%
%ADD11C,0.007900*%
%ADD12C,0.007874*%
%ADD13C,0.075000*%
%ADD14R,0.075000X0.075000*%
%ADD15C,0.114500*%
%ADD16R,0.100000X0.088000*%
%ADD17O,0.100000X0.088000*%
%ADD18R,0.035700X0.043600*%
%ADD19R,0.080000X0.080000*%
%ADD20C,0.080000*%
%ADD21R,0.065000X0.045000*%
%ADD22C,0.078300*%
%ADD23O,0.106614X0.075118*%
%ADD24R,0.106614X0.075118*%
%ADD25O,0.051496X0.063307*%
%ADD26R,0.051496X0.063307*%
%ADD27O,0.059370X0.075118*%
%ADD28R,0.059370X0.075118*%
%ADD29R,0.043600X0.035700*%
%ADD30C,0.079055*%
G04 APERTURE END LIST*
G54D10*
G54D11*
X25964Y-39251D02*
G75*
G03X26948Y-40236I984J0D01*
G74*
G01*
X42696Y-40236D02*
G75*
G03X43681Y-39251I0J984D01*
G74*
G01*
X43681Y-21535D02*
G75*
G03X42696Y-20551I-984J0D01*
G74*
G01*
X26948Y-20551D02*
G75*
G03X25964Y-21535I0J-984D01*
G74*
G01*
X25964Y-39251D02*
X25964Y-21535D01*
X42696Y-40236D02*
X26948Y-40236D01*
X42696Y-20551D02*
X26948Y-20551D01*
X43681Y-39251D02*
X43681Y-21535D01*
G54D12*
X30330Y-39394D02*
X30330Y-39079D01*
X30255Y-39079D01*
X30210Y-39094D01*
X30180Y-39124D01*
X30165Y-39154D01*
X30150Y-39214D01*
X30150Y-39259D01*
X30165Y-39319D01*
X30180Y-39349D01*
X30210Y-39379D01*
X30255Y-39394D01*
X30330Y-39394D01*
X29880Y-39079D02*
X29940Y-39079D01*
X29970Y-39094D01*
X29985Y-39109D01*
X30015Y-39154D01*
X30030Y-39214D01*
X30030Y-39334D01*
X30015Y-39364D01*
X30000Y-39379D01*
X29970Y-39394D01*
X29910Y-39394D01*
X29880Y-39379D01*
X29865Y-39364D01*
X29850Y-39334D01*
X29850Y-39259D01*
X29865Y-39229D01*
X29880Y-39214D01*
X29910Y-39199D01*
X29970Y-39199D01*
X30000Y-39214D01*
X30015Y-39229D01*
X30030Y-39259D01*
X35055Y-39394D02*
X35055Y-39079D01*
X34980Y-39079D01*
X34935Y-39094D01*
X34905Y-39124D01*
X34890Y-39154D01*
X34875Y-39214D01*
X34875Y-39259D01*
X34890Y-39319D01*
X34905Y-39349D01*
X34935Y-39379D01*
X34980Y-39394D01*
X35055Y-39394D01*
X34770Y-39079D02*
X34560Y-39079D01*
X34695Y-39394D01*
G54D13*
X41673Y-28740D03*
X40673Y-34740D03*
X39673Y-34740D03*
X38673Y-34740D03*
X37673Y-34740D03*
X36673Y-34740D03*
X35673Y-34740D03*
X34673Y-34740D03*
X33673Y-34740D03*
X32673Y-34740D03*
X31673Y-34740D03*
X30673Y-34740D03*
X29673Y-34740D03*
X28673Y-34740D03*
G54D14*
X27673Y-34740D03*
G54D13*
X27673Y-28740D03*
X28673Y-28740D03*
X29673Y-28740D03*
X30673Y-28740D03*
X31673Y-28740D03*
X32673Y-28740D03*
X33673Y-28740D03*
X34673Y-28740D03*
X35673Y-28740D03*
X36673Y-28740D03*
X37673Y-28740D03*
X38673Y-28740D03*
X39673Y-28740D03*
X40673Y-28740D03*
X41673Y-34740D03*
G54D15*
X42696Y-39251D03*
X26948Y-21535D03*
X42696Y-21535D03*
X26948Y-39251D03*
G54D16*
X36043Y-30192D03*
G54D17*
X36043Y-31192D03*
X36043Y-32192D03*
X36043Y-33192D03*
G54D18*
X37519Y-31220D03*
X37165Y-31220D03*
X37519Y-30236D03*
X37165Y-30236D03*
G54D19*
X42685Y-27157D03*
G54D20*
X41685Y-27157D03*
X42685Y-26157D03*
X41685Y-26157D03*
X42685Y-25157D03*
X41685Y-25157D03*
X42685Y-24157D03*
X41685Y-24157D03*
X42685Y-23157D03*
X41685Y-23157D03*
G54D21*
X40531Y-27583D03*
X40531Y-26983D03*
X39665Y-27583D03*
X39665Y-26983D03*
G54D22*
X27696Y-26850D03*
X28484Y-26850D03*
G54D23*
X28602Y-31200D03*
X28602Y-32184D03*
G54D24*
X28602Y-30216D03*
G54D23*
X28602Y-33168D03*
G54D25*
X39704Y-33188D03*
X40216Y-33188D03*
G54D26*
X39192Y-33188D03*
G54D25*
X39704Y-30196D03*
X40216Y-30196D03*
G54D26*
X39192Y-30196D03*
G54D27*
X32795Y-33188D03*
X32205Y-33188D03*
G54D28*
X33386Y-33188D03*
G54D27*
X31614Y-33188D03*
X32795Y-30275D03*
X32205Y-30275D03*
G54D28*
X33386Y-30275D03*
G54D27*
X31614Y-30275D03*
G54D29*
X35492Y-36200D03*
X35492Y-35846D03*
X34822Y-36200D03*
X34822Y-35846D03*
G54D30*
X31598Y-36165D03*
X31598Y-38165D03*
X28598Y-36165D03*
X28598Y-38165D03*
X36322Y-36165D03*
X36322Y-38165D03*
X33322Y-36165D03*
X33322Y-38165D03*
M02*
