%FSLAX34Y34*%
G04 Gerber Fmt 3.4, Leading zero omitted, Abs format*
G04 (created by PCBNEW (2014-03-19 BZR 4756)-product) date Thu 05 Jun 2014 00:35:02 BST*
%MOIN*%
G01*
G70*
G90*
G04 APERTURE LIST*
%ADD10C,0.005906*%
%ADD11C,0.007900*%
%ADD12C,0.007874*%
%ADD13C,0.003900*%
%ADD14C,0.055000*%
%ADD15R,0.055000X0.055000*%
%ADD16C,0.094500*%
%ADD17R,0.080000X0.068000*%
%ADD18O,0.080000X0.068000*%
%ADD19O,0.078700X0.118700*%
%ADD20R,0.060000X0.060000*%
%ADD21C,0.060000*%
%ADD22R,0.045000X0.025000*%
%ADD23R,0.023600X0.015700*%
%ADD24C,0.058300*%
%ADD25R,0.025000X0.045000*%
%ADD26O,0.086614X0.055118*%
%ADD27R,0.086614X0.055118*%
%ADD28O,0.031496X0.043307*%
%ADD29R,0.031496X0.043307*%
%ADD30O,0.039370X0.055118*%
%ADD31R,0.039370X0.055118*%
%ADD32R,0.015700X0.023600*%
%ADD33C,0.059055*%
%ADD34C,0.008000*%
%ADD35C,0.007087*%
G04 APERTURE END LIST*
G54D10*
G54D11*
X25964Y-39251D02*
G75*
G03X26948Y-40236I984J0D01*
G74*
G01*
X42696Y-40236D02*
G75*
G03X43681Y-39251I0J984D01*
G74*
G01*
X43681Y-21535D02*
G75*
G03X42696Y-20551I-984J0D01*
G74*
G01*
X26948Y-20551D02*
G75*
G03X25964Y-21535I0J-984D01*
G74*
G01*
X25964Y-39251D02*
X25964Y-21535D01*
X42696Y-40236D02*
X26948Y-40236D01*
X42696Y-20551D02*
X26948Y-20551D01*
X43681Y-39251D02*
X43681Y-21535D01*
G54D12*
X26333Y-23247D02*
X26333Y-23067D01*
X26333Y-23157D02*
X26648Y-23157D01*
X26603Y-23127D01*
X26573Y-23097D01*
X26558Y-23067D01*
X26648Y-23442D02*
X26648Y-23472D01*
X26633Y-23502D01*
X26618Y-23517D01*
X26588Y-23532D01*
X26528Y-23547D01*
X26453Y-23547D01*
X26393Y-23532D01*
X26363Y-23517D01*
X26348Y-23502D01*
X26333Y-23472D01*
X26333Y-23442D01*
X26348Y-23412D01*
X26363Y-23397D01*
X26393Y-23382D01*
X26453Y-23367D01*
X26528Y-23367D01*
X26588Y-23382D01*
X26618Y-23397D01*
X26633Y-23412D01*
X26648Y-23442D01*
X26543Y-23637D02*
X26543Y-23757D01*
X26648Y-23682D02*
X26378Y-23682D01*
X26348Y-23697D01*
X26333Y-23727D01*
X26333Y-23757D01*
X26333Y-23907D02*
X26348Y-23877D01*
X26363Y-23862D01*
X26393Y-23847D01*
X26483Y-23847D01*
X26513Y-23862D01*
X26528Y-23877D01*
X26543Y-23907D01*
X26543Y-23952D01*
X26528Y-23982D01*
X26513Y-23997D01*
X26483Y-24011D01*
X26393Y-24011D01*
X26363Y-23997D01*
X26348Y-23982D01*
X26333Y-23952D01*
X26333Y-23907D01*
X26648Y-24116D02*
X26648Y-24326D01*
X26333Y-24191D01*
X26363Y-24446D02*
X26348Y-24461D01*
X26333Y-24446D01*
X26348Y-24431D01*
X26363Y-24446D01*
X26333Y-24446D01*
X26348Y-24731D02*
X26333Y-24701D01*
X26333Y-24641D01*
X26348Y-24611D01*
X26363Y-24596D01*
X26393Y-24581D01*
X26483Y-24581D01*
X26513Y-24596D01*
X26528Y-24611D01*
X26543Y-24641D01*
X26543Y-24701D01*
X26528Y-24731D01*
X26333Y-24911D02*
X26348Y-24881D01*
X26363Y-24866D01*
X26393Y-24851D01*
X26483Y-24851D01*
X26513Y-24866D01*
X26528Y-24881D01*
X26543Y-24911D01*
X26543Y-24956D01*
X26528Y-24986D01*
X26513Y-25001D01*
X26483Y-25016D01*
X26393Y-25016D01*
X26363Y-25001D01*
X26348Y-24986D01*
X26333Y-24956D01*
X26333Y-24911D01*
X26333Y-25151D02*
X26543Y-25151D01*
X26513Y-25151D02*
X26528Y-25166D01*
X26543Y-25196D01*
X26543Y-25241D01*
X26528Y-25271D01*
X26498Y-25286D01*
X26333Y-25286D01*
X26498Y-25286D02*
X26528Y-25301D01*
X26543Y-25331D01*
X26543Y-25376D01*
X26528Y-25406D01*
X26498Y-25421D01*
X26333Y-25421D01*
G54D13*
X40846Y-30016D02*
X40854Y-30024D01*
X40846Y-30031D01*
X40839Y-30024D01*
X40846Y-30016D01*
X40846Y-30031D01*
X28641Y-33166D02*
X28649Y-33174D01*
X28641Y-33181D01*
X28634Y-33174D01*
X28641Y-33166D01*
X28641Y-33181D01*
G54D14*
X41673Y-28740D03*
X40673Y-34740D03*
X39673Y-34740D03*
X38673Y-34740D03*
X37673Y-34740D03*
X36673Y-34740D03*
X35673Y-34740D03*
X34673Y-34740D03*
X33673Y-34740D03*
X32673Y-34740D03*
X31673Y-34740D03*
X30673Y-34740D03*
X29673Y-34740D03*
X28673Y-34740D03*
G54D15*
X27673Y-34740D03*
G54D14*
X27673Y-28740D03*
X28673Y-28740D03*
X29673Y-28740D03*
X30673Y-28740D03*
X31673Y-28740D03*
X32673Y-28740D03*
X33673Y-28740D03*
X34673Y-28740D03*
X35673Y-28740D03*
X36673Y-28740D03*
X37673Y-28740D03*
X38673Y-28740D03*
X39673Y-28740D03*
X40673Y-28740D03*
X41673Y-34740D03*
G54D16*
X42696Y-39251D03*
X26948Y-21535D03*
X42696Y-21535D03*
X26948Y-39251D03*
G54D17*
X36043Y-30192D03*
G54D18*
X36043Y-31192D03*
X36043Y-32192D03*
X36043Y-33192D03*
G54D19*
X31476Y-23287D03*
X29508Y-23287D03*
X35412Y-23288D03*
X33444Y-23288D03*
X39350Y-23287D03*
X37382Y-23287D03*
G54D20*
X42685Y-27157D03*
G54D21*
X41685Y-27157D03*
X42685Y-26157D03*
X41685Y-26157D03*
X42685Y-25157D03*
X41685Y-25157D03*
X42685Y-24157D03*
X41685Y-24157D03*
X42685Y-23157D03*
X41685Y-23157D03*
G54D22*
X40531Y-27583D03*
X40531Y-26983D03*
G54D23*
X39665Y-27617D03*
X39665Y-27263D03*
G54D24*
X27696Y-26850D03*
X28484Y-26850D03*
G54D25*
X39247Y-39251D03*
X39847Y-39251D03*
X39247Y-37165D03*
X39847Y-37165D03*
X34522Y-39251D03*
X35122Y-39251D03*
X29798Y-39251D03*
X30398Y-39251D03*
G54D26*
X28602Y-31200D03*
X28602Y-32184D03*
G54D27*
X28602Y-30216D03*
G54D26*
X28602Y-33168D03*
G54D28*
X39704Y-33188D03*
X40216Y-33188D03*
G54D29*
X39192Y-33188D03*
G54D28*
X39704Y-30196D03*
X40216Y-30196D03*
G54D29*
X39192Y-30196D03*
G54D30*
X32795Y-33188D03*
X32205Y-33188D03*
G54D31*
X33386Y-33188D03*
G54D30*
X31614Y-33188D03*
X32795Y-30275D03*
X32205Y-30275D03*
G54D31*
X33386Y-30275D03*
G54D30*
X31614Y-30275D03*
G54D32*
X40826Y-39251D03*
X40472Y-39251D03*
X40826Y-37165D03*
X40472Y-37165D03*
X31377Y-39251D03*
X31023Y-39251D03*
X36141Y-39251D03*
X35787Y-39251D03*
G54D33*
X31598Y-36165D03*
X31598Y-38165D03*
X28598Y-36165D03*
X28598Y-38165D03*
X36322Y-36165D03*
X36322Y-38165D03*
X33322Y-36165D03*
X33322Y-38165D03*
G54D34*
X40531Y-28598D02*
X40531Y-27583D01*
X40673Y-28740D02*
X40531Y-28598D01*
X39665Y-28732D02*
X39665Y-27617D01*
X39673Y-28740D02*
X39665Y-28732D01*
X32205Y-30275D02*
X32205Y-33188D01*
X39192Y-29220D02*
X39673Y-28740D01*
X39192Y-30196D02*
X39192Y-29220D01*
X36141Y-39251D02*
X36331Y-39251D01*
X40826Y-37165D02*
X40826Y-39251D01*
X31377Y-39251D02*
X31567Y-39251D01*
X39192Y-30196D02*
X39192Y-33188D01*
X39192Y-35531D02*
X40826Y-37165D01*
X39192Y-33188D02*
X39192Y-35531D01*
X40490Y-39587D02*
X40826Y-39251D01*
X38123Y-39587D02*
X40490Y-39587D01*
X37059Y-38523D02*
X38123Y-39587D01*
X37059Y-34575D02*
X37059Y-38523D01*
X36828Y-34344D02*
X37059Y-34575D01*
X36496Y-34344D02*
X36828Y-34344D01*
X36059Y-34781D02*
X36496Y-34344D01*
X36059Y-34901D02*
X36059Y-34781D01*
X34357Y-36602D02*
X36059Y-34901D01*
X34216Y-36602D02*
X34357Y-36602D01*
X31567Y-39251D02*
X34216Y-36602D01*
X37059Y-38523D02*
X36331Y-39251D01*
X39704Y-30196D02*
X39704Y-33188D01*
X36673Y-24044D02*
X35916Y-23288D01*
X36673Y-28740D02*
X36673Y-24044D01*
X35412Y-23288D02*
X35916Y-23288D01*
X37210Y-37450D02*
X39011Y-39251D01*
X37210Y-34510D02*
X37210Y-37450D01*
X36794Y-34094D02*
X37210Y-34510D01*
X36228Y-34094D02*
X36794Y-34094D01*
X35320Y-33187D02*
X36228Y-34094D01*
X35320Y-30129D02*
X35320Y-33187D01*
X34173Y-28981D02*
X35320Y-30129D01*
X34173Y-28678D02*
X34173Y-28981D01*
X33843Y-28348D02*
X34173Y-28678D01*
X32064Y-28348D02*
X33843Y-28348D01*
X31673Y-28740D02*
X32064Y-28348D01*
X39247Y-39251D02*
X39011Y-39251D01*
X39247Y-36314D02*
X39247Y-37165D01*
X37673Y-34740D02*
X39247Y-36314D01*
X39847Y-37165D02*
X40472Y-37165D01*
X33823Y-36165D02*
X33322Y-36165D01*
X35059Y-34929D02*
X33823Y-36165D01*
X35059Y-30126D02*
X35059Y-34929D01*
X33673Y-28740D02*
X35059Y-30126D01*
X31614Y-30275D02*
X31614Y-33188D01*
X40531Y-26983D02*
X40531Y-27219D01*
X40038Y-27407D02*
X39894Y-27263D01*
X40195Y-27407D02*
X40038Y-27407D01*
X40384Y-27219D02*
X40195Y-27407D01*
X40531Y-27219D02*
X40384Y-27219D01*
X40195Y-29848D02*
X40216Y-29869D01*
X40195Y-27407D02*
X40195Y-29848D01*
X39665Y-27263D02*
X39894Y-27263D01*
X40216Y-30196D02*
X40216Y-29869D01*
X36043Y-33192D02*
X36043Y-32192D01*
X29508Y-25826D02*
X29508Y-23287D01*
X28484Y-26850D02*
X29508Y-25826D01*
X32231Y-22579D02*
X32939Y-23288D01*
X30720Y-22579D02*
X32231Y-22579D01*
X30012Y-23287D02*
X30720Y-22579D01*
X29508Y-23287D02*
X30012Y-23287D01*
X33444Y-23288D02*
X32939Y-23288D01*
X38910Y-24311D02*
X40531Y-24311D01*
X37887Y-23287D02*
X38910Y-24311D01*
X41685Y-23157D02*
X40531Y-24311D01*
X40531Y-24311D02*
X40531Y-26983D01*
X37382Y-23287D02*
X37887Y-23287D01*
X28673Y-27039D02*
X28484Y-26850D01*
X28673Y-28740D02*
X28673Y-27039D01*
X28598Y-36815D02*
X28598Y-38165D01*
X30673Y-34740D02*
X28598Y-36815D01*
X28602Y-30216D02*
X28058Y-30216D01*
X28058Y-29125D02*
X27673Y-28740D01*
X28058Y-30216D02*
X28058Y-29125D01*
X27696Y-28716D02*
X27673Y-28740D01*
X27696Y-26850D02*
X27696Y-28716D01*
X39847Y-39251D02*
X40472Y-39251D01*
X34522Y-36891D02*
X34522Y-39251D01*
X36673Y-34740D02*
X34522Y-36891D01*
X31359Y-39587D02*
X31023Y-39251D01*
X34698Y-39587D02*
X31359Y-39587D01*
X34886Y-39399D02*
X34698Y-39587D01*
X34886Y-39251D02*
X34886Y-39399D01*
X35122Y-39251D02*
X34886Y-39251D01*
X29798Y-39251D02*
X30034Y-39251D01*
X28602Y-31200D02*
X29146Y-31200D01*
X31077Y-36794D02*
X31604Y-37321D01*
X31077Y-33131D02*
X31077Y-36794D01*
X29146Y-31200D02*
X31077Y-33131D01*
X30034Y-38890D02*
X30034Y-39251D01*
X31604Y-37321D02*
X30034Y-38890D01*
X33092Y-37321D02*
X35673Y-34740D01*
X31604Y-37321D02*
X33092Y-37321D01*
X30398Y-39251D02*
X30634Y-39251D01*
X35787Y-39251D02*
X35598Y-39251D01*
X35598Y-39299D02*
X35598Y-39251D01*
X35158Y-39738D02*
X35598Y-39299D01*
X31121Y-39738D02*
X35158Y-39738D01*
X30634Y-39251D02*
X31121Y-39738D01*
X32795Y-30275D02*
X32795Y-33188D01*
X32795Y-33862D02*
X33673Y-34740D01*
X32795Y-33188D02*
X32795Y-33862D01*
X33385Y-30275D02*
X33385Y-33188D01*
X33508Y-33575D02*
X33385Y-33575D01*
X34673Y-34740D02*
X33508Y-33575D01*
X33385Y-33188D02*
X33385Y-33575D01*
X36554Y-30859D02*
X36554Y-31192D01*
X38673Y-28740D02*
X36554Y-30859D01*
X36043Y-31192D02*
X36554Y-31192D01*
X31476Y-25543D02*
X31476Y-23287D01*
X34673Y-28740D02*
X31476Y-25543D01*
X31274Y-35841D02*
X31598Y-36165D01*
X31274Y-30093D02*
X31274Y-35841D01*
X32627Y-28740D02*
X31274Y-30093D01*
X32673Y-28740D02*
X32627Y-28740D01*
X41168Y-26673D02*
X41685Y-26157D01*
X41168Y-33245D02*
X41168Y-26673D01*
X39673Y-34740D02*
X41168Y-33245D01*
X42104Y-33309D02*
X40673Y-34740D01*
X42104Y-25576D02*
X42104Y-33309D01*
X41685Y-25157D02*
X42104Y-25576D01*
X42273Y-24568D02*
X42685Y-24157D01*
X42273Y-34139D02*
X42273Y-24568D01*
X41673Y-34740D02*
X42273Y-34139D01*
G54D10*
G36*
X33170Y-37441D02*
X32028Y-38584D01*
X32028Y-38083D01*
X31964Y-37925D01*
X31960Y-37919D01*
X31893Y-37889D01*
X31874Y-37909D01*
X31874Y-37870D01*
X31844Y-37803D01*
X31687Y-37736D01*
X31516Y-37735D01*
X31358Y-37799D01*
X31352Y-37803D01*
X31322Y-37870D01*
X31598Y-38145D01*
X31874Y-37870D01*
X31874Y-37909D01*
X31617Y-38165D01*
X31893Y-38441D01*
X31960Y-38411D01*
X32026Y-38254D01*
X32028Y-38083D01*
X32028Y-38584D01*
X31874Y-38738D01*
X31874Y-38460D01*
X31598Y-38184D01*
X31578Y-38204D01*
X31578Y-38165D01*
X31303Y-37889D01*
X31236Y-37919D01*
X31169Y-38076D01*
X31168Y-38247D01*
X31232Y-38405D01*
X31236Y-38411D01*
X31303Y-38441D01*
X31578Y-38165D01*
X31578Y-38204D01*
X31322Y-38460D01*
X31352Y-38527D01*
X31509Y-38593D01*
X31680Y-38595D01*
X31838Y-38531D01*
X31844Y-38527D01*
X31874Y-38460D01*
X31874Y-38738D01*
X31542Y-39069D01*
X31516Y-39043D01*
X31477Y-39027D01*
X31435Y-39027D01*
X31278Y-39027D01*
X31239Y-39043D01*
X31209Y-39073D01*
X31200Y-39093D01*
X31192Y-39073D01*
X31162Y-39043D01*
X31123Y-39027D01*
X31081Y-39027D01*
X30924Y-39027D01*
X30885Y-39043D01*
X30855Y-39073D01*
X30838Y-39112D01*
X30838Y-39155D01*
X30838Y-39249D01*
X30737Y-39148D01*
X30690Y-39116D01*
X30634Y-39105D01*
X30629Y-39105D01*
X30629Y-39005D01*
X30613Y-38966D01*
X30583Y-38936D01*
X30544Y-38920D01*
X30502Y-38920D01*
X30252Y-38920D01*
X30213Y-38936D01*
X30183Y-38966D01*
X30180Y-38973D01*
X30180Y-38951D01*
X31664Y-37467D01*
X33092Y-37467D01*
X33148Y-37456D01*
X33148Y-37456D01*
X33170Y-37441D01*
X33170Y-37441D01*
G37*
G54D35*
X33170Y-37441D02*
X32028Y-38584D01*
X32028Y-38083D01*
X31964Y-37925D01*
X31960Y-37919D01*
X31893Y-37889D01*
X31874Y-37909D01*
X31874Y-37870D01*
X31844Y-37803D01*
X31687Y-37736D01*
X31516Y-37735D01*
X31358Y-37799D01*
X31352Y-37803D01*
X31322Y-37870D01*
X31598Y-38145D01*
X31874Y-37870D01*
X31874Y-37909D01*
X31617Y-38165D01*
X31893Y-38441D01*
X31960Y-38411D01*
X32026Y-38254D01*
X32028Y-38083D01*
X32028Y-38584D01*
X31874Y-38738D01*
X31874Y-38460D01*
X31598Y-38184D01*
X31578Y-38204D01*
X31578Y-38165D01*
X31303Y-37889D01*
X31236Y-37919D01*
X31169Y-38076D01*
X31168Y-38247D01*
X31232Y-38405D01*
X31236Y-38411D01*
X31303Y-38441D01*
X31578Y-38165D01*
X31578Y-38204D01*
X31322Y-38460D01*
X31352Y-38527D01*
X31509Y-38593D01*
X31680Y-38595D01*
X31838Y-38531D01*
X31844Y-38527D01*
X31874Y-38460D01*
X31874Y-38738D01*
X31542Y-39069D01*
X31516Y-39043D01*
X31477Y-39027D01*
X31435Y-39027D01*
X31278Y-39027D01*
X31239Y-39043D01*
X31209Y-39073D01*
X31200Y-39093D01*
X31192Y-39073D01*
X31162Y-39043D01*
X31123Y-39027D01*
X31081Y-39027D01*
X30924Y-39027D01*
X30885Y-39043D01*
X30855Y-39073D01*
X30838Y-39112D01*
X30838Y-39155D01*
X30838Y-39249D01*
X30737Y-39148D01*
X30690Y-39116D01*
X30634Y-39105D01*
X30629Y-39105D01*
X30629Y-39005D01*
X30613Y-38966D01*
X30583Y-38936D01*
X30544Y-38920D01*
X30502Y-38920D01*
X30252Y-38920D01*
X30213Y-38936D01*
X30183Y-38966D01*
X30180Y-38973D01*
X30180Y-38951D01*
X31664Y-37467D01*
X33092Y-37467D01*
X33148Y-37456D01*
X33148Y-37456D01*
X33170Y-37441D01*
G54D10*
G36*
X36320Y-34886D02*
X34419Y-36787D01*
X34387Y-36835D01*
X34376Y-36891D01*
X34376Y-38920D01*
X34337Y-38936D01*
X34307Y-38966D01*
X34291Y-39005D01*
X34291Y-39048D01*
X34291Y-39441D01*
X33752Y-39441D01*
X33752Y-38083D01*
X33688Y-37925D01*
X33684Y-37919D01*
X33618Y-37889D01*
X33342Y-38165D01*
X33618Y-38441D01*
X33684Y-38411D01*
X33751Y-38254D01*
X33752Y-38083D01*
X33752Y-39441D01*
X33598Y-39441D01*
X33598Y-38460D01*
X33322Y-38184D01*
X33047Y-38460D01*
X33076Y-38527D01*
X33234Y-38593D01*
X33404Y-38595D01*
X33563Y-38531D01*
X33568Y-38527D01*
X33598Y-38460D01*
X33598Y-39441D01*
X31534Y-39441D01*
X31546Y-39430D01*
X31559Y-39398D01*
X31567Y-39398D01*
X31623Y-39387D01*
X31623Y-39387D01*
X31670Y-39355D01*
X32893Y-38132D01*
X32893Y-38247D01*
X32957Y-38405D01*
X32960Y-38411D01*
X33027Y-38441D01*
X33303Y-38165D01*
X33297Y-38159D01*
X33317Y-38140D01*
X33322Y-38145D01*
X33598Y-37870D01*
X33568Y-37803D01*
X33411Y-37736D01*
X33290Y-37735D01*
X34276Y-36749D01*
X34357Y-36749D01*
X34413Y-36738D01*
X34413Y-36738D01*
X34460Y-36706D01*
X36162Y-35004D01*
X36194Y-34957D01*
X36205Y-34901D01*
X36205Y-34842D01*
X36291Y-34755D01*
X36291Y-34816D01*
X36320Y-34886D01*
X36320Y-34886D01*
G37*
G54D35*
X36320Y-34886D02*
X34419Y-36787D01*
X34387Y-36835D01*
X34376Y-36891D01*
X34376Y-38920D01*
X34337Y-38936D01*
X34307Y-38966D01*
X34291Y-39005D01*
X34291Y-39048D01*
X34291Y-39441D01*
X33752Y-39441D01*
X33752Y-38083D01*
X33688Y-37925D01*
X33684Y-37919D01*
X33618Y-37889D01*
X33342Y-38165D01*
X33618Y-38441D01*
X33684Y-38411D01*
X33751Y-38254D01*
X33752Y-38083D01*
X33752Y-39441D01*
X33598Y-39441D01*
X33598Y-38460D01*
X33322Y-38184D01*
X33047Y-38460D01*
X33076Y-38527D01*
X33234Y-38593D01*
X33404Y-38595D01*
X33563Y-38531D01*
X33568Y-38527D01*
X33598Y-38460D01*
X33598Y-39441D01*
X31534Y-39441D01*
X31546Y-39430D01*
X31559Y-39398D01*
X31567Y-39398D01*
X31623Y-39387D01*
X31623Y-39387D01*
X31670Y-39355D01*
X32893Y-38132D01*
X32893Y-38247D01*
X32957Y-38405D01*
X32960Y-38411D01*
X33027Y-38441D01*
X33303Y-38165D01*
X33297Y-38159D01*
X33317Y-38140D01*
X33322Y-38145D01*
X33598Y-37870D01*
X33568Y-37803D01*
X33411Y-37736D01*
X33290Y-37735D01*
X34276Y-36749D01*
X34357Y-36749D01*
X34413Y-36738D01*
X34413Y-36738D01*
X34460Y-36706D01*
X36162Y-35004D01*
X36194Y-34957D01*
X36205Y-34901D01*
X36205Y-34842D01*
X36291Y-34755D01*
X36291Y-34816D01*
X36320Y-34886D01*
G54D10*
G36*
X36392Y-34241D02*
X36029Y-34604D01*
X35996Y-34524D01*
X35889Y-34417D01*
X35749Y-34359D01*
X35597Y-34359D01*
X35457Y-34417D01*
X35350Y-34524D01*
X35291Y-34664D01*
X35291Y-34816D01*
X35320Y-34886D01*
X33032Y-37174D01*
X31664Y-37174D01*
X31223Y-36733D01*
X31223Y-36309D01*
X31257Y-36392D01*
X31370Y-36505D01*
X31518Y-36566D01*
X31677Y-36566D01*
X31825Y-36505D01*
X31938Y-36393D01*
X31999Y-36245D01*
X32000Y-36085D01*
X31939Y-35938D01*
X31826Y-35825D01*
X31678Y-35763D01*
X31518Y-35763D01*
X31437Y-35797D01*
X31420Y-35780D01*
X31420Y-35027D01*
X31456Y-35063D01*
X31597Y-35121D01*
X31748Y-35122D01*
X31888Y-35064D01*
X31996Y-34956D01*
X32054Y-34816D01*
X32054Y-34665D01*
X31996Y-34524D01*
X31889Y-34417D01*
X31749Y-34359D01*
X31597Y-34359D01*
X31457Y-34417D01*
X31420Y-34453D01*
X31420Y-33530D01*
X31500Y-33578D01*
X31548Y-33591D01*
X31600Y-33564D01*
X31600Y-33202D01*
X31592Y-33202D01*
X31592Y-33175D01*
X31600Y-33175D01*
X31600Y-32813D01*
X31548Y-32786D01*
X31500Y-32799D01*
X31420Y-32847D01*
X31420Y-30616D01*
X31500Y-30665D01*
X31548Y-30678D01*
X31600Y-30651D01*
X31600Y-30289D01*
X31592Y-30289D01*
X31592Y-30261D01*
X31600Y-30261D01*
X31600Y-30253D01*
X31627Y-30253D01*
X31627Y-30261D01*
X31635Y-30261D01*
X31635Y-30289D01*
X31627Y-30289D01*
X31627Y-30651D01*
X31679Y-30678D01*
X31727Y-30665D01*
X31838Y-30597D01*
X31914Y-30493D01*
X31921Y-30462D01*
X31924Y-30477D01*
X31990Y-30576D01*
X32058Y-30621D01*
X32058Y-32842D01*
X31990Y-32888D01*
X31924Y-32986D01*
X31921Y-33002D01*
X31914Y-32970D01*
X31838Y-32866D01*
X31727Y-32799D01*
X31679Y-32786D01*
X31627Y-32813D01*
X31627Y-33175D01*
X31635Y-33175D01*
X31635Y-33202D01*
X31627Y-33202D01*
X31627Y-33564D01*
X31679Y-33591D01*
X31727Y-33578D01*
X31838Y-33511D01*
X31914Y-33407D01*
X31921Y-33375D01*
X31924Y-33391D01*
X31990Y-33489D01*
X32088Y-33555D01*
X32205Y-33578D01*
X32321Y-33555D01*
X32419Y-33489D01*
X32485Y-33391D01*
X32500Y-33316D01*
X32514Y-33391D01*
X32580Y-33489D01*
X32648Y-33535D01*
X32648Y-33862D01*
X32659Y-33918D01*
X32691Y-33965D01*
X33320Y-34595D01*
X33291Y-34664D01*
X33291Y-34816D01*
X33349Y-34956D01*
X33456Y-35063D01*
X33597Y-35121D01*
X33748Y-35122D01*
X33888Y-35064D01*
X33996Y-34956D01*
X34054Y-34816D01*
X34054Y-34665D01*
X33996Y-34524D01*
X33889Y-34417D01*
X33749Y-34359D01*
X33597Y-34359D01*
X33527Y-34388D01*
X32941Y-33801D01*
X32941Y-33535D01*
X33009Y-33489D01*
X33075Y-33391D01*
X33082Y-33352D01*
X33082Y-33485D01*
X33099Y-33524D01*
X33128Y-33554D01*
X33168Y-33570D01*
X33210Y-33570D01*
X33239Y-33570D01*
X33239Y-33575D01*
X33250Y-33631D01*
X33282Y-33679D01*
X33329Y-33710D01*
X33385Y-33721D01*
X33447Y-33721D01*
X34320Y-34595D01*
X34291Y-34664D01*
X34291Y-34816D01*
X34349Y-34956D01*
X34456Y-35063D01*
X34597Y-35121D01*
X34659Y-35121D01*
X33762Y-36019D01*
X33696Y-36019D01*
X33663Y-35938D01*
X33550Y-35825D01*
X33403Y-35763D01*
X33243Y-35763D01*
X33095Y-35824D01*
X33054Y-35865D01*
X33054Y-34665D01*
X32996Y-34524D01*
X32889Y-34417D01*
X32749Y-34359D01*
X32597Y-34359D01*
X32457Y-34417D01*
X32350Y-34524D01*
X32291Y-34664D01*
X32291Y-34816D01*
X32349Y-34956D01*
X32456Y-35063D01*
X32597Y-35121D01*
X32748Y-35122D01*
X32888Y-35064D01*
X32996Y-34956D01*
X33054Y-34816D01*
X33054Y-34665D01*
X33054Y-35865D01*
X32982Y-35937D01*
X32921Y-36085D01*
X32921Y-36244D01*
X32982Y-36392D01*
X33095Y-36505D01*
X33242Y-36566D01*
X33402Y-36566D01*
X33550Y-36505D01*
X33663Y-36393D01*
X33696Y-36311D01*
X33823Y-36311D01*
X33879Y-36300D01*
X33879Y-36300D01*
X33926Y-36268D01*
X35162Y-35032D01*
X35194Y-34985D01*
X35205Y-34929D01*
X35205Y-33273D01*
X35217Y-33290D01*
X36124Y-34198D01*
X36172Y-34230D01*
X36172Y-34230D01*
X36228Y-34241D01*
X36392Y-34241D01*
X36392Y-34241D01*
G37*
G54D35*
X36392Y-34241D02*
X36029Y-34604D01*
X35996Y-34524D01*
X35889Y-34417D01*
X35749Y-34359D01*
X35597Y-34359D01*
X35457Y-34417D01*
X35350Y-34524D01*
X35291Y-34664D01*
X35291Y-34816D01*
X35320Y-34886D01*
X33032Y-37174D01*
X31664Y-37174D01*
X31223Y-36733D01*
X31223Y-36309D01*
X31257Y-36392D01*
X31370Y-36505D01*
X31518Y-36566D01*
X31677Y-36566D01*
X31825Y-36505D01*
X31938Y-36393D01*
X31999Y-36245D01*
X32000Y-36085D01*
X31939Y-35938D01*
X31826Y-35825D01*
X31678Y-35763D01*
X31518Y-35763D01*
X31437Y-35797D01*
X31420Y-35780D01*
X31420Y-35027D01*
X31456Y-35063D01*
X31597Y-35121D01*
X31748Y-35122D01*
X31888Y-35064D01*
X31996Y-34956D01*
X32054Y-34816D01*
X32054Y-34665D01*
X31996Y-34524D01*
X31889Y-34417D01*
X31749Y-34359D01*
X31597Y-34359D01*
X31457Y-34417D01*
X31420Y-34453D01*
X31420Y-33530D01*
X31500Y-33578D01*
X31548Y-33591D01*
X31600Y-33564D01*
X31600Y-33202D01*
X31592Y-33202D01*
X31592Y-33175D01*
X31600Y-33175D01*
X31600Y-32813D01*
X31548Y-32786D01*
X31500Y-32799D01*
X31420Y-32847D01*
X31420Y-30616D01*
X31500Y-30665D01*
X31548Y-30678D01*
X31600Y-30651D01*
X31600Y-30289D01*
X31592Y-30289D01*
X31592Y-30261D01*
X31600Y-30261D01*
X31600Y-30253D01*
X31627Y-30253D01*
X31627Y-30261D01*
X31635Y-30261D01*
X31635Y-30289D01*
X31627Y-30289D01*
X31627Y-30651D01*
X31679Y-30678D01*
X31727Y-30665D01*
X31838Y-30597D01*
X31914Y-30493D01*
X31921Y-30462D01*
X31924Y-30477D01*
X31990Y-30576D01*
X32058Y-30621D01*
X32058Y-32842D01*
X31990Y-32888D01*
X31924Y-32986D01*
X31921Y-33002D01*
X31914Y-32970D01*
X31838Y-32866D01*
X31727Y-32799D01*
X31679Y-32786D01*
X31627Y-32813D01*
X31627Y-33175D01*
X31635Y-33175D01*
X31635Y-33202D01*
X31627Y-33202D01*
X31627Y-33564D01*
X31679Y-33591D01*
X31727Y-33578D01*
X31838Y-33511D01*
X31914Y-33407D01*
X31921Y-33375D01*
X31924Y-33391D01*
X31990Y-33489D01*
X32088Y-33555D01*
X32205Y-33578D01*
X32321Y-33555D01*
X32419Y-33489D01*
X32485Y-33391D01*
X32500Y-33316D01*
X32514Y-33391D01*
X32580Y-33489D01*
X32648Y-33535D01*
X32648Y-33862D01*
X32659Y-33918D01*
X32691Y-33965D01*
X33320Y-34595D01*
X33291Y-34664D01*
X33291Y-34816D01*
X33349Y-34956D01*
X33456Y-35063D01*
X33597Y-35121D01*
X33748Y-35122D01*
X33888Y-35064D01*
X33996Y-34956D01*
X34054Y-34816D01*
X34054Y-34665D01*
X33996Y-34524D01*
X33889Y-34417D01*
X33749Y-34359D01*
X33597Y-34359D01*
X33527Y-34388D01*
X32941Y-33801D01*
X32941Y-33535D01*
X33009Y-33489D01*
X33075Y-33391D01*
X33082Y-33352D01*
X33082Y-33485D01*
X33099Y-33524D01*
X33128Y-33554D01*
X33168Y-33570D01*
X33210Y-33570D01*
X33239Y-33570D01*
X33239Y-33575D01*
X33250Y-33631D01*
X33282Y-33679D01*
X33329Y-33710D01*
X33385Y-33721D01*
X33447Y-33721D01*
X34320Y-34595D01*
X34291Y-34664D01*
X34291Y-34816D01*
X34349Y-34956D01*
X34456Y-35063D01*
X34597Y-35121D01*
X34659Y-35121D01*
X33762Y-36019D01*
X33696Y-36019D01*
X33663Y-35938D01*
X33550Y-35825D01*
X33403Y-35763D01*
X33243Y-35763D01*
X33095Y-35824D01*
X33054Y-35865D01*
X33054Y-34665D01*
X32996Y-34524D01*
X32889Y-34417D01*
X32749Y-34359D01*
X32597Y-34359D01*
X32457Y-34417D01*
X32350Y-34524D01*
X32291Y-34664D01*
X32291Y-34816D01*
X32349Y-34956D01*
X32456Y-35063D01*
X32597Y-35121D01*
X32748Y-35122D01*
X32888Y-35064D01*
X32996Y-34956D01*
X33054Y-34816D01*
X33054Y-34665D01*
X33054Y-35865D01*
X32982Y-35937D01*
X32921Y-36085D01*
X32921Y-36244D01*
X32982Y-36392D01*
X33095Y-36505D01*
X33242Y-36566D01*
X33402Y-36566D01*
X33550Y-36505D01*
X33663Y-36393D01*
X33696Y-36311D01*
X33823Y-36311D01*
X33879Y-36300D01*
X33879Y-36300D01*
X33926Y-36268D01*
X35162Y-35032D01*
X35194Y-34985D01*
X35205Y-34929D01*
X35205Y-33273D01*
X35217Y-33290D01*
X36124Y-34198D01*
X36172Y-34230D01*
X36172Y-34230D01*
X36228Y-34241D01*
X36392Y-34241D01*
G54D10*
G36*
X36912Y-38463D02*
X36752Y-38623D01*
X36752Y-38083D01*
X36724Y-38013D01*
X36724Y-36085D01*
X36663Y-35938D01*
X36550Y-35825D01*
X36403Y-35763D01*
X36243Y-35763D01*
X36095Y-35824D01*
X35982Y-35937D01*
X35921Y-36085D01*
X35921Y-36244D01*
X35982Y-36392D01*
X36095Y-36505D01*
X36242Y-36566D01*
X36402Y-36566D01*
X36550Y-36505D01*
X36663Y-36393D01*
X36724Y-36245D01*
X36724Y-36085D01*
X36724Y-38013D01*
X36688Y-37925D01*
X36684Y-37919D01*
X36618Y-37889D01*
X36598Y-37909D01*
X36598Y-37870D01*
X36568Y-37803D01*
X36411Y-37736D01*
X36240Y-37735D01*
X36082Y-37799D01*
X36076Y-37803D01*
X36047Y-37870D01*
X36322Y-38145D01*
X36598Y-37870D01*
X36598Y-37909D01*
X36342Y-38165D01*
X36618Y-38441D01*
X36684Y-38411D01*
X36751Y-38254D01*
X36752Y-38083D01*
X36752Y-38623D01*
X36598Y-38777D01*
X36598Y-38460D01*
X36322Y-38184D01*
X36303Y-38204D01*
X36303Y-38165D01*
X36027Y-37889D01*
X35960Y-37919D01*
X35894Y-38076D01*
X35893Y-38247D01*
X35957Y-38405D01*
X35960Y-38411D01*
X36027Y-38441D01*
X36303Y-38165D01*
X36303Y-38204D01*
X36047Y-38460D01*
X36076Y-38527D01*
X36234Y-38593D01*
X36404Y-38595D01*
X36563Y-38531D01*
X36568Y-38527D01*
X36598Y-38460D01*
X36598Y-38777D01*
X36306Y-39069D01*
X36280Y-39043D01*
X36241Y-39027D01*
X36198Y-39027D01*
X36041Y-39027D01*
X36002Y-39043D01*
X35972Y-39073D01*
X35964Y-39093D01*
X35956Y-39073D01*
X35926Y-39043D01*
X35887Y-39027D01*
X35844Y-39027D01*
X35687Y-39027D01*
X35648Y-39043D01*
X35618Y-39073D01*
X35605Y-39105D01*
X35598Y-39105D01*
X35542Y-39116D01*
X35494Y-39148D01*
X35462Y-39195D01*
X35455Y-39235D01*
X35354Y-39336D01*
X35354Y-39005D01*
X35337Y-38966D01*
X35308Y-38936D01*
X35268Y-38920D01*
X35226Y-38920D01*
X34976Y-38920D01*
X34937Y-38936D01*
X34907Y-38966D01*
X34891Y-39005D01*
X34891Y-39048D01*
X34891Y-39105D01*
X34886Y-39105D01*
X34830Y-39116D01*
X34783Y-39148D01*
X34754Y-39192D01*
X34754Y-39005D01*
X34737Y-38966D01*
X34708Y-38936D01*
X34669Y-38920D01*
X34669Y-36951D01*
X36527Y-35093D01*
X36597Y-35121D01*
X36748Y-35122D01*
X36888Y-35064D01*
X36912Y-35040D01*
X36912Y-38463D01*
X36912Y-38463D01*
G37*
G54D35*
X36912Y-38463D02*
X36752Y-38623D01*
X36752Y-38083D01*
X36724Y-38013D01*
X36724Y-36085D01*
X36663Y-35938D01*
X36550Y-35825D01*
X36403Y-35763D01*
X36243Y-35763D01*
X36095Y-35824D01*
X35982Y-35937D01*
X35921Y-36085D01*
X35921Y-36244D01*
X35982Y-36392D01*
X36095Y-36505D01*
X36242Y-36566D01*
X36402Y-36566D01*
X36550Y-36505D01*
X36663Y-36393D01*
X36724Y-36245D01*
X36724Y-36085D01*
X36724Y-38013D01*
X36688Y-37925D01*
X36684Y-37919D01*
X36618Y-37889D01*
X36598Y-37909D01*
X36598Y-37870D01*
X36568Y-37803D01*
X36411Y-37736D01*
X36240Y-37735D01*
X36082Y-37799D01*
X36076Y-37803D01*
X36047Y-37870D01*
X36322Y-38145D01*
X36598Y-37870D01*
X36598Y-37909D01*
X36342Y-38165D01*
X36618Y-38441D01*
X36684Y-38411D01*
X36751Y-38254D01*
X36752Y-38083D01*
X36752Y-38623D01*
X36598Y-38777D01*
X36598Y-38460D01*
X36322Y-38184D01*
X36303Y-38204D01*
X36303Y-38165D01*
X36027Y-37889D01*
X35960Y-37919D01*
X35894Y-38076D01*
X35893Y-38247D01*
X35957Y-38405D01*
X35960Y-38411D01*
X36027Y-38441D01*
X36303Y-38165D01*
X36303Y-38204D01*
X36047Y-38460D01*
X36076Y-38527D01*
X36234Y-38593D01*
X36404Y-38595D01*
X36563Y-38531D01*
X36568Y-38527D01*
X36598Y-38460D01*
X36598Y-38777D01*
X36306Y-39069D01*
X36280Y-39043D01*
X36241Y-39027D01*
X36198Y-39027D01*
X36041Y-39027D01*
X36002Y-39043D01*
X35972Y-39073D01*
X35964Y-39093D01*
X35956Y-39073D01*
X35926Y-39043D01*
X35887Y-39027D01*
X35844Y-39027D01*
X35687Y-39027D01*
X35648Y-39043D01*
X35618Y-39073D01*
X35605Y-39105D01*
X35598Y-39105D01*
X35542Y-39116D01*
X35494Y-39148D01*
X35462Y-39195D01*
X35455Y-39235D01*
X35354Y-39336D01*
X35354Y-39005D01*
X35337Y-38966D01*
X35308Y-38936D01*
X35268Y-38920D01*
X35226Y-38920D01*
X34976Y-38920D01*
X34937Y-38936D01*
X34907Y-38966D01*
X34891Y-39005D01*
X34891Y-39048D01*
X34891Y-39105D01*
X34886Y-39105D01*
X34830Y-39116D01*
X34783Y-39148D01*
X34754Y-39192D01*
X34754Y-39005D01*
X34737Y-38966D01*
X34708Y-38936D01*
X34669Y-38920D01*
X34669Y-36951D01*
X36527Y-35093D01*
X36597Y-35121D01*
X36748Y-35122D01*
X36888Y-35064D01*
X36912Y-35040D01*
X36912Y-38463D01*
G54D10*
G36*
X43535Y-39237D02*
X43468Y-39571D01*
X43287Y-39842D01*
X43275Y-39850D01*
X43275Y-39137D01*
X43275Y-21420D01*
X43187Y-21207D01*
X43025Y-21045D01*
X42812Y-20956D01*
X42582Y-20956D01*
X42369Y-21044D01*
X42206Y-21207D01*
X42118Y-21419D01*
X42117Y-21650D01*
X42205Y-21862D01*
X42368Y-22025D01*
X42581Y-22114D01*
X42811Y-22114D01*
X43024Y-22026D01*
X43187Y-21863D01*
X43275Y-21651D01*
X43275Y-21420D01*
X43275Y-39137D01*
X43187Y-38924D01*
X43119Y-38856D01*
X43119Y-23074D01*
X43054Y-22914D01*
X43050Y-22908D01*
X42983Y-22878D01*
X42964Y-22897D01*
X42964Y-22858D01*
X42933Y-22791D01*
X42774Y-22724D01*
X42602Y-22722D01*
X42442Y-22787D01*
X42436Y-22791D01*
X42405Y-22858D01*
X42685Y-23137D01*
X42964Y-22858D01*
X42964Y-22897D01*
X42704Y-23157D01*
X42983Y-23436D01*
X43050Y-23406D01*
X43118Y-23247D01*
X43119Y-23074D01*
X43119Y-38856D01*
X43091Y-38827D01*
X43091Y-26077D01*
X43029Y-25927D01*
X42915Y-25813D01*
X42766Y-25751D01*
X42604Y-25751D01*
X42455Y-25812D01*
X42420Y-25847D01*
X42420Y-25467D01*
X42454Y-25501D01*
X42603Y-25563D01*
X42765Y-25563D01*
X42914Y-25502D01*
X43029Y-25387D01*
X43091Y-25238D01*
X43091Y-25077D01*
X43029Y-24927D01*
X42915Y-24813D01*
X42766Y-24751D01*
X42604Y-24751D01*
X42455Y-24812D01*
X42420Y-24847D01*
X42420Y-24629D01*
X42520Y-24529D01*
X42603Y-24563D01*
X42765Y-24563D01*
X42914Y-24502D01*
X43029Y-24387D01*
X43091Y-24238D01*
X43091Y-24077D01*
X43029Y-23927D01*
X42964Y-23862D01*
X42964Y-23456D01*
X42685Y-23176D01*
X42665Y-23196D01*
X42665Y-23157D01*
X42386Y-22878D01*
X42319Y-22908D01*
X42251Y-23067D01*
X42250Y-23240D01*
X42315Y-23400D01*
X42319Y-23406D01*
X42386Y-23436D01*
X42665Y-23157D01*
X42665Y-23196D01*
X42405Y-23456D01*
X42436Y-23523D01*
X42595Y-23590D01*
X42767Y-23592D01*
X42927Y-23527D01*
X42933Y-23523D01*
X42964Y-23456D01*
X42964Y-23862D01*
X42915Y-23813D01*
X42766Y-23751D01*
X42604Y-23751D01*
X42455Y-23812D01*
X42340Y-23927D01*
X42278Y-24076D01*
X42278Y-24237D01*
X42313Y-24322D01*
X42170Y-24465D01*
X42138Y-24512D01*
X42127Y-24568D01*
X42127Y-25393D01*
X42119Y-25385D01*
X42119Y-23074D01*
X42054Y-22914D01*
X42050Y-22908D01*
X41983Y-22878D01*
X41964Y-22897D01*
X41964Y-22858D01*
X41933Y-22791D01*
X41774Y-22724D01*
X41602Y-22722D01*
X41442Y-22787D01*
X41436Y-22791D01*
X41405Y-22858D01*
X41685Y-23137D01*
X41964Y-22858D01*
X41964Y-22897D01*
X41704Y-23157D01*
X41983Y-23436D01*
X42050Y-23406D01*
X42118Y-23247D01*
X42119Y-23074D01*
X42119Y-25385D01*
X42056Y-25322D01*
X42091Y-25238D01*
X42091Y-25077D01*
X42091Y-24077D01*
X42029Y-23927D01*
X41964Y-23862D01*
X41964Y-23456D01*
X41685Y-23176D01*
X41665Y-23196D01*
X41665Y-23157D01*
X41386Y-22878D01*
X41319Y-22908D01*
X41251Y-23067D01*
X41250Y-23240D01*
X41315Y-23400D01*
X41319Y-23406D01*
X41386Y-23436D01*
X41665Y-23157D01*
X41665Y-23196D01*
X41405Y-23456D01*
X41436Y-23523D01*
X41595Y-23590D01*
X41767Y-23592D01*
X41927Y-23527D01*
X41933Y-23523D01*
X41964Y-23456D01*
X41964Y-23862D01*
X41915Y-23813D01*
X41766Y-23751D01*
X41604Y-23751D01*
X41455Y-23812D01*
X41340Y-23927D01*
X41278Y-24076D01*
X41278Y-24237D01*
X41340Y-24387D01*
X41454Y-24501D01*
X41603Y-24563D01*
X41765Y-24563D01*
X41914Y-24502D01*
X42029Y-24387D01*
X42091Y-24238D01*
X42091Y-24077D01*
X42091Y-25077D01*
X42029Y-24927D01*
X41915Y-24813D01*
X41766Y-24751D01*
X41604Y-24751D01*
X41455Y-24812D01*
X41340Y-24927D01*
X41278Y-25076D01*
X41278Y-25237D01*
X41340Y-25387D01*
X41454Y-25501D01*
X41603Y-25563D01*
X41765Y-25563D01*
X41849Y-25529D01*
X41957Y-25637D01*
X41957Y-25855D01*
X41915Y-25813D01*
X41766Y-25751D01*
X41604Y-25751D01*
X41455Y-25812D01*
X41340Y-25927D01*
X41278Y-26076D01*
X41278Y-26237D01*
X41313Y-26322D01*
X41065Y-26570D01*
X41033Y-26617D01*
X41022Y-26673D01*
X41022Y-28586D01*
X40996Y-28524D01*
X40890Y-28417D01*
X40890Y-27135D01*
X40890Y-27030D01*
X40890Y-26936D01*
X40890Y-26831D01*
X40869Y-26782D01*
X40832Y-26744D01*
X40783Y-26724D01*
X40729Y-26724D01*
X40578Y-26724D01*
X40545Y-26758D01*
X40545Y-26969D01*
X40856Y-26969D01*
X40890Y-26936D01*
X40890Y-27030D01*
X40856Y-26997D01*
X40545Y-26997D01*
X40545Y-27208D01*
X40578Y-27242D01*
X40729Y-27242D01*
X40783Y-27242D01*
X40832Y-27221D01*
X40869Y-27184D01*
X40890Y-27135D01*
X40890Y-28417D01*
X40889Y-28417D01*
X40749Y-28358D01*
X40677Y-28358D01*
X40677Y-27814D01*
X40777Y-27814D01*
X40816Y-27798D01*
X40846Y-27768D01*
X40862Y-27729D01*
X40862Y-27687D01*
X40862Y-27437D01*
X40846Y-27398D01*
X40816Y-27368D01*
X40777Y-27352D01*
X40735Y-27352D01*
X40517Y-27352D01*
X40517Y-27208D01*
X40517Y-26997D01*
X40517Y-26969D01*
X40517Y-26758D01*
X40484Y-26724D01*
X40333Y-26724D01*
X40279Y-26724D01*
X40230Y-26744D01*
X40193Y-26782D01*
X40172Y-26831D01*
X40172Y-26936D01*
X40206Y-26969D01*
X40517Y-26969D01*
X40517Y-26997D01*
X40206Y-26997D01*
X40172Y-27030D01*
X40172Y-27135D01*
X40193Y-27184D01*
X40230Y-27221D01*
X40279Y-27242D01*
X40333Y-27242D01*
X40484Y-27242D01*
X40517Y-27208D01*
X40517Y-27352D01*
X40285Y-27352D01*
X40246Y-27368D01*
X40216Y-27398D01*
X40200Y-27437D01*
X40200Y-27479D01*
X40200Y-27729D01*
X40216Y-27768D01*
X40246Y-27798D01*
X40285Y-27814D01*
X40327Y-27814D01*
X40385Y-27814D01*
X40385Y-28488D01*
X40350Y-28523D01*
X40291Y-28663D01*
X40291Y-28815D01*
X40349Y-28955D01*
X40456Y-29063D01*
X40597Y-29121D01*
X40748Y-29121D01*
X40888Y-29063D01*
X40996Y-28956D01*
X41022Y-28893D01*
X41022Y-33184D01*
X41009Y-33197D01*
X41009Y-30196D01*
X41009Y-29685D01*
X40683Y-29685D01*
X40683Y-30196D01*
X41009Y-30196D01*
X41009Y-33197D01*
X40508Y-33698D01*
X40508Y-33261D01*
X40508Y-33202D01*
X40508Y-33175D01*
X40508Y-33116D01*
X40508Y-30269D01*
X40508Y-30210D01*
X40508Y-30183D01*
X40508Y-30124D01*
X40480Y-30013D01*
X40412Y-29922D01*
X40315Y-29863D01*
X40275Y-29852D01*
X40230Y-29880D01*
X40230Y-30183D01*
X40508Y-30183D01*
X40508Y-30210D01*
X40230Y-30210D01*
X40230Y-30513D01*
X40275Y-30541D01*
X40315Y-30530D01*
X40412Y-30471D01*
X40480Y-30380D01*
X40508Y-30269D01*
X40508Y-33116D01*
X40480Y-33005D01*
X40412Y-32914D01*
X40315Y-32855D01*
X40275Y-32844D01*
X40230Y-32872D01*
X40230Y-33175D01*
X40508Y-33175D01*
X40508Y-33202D01*
X40230Y-33202D01*
X40230Y-33505D01*
X40275Y-33533D01*
X40315Y-33522D01*
X40412Y-33463D01*
X40480Y-33372D01*
X40508Y-33261D01*
X40508Y-33698D01*
X39818Y-34388D01*
X39749Y-34359D01*
X39597Y-34359D01*
X39457Y-34417D01*
X39350Y-34524D01*
X39339Y-34551D01*
X39339Y-33511D01*
X39371Y-33511D01*
X39410Y-33495D01*
X39440Y-33465D01*
X39456Y-33426D01*
X39456Y-33384D01*
X39456Y-33332D01*
X39461Y-33355D01*
X39518Y-33440D01*
X39603Y-33498D01*
X39704Y-33518D01*
X39805Y-33498D01*
X39891Y-33440D01*
X39948Y-33355D01*
X39948Y-33354D01*
X39952Y-33372D01*
X40020Y-33463D01*
X40117Y-33522D01*
X40157Y-33533D01*
X40202Y-33505D01*
X40202Y-33202D01*
X40195Y-33202D01*
X40195Y-33175D01*
X40202Y-33175D01*
X40202Y-32872D01*
X40157Y-32844D01*
X40117Y-32855D01*
X40020Y-32914D01*
X39952Y-33005D01*
X39948Y-33023D01*
X39948Y-33022D01*
X39891Y-32937D01*
X39851Y-32910D01*
X39851Y-30475D01*
X39891Y-30448D01*
X39948Y-30363D01*
X39948Y-30362D01*
X39952Y-30380D01*
X40020Y-30471D01*
X40117Y-30530D01*
X40157Y-30541D01*
X40202Y-30513D01*
X40202Y-30210D01*
X40195Y-30210D01*
X40195Y-30183D01*
X40202Y-30183D01*
X40202Y-29880D01*
X40157Y-29852D01*
X40117Y-29863D01*
X40020Y-29922D01*
X39952Y-30013D01*
X39948Y-30030D01*
X39948Y-30030D01*
X39891Y-29944D01*
X39805Y-29887D01*
X39704Y-29867D01*
X39603Y-29887D01*
X39518Y-29944D01*
X39461Y-30030D01*
X39456Y-30053D01*
X39456Y-29959D01*
X39440Y-29920D01*
X39410Y-29890D01*
X39371Y-29874D01*
X39339Y-29874D01*
X39339Y-29281D01*
X39527Y-29092D01*
X39597Y-29121D01*
X39748Y-29121D01*
X39888Y-29063D01*
X39996Y-28956D01*
X40054Y-28816D01*
X40054Y-28664D01*
X39996Y-28524D01*
X39889Y-28417D01*
X39811Y-28384D01*
X39811Y-27799D01*
X39843Y-27786D01*
X39873Y-27756D01*
X39889Y-27717D01*
X39889Y-27675D01*
X39889Y-27518D01*
X39873Y-27479D01*
X39852Y-27458D01*
X39859Y-27455D01*
X39896Y-27418D01*
X39917Y-27369D01*
X39917Y-27311D01*
X39917Y-27216D01*
X39917Y-27158D01*
X39896Y-27109D01*
X39859Y-27071D01*
X39850Y-27068D01*
X39850Y-23500D01*
X39850Y-23073D01*
X39812Y-22882D01*
X39703Y-22720D01*
X39541Y-22611D01*
X39350Y-22573D01*
X39159Y-22611D01*
X38997Y-22720D01*
X38888Y-22882D01*
X38850Y-23073D01*
X38850Y-23500D01*
X38888Y-23692D01*
X38997Y-23854D01*
X39159Y-23962D01*
X39350Y-24000D01*
X39541Y-23962D01*
X39703Y-23854D01*
X39812Y-23692D01*
X39850Y-23500D01*
X39850Y-27068D01*
X39809Y-27051D01*
X39756Y-27051D01*
X39712Y-27051D01*
X39679Y-27085D01*
X39679Y-27250D01*
X39883Y-27250D01*
X39917Y-27216D01*
X39917Y-27311D01*
X39883Y-27277D01*
X39679Y-27277D01*
X39679Y-27285D01*
X39651Y-27285D01*
X39651Y-27277D01*
X39651Y-27250D01*
X39651Y-27085D01*
X39618Y-27051D01*
X39573Y-27051D01*
X39520Y-27051D01*
X39471Y-27071D01*
X39433Y-27109D01*
X39413Y-27158D01*
X39413Y-27216D01*
X39446Y-27250D01*
X39651Y-27250D01*
X39651Y-27277D01*
X39446Y-27277D01*
X39413Y-27311D01*
X39413Y-27369D01*
X39433Y-27418D01*
X39471Y-27455D01*
X39477Y-27458D01*
X39457Y-27479D01*
X39441Y-27518D01*
X39441Y-27560D01*
X39441Y-27717D01*
X39457Y-27756D01*
X39487Y-27786D01*
X39519Y-27799D01*
X39519Y-28391D01*
X39457Y-28416D01*
X39350Y-28523D01*
X39291Y-28663D01*
X39291Y-28815D01*
X39320Y-28885D01*
X39089Y-29117D01*
X39057Y-29164D01*
X39054Y-29179D01*
X39054Y-28664D01*
X38996Y-28524D01*
X38889Y-28417D01*
X38749Y-28358D01*
X38597Y-28358D01*
X38457Y-28416D01*
X38350Y-28523D01*
X38291Y-28663D01*
X38291Y-28815D01*
X38320Y-28885D01*
X38054Y-29151D01*
X38054Y-28664D01*
X37996Y-28524D01*
X37909Y-28437D01*
X37909Y-23501D01*
X37909Y-23301D01*
X37909Y-23273D01*
X37909Y-23073D01*
X37864Y-22872D01*
X37745Y-22704D01*
X37571Y-22594D01*
X37478Y-22568D01*
X37396Y-22593D01*
X37396Y-23273D01*
X37909Y-23273D01*
X37909Y-23301D01*
X37396Y-23301D01*
X37396Y-23980D01*
X37478Y-24005D01*
X37571Y-23979D01*
X37745Y-23869D01*
X37864Y-23701D01*
X37909Y-23501D01*
X37909Y-28437D01*
X37889Y-28417D01*
X37749Y-28358D01*
X37597Y-28358D01*
X37457Y-28416D01*
X37368Y-28505D01*
X37368Y-23980D01*
X37368Y-23301D01*
X37368Y-23273D01*
X37368Y-22593D01*
X37286Y-22568D01*
X37193Y-22594D01*
X37019Y-22704D01*
X36900Y-22872D01*
X36855Y-23073D01*
X36855Y-23273D01*
X37368Y-23273D01*
X37368Y-23301D01*
X36855Y-23301D01*
X36855Y-23501D01*
X36900Y-23701D01*
X37019Y-23869D01*
X37193Y-23979D01*
X37286Y-24005D01*
X37368Y-23980D01*
X37368Y-28505D01*
X37350Y-28523D01*
X37291Y-28663D01*
X37291Y-28815D01*
X37349Y-28955D01*
X37456Y-29063D01*
X37597Y-29121D01*
X37748Y-29121D01*
X37888Y-29063D01*
X37996Y-28956D01*
X38054Y-28816D01*
X38054Y-28664D01*
X38054Y-29151D01*
X37054Y-30151D01*
X37054Y-28664D01*
X36996Y-28524D01*
X36889Y-28417D01*
X36819Y-28388D01*
X36819Y-24044D01*
X36808Y-23988D01*
X36808Y-23988D01*
X36776Y-23941D01*
X36020Y-23184D01*
X35972Y-23153D01*
X35916Y-23141D01*
X35912Y-23141D01*
X35912Y-23074D01*
X35874Y-22883D01*
X35765Y-22721D01*
X35603Y-22612D01*
X35412Y-22574D01*
X35221Y-22612D01*
X35058Y-22721D01*
X34950Y-22883D01*
X34912Y-23074D01*
X34912Y-23501D01*
X34950Y-23693D01*
X35058Y-23855D01*
X35221Y-23963D01*
X35412Y-24001D01*
X35603Y-23963D01*
X35765Y-23855D01*
X35874Y-23693D01*
X35912Y-23501D01*
X35912Y-23490D01*
X36526Y-24105D01*
X36526Y-28388D01*
X36457Y-28416D01*
X36350Y-28523D01*
X36291Y-28663D01*
X36291Y-28815D01*
X36349Y-28955D01*
X36456Y-29063D01*
X36597Y-29121D01*
X36748Y-29121D01*
X36888Y-29063D01*
X36996Y-28956D01*
X37054Y-28816D01*
X37054Y-28664D01*
X37054Y-30151D01*
X36549Y-30656D01*
X36549Y-30554D01*
X36549Y-30511D01*
X36549Y-29831D01*
X36533Y-29792D01*
X36503Y-29762D01*
X36464Y-29746D01*
X36422Y-29746D01*
X36054Y-29746D01*
X36054Y-28664D01*
X35996Y-28524D01*
X35889Y-28417D01*
X35749Y-28358D01*
X35597Y-28358D01*
X35457Y-28416D01*
X35350Y-28523D01*
X35291Y-28663D01*
X35291Y-28815D01*
X35349Y-28955D01*
X35456Y-29063D01*
X35597Y-29121D01*
X35748Y-29121D01*
X35888Y-29063D01*
X35996Y-28956D01*
X36054Y-28816D01*
X36054Y-28664D01*
X36054Y-29746D01*
X35622Y-29746D01*
X35583Y-29762D01*
X35553Y-29792D01*
X35537Y-29831D01*
X35537Y-29874D01*
X35537Y-30554D01*
X35553Y-30593D01*
X35583Y-30623D01*
X35622Y-30639D01*
X35664Y-30639D01*
X36464Y-30639D01*
X36503Y-30623D01*
X36533Y-30593D01*
X36549Y-30554D01*
X36549Y-30656D01*
X36450Y-30755D01*
X36419Y-30803D01*
X36407Y-30859D01*
X36407Y-30863D01*
X36284Y-30780D01*
X36113Y-30746D01*
X35973Y-30746D01*
X35802Y-30780D01*
X35657Y-30877D01*
X35561Y-31022D01*
X35527Y-31192D01*
X35561Y-31363D01*
X35657Y-31508D01*
X35802Y-31605D01*
X35973Y-31639D01*
X36113Y-31639D01*
X36284Y-31605D01*
X36428Y-31508D01*
X36525Y-31363D01*
X36530Y-31339D01*
X36554Y-31339D01*
X36610Y-31328D01*
X36657Y-31296D01*
X36689Y-31248D01*
X36700Y-31192D01*
X36700Y-30919D01*
X38527Y-29092D01*
X38597Y-29121D01*
X38748Y-29121D01*
X38888Y-29063D01*
X38996Y-28956D01*
X39054Y-28816D01*
X39054Y-28664D01*
X39054Y-29179D01*
X39046Y-29220D01*
X39046Y-29874D01*
X39014Y-29874D01*
X38975Y-29890D01*
X38945Y-29920D01*
X38928Y-29959D01*
X38928Y-30001D01*
X38928Y-30434D01*
X38945Y-30473D01*
X38975Y-30503D01*
X39014Y-30519D01*
X39046Y-30519D01*
X39046Y-32866D01*
X39014Y-32866D01*
X38975Y-32882D01*
X38945Y-32912D01*
X38928Y-32951D01*
X38928Y-32993D01*
X38928Y-33426D01*
X38945Y-33465D01*
X38975Y-33495D01*
X39014Y-33511D01*
X39046Y-33511D01*
X39046Y-34645D01*
X38996Y-34524D01*
X38889Y-34417D01*
X38749Y-34359D01*
X38597Y-34359D01*
X38457Y-34417D01*
X38350Y-34524D01*
X38291Y-34664D01*
X38291Y-34816D01*
X38349Y-34956D01*
X38456Y-35063D01*
X38597Y-35121D01*
X38748Y-35122D01*
X38888Y-35064D01*
X38996Y-34956D01*
X39046Y-34836D01*
X39046Y-35531D01*
X39057Y-35587D01*
X39089Y-35634D01*
X40395Y-36941D01*
X40372Y-36941D01*
X40333Y-36957D01*
X40303Y-36987D01*
X40290Y-37019D01*
X40078Y-37019D01*
X40078Y-36919D01*
X40062Y-36880D01*
X40032Y-36850D01*
X39993Y-36834D01*
X39951Y-36834D01*
X39701Y-36834D01*
X39662Y-36850D01*
X39632Y-36880D01*
X39615Y-36919D01*
X39615Y-36961D01*
X39615Y-37411D01*
X39632Y-37450D01*
X39662Y-37480D01*
X39701Y-37496D01*
X39743Y-37496D01*
X39993Y-37496D01*
X40032Y-37480D01*
X40062Y-37450D01*
X40078Y-37411D01*
X40078Y-37369D01*
X40078Y-37311D01*
X40290Y-37311D01*
X40303Y-37343D01*
X40333Y-37373D01*
X40372Y-37389D01*
X40415Y-37389D01*
X40572Y-37389D01*
X40611Y-37373D01*
X40641Y-37343D01*
X40649Y-37323D01*
X40657Y-37343D01*
X40680Y-37365D01*
X40680Y-39051D01*
X40657Y-39073D01*
X40649Y-39093D01*
X40641Y-39073D01*
X40611Y-39043D01*
X40572Y-39027D01*
X40529Y-39027D01*
X40372Y-39027D01*
X40333Y-39043D01*
X40303Y-39073D01*
X40290Y-39105D01*
X40078Y-39105D01*
X40078Y-39005D01*
X40062Y-38966D01*
X40032Y-38936D01*
X39993Y-38920D01*
X39951Y-38920D01*
X39701Y-38920D01*
X39662Y-38936D01*
X39632Y-38966D01*
X39615Y-39005D01*
X39615Y-39048D01*
X39615Y-39441D01*
X39478Y-39441D01*
X39478Y-39005D01*
X39462Y-38966D01*
X39432Y-38936D01*
X39393Y-38920D01*
X39351Y-38920D01*
X39101Y-38920D01*
X39062Y-38936D01*
X39032Y-38966D01*
X39015Y-39005D01*
X39015Y-39048D01*
X39015Y-39049D01*
X37356Y-37390D01*
X37356Y-34963D01*
X37456Y-35063D01*
X37597Y-35121D01*
X37748Y-35122D01*
X37818Y-35093D01*
X39100Y-36375D01*
X39100Y-36834D01*
X39062Y-36850D01*
X39032Y-36880D01*
X39015Y-36919D01*
X39015Y-36961D01*
X39015Y-37411D01*
X39032Y-37450D01*
X39062Y-37480D01*
X39101Y-37496D01*
X39143Y-37496D01*
X39393Y-37496D01*
X39432Y-37480D01*
X39462Y-37450D01*
X39478Y-37411D01*
X39478Y-37369D01*
X39478Y-36919D01*
X39462Y-36880D01*
X39432Y-36850D01*
X39393Y-36834D01*
X39393Y-36314D01*
X39382Y-36258D01*
X39350Y-36211D01*
X38025Y-34886D01*
X38054Y-34816D01*
X38054Y-34665D01*
X37996Y-34524D01*
X37889Y-34417D01*
X37749Y-34359D01*
X37597Y-34359D01*
X37457Y-34417D01*
X37356Y-34517D01*
X37356Y-34510D01*
X37345Y-34454D01*
X37313Y-34406D01*
X36898Y-33991D01*
X36850Y-33959D01*
X36794Y-33948D01*
X36568Y-33948D01*
X36568Y-33280D01*
X36568Y-33105D01*
X36568Y-32280D01*
X36568Y-32105D01*
X36546Y-32024D01*
X36448Y-31867D01*
X36297Y-31760D01*
X36117Y-31719D01*
X36057Y-31719D01*
X36057Y-32179D01*
X36543Y-32179D01*
X36568Y-32105D01*
X36568Y-32280D01*
X36543Y-32206D01*
X36057Y-32206D01*
X36057Y-32666D01*
X36117Y-32666D01*
X36297Y-32625D01*
X36448Y-32518D01*
X36546Y-32361D01*
X36568Y-32280D01*
X36568Y-33105D01*
X36546Y-33024D01*
X36448Y-32867D01*
X36297Y-32760D01*
X36117Y-32719D01*
X36057Y-32719D01*
X36057Y-33179D01*
X36543Y-33179D01*
X36568Y-33105D01*
X36568Y-33280D01*
X36543Y-33206D01*
X36057Y-33206D01*
X36057Y-33666D01*
X36117Y-33666D01*
X36297Y-33625D01*
X36448Y-33518D01*
X36546Y-33361D01*
X36568Y-33280D01*
X36568Y-33948D01*
X36289Y-33948D01*
X36007Y-33666D01*
X36029Y-33666D01*
X36029Y-33206D01*
X36021Y-33206D01*
X36021Y-33179D01*
X36029Y-33179D01*
X36029Y-32719D01*
X36029Y-32666D01*
X36029Y-32206D01*
X36029Y-32179D01*
X36029Y-31719D01*
X35969Y-31719D01*
X35789Y-31760D01*
X35638Y-31867D01*
X35540Y-32024D01*
X35517Y-32105D01*
X35543Y-32179D01*
X36029Y-32179D01*
X36029Y-32206D01*
X35543Y-32206D01*
X35517Y-32280D01*
X35540Y-32361D01*
X35638Y-32518D01*
X35789Y-32625D01*
X35969Y-32666D01*
X36029Y-32666D01*
X36029Y-32719D01*
X35969Y-32719D01*
X35789Y-32760D01*
X35638Y-32867D01*
X35540Y-33024D01*
X35517Y-33105D01*
X35543Y-33179D01*
X35519Y-33179D01*
X35467Y-33126D01*
X35467Y-30129D01*
X35455Y-30073D01*
X35455Y-30073D01*
X35424Y-30025D01*
X34464Y-29066D01*
X34597Y-29121D01*
X34748Y-29121D01*
X34888Y-29063D01*
X34996Y-28956D01*
X35054Y-28816D01*
X35054Y-28664D01*
X34996Y-28524D01*
X34889Y-28417D01*
X34749Y-28358D01*
X34597Y-28358D01*
X34527Y-28387D01*
X33971Y-27831D01*
X33971Y-23502D01*
X33971Y-23302D01*
X33971Y-23274D01*
X33971Y-23074D01*
X33926Y-22873D01*
X33807Y-22705D01*
X33633Y-22595D01*
X33540Y-22569D01*
X33458Y-22594D01*
X33458Y-23274D01*
X33971Y-23274D01*
X33971Y-23302D01*
X33458Y-23302D01*
X33458Y-23981D01*
X33540Y-24006D01*
X33633Y-23980D01*
X33807Y-23870D01*
X33926Y-23702D01*
X33971Y-23502D01*
X33971Y-27831D01*
X33430Y-27290D01*
X33430Y-23981D01*
X33430Y-23302D01*
X33430Y-23274D01*
X33430Y-22594D01*
X33348Y-22569D01*
X33255Y-22595D01*
X33081Y-22705D01*
X32962Y-22873D01*
X32916Y-23074D01*
X32916Y-23274D01*
X33430Y-23274D01*
X33430Y-23302D01*
X32916Y-23302D01*
X32916Y-23502D01*
X32962Y-23702D01*
X33081Y-23870D01*
X33255Y-23980D01*
X33348Y-24006D01*
X33430Y-23981D01*
X33430Y-27290D01*
X31622Y-25482D01*
X31622Y-23971D01*
X31667Y-23962D01*
X31829Y-23854D01*
X31938Y-23692D01*
X31976Y-23500D01*
X31976Y-23073D01*
X31938Y-22882D01*
X31829Y-22720D01*
X31667Y-22611D01*
X31476Y-22573D01*
X31285Y-22611D01*
X31123Y-22720D01*
X31014Y-22882D01*
X30976Y-23073D01*
X30976Y-23500D01*
X31014Y-23692D01*
X31123Y-23854D01*
X31285Y-23962D01*
X31330Y-23971D01*
X31330Y-25543D01*
X31341Y-25599D01*
X31373Y-25646D01*
X34320Y-28594D01*
X34308Y-28623D01*
X34308Y-28622D01*
X34276Y-28574D01*
X33946Y-28245D01*
X33899Y-28213D01*
X33843Y-28202D01*
X32064Y-28202D01*
X32008Y-28213D01*
X31961Y-28245D01*
X31818Y-28387D01*
X31749Y-28358D01*
X31597Y-28358D01*
X31457Y-28416D01*
X31350Y-28523D01*
X31291Y-28663D01*
X31291Y-28815D01*
X31349Y-28955D01*
X31456Y-29063D01*
X31597Y-29121D01*
X31748Y-29121D01*
X31888Y-29063D01*
X31996Y-28956D01*
X32054Y-28816D01*
X32054Y-28664D01*
X32025Y-28594D01*
X32125Y-28494D01*
X32379Y-28494D01*
X32350Y-28523D01*
X32291Y-28663D01*
X32291Y-28815D01*
X32307Y-28853D01*
X31171Y-29989D01*
X31139Y-30037D01*
X31128Y-30093D01*
X31128Y-32975D01*
X31054Y-32902D01*
X31054Y-28664D01*
X30996Y-28524D01*
X30889Y-28417D01*
X30749Y-28358D01*
X30597Y-28358D01*
X30457Y-28416D01*
X30350Y-28523D01*
X30291Y-28663D01*
X30291Y-28815D01*
X30349Y-28955D01*
X30456Y-29063D01*
X30597Y-29121D01*
X30748Y-29121D01*
X30888Y-29063D01*
X30996Y-28956D01*
X31054Y-28816D01*
X31054Y-28664D01*
X31054Y-32902D01*
X30054Y-31902D01*
X30054Y-28664D01*
X30035Y-28619D01*
X30035Y-23501D01*
X30035Y-23301D01*
X30035Y-23273D01*
X30035Y-23073D01*
X29990Y-22872D01*
X29871Y-22704D01*
X29697Y-22594D01*
X29604Y-22568D01*
X29522Y-22593D01*
X29522Y-23273D01*
X30035Y-23273D01*
X30035Y-23301D01*
X29522Y-23301D01*
X29522Y-23980D01*
X29604Y-24005D01*
X29697Y-23979D01*
X29871Y-23869D01*
X29990Y-23701D01*
X30035Y-23501D01*
X30035Y-28619D01*
X29996Y-28524D01*
X29889Y-28417D01*
X29749Y-28358D01*
X29597Y-28358D01*
X29494Y-28401D01*
X29494Y-23980D01*
X29494Y-23301D01*
X29494Y-23273D01*
X29494Y-22593D01*
X29412Y-22568D01*
X29319Y-22594D01*
X29145Y-22704D01*
X29026Y-22872D01*
X28981Y-23073D01*
X28981Y-23273D01*
X29494Y-23273D01*
X29494Y-23301D01*
X28981Y-23301D01*
X28981Y-23501D01*
X29026Y-23701D01*
X29145Y-23869D01*
X29319Y-23979D01*
X29412Y-24005D01*
X29494Y-23980D01*
X29494Y-28401D01*
X29457Y-28416D01*
X29350Y-28523D01*
X29291Y-28663D01*
X29291Y-28815D01*
X29349Y-28955D01*
X29456Y-29063D01*
X29597Y-29121D01*
X29748Y-29121D01*
X29888Y-29063D01*
X29996Y-28956D01*
X30054Y-28816D01*
X30054Y-28664D01*
X30054Y-31902D01*
X29249Y-31097D01*
X29202Y-31065D01*
X29146Y-31054D01*
X29141Y-31054D01*
X29141Y-30513D01*
X29141Y-30471D01*
X29141Y-29920D01*
X29125Y-29881D01*
X29095Y-29851D01*
X29082Y-29845D01*
X29082Y-28661D01*
X29021Y-28510D01*
X29018Y-28506D01*
X28953Y-28478D01*
X28934Y-28498D01*
X28934Y-28459D01*
X28910Y-28403D01*
X28910Y-26768D01*
X28846Y-26612D01*
X28843Y-26606D01*
X28777Y-26577D01*
X28757Y-26596D01*
X28757Y-26557D01*
X28728Y-26491D01*
X28572Y-26425D01*
X28403Y-26424D01*
X28246Y-26487D01*
X28240Y-26491D01*
X28211Y-26557D01*
X28484Y-26830D01*
X28757Y-26557D01*
X28757Y-26596D01*
X28504Y-26850D01*
X28777Y-27123D01*
X28843Y-27094D01*
X28909Y-26938D01*
X28910Y-26768D01*
X28910Y-28403D01*
X28906Y-28394D01*
X28757Y-28332D01*
X28757Y-27142D01*
X28484Y-26869D01*
X28211Y-27142D01*
X28240Y-27209D01*
X28396Y-27275D01*
X28565Y-27276D01*
X28722Y-27212D01*
X28728Y-27209D01*
X28757Y-27142D01*
X28757Y-28332D01*
X28757Y-28331D01*
X28594Y-28330D01*
X28443Y-28392D01*
X28439Y-28394D01*
X28412Y-28459D01*
X28673Y-28720D01*
X28934Y-28459D01*
X28934Y-28498D01*
X28692Y-28740D01*
X28953Y-29001D01*
X29018Y-28973D01*
X29081Y-28824D01*
X29082Y-28661D01*
X29082Y-29845D01*
X29056Y-29835D01*
X29014Y-29835D01*
X28934Y-29835D01*
X28934Y-29020D01*
X28673Y-28759D01*
X28653Y-28779D01*
X28653Y-28740D01*
X28392Y-28478D01*
X28328Y-28506D01*
X28264Y-28656D01*
X28263Y-28818D01*
X28325Y-28969D01*
X28328Y-28973D01*
X28392Y-29001D01*
X28653Y-28740D01*
X28653Y-28779D01*
X28412Y-29020D01*
X28439Y-29085D01*
X28589Y-29148D01*
X28752Y-29149D01*
X28902Y-29088D01*
X28906Y-29085D01*
X28934Y-29020D01*
X28934Y-29835D01*
X28204Y-29835D01*
X28204Y-29125D01*
X28193Y-29069D01*
X28193Y-29069D01*
X28161Y-29021D01*
X28025Y-28885D01*
X28054Y-28816D01*
X28054Y-28664D01*
X27996Y-28524D01*
X27889Y-28417D01*
X27842Y-28397D01*
X27842Y-27220D01*
X27921Y-27187D01*
X28033Y-27076D01*
X28075Y-26974D01*
X28122Y-27088D01*
X28125Y-27094D01*
X28191Y-27123D01*
X28465Y-26850D01*
X28191Y-26577D01*
X28125Y-26606D01*
X28075Y-26725D01*
X28033Y-26625D01*
X27922Y-26513D01*
X27776Y-26452D01*
X27617Y-26452D01*
X27527Y-26489D01*
X27527Y-21420D01*
X27439Y-21207D01*
X27277Y-21045D01*
X27064Y-20956D01*
X26834Y-20956D01*
X26621Y-21044D01*
X26458Y-21207D01*
X26370Y-21419D01*
X26369Y-21650D01*
X26457Y-21862D01*
X26620Y-22025D01*
X26833Y-22114D01*
X27063Y-22114D01*
X27276Y-22026D01*
X27439Y-21863D01*
X27527Y-21651D01*
X27527Y-21420D01*
X27527Y-26489D01*
X27471Y-26512D01*
X27359Y-26624D01*
X27298Y-26770D01*
X27298Y-26929D01*
X27359Y-27075D01*
X27470Y-27187D01*
X27550Y-27220D01*
X27550Y-28378D01*
X27457Y-28416D01*
X27350Y-28523D01*
X27291Y-28663D01*
X27291Y-28815D01*
X27349Y-28955D01*
X27456Y-29063D01*
X27597Y-29121D01*
X27748Y-29121D01*
X27818Y-29092D01*
X27912Y-29185D01*
X27912Y-30216D01*
X27923Y-30272D01*
X27954Y-30320D01*
X28002Y-30352D01*
X28058Y-30363D01*
X28062Y-30363D01*
X28062Y-30513D01*
X28079Y-30552D01*
X28109Y-30582D01*
X28148Y-30598D01*
X28190Y-30598D01*
X29056Y-30598D01*
X29095Y-30582D01*
X29125Y-30552D01*
X29141Y-30513D01*
X29141Y-31054D01*
X29123Y-31054D01*
X29040Y-30930D01*
X28916Y-30848D01*
X28770Y-30819D01*
X28434Y-30819D01*
X28288Y-30848D01*
X28164Y-30930D01*
X28081Y-31054D01*
X28052Y-31200D01*
X28081Y-31347D01*
X28164Y-31470D01*
X28288Y-31553D01*
X28434Y-31582D01*
X28770Y-31582D01*
X28916Y-31553D01*
X29040Y-31470D01*
X29108Y-31369D01*
X30930Y-33192D01*
X30930Y-34451D01*
X30906Y-34395D01*
X30757Y-34332D01*
X30594Y-34331D01*
X30443Y-34392D01*
X30439Y-34395D01*
X30412Y-34459D01*
X30673Y-34721D01*
X30678Y-34715D01*
X30698Y-34735D01*
X30692Y-34740D01*
X30698Y-34746D01*
X30678Y-34765D01*
X30673Y-34760D01*
X30653Y-34779D01*
X30653Y-34740D01*
X30392Y-34479D01*
X30328Y-34506D01*
X30264Y-34656D01*
X30263Y-34819D01*
X30325Y-34970D01*
X30328Y-34974D01*
X30392Y-35001D01*
X30653Y-34740D01*
X30653Y-34779D01*
X30412Y-35021D01*
X30439Y-35085D01*
X30589Y-35148D01*
X30752Y-35150D01*
X30902Y-35088D01*
X30906Y-35085D01*
X30930Y-35029D01*
X30930Y-36794D01*
X30942Y-36850D01*
X30973Y-36897D01*
X31397Y-37321D01*
X30054Y-38663D01*
X30054Y-34665D01*
X29996Y-34524D01*
X29889Y-34417D01*
X29749Y-34359D01*
X29597Y-34359D01*
X29457Y-34417D01*
X29350Y-34524D01*
X29291Y-34664D01*
X29291Y-34816D01*
X29349Y-34956D01*
X29456Y-35063D01*
X29597Y-35121D01*
X29748Y-35122D01*
X29888Y-35064D01*
X29996Y-34956D01*
X30054Y-34816D01*
X30054Y-34665D01*
X30054Y-38663D01*
X29930Y-38787D01*
X29899Y-38834D01*
X29888Y-38890D01*
X29888Y-38920D01*
X29652Y-38920D01*
X29613Y-38936D01*
X29583Y-38966D01*
X29567Y-39005D01*
X29567Y-39048D01*
X29567Y-39498D01*
X29583Y-39537D01*
X29613Y-39567D01*
X29652Y-39583D01*
X29694Y-39583D01*
X29944Y-39583D01*
X29983Y-39567D01*
X30013Y-39537D01*
X30029Y-39498D01*
X30029Y-39455D01*
X30029Y-39398D01*
X30034Y-39398D01*
X30090Y-39387D01*
X30137Y-39355D01*
X30167Y-39311D01*
X30167Y-39498D01*
X30183Y-39537D01*
X30213Y-39567D01*
X30252Y-39583D01*
X30294Y-39583D01*
X30544Y-39583D01*
X30583Y-39567D01*
X30613Y-39537D01*
X30629Y-39498D01*
X30629Y-39455D01*
X30629Y-39454D01*
X31017Y-39842D01*
X31065Y-39874D01*
X31065Y-39874D01*
X31121Y-39885D01*
X35158Y-39885D01*
X35214Y-39874D01*
X35214Y-39874D01*
X35261Y-39842D01*
X35646Y-39457D01*
X35648Y-39460D01*
X35687Y-39476D01*
X35730Y-39476D01*
X35887Y-39476D01*
X35926Y-39460D01*
X35956Y-39430D01*
X35964Y-39409D01*
X35972Y-39430D01*
X36002Y-39460D01*
X36041Y-39476D01*
X36084Y-39476D01*
X36241Y-39476D01*
X36280Y-39460D01*
X36310Y-39430D01*
X36323Y-39398D01*
X36331Y-39398D01*
X36387Y-39387D01*
X36387Y-39387D01*
X36434Y-39355D01*
X37059Y-38730D01*
X38020Y-39691D01*
X38067Y-39723D01*
X38123Y-39734D01*
X40490Y-39734D01*
X40546Y-39723D01*
X40546Y-39723D01*
X40594Y-39691D01*
X40809Y-39476D01*
X40926Y-39476D01*
X40965Y-39460D01*
X40995Y-39430D01*
X41011Y-39391D01*
X41011Y-39348D01*
X41011Y-39112D01*
X40995Y-39073D01*
X40972Y-39051D01*
X40972Y-37365D01*
X40995Y-37343D01*
X41011Y-37304D01*
X41011Y-37262D01*
X41011Y-37026D01*
X40995Y-36987D01*
X40965Y-36957D01*
X40926Y-36941D01*
X40883Y-36941D01*
X40809Y-36941D01*
X39339Y-35470D01*
X39339Y-34930D01*
X39349Y-34956D01*
X39456Y-35063D01*
X39597Y-35121D01*
X39748Y-35122D01*
X39888Y-35064D01*
X39996Y-34956D01*
X40054Y-34816D01*
X40054Y-34665D01*
X40025Y-34595D01*
X41271Y-33348D01*
X41303Y-33301D01*
X41314Y-33245D01*
X41314Y-33245D01*
X41314Y-33245D01*
X41314Y-28871D01*
X41349Y-28955D01*
X41456Y-29063D01*
X41597Y-29121D01*
X41748Y-29121D01*
X41888Y-29063D01*
X41957Y-28994D01*
X41957Y-33249D01*
X40818Y-34388D01*
X40749Y-34359D01*
X40597Y-34359D01*
X40457Y-34417D01*
X40350Y-34524D01*
X40291Y-34664D01*
X40291Y-34816D01*
X40349Y-34956D01*
X40456Y-35063D01*
X40597Y-35121D01*
X40748Y-35122D01*
X40888Y-35064D01*
X40996Y-34956D01*
X41054Y-34816D01*
X41054Y-34665D01*
X41025Y-34595D01*
X42127Y-33493D01*
X42127Y-34079D01*
X41818Y-34388D01*
X41749Y-34359D01*
X41597Y-34359D01*
X41457Y-34417D01*
X41350Y-34524D01*
X41291Y-34664D01*
X41291Y-34816D01*
X41349Y-34956D01*
X41456Y-35063D01*
X41597Y-35121D01*
X41748Y-35122D01*
X41888Y-35064D01*
X41996Y-34956D01*
X42054Y-34816D01*
X42054Y-34665D01*
X42025Y-34595D01*
X42377Y-34243D01*
X42409Y-34195D01*
X42409Y-34195D01*
X42420Y-34139D01*
X42420Y-27563D01*
X43006Y-27563D01*
X43045Y-27547D01*
X43075Y-27517D01*
X43091Y-27478D01*
X43091Y-27436D01*
X43091Y-26836D01*
X43075Y-26797D01*
X43045Y-26767D01*
X43006Y-26751D01*
X42963Y-26751D01*
X42420Y-26751D01*
X42420Y-26467D01*
X42454Y-26501D01*
X42603Y-26563D01*
X42765Y-26563D01*
X42914Y-26502D01*
X43029Y-26387D01*
X43091Y-26238D01*
X43091Y-26077D01*
X43091Y-38827D01*
X43025Y-38761D01*
X42812Y-38673D01*
X42582Y-38673D01*
X42369Y-38761D01*
X42206Y-38923D01*
X42118Y-39136D01*
X42117Y-39366D01*
X42205Y-39579D01*
X42368Y-39742D01*
X42581Y-39830D01*
X42811Y-39830D01*
X43024Y-39742D01*
X43187Y-39580D01*
X43275Y-39367D01*
X43275Y-39137D01*
X43275Y-39850D01*
X43016Y-40023D01*
X42682Y-40090D01*
X29161Y-40090D01*
X29161Y-33246D01*
X29135Y-33182D01*
X28804Y-33182D01*
X28804Y-33155D01*
X29135Y-33155D01*
X29161Y-33091D01*
X29152Y-33056D01*
X29152Y-32184D01*
X29123Y-32038D01*
X29040Y-31914D01*
X28916Y-31832D01*
X28770Y-31803D01*
X28434Y-31803D01*
X28288Y-31832D01*
X28164Y-31914D01*
X28081Y-32038D01*
X28052Y-32184D01*
X28081Y-32331D01*
X28164Y-32454D01*
X28288Y-32537D01*
X28434Y-32566D01*
X28770Y-32566D01*
X28916Y-32537D01*
X29040Y-32454D01*
X29123Y-32331D01*
X29152Y-32184D01*
X29152Y-33056D01*
X29143Y-33024D01*
X29059Y-32889D01*
X28929Y-32795D01*
X28773Y-32759D01*
X28616Y-32759D01*
X28616Y-32835D01*
X28588Y-32835D01*
X28588Y-32759D01*
X28431Y-32759D01*
X28275Y-32795D01*
X28145Y-32889D01*
X28061Y-33024D01*
X28042Y-33091D01*
X28069Y-33155D01*
X28478Y-33155D01*
X28478Y-33182D01*
X28069Y-33182D01*
X28042Y-33246D01*
X28061Y-33312D01*
X28145Y-33448D01*
X28275Y-33541D01*
X28431Y-33578D01*
X28588Y-33578D01*
X28588Y-33346D01*
X28616Y-33346D01*
X28616Y-33578D01*
X28773Y-33578D01*
X28929Y-33541D01*
X29059Y-33448D01*
X29143Y-33312D01*
X29161Y-33246D01*
X29161Y-40090D01*
X29054Y-40090D01*
X29054Y-34665D01*
X28996Y-34524D01*
X28889Y-34417D01*
X28749Y-34359D01*
X28597Y-34359D01*
X28457Y-34417D01*
X28350Y-34524D01*
X28291Y-34664D01*
X28291Y-34816D01*
X28349Y-34956D01*
X28456Y-35063D01*
X28597Y-35121D01*
X28748Y-35122D01*
X28888Y-35064D01*
X28996Y-34956D01*
X29054Y-34816D01*
X29054Y-34665D01*
X29054Y-40090D01*
X29028Y-40090D01*
X29028Y-38083D01*
X29000Y-38013D01*
X29000Y-36085D01*
X28939Y-35938D01*
X28826Y-35825D01*
X28678Y-35763D01*
X28518Y-35763D01*
X28371Y-35824D01*
X28258Y-35937D01*
X28196Y-36085D01*
X28196Y-36244D01*
X28257Y-36392D01*
X28370Y-36505D01*
X28518Y-36566D01*
X28677Y-36566D01*
X28825Y-36505D01*
X28938Y-36393D01*
X28999Y-36245D01*
X29000Y-36085D01*
X29000Y-38013D01*
X28964Y-37925D01*
X28960Y-37919D01*
X28893Y-37889D01*
X28874Y-37909D01*
X28874Y-37870D01*
X28844Y-37803D01*
X28687Y-37736D01*
X28516Y-37735D01*
X28358Y-37799D01*
X28352Y-37803D01*
X28322Y-37870D01*
X28598Y-38145D01*
X28874Y-37870D01*
X28874Y-37909D01*
X28617Y-38165D01*
X28893Y-38441D01*
X28960Y-38411D01*
X29026Y-38254D01*
X29028Y-38083D01*
X29028Y-40090D01*
X28874Y-40090D01*
X28874Y-38460D01*
X28598Y-38184D01*
X28578Y-38204D01*
X28578Y-38165D01*
X28303Y-37889D01*
X28236Y-37919D01*
X28169Y-38076D01*
X28168Y-38247D01*
X28232Y-38405D01*
X28236Y-38411D01*
X28303Y-38441D01*
X28578Y-38165D01*
X28578Y-38204D01*
X28322Y-38460D01*
X28352Y-38527D01*
X28509Y-38593D01*
X28680Y-38595D01*
X28838Y-38531D01*
X28844Y-38527D01*
X28874Y-38460D01*
X28874Y-40090D01*
X28054Y-40090D01*
X28054Y-35036D01*
X28054Y-34994D01*
X28054Y-34444D01*
X28038Y-34405D01*
X28008Y-34375D01*
X27969Y-34359D01*
X27927Y-34359D01*
X27377Y-34359D01*
X27338Y-34375D01*
X27308Y-34405D01*
X27291Y-34444D01*
X27291Y-34486D01*
X27291Y-35036D01*
X27308Y-35075D01*
X27338Y-35105D01*
X27377Y-35121D01*
X27419Y-35121D01*
X27969Y-35121D01*
X28008Y-35105D01*
X28038Y-35075D01*
X28054Y-35036D01*
X28054Y-40090D01*
X27527Y-40090D01*
X27527Y-39137D01*
X27439Y-38924D01*
X27277Y-38761D01*
X27064Y-38673D01*
X26834Y-38673D01*
X26621Y-38761D01*
X26458Y-38923D01*
X26370Y-39136D01*
X26369Y-39366D01*
X26457Y-39579D01*
X26620Y-39742D01*
X26833Y-39830D01*
X27063Y-39830D01*
X27276Y-39742D01*
X27439Y-39580D01*
X27527Y-39367D01*
X27527Y-39137D01*
X27527Y-40090D01*
X26963Y-40090D01*
X26629Y-40023D01*
X26357Y-39842D01*
X26176Y-39571D01*
X26110Y-39237D01*
X26110Y-25642D01*
X26921Y-25642D01*
X26921Y-22861D01*
X26110Y-22861D01*
X26110Y-21549D01*
X26176Y-21215D01*
X26357Y-20944D01*
X26629Y-20763D01*
X26963Y-20696D01*
X42682Y-20696D01*
X43016Y-20763D01*
X43287Y-20944D01*
X43468Y-21215D01*
X43535Y-21549D01*
X43535Y-39237D01*
X43535Y-39237D01*
G37*
G54D35*
X43535Y-39237D02*
X43468Y-39571D01*
X43287Y-39842D01*
X43275Y-39850D01*
X43275Y-39137D01*
X43275Y-21420D01*
X43187Y-21207D01*
X43025Y-21045D01*
X42812Y-20956D01*
X42582Y-20956D01*
X42369Y-21044D01*
X42206Y-21207D01*
X42118Y-21419D01*
X42117Y-21650D01*
X42205Y-21862D01*
X42368Y-22025D01*
X42581Y-22114D01*
X42811Y-22114D01*
X43024Y-22026D01*
X43187Y-21863D01*
X43275Y-21651D01*
X43275Y-21420D01*
X43275Y-39137D01*
X43187Y-38924D01*
X43119Y-38856D01*
X43119Y-23074D01*
X43054Y-22914D01*
X43050Y-22908D01*
X42983Y-22878D01*
X42964Y-22897D01*
X42964Y-22858D01*
X42933Y-22791D01*
X42774Y-22724D01*
X42602Y-22722D01*
X42442Y-22787D01*
X42436Y-22791D01*
X42405Y-22858D01*
X42685Y-23137D01*
X42964Y-22858D01*
X42964Y-22897D01*
X42704Y-23157D01*
X42983Y-23436D01*
X43050Y-23406D01*
X43118Y-23247D01*
X43119Y-23074D01*
X43119Y-38856D01*
X43091Y-38827D01*
X43091Y-26077D01*
X43029Y-25927D01*
X42915Y-25813D01*
X42766Y-25751D01*
X42604Y-25751D01*
X42455Y-25812D01*
X42420Y-25847D01*
X42420Y-25467D01*
X42454Y-25501D01*
X42603Y-25563D01*
X42765Y-25563D01*
X42914Y-25502D01*
X43029Y-25387D01*
X43091Y-25238D01*
X43091Y-25077D01*
X43029Y-24927D01*
X42915Y-24813D01*
X42766Y-24751D01*
X42604Y-24751D01*
X42455Y-24812D01*
X42420Y-24847D01*
X42420Y-24629D01*
X42520Y-24529D01*
X42603Y-24563D01*
X42765Y-24563D01*
X42914Y-24502D01*
X43029Y-24387D01*
X43091Y-24238D01*
X43091Y-24077D01*
X43029Y-23927D01*
X42964Y-23862D01*
X42964Y-23456D01*
X42685Y-23176D01*
X42665Y-23196D01*
X42665Y-23157D01*
X42386Y-22878D01*
X42319Y-22908D01*
X42251Y-23067D01*
X42250Y-23240D01*
X42315Y-23400D01*
X42319Y-23406D01*
X42386Y-23436D01*
X42665Y-23157D01*
X42665Y-23196D01*
X42405Y-23456D01*
X42436Y-23523D01*
X42595Y-23590D01*
X42767Y-23592D01*
X42927Y-23527D01*
X42933Y-23523D01*
X42964Y-23456D01*
X42964Y-23862D01*
X42915Y-23813D01*
X42766Y-23751D01*
X42604Y-23751D01*
X42455Y-23812D01*
X42340Y-23927D01*
X42278Y-24076D01*
X42278Y-24237D01*
X42313Y-24322D01*
X42170Y-24465D01*
X42138Y-24512D01*
X42127Y-24568D01*
X42127Y-25393D01*
X42119Y-25385D01*
X42119Y-23074D01*
X42054Y-22914D01*
X42050Y-22908D01*
X41983Y-22878D01*
X41964Y-22897D01*
X41964Y-22858D01*
X41933Y-22791D01*
X41774Y-22724D01*
X41602Y-22722D01*
X41442Y-22787D01*
X41436Y-22791D01*
X41405Y-22858D01*
X41685Y-23137D01*
X41964Y-22858D01*
X41964Y-22897D01*
X41704Y-23157D01*
X41983Y-23436D01*
X42050Y-23406D01*
X42118Y-23247D01*
X42119Y-23074D01*
X42119Y-25385D01*
X42056Y-25322D01*
X42091Y-25238D01*
X42091Y-25077D01*
X42091Y-24077D01*
X42029Y-23927D01*
X41964Y-23862D01*
X41964Y-23456D01*
X41685Y-23176D01*
X41665Y-23196D01*
X41665Y-23157D01*
X41386Y-22878D01*
X41319Y-22908D01*
X41251Y-23067D01*
X41250Y-23240D01*
X41315Y-23400D01*
X41319Y-23406D01*
X41386Y-23436D01*
X41665Y-23157D01*
X41665Y-23196D01*
X41405Y-23456D01*
X41436Y-23523D01*
X41595Y-23590D01*
X41767Y-23592D01*
X41927Y-23527D01*
X41933Y-23523D01*
X41964Y-23456D01*
X41964Y-23862D01*
X41915Y-23813D01*
X41766Y-23751D01*
X41604Y-23751D01*
X41455Y-23812D01*
X41340Y-23927D01*
X41278Y-24076D01*
X41278Y-24237D01*
X41340Y-24387D01*
X41454Y-24501D01*
X41603Y-24563D01*
X41765Y-24563D01*
X41914Y-24502D01*
X42029Y-24387D01*
X42091Y-24238D01*
X42091Y-24077D01*
X42091Y-25077D01*
X42029Y-24927D01*
X41915Y-24813D01*
X41766Y-24751D01*
X41604Y-24751D01*
X41455Y-24812D01*
X41340Y-24927D01*
X41278Y-25076D01*
X41278Y-25237D01*
X41340Y-25387D01*
X41454Y-25501D01*
X41603Y-25563D01*
X41765Y-25563D01*
X41849Y-25529D01*
X41957Y-25637D01*
X41957Y-25855D01*
X41915Y-25813D01*
X41766Y-25751D01*
X41604Y-25751D01*
X41455Y-25812D01*
X41340Y-25927D01*
X41278Y-26076D01*
X41278Y-26237D01*
X41313Y-26322D01*
X41065Y-26570D01*
X41033Y-26617D01*
X41022Y-26673D01*
X41022Y-28586D01*
X40996Y-28524D01*
X40890Y-28417D01*
X40890Y-27135D01*
X40890Y-27030D01*
X40890Y-26936D01*
X40890Y-26831D01*
X40869Y-26782D01*
X40832Y-26744D01*
X40783Y-26724D01*
X40729Y-26724D01*
X40578Y-26724D01*
X40545Y-26758D01*
X40545Y-26969D01*
X40856Y-26969D01*
X40890Y-26936D01*
X40890Y-27030D01*
X40856Y-26997D01*
X40545Y-26997D01*
X40545Y-27208D01*
X40578Y-27242D01*
X40729Y-27242D01*
X40783Y-27242D01*
X40832Y-27221D01*
X40869Y-27184D01*
X40890Y-27135D01*
X40890Y-28417D01*
X40889Y-28417D01*
X40749Y-28358D01*
X40677Y-28358D01*
X40677Y-27814D01*
X40777Y-27814D01*
X40816Y-27798D01*
X40846Y-27768D01*
X40862Y-27729D01*
X40862Y-27687D01*
X40862Y-27437D01*
X40846Y-27398D01*
X40816Y-27368D01*
X40777Y-27352D01*
X40735Y-27352D01*
X40517Y-27352D01*
X40517Y-27208D01*
X40517Y-26997D01*
X40517Y-26969D01*
X40517Y-26758D01*
X40484Y-26724D01*
X40333Y-26724D01*
X40279Y-26724D01*
X40230Y-26744D01*
X40193Y-26782D01*
X40172Y-26831D01*
X40172Y-26936D01*
X40206Y-26969D01*
X40517Y-26969D01*
X40517Y-26997D01*
X40206Y-26997D01*
X40172Y-27030D01*
X40172Y-27135D01*
X40193Y-27184D01*
X40230Y-27221D01*
X40279Y-27242D01*
X40333Y-27242D01*
X40484Y-27242D01*
X40517Y-27208D01*
X40517Y-27352D01*
X40285Y-27352D01*
X40246Y-27368D01*
X40216Y-27398D01*
X40200Y-27437D01*
X40200Y-27479D01*
X40200Y-27729D01*
X40216Y-27768D01*
X40246Y-27798D01*
X40285Y-27814D01*
X40327Y-27814D01*
X40385Y-27814D01*
X40385Y-28488D01*
X40350Y-28523D01*
X40291Y-28663D01*
X40291Y-28815D01*
X40349Y-28955D01*
X40456Y-29063D01*
X40597Y-29121D01*
X40748Y-29121D01*
X40888Y-29063D01*
X40996Y-28956D01*
X41022Y-28893D01*
X41022Y-33184D01*
X41009Y-33197D01*
X41009Y-30196D01*
X41009Y-29685D01*
X40683Y-29685D01*
X40683Y-30196D01*
X41009Y-30196D01*
X41009Y-33197D01*
X40508Y-33698D01*
X40508Y-33261D01*
X40508Y-33202D01*
X40508Y-33175D01*
X40508Y-33116D01*
X40508Y-30269D01*
X40508Y-30210D01*
X40508Y-30183D01*
X40508Y-30124D01*
X40480Y-30013D01*
X40412Y-29922D01*
X40315Y-29863D01*
X40275Y-29852D01*
X40230Y-29880D01*
X40230Y-30183D01*
X40508Y-30183D01*
X40508Y-30210D01*
X40230Y-30210D01*
X40230Y-30513D01*
X40275Y-30541D01*
X40315Y-30530D01*
X40412Y-30471D01*
X40480Y-30380D01*
X40508Y-30269D01*
X40508Y-33116D01*
X40480Y-33005D01*
X40412Y-32914D01*
X40315Y-32855D01*
X40275Y-32844D01*
X40230Y-32872D01*
X40230Y-33175D01*
X40508Y-33175D01*
X40508Y-33202D01*
X40230Y-33202D01*
X40230Y-33505D01*
X40275Y-33533D01*
X40315Y-33522D01*
X40412Y-33463D01*
X40480Y-33372D01*
X40508Y-33261D01*
X40508Y-33698D01*
X39818Y-34388D01*
X39749Y-34359D01*
X39597Y-34359D01*
X39457Y-34417D01*
X39350Y-34524D01*
X39339Y-34551D01*
X39339Y-33511D01*
X39371Y-33511D01*
X39410Y-33495D01*
X39440Y-33465D01*
X39456Y-33426D01*
X39456Y-33384D01*
X39456Y-33332D01*
X39461Y-33355D01*
X39518Y-33440D01*
X39603Y-33498D01*
X39704Y-33518D01*
X39805Y-33498D01*
X39891Y-33440D01*
X39948Y-33355D01*
X39948Y-33354D01*
X39952Y-33372D01*
X40020Y-33463D01*
X40117Y-33522D01*
X40157Y-33533D01*
X40202Y-33505D01*
X40202Y-33202D01*
X40195Y-33202D01*
X40195Y-33175D01*
X40202Y-33175D01*
X40202Y-32872D01*
X40157Y-32844D01*
X40117Y-32855D01*
X40020Y-32914D01*
X39952Y-33005D01*
X39948Y-33023D01*
X39948Y-33022D01*
X39891Y-32937D01*
X39851Y-32910D01*
X39851Y-30475D01*
X39891Y-30448D01*
X39948Y-30363D01*
X39948Y-30362D01*
X39952Y-30380D01*
X40020Y-30471D01*
X40117Y-30530D01*
X40157Y-30541D01*
X40202Y-30513D01*
X40202Y-30210D01*
X40195Y-30210D01*
X40195Y-30183D01*
X40202Y-30183D01*
X40202Y-29880D01*
X40157Y-29852D01*
X40117Y-29863D01*
X40020Y-29922D01*
X39952Y-30013D01*
X39948Y-30030D01*
X39948Y-30030D01*
X39891Y-29944D01*
X39805Y-29887D01*
X39704Y-29867D01*
X39603Y-29887D01*
X39518Y-29944D01*
X39461Y-30030D01*
X39456Y-30053D01*
X39456Y-29959D01*
X39440Y-29920D01*
X39410Y-29890D01*
X39371Y-29874D01*
X39339Y-29874D01*
X39339Y-29281D01*
X39527Y-29092D01*
X39597Y-29121D01*
X39748Y-29121D01*
X39888Y-29063D01*
X39996Y-28956D01*
X40054Y-28816D01*
X40054Y-28664D01*
X39996Y-28524D01*
X39889Y-28417D01*
X39811Y-28384D01*
X39811Y-27799D01*
X39843Y-27786D01*
X39873Y-27756D01*
X39889Y-27717D01*
X39889Y-27675D01*
X39889Y-27518D01*
X39873Y-27479D01*
X39852Y-27458D01*
X39859Y-27455D01*
X39896Y-27418D01*
X39917Y-27369D01*
X39917Y-27311D01*
X39917Y-27216D01*
X39917Y-27158D01*
X39896Y-27109D01*
X39859Y-27071D01*
X39850Y-27068D01*
X39850Y-23500D01*
X39850Y-23073D01*
X39812Y-22882D01*
X39703Y-22720D01*
X39541Y-22611D01*
X39350Y-22573D01*
X39159Y-22611D01*
X38997Y-22720D01*
X38888Y-22882D01*
X38850Y-23073D01*
X38850Y-23500D01*
X38888Y-23692D01*
X38997Y-23854D01*
X39159Y-23962D01*
X39350Y-24000D01*
X39541Y-23962D01*
X39703Y-23854D01*
X39812Y-23692D01*
X39850Y-23500D01*
X39850Y-27068D01*
X39809Y-27051D01*
X39756Y-27051D01*
X39712Y-27051D01*
X39679Y-27085D01*
X39679Y-27250D01*
X39883Y-27250D01*
X39917Y-27216D01*
X39917Y-27311D01*
X39883Y-27277D01*
X39679Y-27277D01*
X39679Y-27285D01*
X39651Y-27285D01*
X39651Y-27277D01*
X39651Y-27250D01*
X39651Y-27085D01*
X39618Y-27051D01*
X39573Y-27051D01*
X39520Y-27051D01*
X39471Y-27071D01*
X39433Y-27109D01*
X39413Y-27158D01*
X39413Y-27216D01*
X39446Y-27250D01*
X39651Y-27250D01*
X39651Y-27277D01*
X39446Y-27277D01*
X39413Y-27311D01*
X39413Y-27369D01*
X39433Y-27418D01*
X39471Y-27455D01*
X39477Y-27458D01*
X39457Y-27479D01*
X39441Y-27518D01*
X39441Y-27560D01*
X39441Y-27717D01*
X39457Y-27756D01*
X39487Y-27786D01*
X39519Y-27799D01*
X39519Y-28391D01*
X39457Y-28416D01*
X39350Y-28523D01*
X39291Y-28663D01*
X39291Y-28815D01*
X39320Y-28885D01*
X39089Y-29117D01*
X39057Y-29164D01*
X39054Y-29179D01*
X39054Y-28664D01*
X38996Y-28524D01*
X38889Y-28417D01*
X38749Y-28358D01*
X38597Y-28358D01*
X38457Y-28416D01*
X38350Y-28523D01*
X38291Y-28663D01*
X38291Y-28815D01*
X38320Y-28885D01*
X38054Y-29151D01*
X38054Y-28664D01*
X37996Y-28524D01*
X37909Y-28437D01*
X37909Y-23501D01*
X37909Y-23301D01*
X37909Y-23273D01*
X37909Y-23073D01*
X37864Y-22872D01*
X37745Y-22704D01*
X37571Y-22594D01*
X37478Y-22568D01*
X37396Y-22593D01*
X37396Y-23273D01*
X37909Y-23273D01*
X37909Y-23301D01*
X37396Y-23301D01*
X37396Y-23980D01*
X37478Y-24005D01*
X37571Y-23979D01*
X37745Y-23869D01*
X37864Y-23701D01*
X37909Y-23501D01*
X37909Y-28437D01*
X37889Y-28417D01*
X37749Y-28358D01*
X37597Y-28358D01*
X37457Y-28416D01*
X37368Y-28505D01*
X37368Y-23980D01*
X37368Y-23301D01*
X37368Y-23273D01*
X37368Y-22593D01*
X37286Y-22568D01*
X37193Y-22594D01*
X37019Y-22704D01*
X36900Y-22872D01*
X36855Y-23073D01*
X36855Y-23273D01*
X37368Y-23273D01*
X37368Y-23301D01*
X36855Y-23301D01*
X36855Y-23501D01*
X36900Y-23701D01*
X37019Y-23869D01*
X37193Y-23979D01*
X37286Y-24005D01*
X37368Y-23980D01*
X37368Y-28505D01*
X37350Y-28523D01*
X37291Y-28663D01*
X37291Y-28815D01*
X37349Y-28955D01*
X37456Y-29063D01*
X37597Y-29121D01*
X37748Y-29121D01*
X37888Y-29063D01*
X37996Y-28956D01*
X38054Y-28816D01*
X38054Y-28664D01*
X38054Y-29151D01*
X37054Y-30151D01*
X37054Y-28664D01*
X36996Y-28524D01*
X36889Y-28417D01*
X36819Y-28388D01*
X36819Y-24044D01*
X36808Y-23988D01*
X36808Y-23988D01*
X36776Y-23941D01*
X36020Y-23184D01*
X35972Y-23153D01*
X35916Y-23141D01*
X35912Y-23141D01*
X35912Y-23074D01*
X35874Y-22883D01*
X35765Y-22721D01*
X35603Y-22612D01*
X35412Y-22574D01*
X35221Y-22612D01*
X35058Y-22721D01*
X34950Y-22883D01*
X34912Y-23074D01*
X34912Y-23501D01*
X34950Y-23693D01*
X35058Y-23855D01*
X35221Y-23963D01*
X35412Y-24001D01*
X35603Y-23963D01*
X35765Y-23855D01*
X35874Y-23693D01*
X35912Y-23501D01*
X35912Y-23490D01*
X36526Y-24105D01*
X36526Y-28388D01*
X36457Y-28416D01*
X36350Y-28523D01*
X36291Y-28663D01*
X36291Y-28815D01*
X36349Y-28955D01*
X36456Y-29063D01*
X36597Y-29121D01*
X36748Y-29121D01*
X36888Y-29063D01*
X36996Y-28956D01*
X37054Y-28816D01*
X37054Y-28664D01*
X37054Y-30151D01*
X36549Y-30656D01*
X36549Y-30554D01*
X36549Y-30511D01*
X36549Y-29831D01*
X36533Y-29792D01*
X36503Y-29762D01*
X36464Y-29746D01*
X36422Y-29746D01*
X36054Y-29746D01*
X36054Y-28664D01*
X35996Y-28524D01*
X35889Y-28417D01*
X35749Y-28358D01*
X35597Y-28358D01*
X35457Y-28416D01*
X35350Y-28523D01*
X35291Y-28663D01*
X35291Y-28815D01*
X35349Y-28955D01*
X35456Y-29063D01*
X35597Y-29121D01*
X35748Y-29121D01*
X35888Y-29063D01*
X35996Y-28956D01*
X36054Y-28816D01*
X36054Y-28664D01*
X36054Y-29746D01*
X35622Y-29746D01*
X35583Y-29762D01*
X35553Y-29792D01*
X35537Y-29831D01*
X35537Y-29874D01*
X35537Y-30554D01*
X35553Y-30593D01*
X35583Y-30623D01*
X35622Y-30639D01*
X35664Y-30639D01*
X36464Y-30639D01*
X36503Y-30623D01*
X36533Y-30593D01*
X36549Y-30554D01*
X36549Y-30656D01*
X36450Y-30755D01*
X36419Y-30803D01*
X36407Y-30859D01*
X36407Y-30863D01*
X36284Y-30780D01*
X36113Y-30746D01*
X35973Y-30746D01*
X35802Y-30780D01*
X35657Y-30877D01*
X35561Y-31022D01*
X35527Y-31192D01*
X35561Y-31363D01*
X35657Y-31508D01*
X35802Y-31605D01*
X35973Y-31639D01*
X36113Y-31639D01*
X36284Y-31605D01*
X36428Y-31508D01*
X36525Y-31363D01*
X36530Y-31339D01*
X36554Y-31339D01*
X36610Y-31328D01*
X36657Y-31296D01*
X36689Y-31248D01*
X36700Y-31192D01*
X36700Y-30919D01*
X38527Y-29092D01*
X38597Y-29121D01*
X38748Y-29121D01*
X38888Y-29063D01*
X38996Y-28956D01*
X39054Y-28816D01*
X39054Y-28664D01*
X39054Y-29179D01*
X39046Y-29220D01*
X39046Y-29874D01*
X39014Y-29874D01*
X38975Y-29890D01*
X38945Y-29920D01*
X38928Y-29959D01*
X38928Y-30001D01*
X38928Y-30434D01*
X38945Y-30473D01*
X38975Y-30503D01*
X39014Y-30519D01*
X39046Y-30519D01*
X39046Y-32866D01*
X39014Y-32866D01*
X38975Y-32882D01*
X38945Y-32912D01*
X38928Y-32951D01*
X38928Y-32993D01*
X38928Y-33426D01*
X38945Y-33465D01*
X38975Y-33495D01*
X39014Y-33511D01*
X39046Y-33511D01*
X39046Y-34645D01*
X38996Y-34524D01*
X38889Y-34417D01*
X38749Y-34359D01*
X38597Y-34359D01*
X38457Y-34417D01*
X38350Y-34524D01*
X38291Y-34664D01*
X38291Y-34816D01*
X38349Y-34956D01*
X38456Y-35063D01*
X38597Y-35121D01*
X38748Y-35122D01*
X38888Y-35064D01*
X38996Y-34956D01*
X39046Y-34836D01*
X39046Y-35531D01*
X39057Y-35587D01*
X39089Y-35634D01*
X40395Y-36941D01*
X40372Y-36941D01*
X40333Y-36957D01*
X40303Y-36987D01*
X40290Y-37019D01*
X40078Y-37019D01*
X40078Y-36919D01*
X40062Y-36880D01*
X40032Y-36850D01*
X39993Y-36834D01*
X39951Y-36834D01*
X39701Y-36834D01*
X39662Y-36850D01*
X39632Y-36880D01*
X39615Y-36919D01*
X39615Y-36961D01*
X39615Y-37411D01*
X39632Y-37450D01*
X39662Y-37480D01*
X39701Y-37496D01*
X39743Y-37496D01*
X39993Y-37496D01*
X40032Y-37480D01*
X40062Y-37450D01*
X40078Y-37411D01*
X40078Y-37369D01*
X40078Y-37311D01*
X40290Y-37311D01*
X40303Y-37343D01*
X40333Y-37373D01*
X40372Y-37389D01*
X40415Y-37389D01*
X40572Y-37389D01*
X40611Y-37373D01*
X40641Y-37343D01*
X40649Y-37323D01*
X40657Y-37343D01*
X40680Y-37365D01*
X40680Y-39051D01*
X40657Y-39073D01*
X40649Y-39093D01*
X40641Y-39073D01*
X40611Y-39043D01*
X40572Y-39027D01*
X40529Y-39027D01*
X40372Y-39027D01*
X40333Y-39043D01*
X40303Y-39073D01*
X40290Y-39105D01*
X40078Y-39105D01*
X40078Y-39005D01*
X40062Y-38966D01*
X40032Y-38936D01*
X39993Y-38920D01*
X39951Y-38920D01*
X39701Y-38920D01*
X39662Y-38936D01*
X39632Y-38966D01*
X39615Y-39005D01*
X39615Y-39048D01*
X39615Y-39441D01*
X39478Y-39441D01*
X39478Y-39005D01*
X39462Y-38966D01*
X39432Y-38936D01*
X39393Y-38920D01*
X39351Y-38920D01*
X39101Y-38920D01*
X39062Y-38936D01*
X39032Y-38966D01*
X39015Y-39005D01*
X39015Y-39048D01*
X39015Y-39049D01*
X37356Y-37390D01*
X37356Y-34963D01*
X37456Y-35063D01*
X37597Y-35121D01*
X37748Y-35122D01*
X37818Y-35093D01*
X39100Y-36375D01*
X39100Y-36834D01*
X39062Y-36850D01*
X39032Y-36880D01*
X39015Y-36919D01*
X39015Y-36961D01*
X39015Y-37411D01*
X39032Y-37450D01*
X39062Y-37480D01*
X39101Y-37496D01*
X39143Y-37496D01*
X39393Y-37496D01*
X39432Y-37480D01*
X39462Y-37450D01*
X39478Y-37411D01*
X39478Y-37369D01*
X39478Y-36919D01*
X39462Y-36880D01*
X39432Y-36850D01*
X39393Y-36834D01*
X39393Y-36314D01*
X39382Y-36258D01*
X39350Y-36211D01*
X38025Y-34886D01*
X38054Y-34816D01*
X38054Y-34665D01*
X37996Y-34524D01*
X37889Y-34417D01*
X37749Y-34359D01*
X37597Y-34359D01*
X37457Y-34417D01*
X37356Y-34517D01*
X37356Y-34510D01*
X37345Y-34454D01*
X37313Y-34406D01*
X36898Y-33991D01*
X36850Y-33959D01*
X36794Y-33948D01*
X36568Y-33948D01*
X36568Y-33280D01*
X36568Y-33105D01*
X36568Y-32280D01*
X36568Y-32105D01*
X36546Y-32024D01*
X36448Y-31867D01*
X36297Y-31760D01*
X36117Y-31719D01*
X36057Y-31719D01*
X36057Y-32179D01*
X36543Y-32179D01*
X36568Y-32105D01*
X36568Y-32280D01*
X36543Y-32206D01*
X36057Y-32206D01*
X36057Y-32666D01*
X36117Y-32666D01*
X36297Y-32625D01*
X36448Y-32518D01*
X36546Y-32361D01*
X36568Y-32280D01*
X36568Y-33105D01*
X36546Y-33024D01*
X36448Y-32867D01*
X36297Y-32760D01*
X36117Y-32719D01*
X36057Y-32719D01*
X36057Y-33179D01*
X36543Y-33179D01*
X36568Y-33105D01*
X36568Y-33280D01*
X36543Y-33206D01*
X36057Y-33206D01*
X36057Y-33666D01*
X36117Y-33666D01*
X36297Y-33625D01*
X36448Y-33518D01*
X36546Y-33361D01*
X36568Y-33280D01*
X36568Y-33948D01*
X36289Y-33948D01*
X36007Y-33666D01*
X36029Y-33666D01*
X36029Y-33206D01*
X36021Y-33206D01*
X36021Y-33179D01*
X36029Y-33179D01*
X36029Y-32719D01*
X36029Y-32666D01*
X36029Y-32206D01*
X36029Y-32179D01*
X36029Y-31719D01*
X35969Y-31719D01*
X35789Y-31760D01*
X35638Y-31867D01*
X35540Y-32024D01*
X35517Y-32105D01*
X35543Y-32179D01*
X36029Y-32179D01*
X36029Y-32206D01*
X35543Y-32206D01*
X35517Y-32280D01*
X35540Y-32361D01*
X35638Y-32518D01*
X35789Y-32625D01*
X35969Y-32666D01*
X36029Y-32666D01*
X36029Y-32719D01*
X35969Y-32719D01*
X35789Y-32760D01*
X35638Y-32867D01*
X35540Y-33024D01*
X35517Y-33105D01*
X35543Y-33179D01*
X35519Y-33179D01*
X35467Y-33126D01*
X35467Y-30129D01*
X35455Y-30073D01*
X35455Y-30073D01*
X35424Y-30025D01*
X34464Y-29066D01*
X34597Y-29121D01*
X34748Y-29121D01*
X34888Y-29063D01*
X34996Y-28956D01*
X35054Y-28816D01*
X35054Y-28664D01*
X34996Y-28524D01*
X34889Y-28417D01*
X34749Y-28358D01*
X34597Y-28358D01*
X34527Y-28387D01*
X33971Y-27831D01*
X33971Y-23502D01*
X33971Y-23302D01*
X33971Y-23274D01*
X33971Y-23074D01*
X33926Y-22873D01*
X33807Y-22705D01*
X33633Y-22595D01*
X33540Y-22569D01*
X33458Y-22594D01*
X33458Y-23274D01*
X33971Y-23274D01*
X33971Y-23302D01*
X33458Y-23302D01*
X33458Y-23981D01*
X33540Y-24006D01*
X33633Y-23980D01*
X33807Y-23870D01*
X33926Y-23702D01*
X33971Y-23502D01*
X33971Y-27831D01*
X33430Y-27290D01*
X33430Y-23981D01*
X33430Y-23302D01*
X33430Y-23274D01*
X33430Y-22594D01*
X33348Y-22569D01*
X33255Y-22595D01*
X33081Y-22705D01*
X32962Y-22873D01*
X32916Y-23074D01*
X32916Y-23274D01*
X33430Y-23274D01*
X33430Y-23302D01*
X32916Y-23302D01*
X32916Y-23502D01*
X32962Y-23702D01*
X33081Y-23870D01*
X33255Y-23980D01*
X33348Y-24006D01*
X33430Y-23981D01*
X33430Y-27290D01*
X31622Y-25482D01*
X31622Y-23971D01*
X31667Y-23962D01*
X31829Y-23854D01*
X31938Y-23692D01*
X31976Y-23500D01*
X31976Y-23073D01*
X31938Y-22882D01*
X31829Y-22720D01*
X31667Y-22611D01*
X31476Y-22573D01*
X31285Y-22611D01*
X31123Y-22720D01*
X31014Y-22882D01*
X30976Y-23073D01*
X30976Y-23500D01*
X31014Y-23692D01*
X31123Y-23854D01*
X31285Y-23962D01*
X31330Y-23971D01*
X31330Y-25543D01*
X31341Y-25599D01*
X31373Y-25646D01*
X34320Y-28594D01*
X34308Y-28623D01*
X34308Y-28622D01*
X34276Y-28574D01*
X33946Y-28245D01*
X33899Y-28213D01*
X33843Y-28202D01*
X32064Y-28202D01*
X32008Y-28213D01*
X31961Y-28245D01*
X31818Y-28387D01*
X31749Y-28358D01*
X31597Y-28358D01*
X31457Y-28416D01*
X31350Y-28523D01*
X31291Y-28663D01*
X31291Y-28815D01*
X31349Y-28955D01*
X31456Y-29063D01*
X31597Y-29121D01*
X31748Y-29121D01*
X31888Y-29063D01*
X31996Y-28956D01*
X32054Y-28816D01*
X32054Y-28664D01*
X32025Y-28594D01*
X32125Y-28494D01*
X32379Y-28494D01*
X32350Y-28523D01*
X32291Y-28663D01*
X32291Y-28815D01*
X32307Y-28853D01*
X31171Y-29989D01*
X31139Y-30037D01*
X31128Y-30093D01*
X31128Y-32975D01*
X31054Y-32902D01*
X31054Y-28664D01*
X30996Y-28524D01*
X30889Y-28417D01*
X30749Y-28358D01*
X30597Y-28358D01*
X30457Y-28416D01*
X30350Y-28523D01*
X30291Y-28663D01*
X30291Y-28815D01*
X30349Y-28955D01*
X30456Y-29063D01*
X30597Y-29121D01*
X30748Y-29121D01*
X30888Y-29063D01*
X30996Y-28956D01*
X31054Y-28816D01*
X31054Y-28664D01*
X31054Y-32902D01*
X30054Y-31902D01*
X30054Y-28664D01*
X30035Y-28619D01*
X30035Y-23501D01*
X30035Y-23301D01*
X30035Y-23273D01*
X30035Y-23073D01*
X29990Y-22872D01*
X29871Y-22704D01*
X29697Y-22594D01*
X29604Y-22568D01*
X29522Y-22593D01*
X29522Y-23273D01*
X30035Y-23273D01*
X30035Y-23301D01*
X29522Y-23301D01*
X29522Y-23980D01*
X29604Y-24005D01*
X29697Y-23979D01*
X29871Y-23869D01*
X29990Y-23701D01*
X30035Y-23501D01*
X30035Y-28619D01*
X29996Y-28524D01*
X29889Y-28417D01*
X29749Y-28358D01*
X29597Y-28358D01*
X29494Y-28401D01*
X29494Y-23980D01*
X29494Y-23301D01*
X29494Y-23273D01*
X29494Y-22593D01*
X29412Y-22568D01*
X29319Y-22594D01*
X29145Y-22704D01*
X29026Y-22872D01*
X28981Y-23073D01*
X28981Y-23273D01*
X29494Y-23273D01*
X29494Y-23301D01*
X28981Y-23301D01*
X28981Y-23501D01*
X29026Y-23701D01*
X29145Y-23869D01*
X29319Y-23979D01*
X29412Y-24005D01*
X29494Y-23980D01*
X29494Y-28401D01*
X29457Y-28416D01*
X29350Y-28523D01*
X29291Y-28663D01*
X29291Y-28815D01*
X29349Y-28955D01*
X29456Y-29063D01*
X29597Y-29121D01*
X29748Y-29121D01*
X29888Y-29063D01*
X29996Y-28956D01*
X30054Y-28816D01*
X30054Y-28664D01*
X30054Y-31902D01*
X29249Y-31097D01*
X29202Y-31065D01*
X29146Y-31054D01*
X29141Y-31054D01*
X29141Y-30513D01*
X29141Y-30471D01*
X29141Y-29920D01*
X29125Y-29881D01*
X29095Y-29851D01*
X29082Y-29845D01*
X29082Y-28661D01*
X29021Y-28510D01*
X29018Y-28506D01*
X28953Y-28478D01*
X28934Y-28498D01*
X28934Y-28459D01*
X28910Y-28403D01*
X28910Y-26768D01*
X28846Y-26612D01*
X28843Y-26606D01*
X28777Y-26577D01*
X28757Y-26596D01*
X28757Y-26557D01*
X28728Y-26491D01*
X28572Y-26425D01*
X28403Y-26424D01*
X28246Y-26487D01*
X28240Y-26491D01*
X28211Y-26557D01*
X28484Y-26830D01*
X28757Y-26557D01*
X28757Y-26596D01*
X28504Y-26850D01*
X28777Y-27123D01*
X28843Y-27094D01*
X28909Y-26938D01*
X28910Y-26768D01*
X28910Y-28403D01*
X28906Y-28394D01*
X28757Y-28332D01*
X28757Y-27142D01*
X28484Y-26869D01*
X28211Y-27142D01*
X28240Y-27209D01*
X28396Y-27275D01*
X28565Y-27276D01*
X28722Y-27212D01*
X28728Y-27209D01*
X28757Y-27142D01*
X28757Y-28332D01*
X28757Y-28331D01*
X28594Y-28330D01*
X28443Y-28392D01*
X28439Y-28394D01*
X28412Y-28459D01*
X28673Y-28720D01*
X28934Y-28459D01*
X28934Y-28498D01*
X28692Y-28740D01*
X28953Y-29001D01*
X29018Y-28973D01*
X29081Y-28824D01*
X29082Y-28661D01*
X29082Y-29845D01*
X29056Y-29835D01*
X29014Y-29835D01*
X28934Y-29835D01*
X28934Y-29020D01*
X28673Y-28759D01*
X28653Y-28779D01*
X28653Y-28740D01*
X28392Y-28478D01*
X28328Y-28506D01*
X28264Y-28656D01*
X28263Y-28818D01*
X28325Y-28969D01*
X28328Y-28973D01*
X28392Y-29001D01*
X28653Y-28740D01*
X28653Y-28779D01*
X28412Y-29020D01*
X28439Y-29085D01*
X28589Y-29148D01*
X28752Y-29149D01*
X28902Y-29088D01*
X28906Y-29085D01*
X28934Y-29020D01*
X28934Y-29835D01*
X28204Y-29835D01*
X28204Y-29125D01*
X28193Y-29069D01*
X28193Y-29069D01*
X28161Y-29021D01*
X28025Y-28885D01*
X28054Y-28816D01*
X28054Y-28664D01*
X27996Y-28524D01*
X27889Y-28417D01*
X27842Y-28397D01*
X27842Y-27220D01*
X27921Y-27187D01*
X28033Y-27076D01*
X28075Y-26974D01*
X28122Y-27088D01*
X28125Y-27094D01*
X28191Y-27123D01*
X28465Y-26850D01*
X28191Y-26577D01*
X28125Y-26606D01*
X28075Y-26725D01*
X28033Y-26625D01*
X27922Y-26513D01*
X27776Y-26452D01*
X27617Y-26452D01*
X27527Y-26489D01*
X27527Y-21420D01*
X27439Y-21207D01*
X27277Y-21045D01*
X27064Y-20956D01*
X26834Y-20956D01*
X26621Y-21044D01*
X26458Y-21207D01*
X26370Y-21419D01*
X26369Y-21650D01*
X26457Y-21862D01*
X26620Y-22025D01*
X26833Y-22114D01*
X27063Y-22114D01*
X27276Y-22026D01*
X27439Y-21863D01*
X27527Y-21651D01*
X27527Y-21420D01*
X27527Y-26489D01*
X27471Y-26512D01*
X27359Y-26624D01*
X27298Y-26770D01*
X27298Y-26929D01*
X27359Y-27075D01*
X27470Y-27187D01*
X27550Y-27220D01*
X27550Y-28378D01*
X27457Y-28416D01*
X27350Y-28523D01*
X27291Y-28663D01*
X27291Y-28815D01*
X27349Y-28955D01*
X27456Y-29063D01*
X27597Y-29121D01*
X27748Y-29121D01*
X27818Y-29092D01*
X27912Y-29185D01*
X27912Y-30216D01*
X27923Y-30272D01*
X27954Y-30320D01*
X28002Y-30352D01*
X28058Y-30363D01*
X28062Y-30363D01*
X28062Y-30513D01*
X28079Y-30552D01*
X28109Y-30582D01*
X28148Y-30598D01*
X28190Y-30598D01*
X29056Y-30598D01*
X29095Y-30582D01*
X29125Y-30552D01*
X29141Y-30513D01*
X29141Y-31054D01*
X29123Y-31054D01*
X29040Y-30930D01*
X28916Y-30848D01*
X28770Y-30819D01*
X28434Y-30819D01*
X28288Y-30848D01*
X28164Y-30930D01*
X28081Y-31054D01*
X28052Y-31200D01*
X28081Y-31347D01*
X28164Y-31470D01*
X28288Y-31553D01*
X28434Y-31582D01*
X28770Y-31582D01*
X28916Y-31553D01*
X29040Y-31470D01*
X29108Y-31369D01*
X30930Y-33192D01*
X30930Y-34451D01*
X30906Y-34395D01*
X30757Y-34332D01*
X30594Y-34331D01*
X30443Y-34392D01*
X30439Y-34395D01*
X30412Y-34459D01*
X30673Y-34721D01*
X30678Y-34715D01*
X30698Y-34735D01*
X30692Y-34740D01*
X30698Y-34746D01*
X30678Y-34765D01*
X30673Y-34760D01*
X30653Y-34779D01*
X30653Y-34740D01*
X30392Y-34479D01*
X30328Y-34506D01*
X30264Y-34656D01*
X30263Y-34819D01*
X30325Y-34970D01*
X30328Y-34974D01*
X30392Y-35001D01*
X30653Y-34740D01*
X30653Y-34779D01*
X30412Y-35021D01*
X30439Y-35085D01*
X30589Y-35148D01*
X30752Y-35150D01*
X30902Y-35088D01*
X30906Y-35085D01*
X30930Y-35029D01*
X30930Y-36794D01*
X30942Y-36850D01*
X30973Y-36897D01*
X31397Y-37321D01*
X30054Y-38663D01*
X30054Y-34665D01*
X29996Y-34524D01*
X29889Y-34417D01*
X29749Y-34359D01*
X29597Y-34359D01*
X29457Y-34417D01*
X29350Y-34524D01*
X29291Y-34664D01*
X29291Y-34816D01*
X29349Y-34956D01*
X29456Y-35063D01*
X29597Y-35121D01*
X29748Y-35122D01*
X29888Y-35064D01*
X29996Y-34956D01*
X30054Y-34816D01*
X30054Y-34665D01*
X30054Y-38663D01*
X29930Y-38787D01*
X29899Y-38834D01*
X29888Y-38890D01*
X29888Y-38920D01*
X29652Y-38920D01*
X29613Y-38936D01*
X29583Y-38966D01*
X29567Y-39005D01*
X29567Y-39048D01*
X29567Y-39498D01*
X29583Y-39537D01*
X29613Y-39567D01*
X29652Y-39583D01*
X29694Y-39583D01*
X29944Y-39583D01*
X29983Y-39567D01*
X30013Y-39537D01*
X30029Y-39498D01*
X30029Y-39455D01*
X30029Y-39398D01*
X30034Y-39398D01*
X30090Y-39387D01*
X30137Y-39355D01*
X30167Y-39311D01*
X30167Y-39498D01*
X30183Y-39537D01*
X30213Y-39567D01*
X30252Y-39583D01*
X30294Y-39583D01*
X30544Y-39583D01*
X30583Y-39567D01*
X30613Y-39537D01*
X30629Y-39498D01*
X30629Y-39455D01*
X30629Y-39454D01*
X31017Y-39842D01*
X31065Y-39874D01*
X31065Y-39874D01*
X31121Y-39885D01*
X35158Y-39885D01*
X35214Y-39874D01*
X35214Y-39874D01*
X35261Y-39842D01*
X35646Y-39457D01*
X35648Y-39460D01*
X35687Y-39476D01*
X35730Y-39476D01*
X35887Y-39476D01*
X35926Y-39460D01*
X35956Y-39430D01*
X35964Y-39409D01*
X35972Y-39430D01*
X36002Y-39460D01*
X36041Y-39476D01*
X36084Y-39476D01*
X36241Y-39476D01*
X36280Y-39460D01*
X36310Y-39430D01*
X36323Y-39398D01*
X36331Y-39398D01*
X36387Y-39387D01*
X36387Y-39387D01*
X36434Y-39355D01*
X37059Y-38730D01*
X38020Y-39691D01*
X38067Y-39723D01*
X38123Y-39734D01*
X40490Y-39734D01*
X40546Y-39723D01*
X40546Y-39723D01*
X40594Y-39691D01*
X40809Y-39476D01*
X40926Y-39476D01*
X40965Y-39460D01*
X40995Y-39430D01*
X41011Y-39391D01*
X41011Y-39348D01*
X41011Y-39112D01*
X40995Y-39073D01*
X40972Y-39051D01*
X40972Y-37365D01*
X40995Y-37343D01*
X41011Y-37304D01*
X41011Y-37262D01*
X41011Y-37026D01*
X40995Y-36987D01*
X40965Y-36957D01*
X40926Y-36941D01*
X40883Y-36941D01*
X40809Y-36941D01*
X39339Y-35470D01*
X39339Y-34930D01*
X39349Y-34956D01*
X39456Y-35063D01*
X39597Y-35121D01*
X39748Y-35122D01*
X39888Y-35064D01*
X39996Y-34956D01*
X40054Y-34816D01*
X40054Y-34665D01*
X40025Y-34595D01*
X41271Y-33348D01*
X41303Y-33301D01*
X41314Y-33245D01*
X41314Y-33245D01*
X41314Y-33245D01*
X41314Y-28871D01*
X41349Y-28955D01*
X41456Y-29063D01*
X41597Y-29121D01*
X41748Y-29121D01*
X41888Y-29063D01*
X41957Y-28994D01*
X41957Y-33249D01*
X40818Y-34388D01*
X40749Y-34359D01*
X40597Y-34359D01*
X40457Y-34417D01*
X40350Y-34524D01*
X40291Y-34664D01*
X40291Y-34816D01*
X40349Y-34956D01*
X40456Y-35063D01*
X40597Y-35121D01*
X40748Y-35122D01*
X40888Y-35064D01*
X40996Y-34956D01*
X41054Y-34816D01*
X41054Y-34665D01*
X41025Y-34595D01*
X42127Y-33493D01*
X42127Y-34079D01*
X41818Y-34388D01*
X41749Y-34359D01*
X41597Y-34359D01*
X41457Y-34417D01*
X41350Y-34524D01*
X41291Y-34664D01*
X41291Y-34816D01*
X41349Y-34956D01*
X41456Y-35063D01*
X41597Y-35121D01*
X41748Y-35122D01*
X41888Y-35064D01*
X41996Y-34956D01*
X42054Y-34816D01*
X42054Y-34665D01*
X42025Y-34595D01*
X42377Y-34243D01*
X42409Y-34195D01*
X42409Y-34195D01*
X42420Y-34139D01*
X42420Y-27563D01*
X43006Y-27563D01*
X43045Y-27547D01*
X43075Y-27517D01*
X43091Y-27478D01*
X43091Y-27436D01*
X43091Y-26836D01*
X43075Y-26797D01*
X43045Y-26767D01*
X43006Y-26751D01*
X42963Y-26751D01*
X42420Y-26751D01*
X42420Y-26467D01*
X42454Y-26501D01*
X42603Y-26563D01*
X42765Y-26563D01*
X42914Y-26502D01*
X43029Y-26387D01*
X43091Y-26238D01*
X43091Y-26077D01*
X43091Y-38827D01*
X43025Y-38761D01*
X42812Y-38673D01*
X42582Y-38673D01*
X42369Y-38761D01*
X42206Y-38923D01*
X42118Y-39136D01*
X42117Y-39366D01*
X42205Y-39579D01*
X42368Y-39742D01*
X42581Y-39830D01*
X42811Y-39830D01*
X43024Y-39742D01*
X43187Y-39580D01*
X43275Y-39367D01*
X43275Y-39137D01*
X43275Y-39850D01*
X43016Y-40023D01*
X42682Y-40090D01*
X29161Y-40090D01*
X29161Y-33246D01*
X29135Y-33182D01*
X28804Y-33182D01*
X28804Y-33155D01*
X29135Y-33155D01*
X29161Y-33091D01*
X29152Y-33056D01*
X29152Y-32184D01*
X29123Y-32038D01*
X29040Y-31914D01*
X28916Y-31832D01*
X28770Y-31803D01*
X28434Y-31803D01*
X28288Y-31832D01*
X28164Y-31914D01*
X28081Y-32038D01*
X28052Y-32184D01*
X28081Y-32331D01*
X28164Y-32454D01*
X28288Y-32537D01*
X28434Y-32566D01*
X28770Y-32566D01*
X28916Y-32537D01*
X29040Y-32454D01*
X29123Y-32331D01*
X29152Y-32184D01*
X29152Y-33056D01*
X29143Y-33024D01*
X29059Y-32889D01*
X28929Y-32795D01*
X28773Y-32759D01*
X28616Y-32759D01*
X28616Y-32835D01*
X28588Y-32835D01*
X28588Y-32759D01*
X28431Y-32759D01*
X28275Y-32795D01*
X28145Y-32889D01*
X28061Y-33024D01*
X28042Y-33091D01*
X28069Y-33155D01*
X28478Y-33155D01*
X28478Y-33182D01*
X28069Y-33182D01*
X28042Y-33246D01*
X28061Y-33312D01*
X28145Y-33448D01*
X28275Y-33541D01*
X28431Y-33578D01*
X28588Y-33578D01*
X28588Y-33346D01*
X28616Y-33346D01*
X28616Y-33578D01*
X28773Y-33578D01*
X28929Y-33541D01*
X29059Y-33448D01*
X29143Y-33312D01*
X29161Y-33246D01*
X29161Y-40090D01*
X29054Y-40090D01*
X29054Y-34665D01*
X28996Y-34524D01*
X28889Y-34417D01*
X28749Y-34359D01*
X28597Y-34359D01*
X28457Y-34417D01*
X28350Y-34524D01*
X28291Y-34664D01*
X28291Y-34816D01*
X28349Y-34956D01*
X28456Y-35063D01*
X28597Y-35121D01*
X28748Y-35122D01*
X28888Y-35064D01*
X28996Y-34956D01*
X29054Y-34816D01*
X29054Y-34665D01*
X29054Y-40090D01*
X29028Y-40090D01*
X29028Y-38083D01*
X29000Y-38013D01*
X29000Y-36085D01*
X28939Y-35938D01*
X28826Y-35825D01*
X28678Y-35763D01*
X28518Y-35763D01*
X28371Y-35824D01*
X28258Y-35937D01*
X28196Y-36085D01*
X28196Y-36244D01*
X28257Y-36392D01*
X28370Y-36505D01*
X28518Y-36566D01*
X28677Y-36566D01*
X28825Y-36505D01*
X28938Y-36393D01*
X28999Y-36245D01*
X29000Y-36085D01*
X29000Y-38013D01*
X28964Y-37925D01*
X28960Y-37919D01*
X28893Y-37889D01*
X28874Y-37909D01*
X28874Y-37870D01*
X28844Y-37803D01*
X28687Y-37736D01*
X28516Y-37735D01*
X28358Y-37799D01*
X28352Y-37803D01*
X28322Y-37870D01*
X28598Y-38145D01*
X28874Y-37870D01*
X28874Y-37909D01*
X28617Y-38165D01*
X28893Y-38441D01*
X28960Y-38411D01*
X29026Y-38254D01*
X29028Y-38083D01*
X29028Y-40090D01*
X28874Y-40090D01*
X28874Y-38460D01*
X28598Y-38184D01*
X28578Y-38204D01*
X28578Y-38165D01*
X28303Y-37889D01*
X28236Y-37919D01*
X28169Y-38076D01*
X28168Y-38247D01*
X28232Y-38405D01*
X28236Y-38411D01*
X28303Y-38441D01*
X28578Y-38165D01*
X28578Y-38204D01*
X28322Y-38460D01*
X28352Y-38527D01*
X28509Y-38593D01*
X28680Y-38595D01*
X28838Y-38531D01*
X28844Y-38527D01*
X28874Y-38460D01*
X28874Y-40090D01*
X28054Y-40090D01*
X28054Y-35036D01*
X28054Y-34994D01*
X28054Y-34444D01*
X28038Y-34405D01*
X28008Y-34375D01*
X27969Y-34359D01*
X27927Y-34359D01*
X27377Y-34359D01*
X27338Y-34375D01*
X27308Y-34405D01*
X27291Y-34444D01*
X27291Y-34486D01*
X27291Y-35036D01*
X27308Y-35075D01*
X27338Y-35105D01*
X27377Y-35121D01*
X27419Y-35121D01*
X27969Y-35121D01*
X28008Y-35105D01*
X28038Y-35075D01*
X28054Y-35036D01*
X28054Y-40090D01*
X27527Y-40090D01*
X27527Y-39137D01*
X27439Y-38924D01*
X27277Y-38761D01*
X27064Y-38673D01*
X26834Y-38673D01*
X26621Y-38761D01*
X26458Y-38923D01*
X26370Y-39136D01*
X26369Y-39366D01*
X26457Y-39579D01*
X26620Y-39742D01*
X26833Y-39830D01*
X27063Y-39830D01*
X27276Y-39742D01*
X27439Y-39580D01*
X27527Y-39367D01*
X27527Y-39137D01*
X27527Y-40090D01*
X26963Y-40090D01*
X26629Y-40023D01*
X26357Y-39842D01*
X26176Y-39571D01*
X26110Y-39237D01*
X26110Y-25642D01*
X26921Y-25642D01*
X26921Y-22861D01*
X26110Y-22861D01*
X26110Y-21549D01*
X26176Y-21215D01*
X26357Y-20944D01*
X26629Y-20763D01*
X26963Y-20696D01*
X42682Y-20696D01*
X43016Y-20763D01*
X43287Y-20944D01*
X43468Y-21215D01*
X43535Y-21549D01*
X43535Y-39237D01*
M02*
