%FSLAX34Y34*%
G04 Gerber Fmt 3.4, Leading zero omitted, Abs format*
G04 (created by PCBNEW (2014-03-19 BZR 4756)-product) date Thu 05 Jun 2014 00:35:02 BST*
%MOIN*%
G01*
G70*
G90*
G04 APERTURE LIST*
%ADD10C,0.005906*%
%ADD11C,0.007900*%
%ADD12C,0.015000*%
%ADD13C,0.007874*%
%ADD14C,0.010000*%
%ADD15C,0.003500*%
%ADD16C,0.003000*%
%ADD17C,0.004500*%
%ADD18C,0.012000*%
G04 APERTURE END LIST*
G54D10*
G54D11*
X25964Y-39251D02*
G75*
G03X26948Y-40236I984J0D01*
G74*
G01*
X42696Y-40236D02*
G75*
G03X43681Y-39251I0J984D01*
G74*
G01*
X43681Y-21535D02*
G75*
G03X42696Y-20551I-984J0D01*
G74*
G01*
X26948Y-20551D02*
G75*
G03X25964Y-21535I0J-984D01*
G74*
G01*
X25964Y-39251D02*
X25964Y-21535D01*
X42696Y-40236D02*
X26948Y-40236D01*
X42696Y-20551D02*
X26948Y-20551D01*
X43681Y-39251D02*
X43681Y-21535D01*
G54D12*
X29704Y-38503D02*
X30531Y-38503D01*
X29862Y-38503D02*
X30059Y-38307D01*
X30059Y-38307D02*
X30059Y-38661D01*
X30059Y-38661D02*
X29901Y-38503D01*
X29822Y-38307D02*
X29822Y-38740D01*
X29704Y-38503D02*
X29586Y-38503D01*
X34429Y-38503D02*
X34311Y-38503D01*
X34547Y-38307D02*
X34547Y-38740D01*
X34783Y-38661D02*
X34625Y-38503D01*
X34783Y-38307D02*
X34783Y-38661D01*
X34586Y-38503D02*
X34783Y-38307D01*
X34429Y-38503D02*
X35255Y-38503D01*
G54D13*
X40377Y-35969D02*
X40377Y-35654D01*
X40257Y-35654D01*
X40227Y-35669D01*
X40212Y-35684D01*
X40197Y-35714D01*
X40197Y-35759D01*
X40212Y-35789D01*
X40227Y-35804D01*
X40257Y-35819D01*
X40377Y-35819D01*
X39927Y-35759D02*
X39927Y-35969D01*
X40062Y-35759D02*
X40062Y-35924D01*
X40047Y-35954D01*
X40017Y-35969D01*
X39972Y-35969D01*
X39942Y-35954D01*
X39927Y-35939D01*
X39777Y-35969D02*
X39777Y-35759D01*
X39777Y-35789D02*
X39762Y-35774D01*
X39732Y-35759D01*
X39687Y-35759D01*
X39657Y-35774D01*
X39642Y-35804D01*
X39642Y-35969D01*
X39642Y-35804D02*
X39627Y-35774D01*
X39597Y-35759D01*
X39552Y-35759D01*
X39522Y-35774D01*
X39507Y-35804D01*
X39507Y-35969D01*
X39357Y-35759D02*
X39357Y-36074D01*
X39357Y-35774D02*
X39327Y-35759D01*
X39267Y-35759D01*
X39237Y-35774D01*
X39222Y-35789D01*
X39207Y-35819D01*
X39207Y-35909D01*
X39222Y-35939D01*
X39237Y-35954D01*
X39267Y-35969D01*
X39327Y-35969D01*
X39357Y-35954D01*
X40377Y-36488D02*
X40377Y-36173D01*
X40257Y-36173D01*
X40227Y-36188D01*
X40212Y-36203D01*
X40197Y-36233D01*
X40197Y-36278D01*
X40212Y-36308D01*
X40227Y-36323D01*
X40257Y-36338D01*
X40377Y-36338D01*
X40062Y-36368D02*
X39822Y-36368D01*
X39687Y-36473D02*
X39642Y-36488D01*
X39567Y-36488D01*
X39537Y-36473D01*
X39522Y-36458D01*
X39507Y-36428D01*
X39507Y-36398D01*
X39522Y-36368D01*
X39537Y-36353D01*
X39567Y-36338D01*
X39627Y-36323D01*
X39657Y-36308D01*
X39672Y-36293D01*
X39687Y-36263D01*
X39687Y-36233D01*
X39672Y-36203D01*
X39657Y-36188D01*
X39627Y-36173D01*
X39552Y-36173D01*
X39507Y-36188D01*
X39402Y-36173D02*
X39327Y-36488D01*
X39267Y-36263D01*
X39207Y-36488D01*
X39132Y-36173D01*
X40227Y-37008D02*
X40377Y-37008D01*
X40377Y-36693D01*
X40122Y-37008D02*
X40122Y-36798D01*
X40122Y-36693D02*
X40137Y-36708D01*
X40122Y-36723D01*
X40107Y-36708D01*
X40122Y-36693D01*
X40122Y-36723D01*
X39837Y-36798D02*
X39837Y-37053D01*
X39852Y-37083D01*
X39867Y-37098D01*
X39897Y-37113D01*
X39942Y-37113D01*
X39972Y-37098D01*
X39837Y-36993D02*
X39867Y-37008D01*
X39927Y-37008D01*
X39957Y-36993D01*
X39972Y-36978D01*
X39987Y-36948D01*
X39987Y-36858D01*
X39972Y-36828D01*
X39957Y-36813D01*
X39927Y-36798D01*
X39867Y-36798D01*
X39837Y-36813D01*
X39687Y-37008D02*
X39687Y-36693D01*
X39552Y-37008D02*
X39552Y-36843D01*
X39567Y-36813D01*
X39597Y-36798D01*
X39642Y-36798D01*
X39672Y-36813D01*
X39687Y-36828D01*
X39447Y-36798D02*
X39327Y-36798D01*
X39402Y-36693D02*
X39402Y-36963D01*
X39387Y-36993D01*
X39357Y-37008D01*
X39327Y-37008D01*
X40227Y-37528D02*
X40377Y-37528D01*
X40377Y-37213D01*
X40122Y-37408D02*
X39882Y-37408D01*
X39747Y-37513D02*
X39702Y-37528D01*
X39627Y-37528D01*
X39597Y-37513D01*
X39582Y-37498D01*
X39567Y-37468D01*
X39567Y-37438D01*
X39582Y-37408D01*
X39597Y-37393D01*
X39627Y-37378D01*
X39687Y-37363D01*
X39717Y-37348D01*
X39732Y-37333D01*
X39747Y-37303D01*
X39747Y-37273D01*
X39732Y-37243D01*
X39717Y-37228D01*
X39687Y-37213D01*
X39612Y-37213D01*
X39567Y-37228D01*
X39462Y-37213D02*
X39387Y-37528D01*
X39327Y-37303D01*
X39267Y-37528D01*
X39192Y-37213D01*
X40377Y-37883D02*
X40272Y-37883D01*
X40227Y-38047D02*
X40377Y-38047D01*
X40377Y-37733D01*
X40227Y-37733D01*
X40092Y-38047D02*
X40092Y-37838D01*
X40092Y-37898D02*
X40077Y-37868D01*
X40062Y-37853D01*
X40032Y-37838D01*
X40002Y-37838D01*
X39897Y-38047D02*
X39897Y-37838D01*
X39897Y-37898D02*
X39882Y-37868D01*
X39867Y-37853D01*
X39837Y-37838D01*
X39807Y-37838D01*
X39657Y-38047D02*
X39687Y-38032D01*
X39702Y-38017D01*
X39717Y-37988D01*
X39717Y-37898D01*
X39702Y-37868D01*
X39687Y-37853D01*
X39657Y-37838D01*
X39612Y-37838D01*
X39582Y-37853D01*
X39567Y-37868D01*
X39552Y-37898D01*
X39552Y-37988D01*
X39567Y-38017D01*
X39582Y-38032D01*
X39612Y-38047D01*
X39657Y-38047D01*
X39417Y-38047D02*
X39417Y-37838D01*
X39417Y-37898D02*
X39402Y-37868D01*
X39387Y-37853D01*
X39357Y-37838D01*
X39327Y-37838D01*
X40272Y-38402D02*
X40227Y-38417D01*
X40212Y-38432D01*
X40197Y-38462D01*
X40197Y-38507D01*
X40212Y-38537D01*
X40227Y-38552D01*
X40257Y-38567D01*
X40377Y-38567D01*
X40377Y-38252D01*
X40272Y-38252D01*
X40242Y-38267D01*
X40227Y-38282D01*
X40212Y-38312D01*
X40212Y-38342D01*
X40227Y-38372D01*
X40242Y-38387D01*
X40272Y-38402D01*
X40377Y-38402D01*
X40017Y-38567D02*
X40047Y-38552D01*
X40062Y-38522D01*
X40062Y-38252D01*
X39897Y-38567D02*
X39897Y-38357D01*
X39897Y-38252D02*
X39912Y-38267D01*
X39897Y-38282D01*
X39882Y-38267D01*
X39897Y-38252D01*
X39897Y-38282D01*
X39747Y-38357D02*
X39747Y-38567D01*
X39747Y-38387D02*
X39732Y-38372D01*
X39702Y-38357D01*
X39657Y-38357D01*
X39627Y-38372D01*
X39612Y-38402D01*
X39612Y-38567D01*
X39462Y-38567D02*
X39462Y-38252D01*
X39432Y-38447D02*
X39342Y-38567D01*
X39342Y-38357D02*
X39462Y-38477D01*
X38645Y-35969D02*
X38645Y-35654D01*
X38570Y-35654D01*
X38525Y-35669D01*
X38495Y-35699D01*
X38480Y-35729D01*
X38465Y-35789D01*
X38465Y-35834D01*
X38480Y-35894D01*
X38495Y-35924D01*
X38525Y-35954D01*
X38570Y-35969D01*
X38645Y-35969D01*
X38195Y-35654D02*
X38255Y-35654D01*
X38285Y-35669D01*
X38300Y-35684D01*
X38330Y-35729D01*
X38345Y-35789D01*
X38345Y-35909D01*
X38330Y-35939D01*
X38315Y-35954D01*
X38285Y-35969D01*
X38225Y-35969D01*
X38195Y-35954D01*
X38180Y-35939D01*
X38165Y-35909D01*
X38165Y-35834D01*
X38180Y-35804D01*
X38195Y-35789D01*
X38225Y-35774D01*
X38285Y-35774D01*
X38315Y-35789D01*
X38330Y-35804D01*
X38345Y-35834D01*
X38660Y-36398D02*
X38510Y-36398D01*
X38690Y-36488D02*
X38585Y-36173D01*
X38480Y-36488D01*
X38240Y-36173D02*
X38300Y-36173D01*
X38330Y-36188D01*
X38345Y-36203D01*
X38375Y-36248D01*
X38390Y-36308D01*
X38390Y-36428D01*
X38375Y-36458D01*
X38360Y-36473D01*
X38330Y-36488D01*
X38270Y-36488D01*
X38240Y-36473D01*
X38225Y-36458D01*
X38210Y-36428D01*
X38210Y-36353D01*
X38225Y-36323D01*
X38240Y-36308D01*
X38270Y-36293D01*
X38330Y-36293D01*
X38360Y-36308D01*
X38375Y-36323D01*
X38390Y-36353D01*
X38645Y-37008D02*
X38645Y-36693D01*
X38570Y-36693D01*
X38525Y-36708D01*
X38495Y-36738D01*
X38480Y-36768D01*
X38465Y-36828D01*
X38465Y-36873D01*
X38480Y-36933D01*
X38495Y-36963D01*
X38525Y-36993D01*
X38570Y-37008D01*
X38645Y-37008D01*
X38360Y-36693D02*
X38150Y-36693D01*
X38285Y-37008D01*
X38660Y-37438D02*
X38510Y-37438D01*
X38690Y-37528D02*
X38585Y-37213D01*
X38480Y-37528D01*
X38225Y-37213D02*
X38375Y-37213D01*
X38390Y-37363D01*
X38375Y-37348D01*
X38345Y-37333D01*
X38270Y-37333D01*
X38240Y-37348D01*
X38225Y-37363D01*
X38210Y-37393D01*
X38210Y-37468D01*
X38225Y-37498D01*
X38240Y-37513D01*
X38270Y-37528D01*
X38345Y-37528D01*
X38375Y-37513D01*
X38390Y-37498D01*
X38645Y-38047D02*
X38645Y-37733D01*
X38570Y-37733D01*
X38525Y-37748D01*
X38495Y-37778D01*
X38480Y-37808D01*
X38465Y-37868D01*
X38465Y-37913D01*
X38480Y-37973D01*
X38495Y-38002D01*
X38525Y-38032D01*
X38570Y-38047D01*
X38645Y-38047D01*
X38285Y-37868D02*
X38315Y-37853D01*
X38330Y-37838D01*
X38345Y-37808D01*
X38345Y-37793D01*
X38330Y-37763D01*
X38315Y-37748D01*
X38285Y-37733D01*
X38225Y-37733D01*
X38195Y-37748D01*
X38180Y-37763D01*
X38165Y-37793D01*
X38165Y-37808D01*
X38180Y-37838D01*
X38195Y-37853D01*
X38225Y-37868D01*
X38285Y-37868D01*
X38315Y-37883D01*
X38330Y-37898D01*
X38345Y-37928D01*
X38345Y-37988D01*
X38330Y-38017D01*
X38315Y-38032D01*
X38285Y-38047D01*
X38225Y-38047D01*
X38195Y-38032D01*
X38180Y-38017D01*
X38165Y-37988D01*
X38165Y-37928D01*
X38180Y-37898D01*
X38195Y-37883D01*
X38225Y-37868D01*
X38660Y-38477D02*
X38510Y-38477D01*
X38690Y-38567D02*
X38585Y-38252D01*
X38480Y-38567D01*
X38405Y-38252D02*
X38195Y-38252D01*
X38330Y-38567D01*
X41480Y-35992D02*
X41480Y-35677D01*
X41405Y-35677D01*
X41360Y-35692D01*
X41330Y-35722D01*
X41315Y-35752D01*
X41300Y-35812D01*
X41300Y-35857D01*
X41315Y-35917D01*
X41330Y-35947D01*
X41360Y-35977D01*
X41405Y-35992D01*
X41480Y-35992D01*
X41030Y-35782D02*
X41030Y-35992D01*
X41105Y-35662D02*
X41180Y-35887D01*
X40985Y-35887D01*
X41480Y-36512D02*
X41480Y-36197D01*
X41405Y-36197D01*
X41360Y-36212D01*
X41330Y-36242D01*
X41315Y-36272D01*
X41300Y-36332D01*
X41300Y-36377D01*
X41315Y-36437D01*
X41330Y-36467D01*
X41360Y-36497D01*
X41405Y-36512D01*
X41480Y-36512D01*
X41015Y-36197D02*
X41165Y-36197D01*
X41180Y-36347D01*
X41165Y-36332D01*
X41135Y-36317D01*
X41060Y-36317D01*
X41030Y-36332D01*
X41015Y-36347D01*
X41000Y-36377D01*
X41000Y-36452D01*
X41015Y-36482D01*
X41030Y-36497D01*
X41060Y-36512D01*
X41135Y-36512D01*
X41165Y-36497D01*
X41180Y-36482D01*
X41495Y-36942D02*
X41345Y-36942D01*
X41525Y-37032D02*
X41420Y-36717D01*
X41315Y-37032D01*
X41045Y-37032D02*
X41225Y-37032D01*
X41135Y-37032D02*
X41135Y-36717D01*
X41165Y-36762D01*
X41195Y-36792D01*
X41225Y-36807D01*
X41495Y-37461D02*
X41345Y-37461D01*
X41525Y-37551D02*
X41420Y-37236D01*
X41315Y-37551D01*
X41150Y-37236D02*
X41120Y-37236D01*
X41090Y-37251D01*
X41075Y-37266D01*
X41060Y-37296D01*
X41045Y-37356D01*
X41045Y-37431D01*
X41060Y-37491D01*
X41075Y-37521D01*
X41090Y-37536D01*
X41120Y-37551D01*
X41150Y-37551D01*
X41180Y-37536D01*
X41195Y-37521D01*
X41210Y-37491D01*
X41225Y-37431D01*
X41225Y-37356D01*
X41210Y-37296D01*
X41195Y-37266D01*
X41180Y-37251D01*
X41150Y-37236D01*
X41480Y-38071D02*
X41480Y-37756D01*
X41405Y-37756D01*
X41360Y-37771D01*
X41330Y-37801D01*
X41315Y-37831D01*
X41300Y-37891D01*
X41300Y-37936D01*
X41315Y-37996D01*
X41330Y-38026D01*
X41360Y-38056D01*
X41405Y-38071D01*
X41480Y-38071D01*
X41195Y-37756D02*
X41000Y-37756D01*
X41105Y-37876D01*
X41060Y-37876D01*
X41030Y-37891D01*
X41015Y-37906D01*
X41000Y-37936D01*
X41000Y-38011D01*
X41015Y-38041D01*
X41030Y-38056D01*
X41060Y-38071D01*
X41150Y-38071D01*
X41180Y-38056D01*
X41195Y-38041D01*
X42754Y-35977D02*
X42709Y-35992D01*
X42634Y-35992D01*
X42604Y-35977D01*
X42589Y-35962D01*
X42574Y-35932D01*
X42574Y-35902D01*
X42589Y-35872D01*
X42604Y-35857D01*
X42634Y-35842D01*
X42694Y-35827D01*
X42724Y-35812D01*
X42739Y-35797D01*
X42754Y-35767D01*
X42754Y-35737D01*
X42739Y-35707D01*
X42724Y-35692D01*
X42694Y-35677D01*
X42619Y-35677D01*
X42574Y-35692D01*
X42440Y-35992D02*
X42440Y-35677D01*
X42365Y-35677D01*
X42320Y-35692D01*
X42290Y-35722D01*
X42275Y-35752D01*
X42260Y-35812D01*
X42260Y-35857D01*
X42275Y-35917D01*
X42290Y-35947D01*
X42320Y-35977D01*
X42365Y-35992D01*
X42440Y-35992D01*
X42140Y-35902D02*
X41990Y-35902D01*
X42170Y-35992D02*
X42065Y-35677D01*
X41960Y-35992D01*
X42754Y-36497D02*
X42709Y-36512D01*
X42634Y-36512D01*
X42604Y-36497D01*
X42589Y-36482D01*
X42574Y-36452D01*
X42574Y-36422D01*
X42589Y-36392D01*
X42604Y-36377D01*
X42634Y-36362D01*
X42694Y-36347D01*
X42724Y-36332D01*
X42739Y-36317D01*
X42754Y-36287D01*
X42754Y-36257D01*
X42739Y-36227D01*
X42724Y-36212D01*
X42694Y-36197D01*
X42619Y-36197D01*
X42574Y-36212D01*
X42260Y-36482D02*
X42275Y-36497D01*
X42320Y-36512D01*
X42350Y-36512D01*
X42395Y-36497D01*
X42425Y-36467D01*
X42440Y-36437D01*
X42455Y-36377D01*
X42455Y-36332D01*
X42440Y-36272D01*
X42425Y-36242D01*
X42395Y-36212D01*
X42350Y-36197D01*
X42320Y-36197D01*
X42275Y-36212D01*
X42260Y-36227D01*
X41975Y-36512D02*
X42125Y-36512D01*
X42125Y-36197D01*
X42559Y-37032D02*
X42664Y-36882D01*
X42739Y-37032D02*
X42739Y-36717D01*
X42619Y-36717D01*
X42589Y-36732D01*
X42574Y-36747D01*
X42559Y-36777D01*
X42559Y-36822D01*
X42574Y-36852D01*
X42589Y-36867D01*
X42619Y-36882D01*
X42739Y-36882D01*
X42305Y-37017D02*
X42335Y-37032D01*
X42395Y-37032D01*
X42425Y-37017D01*
X42440Y-36987D01*
X42440Y-36867D01*
X42425Y-36837D01*
X42395Y-36822D01*
X42335Y-36822D01*
X42305Y-36837D01*
X42290Y-36867D01*
X42290Y-36897D01*
X42440Y-36927D01*
X42200Y-36822D02*
X42080Y-36822D01*
X42155Y-37032D02*
X42155Y-36762D01*
X42140Y-36732D01*
X42110Y-36717D01*
X42080Y-36717D01*
X42784Y-37236D02*
X42679Y-37551D01*
X42574Y-37236D01*
X42335Y-37551D02*
X42335Y-37386D01*
X42350Y-37356D01*
X42380Y-37341D01*
X42440Y-37341D01*
X42470Y-37356D01*
X42335Y-37536D02*
X42365Y-37551D01*
X42440Y-37551D01*
X42470Y-37536D01*
X42485Y-37506D01*
X42485Y-37476D01*
X42470Y-37446D01*
X42440Y-37431D01*
X42365Y-37431D01*
X42335Y-37416D01*
X42140Y-37551D02*
X42170Y-37536D01*
X42185Y-37506D01*
X42185Y-37236D01*
X42574Y-38071D02*
X42754Y-38071D01*
X42664Y-38071D02*
X42664Y-37756D01*
X42694Y-37801D01*
X42724Y-37831D01*
X42754Y-37846D01*
X42230Y-37756D02*
X42155Y-38071D01*
X42095Y-37846D01*
X42035Y-38071D01*
X41960Y-37756D01*
X41840Y-38071D02*
X41840Y-37861D01*
X41840Y-37756D02*
X41855Y-37771D01*
X41840Y-37786D01*
X41825Y-37771D01*
X41840Y-37756D01*
X41840Y-37786D01*
X35047Y-37217D02*
X34897Y-37217D01*
X35077Y-37307D02*
X34972Y-36992D01*
X34867Y-37307D01*
X34612Y-36992D02*
X34762Y-36992D01*
X34777Y-37142D01*
X34762Y-37127D01*
X34732Y-37112D01*
X34657Y-37112D01*
X34627Y-37127D01*
X34612Y-37142D01*
X34597Y-37172D01*
X34597Y-37247D01*
X34612Y-37277D01*
X34627Y-37292D01*
X34657Y-37307D01*
X34732Y-37307D01*
X34762Y-37292D01*
X34777Y-37277D01*
X30323Y-37217D02*
X30173Y-37217D01*
X30353Y-37307D02*
X30248Y-36992D01*
X30143Y-37307D01*
X29903Y-36992D02*
X29963Y-36992D01*
X29993Y-37007D01*
X30008Y-37022D01*
X30038Y-37067D01*
X30053Y-37127D01*
X30053Y-37247D01*
X30038Y-37277D01*
X30023Y-37292D01*
X29993Y-37307D01*
X29933Y-37307D01*
X29903Y-37292D01*
X29888Y-37277D01*
X29873Y-37247D01*
X29873Y-37172D01*
X29888Y-37142D01*
X29903Y-37127D01*
X29933Y-37112D01*
X29993Y-37112D01*
X30023Y-37127D01*
X30038Y-37142D01*
X30053Y-37172D01*
G54D12*
X35423Y-37165D02*
G75*
G03X35423Y-37165I-600J0D01*
G74*
G01*
X30720Y-37165D02*
G75*
G03X30720Y-37165I-622J0D01*
G74*
G01*
G54D13*
X37115Y-32433D02*
X37130Y-32403D01*
X37130Y-32343D01*
X37115Y-32313D01*
X37085Y-32298D01*
X36965Y-32298D01*
X36935Y-32313D01*
X36920Y-32343D01*
X36920Y-32403D01*
X36935Y-32433D01*
X36965Y-32448D01*
X36995Y-32448D01*
X37025Y-32298D01*
X36815Y-32538D02*
X36815Y-32718D01*
X37130Y-32628D02*
X36815Y-32628D01*
X37130Y-32958D02*
X36965Y-32958D01*
X36935Y-32943D01*
X36920Y-32913D01*
X36920Y-32853D01*
X36935Y-32823D01*
X37115Y-32958D02*
X37130Y-32928D01*
X37130Y-32853D01*
X37115Y-32823D01*
X37085Y-32808D01*
X37055Y-32808D01*
X37025Y-32823D01*
X37010Y-32853D01*
X37010Y-32928D01*
X36995Y-32958D01*
X36920Y-33108D02*
X37235Y-33108D01*
X36935Y-33108D02*
X36920Y-33138D01*
X36920Y-33198D01*
X36935Y-33228D01*
X36950Y-33243D01*
X36980Y-33258D01*
X37070Y-33258D01*
X37100Y-33243D01*
X37115Y-33228D01*
X37130Y-33198D01*
X37130Y-33138D01*
X37115Y-33108D01*
X37115Y-33513D02*
X37130Y-33483D01*
X37130Y-33423D01*
X37115Y-33393D01*
X37085Y-33378D01*
X36965Y-33378D01*
X36935Y-33393D01*
X36920Y-33423D01*
X36920Y-33483D01*
X36935Y-33513D01*
X36965Y-33528D01*
X36995Y-33528D01*
X37025Y-33378D01*
X30542Y-30219D02*
X30302Y-30219D01*
X30422Y-30339D02*
X30422Y-30099D01*
X30002Y-30024D02*
X30152Y-30024D01*
X30167Y-30174D01*
X30152Y-30159D01*
X30122Y-30144D01*
X30047Y-30144D01*
X30017Y-30159D01*
X30002Y-30174D01*
X29987Y-30204D01*
X29987Y-30279D01*
X30002Y-30309D01*
X30017Y-30324D01*
X30047Y-30339D01*
X30122Y-30339D01*
X30152Y-30324D01*
X30167Y-30309D01*
X29897Y-30024D02*
X29792Y-30339D01*
X29687Y-30024D01*
X30377Y-33031D02*
X30407Y-33016D01*
X30452Y-33016D01*
X30497Y-33031D01*
X30527Y-33061D01*
X30542Y-33091D01*
X30557Y-33151D01*
X30557Y-33196D01*
X30542Y-33256D01*
X30527Y-33286D01*
X30497Y-33316D01*
X30452Y-33331D01*
X30422Y-33331D01*
X30377Y-33316D01*
X30362Y-33301D01*
X30362Y-33196D01*
X30422Y-33196D01*
X30227Y-33331D02*
X30227Y-33016D01*
X30047Y-33331D01*
X30047Y-33016D01*
X29897Y-33331D02*
X29897Y-33016D01*
X29822Y-33016D01*
X29777Y-33031D01*
X29747Y-33061D01*
X29732Y-33091D01*
X29717Y-33151D01*
X29717Y-33196D01*
X29732Y-33256D01*
X29747Y-33286D01*
X29777Y-33316D01*
X29822Y-33331D01*
X29897Y-33331D01*
X30568Y-32268D02*
X30718Y-32268D01*
X30718Y-31953D01*
X30464Y-32268D02*
X30464Y-32058D01*
X30464Y-31953D02*
X30479Y-31968D01*
X30464Y-31983D01*
X30449Y-31968D01*
X30464Y-31953D01*
X30464Y-31983D01*
X30179Y-32058D02*
X30179Y-32313D01*
X30194Y-32343D01*
X30209Y-32358D01*
X30239Y-32373D01*
X30284Y-32373D01*
X30314Y-32358D01*
X30179Y-32253D02*
X30209Y-32268D01*
X30269Y-32268D01*
X30299Y-32253D01*
X30314Y-32238D01*
X30329Y-32208D01*
X30329Y-32118D01*
X30314Y-32088D01*
X30299Y-32073D01*
X30269Y-32058D01*
X30209Y-32058D01*
X30179Y-32073D01*
X30029Y-32268D02*
X30029Y-31953D01*
X29894Y-32268D02*
X29894Y-32103D01*
X29909Y-32073D01*
X29939Y-32058D01*
X29984Y-32058D01*
X30014Y-32073D01*
X30029Y-32088D01*
X29789Y-32058D02*
X29669Y-32058D01*
X29744Y-31953D02*
X29744Y-32223D01*
X29729Y-32253D01*
X29699Y-32268D01*
X29669Y-32268D01*
X30793Y-31284D02*
X30793Y-30969D01*
X30673Y-30969D01*
X30643Y-30984D01*
X30628Y-30999D01*
X30613Y-31029D01*
X30613Y-31074D01*
X30628Y-31104D01*
X30643Y-31119D01*
X30673Y-31134D01*
X30793Y-31134D01*
X30344Y-31074D02*
X30344Y-31284D01*
X30479Y-31074D02*
X30479Y-31239D01*
X30464Y-31269D01*
X30434Y-31284D01*
X30389Y-31284D01*
X30359Y-31269D01*
X30344Y-31254D01*
X30194Y-31284D02*
X30194Y-31074D01*
X30194Y-31104D02*
X30179Y-31089D01*
X30149Y-31074D01*
X30104Y-31074D01*
X30074Y-31089D01*
X30059Y-31119D01*
X30059Y-31284D01*
X30059Y-31119D02*
X30044Y-31089D01*
X30014Y-31074D01*
X29969Y-31074D01*
X29939Y-31089D01*
X29924Y-31119D01*
X29924Y-31284D01*
X29774Y-31074D02*
X29774Y-31389D01*
X29774Y-31089D02*
X29744Y-31074D01*
X29684Y-31074D01*
X29654Y-31089D01*
X29639Y-31104D01*
X29624Y-31134D01*
X29624Y-31224D01*
X29639Y-31254D01*
X29654Y-31269D01*
X29684Y-31284D01*
X29744Y-31284D01*
X29774Y-31269D01*
X35102Y-33031D02*
X35132Y-33016D01*
X35177Y-33016D01*
X35222Y-33031D01*
X35252Y-33061D01*
X35267Y-33091D01*
X35282Y-33151D01*
X35282Y-33196D01*
X35267Y-33256D01*
X35252Y-33286D01*
X35222Y-33316D01*
X35177Y-33331D01*
X35147Y-33331D01*
X35102Y-33316D01*
X35087Y-33301D01*
X35087Y-33196D01*
X35147Y-33196D01*
X34952Y-33331D02*
X34952Y-33016D01*
X34772Y-33331D01*
X34772Y-33016D01*
X34622Y-33331D02*
X34622Y-33016D01*
X34547Y-33016D01*
X34502Y-33031D01*
X34472Y-33061D01*
X34457Y-33091D01*
X34442Y-33151D01*
X34442Y-33196D01*
X34457Y-33256D01*
X34472Y-33286D01*
X34502Y-33316D01*
X34547Y-33331D01*
X34622Y-33331D01*
X35141Y-32047D02*
X35171Y-32032D01*
X35216Y-32032D01*
X35261Y-32047D01*
X35291Y-32077D01*
X35306Y-32107D01*
X35321Y-32167D01*
X35321Y-32212D01*
X35306Y-32272D01*
X35291Y-32302D01*
X35261Y-32332D01*
X35216Y-32347D01*
X35186Y-32347D01*
X35141Y-32332D01*
X35126Y-32317D01*
X35126Y-32212D01*
X35186Y-32212D01*
X34991Y-32347D02*
X34991Y-32032D01*
X34811Y-32347D01*
X34811Y-32032D01*
X34661Y-32347D02*
X34661Y-32032D01*
X34586Y-32032D01*
X34541Y-32047D01*
X34511Y-32077D01*
X34496Y-32107D01*
X34481Y-32167D01*
X34481Y-32212D01*
X34496Y-32272D01*
X34511Y-32302D01*
X34541Y-32332D01*
X34586Y-32347D01*
X34661Y-32347D01*
X35270Y-31008D02*
X35165Y-31323D01*
X35060Y-31008D01*
X34820Y-31323D02*
X34820Y-31158D01*
X34835Y-31128D01*
X34865Y-31113D01*
X34925Y-31113D01*
X34955Y-31128D01*
X34820Y-31308D02*
X34850Y-31323D01*
X34925Y-31323D01*
X34955Y-31308D01*
X34970Y-31278D01*
X34970Y-31248D01*
X34955Y-31218D01*
X34925Y-31203D01*
X34850Y-31203D01*
X34820Y-31188D01*
X34625Y-31323D02*
X34655Y-31308D01*
X34670Y-31278D01*
X34670Y-31008D01*
X35068Y-30339D02*
X35173Y-30189D01*
X35248Y-30339D02*
X35248Y-30024D01*
X35128Y-30024D01*
X35098Y-30039D01*
X35083Y-30054D01*
X35068Y-30084D01*
X35068Y-30129D01*
X35083Y-30159D01*
X35098Y-30174D01*
X35128Y-30189D01*
X35248Y-30189D01*
X34813Y-30324D02*
X34843Y-30339D01*
X34903Y-30339D01*
X34933Y-30324D01*
X34948Y-30294D01*
X34948Y-30174D01*
X34933Y-30144D01*
X34903Y-30129D01*
X34843Y-30129D01*
X34813Y-30144D01*
X34798Y-30174D01*
X34798Y-30204D01*
X34948Y-30234D01*
X34708Y-30129D02*
X34588Y-30129D01*
X34663Y-30339D02*
X34663Y-30069D01*
X34648Y-30039D01*
X34618Y-30024D01*
X34588Y-30024D01*
X39215Y-31327D02*
X39215Y-31567D01*
X39335Y-31447D02*
X39095Y-31447D01*
X39020Y-31867D02*
X39020Y-31717D01*
X39170Y-31702D01*
X39155Y-31717D01*
X39140Y-31747D01*
X39140Y-31822D01*
X39155Y-31852D01*
X39170Y-31867D01*
X39200Y-31882D01*
X39275Y-31882D01*
X39305Y-31867D01*
X39320Y-31852D01*
X39335Y-31822D01*
X39335Y-31747D01*
X39320Y-31717D01*
X39305Y-31702D01*
X39020Y-31972D02*
X39335Y-32077D01*
X39020Y-32182D01*
X39847Y-31447D02*
X39847Y-31267D01*
X39847Y-31357D02*
X39532Y-31357D01*
X39577Y-31327D01*
X39607Y-31297D01*
X39622Y-31267D01*
X39532Y-31792D02*
X39847Y-31867D01*
X39622Y-31927D01*
X39847Y-31987D01*
X39532Y-32062D01*
X39847Y-32182D02*
X39637Y-32182D01*
X39532Y-32182D02*
X39547Y-32167D01*
X39562Y-32182D01*
X39547Y-32197D01*
X39532Y-32182D01*
X39562Y-32182D01*
X40059Y-31492D02*
X40044Y-31462D01*
X40044Y-31417D01*
X40059Y-31372D01*
X40089Y-31342D01*
X40119Y-31327D01*
X40179Y-31312D01*
X40224Y-31312D01*
X40284Y-31327D01*
X40314Y-31342D01*
X40344Y-31372D01*
X40359Y-31417D01*
X40359Y-31447D01*
X40344Y-31492D01*
X40329Y-31507D01*
X40224Y-31507D01*
X40224Y-31447D01*
X40359Y-31642D02*
X40044Y-31642D01*
X40359Y-31822D01*
X40044Y-31822D01*
X40359Y-31972D02*
X40044Y-31972D01*
X40044Y-32047D01*
X40059Y-32092D01*
X40089Y-32122D01*
X40119Y-32137D01*
X40179Y-32152D01*
X40224Y-32152D01*
X40284Y-32137D01*
X40314Y-32122D01*
X40344Y-32092D01*
X40359Y-32047D01*
X40359Y-31972D01*
X33493Y-31357D02*
X33508Y-31402D01*
X33508Y-31477D01*
X33493Y-31507D01*
X33478Y-31522D01*
X33448Y-31537D01*
X33418Y-31537D01*
X33388Y-31522D01*
X33373Y-31507D01*
X33358Y-31477D01*
X33343Y-31417D01*
X33328Y-31387D01*
X33313Y-31372D01*
X33283Y-31357D01*
X33253Y-31357D01*
X33223Y-31372D01*
X33208Y-31387D01*
X33193Y-31417D01*
X33193Y-31492D01*
X33208Y-31537D01*
X33478Y-31852D02*
X33493Y-31837D01*
X33508Y-31792D01*
X33508Y-31762D01*
X33493Y-31717D01*
X33463Y-31687D01*
X33433Y-31672D01*
X33373Y-31657D01*
X33328Y-31657D01*
X33268Y-31672D01*
X33238Y-31687D01*
X33208Y-31717D01*
X33193Y-31762D01*
X33193Y-31792D01*
X33208Y-31837D01*
X33223Y-31852D01*
X33508Y-32137D02*
X33508Y-31987D01*
X33193Y-31987D01*
X32903Y-31310D02*
X32918Y-31355D01*
X32918Y-31430D01*
X32903Y-31460D01*
X32888Y-31475D01*
X32858Y-31490D01*
X32828Y-31490D01*
X32798Y-31475D01*
X32783Y-31460D01*
X32768Y-31430D01*
X32753Y-31370D01*
X32738Y-31340D01*
X32723Y-31325D01*
X32693Y-31310D01*
X32663Y-31310D01*
X32633Y-31325D01*
X32618Y-31340D01*
X32603Y-31370D01*
X32603Y-31445D01*
X32618Y-31490D01*
X32918Y-31625D02*
X32603Y-31625D01*
X32603Y-31700D01*
X32618Y-31745D01*
X32648Y-31775D01*
X32678Y-31790D01*
X32738Y-31805D01*
X32783Y-31805D01*
X32843Y-31790D01*
X32873Y-31775D01*
X32903Y-31745D01*
X32918Y-31700D01*
X32918Y-31625D01*
X32828Y-31925D02*
X32828Y-32075D01*
X32918Y-31895D02*
X32603Y-32000D01*
X32918Y-32105D01*
X32207Y-31287D02*
X32207Y-31527D01*
X32327Y-31407D02*
X32087Y-31407D01*
X32012Y-31827D02*
X32012Y-31677D01*
X32162Y-31662D01*
X32147Y-31677D01*
X32132Y-31707D01*
X32132Y-31782D01*
X32147Y-31812D01*
X32162Y-31827D01*
X32192Y-31842D01*
X32267Y-31842D01*
X32297Y-31827D01*
X32312Y-31812D01*
X32327Y-31782D01*
X32327Y-31707D01*
X32312Y-31677D01*
X32297Y-31662D01*
X32012Y-31932D02*
X32327Y-32037D01*
X32012Y-32142D01*
X31437Y-31452D02*
X31422Y-31422D01*
X31422Y-31377D01*
X31437Y-31332D01*
X31467Y-31302D01*
X31497Y-31287D01*
X31556Y-31272D01*
X31601Y-31272D01*
X31661Y-31287D01*
X31691Y-31302D01*
X31721Y-31332D01*
X31736Y-31377D01*
X31736Y-31407D01*
X31721Y-31452D01*
X31706Y-31467D01*
X31601Y-31467D01*
X31601Y-31407D01*
X31736Y-31602D02*
X31422Y-31602D01*
X31736Y-31782D01*
X31422Y-31782D01*
X31736Y-31932D02*
X31422Y-31932D01*
X31422Y-32007D01*
X31437Y-32052D01*
X31467Y-32082D01*
X31497Y-32097D01*
X31556Y-32112D01*
X31601Y-32112D01*
X31661Y-32097D01*
X31691Y-32082D01*
X31721Y-32052D01*
X31736Y-32007D01*
X31736Y-31932D01*
G54D14*
X36543Y-30692D02*
X36543Y-33692D01*
X35543Y-30692D02*
X35543Y-33692D01*
X35543Y-29692D02*
X35543Y-30692D01*
X36543Y-33692D02*
X35543Y-33692D01*
X35543Y-30692D02*
X36543Y-30692D01*
X35543Y-29692D02*
X36543Y-29692D01*
X36543Y-29692D02*
X36543Y-30692D01*
G54D12*
X32461Y-22303D02*
X28523Y-22303D01*
X32461Y-21318D02*
X32461Y-25256D01*
X32461Y-25256D02*
X28523Y-25256D01*
X28523Y-25256D02*
X28523Y-21318D01*
X28523Y-21318D02*
X32461Y-21318D01*
X36397Y-22304D02*
X32459Y-22304D01*
X36397Y-21319D02*
X36397Y-25257D01*
X36397Y-25257D02*
X32459Y-25257D01*
X32459Y-25257D02*
X32459Y-21319D01*
X32459Y-21319D02*
X36397Y-21319D01*
X40335Y-22303D02*
X36397Y-22303D01*
X40335Y-21318D02*
X40335Y-25256D01*
X40335Y-25256D02*
X36397Y-25256D01*
X36397Y-25256D02*
X36397Y-21318D01*
X36397Y-21318D02*
X40335Y-21318D01*
G54D10*
X37726Y-31466D02*
X36958Y-31466D01*
X36958Y-31466D02*
X36958Y-30974D01*
X36958Y-30974D02*
X37726Y-30974D01*
X37726Y-30974D02*
X37726Y-31466D01*
X37726Y-30482D02*
X36958Y-30482D01*
X36958Y-30482D02*
X36958Y-29990D01*
X36958Y-29990D02*
X37726Y-29990D01*
X37726Y-29990D02*
X37726Y-30482D01*
X40177Y-27834D02*
X40177Y-26732D01*
X40177Y-26732D02*
X40885Y-26732D01*
X40885Y-26732D02*
X40885Y-27834D01*
X40885Y-27834D02*
X40177Y-27834D01*
X39311Y-27834D02*
X39311Y-26732D01*
X39311Y-26732D02*
X40019Y-26732D01*
X40019Y-26732D02*
X40019Y-27834D01*
X40019Y-27834D02*
X39311Y-27834D01*
G54D12*
X27775Y-27598D02*
X27775Y-27362D01*
X27657Y-27480D02*
X27893Y-27480D01*
X29074Y-26850D02*
G75*
G03X29074Y-26850I-984J0D01*
G74*
G01*
X28297Y-29212D02*
X27155Y-29212D01*
X27155Y-29212D02*
X27155Y-34172D01*
X27155Y-34172D02*
X29439Y-34172D01*
X29439Y-34172D02*
X29439Y-29212D01*
X29439Y-29212D02*
X28297Y-29212D01*
X40806Y-33188D02*
X40806Y-33818D01*
X40806Y-33818D02*
X38602Y-33818D01*
X38602Y-33818D02*
X38602Y-32558D01*
X38602Y-32558D02*
X40806Y-32558D01*
X40806Y-32558D02*
X40806Y-33188D01*
X40806Y-30196D02*
X40806Y-30826D01*
X40806Y-30826D02*
X38602Y-30826D01*
X38602Y-30826D02*
X38602Y-29566D01*
X38602Y-29566D02*
X40806Y-29566D01*
X40806Y-29566D02*
X40806Y-30196D01*
X33976Y-33897D02*
X33976Y-33188D01*
X31024Y-33897D02*
X33976Y-33897D01*
X31024Y-32479D02*
X31024Y-33897D01*
X33976Y-32479D02*
X31024Y-32479D01*
X33976Y-33188D02*
X33976Y-32479D01*
X33976Y-33188D02*
X33976Y-32479D01*
X33976Y-32479D02*
X31024Y-32479D01*
X31024Y-32479D02*
X31024Y-33897D01*
X31024Y-33897D02*
X33976Y-33897D01*
X33976Y-33897D02*
X33976Y-33188D01*
X33976Y-30984D02*
X33976Y-30275D01*
X31024Y-30984D02*
X33976Y-30984D01*
X31024Y-29566D02*
X31024Y-30984D01*
X33976Y-29566D02*
X31024Y-29566D01*
X33976Y-30275D02*
X33976Y-29566D01*
X33976Y-30275D02*
X33976Y-29566D01*
X33976Y-29566D02*
X31024Y-29566D01*
X31024Y-29566D02*
X31024Y-30984D01*
X31024Y-30984D02*
X33976Y-30984D01*
X33976Y-30984D02*
X33976Y-30275D01*
G54D10*
X35246Y-36407D02*
X35246Y-35639D01*
X35246Y-35639D02*
X35738Y-35639D01*
X35738Y-35639D02*
X35738Y-36407D01*
X35738Y-36407D02*
X35246Y-36407D01*
X34576Y-36407D02*
X34576Y-35639D01*
X34576Y-35639D02*
X35068Y-35639D01*
X35068Y-35639D02*
X35068Y-36407D01*
X35068Y-36407D02*
X34576Y-36407D01*
G54D15*
X32362Y-21185D02*
X32362Y-20785D01*
X32210Y-20785D01*
X32172Y-20804D01*
X32153Y-20823D01*
X32134Y-20861D01*
X32134Y-20918D01*
X32153Y-20956D01*
X32172Y-20975D01*
X32210Y-20994D01*
X32362Y-20994D01*
X31905Y-20956D02*
X31943Y-20937D01*
X31962Y-20918D01*
X31981Y-20880D01*
X31981Y-20861D01*
X31962Y-20823D01*
X31943Y-20804D01*
X31905Y-20785D01*
X31829Y-20785D01*
X31791Y-20804D01*
X31772Y-20823D01*
X31753Y-20861D01*
X31753Y-20880D01*
X31772Y-20918D01*
X31791Y-20937D01*
X31829Y-20956D01*
X31905Y-20956D01*
X31943Y-20975D01*
X31962Y-20994D01*
X31981Y-21032D01*
X31981Y-21109D01*
X31962Y-21147D01*
X31943Y-21166D01*
X31905Y-21185D01*
X31829Y-21185D01*
X31791Y-21166D01*
X31772Y-21147D01*
X31753Y-21109D01*
X31753Y-21032D01*
X31772Y-20994D01*
X31791Y-20975D01*
X31829Y-20956D01*
X31578Y-25988D02*
X31768Y-25988D01*
X31768Y-25588D01*
X31387Y-25988D02*
X31425Y-25969D01*
X31444Y-25950D01*
X31463Y-25912D01*
X31463Y-25797D01*
X31444Y-25759D01*
X31425Y-25740D01*
X31387Y-25721D01*
X31330Y-25721D01*
X31292Y-25740D01*
X31273Y-25759D01*
X31254Y-25797D01*
X31254Y-25912D01*
X31273Y-25950D01*
X31292Y-25969D01*
X31330Y-25988D01*
X31387Y-25988D01*
X31121Y-25721D02*
X31044Y-25988D01*
X30968Y-25797D01*
X30892Y-25988D01*
X30816Y-25721D01*
X30702Y-25588D02*
X30606Y-25988D01*
X30530Y-25702D01*
X30454Y-25988D01*
X30359Y-25588D01*
X30035Y-25988D02*
X30035Y-25778D01*
X30054Y-25740D01*
X30092Y-25721D01*
X30168Y-25721D01*
X30206Y-25740D01*
X30035Y-25969D02*
X30073Y-25988D01*
X30168Y-25988D01*
X30206Y-25969D01*
X30225Y-25931D01*
X30225Y-25892D01*
X30206Y-25854D01*
X30168Y-25835D01*
X30073Y-25835D01*
X30035Y-25816D01*
X29902Y-25721D02*
X29749Y-25721D01*
X29844Y-25588D02*
X29844Y-25931D01*
X29825Y-25969D01*
X29787Y-25988D01*
X29749Y-25988D01*
X29463Y-25969D02*
X29502Y-25988D01*
X29578Y-25988D01*
X29616Y-25969D01*
X29635Y-25931D01*
X29635Y-25778D01*
X29616Y-25740D01*
X29578Y-25721D01*
X29502Y-25721D01*
X29463Y-25740D01*
X29444Y-25778D01*
X29444Y-25816D01*
X29635Y-25854D01*
X29273Y-25988D02*
X29273Y-25721D01*
X29273Y-25797D02*
X29254Y-25759D01*
X29235Y-25740D01*
X29197Y-25721D01*
X29159Y-25721D01*
X36298Y-21186D02*
X36298Y-20786D01*
X36146Y-20786D01*
X36108Y-20805D01*
X36089Y-20824D01*
X36070Y-20862D01*
X36070Y-20919D01*
X36089Y-20957D01*
X36108Y-20976D01*
X36146Y-20995D01*
X36298Y-20995D01*
X35879Y-21186D02*
X35803Y-21186D01*
X35765Y-21167D01*
X35746Y-21148D01*
X35708Y-21090D01*
X35689Y-21014D01*
X35689Y-20862D01*
X35708Y-20824D01*
X35727Y-20805D01*
X35765Y-20786D01*
X35841Y-20786D01*
X35879Y-20805D01*
X35898Y-20824D01*
X35917Y-20862D01*
X35917Y-20957D01*
X35898Y-20995D01*
X35879Y-21014D01*
X35841Y-21033D01*
X35765Y-21033D01*
X35727Y-21014D01*
X35708Y-20995D01*
X35689Y-20957D01*
X35923Y-25589D02*
X35695Y-25589D01*
X35809Y-25989D02*
X35809Y-25589D01*
X35390Y-25989D02*
X35390Y-25779D01*
X35409Y-25741D01*
X35447Y-25722D01*
X35523Y-25722D01*
X35561Y-25741D01*
X35390Y-25970D02*
X35428Y-25989D01*
X35523Y-25989D01*
X35561Y-25970D01*
X35580Y-25932D01*
X35580Y-25893D01*
X35561Y-25855D01*
X35523Y-25836D01*
X35428Y-25836D01*
X35390Y-25817D01*
X35199Y-25722D02*
X35199Y-25989D01*
X35199Y-25760D02*
X35180Y-25741D01*
X35142Y-25722D01*
X35085Y-25722D01*
X35047Y-25741D01*
X35028Y-25779D01*
X35028Y-25989D01*
X34837Y-25989D02*
X34837Y-25589D01*
X34799Y-25836D02*
X34685Y-25989D01*
X34685Y-25722D02*
X34837Y-25874D01*
X34304Y-25989D02*
X34533Y-25989D01*
X34418Y-25989D02*
X34418Y-25589D01*
X34456Y-25646D01*
X34495Y-25684D01*
X34533Y-25703D01*
X34133Y-25989D02*
X34133Y-25589D01*
X34133Y-25779D02*
X33904Y-25779D01*
X33904Y-25989D02*
X33904Y-25589D01*
X33714Y-25989D02*
X33714Y-25722D01*
X33714Y-25589D02*
X33733Y-25608D01*
X33714Y-25627D01*
X33695Y-25608D01*
X33714Y-25589D01*
X33714Y-25627D01*
X33352Y-25722D02*
X33352Y-26046D01*
X33371Y-26084D01*
X33390Y-26103D01*
X33428Y-26122D01*
X33485Y-26122D01*
X33523Y-26103D01*
X33352Y-25970D02*
X33390Y-25989D01*
X33466Y-25989D01*
X33504Y-25970D01*
X33523Y-25951D01*
X33542Y-25913D01*
X33542Y-25798D01*
X33523Y-25760D01*
X33504Y-25741D01*
X33466Y-25722D01*
X33390Y-25722D01*
X33352Y-25741D01*
X33161Y-25989D02*
X33161Y-25589D01*
X32990Y-25989D02*
X32990Y-25779D01*
X33009Y-25741D01*
X33047Y-25722D01*
X33104Y-25722D01*
X33142Y-25741D01*
X33161Y-25760D01*
X40427Y-21185D02*
X40427Y-20785D01*
X40274Y-20785D01*
X40236Y-20804D01*
X40217Y-20823D01*
X40198Y-20861D01*
X40198Y-20918D01*
X40217Y-20956D01*
X40236Y-20975D01*
X40274Y-20994D01*
X40427Y-20994D01*
X39817Y-21185D02*
X40046Y-21185D01*
X39932Y-21185D02*
X39932Y-20785D01*
X39970Y-20842D01*
X40008Y-20880D01*
X40046Y-20899D01*
X39570Y-20785D02*
X39532Y-20785D01*
X39493Y-20804D01*
X39474Y-20823D01*
X39455Y-20861D01*
X39436Y-20937D01*
X39436Y-21032D01*
X39455Y-21109D01*
X39474Y-21147D01*
X39493Y-21166D01*
X39532Y-21185D01*
X39570Y-21185D01*
X39608Y-21166D01*
X39627Y-21147D01*
X39646Y-21109D01*
X39665Y-21032D01*
X39665Y-20937D01*
X39646Y-20861D01*
X39627Y-20823D01*
X39608Y-20804D01*
X39570Y-20785D01*
X39861Y-25588D02*
X39633Y-25588D01*
X39747Y-25988D02*
X39747Y-25588D01*
X39328Y-25988D02*
X39328Y-25778D01*
X39347Y-25740D01*
X39385Y-25721D01*
X39461Y-25721D01*
X39499Y-25740D01*
X39328Y-25969D02*
X39366Y-25988D01*
X39461Y-25988D01*
X39499Y-25969D01*
X39518Y-25931D01*
X39518Y-25892D01*
X39499Y-25854D01*
X39461Y-25835D01*
X39366Y-25835D01*
X39328Y-25816D01*
X39137Y-25721D02*
X39137Y-25988D01*
X39137Y-25759D02*
X39118Y-25740D01*
X39080Y-25721D01*
X39023Y-25721D01*
X38985Y-25740D01*
X38966Y-25778D01*
X38966Y-25988D01*
X38776Y-25988D02*
X38776Y-25588D01*
X38737Y-25835D02*
X38623Y-25988D01*
X38623Y-25721D02*
X38776Y-25873D01*
X38471Y-25626D02*
X38452Y-25607D01*
X38414Y-25588D01*
X38318Y-25588D01*
X38280Y-25607D01*
X38261Y-25626D01*
X38242Y-25664D01*
X38242Y-25702D01*
X38261Y-25759D01*
X38490Y-25988D01*
X38242Y-25988D01*
X38071Y-25988D02*
X38071Y-25588D01*
X38071Y-25778D02*
X37842Y-25778D01*
X37842Y-25988D02*
X37842Y-25588D01*
X37652Y-25988D02*
X37652Y-25721D01*
X37652Y-25588D02*
X37671Y-25607D01*
X37652Y-25626D01*
X37633Y-25607D01*
X37652Y-25588D01*
X37652Y-25626D01*
X37290Y-25721D02*
X37290Y-26045D01*
X37309Y-26083D01*
X37328Y-26102D01*
X37366Y-26121D01*
X37423Y-26121D01*
X37461Y-26102D01*
X37290Y-25969D02*
X37328Y-25988D01*
X37404Y-25988D01*
X37442Y-25969D01*
X37461Y-25950D01*
X37480Y-25912D01*
X37480Y-25797D01*
X37461Y-25759D01*
X37442Y-25740D01*
X37404Y-25721D01*
X37328Y-25721D01*
X37290Y-25740D01*
X37099Y-25988D02*
X37099Y-25588D01*
X36928Y-25988D02*
X36928Y-25778D01*
X36947Y-25740D01*
X36985Y-25721D01*
X37042Y-25721D01*
X37080Y-25740D01*
X37099Y-25759D01*
G54D16*
X37362Y-31697D02*
X37402Y-31640D01*
X37431Y-31697D02*
X37431Y-31577D01*
X37385Y-31577D01*
X37373Y-31583D01*
X37368Y-31589D01*
X37362Y-31600D01*
X37362Y-31617D01*
X37368Y-31629D01*
X37373Y-31635D01*
X37385Y-31640D01*
X37431Y-31640D01*
X37322Y-31577D02*
X37248Y-31577D01*
X37288Y-31623D01*
X37271Y-31623D01*
X37259Y-31629D01*
X37253Y-31635D01*
X37248Y-31646D01*
X37248Y-31675D01*
X37253Y-31686D01*
X37259Y-31692D01*
X37271Y-31697D01*
X37305Y-31697D01*
X37316Y-31692D01*
X37322Y-31686D01*
X37362Y-30713D02*
X37402Y-30656D01*
X37431Y-30713D02*
X37431Y-30593D01*
X37385Y-30593D01*
X37373Y-30599D01*
X37368Y-30605D01*
X37362Y-30616D01*
X37362Y-30633D01*
X37368Y-30645D01*
X37373Y-30650D01*
X37385Y-30656D01*
X37431Y-30656D01*
X37259Y-30633D02*
X37259Y-30713D01*
X37288Y-30588D02*
X37316Y-30673D01*
X37242Y-30673D01*
G54D17*
X40561Y-26567D02*
X40570Y-26577D01*
X40595Y-26586D01*
X40612Y-26586D01*
X40638Y-26577D01*
X40655Y-26557D01*
X40664Y-26538D01*
X40672Y-26500D01*
X40672Y-26472D01*
X40664Y-26434D01*
X40655Y-26415D01*
X40638Y-26396D01*
X40612Y-26386D01*
X40595Y-26386D01*
X40570Y-26396D01*
X40561Y-26405D01*
X40501Y-26386D02*
X40390Y-26386D01*
X40450Y-26462D01*
X40424Y-26462D01*
X40407Y-26472D01*
X40398Y-26481D01*
X40390Y-26500D01*
X40390Y-26548D01*
X40398Y-26567D01*
X40407Y-26577D01*
X40424Y-26586D01*
X40475Y-26586D01*
X40492Y-26577D01*
X40501Y-26567D01*
X39695Y-26567D02*
X39703Y-26577D01*
X39729Y-26586D01*
X39746Y-26586D01*
X39772Y-26577D01*
X39789Y-26557D01*
X39798Y-26538D01*
X39806Y-26500D01*
X39806Y-26472D01*
X39798Y-26434D01*
X39789Y-26415D01*
X39772Y-26396D01*
X39746Y-26386D01*
X39729Y-26386D01*
X39703Y-26396D01*
X39695Y-26405D01*
X39541Y-26453D02*
X39541Y-26586D01*
X39583Y-26377D02*
X39626Y-26519D01*
X39515Y-26519D01*
G54D13*
X26746Y-26758D02*
X26761Y-26743D01*
X26776Y-26698D01*
X26776Y-26668D01*
X26761Y-26623D01*
X26731Y-26593D01*
X26701Y-26578D01*
X26641Y-26563D01*
X26596Y-26563D01*
X26536Y-26578D01*
X26506Y-26593D01*
X26476Y-26623D01*
X26461Y-26668D01*
X26461Y-26698D01*
X26476Y-26743D01*
X26491Y-26758D01*
X26461Y-27043D02*
X26461Y-26893D01*
X26611Y-26878D01*
X26596Y-26893D01*
X26581Y-26923D01*
X26581Y-26998D01*
X26596Y-27028D01*
X26611Y-27043D01*
X26641Y-27058D01*
X26716Y-27058D01*
X26746Y-27043D01*
X26761Y-27028D01*
X26776Y-26998D01*
X26776Y-26923D01*
X26761Y-26893D01*
X26746Y-26878D01*
X26894Y-31460D02*
X26579Y-31460D01*
X26579Y-31580D01*
X26594Y-31610D01*
X26609Y-31625D01*
X26639Y-31640D01*
X26684Y-31640D01*
X26714Y-31625D01*
X26729Y-31610D01*
X26744Y-31580D01*
X26744Y-31460D01*
X26894Y-31940D02*
X26894Y-31760D01*
X26894Y-31850D02*
X26579Y-31850D01*
X26624Y-31820D01*
X26654Y-31790D01*
X26669Y-31760D01*
G54D18*
X41708Y-29767D02*
X41108Y-29767D01*
X41108Y-29910D01*
X41137Y-29996D01*
X41194Y-30053D01*
X41251Y-30082D01*
X41365Y-30110D01*
X41451Y-30110D01*
X41565Y-30082D01*
X41622Y-30053D01*
X41679Y-29996D01*
X41708Y-29910D01*
X41708Y-29767D01*
X41679Y-30339D02*
X41708Y-30424D01*
X41708Y-30567D01*
X41679Y-30624D01*
X41651Y-30653D01*
X41594Y-30682D01*
X41537Y-30682D01*
X41479Y-30653D01*
X41451Y-30624D01*
X41422Y-30567D01*
X41394Y-30453D01*
X41365Y-30396D01*
X41337Y-30367D01*
X41279Y-30339D01*
X41222Y-30339D01*
X41165Y-30367D01*
X41137Y-30396D01*
X41108Y-30453D01*
X41108Y-30596D01*
X41137Y-30682D01*
X41708Y-31253D02*
X41708Y-30910D01*
X41708Y-31082D02*
X41108Y-31082D01*
X41194Y-31024D01*
X41251Y-30967D01*
X41279Y-30910D01*
X41365Y-31596D02*
X41337Y-31539D01*
X41308Y-31510D01*
X41251Y-31482D01*
X41222Y-31482D01*
X41165Y-31510D01*
X41137Y-31539D01*
X41108Y-31596D01*
X41108Y-31710D01*
X41137Y-31767D01*
X41165Y-31796D01*
X41222Y-31824D01*
X41251Y-31824D01*
X41308Y-31796D01*
X41337Y-31767D01*
X41365Y-31710D01*
X41365Y-31596D01*
X41394Y-31539D01*
X41422Y-31510D01*
X41479Y-31482D01*
X41594Y-31482D01*
X41651Y-31510D01*
X41679Y-31539D01*
X41708Y-31596D01*
X41708Y-31710D01*
X41679Y-31767D01*
X41651Y-31796D01*
X41594Y-31824D01*
X41479Y-31824D01*
X41422Y-31796D01*
X41394Y-31767D01*
X41365Y-31710D01*
X41394Y-32282D02*
X41422Y-32367D01*
X41451Y-32396D01*
X41508Y-32424D01*
X41594Y-32424D01*
X41651Y-32396D01*
X41679Y-32367D01*
X41708Y-32310D01*
X41708Y-32082D01*
X41108Y-32082D01*
X41108Y-32282D01*
X41137Y-32339D01*
X41165Y-32367D01*
X41222Y-32396D01*
X41279Y-32396D01*
X41337Y-32367D01*
X41365Y-32339D01*
X41394Y-32282D01*
X41394Y-32082D01*
X41165Y-32653D02*
X41137Y-32682D01*
X41108Y-32739D01*
X41108Y-32882D01*
X41137Y-32939D01*
X41165Y-32967D01*
X41222Y-32996D01*
X41279Y-32996D01*
X41365Y-32967D01*
X41708Y-32624D01*
X41708Y-32996D01*
X41108Y-33367D02*
X41108Y-33424D01*
X41137Y-33482D01*
X41165Y-33510D01*
X41222Y-33539D01*
X41337Y-33567D01*
X41479Y-33567D01*
X41594Y-33539D01*
X41651Y-33510D01*
X41679Y-33482D01*
X41708Y-33424D01*
X41708Y-33367D01*
X41679Y-33310D01*
X41651Y-33282D01*
X41594Y-33253D01*
X41479Y-33224D01*
X41337Y-33224D01*
X41222Y-33253D01*
X41165Y-33282D01*
X41137Y-33310D01*
X41108Y-33367D01*
G54D16*
X35512Y-35487D02*
X35552Y-35430D01*
X35580Y-35487D02*
X35580Y-35367D01*
X35534Y-35367D01*
X35523Y-35373D01*
X35517Y-35378D01*
X35512Y-35390D01*
X35512Y-35407D01*
X35517Y-35418D01*
X35523Y-35424D01*
X35534Y-35430D01*
X35580Y-35430D01*
X35397Y-35487D02*
X35466Y-35487D01*
X35432Y-35487D02*
X35432Y-35367D01*
X35443Y-35384D01*
X35454Y-35395D01*
X35466Y-35401D01*
X34842Y-35487D02*
X34882Y-35430D01*
X34911Y-35487D02*
X34911Y-35367D01*
X34865Y-35367D01*
X34854Y-35373D01*
X34848Y-35378D01*
X34842Y-35390D01*
X34842Y-35407D01*
X34848Y-35418D01*
X34854Y-35424D01*
X34865Y-35430D01*
X34911Y-35430D01*
X34797Y-35378D02*
X34791Y-35373D01*
X34779Y-35367D01*
X34751Y-35367D01*
X34739Y-35373D01*
X34734Y-35378D01*
X34728Y-35390D01*
X34728Y-35401D01*
X34734Y-35418D01*
X34802Y-35487D01*
X34728Y-35487D01*
M02*
