G04 (created by PCBNEW-RS274X (2012-apr-16-27)-stable) date Mon 12 May 2014 12:41:31 BST*
G01*
G70*
G90*
%MOIN*%
G04 Gerber Fmt 3.4, Leading zero omitted, Abs format*
%FSLAX34Y34*%
G04 APERTURE LIST*
%ADD10C,0.006000*%
%ADD11C,0.007900*%
%ADD12C,0.075000*%
%ADD13R,0.040000X0.065000*%
%ADD14R,0.055000X0.075000*%
%ADD15R,0.065000X0.045000*%
%ADD16R,0.045000X0.065000*%
%ADD17R,0.043600X0.035700*%
%ADD18R,0.035700X0.043600*%
%ADD19R,0.080000X0.080000*%
%ADD20C,0.080000*%
%ADD21R,0.051400X0.051400*%
%ADD22O,0.059400X0.047600*%
%ADD23R,0.059400X0.047600*%
%ADD24O,0.047600X0.059400*%
%ADD25R,0.047600X0.059400*%
%ADD26R,0.075000X0.075000*%
%ADD27C,0.114500*%
%ADD28O,0.098700X0.067200*%
%ADD29R,0.098800X0.067200*%
%ADD30O,0.098700X0.138700*%
G04 APERTURE END LIST*
G54D10*
G54D11*
X61436Y-47529D02*
X61256Y-47529D01*
X61346Y-47529D02*
X61346Y-47214D01*
X61316Y-47259D01*
X61286Y-47289D01*
X61256Y-47304D01*
X61631Y-47214D02*
X61661Y-47214D01*
X61691Y-47229D01*
X61706Y-47244D01*
X61721Y-47274D01*
X61736Y-47334D01*
X61736Y-47409D01*
X61721Y-47469D01*
X61706Y-47499D01*
X61691Y-47514D01*
X61661Y-47529D01*
X61631Y-47529D01*
X61601Y-47514D01*
X61586Y-47499D01*
X61571Y-47469D01*
X61556Y-47409D01*
X61556Y-47334D01*
X61571Y-47274D01*
X61586Y-47244D01*
X61601Y-47229D01*
X61631Y-47214D01*
X61826Y-47319D02*
X61946Y-47319D01*
X61871Y-47214D02*
X61871Y-47484D01*
X61886Y-47514D01*
X61916Y-47529D01*
X61946Y-47529D01*
X62096Y-47529D02*
X62066Y-47514D01*
X62051Y-47499D01*
X62036Y-47469D01*
X62036Y-47379D01*
X62051Y-47349D01*
X62066Y-47334D01*
X62096Y-47319D01*
X62141Y-47319D01*
X62171Y-47334D01*
X62186Y-47349D01*
X62201Y-47379D01*
X62201Y-47469D01*
X62186Y-47499D01*
X62171Y-47514D01*
X62141Y-47529D01*
X62096Y-47529D01*
X62306Y-47214D02*
X62516Y-47214D01*
X62381Y-47529D01*
G54D12*
X73863Y-44276D03*
X73863Y-46276D03*
X70863Y-44276D03*
X70863Y-46276D03*
X67406Y-44276D03*
X67406Y-46276D03*
X64406Y-44276D03*
X64406Y-46276D03*
X63312Y-44276D03*
X63312Y-46276D03*
X60312Y-44276D03*
X60312Y-46276D03*
G54D13*
X64786Y-40055D03*
X65286Y-40055D03*
X65786Y-40055D03*
X66286Y-40055D03*
X66786Y-40055D03*
X67286Y-40055D03*
X67786Y-40055D03*
X68286Y-40055D03*
X68286Y-38055D03*
X67786Y-38055D03*
X67286Y-38055D03*
X66786Y-38055D03*
X66286Y-38055D03*
X65786Y-38055D03*
X65286Y-38055D03*
X64786Y-38055D03*
G54D14*
X71950Y-31811D03*
X71200Y-31811D03*
G54D15*
X61339Y-37574D03*
X61339Y-38174D03*
G54D16*
X71354Y-37559D03*
X71954Y-37559D03*
G54D17*
X63800Y-37795D03*
X63800Y-38149D03*
X62362Y-37618D03*
X62362Y-37972D03*
G54D18*
X71007Y-38149D03*
X70653Y-38149D03*
X73603Y-38208D03*
X73249Y-38208D03*
X74411Y-40905D03*
X74057Y-40905D03*
X74410Y-39627D03*
X74056Y-39627D03*
G54D17*
X60455Y-39527D03*
X60455Y-39173D03*
X63308Y-39527D03*
X63308Y-39173D03*
X62620Y-39527D03*
X62620Y-39173D03*
X68189Y-44271D03*
X68189Y-43917D03*
X68189Y-44783D03*
X68189Y-45137D03*
X69527Y-34548D03*
X69527Y-34902D03*
X70156Y-33918D03*
X70156Y-34272D03*
G54D19*
X69134Y-43933D03*
G54D20*
X69134Y-44933D03*
X69134Y-45933D03*
X69134Y-46933D03*
G54D19*
X67854Y-30945D03*
G54D20*
X66854Y-30945D03*
X65854Y-30945D03*
X64854Y-30945D03*
X63854Y-30945D03*
X62854Y-30945D03*
G54D21*
X62620Y-40137D03*
X62620Y-40727D03*
X60455Y-40137D03*
X60455Y-40727D03*
X73544Y-39627D03*
X72954Y-39627D03*
X73544Y-40905D03*
X72954Y-40905D03*
X72737Y-38208D03*
X72147Y-38208D03*
X70141Y-38150D03*
X69551Y-38150D03*
X63308Y-40727D03*
X63308Y-40137D03*
X61143Y-40727D03*
X61143Y-40137D03*
G54D22*
X71574Y-33130D03*
G54D23*
X71574Y-34902D03*
G54D22*
X71574Y-33721D03*
X71574Y-34311D03*
X71574Y-34311D03*
X71574Y-33721D03*
G54D23*
X71574Y-34902D03*
G54D22*
X71574Y-33130D03*
X73622Y-33130D03*
G54D23*
X73622Y-34902D03*
G54D22*
X73622Y-33721D03*
X73622Y-34311D03*
X73622Y-34311D03*
X73622Y-33721D03*
G54D23*
X73622Y-34902D03*
G54D22*
X73622Y-33130D03*
G54D24*
X67481Y-34882D03*
X66969Y-34882D03*
G54D25*
X67993Y-34882D03*
G54D24*
X67481Y-33071D03*
X66969Y-33071D03*
G54D25*
X67993Y-33071D03*
G54D26*
X63701Y-33594D03*
G54D12*
X63701Y-34594D03*
X74351Y-42500D03*
X73351Y-36594D03*
X72351Y-36594D03*
X71351Y-36594D03*
X70351Y-36594D03*
X69351Y-36594D03*
X68351Y-36594D03*
X67351Y-36594D03*
X66351Y-36594D03*
X65351Y-36594D03*
X64351Y-36594D03*
X63351Y-36594D03*
X62351Y-36594D03*
X61351Y-36594D03*
X60351Y-36594D03*
G54D26*
X60351Y-42500D03*
G54D12*
X61351Y-42500D03*
X62351Y-42500D03*
X63351Y-42500D03*
X64351Y-42500D03*
X65351Y-42500D03*
X66351Y-42500D03*
X67351Y-42500D03*
X68351Y-42500D03*
X69351Y-42500D03*
X70351Y-42500D03*
X71351Y-42500D03*
X72351Y-42500D03*
X73351Y-42500D03*
X74351Y-36594D03*
G54D17*
X61143Y-39173D03*
X61143Y-39527D03*
G54D19*
X74043Y-30819D03*
G54D20*
X73043Y-30819D03*
X74043Y-29819D03*
X73043Y-29819D03*
X74043Y-28819D03*
X73043Y-28819D03*
X74043Y-27819D03*
X73043Y-27819D03*
X74043Y-26819D03*
X73043Y-26819D03*
G54D27*
X74962Y-47165D03*
X59213Y-25512D03*
X74961Y-25512D03*
X59214Y-47165D03*
G54D28*
X60709Y-32106D03*
X60709Y-33090D03*
G54D29*
X60709Y-31122D03*
G54D28*
X60709Y-34074D03*
G54D30*
X63189Y-26929D03*
X61221Y-26929D03*
X67125Y-26930D03*
X65157Y-26930D03*
X71063Y-26929D03*
X69095Y-26929D03*
M02*
