%FSLAX34Y34*%
G04 Gerber Fmt 3.4, Leading zero omitted, Abs format*
G04 (created by PCBNEW (2014-03-19 BZR 4756)-product) date Wed 02 Jul 2014 23:40:44 BST*
%MOIN*%
G01*
G70*
G90*
G04 APERTURE LIST*
%ADD10C,0.005906*%
%ADD11C,0.007900*%
%ADD12C,0.007874*%
%ADD13C,0.075000*%
%ADD14R,0.075000X0.075000*%
%ADD15R,0.100000X0.088000*%
%ADD16O,0.100000X0.088000*%
%ADD17O,0.098700X0.138700*%
%ADD18R,0.080000X0.080000*%
%ADD19C,0.080000*%
%ADD20R,0.065000X0.045000*%
%ADD21R,0.043600X0.035700*%
%ADD22C,0.078300*%
%ADD23R,0.045000X0.065000*%
%ADD24O,0.106614X0.075118*%
%ADD25R,0.106614X0.075118*%
%ADD26O,0.051496X0.063307*%
%ADD27R,0.051496X0.063307*%
%ADD28O,0.059370X0.075118*%
%ADD29R,0.059370X0.075118*%
%ADD30R,0.035700X0.043600*%
%ADD31C,0.079055*%
%ADD32R,0.153900X0.153900*%
G04 APERTURE END LIST*
G54D10*
G54D11*
X66712Y-41712D02*
G75*
G03X67696Y-42696I984J0D01*
G74*
G01*
X83444Y-42696D02*
G75*
G03X84429Y-41712I0J984D01*
G74*
G01*
X84429Y-23996D02*
G75*
G03X83444Y-23011I-984J0D01*
G74*
G01*
X67696Y-23011D02*
G75*
G03X66712Y-23996I0J-984D01*
G74*
G01*
X66712Y-41712D02*
X66712Y-23996D01*
X83444Y-42696D02*
X67696Y-42696D01*
X83444Y-23011D02*
X67696Y-23011D01*
X84429Y-41712D02*
X84429Y-23996D01*
G54D12*
X67081Y-25707D02*
X67081Y-25527D01*
X67081Y-25617D02*
X67396Y-25617D01*
X67351Y-25587D01*
X67321Y-25557D01*
X67306Y-25527D01*
X67396Y-25902D02*
X67396Y-25932D01*
X67381Y-25962D01*
X67366Y-25977D01*
X67336Y-25992D01*
X67276Y-26007D01*
X67201Y-26007D01*
X67141Y-25992D01*
X67111Y-25977D01*
X67096Y-25962D01*
X67081Y-25932D01*
X67081Y-25902D01*
X67096Y-25872D01*
X67111Y-25857D01*
X67141Y-25842D01*
X67201Y-25827D01*
X67276Y-25827D01*
X67336Y-25842D01*
X67366Y-25857D01*
X67381Y-25872D01*
X67396Y-25902D01*
X67291Y-26097D02*
X67291Y-26217D01*
X67396Y-26142D02*
X67126Y-26142D01*
X67096Y-26157D01*
X67081Y-26187D01*
X67081Y-26217D01*
X67081Y-26367D02*
X67096Y-26337D01*
X67111Y-26322D01*
X67141Y-26307D01*
X67231Y-26307D01*
X67261Y-26322D01*
X67276Y-26337D01*
X67291Y-26367D01*
X67291Y-26412D01*
X67276Y-26442D01*
X67261Y-26457D01*
X67231Y-26472D01*
X67141Y-26472D01*
X67111Y-26457D01*
X67096Y-26442D01*
X67081Y-26412D01*
X67081Y-26367D01*
X67396Y-26577D02*
X67396Y-26787D01*
X67081Y-26652D01*
X67111Y-26907D02*
X67096Y-26922D01*
X67081Y-26907D01*
X67096Y-26892D01*
X67111Y-26907D01*
X67081Y-26907D01*
X67096Y-27192D02*
X67081Y-27162D01*
X67081Y-27102D01*
X67096Y-27072D01*
X67111Y-27057D01*
X67141Y-27042D01*
X67231Y-27042D01*
X67261Y-27057D01*
X67276Y-27072D01*
X67291Y-27102D01*
X67291Y-27162D01*
X67276Y-27192D01*
X67081Y-27372D02*
X67096Y-27342D01*
X67111Y-27327D01*
X67141Y-27312D01*
X67231Y-27312D01*
X67261Y-27327D01*
X67276Y-27342D01*
X67291Y-27372D01*
X67291Y-27417D01*
X67276Y-27447D01*
X67261Y-27462D01*
X67231Y-27477D01*
X67141Y-27477D01*
X67111Y-27462D01*
X67096Y-27447D01*
X67081Y-27417D01*
X67081Y-27372D01*
X67081Y-27612D02*
X67291Y-27612D01*
X67261Y-27612D02*
X67276Y-27627D01*
X67291Y-27657D01*
X67291Y-27702D01*
X67276Y-27732D01*
X67246Y-27747D01*
X67081Y-27747D01*
X67246Y-27747D02*
X67276Y-27762D01*
X67291Y-27792D01*
X67291Y-27837D01*
X67276Y-27867D01*
X67246Y-27882D01*
X67081Y-27882D01*
G54D13*
X82421Y-31200D03*
X81421Y-37201D03*
X80421Y-37201D03*
X79421Y-37201D03*
X78421Y-37201D03*
X77421Y-37201D03*
X76421Y-37201D03*
X75421Y-37201D03*
X74421Y-37201D03*
X73421Y-37201D03*
X72421Y-37201D03*
X71421Y-37201D03*
X70421Y-37201D03*
X69421Y-37201D03*
G54D14*
X68421Y-37201D03*
G54D13*
X68421Y-31200D03*
X69421Y-31200D03*
X70421Y-31200D03*
X71421Y-31200D03*
X72421Y-31200D03*
X73421Y-31200D03*
X74421Y-31200D03*
X75421Y-31200D03*
X76421Y-31200D03*
X77421Y-31200D03*
X78421Y-31200D03*
X79421Y-31200D03*
X80421Y-31200D03*
X81421Y-31200D03*
X82421Y-37201D03*
G54D15*
X77381Y-32751D03*
G54D16*
X77381Y-33751D03*
X77381Y-34751D03*
X77381Y-35751D03*
G54D17*
X72224Y-25767D03*
X70256Y-25767D03*
X80098Y-25767D03*
X78130Y-25767D03*
X76161Y-25767D03*
X74193Y-25767D03*
G54D18*
X83433Y-29618D03*
G54D19*
X82433Y-29618D03*
X83433Y-28618D03*
X82433Y-28618D03*
X83433Y-27618D03*
X82433Y-27618D03*
X83433Y-26618D03*
X82433Y-26618D03*
X83433Y-25618D03*
X82433Y-25618D03*
G54D20*
X81279Y-30044D03*
X81279Y-29444D03*
G54D21*
X80393Y-30078D03*
X80393Y-29724D03*
G54D22*
X68444Y-29311D03*
X69232Y-29311D03*
G54D23*
X79995Y-41712D03*
X80595Y-41712D03*
X79995Y-39625D03*
X80595Y-39625D03*
X75270Y-41712D03*
X75870Y-41712D03*
X70546Y-41712D03*
X71146Y-41712D03*
G54D24*
X69370Y-33720D03*
X69370Y-34704D03*
G54D25*
X69370Y-32736D03*
G54D24*
X69370Y-35688D03*
G54D26*
X80452Y-35649D03*
X80964Y-35649D03*
G54D27*
X79940Y-35649D03*
G54D26*
X80452Y-32657D03*
X80964Y-32657D03*
G54D27*
X79940Y-32657D03*
G54D28*
X73543Y-35649D03*
X72953Y-35649D03*
G54D29*
X74134Y-35649D03*
G54D28*
X72362Y-35649D03*
X73543Y-32736D03*
X72953Y-32736D03*
G54D29*
X74134Y-32736D03*
G54D28*
X72362Y-32736D03*
G54D30*
X73031Y-34468D03*
X73385Y-34468D03*
X73031Y-33976D03*
X73385Y-33976D03*
X81574Y-41712D03*
X81220Y-41712D03*
X81574Y-39625D03*
X81220Y-39625D03*
X76928Y-41712D03*
X76574Y-41712D03*
X72204Y-41712D03*
X71850Y-41712D03*
G54D31*
X72346Y-38625D03*
X72346Y-40625D03*
X69346Y-38625D03*
X69346Y-40625D03*
X77070Y-38625D03*
X77070Y-40625D03*
X74070Y-38625D03*
X74070Y-40625D03*
G54D32*
X67893Y-24192D03*
X83248Y-24192D03*
X83248Y-41515D03*
X67893Y-41515D03*
M02*
