%FSLAX34Y34*%
G04 Gerber Fmt 3.4, Leading zero omitted, Abs format*
G04 (created by PCBNEW (2014-03-19 BZR 4756)-product) date Sat 31 May 2014 18:24:07 BST*
%MOIN*%
G01*
G70*
G90*
G04 APERTURE LIST*
%ADD10C,0.005906*%
%ADD11C,0.007900*%
%ADD12C,0.007874*%
%ADD13C,0.015000*%
%ADD14C,0.009843*%
%ADD15C,0.005900*%
%ADD16C,0.012000*%
%ADD17C,0.005000*%
%ADD18C,0.008000*%
%ADD19C,0.010000*%
%ADD20C,0.004500*%
%ADD21C,0.003000*%
G04 APERTURE END LIST*
G54D10*
G54D11*
X52145Y-40433D02*
X67893Y-40433D01*
X51161Y-39448D02*
X51161Y-21732D01*
X51161Y-39448D02*
G75*
G03X52145Y-40433I984J0D01*
G74*
G01*
X52145Y-20748D02*
X67893Y-20748D01*
X52145Y-20748D02*
G75*
G03X51161Y-21732I0J-984D01*
G74*
G01*
X68877Y-39448D02*
X68877Y-21732D01*
X67893Y-40433D02*
G75*
G03X68877Y-39448I0J984D01*
G74*
G01*
X68877Y-21732D02*
G75*
G03X67893Y-20748I-984J0D01*
G74*
G01*
G54D12*
X64543Y-25410D02*
X64543Y-25095D01*
X64618Y-25095D01*
X64663Y-25110D01*
X64693Y-25140D01*
X64708Y-25170D01*
X64723Y-25230D01*
X64723Y-25275D01*
X64708Y-25335D01*
X64693Y-25365D01*
X64663Y-25395D01*
X64618Y-25410D01*
X64543Y-25410D01*
X65023Y-25410D02*
X64843Y-25410D01*
X64933Y-25410D02*
X64933Y-25095D01*
X64903Y-25140D01*
X64873Y-25170D01*
X64843Y-25185D01*
X65143Y-25125D02*
X65158Y-25110D01*
X65188Y-25095D01*
X65263Y-25095D01*
X65293Y-25110D01*
X65308Y-25125D01*
X65323Y-25155D01*
X65323Y-25185D01*
X65308Y-25230D01*
X65128Y-25410D01*
X65323Y-25410D01*
X64543Y-25929D02*
X64543Y-25614D01*
X64618Y-25614D01*
X64663Y-25629D01*
X64693Y-25659D01*
X64708Y-25689D01*
X64723Y-25749D01*
X64723Y-25794D01*
X64708Y-25854D01*
X64693Y-25884D01*
X64663Y-25914D01*
X64618Y-25929D01*
X64543Y-25929D01*
X65023Y-25929D02*
X64843Y-25929D01*
X64933Y-25929D02*
X64933Y-25614D01*
X64903Y-25659D01*
X64873Y-25689D01*
X64843Y-25704D01*
X65128Y-25614D02*
X65323Y-25614D01*
X65218Y-25734D01*
X65263Y-25734D01*
X65293Y-25749D01*
X65308Y-25764D01*
X65323Y-25794D01*
X65323Y-25869D01*
X65308Y-25899D01*
X65293Y-25914D01*
X65263Y-25929D01*
X65173Y-25929D01*
X65143Y-25914D01*
X65128Y-25899D01*
X64543Y-26449D02*
X64543Y-26134D01*
X64618Y-26134D01*
X64663Y-26149D01*
X64693Y-26179D01*
X64708Y-26209D01*
X64723Y-26269D01*
X64723Y-26314D01*
X64708Y-26374D01*
X64693Y-26404D01*
X64663Y-26434D01*
X64618Y-26449D01*
X64543Y-26449D01*
X64873Y-26449D02*
X64933Y-26449D01*
X64963Y-26434D01*
X64978Y-26419D01*
X65008Y-26374D01*
X65023Y-26314D01*
X65023Y-26194D01*
X65008Y-26164D01*
X64993Y-26149D01*
X64963Y-26134D01*
X64903Y-26134D01*
X64873Y-26149D01*
X64858Y-26164D01*
X64843Y-26194D01*
X64843Y-26269D01*
X64858Y-26299D01*
X64873Y-26314D01*
X64903Y-26329D01*
X64963Y-26329D01*
X64993Y-26314D01*
X65008Y-26299D01*
X65023Y-26269D01*
X60606Y-25410D02*
X60606Y-25095D01*
X60681Y-25095D01*
X60726Y-25110D01*
X60756Y-25140D01*
X60771Y-25170D01*
X60786Y-25230D01*
X60786Y-25275D01*
X60771Y-25335D01*
X60756Y-25365D01*
X60726Y-25395D01*
X60681Y-25410D01*
X60606Y-25410D01*
X60906Y-25125D02*
X60921Y-25110D01*
X60951Y-25095D01*
X61026Y-25095D01*
X61056Y-25110D01*
X61071Y-25125D01*
X61086Y-25155D01*
X61086Y-25185D01*
X61071Y-25230D01*
X60891Y-25410D01*
X61086Y-25410D01*
X60606Y-25929D02*
X60606Y-25614D01*
X60681Y-25614D01*
X60726Y-25629D01*
X60756Y-25659D01*
X60771Y-25689D01*
X60786Y-25749D01*
X60786Y-25794D01*
X60771Y-25854D01*
X60756Y-25884D01*
X60726Y-25914D01*
X60681Y-25929D01*
X60606Y-25929D01*
X61086Y-25929D02*
X60906Y-25929D01*
X60996Y-25929D02*
X60996Y-25614D01*
X60966Y-25659D01*
X60936Y-25689D01*
X60906Y-25704D01*
X61386Y-25929D02*
X61206Y-25929D01*
X61296Y-25929D02*
X61296Y-25614D01*
X61266Y-25659D01*
X61236Y-25689D01*
X61206Y-25704D01*
X60606Y-26449D02*
X60606Y-26134D01*
X60681Y-26134D01*
X60726Y-26149D01*
X60756Y-26179D01*
X60771Y-26209D01*
X60786Y-26269D01*
X60786Y-26314D01*
X60771Y-26374D01*
X60756Y-26404D01*
X60726Y-26434D01*
X60681Y-26449D01*
X60606Y-26449D01*
X61086Y-26449D02*
X60906Y-26449D01*
X60996Y-26449D02*
X60996Y-26134D01*
X60966Y-26179D01*
X60936Y-26209D01*
X60906Y-26224D01*
X61281Y-26134D02*
X61311Y-26134D01*
X61341Y-26149D01*
X61356Y-26164D01*
X61371Y-26194D01*
X61386Y-26254D01*
X61386Y-26329D01*
X61371Y-26389D01*
X61356Y-26419D01*
X61341Y-26434D01*
X61311Y-26449D01*
X61281Y-26449D01*
X61251Y-26434D01*
X61236Y-26419D01*
X61221Y-26389D01*
X61206Y-26329D01*
X61206Y-26254D01*
X61221Y-26194D01*
X61236Y-26164D01*
X61251Y-26149D01*
X61281Y-26134D01*
G54D13*
X61555Y-27125D02*
X61555Y-24448D01*
X64271Y-27125D02*
X61555Y-27125D01*
X64271Y-24448D02*
X64271Y-27125D01*
X61633Y-24448D02*
X64271Y-24448D01*
G54D12*
X63291Y-24590D02*
X63261Y-24575D01*
X63216Y-24575D01*
X63171Y-24590D01*
X63141Y-24620D01*
X63126Y-24650D01*
X63111Y-24710D01*
X63111Y-24755D01*
X63126Y-24815D01*
X63141Y-24845D01*
X63171Y-24875D01*
X63216Y-24890D01*
X63246Y-24890D01*
X63291Y-24875D01*
X63306Y-24860D01*
X63306Y-24755D01*
X63246Y-24755D01*
X63441Y-24890D02*
X63441Y-24575D01*
X63621Y-24890D01*
X63621Y-24575D01*
X63771Y-24890D02*
X63771Y-24575D01*
X63846Y-24575D01*
X63891Y-24590D01*
X63921Y-24620D01*
X63936Y-24650D01*
X63951Y-24710D01*
X63951Y-24755D01*
X63936Y-24815D01*
X63921Y-24845D01*
X63891Y-24875D01*
X63846Y-24890D01*
X63771Y-24890D01*
X63126Y-25410D02*
X63126Y-25095D01*
X63231Y-25320D01*
X63336Y-25095D01*
X63336Y-25410D01*
X63486Y-25410D02*
X63486Y-25095D01*
X63621Y-25395D02*
X63666Y-25410D01*
X63741Y-25410D01*
X63771Y-25395D01*
X63786Y-25380D01*
X63801Y-25350D01*
X63801Y-25320D01*
X63786Y-25290D01*
X63771Y-25275D01*
X63741Y-25260D01*
X63681Y-25245D01*
X63651Y-25230D01*
X63636Y-25215D01*
X63621Y-25185D01*
X63621Y-25155D01*
X63636Y-25125D01*
X63651Y-25110D01*
X63681Y-25095D01*
X63756Y-25095D01*
X63801Y-25110D01*
X63996Y-25095D02*
X64056Y-25095D01*
X64086Y-25110D01*
X64116Y-25140D01*
X64131Y-25200D01*
X64131Y-25305D01*
X64116Y-25365D01*
X64086Y-25395D01*
X64056Y-25410D01*
X63996Y-25410D01*
X63966Y-25395D01*
X63936Y-25365D01*
X63921Y-25305D01*
X63921Y-25200D01*
X63936Y-25140D01*
X63966Y-25110D01*
X63996Y-25095D01*
X63111Y-25914D02*
X63156Y-25929D01*
X63231Y-25929D01*
X63261Y-25914D01*
X63276Y-25899D01*
X63291Y-25869D01*
X63291Y-25839D01*
X63276Y-25809D01*
X63261Y-25794D01*
X63231Y-25779D01*
X63171Y-25764D01*
X63141Y-25749D01*
X63126Y-25734D01*
X63111Y-25704D01*
X63111Y-25674D01*
X63126Y-25644D01*
X63141Y-25629D01*
X63171Y-25614D01*
X63246Y-25614D01*
X63291Y-25629D01*
X63606Y-25899D02*
X63591Y-25914D01*
X63546Y-25929D01*
X63516Y-25929D01*
X63471Y-25914D01*
X63441Y-25884D01*
X63426Y-25854D01*
X63411Y-25794D01*
X63411Y-25749D01*
X63426Y-25689D01*
X63441Y-25659D01*
X63471Y-25629D01*
X63516Y-25614D01*
X63546Y-25614D01*
X63591Y-25629D01*
X63606Y-25644D01*
X63741Y-25929D02*
X63741Y-25614D01*
X63921Y-25929D02*
X63786Y-25749D01*
X63921Y-25614D02*
X63741Y-25794D01*
X63306Y-26419D02*
X63291Y-26434D01*
X63246Y-26449D01*
X63216Y-26449D01*
X63171Y-26434D01*
X63141Y-26404D01*
X63126Y-26374D01*
X63111Y-26314D01*
X63111Y-26269D01*
X63126Y-26209D01*
X63141Y-26179D01*
X63171Y-26149D01*
X63216Y-26134D01*
X63246Y-26134D01*
X63291Y-26149D01*
X63306Y-26164D01*
X63441Y-26284D02*
X63546Y-26284D01*
X63591Y-26449D02*
X63441Y-26449D01*
X63441Y-26134D01*
X63591Y-26134D01*
X63096Y-26654D02*
X63291Y-26654D01*
X63186Y-26774D01*
X63231Y-26774D01*
X63261Y-26789D01*
X63276Y-26804D01*
X63291Y-26834D01*
X63291Y-26909D01*
X63276Y-26939D01*
X63261Y-26954D01*
X63231Y-26969D01*
X63141Y-26969D01*
X63111Y-26954D01*
X63096Y-26939D01*
X63381Y-26654D02*
X63486Y-26969D01*
X63591Y-26654D01*
X63666Y-26654D02*
X63861Y-26654D01*
X63756Y-26774D01*
X63801Y-26774D01*
X63831Y-26789D01*
X63846Y-26804D01*
X63861Y-26834D01*
X63861Y-26909D01*
X63846Y-26939D01*
X63831Y-26954D01*
X63801Y-26969D01*
X63711Y-26969D01*
X63681Y-26954D01*
X63666Y-26939D01*
X61952Y-24590D02*
X61922Y-24575D01*
X61877Y-24575D01*
X61832Y-24590D01*
X61802Y-24620D01*
X61787Y-24650D01*
X61772Y-24710D01*
X61772Y-24755D01*
X61787Y-24815D01*
X61802Y-24845D01*
X61832Y-24875D01*
X61877Y-24890D01*
X61907Y-24890D01*
X61952Y-24875D01*
X61967Y-24860D01*
X61967Y-24755D01*
X61907Y-24755D01*
X62102Y-24890D02*
X62102Y-24575D01*
X62282Y-24890D01*
X62282Y-24575D01*
X62432Y-24890D02*
X62432Y-24575D01*
X62507Y-24575D01*
X62552Y-24590D01*
X62582Y-24620D01*
X62597Y-24650D01*
X62612Y-24710D01*
X62612Y-24755D01*
X62597Y-24815D01*
X62582Y-24845D01*
X62552Y-24875D01*
X62507Y-24890D01*
X62432Y-24890D01*
X61787Y-25410D02*
X61787Y-25095D01*
X62117Y-25410D02*
X62012Y-25260D01*
X61937Y-25410D02*
X61937Y-25095D01*
X62057Y-25095D01*
X62087Y-25110D01*
X62102Y-25125D01*
X62117Y-25155D01*
X62117Y-25200D01*
X62102Y-25230D01*
X62087Y-25245D01*
X62057Y-25260D01*
X61937Y-25260D01*
X62462Y-25440D02*
X62432Y-25425D01*
X62402Y-25395D01*
X62357Y-25350D01*
X62327Y-25335D01*
X62297Y-25335D01*
X62312Y-25410D02*
X62282Y-25395D01*
X62252Y-25365D01*
X62237Y-25305D01*
X62237Y-25200D01*
X62252Y-25140D01*
X62282Y-25110D01*
X62312Y-25095D01*
X62372Y-25095D01*
X62402Y-25110D01*
X62432Y-25140D01*
X62447Y-25200D01*
X62447Y-25305D01*
X62432Y-25365D01*
X62402Y-25395D01*
X62372Y-25410D01*
X62312Y-25410D01*
X61787Y-25929D02*
X61787Y-25614D01*
X61892Y-25839D01*
X61997Y-25614D01*
X61997Y-25929D01*
X62207Y-25614D02*
X62267Y-25614D01*
X62297Y-25629D01*
X62327Y-25659D01*
X62342Y-25719D01*
X62342Y-25824D01*
X62327Y-25884D01*
X62297Y-25914D01*
X62267Y-25929D01*
X62207Y-25929D01*
X62177Y-25914D01*
X62147Y-25884D01*
X62132Y-25824D01*
X62132Y-25719D01*
X62147Y-25659D01*
X62177Y-25629D01*
X62207Y-25614D01*
X62462Y-25914D02*
X62507Y-25929D01*
X62582Y-25929D01*
X62612Y-25914D01*
X62627Y-25899D01*
X62642Y-25869D01*
X62642Y-25839D01*
X62627Y-25809D01*
X62612Y-25794D01*
X62582Y-25779D01*
X62522Y-25764D01*
X62492Y-25749D01*
X62477Y-25734D01*
X62462Y-25704D01*
X62462Y-25674D01*
X62477Y-25644D01*
X62492Y-25629D01*
X62522Y-25614D01*
X62597Y-25614D01*
X62642Y-25629D01*
X62777Y-25929D02*
X62777Y-25614D01*
X61772Y-26434D02*
X61817Y-26449D01*
X61892Y-26449D01*
X61922Y-26434D01*
X61937Y-26419D01*
X61952Y-26389D01*
X61952Y-26359D01*
X61937Y-26329D01*
X61922Y-26314D01*
X61892Y-26299D01*
X61832Y-26284D01*
X61802Y-26269D01*
X61787Y-26254D01*
X61772Y-26224D01*
X61772Y-26194D01*
X61787Y-26164D01*
X61802Y-26149D01*
X61832Y-26134D01*
X61907Y-26134D01*
X61952Y-26149D01*
X62072Y-26434D02*
X62117Y-26449D01*
X62192Y-26449D01*
X62222Y-26434D01*
X62237Y-26419D01*
X62252Y-26389D01*
X62252Y-26359D01*
X62237Y-26329D01*
X62222Y-26314D01*
X62192Y-26299D01*
X62132Y-26284D01*
X62102Y-26269D01*
X62087Y-26254D01*
X62072Y-26224D01*
X62072Y-26194D01*
X62087Y-26164D01*
X62102Y-26149D01*
X62132Y-26134D01*
X62207Y-26134D01*
X62252Y-26149D01*
X61757Y-26654D02*
X61952Y-26654D01*
X61847Y-26774D01*
X61892Y-26774D01*
X61922Y-26789D01*
X61937Y-26804D01*
X61952Y-26834D01*
X61952Y-26909D01*
X61937Y-26939D01*
X61922Y-26954D01*
X61892Y-26969D01*
X61802Y-26969D01*
X61772Y-26954D01*
X61757Y-26939D01*
X62057Y-26759D02*
X62132Y-26969D01*
X62207Y-26759D01*
X62297Y-26654D02*
X62492Y-26654D01*
X62387Y-26774D01*
X62432Y-26774D01*
X62462Y-26789D01*
X62477Y-26804D01*
X62492Y-26834D01*
X62492Y-26909D01*
X62477Y-26939D01*
X62462Y-26954D01*
X62432Y-26969D01*
X62342Y-26969D01*
X62312Y-26954D01*
X62297Y-26939D01*
G54D14*
X64237Y-38357D02*
X64294Y-38376D01*
X64312Y-38395D01*
X64331Y-38432D01*
X64331Y-38488D01*
X64312Y-38526D01*
X64294Y-38545D01*
X64256Y-38563D01*
X64106Y-38563D01*
X64106Y-38170D01*
X64237Y-38170D01*
X64275Y-38188D01*
X64294Y-38207D01*
X64312Y-38245D01*
X64312Y-38282D01*
X64294Y-38320D01*
X64275Y-38338D01*
X64237Y-38357D01*
X64106Y-38357D01*
X64556Y-38563D02*
X64519Y-38545D01*
X64500Y-38507D01*
X64500Y-38170D01*
X64706Y-38563D02*
X64706Y-38301D01*
X64706Y-38170D02*
X64687Y-38188D01*
X64706Y-38207D01*
X64725Y-38188D01*
X64706Y-38170D01*
X64706Y-38207D01*
X64894Y-38301D02*
X64894Y-38563D01*
X64894Y-38338D02*
X64912Y-38320D01*
X64950Y-38301D01*
X65006Y-38301D01*
X65044Y-38320D01*
X65062Y-38357D01*
X65062Y-38563D01*
X65250Y-38563D02*
X65250Y-38170D01*
X65287Y-38413D02*
X65400Y-38563D01*
X65400Y-38301D02*
X65250Y-38451D01*
X64116Y-36231D02*
X64247Y-36231D01*
X64303Y-36437D02*
X64116Y-36437D01*
X64116Y-36044D01*
X64303Y-36044D01*
X64472Y-36437D02*
X64472Y-36175D01*
X64472Y-36250D02*
X64491Y-36212D01*
X64509Y-36194D01*
X64547Y-36175D01*
X64584Y-36175D01*
X64715Y-36437D02*
X64715Y-36175D01*
X64715Y-36250D02*
X64734Y-36212D01*
X64753Y-36194D01*
X64790Y-36175D01*
X64828Y-36175D01*
X65015Y-36437D02*
X64978Y-36419D01*
X64959Y-36400D01*
X64940Y-36362D01*
X64940Y-36250D01*
X64959Y-36212D01*
X64978Y-36194D01*
X65015Y-36175D01*
X65072Y-36175D01*
X65109Y-36194D01*
X65128Y-36212D01*
X65147Y-36250D01*
X65147Y-36362D01*
X65128Y-36400D01*
X65109Y-36419D01*
X65072Y-36437D01*
X65015Y-36437D01*
X65315Y-36437D02*
X65315Y-36175D01*
X65315Y-36250D02*
X65334Y-36212D01*
X65353Y-36194D01*
X65390Y-36175D01*
X65428Y-36175D01*
X57479Y-36921D02*
X57479Y-36734D01*
X57873Y-36734D01*
X57479Y-37052D02*
X57741Y-37052D01*
X57873Y-37052D02*
X57854Y-37034D01*
X57835Y-37052D01*
X57854Y-37071D01*
X57873Y-37052D01*
X57835Y-37052D01*
X57741Y-37409D02*
X57423Y-37409D01*
X57385Y-37390D01*
X57366Y-37371D01*
X57348Y-37334D01*
X57348Y-37277D01*
X57366Y-37240D01*
X57498Y-37409D02*
X57479Y-37371D01*
X57479Y-37296D01*
X57498Y-37259D01*
X57516Y-37240D01*
X57554Y-37221D01*
X57666Y-37221D01*
X57704Y-37240D01*
X57723Y-37259D01*
X57741Y-37296D01*
X57741Y-37371D01*
X57723Y-37409D01*
X57479Y-37596D02*
X57873Y-37596D01*
X57479Y-37765D02*
X57685Y-37765D01*
X57723Y-37746D01*
X57741Y-37709D01*
X57741Y-37652D01*
X57723Y-37615D01*
X57704Y-37596D01*
X57741Y-37896D02*
X57741Y-38046D01*
X57873Y-37952D02*
X57535Y-37952D01*
X57498Y-37971D01*
X57479Y-38008D01*
X57479Y-38046D01*
X52833Y-36640D02*
X53227Y-36640D01*
X53227Y-36790D01*
X53208Y-36827D01*
X53189Y-36846D01*
X53152Y-36865D01*
X53096Y-36865D01*
X53058Y-36846D01*
X53039Y-36827D01*
X53021Y-36790D01*
X53021Y-36640D01*
X53096Y-37202D02*
X52833Y-37202D01*
X53096Y-37034D02*
X52889Y-37034D01*
X52852Y-37052D01*
X52833Y-37090D01*
X52833Y-37146D01*
X52852Y-37184D01*
X52871Y-37202D01*
X52833Y-37390D02*
X53096Y-37390D01*
X53058Y-37390D02*
X53077Y-37409D01*
X53096Y-37446D01*
X53096Y-37502D01*
X53077Y-37540D01*
X53039Y-37559D01*
X52833Y-37559D01*
X53039Y-37559D02*
X53077Y-37577D01*
X53096Y-37615D01*
X53096Y-37671D01*
X53077Y-37709D01*
X53039Y-37727D01*
X52833Y-37727D01*
X53096Y-37915D02*
X52702Y-37915D01*
X53077Y-37915D02*
X53096Y-37952D01*
X53096Y-38027D01*
X53077Y-38065D01*
X53058Y-38083D01*
X53021Y-38102D01*
X52908Y-38102D01*
X52871Y-38083D01*
X52852Y-38065D01*
X52833Y-38027D01*
X52833Y-37952D01*
X52852Y-37915D01*
G54D15*
X54766Y-26614D02*
X54631Y-26614D01*
X54698Y-26614D02*
X54698Y-26220D01*
X54676Y-26277D01*
X54654Y-26314D01*
X54631Y-26333D01*
X54912Y-26220D02*
X54934Y-26220D01*
X54957Y-26239D01*
X54968Y-26258D01*
X54979Y-26295D01*
X54991Y-26370D01*
X54991Y-26464D01*
X54979Y-26539D01*
X54968Y-26577D01*
X54957Y-26596D01*
X54934Y-26614D01*
X54912Y-26614D01*
X54890Y-26596D01*
X54878Y-26577D01*
X54867Y-26539D01*
X54856Y-26464D01*
X54856Y-26370D01*
X54867Y-26295D01*
X54878Y-26258D01*
X54890Y-26239D01*
X54912Y-26220D01*
X55058Y-26352D02*
X55148Y-26352D01*
X55092Y-26220D02*
X55092Y-26558D01*
X55103Y-26596D01*
X55126Y-26614D01*
X55148Y-26614D01*
X55260Y-26614D02*
X55238Y-26596D01*
X55227Y-26577D01*
X55215Y-26539D01*
X55215Y-26427D01*
X55227Y-26389D01*
X55238Y-26370D01*
X55260Y-26352D01*
X55294Y-26352D01*
X55317Y-26370D01*
X55328Y-26389D01*
X55339Y-26427D01*
X55339Y-26539D01*
X55328Y-26577D01*
X55317Y-26596D01*
X55294Y-26614D01*
X55260Y-26614D01*
X55418Y-26220D02*
X55575Y-26220D01*
X55474Y-26614D01*
X55665Y-26577D02*
X55676Y-26596D01*
X55665Y-26614D01*
X55654Y-26596D01*
X55665Y-26577D01*
X55665Y-26614D01*
X55878Y-26596D02*
X55856Y-26614D01*
X55811Y-26614D01*
X55789Y-26596D01*
X55777Y-26577D01*
X55766Y-26539D01*
X55766Y-26427D01*
X55777Y-26389D01*
X55789Y-26370D01*
X55811Y-26352D01*
X55856Y-26352D01*
X55878Y-26370D01*
X56013Y-26614D02*
X55991Y-26596D01*
X55980Y-26577D01*
X55968Y-26539D01*
X55968Y-26427D01*
X55980Y-26389D01*
X55991Y-26370D01*
X56013Y-26352D01*
X56047Y-26352D01*
X56070Y-26370D01*
X56081Y-26389D01*
X56092Y-26427D01*
X56092Y-26539D01*
X56081Y-26577D01*
X56070Y-26596D01*
X56047Y-26614D01*
X56013Y-26614D01*
X56193Y-26614D02*
X56193Y-26352D01*
X56193Y-26389D02*
X56204Y-26370D01*
X56227Y-26352D01*
X56261Y-26352D01*
X56283Y-26370D01*
X56294Y-26408D01*
X56294Y-26614D01*
X56294Y-26408D02*
X56306Y-26370D01*
X56328Y-26352D01*
X56362Y-26352D01*
X56384Y-26370D01*
X56395Y-26408D01*
X56395Y-26614D01*
X54642Y-27225D02*
X54642Y-26831D01*
X54642Y-27019D02*
X54777Y-27019D01*
X54777Y-27225D02*
X54777Y-26831D01*
X54867Y-26962D02*
X54923Y-27225D01*
X54979Y-26962D02*
X54923Y-27225D01*
X54901Y-27319D01*
X54890Y-27338D01*
X54867Y-27356D01*
X55170Y-27225D02*
X55170Y-26831D01*
X55170Y-27206D02*
X55148Y-27225D01*
X55103Y-27225D01*
X55081Y-27206D01*
X55069Y-27187D01*
X55058Y-27150D01*
X55058Y-27037D01*
X55069Y-27000D01*
X55081Y-26981D01*
X55103Y-26962D01*
X55148Y-26962D01*
X55170Y-26981D01*
X55283Y-27225D02*
X55283Y-26962D01*
X55283Y-27037D02*
X55294Y-27000D01*
X55305Y-26981D01*
X55328Y-26962D01*
X55350Y-26962D01*
X55463Y-27225D02*
X55440Y-27206D01*
X55429Y-27187D01*
X55418Y-27150D01*
X55418Y-27037D01*
X55429Y-27000D01*
X55440Y-26981D01*
X55463Y-26962D01*
X55496Y-26962D01*
X55519Y-26981D01*
X55530Y-27000D01*
X55541Y-27037D01*
X55541Y-27150D01*
X55530Y-27187D01*
X55519Y-27206D01*
X55496Y-27225D01*
X55463Y-27225D01*
X55642Y-26962D02*
X55642Y-27356D01*
X55642Y-26981D02*
X55665Y-26962D01*
X55710Y-26962D01*
X55732Y-26981D01*
X55744Y-27000D01*
X55755Y-27037D01*
X55755Y-27150D01*
X55744Y-27187D01*
X55732Y-27206D01*
X55710Y-27225D01*
X55665Y-27225D01*
X55642Y-27206D01*
X55890Y-27225D02*
X55867Y-27206D01*
X55856Y-27187D01*
X55845Y-27150D01*
X55845Y-27037D01*
X55856Y-27000D01*
X55867Y-26981D01*
X55890Y-26962D01*
X55923Y-26962D01*
X55946Y-26981D01*
X55957Y-27000D01*
X55968Y-27037D01*
X55968Y-27150D01*
X55957Y-27187D01*
X55946Y-27206D01*
X55923Y-27225D01*
X55890Y-27225D01*
X56070Y-26962D02*
X56070Y-27225D01*
X56070Y-27000D02*
X56081Y-26981D01*
X56103Y-26962D01*
X56137Y-26962D01*
X56159Y-26981D01*
X56171Y-27019D01*
X56171Y-27225D01*
X56283Y-27225D02*
X56283Y-26962D01*
X56283Y-26831D02*
X56272Y-26850D01*
X56283Y-26869D01*
X56294Y-26850D01*
X56283Y-26831D01*
X56283Y-26869D01*
X56497Y-27206D02*
X56474Y-27225D01*
X56429Y-27225D01*
X56407Y-27206D01*
X56395Y-27187D01*
X56384Y-27150D01*
X56384Y-27037D01*
X56395Y-27000D01*
X56407Y-26981D01*
X56429Y-26962D01*
X56474Y-26962D01*
X56497Y-26981D01*
X56586Y-27206D02*
X56609Y-27225D01*
X56654Y-27225D01*
X56676Y-27206D01*
X56688Y-27169D01*
X56688Y-27150D01*
X56676Y-27112D01*
X56654Y-27094D01*
X56620Y-27094D01*
X56598Y-27075D01*
X56586Y-27037D01*
X56586Y-27019D01*
X56598Y-26981D01*
X56620Y-26962D01*
X56654Y-26962D01*
X56676Y-26981D01*
X57103Y-27187D02*
X57092Y-27206D01*
X57058Y-27225D01*
X57036Y-27225D01*
X57002Y-27206D01*
X56980Y-27169D01*
X56969Y-27131D01*
X56957Y-27056D01*
X56957Y-27000D01*
X56969Y-26925D01*
X56980Y-26887D01*
X57002Y-26850D01*
X57036Y-26831D01*
X57058Y-26831D01*
X57092Y-26850D01*
X57103Y-26869D01*
X57238Y-27225D02*
X57216Y-27206D01*
X57205Y-27187D01*
X57193Y-27150D01*
X57193Y-27037D01*
X57205Y-27000D01*
X57216Y-26981D01*
X57238Y-26962D01*
X57272Y-26962D01*
X57294Y-26981D01*
X57306Y-27000D01*
X57317Y-27037D01*
X57317Y-27150D01*
X57306Y-27187D01*
X57294Y-27206D01*
X57272Y-27225D01*
X57238Y-27225D01*
X57418Y-26962D02*
X57418Y-27225D01*
X57418Y-27000D02*
X57429Y-26981D01*
X57452Y-26962D01*
X57486Y-26962D01*
X57508Y-26981D01*
X57519Y-27019D01*
X57519Y-27225D01*
X57598Y-26962D02*
X57688Y-26962D01*
X57632Y-26831D02*
X57632Y-27169D01*
X57643Y-27206D01*
X57665Y-27225D01*
X57688Y-27225D01*
X57766Y-27225D02*
X57766Y-26962D01*
X57766Y-27037D02*
X57778Y-27000D01*
X57789Y-26981D01*
X57811Y-26962D01*
X57834Y-26962D01*
X57946Y-27225D02*
X57924Y-27206D01*
X57913Y-27187D01*
X57901Y-27150D01*
X57901Y-27037D01*
X57913Y-27000D01*
X57924Y-26981D01*
X57946Y-26962D01*
X57980Y-26962D01*
X58002Y-26981D01*
X58014Y-27000D01*
X58025Y-27037D01*
X58025Y-27150D01*
X58014Y-27187D01*
X58002Y-27206D01*
X57980Y-27225D01*
X57946Y-27225D01*
X58160Y-27225D02*
X58137Y-27206D01*
X58126Y-27169D01*
X58126Y-26831D01*
X58283Y-27225D02*
X58261Y-27206D01*
X58250Y-27169D01*
X58250Y-26831D01*
X58463Y-27206D02*
X58441Y-27225D01*
X58396Y-27225D01*
X58373Y-27206D01*
X58362Y-27169D01*
X58362Y-27019D01*
X58373Y-26981D01*
X58396Y-26962D01*
X58441Y-26962D01*
X58463Y-26981D01*
X58474Y-27019D01*
X58474Y-27056D01*
X58362Y-27094D01*
X58576Y-27225D02*
X58576Y-26962D01*
X58576Y-27037D02*
X58587Y-27000D01*
X58598Y-26981D01*
X58621Y-26962D01*
X58643Y-26962D01*
X54609Y-27442D02*
X54687Y-27836D01*
X54766Y-27442D01*
X54934Y-27817D02*
X54912Y-27836D01*
X54867Y-27836D01*
X54845Y-27817D01*
X54833Y-27779D01*
X54833Y-27629D01*
X54845Y-27592D01*
X54867Y-27573D01*
X54912Y-27573D01*
X54934Y-27592D01*
X54946Y-27629D01*
X54946Y-27667D01*
X54833Y-27704D01*
X55047Y-27836D02*
X55047Y-27573D01*
X55047Y-27648D02*
X55058Y-27610D01*
X55069Y-27592D01*
X55092Y-27573D01*
X55114Y-27573D01*
X55182Y-27817D02*
X55204Y-27836D01*
X55249Y-27836D01*
X55272Y-27817D01*
X55283Y-27779D01*
X55283Y-27761D01*
X55272Y-27723D01*
X55249Y-27704D01*
X55215Y-27704D01*
X55193Y-27685D01*
X55182Y-27648D01*
X55182Y-27629D01*
X55193Y-27592D01*
X55215Y-27573D01*
X55249Y-27573D01*
X55272Y-27592D01*
X55384Y-27836D02*
X55384Y-27573D01*
X55384Y-27442D02*
X55373Y-27460D01*
X55384Y-27479D01*
X55395Y-27460D01*
X55384Y-27442D01*
X55384Y-27479D01*
X55530Y-27836D02*
X55508Y-27817D01*
X55496Y-27798D01*
X55485Y-27761D01*
X55485Y-27648D01*
X55496Y-27610D01*
X55508Y-27592D01*
X55530Y-27573D01*
X55564Y-27573D01*
X55586Y-27592D01*
X55598Y-27610D01*
X55609Y-27648D01*
X55609Y-27761D01*
X55598Y-27798D01*
X55586Y-27817D01*
X55564Y-27836D01*
X55530Y-27836D01*
X55710Y-27573D02*
X55710Y-27836D01*
X55710Y-27610D02*
X55721Y-27592D01*
X55744Y-27573D01*
X55777Y-27573D01*
X55800Y-27592D01*
X55811Y-27629D01*
X55811Y-27836D01*
X55923Y-27798D02*
X55935Y-27817D01*
X55923Y-27836D01*
X55912Y-27817D01*
X55923Y-27798D01*
X55923Y-27836D01*
X55923Y-27592D02*
X55935Y-27610D01*
X55923Y-27629D01*
X55912Y-27610D01*
X55923Y-27592D01*
X55923Y-27629D01*
X56261Y-27442D02*
X56283Y-27442D01*
X56306Y-27460D01*
X56317Y-27479D01*
X56328Y-27517D01*
X56339Y-27592D01*
X56339Y-27685D01*
X56328Y-27761D01*
X56317Y-27798D01*
X56306Y-27817D01*
X56283Y-27836D01*
X56261Y-27836D01*
X56238Y-27817D01*
X56227Y-27798D01*
X56216Y-27761D01*
X56204Y-27685D01*
X56204Y-27592D01*
X56216Y-27517D01*
X56227Y-27479D01*
X56238Y-27460D01*
X56261Y-27442D01*
X56440Y-27798D02*
X56452Y-27817D01*
X56440Y-27836D01*
X56429Y-27817D01*
X56440Y-27798D01*
X56440Y-27836D01*
X56598Y-27442D02*
X56620Y-27442D01*
X56643Y-27460D01*
X56654Y-27479D01*
X56665Y-27517D01*
X56676Y-27592D01*
X56676Y-27685D01*
X56665Y-27761D01*
X56654Y-27798D01*
X56643Y-27817D01*
X56620Y-27836D01*
X56598Y-27836D01*
X56575Y-27817D01*
X56564Y-27798D01*
X56553Y-27761D01*
X56542Y-27685D01*
X56542Y-27592D01*
X56553Y-27517D01*
X56564Y-27479D01*
X56575Y-27460D01*
X56598Y-27442D01*
X56766Y-27479D02*
X56778Y-27460D01*
X56800Y-27442D01*
X56856Y-27442D01*
X56879Y-27460D01*
X56890Y-27479D01*
X56901Y-27517D01*
X56901Y-27554D01*
X56890Y-27610D01*
X56755Y-27836D01*
X56901Y-27836D01*
G54D16*
X66381Y-27854D02*
X66381Y-22854D01*
X66381Y-22854D02*
X68381Y-22854D01*
X68381Y-22854D02*
X68381Y-27854D01*
X68381Y-27854D02*
X66381Y-27854D01*
X65767Y-29799D02*
G75*
G03X66948Y-30980I1181J0D01*
G74*
G01*
X52448Y-35425D02*
X52385Y-35425D01*
X53377Y-28389D02*
X52381Y-28389D01*
X52381Y-28389D02*
X52381Y-29389D01*
X53381Y-29389D02*
X52381Y-29389D01*
X53377Y-34421D02*
X52385Y-34421D01*
X52385Y-34421D02*
X52385Y-35421D01*
X53374Y-35425D02*
X52425Y-35425D01*
X67383Y-28390D02*
X67383Y-29390D01*
X53383Y-28390D02*
X67383Y-28390D01*
X67383Y-29390D02*
X53383Y-29390D01*
X67374Y-35421D02*
X53374Y-35421D01*
X53374Y-34421D02*
X67374Y-34421D01*
X67374Y-34421D02*
X67374Y-35421D01*
G54D10*
X66082Y-28031D02*
X66082Y-26929D01*
X66082Y-26929D02*
X65374Y-26929D01*
X65374Y-26929D02*
X65374Y-28031D01*
X65374Y-28031D02*
X66082Y-28031D01*
X65108Y-28021D02*
X65108Y-27253D01*
X65108Y-27253D02*
X64616Y-27253D01*
X64616Y-27253D02*
X64616Y-28021D01*
X64616Y-28021D02*
X65108Y-28021D01*
X64192Y-39094D02*
X64055Y-39094D01*
X64055Y-39094D02*
X64055Y-39803D01*
X64055Y-39803D02*
X64192Y-39803D01*
X64192Y-39803D02*
X65295Y-39803D01*
X65295Y-39803D02*
X65295Y-39094D01*
X65295Y-39094D02*
X64192Y-39094D01*
X64192Y-39094D02*
X64192Y-39803D01*
X64192Y-37007D02*
X64055Y-37007D01*
X64055Y-37007D02*
X64055Y-37716D01*
X64055Y-37716D02*
X64192Y-37716D01*
X64192Y-37716D02*
X65295Y-37716D01*
X65295Y-37716D02*
X65295Y-37007D01*
X65295Y-37007D02*
X64192Y-37007D01*
X64192Y-37007D02*
X64192Y-37716D01*
X59468Y-39094D02*
X59330Y-39094D01*
X59330Y-39094D02*
X59330Y-39803D01*
X59330Y-39803D02*
X59468Y-39803D01*
X59468Y-39803D02*
X60570Y-39803D01*
X60570Y-39803D02*
X60570Y-39094D01*
X60570Y-39094D02*
X59468Y-39094D01*
X59468Y-39094D02*
X59468Y-39803D01*
X54744Y-39094D02*
X54606Y-39094D01*
X54606Y-39094D02*
X54606Y-39803D01*
X54606Y-39803D02*
X54744Y-39803D01*
X54744Y-39803D02*
X55846Y-39803D01*
X55846Y-39803D02*
X55846Y-39094D01*
X55846Y-39094D02*
X54744Y-39094D01*
X54744Y-39094D02*
X54744Y-39803D01*
X66230Y-39202D02*
X65462Y-39202D01*
X65462Y-39202D02*
X65462Y-39694D01*
X65462Y-39694D02*
X66230Y-39694D01*
X66230Y-39694D02*
X66230Y-39202D01*
X66230Y-37116D02*
X65462Y-37116D01*
X65462Y-37116D02*
X65462Y-37608D01*
X65462Y-37608D02*
X66230Y-37608D01*
X66230Y-37608D02*
X66230Y-37116D01*
X56781Y-39202D02*
X56013Y-39202D01*
X56013Y-39202D02*
X56013Y-39694D01*
X56013Y-39694D02*
X56781Y-39694D01*
X56781Y-39694D02*
X56781Y-39202D01*
X61545Y-39202D02*
X60777Y-39202D01*
X60777Y-39202D02*
X60777Y-39694D01*
X60777Y-39694D02*
X61545Y-39694D01*
X61545Y-39694D02*
X61545Y-39202D01*
G54D17*
X56295Y-37362D02*
G75*
G03X56295Y-37362I-1000J0D01*
G74*
G01*
X53795Y-35862D02*
X56795Y-35862D01*
X56795Y-35862D02*
X56795Y-38862D01*
X56795Y-38862D02*
X53795Y-38862D01*
X53795Y-35862D02*
X53795Y-38862D01*
X61019Y-37362D02*
G75*
G03X61019Y-37362I-1000J0D01*
G74*
G01*
X58519Y-35862D02*
X61519Y-35862D01*
X61519Y-35862D02*
X61519Y-38862D01*
X61519Y-38862D02*
X58519Y-38862D01*
X58519Y-35862D02*
X58519Y-38862D01*
G54D16*
G54D18*
X66407Y-22261D02*
X66407Y-22585D01*
X66426Y-22623D01*
X66445Y-22642D01*
X66484Y-22661D01*
X66560Y-22661D01*
X66598Y-22642D01*
X66617Y-22623D01*
X66636Y-22585D01*
X66636Y-22261D01*
X67036Y-22661D02*
X66807Y-22661D01*
X66922Y-22661D02*
X66922Y-22261D01*
X66884Y-22318D01*
X66845Y-22356D01*
X66807Y-22375D01*
G54D19*
X59856Y-28013D02*
X60046Y-28013D01*
X59818Y-28184D02*
X59951Y-27584D01*
X60084Y-28184D01*
X60446Y-28184D02*
X60313Y-27899D01*
X60218Y-28184D02*
X60218Y-27584D01*
X60370Y-27584D01*
X60408Y-27613D01*
X60427Y-27641D01*
X60446Y-27699D01*
X60446Y-27784D01*
X60427Y-27841D01*
X60408Y-27870D01*
X60370Y-27899D01*
X60218Y-27899D01*
X60618Y-28184D02*
X60618Y-27584D01*
X60713Y-27584D01*
X60770Y-27613D01*
X60808Y-27670D01*
X60827Y-27727D01*
X60846Y-27841D01*
X60846Y-27927D01*
X60827Y-28041D01*
X60808Y-28099D01*
X60770Y-28156D01*
X60713Y-28184D01*
X60618Y-28184D01*
X61018Y-27584D02*
X61018Y-28070D01*
X61037Y-28127D01*
X61056Y-28156D01*
X61094Y-28184D01*
X61170Y-28184D01*
X61208Y-28156D01*
X61227Y-28127D01*
X61246Y-28070D01*
X61246Y-27584D01*
X61437Y-28184D02*
X61437Y-27584D01*
X61627Y-28184D02*
X61627Y-27584D01*
X61856Y-28184D01*
X61856Y-27584D01*
X62122Y-27584D02*
X62198Y-27584D01*
X62237Y-27613D01*
X62275Y-27670D01*
X62294Y-27784D01*
X62294Y-27984D01*
X62275Y-28099D01*
X62237Y-28156D01*
X62198Y-28184D01*
X62122Y-28184D01*
X62084Y-28156D01*
X62046Y-28099D01*
X62027Y-27984D01*
X62027Y-27784D01*
X62046Y-27670D01*
X62084Y-27613D01*
X62122Y-27584D01*
X62770Y-28184D02*
X62770Y-27584D01*
X62998Y-28184D01*
X62998Y-27584D01*
X63170Y-28013D02*
X63360Y-28013D01*
X63132Y-28184D02*
X63265Y-27584D01*
X63398Y-28184D01*
X63532Y-28184D02*
X63532Y-27584D01*
X63760Y-28184D01*
X63760Y-27584D01*
X64027Y-27584D02*
X64103Y-27584D01*
X64141Y-27613D01*
X64179Y-27670D01*
X64198Y-27784D01*
X64198Y-27984D01*
X64179Y-28099D01*
X64141Y-28156D01*
X64103Y-28184D01*
X64027Y-28184D01*
X63989Y-28156D01*
X63951Y-28099D01*
X63932Y-27984D01*
X63932Y-27784D01*
X63951Y-27670D01*
X63989Y-27613D01*
X64027Y-27584D01*
G54D20*
X65698Y-26764D02*
X65689Y-26773D01*
X65664Y-26783D01*
X65646Y-26783D01*
X65621Y-26773D01*
X65604Y-26754D01*
X65595Y-26735D01*
X65586Y-26697D01*
X65586Y-26669D01*
X65595Y-26631D01*
X65604Y-26611D01*
X65621Y-26592D01*
X65646Y-26583D01*
X65664Y-26583D01*
X65689Y-26592D01*
X65698Y-26602D01*
X65869Y-26783D02*
X65766Y-26783D01*
X65818Y-26783D02*
X65818Y-26583D01*
X65801Y-26611D01*
X65784Y-26631D01*
X65766Y-26640D01*
G54D21*
X64842Y-27050D02*
X64836Y-27056D01*
X64819Y-27062D01*
X64807Y-27062D01*
X64790Y-27056D01*
X64779Y-27045D01*
X64773Y-27033D01*
X64767Y-27010D01*
X64767Y-26993D01*
X64773Y-26970D01*
X64779Y-26959D01*
X64790Y-26947D01*
X64807Y-26942D01*
X64819Y-26942D01*
X64836Y-26947D01*
X64842Y-26953D01*
X64887Y-26953D02*
X64893Y-26947D01*
X64905Y-26942D01*
X64933Y-26942D01*
X64945Y-26947D01*
X64950Y-26953D01*
X64956Y-26965D01*
X64956Y-26976D01*
X64950Y-26993D01*
X64882Y-27062D01*
X64956Y-27062D01*
G54D20*
X64611Y-38968D02*
X64611Y-38768D01*
X64654Y-38768D01*
X64679Y-38777D01*
X64696Y-38797D01*
X64705Y-38816D01*
X64714Y-38854D01*
X64714Y-38882D01*
X64705Y-38920D01*
X64696Y-38939D01*
X64679Y-38958D01*
X64654Y-38968D01*
X64611Y-38968D01*
X64885Y-38968D02*
X64782Y-38968D01*
X64834Y-38968D02*
X64834Y-38768D01*
X64816Y-38797D01*
X64799Y-38816D01*
X64782Y-38825D01*
X64611Y-36881D02*
X64611Y-36681D01*
X64654Y-36681D01*
X64679Y-36691D01*
X64696Y-36710D01*
X64705Y-36729D01*
X64714Y-36767D01*
X64714Y-36796D01*
X64705Y-36834D01*
X64696Y-36853D01*
X64679Y-36872D01*
X64654Y-36881D01*
X64611Y-36881D01*
X64782Y-36700D02*
X64791Y-36691D01*
X64808Y-36681D01*
X64851Y-36681D01*
X64868Y-36691D01*
X64876Y-36700D01*
X64885Y-36719D01*
X64885Y-36738D01*
X64876Y-36767D01*
X64774Y-36881D01*
X64885Y-36881D01*
X58902Y-39539D02*
X58902Y-39339D01*
X58945Y-39339D01*
X58971Y-39348D01*
X58988Y-39367D01*
X58996Y-39386D01*
X59005Y-39425D01*
X59005Y-39453D01*
X58996Y-39491D01*
X58988Y-39510D01*
X58971Y-39529D01*
X58945Y-39539D01*
X58902Y-39539D01*
X59065Y-39339D02*
X59176Y-39339D01*
X59116Y-39415D01*
X59142Y-39415D01*
X59159Y-39425D01*
X59168Y-39434D01*
X59176Y-39453D01*
X59176Y-39501D01*
X59168Y-39520D01*
X59159Y-39529D01*
X59142Y-39539D01*
X59091Y-39539D01*
X59074Y-39529D01*
X59065Y-39520D01*
X54178Y-39539D02*
X54178Y-39339D01*
X54221Y-39339D01*
X54246Y-39348D01*
X54263Y-39367D01*
X54272Y-39386D01*
X54281Y-39425D01*
X54281Y-39453D01*
X54272Y-39491D01*
X54263Y-39510D01*
X54246Y-39529D01*
X54221Y-39539D01*
X54178Y-39539D01*
X54435Y-39405D02*
X54435Y-39539D01*
X54392Y-39329D02*
X54349Y-39472D01*
X54461Y-39472D01*
G54D21*
X65826Y-39079D02*
X65786Y-39022D01*
X65757Y-39079D02*
X65757Y-38959D01*
X65803Y-38959D01*
X65815Y-38965D01*
X65820Y-38971D01*
X65826Y-38982D01*
X65826Y-38999D01*
X65820Y-39011D01*
X65815Y-39017D01*
X65803Y-39022D01*
X65757Y-39022D01*
X65935Y-38959D02*
X65877Y-38959D01*
X65872Y-39017D01*
X65877Y-39011D01*
X65889Y-39005D01*
X65917Y-39005D01*
X65929Y-39011D01*
X65935Y-39017D01*
X65940Y-39028D01*
X65940Y-39057D01*
X65935Y-39068D01*
X65929Y-39074D01*
X65917Y-39079D01*
X65889Y-39079D01*
X65877Y-39074D01*
X65872Y-39068D01*
X65826Y-36993D02*
X65786Y-36936D01*
X65757Y-36993D02*
X65757Y-36873D01*
X65803Y-36873D01*
X65815Y-36878D01*
X65820Y-36884D01*
X65826Y-36896D01*
X65826Y-36913D01*
X65820Y-36924D01*
X65815Y-36930D01*
X65803Y-36936D01*
X65757Y-36936D01*
X65929Y-36873D02*
X65906Y-36873D01*
X65895Y-36878D01*
X65889Y-36884D01*
X65877Y-36901D01*
X65872Y-36924D01*
X65872Y-36970D01*
X65877Y-36981D01*
X65883Y-36987D01*
X65895Y-36993D01*
X65917Y-36993D01*
X65929Y-36987D01*
X65935Y-36981D01*
X65940Y-36970D01*
X65940Y-36941D01*
X65935Y-36930D01*
X65929Y-36924D01*
X65917Y-36918D01*
X65895Y-36918D01*
X65883Y-36924D01*
X65877Y-36930D01*
X65872Y-36941D01*
X56377Y-39079D02*
X56337Y-39022D01*
X56309Y-39079D02*
X56309Y-38959D01*
X56354Y-38959D01*
X56366Y-38965D01*
X56371Y-38971D01*
X56377Y-38982D01*
X56377Y-38999D01*
X56371Y-39011D01*
X56366Y-39017D01*
X56354Y-39022D01*
X56309Y-39022D01*
X56417Y-38959D02*
X56497Y-38959D01*
X56446Y-39079D01*
X61141Y-39079D02*
X61101Y-39022D01*
X61072Y-39079D02*
X61072Y-38959D01*
X61118Y-38959D01*
X61129Y-38965D01*
X61135Y-38971D01*
X61141Y-38982D01*
X61141Y-38999D01*
X61135Y-39011D01*
X61129Y-39017D01*
X61118Y-39022D01*
X61072Y-39022D01*
X61209Y-39011D02*
X61198Y-39005D01*
X61192Y-38999D01*
X61187Y-38988D01*
X61187Y-38982D01*
X61192Y-38971D01*
X61198Y-38965D01*
X61209Y-38959D01*
X61232Y-38959D01*
X61244Y-38965D01*
X61249Y-38971D01*
X61255Y-38982D01*
X61255Y-38988D01*
X61249Y-38999D01*
X61244Y-39005D01*
X61232Y-39011D01*
X61209Y-39011D01*
X61198Y-39017D01*
X61192Y-39022D01*
X61187Y-39034D01*
X61187Y-39057D01*
X61192Y-39068D01*
X61198Y-39074D01*
X61209Y-39079D01*
X61232Y-39079D01*
X61244Y-39074D01*
X61249Y-39068D01*
X61255Y-39057D01*
X61255Y-39034D01*
X61249Y-39022D01*
X61244Y-39017D01*
X61232Y-39011D01*
G54D18*
X54761Y-37224D02*
X54819Y-37243D01*
X54914Y-37243D01*
X54952Y-37224D01*
X54971Y-37205D01*
X54990Y-37166D01*
X54990Y-37128D01*
X54971Y-37090D01*
X54952Y-37071D01*
X54914Y-37052D01*
X54838Y-37033D01*
X54800Y-37014D01*
X54780Y-36995D01*
X54761Y-36957D01*
X54761Y-36919D01*
X54780Y-36881D01*
X54800Y-36862D01*
X54838Y-36843D01*
X54933Y-36843D01*
X54990Y-36862D01*
X55123Y-36843D02*
X55219Y-37243D01*
X55295Y-36957D01*
X55371Y-37243D01*
X55466Y-36843D01*
X55828Y-37243D02*
X55600Y-37243D01*
X55714Y-37243D02*
X55714Y-36843D01*
X55676Y-36900D01*
X55638Y-36938D01*
X55600Y-36957D01*
X59486Y-37224D02*
X59543Y-37243D01*
X59638Y-37243D01*
X59676Y-37224D01*
X59695Y-37205D01*
X59714Y-37166D01*
X59714Y-37128D01*
X59695Y-37090D01*
X59676Y-37071D01*
X59638Y-37052D01*
X59562Y-37033D01*
X59524Y-37014D01*
X59505Y-36995D01*
X59486Y-36957D01*
X59486Y-36919D01*
X59505Y-36881D01*
X59524Y-36862D01*
X59562Y-36843D01*
X59657Y-36843D01*
X59714Y-36862D01*
X59848Y-36843D02*
X59943Y-37243D01*
X60019Y-36957D01*
X60095Y-37243D01*
X60191Y-36843D01*
X60305Y-36843D02*
X60553Y-36843D01*
X60419Y-36995D01*
X60476Y-36995D01*
X60514Y-37014D01*
X60533Y-37033D01*
X60553Y-37071D01*
X60553Y-37166D01*
X60533Y-37205D01*
X60514Y-37224D01*
X60476Y-37243D01*
X60362Y-37243D01*
X60324Y-37224D01*
X60305Y-37205D01*
M02*
