M48
INCH,TZ
T1C0.020
T2C0.024
T3C0.032
T4C0.032
T5C0.035
T6C0.039
T7C0.040
T8C0.059
T9C0.079
%
G90
G05
T1
X64390Y-30394
X64390Y-33386
X64902Y-30394
X64902Y-33386
X65414Y-30394
X65414Y-33386
T2
X56811Y-30472
X56811Y-33386
X57402Y-30472
X57402Y-33386
X57992Y-30472
X57992Y-33386
X58583Y-30472
X58583Y-33386
T3
X52893Y-27047
X53681Y-27047
T4
X52874Y-28921
X52874Y-34921
X53874Y-28921
X53874Y-34921
X54874Y-28921
X54874Y-34921
X55874Y-28921
X55874Y-34921
X56874Y-28921
X56874Y-34921
X57874Y-28921
X57874Y-34921
X58874Y-28921
X58874Y-34921
X59874Y-28921
X59874Y-34921
X60874Y-28921
X60874Y-34921
X61874Y-28921
X61874Y-34921
X62874Y-28921
X62874Y-34921
X63874Y-28921
X63874Y-34921
X64874Y-28921
X64874Y-34921
X65874Y-28921
X65874Y-34921
X66874Y-28921
X66874Y-34921
T5
X53799Y-30414
X53799Y-31398
X53799Y-32382
X53799Y-33366
T6
X53795Y-36362
X53795Y-38362
X56795Y-36362
X56795Y-38362
X58520Y-36362
X58520Y-38362
X61520Y-36362
X61520Y-38362
T7
X61240Y-30390
X61240Y-31390
X61240Y-32390
X61240Y-33390
X66882Y-23354
X66882Y-24354
X66882Y-25354
X66882Y-26354
X66882Y-27354
X67882Y-23354
X67882Y-24354
X67882Y-25354
X67882Y-26354
X67882Y-27354
T8
X54705Y-23484
X56673Y-23484
X58641Y-23485
X60609Y-23485
X62579Y-23484
X64547Y-23484
T9
X52146Y-21732
X52146Y-39449
X67894Y-21732
X67894Y-39449
T0
M30
