%FSLAX34Y34*%
G04 Gerber Fmt 3.4, Leading zero omitted, Abs format*
G04 (created by PCBNEW (2014-03-19 BZR 4756)-product) date Mon 30 Jun 2014 23:39:13 BST*
%MOIN*%
G01*
G70*
G90*
G04 APERTURE LIST*
%ADD10C,0.005906*%
%ADD11C,0.007900*%
%ADD12C,0.007874*%
%ADD13C,0.015000*%
%ADD14C,0.055000*%
%ADD15R,0.055000X0.055000*%
%ADD16R,0.080000X0.068000*%
%ADD17O,0.080000X0.068000*%
%ADD18O,0.078700X0.118700*%
%ADD19R,0.015700X0.023600*%
%ADD20R,0.060000X0.060000*%
%ADD21C,0.060000*%
%ADD22C,0.058300*%
%ADD23O,0.086614X0.055118*%
%ADD24R,0.086614X0.055118*%
%ADD25O,0.031496X0.043307*%
%ADD26R,0.031496X0.043307*%
%ADD27O,0.039370X0.055118*%
%ADD28R,0.039370X0.055118*%
%ADD29C,0.059055*%
%ADD30R,0.133900X0.133900*%
%ADD31R,0.023600X0.015700*%
%ADD32C,0.011811*%
%ADD33C,0.015748*%
G04 APERTURE END LIST*
G54D10*
G54D11*
X66712Y-41712D02*
G75*
G03X67696Y-42696I984J0D01*
G74*
G01*
X83444Y-42696D02*
G75*
G03X84429Y-41712I0J984D01*
G74*
G01*
X84429Y-23996D02*
G75*
G03X83444Y-23011I-984J0D01*
G74*
G01*
X67696Y-23011D02*
G75*
G03X66712Y-23996I0J-984D01*
G74*
G01*
X66712Y-41712D02*
X66712Y-23996D01*
X83444Y-42696D02*
X67696Y-42696D01*
X83444Y-23011D02*
X67696Y-23011D01*
X84429Y-41712D02*
X84429Y-23996D01*
G54D12*
X75803Y-41855D02*
X75803Y-41540D01*
X75728Y-41540D01*
X75683Y-41555D01*
X75653Y-41585D01*
X75638Y-41615D01*
X75623Y-41675D01*
X75623Y-41720D01*
X75638Y-41780D01*
X75653Y-41810D01*
X75683Y-41840D01*
X75728Y-41855D01*
X75803Y-41855D01*
X75518Y-41540D02*
X75308Y-41540D01*
X75443Y-41855D01*
X71078Y-41855D02*
X71078Y-41540D01*
X71003Y-41540D01*
X70958Y-41555D01*
X70928Y-41585D01*
X70913Y-41615D01*
X70898Y-41675D01*
X70898Y-41720D01*
X70913Y-41780D01*
X70928Y-41810D01*
X70958Y-41840D01*
X71003Y-41855D01*
X71078Y-41855D01*
X70628Y-41540D02*
X70688Y-41540D01*
X70718Y-41555D01*
X70733Y-41570D01*
X70763Y-41615D01*
X70778Y-41675D01*
X70778Y-41795D01*
X70763Y-41825D01*
X70748Y-41840D01*
X70718Y-41855D01*
X70658Y-41855D01*
X70628Y-41840D01*
X70613Y-41825D01*
X70598Y-41795D01*
X70598Y-41720D01*
X70613Y-41690D01*
X70628Y-41675D01*
X70658Y-41660D01*
X70718Y-41660D01*
X70748Y-41675D01*
X70763Y-41690D01*
X70778Y-41720D01*
G54D13*
X68523Y-29941D02*
X68523Y-29823D01*
X68523Y-29941D02*
X68641Y-29941D01*
X68405Y-29941D02*
X68523Y-29941D01*
X68523Y-29941D02*
X68523Y-30059D01*
G54D14*
X82421Y-31200D03*
X81421Y-37201D03*
X80421Y-37201D03*
X79421Y-37201D03*
X78421Y-37201D03*
X77421Y-37201D03*
X76421Y-37201D03*
X75421Y-37201D03*
X74421Y-37201D03*
X73421Y-37201D03*
X72421Y-37201D03*
X71421Y-37201D03*
X70421Y-37201D03*
X69421Y-37201D03*
G54D15*
X68421Y-37201D03*
G54D14*
X68421Y-31200D03*
X69421Y-31200D03*
X70421Y-31200D03*
X71421Y-31200D03*
X72421Y-31200D03*
X73421Y-31200D03*
X74421Y-31200D03*
X75421Y-31200D03*
X76421Y-31200D03*
X77421Y-31200D03*
X78421Y-31200D03*
X79421Y-31200D03*
X80421Y-31200D03*
X81421Y-31200D03*
X82421Y-37201D03*
G54D16*
X77381Y-32751D03*
G54D17*
X77381Y-33751D03*
X77381Y-34751D03*
X77381Y-35751D03*
G54D18*
X72224Y-25767D03*
X70256Y-25767D03*
X80098Y-25767D03*
X78130Y-25767D03*
X76161Y-25767D03*
X74193Y-25767D03*
G54D19*
X78799Y-33759D03*
X78445Y-33759D03*
X78799Y-32755D03*
X78445Y-32755D03*
G54D20*
X83433Y-29618D03*
G54D21*
X82433Y-29618D03*
X83433Y-28618D03*
X82433Y-28618D03*
X83433Y-27618D03*
X82433Y-27618D03*
X83433Y-26618D03*
X82433Y-26618D03*
X83433Y-25618D03*
X82433Y-25618D03*
G54D22*
X68444Y-29311D03*
X69232Y-29311D03*
G54D23*
X69370Y-33720D03*
X69370Y-34704D03*
G54D24*
X69370Y-32736D03*
G54D23*
X69370Y-35688D03*
G54D25*
X80452Y-35649D03*
X80964Y-35649D03*
G54D26*
X79940Y-35649D03*
G54D25*
X80452Y-32657D03*
X80964Y-32657D03*
G54D26*
X79940Y-32657D03*
G54D27*
X73543Y-35649D03*
X72953Y-35649D03*
G54D28*
X74134Y-35649D03*
G54D27*
X72362Y-35649D03*
X73543Y-32736D03*
X72953Y-32736D03*
G54D28*
X74134Y-32736D03*
G54D27*
X72362Y-32736D03*
G54D29*
X72346Y-38625D03*
X72346Y-40625D03*
X69346Y-38625D03*
X69346Y-40625D03*
X77070Y-38625D03*
X77070Y-40625D03*
X74070Y-38625D03*
X74070Y-40625D03*
G54D30*
X67893Y-24192D03*
X83248Y-24192D03*
X83248Y-41515D03*
X67893Y-41515D03*
G54D31*
X80393Y-30078D03*
X80393Y-29724D03*
X81279Y-30078D03*
X81279Y-29724D03*
G54D32*
X81279Y-30078D02*
X81279Y-30275D01*
X81279Y-30275D02*
X81421Y-30416D01*
X81421Y-30416D02*
X81421Y-31200D01*
X83433Y-29618D02*
X83014Y-29618D01*
X81634Y-30416D02*
X82433Y-29618D01*
X81421Y-30416D02*
X81634Y-30416D01*
X82433Y-29618D02*
X83014Y-29618D01*
X80421Y-30302D02*
X80421Y-31200D01*
X80393Y-30275D02*
X80421Y-30302D01*
X80393Y-30078D02*
X80393Y-30275D01*
X79940Y-32657D02*
X79665Y-32657D01*
X71421Y-31204D02*
X71421Y-31200D01*
X72953Y-32736D02*
X71421Y-31204D01*
X78306Y-34251D02*
X78799Y-33759D01*
X74350Y-34251D02*
X78306Y-34251D01*
X72953Y-35649D02*
X74350Y-34251D01*
X79566Y-32755D02*
X79665Y-32657D01*
X78799Y-32755D02*
X79566Y-32755D01*
X78799Y-33759D02*
X78799Y-33523D01*
X78799Y-32755D02*
X78799Y-33523D01*
X73795Y-37575D02*
X73421Y-37201D01*
X75579Y-37575D02*
X73795Y-37575D01*
X75921Y-37234D02*
X75579Y-37575D01*
X75921Y-37170D02*
X75921Y-37234D01*
X76264Y-36827D02*
X75921Y-37170D01*
X79609Y-36827D02*
X76264Y-36827D01*
X80452Y-35984D02*
X79609Y-36827D01*
X80452Y-35649D02*
X80452Y-35984D01*
X79862Y-37201D02*
X79421Y-37201D01*
X83990Y-33073D02*
X79862Y-37201D01*
X83990Y-29175D02*
X83990Y-33073D01*
X83433Y-28618D02*
X83990Y-29175D01*
X74070Y-38625D02*
X77070Y-38625D01*
X69346Y-40625D02*
X72346Y-40625D01*
X80964Y-35649D02*
X80067Y-34751D01*
X80067Y-34751D02*
X77381Y-34751D01*
X77070Y-40625D02*
X74070Y-40625D01*
X74070Y-40625D02*
X72346Y-40625D01*
X82433Y-25618D02*
X83433Y-25618D01*
X72362Y-35649D02*
X72047Y-35649D01*
X69370Y-35688D02*
X69921Y-35688D01*
X70508Y-36275D02*
X69921Y-35688D01*
X71421Y-36275D02*
X70508Y-36275D01*
X71421Y-37201D02*
X71421Y-36275D01*
X71421Y-36275D02*
X72047Y-35649D01*
X80964Y-33854D02*
X80964Y-32657D01*
X80067Y-34751D02*
X80964Y-33854D01*
X80393Y-29724D02*
X80629Y-29724D01*
X80964Y-32657D02*
X80964Y-29852D01*
X81043Y-29773D02*
X80964Y-29852D01*
X81043Y-29724D02*
X81043Y-29773D01*
X80757Y-29852D02*
X80629Y-29724D01*
X80964Y-29852D02*
X80757Y-29852D01*
X81279Y-29724D02*
X81043Y-29724D01*
X76858Y-37764D02*
X77421Y-37201D01*
X71413Y-37764D02*
X76858Y-37764D01*
X70921Y-37271D02*
X71413Y-37764D01*
X70921Y-37170D02*
X70921Y-37271D01*
X70183Y-36433D02*
X70921Y-37170D01*
X69426Y-36433D02*
X70183Y-36433D01*
X68818Y-35825D02*
X69426Y-36433D01*
X68818Y-34704D02*
X68818Y-35825D01*
X69370Y-34704D02*
X68818Y-34704D01*
X73543Y-36323D02*
X74421Y-37201D01*
X73543Y-35649D02*
X73543Y-36323D01*
X74263Y-36043D02*
X75421Y-37201D01*
X74134Y-36043D02*
X74263Y-36043D01*
X74134Y-35649D02*
X74134Y-36043D01*
X77381Y-32751D02*
X77900Y-32751D01*
X78421Y-32751D02*
X77900Y-32751D01*
X78425Y-32755D02*
X78421Y-32751D01*
X78445Y-32755D02*
X78425Y-32755D01*
X78421Y-32751D02*
X78421Y-31200D01*
X77907Y-33759D02*
X77900Y-33751D01*
X78445Y-33759D02*
X77907Y-33759D01*
X77381Y-33751D02*
X77900Y-33751D01*
X69346Y-38625D02*
X72346Y-38625D01*
X82589Y-31200D02*
X82421Y-31200D01*
X83831Y-29958D02*
X82589Y-31200D01*
X83831Y-29275D02*
X83831Y-29958D01*
X83730Y-29173D02*
X83831Y-29275D01*
X83395Y-29173D02*
X83730Y-29173D01*
X83034Y-28812D02*
X83395Y-29173D01*
X83034Y-28016D02*
X83034Y-28812D01*
X83433Y-27618D02*
X83034Y-28016D01*
X72657Y-36964D02*
X72421Y-37201D01*
X72657Y-35427D02*
X72657Y-36964D01*
X73286Y-34797D02*
X72657Y-35427D01*
X73376Y-34797D02*
X73286Y-34797D01*
X76805Y-31369D02*
X73376Y-34797D01*
X76805Y-31286D02*
X76805Y-31369D01*
X81474Y-26618D02*
X76805Y-31286D01*
X82433Y-26618D02*
X81474Y-26618D01*
G54D10*
G36*
X83616Y-32918D02*
X81400Y-35133D01*
X81400Y-32737D01*
X81400Y-32678D01*
X81400Y-32636D01*
X81400Y-32577D01*
X81359Y-32411D01*
X81258Y-32274D01*
X81112Y-32187D01*
X81053Y-32171D01*
X80986Y-32232D01*
X80986Y-32636D01*
X81400Y-32636D01*
X81400Y-32678D01*
X80986Y-32678D01*
X80986Y-33082D01*
X81053Y-33143D01*
X81112Y-33127D01*
X81258Y-33040D01*
X81359Y-32903D01*
X81400Y-32737D01*
X81400Y-35133D01*
X81262Y-35272D01*
X81258Y-35267D01*
X81112Y-35179D01*
X81053Y-35163D01*
X80986Y-35224D01*
X80986Y-35548D01*
X80943Y-35591D01*
X80943Y-35224D01*
X80875Y-35163D01*
X80817Y-35179D01*
X80748Y-35220D01*
X80633Y-35143D01*
X80452Y-35107D01*
X80271Y-35143D01*
X80253Y-35156D01*
X80160Y-35118D01*
X80035Y-35118D01*
X79720Y-35118D01*
X79604Y-35166D01*
X79516Y-35254D01*
X79468Y-35370D01*
X79468Y-35495D01*
X79468Y-35928D01*
X79516Y-36044D01*
X79604Y-36133D01*
X79720Y-36181D01*
X79726Y-36181D01*
X79454Y-36453D01*
X78049Y-36453D01*
X78049Y-35869D01*
X78049Y-35634D01*
X78021Y-35534D01*
X77894Y-35329D01*
X77786Y-35251D01*
X77894Y-35174D01*
X78021Y-34969D01*
X78049Y-34869D01*
X77990Y-34773D01*
X77403Y-34773D01*
X77403Y-35133D01*
X77403Y-35370D01*
X77403Y-35730D01*
X77990Y-35730D01*
X78049Y-35634D01*
X78049Y-35869D01*
X77990Y-35773D01*
X77403Y-35773D01*
X77403Y-36370D01*
X77463Y-36370D01*
X77698Y-36315D01*
X77894Y-36174D01*
X78021Y-35969D01*
X78049Y-35869D01*
X78049Y-36453D01*
X77360Y-36453D01*
X77360Y-36370D01*
X77360Y-35773D01*
X77360Y-35730D01*
X77360Y-35370D01*
X77360Y-35133D01*
X77360Y-34773D01*
X76773Y-34773D01*
X76714Y-34869D01*
X76742Y-34969D01*
X76869Y-35174D01*
X76977Y-35251D01*
X76869Y-35329D01*
X76742Y-35534D01*
X76714Y-35634D01*
X76773Y-35730D01*
X77360Y-35730D01*
X77360Y-35773D01*
X76773Y-35773D01*
X76714Y-35869D01*
X76742Y-35969D01*
X76869Y-36174D01*
X77065Y-36315D01*
X77300Y-36370D01*
X77360Y-36370D01*
X77360Y-36453D01*
X76264Y-36453D01*
X76144Y-36477D01*
X76121Y-36482D01*
X75999Y-36563D01*
X75808Y-36754D01*
X75755Y-36701D01*
X75539Y-36611D01*
X75360Y-36611D01*
X74645Y-35896D01*
X74645Y-35862D01*
X74645Y-35311D01*
X74597Y-35195D01*
X74509Y-35107D01*
X74393Y-35059D01*
X74268Y-35059D01*
X74072Y-35059D01*
X74505Y-34625D01*
X76716Y-34625D01*
X76714Y-34634D01*
X76773Y-34730D01*
X77360Y-34730D01*
X77360Y-34722D01*
X77403Y-34722D01*
X77403Y-34730D01*
X77990Y-34730D01*
X78049Y-34634D01*
X78047Y-34625D01*
X78306Y-34625D01*
X78306Y-34625D01*
X78426Y-34602D01*
X78450Y-34597D01*
X78450Y-34597D01*
X78571Y-34516D01*
X78895Y-34192D01*
X78940Y-34192D01*
X79055Y-34144D01*
X79144Y-34056D01*
X79192Y-33940D01*
X79192Y-33815D01*
X79192Y-33579D01*
X79173Y-33532D01*
X79173Y-33523D01*
X79173Y-33129D01*
X79566Y-33129D01*
X79566Y-33129D01*
X79589Y-33125D01*
X79604Y-33141D01*
X79720Y-33188D01*
X79845Y-33188D01*
X80160Y-33188D01*
X80253Y-33150D01*
X80271Y-33163D01*
X80452Y-33199D01*
X80633Y-33163D01*
X80748Y-33086D01*
X80817Y-33127D01*
X80875Y-33143D01*
X80943Y-33082D01*
X80943Y-32678D01*
X80935Y-32678D01*
X80935Y-32636D01*
X80943Y-32636D01*
X80943Y-32232D01*
X80875Y-32171D01*
X80817Y-32187D01*
X80748Y-32228D01*
X80633Y-32151D01*
X80452Y-32115D01*
X80271Y-32151D01*
X80253Y-32164D01*
X80160Y-32125D01*
X80035Y-32125D01*
X79720Y-32125D01*
X79604Y-32173D01*
X79516Y-32262D01*
X79485Y-32336D01*
X79481Y-32338D01*
X79417Y-32381D01*
X79066Y-32381D01*
X79055Y-32370D01*
X78940Y-32322D01*
X78814Y-32322D01*
X78795Y-32322D01*
X78795Y-31661D01*
X78921Y-31535D01*
X78921Y-31534D01*
X79086Y-31700D01*
X79303Y-31790D01*
X79538Y-31790D01*
X79755Y-31701D01*
X79921Y-31535D01*
X79921Y-31534D01*
X80086Y-31700D01*
X80303Y-31790D01*
X80538Y-31790D01*
X80755Y-31701D01*
X80921Y-31535D01*
X80921Y-31534D01*
X81086Y-31700D01*
X81303Y-31790D01*
X81538Y-31790D01*
X81755Y-31701D01*
X81921Y-31535D01*
X81921Y-31534D01*
X82086Y-31700D01*
X82303Y-31790D01*
X82538Y-31790D01*
X82755Y-31701D01*
X82921Y-31535D01*
X83011Y-31318D01*
X83011Y-31308D01*
X83616Y-30703D01*
X83616Y-32918D01*
X83616Y-32918D01*
G37*
G54D33*
X83616Y-32918D02*
X81400Y-35133D01*
X81400Y-32737D01*
X81400Y-32678D01*
X81400Y-32636D01*
X81400Y-32577D01*
X81359Y-32411D01*
X81258Y-32274D01*
X81112Y-32187D01*
X81053Y-32171D01*
X80986Y-32232D01*
X80986Y-32636D01*
X81400Y-32636D01*
X81400Y-32678D01*
X80986Y-32678D01*
X80986Y-33082D01*
X81053Y-33143D01*
X81112Y-33127D01*
X81258Y-33040D01*
X81359Y-32903D01*
X81400Y-32737D01*
X81400Y-35133D01*
X81262Y-35272D01*
X81258Y-35267D01*
X81112Y-35179D01*
X81053Y-35163D01*
X80986Y-35224D01*
X80986Y-35548D01*
X80943Y-35591D01*
X80943Y-35224D01*
X80875Y-35163D01*
X80817Y-35179D01*
X80748Y-35220D01*
X80633Y-35143D01*
X80452Y-35107D01*
X80271Y-35143D01*
X80253Y-35156D01*
X80160Y-35118D01*
X80035Y-35118D01*
X79720Y-35118D01*
X79604Y-35166D01*
X79516Y-35254D01*
X79468Y-35370D01*
X79468Y-35495D01*
X79468Y-35928D01*
X79516Y-36044D01*
X79604Y-36133D01*
X79720Y-36181D01*
X79726Y-36181D01*
X79454Y-36453D01*
X78049Y-36453D01*
X78049Y-35869D01*
X78049Y-35634D01*
X78021Y-35534D01*
X77894Y-35329D01*
X77786Y-35251D01*
X77894Y-35174D01*
X78021Y-34969D01*
X78049Y-34869D01*
X77990Y-34773D01*
X77403Y-34773D01*
X77403Y-35133D01*
X77403Y-35370D01*
X77403Y-35730D01*
X77990Y-35730D01*
X78049Y-35634D01*
X78049Y-35869D01*
X77990Y-35773D01*
X77403Y-35773D01*
X77403Y-36370D01*
X77463Y-36370D01*
X77698Y-36315D01*
X77894Y-36174D01*
X78021Y-35969D01*
X78049Y-35869D01*
X78049Y-36453D01*
X77360Y-36453D01*
X77360Y-36370D01*
X77360Y-35773D01*
X77360Y-35730D01*
X77360Y-35370D01*
X77360Y-35133D01*
X77360Y-34773D01*
X76773Y-34773D01*
X76714Y-34869D01*
X76742Y-34969D01*
X76869Y-35174D01*
X76977Y-35251D01*
X76869Y-35329D01*
X76742Y-35534D01*
X76714Y-35634D01*
X76773Y-35730D01*
X77360Y-35730D01*
X77360Y-35773D01*
X76773Y-35773D01*
X76714Y-35869D01*
X76742Y-35969D01*
X76869Y-36174D01*
X77065Y-36315D01*
X77300Y-36370D01*
X77360Y-36370D01*
X77360Y-36453D01*
X76264Y-36453D01*
X76144Y-36477D01*
X76121Y-36482D01*
X75999Y-36563D01*
X75808Y-36754D01*
X75755Y-36701D01*
X75539Y-36611D01*
X75360Y-36611D01*
X74645Y-35896D01*
X74645Y-35862D01*
X74645Y-35311D01*
X74597Y-35195D01*
X74509Y-35107D01*
X74393Y-35059D01*
X74268Y-35059D01*
X74072Y-35059D01*
X74505Y-34625D01*
X76716Y-34625D01*
X76714Y-34634D01*
X76773Y-34730D01*
X77360Y-34730D01*
X77360Y-34722D01*
X77403Y-34722D01*
X77403Y-34730D01*
X77990Y-34730D01*
X78049Y-34634D01*
X78047Y-34625D01*
X78306Y-34625D01*
X78306Y-34625D01*
X78426Y-34602D01*
X78450Y-34597D01*
X78450Y-34597D01*
X78571Y-34516D01*
X78895Y-34192D01*
X78940Y-34192D01*
X79055Y-34144D01*
X79144Y-34056D01*
X79192Y-33940D01*
X79192Y-33815D01*
X79192Y-33579D01*
X79173Y-33532D01*
X79173Y-33523D01*
X79173Y-33129D01*
X79566Y-33129D01*
X79566Y-33129D01*
X79589Y-33125D01*
X79604Y-33141D01*
X79720Y-33188D01*
X79845Y-33188D01*
X80160Y-33188D01*
X80253Y-33150D01*
X80271Y-33163D01*
X80452Y-33199D01*
X80633Y-33163D01*
X80748Y-33086D01*
X80817Y-33127D01*
X80875Y-33143D01*
X80943Y-33082D01*
X80943Y-32678D01*
X80935Y-32678D01*
X80935Y-32636D01*
X80943Y-32636D01*
X80943Y-32232D01*
X80875Y-32171D01*
X80817Y-32187D01*
X80748Y-32228D01*
X80633Y-32151D01*
X80452Y-32115D01*
X80271Y-32151D01*
X80253Y-32164D01*
X80160Y-32125D01*
X80035Y-32125D01*
X79720Y-32125D01*
X79604Y-32173D01*
X79516Y-32262D01*
X79485Y-32336D01*
X79481Y-32338D01*
X79417Y-32381D01*
X79066Y-32381D01*
X79055Y-32370D01*
X78940Y-32322D01*
X78814Y-32322D01*
X78795Y-32322D01*
X78795Y-31661D01*
X78921Y-31535D01*
X78921Y-31534D01*
X79086Y-31700D01*
X79303Y-31790D01*
X79538Y-31790D01*
X79755Y-31701D01*
X79921Y-31535D01*
X79921Y-31534D01*
X80086Y-31700D01*
X80303Y-31790D01*
X80538Y-31790D01*
X80755Y-31701D01*
X80921Y-31535D01*
X80921Y-31534D01*
X81086Y-31700D01*
X81303Y-31790D01*
X81538Y-31790D01*
X81755Y-31701D01*
X81921Y-31535D01*
X81921Y-31534D01*
X82086Y-31700D01*
X82303Y-31790D01*
X82538Y-31790D01*
X82755Y-31701D01*
X82921Y-31535D01*
X83011Y-31318D01*
X83011Y-31308D01*
X83616Y-30703D01*
X83616Y-32918D01*
G54D10*
G36*
X84074Y-40570D02*
X83980Y-40531D01*
X83854Y-40531D01*
X82515Y-40531D01*
X82400Y-40579D01*
X82311Y-40667D01*
X82263Y-40783D01*
X82263Y-40908D01*
X82263Y-42247D01*
X82302Y-42342D01*
X77645Y-42342D01*
X77645Y-40513D01*
X77558Y-40302D01*
X77556Y-40299D01*
X77450Y-40276D01*
X77420Y-40306D01*
X77420Y-40246D01*
X77397Y-40140D01*
X77186Y-40052D01*
X76958Y-40051D01*
X76747Y-40138D01*
X76744Y-40140D01*
X76721Y-40246D01*
X77070Y-40595D01*
X77420Y-40246D01*
X77420Y-40306D01*
X77100Y-40625D01*
X77450Y-40975D01*
X77556Y-40952D01*
X77644Y-40741D01*
X77645Y-40513D01*
X77645Y-42342D01*
X77420Y-42342D01*
X77420Y-41005D01*
X77070Y-40656D01*
X77040Y-40686D01*
X77040Y-40625D01*
X76691Y-40276D01*
X76585Y-40299D01*
X76497Y-40510D01*
X76496Y-40738D01*
X76583Y-40949D01*
X76585Y-40952D01*
X76691Y-40975D01*
X77040Y-40625D01*
X77040Y-40686D01*
X76721Y-41005D01*
X76744Y-41111D01*
X76955Y-41199D01*
X77183Y-41200D01*
X77394Y-41113D01*
X77397Y-41111D01*
X77420Y-41005D01*
X77420Y-42342D01*
X76232Y-42342D01*
X76232Y-42287D01*
X76232Y-41059D01*
X74909Y-41059D01*
X74909Y-42287D01*
X76232Y-42287D01*
X76232Y-42342D01*
X74645Y-42342D01*
X74645Y-40513D01*
X74558Y-40302D01*
X74556Y-40299D01*
X74450Y-40276D01*
X74420Y-40306D01*
X74420Y-40246D01*
X74397Y-40140D01*
X74186Y-40052D01*
X73958Y-40051D01*
X73747Y-40138D01*
X73744Y-40140D01*
X73721Y-40246D01*
X74070Y-40595D01*
X74420Y-40246D01*
X74420Y-40306D01*
X74100Y-40625D01*
X74450Y-40975D01*
X74556Y-40952D01*
X74644Y-40741D01*
X74645Y-40513D01*
X74645Y-42342D01*
X74420Y-42342D01*
X74420Y-41005D01*
X74070Y-40656D01*
X74040Y-40686D01*
X74040Y-40625D01*
X73691Y-40276D01*
X73585Y-40299D01*
X73497Y-40510D01*
X73496Y-40738D01*
X73583Y-40949D01*
X73585Y-40952D01*
X73691Y-40975D01*
X74040Y-40625D01*
X74040Y-40686D01*
X73721Y-41005D01*
X73744Y-41111D01*
X73955Y-41199D01*
X74183Y-41200D01*
X74394Y-41113D01*
X74397Y-41111D01*
X74420Y-41005D01*
X74420Y-42342D01*
X72920Y-42342D01*
X72920Y-40513D01*
X72834Y-40302D01*
X72832Y-40299D01*
X72725Y-40276D01*
X72695Y-40306D01*
X72695Y-40246D01*
X72673Y-40140D01*
X72462Y-40052D01*
X72233Y-40051D01*
X72022Y-40138D01*
X72019Y-40140D01*
X71997Y-40246D01*
X72346Y-40595D01*
X72695Y-40246D01*
X72695Y-40306D01*
X72376Y-40625D01*
X72725Y-40975D01*
X72832Y-40952D01*
X72920Y-40741D01*
X72920Y-40513D01*
X72920Y-42342D01*
X72695Y-42342D01*
X72695Y-41005D01*
X72346Y-40656D01*
X72316Y-40686D01*
X72316Y-40625D01*
X71967Y-40276D01*
X71860Y-40299D01*
X71772Y-40510D01*
X71772Y-40738D01*
X71858Y-40949D01*
X71860Y-40952D01*
X71967Y-40975D01*
X72316Y-40625D01*
X72316Y-40686D01*
X71997Y-41005D01*
X72019Y-41111D01*
X72230Y-41199D01*
X72458Y-41200D01*
X72670Y-41113D01*
X72673Y-41111D01*
X72695Y-41005D01*
X72695Y-42342D01*
X71508Y-42342D01*
X71508Y-42287D01*
X71508Y-41059D01*
X70184Y-41059D01*
X70184Y-42287D01*
X71508Y-42287D01*
X71508Y-42342D01*
X69920Y-42342D01*
X69920Y-40513D01*
X69834Y-40302D01*
X69832Y-40299D01*
X69725Y-40276D01*
X69695Y-40306D01*
X69695Y-40246D01*
X69673Y-40140D01*
X69462Y-40052D01*
X69233Y-40051D01*
X69022Y-40138D01*
X69019Y-40140D01*
X68997Y-40246D01*
X69346Y-40595D01*
X69695Y-40246D01*
X69695Y-40306D01*
X69376Y-40625D01*
X69725Y-40975D01*
X69832Y-40952D01*
X69920Y-40741D01*
X69920Y-40513D01*
X69920Y-42342D01*
X69695Y-42342D01*
X69695Y-41005D01*
X69346Y-40656D01*
X68997Y-41005D01*
X69019Y-41111D01*
X69230Y-41199D01*
X69458Y-41200D01*
X69670Y-41113D01*
X69673Y-41111D01*
X69695Y-41005D01*
X69695Y-42342D01*
X68839Y-42342D01*
X68878Y-42247D01*
X68878Y-42122D01*
X68878Y-40956D01*
X68967Y-40975D01*
X69316Y-40625D01*
X68967Y-40276D01*
X68860Y-40299D01*
X68772Y-40510D01*
X68772Y-40610D01*
X68741Y-40579D01*
X68625Y-40531D01*
X68500Y-40531D01*
X67161Y-40531D01*
X67067Y-40570D01*
X67067Y-25138D01*
X67161Y-25177D01*
X67286Y-25177D01*
X68625Y-25177D01*
X68741Y-25129D01*
X68830Y-25040D01*
X68878Y-24925D01*
X68878Y-24799D01*
X68878Y-23460D01*
X68839Y-23366D01*
X82302Y-23366D01*
X82263Y-23460D01*
X82263Y-23586D01*
X82263Y-24925D01*
X82311Y-25040D01*
X82312Y-25041D01*
X82106Y-25126D01*
X82103Y-25128D01*
X82080Y-25235D01*
X82433Y-25588D01*
X82785Y-25235D01*
X82773Y-25177D01*
X83093Y-25177D01*
X83080Y-25235D01*
X83433Y-25588D01*
X83785Y-25235D01*
X83773Y-25177D01*
X83980Y-25177D01*
X84074Y-25138D01*
X84074Y-28730D01*
X84047Y-28704D01*
X84048Y-28496D01*
X83954Y-28270D01*
X83802Y-28117D01*
X83954Y-27966D01*
X84047Y-27740D01*
X84048Y-27496D01*
X83954Y-27270D01*
X83802Y-27117D01*
X83954Y-26966D01*
X84047Y-26740D01*
X84048Y-26496D01*
X84012Y-26409D01*
X84012Y-25504D01*
X83924Y-25291D01*
X83922Y-25288D01*
X83815Y-25265D01*
X83463Y-25618D01*
X83815Y-25970D01*
X83922Y-25947D01*
X84011Y-25735D01*
X84012Y-25504D01*
X84012Y-26409D01*
X83954Y-26270D01*
X83781Y-26097D01*
X83766Y-26090D01*
X83785Y-26000D01*
X83433Y-25648D01*
X83403Y-25678D01*
X83403Y-25618D01*
X83050Y-25265D01*
X82943Y-25288D01*
X82933Y-25312D01*
X82924Y-25291D01*
X82922Y-25288D01*
X82815Y-25265D01*
X82463Y-25618D01*
X82815Y-25970D01*
X82922Y-25947D01*
X82932Y-25923D01*
X82941Y-25944D01*
X82943Y-25947D01*
X83050Y-25970D01*
X83403Y-25618D01*
X83403Y-25678D01*
X83080Y-26000D01*
X83099Y-26090D01*
X83085Y-26096D01*
X82932Y-26248D01*
X82781Y-26097D01*
X82766Y-26090D01*
X82785Y-26000D01*
X82433Y-25648D01*
X82403Y-25678D01*
X82403Y-25618D01*
X82050Y-25265D01*
X81943Y-25288D01*
X81854Y-25501D01*
X81853Y-25731D01*
X81941Y-25944D01*
X81943Y-25947D01*
X82050Y-25970D01*
X82403Y-25618D01*
X82403Y-25678D01*
X82080Y-26000D01*
X82099Y-26090D01*
X82085Y-26096D01*
X81937Y-26244D01*
X81474Y-26244D01*
X81330Y-26272D01*
X81209Y-26353D01*
X80806Y-26756D01*
X80806Y-25985D01*
X80806Y-25549D01*
X80752Y-25278D01*
X80599Y-25048D01*
X80369Y-24895D01*
X80098Y-24841D01*
X79827Y-24895D01*
X79597Y-25048D01*
X79443Y-25278D01*
X79389Y-25549D01*
X79389Y-25985D01*
X79443Y-26256D01*
X79597Y-26486D01*
X79827Y-26640D01*
X80098Y-26693D01*
X80369Y-26640D01*
X80599Y-26486D01*
X80752Y-26256D01*
X80806Y-25985D01*
X80806Y-26756D01*
X78802Y-28760D01*
X78802Y-25988D01*
X78802Y-25788D01*
X78802Y-25746D01*
X78802Y-25546D01*
X78743Y-25290D01*
X78590Y-25077D01*
X78367Y-24938D01*
X78256Y-24907D01*
X78151Y-24965D01*
X78151Y-25746D01*
X78802Y-25746D01*
X78802Y-25788D01*
X78151Y-25788D01*
X78151Y-26569D01*
X78256Y-26628D01*
X78367Y-26596D01*
X78590Y-26458D01*
X78743Y-26244D01*
X78802Y-25988D01*
X78802Y-28760D01*
X78108Y-29454D01*
X78108Y-26569D01*
X78108Y-25788D01*
X78108Y-25746D01*
X78108Y-24965D01*
X78004Y-24907D01*
X77892Y-24938D01*
X77669Y-25077D01*
X77517Y-25290D01*
X77457Y-25546D01*
X77457Y-25746D01*
X78108Y-25746D01*
X78108Y-25788D01*
X77457Y-25788D01*
X77457Y-25988D01*
X77517Y-26244D01*
X77669Y-26458D01*
X77892Y-26596D01*
X78004Y-26628D01*
X78108Y-26569D01*
X78108Y-29454D01*
X76869Y-30693D01*
X76869Y-25985D01*
X76869Y-25549D01*
X76815Y-25278D01*
X76662Y-25048D01*
X76432Y-24895D01*
X76161Y-24841D01*
X75890Y-24895D01*
X75660Y-25048D01*
X75506Y-25278D01*
X75452Y-25549D01*
X75452Y-25985D01*
X75506Y-26256D01*
X75660Y-26486D01*
X75890Y-26640D01*
X76161Y-26693D01*
X76432Y-26640D01*
X76662Y-26486D01*
X76815Y-26256D01*
X76869Y-25985D01*
X76869Y-30693D01*
X76809Y-30754D01*
X76755Y-30700D01*
X76539Y-30610D01*
X76304Y-30610D01*
X76087Y-30700D01*
X75921Y-30866D01*
X75921Y-30866D01*
X75755Y-30700D01*
X75539Y-30610D01*
X75304Y-30610D01*
X75087Y-30700D01*
X74921Y-30866D01*
X74921Y-30866D01*
X74865Y-30810D01*
X74865Y-25988D01*
X74865Y-25788D01*
X74865Y-25746D01*
X74865Y-25546D01*
X74806Y-25290D01*
X74653Y-25077D01*
X74430Y-24938D01*
X74319Y-24907D01*
X74214Y-24965D01*
X74214Y-25746D01*
X74865Y-25746D01*
X74865Y-25788D01*
X74214Y-25788D01*
X74214Y-26569D01*
X74319Y-26628D01*
X74430Y-26596D01*
X74653Y-26458D01*
X74806Y-26244D01*
X74865Y-25988D01*
X74865Y-30810D01*
X74755Y-30700D01*
X74539Y-30610D01*
X74304Y-30610D01*
X74171Y-30665D01*
X74171Y-26569D01*
X74171Y-25788D01*
X74171Y-25746D01*
X74171Y-24965D01*
X74067Y-24907D01*
X73955Y-24938D01*
X73732Y-25077D01*
X73580Y-25290D01*
X73520Y-25546D01*
X73520Y-25746D01*
X74171Y-25746D01*
X74171Y-25788D01*
X73520Y-25788D01*
X73520Y-25988D01*
X73580Y-26244D01*
X73732Y-26458D01*
X73955Y-26596D01*
X74067Y-26628D01*
X74171Y-26569D01*
X74171Y-30665D01*
X74087Y-30700D01*
X73921Y-30866D01*
X73921Y-30866D01*
X73755Y-30700D01*
X73539Y-30610D01*
X73304Y-30610D01*
X73087Y-30700D01*
X72932Y-30854D01*
X72932Y-25985D01*
X72932Y-25549D01*
X72878Y-25278D01*
X72725Y-25048D01*
X72495Y-24895D01*
X72224Y-24841D01*
X71953Y-24895D01*
X71723Y-25048D01*
X71569Y-25278D01*
X71515Y-25549D01*
X71515Y-25985D01*
X71569Y-26256D01*
X71723Y-26486D01*
X71953Y-26640D01*
X72224Y-26693D01*
X72495Y-26640D01*
X72725Y-26486D01*
X72878Y-26256D01*
X72932Y-25985D01*
X72932Y-30854D01*
X72921Y-30866D01*
X72921Y-30866D01*
X72755Y-30700D01*
X72539Y-30610D01*
X72304Y-30610D01*
X72087Y-30700D01*
X71921Y-30866D01*
X71921Y-30866D01*
X71755Y-30700D01*
X71539Y-30610D01*
X71304Y-30610D01*
X71087Y-30700D01*
X70928Y-30859D01*
X70928Y-25988D01*
X70928Y-25788D01*
X70928Y-25746D01*
X70928Y-25546D01*
X70869Y-25290D01*
X70716Y-25077D01*
X70493Y-24938D01*
X70382Y-24907D01*
X70277Y-24965D01*
X70277Y-25746D01*
X70928Y-25746D01*
X70928Y-25788D01*
X70277Y-25788D01*
X70277Y-26569D01*
X70382Y-26628D01*
X70493Y-26596D01*
X70716Y-26458D01*
X70869Y-26244D01*
X70928Y-25988D01*
X70928Y-30859D01*
X70921Y-30866D01*
X70921Y-30866D01*
X70755Y-30700D01*
X70539Y-30610D01*
X70304Y-30610D01*
X70234Y-30639D01*
X70234Y-26569D01*
X70234Y-25788D01*
X70234Y-25746D01*
X70234Y-24965D01*
X70130Y-24907D01*
X70018Y-24938D01*
X69795Y-25077D01*
X69643Y-25290D01*
X69583Y-25546D01*
X69583Y-25746D01*
X70234Y-25746D01*
X70234Y-25788D01*
X69583Y-25788D01*
X69583Y-25988D01*
X69643Y-26244D01*
X69795Y-26458D01*
X70018Y-26596D01*
X70130Y-26628D01*
X70234Y-26569D01*
X70234Y-30639D01*
X70087Y-30700D01*
X69921Y-30866D01*
X69901Y-30913D01*
X69891Y-30887D01*
X69890Y-30886D01*
X69803Y-30869D01*
X69803Y-29199D01*
X69716Y-28989D01*
X69715Y-28986D01*
X69609Y-28964D01*
X69262Y-29311D01*
X69609Y-29657D01*
X69715Y-29635D01*
X69802Y-29425D01*
X69803Y-29199D01*
X69803Y-30869D01*
X69785Y-30866D01*
X69755Y-30896D01*
X69755Y-30836D01*
X69735Y-30731D01*
X69579Y-30666D01*
X69579Y-29687D01*
X69232Y-29341D01*
X69227Y-29346D01*
X69196Y-29316D01*
X69202Y-29311D01*
X69196Y-29305D01*
X69227Y-29275D01*
X69232Y-29280D01*
X69579Y-28934D01*
X69556Y-28828D01*
X69347Y-28741D01*
X69120Y-28740D01*
X68910Y-28826D01*
X68908Y-28828D01*
X68892Y-28901D01*
X68788Y-28797D01*
X68565Y-28704D01*
X68324Y-28704D01*
X68101Y-28796D01*
X67930Y-28967D01*
X67838Y-29189D01*
X67838Y-29431D01*
X67930Y-29654D01*
X68054Y-29778D01*
X68045Y-29791D01*
X68015Y-29941D01*
X68045Y-30090D01*
X68129Y-30216D01*
X68200Y-30264D01*
X68247Y-30334D01*
X68374Y-30419D01*
X68523Y-30448D01*
X68672Y-30419D01*
X68799Y-30334D01*
X68846Y-30264D01*
X68917Y-30216D01*
X69001Y-30090D01*
X69031Y-29941D01*
X69010Y-29836D01*
X69117Y-29880D01*
X69344Y-29881D01*
X69554Y-29795D01*
X69556Y-29793D01*
X69579Y-29687D01*
X69579Y-30666D01*
X69532Y-30647D01*
X69312Y-30646D01*
X69108Y-30730D01*
X69106Y-30731D01*
X69086Y-30836D01*
X69421Y-31170D01*
X69755Y-30836D01*
X69755Y-30896D01*
X69451Y-31200D01*
X69785Y-31535D01*
X69890Y-31515D01*
X69901Y-31487D01*
X69920Y-31534D01*
X70086Y-31700D01*
X70303Y-31790D01*
X70538Y-31790D01*
X70755Y-31701D01*
X70921Y-31535D01*
X70921Y-31534D01*
X71086Y-31700D01*
X71303Y-31790D01*
X71478Y-31790D01*
X72020Y-32333D01*
X71930Y-32455D01*
X71886Y-32636D01*
X71886Y-32714D01*
X72340Y-32714D01*
X72340Y-32707D01*
X72383Y-32707D01*
X72383Y-32714D01*
X72391Y-32714D01*
X72391Y-32757D01*
X72383Y-32757D01*
X72383Y-33220D01*
X72457Y-33280D01*
X72524Y-33262D01*
X72617Y-33206D01*
X72757Y-33299D01*
X72953Y-33338D01*
X73148Y-33299D01*
X73248Y-33233D01*
X73347Y-33299D01*
X73543Y-33338D01*
X73738Y-33299D01*
X73765Y-33281D01*
X73874Y-33326D01*
X73999Y-33326D01*
X74318Y-33326D01*
X73205Y-34439D01*
X73143Y-34452D01*
X73022Y-34533D01*
X72420Y-35134D01*
X72383Y-35165D01*
X72383Y-35177D01*
X72340Y-35240D01*
X72340Y-35165D01*
X72340Y-33220D01*
X72340Y-32757D01*
X71886Y-32757D01*
X71886Y-32836D01*
X71930Y-33016D01*
X72040Y-33166D01*
X72199Y-33262D01*
X72266Y-33280D01*
X72340Y-33220D01*
X72340Y-35165D01*
X72266Y-35104D01*
X72199Y-35123D01*
X72040Y-35219D01*
X71930Y-35369D01*
X71886Y-35549D01*
X71886Y-35628D01*
X72283Y-35628D01*
X72283Y-35670D01*
X71886Y-35670D01*
X71886Y-35749D01*
X71930Y-35929D01*
X72040Y-36079D01*
X72199Y-36175D01*
X72266Y-36194D01*
X72283Y-36180D01*
X72283Y-36619D01*
X72087Y-36700D01*
X71921Y-36866D01*
X71901Y-36913D01*
X71891Y-36888D01*
X71890Y-36886D01*
X71785Y-36866D01*
X71451Y-37201D01*
X71456Y-37206D01*
X71426Y-37236D01*
X71421Y-37231D01*
X71415Y-37236D01*
X71385Y-37206D01*
X71391Y-37201D01*
X71385Y-37195D01*
X71415Y-37165D01*
X71421Y-37171D01*
X71755Y-36836D01*
X71735Y-36732D01*
X71532Y-36647D01*
X71312Y-36647D01*
X71108Y-36731D01*
X71106Y-36732D01*
X71091Y-36811D01*
X70448Y-36168D01*
X70326Y-36087D01*
X70303Y-36082D01*
X70183Y-36059D01*
X69938Y-36059D01*
X70047Y-35881D01*
X70071Y-35796D01*
X70011Y-35709D01*
X69391Y-35709D01*
X69391Y-35717D01*
X69348Y-35717D01*
X69348Y-35709D01*
X69340Y-35709D01*
X69340Y-35667D01*
X69348Y-35667D01*
X69348Y-35659D01*
X69391Y-35659D01*
X69391Y-35667D01*
X70011Y-35667D01*
X70071Y-35580D01*
X70047Y-35496D01*
X69934Y-35311D01*
X69810Y-35221D01*
X69959Y-35122D01*
X70087Y-34930D01*
X70132Y-34704D01*
X70087Y-34478D01*
X69959Y-34287D01*
X69848Y-34212D01*
X69959Y-34138D01*
X70087Y-33946D01*
X70132Y-33720D01*
X70087Y-33494D01*
X69959Y-33303D01*
X69946Y-33293D01*
X69981Y-33279D01*
X70070Y-33190D01*
X70118Y-33074D01*
X70118Y-32949D01*
X70118Y-32398D01*
X70070Y-32282D01*
X69981Y-32193D01*
X69865Y-32146D01*
X69755Y-32146D01*
X69755Y-31565D01*
X69421Y-31230D01*
X69391Y-31260D01*
X69391Y-31200D01*
X69056Y-30866D01*
X68952Y-30886D01*
X68940Y-30913D01*
X68921Y-30867D01*
X68755Y-30700D01*
X68539Y-30610D01*
X68304Y-30610D01*
X68087Y-30700D01*
X67921Y-30866D01*
X67831Y-31082D01*
X67831Y-31317D01*
X67920Y-31534D01*
X68086Y-31700D01*
X68303Y-31790D01*
X68538Y-31790D01*
X68755Y-31701D01*
X68921Y-31535D01*
X68940Y-31488D01*
X68951Y-31513D01*
X68952Y-31515D01*
X69056Y-31535D01*
X69391Y-31200D01*
X69391Y-31260D01*
X69086Y-31565D01*
X69106Y-31669D01*
X69310Y-31754D01*
X69530Y-31754D01*
X69734Y-31670D01*
X69735Y-31669D01*
X69755Y-31565D01*
X69755Y-32146D01*
X69740Y-32146D01*
X68874Y-32146D01*
X68758Y-32193D01*
X68669Y-32282D01*
X68622Y-32398D01*
X68622Y-32523D01*
X68622Y-33074D01*
X68669Y-33190D01*
X68758Y-33279D01*
X68794Y-33293D01*
X68780Y-33303D01*
X68652Y-33494D01*
X68607Y-33720D01*
X68652Y-33946D01*
X68780Y-34138D01*
X68891Y-34212D01*
X68780Y-34287D01*
X68740Y-34346D01*
X68675Y-34359D01*
X68554Y-34440D01*
X68473Y-34561D01*
X68444Y-34704D01*
X68444Y-35825D01*
X68468Y-35945D01*
X68473Y-35969D01*
X68554Y-36090D01*
X69142Y-36678D01*
X69087Y-36700D01*
X68985Y-36802D01*
X68963Y-36747D01*
X68874Y-36659D01*
X68758Y-36611D01*
X68633Y-36611D01*
X68083Y-36611D01*
X67967Y-36659D01*
X67879Y-36747D01*
X67831Y-36863D01*
X67831Y-36988D01*
X67831Y-37538D01*
X67879Y-37654D01*
X67967Y-37743D01*
X68083Y-37791D01*
X68208Y-37791D01*
X68758Y-37791D01*
X68874Y-37743D01*
X68963Y-37654D01*
X68985Y-37600D01*
X69086Y-37701D01*
X69303Y-37791D01*
X69538Y-37791D01*
X69755Y-37701D01*
X69921Y-37535D01*
X69921Y-37535D01*
X70086Y-37701D01*
X70303Y-37791D01*
X70538Y-37791D01*
X70755Y-37701D01*
X70788Y-37668D01*
X71149Y-38028D01*
X71270Y-38109D01*
X71270Y-38109D01*
X71294Y-38114D01*
X71413Y-38138D01*
X71971Y-38138D01*
X71857Y-38251D01*
X69835Y-38251D01*
X69692Y-38108D01*
X69468Y-38015D01*
X69225Y-38015D01*
X69001Y-38108D01*
X68829Y-38279D01*
X68736Y-38504D01*
X68736Y-38746D01*
X68828Y-38971D01*
X69000Y-39143D01*
X69224Y-39236D01*
X69467Y-39236D01*
X69691Y-39143D01*
X69835Y-39000D01*
X71857Y-39000D01*
X72000Y-39143D01*
X72224Y-39236D01*
X72467Y-39236D01*
X72691Y-39143D01*
X72863Y-38972D01*
X72956Y-38747D01*
X72956Y-38505D01*
X72864Y-38280D01*
X72721Y-38138D01*
X73695Y-38138D01*
X73553Y-38279D01*
X73460Y-38504D01*
X73460Y-38746D01*
X73553Y-38971D01*
X73724Y-39143D01*
X73948Y-39236D01*
X74191Y-39236D01*
X74416Y-39143D01*
X74559Y-39000D01*
X76581Y-39000D01*
X76724Y-39143D01*
X76948Y-39236D01*
X77191Y-39236D01*
X77416Y-39143D01*
X77587Y-38972D01*
X77680Y-38747D01*
X77681Y-38505D01*
X77588Y-38280D01*
X77416Y-38108D01*
X77192Y-38015D01*
X77135Y-38015D01*
X77360Y-37791D01*
X77538Y-37791D01*
X77755Y-37701D01*
X77921Y-37535D01*
X77921Y-37535D01*
X78086Y-37701D01*
X78303Y-37791D01*
X78538Y-37791D01*
X78755Y-37701D01*
X78921Y-37535D01*
X78921Y-37535D01*
X79086Y-37701D01*
X79303Y-37791D01*
X79538Y-37791D01*
X79755Y-37701D01*
X79886Y-37570D01*
X79944Y-37558D01*
X80086Y-37701D01*
X80303Y-37791D01*
X80538Y-37791D01*
X80755Y-37701D01*
X80921Y-37535D01*
X80921Y-37535D01*
X81086Y-37701D01*
X81303Y-37791D01*
X81538Y-37791D01*
X81755Y-37701D01*
X81921Y-37535D01*
X81921Y-37535D01*
X82086Y-37701D01*
X82303Y-37791D01*
X82538Y-37791D01*
X82755Y-37701D01*
X82921Y-37535D01*
X83011Y-37319D01*
X83011Y-37084D01*
X82921Y-36867D01*
X82755Y-36701D01*
X82539Y-36611D01*
X82304Y-36611D01*
X82087Y-36700D01*
X81921Y-36866D01*
X81921Y-36867D01*
X81755Y-36701D01*
X81539Y-36611D01*
X81304Y-36611D01*
X81087Y-36700D01*
X80921Y-36866D01*
X80921Y-36867D01*
X80823Y-36769D01*
X84074Y-33517D01*
X84074Y-40570D01*
X84074Y-40570D01*
G37*
G54D33*
X84074Y-40570D02*
X83980Y-40531D01*
X83854Y-40531D01*
X82515Y-40531D01*
X82400Y-40579D01*
X82311Y-40667D01*
X82263Y-40783D01*
X82263Y-40908D01*
X82263Y-42247D01*
X82302Y-42342D01*
X77645Y-42342D01*
X77645Y-40513D01*
X77558Y-40302D01*
X77556Y-40299D01*
X77450Y-40276D01*
X77420Y-40306D01*
X77420Y-40246D01*
X77397Y-40140D01*
X77186Y-40052D01*
X76958Y-40051D01*
X76747Y-40138D01*
X76744Y-40140D01*
X76721Y-40246D01*
X77070Y-40595D01*
X77420Y-40246D01*
X77420Y-40306D01*
X77100Y-40625D01*
X77450Y-40975D01*
X77556Y-40952D01*
X77644Y-40741D01*
X77645Y-40513D01*
X77645Y-42342D01*
X77420Y-42342D01*
X77420Y-41005D01*
X77070Y-40656D01*
X77040Y-40686D01*
X77040Y-40625D01*
X76691Y-40276D01*
X76585Y-40299D01*
X76497Y-40510D01*
X76496Y-40738D01*
X76583Y-40949D01*
X76585Y-40952D01*
X76691Y-40975D01*
X77040Y-40625D01*
X77040Y-40686D01*
X76721Y-41005D01*
X76744Y-41111D01*
X76955Y-41199D01*
X77183Y-41200D01*
X77394Y-41113D01*
X77397Y-41111D01*
X77420Y-41005D01*
X77420Y-42342D01*
X76232Y-42342D01*
X76232Y-42287D01*
X76232Y-41059D01*
X74909Y-41059D01*
X74909Y-42287D01*
X76232Y-42287D01*
X76232Y-42342D01*
X74645Y-42342D01*
X74645Y-40513D01*
X74558Y-40302D01*
X74556Y-40299D01*
X74450Y-40276D01*
X74420Y-40306D01*
X74420Y-40246D01*
X74397Y-40140D01*
X74186Y-40052D01*
X73958Y-40051D01*
X73747Y-40138D01*
X73744Y-40140D01*
X73721Y-40246D01*
X74070Y-40595D01*
X74420Y-40246D01*
X74420Y-40306D01*
X74100Y-40625D01*
X74450Y-40975D01*
X74556Y-40952D01*
X74644Y-40741D01*
X74645Y-40513D01*
X74645Y-42342D01*
X74420Y-42342D01*
X74420Y-41005D01*
X74070Y-40656D01*
X74040Y-40686D01*
X74040Y-40625D01*
X73691Y-40276D01*
X73585Y-40299D01*
X73497Y-40510D01*
X73496Y-40738D01*
X73583Y-40949D01*
X73585Y-40952D01*
X73691Y-40975D01*
X74040Y-40625D01*
X74040Y-40686D01*
X73721Y-41005D01*
X73744Y-41111D01*
X73955Y-41199D01*
X74183Y-41200D01*
X74394Y-41113D01*
X74397Y-41111D01*
X74420Y-41005D01*
X74420Y-42342D01*
X72920Y-42342D01*
X72920Y-40513D01*
X72834Y-40302D01*
X72832Y-40299D01*
X72725Y-40276D01*
X72695Y-40306D01*
X72695Y-40246D01*
X72673Y-40140D01*
X72462Y-40052D01*
X72233Y-40051D01*
X72022Y-40138D01*
X72019Y-40140D01*
X71997Y-40246D01*
X72346Y-40595D01*
X72695Y-40246D01*
X72695Y-40306D01*
X72376Y-40625D01*
X72725Y-40975D01*
X72832Y-40952D01*
X72920Y-40741D01*
X72920Y-40513D01*
X72920Y-42342D01*
X72695Y-42342D01*
X72695Y-41005D01*
X72346Y-40656D01*
X72316Y-40686D01*
X72316Y-40625D01*
X71967Y-40276D01*
X71860Y-40299D01*
X71772Y-40510D01*
X71772Y-40738D01*
X71858Y-40949D01*
X71860Y-40952D01*
X71967Y-40975D01*
X72316Y-40625D01*
X72316Y-40686D01*
X71997Y-41005D01*
X72019Y-41111D01*
X72230Y-41199D01*
X72458Y-41200D01*
X72670Y-41113D01*
X72673Y-41111D01*
X72695Y-41005D01*
X72695Y-42342D01*
X71508Y-42342D01*
X71508Y-42287D01*
X71508Y-41059D01*
X70184Y-41059D01*
X70184Y-42287D01*
X71508Y-42287D01*
X71508Y-42342D01*
X69920Y-42342D01*
X69920Y-40513D01*
X69834Y-40302D01*
X69832Y-40299D01*
X69725Y-40276D01*
X69695Y-40306D01*
X69695Y-40246D01*
X69673Y-40140D01*
X69462Y-40052D01*
X69233Y-40051D01*
X69022Y-40138D01*
X69019Y-40140D01*
X68997Y-40246D01*
X69346Y-40595D01*
X69695Y-40246D01*
X69695Y-40306D01*
X69376Y-40625D01*
X69725Y-40975D01*
X69832Y-40952D01*
X69920Y-40741D01*
X69920Y-40513D01*
X69920Y-42342D01*
X69695Y-42342D01*
X69695Y-41005D01*
X69346Y-40656D01*
X68997Y-41005D01*
X69019Y-41111D01*
X69230Y-41199D01*
X69458Y-41200D01*
X69670Y-41113D01*
X69673Y-41111D01*
X69695Y-41005D01*
X69695Y-42342D01*
X68839Y-42342D01*
X68878Y-42247D01*
X68878Y-42122D01*
X68878Y-40956D01*
X68967Y-40975D01*
X69316Y-40625D01*
X68967Y-40276D01*
X68860Y-40299D01*
X68772Y-40510D01*
X68772Y-40610D01*
X68741Y-40579D01*
X68625Y-40531D01*
X68500Y-40531D01*
X67161Y-40531D01*
X67067Y-40570D01*
X67067Y-25138D01*
X67161Y-25177D01*
X67286Y-25177D01*
X68625Y-25177D01*
X68741Y-25129D01*
X68830Y-25040D01*
X68878Y-24925D01*
X68878Y-24799D01*
X68878Y-23460D01*
X68839Y-23366D01*
X82302Y-23366D01*
X82263Y-23460D01*
X82263Y-23586D01*
X82263Y-24925D01*
X82311Y-25040D01*
X82312Y-25041D01*
X82106Y-25126D01*
X82103Y-25128D01*
X82080Y-25235D01*
X82433Y-25588D01*
X82785Y-25235D01*
X82773Y-25177D01*
X83093Y-25177D01*
X83080Y-25235D01*
X83433Y-25588D01*
X83785Y-25235D01*
X83773Y-25177D01*
X83980Y-25177D01*
X84074Y-25138D01*
X84074Y-28730D01*
X84047Y-28704D01*
X84048Y-28496D01*
X83954Y-28270D01*
X83802Y-28117D01*
X83954Y-27966D01*
X84047Y-27740D01*
X84048Y-27496D01*
X83954Y-27270D01*
X83802Y-27117D01*
X83954Y-26966D01*
X84047Y-26740D01*
X84048Y-26496D01*
X84012Y-26409D01*
X84012Y-25504D01*
X83924Y-25291D01*
X83922Y-25288D01*
X83815Y-25265D01*
X83463Y-25618D01*
X83815Y-25970D01*
X83922Y-25947D01*
X84011Y-25735D01*
X84012Y-25504D01*
X84012Y-26409D01*
X83954Y-26270D01*
X83781Y-26097D01*
X83766Y-26090D01*
X83785Y-26000D01*
X83433Y-25648D01*
X83403Y-25678D01*
X83403Y-25618D01*
X83050Y-25265D01*
X82943Y-25288D01*
X82933Y-25312D01*
X82924Y-25291D01*
X82922Y-25288D01*
X82815Y-25265D01*
X82463Y-25618D01*
X82815Y-25970D01*
X82922Y-25947D01*
X82932Y-25923D01*
X82941Y-25944D01*
X82943Y-25947D01*
X83050Y-25970D01*
X83403Y-25618D01*
X83403Y-25678D01*
X83080Y-26000D01*
X83099Y-26090D01*
X83085Y-26096D01*
X82932Y-26248D01*
X82781Y-26097D01*
X82766Y-26090D01*
X82785Y-26000D01*
X82433Y-25648D01*
X82403Y-25678D01*
X82403Y-25618D01*
X82050Y-25265D01*
X81943Y-25288D01*
X81854Y-25501D01*
X81853Y-25731D01*
X81941Y-25944D01*
X81943Y-25947D01*
X82050Y-25970D01*
X82403Y-25618D01*
X82403Y-25678D01*
X82080Y-26000D01*
X82099Y-26090D01*
X82085Y-26096D01*
X81937Y-26244D01*
X81474Y-26244D01*
X81330Y-26272D01*
X81209Y-26353D01*
X80806Y-26756D01*
X80806Y-25985D01*
X80806Y-25549D01*
X80752Y-25278D01*
X80599Y-25048D01*
X80369Y-24895D01*
X80098Y-24841D01*
X79827Y-24895D01*
X79597Y-25048D01*
X79443Y-25278D01*
X79389Y-25549D01*
X79389Y-25985D01*
X79443Y-26256D01*
X79597Y-26486D01*
X79827Y-26640D01*
X80098Y-26693D01*
X80369Y-26640D01*
X80599Y-26486D01*
X80752Y-26256D01*
X80806Y-25985D01*
X80806Y-26756D01*
X78802Y-28760D01*
X78802Y-25988D01*
X78802Y-25788D01*
X78802Y-25746D01*
X78802Y-25546D01*
X78743Y-25290D01*
X78590Y-25077D01*
X78367Y-24938D01*
X78256Y-24907D01*
X78151Y-24965D01*
X78151Y-25746D01*
X78802Y-25746D01*
X78802Y-25788D01*
X78151Y-25788D01*
X78151Y-26569D01*
X78256Y-26628D01*
X78367Y-26596D01*
X78590Y-26458D01*
X78743Y-26244D01*
X78802Y-25988D01*
X78802Y-28760D01*
X78108Y-29454D01*
X78108Y-26569D01*
X78108Y-25788D01*
X78108Y-25746D01*
X78108Y-24965D01*
X78004Y-24907D01*
X77892Y-24938D01*
X77669Y-25077D01*
X77517Y-25290D01*
X77457Y-25546D01*
X77457Y-25746D01*
X78108Y-25746D01*
X78108Y-25788D01*
X77457Y-25788D01*
X77457Y-25988D01*
X77517Y-26244D01*
X77669Y-26458D01*
X77892Y-26596D01*
X78004Y-26628D01*
X78108Y-26569D01*
X78108Y-29454D01*
X76869Y-30693D01*
X76869Y-25985D01*
X76869Y-25549D01*
X76815Y-25278D01*
X76662Y-25048D01*
X76432Y-24895D01*
X76161Y-24841D01*
X75890Y-24895D01*
X75660Y-25048D01*
X75506Y-25278D01*
X75452Y-25549D01*
X75452Y-25985D01*
X75506Y-26256D01*
X75660Y-26486D01*
X75890Y-26640D01*
X76161Y-26693D01*
X76432Y-26640D01*
X76662Y-26486D01*
X76815Y-26256D01*
X76869Y-25985D01*
X76869Y-30693D01*
X76809Y-30754D01*
X76755Y-30700D01*
X76539Y-30610D01*
X76304Y-30610D01*
X76087Y-30700D01*
X75921Y-30866D01*
X75921Y-30866D01*
X75755Y-30700D01*
X75539Y-30610D01*
X75304Y-30610D01*
X75087Y-30700D01*
X74921Y-30866D01*
X74921Y-30866D01*
X74865Y-30810D01*
X74865Y-25988D01*
X74865Y-25788D01*
X74865Y-25746D01*
X74865Y-25546D01*
X74806Y-25290D01*
X74653Y-25077D01*
X74430Y-24938D01*
X74319Y-24907D01*
X74214Y-24965D01*
X74214Y-25746D01*
X74865Y-25746D01*
X74865Y-25788D01*
X74214Y-25788D01*
X74214Y-26569D01*
X74319Y-26628D01*
X74430Y-26596D01*
X74653Y-26458D01*
X74806Y-26244D01*
X74865Y-25988D01*
X74865Y-30810D01*
X74755Y-30700D01*
X74539Y-30610D01*
X74304Y-30610D01*
X74171Y-30665D01*
X74171Y-26569D01*
X74171Y-25788D01*
X74171Y-25746D01*
X74171Y-24965D01*
X74067Y-24907D01*
X73955Y-24938D01*
X73732Y-25077D01*
X73580Y-25290D01*
X73520Y-25546D01*
X73520Y-25746D01*
X74171Y-25746D01*
X74171Y-25788D01*
X73520Y-25788D01*
X73520Y-25988D01*
X73580Y-26244D01*
X73732Y-26458D01*
X73955Y-26596D01*
X74067Y-26628D01*
X74171Y-26569D01*
X74171Y-30665D01*
X74087Y-30700D01*
X73921Y-30866D01*
X73921Y-30866D01*
X73755Y-30700D01*
X73539Y-30610D01*
X73304Y-30610D01*
X73087Y-30700D01*
X72932Y-30854D01*
X72932Y-25985D01*
X72932Y-25549D01*
X72878Y-25278D01*
X72725Y-25048D01*
X72495Y-24895D01*
X72224Y-24841D01*
X71953Y-24895D01*
X71723Y-25048D01*
X71569Y-25278D01*
X71515Y-25549D01*
X71515Y-25985D01*
X71569Y-26256D01*
X71723Y-26486D01*
X71953Y-26640D01*
X72224Y-26693D01*
X72495Y-26640D01*
X72725Y-26486D01*
X72878Y-26256D01*
X72932Y-25985D01*
X72932Y-30854D01*
X72921Y-30866D01*
X72921Y-30866D01*
X72755Y-30700D01*
X72539Y-30610D01*
X72304Y-30610D01*
X72087Y-30700D01*
X71921Y-30866D01*
X71921Y-30866D01*
X71755Y-30700D01*
X71539Y-30610D01*
X71304Y-30610D01*
X71087Y-30700D01*
X70928Y-30859D01*
X70928Y-25988D01*
X70928Y-25788D01*
X70928Y-25746D01*
X70928Y-25546D01*
X70869Y-25290D01*
X70716Y-25077D01*
X70493Y-24938D01*
X70382Y-24907D01*
X70277Y-24965D01*
X70277Y-25746D01*
X70928Y-25746D01*
X70928Y-25788D01*
X70277Y-25788D01*
X70277Y-26569D01*
X70382Y-26628D01*
X70493Y-26596D01*
X70716Y-26458D01*
X70869Y-26244D01*
X70928Y-25988D01*
X70928Y-30859D01*
X70921Y-30866D01*
X70921Y-30866D01*
X70755Y-30700D01*
X70539Y-30610D01*
X70304Y-30610D01*
X70234Y-30639D01*
X70234Y-26569D01*
X70234Y-25788D01*
X70234Y-25746D01*
X70234Y-24965D01*
X70130Y-24907D01*
X70018Y-24938D01*
X69795Y-25077D01*
X69643Y-25290D01*
X69583Y-25546D01*
X69583Y-25746D01*
X70234Y-25746D01*
X70234Y-25788D01*
X69583Y-25788D01*
X69583Y-25988D01*
X69643Y-26244D01*
X69795Y-26458D01*
X70018Y-26596D01*
X70130Y-26628D01*
X70234Y-26569D01*
X70234Y-30639D01*
X70087Y-30700D01*
X69921Y-30866D01*
X69901Y-30913D01*
X69891Y-30887D01*
X69890Y-30886D01*
X69803Y-30869D01*
X69803Y-29199D01*
X69716Y-28989D01*
X69715Y-28986D01*
X69609Y-28964D01*
X69262Y-29311D01*
X69609Y-29657D01*
X69715Y-29635D01*
X69802Y-29425D01*
X69803Y-29199D01*
X69803Y-30869D01*
X69785Y-30866D01*
X69755Y-30896D01*
X69755Y-30836D01*
X69735Y-30731D01*
X69579Y-30666D01*
X69579Y-29687D01*
X69232Y-29341D01*
X69227Y-29346D01*
X69196Y-29316D01*
X69202Y-29311D01*
X69196Y-29305D01*
X69227Y-29275D01*
X69232Y-29280D01*
X69579Y-28934D01*
X69556Y-28828D01*
X69347Y-28741D01*
X69120Y-28740D01*
X68910Y-28826D01*
X68908Y-28828D01*
X68892Y-28901D01*
X68788Y-28797D01*
X68565Y-28704D01*
X68324Y-28704D01*
X68101Y-28796D01*
X67930Y-28967D01*
X67838Y-29189D01*
X67838Y-29431D01*
X67930Y-29654D01*
X68054Y-29778D01*
X68045Y-29791D01*
X68015Y-29941D01*
X68045Y-30090D01*
X68129Y-30216D01*
X68200Y-30264D01*
X68247Y-30334D01*
X68374Y-30419D01*
X68523Y-30448D01*
X68672Y-30419D01*
X68799Y-30334D01*
X68846Y-30264D01*
X68917Y-30216D01*
X69001Y-30090D01*
X69031Y-29941D01*
X69010Y-29836D01*
X69117Y-29880D01*
X69344Y-29881D01*
X69554Y-29795D01*
X69556Y-29793D01*
X69579Y-29687D01*
X69579Y-30666D01*
X69532Y-30647D01*
X69312Y-30646D01*
X69108Y-30730D01*
X69106Y-30731D01*
X69086Y-30836D01*
X69421Y-31170D01*
X69755Y-30836D01*
X69755Y-30896D01*
X69451Y-31200D01*
X69785Y-31535D01*
X69890Y-31515D01*
X69901Y-31487D01*
X69920Y-31534D01*
X70086Y-31700D01*
X70303Y-31790D01*
X70538Y-31790D01*
X70755Y-31701D01*
X70921Y-31535D01*
X70921Y-31534D01*
X71086Y-31700D01*
X71303Y-31790D01*
X71478Y-31790D01*
X72020Y-32333D01*
X71930Y-32455D01*
X71886Y-32636D01*
X71886Y-32714D01*
X72340Y-32714D01*
X72340Y-32707D01*
X72383Y-32707D01*
X72383Y-32714D01*
X72391Y-32714D01*
X72391Y-32757D01*
X72383Y-32757D01*
X72383Y-33220D01*
X72457Y-33280D01*
X72524Y-33262D01*
X72617Y-33206D01*
X72757Y-33299D01*
X72953Y-33338D01*
X73148Y-33299D01*
X73248Y-33233D01*
X73347Y-33299D01*
X73543Y-33338D01*
X73738Y-33299D01*
X73765Y-33281D01*
X73874Y-33326D01*
X73999Y-33326D01*
X74318Y-33326D01*
X73205Y-34439D01*
X73143Y-34452D01*
X73022Y-34533D01*
X72420Y-35134D01*
X72383Y-35165D01*
X72383Y-35177D01*
X72340Y-35240D01*
X72340Y-35165D01*
X72340Y-33220D01*
X72340Y-32757D01*
X71886Y-32757D01*
X71886Y-32836D01*
X71930Y-33016D01*
X72040Y-33166D01*
X72199Y-33262D01*
X72266Y-33280D01*
X72340Y-33220D01*
X72340Y-35165D01*
X72266Y-35104D01*
X72199Y-35123D01*
X72040Y-35219D01*
X71930Y-35369D01*
X71886Y-35549D01*
X71886Y-35628D01*
X72283Y-35628D01*
X72283Y-35670D01*
X71886Y-35670D01*
X71886Y-35749D01*
X71930Y-35929D01*
X72040Y-36079D01*
X72199Y-36175D01*
X72266Y-36194D01*
X72283Y-36180D01*
X72283Y-36619D01*
X72087Y-36700D01*
X71921Y-36866D01*
X71901Y-36913D01*
X71891Y-36888D01*
X71890Y-36886D01*
X71785Y-36866D01*
X71451Y-37201D01*
X71456Y-37206D01*
X71426Y-37236D01*
X71421Y-37231D01*
X71415Y-37236D01*
X71385Y-37206D01*
X71391Y-37201D01*
X71385Y-37195D01*
X71415Y-37165D01*
X71421Y-37171D01*
X71755Y-36836D01*
X71735Y-36732D01*
X71532Y-36647D01*
X71312Y-36647D01*
X71108Y-36731D01*
X71106Y-36732D01*
X71091Y-36811D01*
X70448Y-36168D01*
X70326Y-36087D01*
X70303Y-36082D01*
X70183Y-36059D01*
X69938Y-36059D01*
X70047Y-35881D01*
X70071Y-35796D01*
X70011Y-35709D01*
X69391Y-35709D01*
X69391Y-35717D01*
X69348Y-35717D01*
X69348Y-35709D01*
X69340Y-35709D01*
X69340Y-35667D01*
X69348Y-35667D01*
X69348Y-35659D01*
X69391Y-35659D01*
X69391Y-35667D01*
X70011Y-35667D01*
X70071Y-35580D01*
X70047Y-35496D01*
X69934Y-35311D01*
X69810Y-35221D01*
X69959Y-35122D01*
X70087Y-34930D01*
X70132Y-34704D01*
X70087Y-34478D01*
X69959Y-34287D01*
X69848Y-34212D01*
X69959Y-34138D01*
X70087Y-33946D01*
X70132Y-33720D01*
X70087Y-33494D01*
X69959Y-33303D01*
X69946Y-33293D01*
X69981Y-33279D01*
X70070Y-33190D01*
X70118Y-33074D01*
X70118Y-32949D01*
X70118Y-32398D01*
X70070Y-32282D01*
X69981Y-32193D01*
X69865Y-32146D01*
X69755Y-32146D01*
X69755Y-31565D01*
X69421Y-31230D01*
X69391Y-31260D01*
X69391Y-31200D01*
X69056Y-30866D01*
X68952Y-30886D01*
X68940Y-30913D01*
X68921Y-30867D01*
X68755Y-30700D01*
X68539Y-30610D01*
X68304Y-30610D01*
X68087Y-30700D01*
X67921Y-30866D01*
X67831Y-31082D01*
X67831Y-31317D01*
X67920Y-31534D01*
X68086Y-31700D01*
X68303Y-31790D01*
X68538Y-31790D01*
X68755Y-31701D01*
X68921Y-31535D01*
X68940Y-31488D01*
X68951Y-31513D01*
X68952Y-31515D01*
X69056Y-31535D01*
X69391Y-31200D01*
X69391Y-31260D01*
X69086Y-31565D01*
X69106Y-31669D01*
X69310Y-31754D01*
X69530Y-31754D01*
X69734Y-31670D01*
X69735Y-31669D01*
X69755Y-31565D01*
X69755Y-32146D01*
X69740Y-32146D01*
X68874Y-32146D01*
X68758Y-32193D01*
X68669Y-32282D01*
X68622Y-32398D01*
X68622Y-32523D01*
X68622Y-33074D01*
X68669Y-33190D01*
X68758Y-33279D01*
X68794Y-33293D01*
X68780Y-33303D01*
X68652Y-33494D01*
X68607Y-33720D01*
X68652Y-33946D01*
X68780Y-34138D01*
X68891Y-34212D01*
X68780Y-34287D01*
X68740Y-34346D01*
X68675Y-34359D01*
X68554Y-34440D01*
X68473Y-34561D01*
X68444Y-34704D01*
X68444Y-35825D01*
X68468Y-35945D01*
X68473Y-35969D01*
X68554Y-36090D01*
X69142Y-36678D01*
X69087Y-36700D01*
X68985Y-36802D01*
X68963Y-36747D01*
X68874Y-36659D01*
X68758Y-36611D01*
X68633Y-36611D01*
X68083Y-36611D01*
X67967Y-36659D01*
X67879Y-36747D01*
X67831Y-36863D01*
X67831Y-36988D01*
X67831Y-37538D01*
X67879Y-37654D01*
X67967Y-37743D01*
X68083Y-37791D01*
X68208Y-37791D01*
X68758Y-37791D01*
X68874Y-37743D01*
X68963Y-37654D01*
X68985Y-37600D01*
X69086Y-37701D01*
X69303Y-37791D01*
X69538Y-37791D01*
X69755Y-37701D01*
X69921Y-37535D01*
X69921Y-37535D01*
X70086Y-37701D01*
X70303Y-37791D01*
X70538Y-37791D01*
X70755Y-37701D01*
X70788Y-37668D01*
X71149Y-38028D01*
X71270Y-38109D01*
X71270Y-38109D01*
X71294Y-38114D01*
X71413Y-38138D01*
X71971Y-38138D01*
X71857Y-38251D01*
X69835Y-38251D01*
X69692Y-38108D01*
X69468Y-38015D01*
X69225Y-38015D01*
X69001Y-38108D01*
X68829Y-38279D01*
X68736Y-38504D01*
X68736Y-38746D01*
X68828Y-38971D01*
X69000Y-39143D01*
X69224Y-39236D01*
X69467Y-39236D01*
X69691Y-39143D01*
X69835Y-39000D01*
X71857Y-39000D01*
X72000Y-39143D01*
X72224Y-39236D01*
X72467Y-39236D01*
X72691Y-39143D01*
X72863Y-38972D01*
X72956Y-38747D01*
X72956Y-38505D01*
X72864Y-38280D01*
X72721Y-38138D01*
X73695Y-38138D01*
X73553Y-38279D01*
X73460Y-38504D01*
X73460Y-38746D01*
X73553Y-38971D01*
X73724Y-39143D01*
X73948Y-39236D01*
X74191Y-39236D01*
X74416Y-39143D01*
X74559Y-39000D01*
X76581Y-39000D01*
X76724Y-39143D01*
X76948Y-39236D01*
X77191Y-39236D01*
X77416Y-39143D01*
X77587Y-38972D01*
X77680Y-38747D01*
X77681Y-38505D01*
X77588Y-38280D01*
X77416Y-38108D01*
X77192Y-38015D01*
X77135Y-38015D01*
X77360Y-37791D01*
X77538Y-37791D01*
X77755Y-37701D01*
X77921Y-37535D01*
X77921Y-37535D01*
X78086Y-37701D01*
X78303Y-37791D01*
X78538Y-37791D01*
X78755Y-37701D01*
X78921Y-37535D01*
X78921Y-37535D01*
X79086Y-37701D01*
X79303Y-37791D01*
X79538Y-37791D01*
X79755Y-37701D01*
X79886Y-37570D01*
X79944Y-37558D01*
X80086Y-37701D01*
X80303Y-37791D01*
X80538Y-37791D01*
X80755Y-37701D01*
X80921Y-37535D01*
X80921Y-37535D01*
X81086Y-37701D01*
X81303Y-37791D01*
X81538Y-37791D01*
X81755Y-37701D01*
X81921Y-37535D01*
X81921Y-37535D01*
X82086Y-37701D01*
X82303Y-37791D01*
X82538Y-37791D01*
X82755Y-37701D01*
X82921Y-37535D01*
X83011Y-37319D01*
X83011Y-37084D01*
X82921Y-36867D01*
X82755Y-36701D01*
X82539Y-36611D01*
X82304Y-36611D01*
X82087Y-36700D01*
X81921Y-36866D01*
X81921Y-36867D01*
X81755Y-36701D01*
X81539Y-36611D01*
X81304Y-36611D01*
X81087Y-36700D01*
X80921Y-36866D01*
X80921Y-36867D01*
X80823Y-36769D01*
X84074Y-33517D01*
X84074Y-40570D01*
M02*
