%FSLAX34Y34*%
G04 Gerber Fmt 3.4, Leading zero omitted, Abs format*
G04 (created by PCBNEW (2014-03-19 BZR 4756)-product) date Mon 30 Jun 2014 23:27:21 BST*
%MOIN*%
G01*
G70*
G90*
G04 APERTURE LIST*
%ADD10C,0.005906*%
%ADD11C,0.007874*%
%ADD12C,0.012000*%
%ADD13C,0.007900*%
%ADD14C,0.015000*%
%ADD15C,0.009843*%
%ADD16C,0.005900*%
%ADD17C,0.005000*%
%ADD18C,0.010000*%
%ADD19C,0.008000*%
%ADD20C,0.004500*%
%ADD21C,0.003000*%
G04 APERTURE END LIST*
G54D10*
G54D11*
X71908Y-33587D02*
X71908Y-33272D01*
X72043Y-33302D02*
X72058Y-33287D01*
X72088Y-33272D01*
X72163Y-33272D01*
X72193Y-33287D01*
X72208Y-33302D01*
X72223Y-33332D01*
X72223Y-33362D01*
X72208Y-33407D01*
X72028Y-33587D01*
X72223Y-33587D01*
X72538Y-33557D02*
X72523Y-33572D01*
X72478Y-33587D01*
X72448Y-33587D01*
X72403Y-33572D01*
X72373Y-33542D01*
X72358Y-33512D01*
X72343Y-33452D01*
X72343Y-33407D01*
X72358Y-33347D01*
X72373Y-33317D01*
X72403Y-33287D01*
X72448Y-33272D01*
X72478Y-33272D01*
X72523Y-33287D01*
X72538Y-33302D01*
X72913Y-33587D02*
X72913Y-33272D01*
X73033Y-33272D01*
X73063Y-33287D01*
X73078Y-33302D01*
X73093Y-33332D01*
X73093Y-33377D01*
X73078Y-33407D01*
X73063Y-33422D01*
X73033Y-33437D01*
X72913Y-33437D01*
X73363Y-33377D02*
X73363Y-33587D01*
X73228Y-33377D02*
X73228Y-33542D01*
X73243Y-33572D01*
X73273Y-33587D01*
X73318Y-33587D01*
X73348Y-33572D01*
X73363Y-33557D01*
X73558Y-33587D02*
X73528Y-33572D01*
X73513Y-33542D01*
X73513Y-33272D01*
X73723Y-33587D02*
X73693Y-33572D01*
X73678Y-33542D01*
X73678Y-33272D01*
X74083Y-33272D02*
X74083Y-33527D01*
X74098Y-33557D01*
X74113Y-33572D01*
X74143Y-33587D01*
X74203Y-33587D01*
X74233Y-33572D01*
X74248Y-33557D01*
X74263Y-33527D01*
X74263Y-33272D01*
X74413Y-33377D02*
X74413Y-33692D01*
X74413Y-33392D02*
X74443Y-33377D01*
X74503Y-33377D01*
X74533Y-33392D01*
X74548Y-33407D01*
X74563Y-33437D01*
X74563Y-33527D01*
X74548Y-33557D01*
X74533Y-33572D01*
X74503Y-33587D01*
X74443Y-33587D01*
X74413Y-33572D01*
G54D12*
X74847Y-24424D02*
X75132Y-24424D01*
X74789Y-24653D02*
X74989Y-23853D01*
X75189Y-24653D01*
X75332Y-23853D02*
X75704Y-23853D01*
X75504Y-24158D01*
X75589Y-24158D01*
X75647Y-24196D01*
X75675Y-24234D01*
X75704Y-24310D01*
X75704Y-24500D01*
X75675Y-24577D01*
X75647Y-24615D01*
X75589Y-24653D01*
X75418Y-24653D01*
X75361Y-24615D01*
X75332Y-24577D01*
X78784Y-24424D02*
X79069Y-24424D01*
X78726Y-24653D02*
X78926Y-23853D01*
X79126Y-24653D01*
X79298Y-23929D02*
X79326Y-23891D01*
X79384Y-23853D01*
X79526Y-23853D01*
X79584Y-23891D01*
X79612Y-23929D01*
X79641Y-24005D01*
X79641Y-24081D01*
X79612Y-24196D01*
X79269Y-24653D01*
X79641Y-24653D01*
X70811Y-24424D02*
X71097Y-24424D01*
X70754Y-24653D02*
X70954Y-23853D01*
X71154Y-24653D01*
X71611Y-24119D02*
X71611Y-24653D01*
X71468Y-23815D02*
X71325Y-24386D01*
X71697Y-24386D01*
G54D13*
X66712Y-41712D02*
G75*
G03X67696Y-42696I984J0D01*
G74*
G01*
X83444Y-42696D02*
G75*
G03X84429Y-41712I0J984D01*
G74*
G01*
X84429Y-23996D02*
G75*
G03X83444Y-23011I-984J0D01*
G74*
G01*
X67696Y-23011D02*
G75*
G03X66712Y-23996I0J-984D01*
G74*
G01*
X66712Y-41712D02*
X66712Y-23996D01*
X83444Y-42696D02*
X67696Y-42696D01*
X83444Y-23011D02*
X67696Y-23011D01*
X84429Y-41712D02*
X84429Y-23996D01*
G54D11*
X80094Y-27673D02*
X80094Y-27359D01*
X80169Y-27359D01*
X80214Y-27374D01*
X80244Y-27404D01*
X80259Y-27434D01*
X80274Y-27494D01*
X80274Y-27538D01*
X80259Y-27598D01*
X80244Y-27628D01*
X80214Y-27658D01*
X80169Y-27673D01*
X80094Y-27673D01*
X80574Y-27673D02*
X80394Y-27673D01*
X80484Y-27673D02*
X80484Y-27359D01*
X80454Y-27404D01*
X80424Y-27434D01*
X80394Y-27449D01*
X80694Y-27389D02*
X80709Y-27374D01*
X80739Y-27359D01*
X80814Y-27359D01*
X80844Y-27374D01*
X80859Y-27389D01*
X80874Y-27419D01*
X80874Y-27449D01*
X80859Y-27494D01*
X80679Y-27673D01*
X80874Y-27673D01*
X80094Y-28193D02*
X80094Y-27878D01*
X80169Y-27878D01*
X80214Y-27893D01*
X80244Y-27923D01*
X80259Y-27953D01*
X80274Y-28013D01*
X80274Y-28058D01*
X80259Y-28118D01*
X80244Y-28148D01*
X80214Y-28178D01*
X80169Y-28193D01*
X80094Y-28193D01*
X80574Y-28193D02*
X80394Y-28193D01*
X80484Y-28193D02*
X80484Y-27878D01*
X80454Y-27923D01*
X80424Y-27953D01*
X80394Y-27968D01*
X80679Y-27878D02*
X80874Y-27878D01*
X80769Y-27998D01*
X80814Y-27998D01*
X80844Y-28013D01*
X80859Y-28028D01*
X80874Y-28058D01*
X80874Y-28133D01*
X80859Y-28163D01*
X80844Y-28178D01*
X80814Y-28193D01*
X80724Y-28193D01*
X80694Y-28178D01*
X80679Y-28163D01*
X80094Y-28713D02*
X80094Y-28398D01*
X80169Y-28398D01*
X80214Y-28413D01*
X80244Y-28443D01*
X80259Y-28473D01*
X80274Y-28533D01*
X80274Y-28578D01*
X80259Y-28638D01*
X80244Y-28668D01*
X80214Y-28698D01*
X80169Y-28713D01*
X80094Y-28713D01*
X80424Y-28713D02*
X80484Y-28713D01*
X80514Y-28698D01*
X80529Y-28683D01*
X80559Y-28638D01*
X80574Y-28578D01*
X80574Y-28458D01*
X80559Y-28428D01*
X80544Y-28413D01*
X80514Y-28398D01*
X80454Y-28398D01*
X80424Y-28413D01*
X80409Y-28428D01*
X80394Y-28458D01*
X80394Y-28533D01*
X80409Y-28563D01*
X80424Y-28578D01*
X80454Y-28593D01*
X80514Y-28593D01*
X80544Y-28578D01*
X80559Y-28563D01*
X80574Y-28533D01*
X76157Y-27673D02*
X76157Y-27359D01*
X76232Y-27359D01*
X76277Y-27374D01*
X76307Y-27404D01*
X76322Y-27434D01*
X76337Y-27494D01*
X76337Y-27538D01*
X76322Y-27598D01*
X76307Y-27628D01*
X76277Y-27658D01*
X76232Y-27673D01*
X76157Y-27673D01*
X76457Y-27389D02*
X76472Y-27374D01*
X76502Y-27359D01*
X76577Y-27359D01*
X76607Y-27374D01*
X76622Y-27389D01*
X76637Y-27419D01*
X76637Y-27449D01*
X76622Y-27494D01*
X76442Y-27673D01*
X76637Y-27673D01*
X76157Y-28193D02*
X76157Y-27878D01*
X76232Y-27878D01*
X76277Y-27893D01*
X76307Y-27923D01*
X76322Y-27953D01*
X76337Y-28013D01*
X76337Y-28058D01*
X76322Y-28118D01*
X76307Y-28148D01*
X76277Y-28178D01*
X76232Y-28193D01*
X76157Y-28193D01*
X76637Y-28193D02*
X76457Y-28193D01*
X76547Y-28193D02*
X76547Y-27878D01*
X76517Y-27923D01*
X76487Y-27953D01*
X76457Y-27968D01*
X76937Y-28193D02*
X76757Y-28193D01*
X76847Y-28193D02*
X76847Y-27878D01*
X76817Y-27923D01*
X76787Y-27953D01*
X76757Y-27968D01*
X76157Y-28713D02*
X76157Y-28398D01*
X76232Y-28398D01*
X76277Y-28413D01*
X76307Y-28443D01*
X76322Y-28473D01*
X76337Y-28533D01*
X76337Y-28578D01*
X76322Y-28638D01*
X76307Y-28668D01*
X76277Y-28698D01*
X76232Y-28713D01*
X76157Y-28713D01*
X76637Y-28713D02*
X76457Y-28713D01*
X76547Y-28713D02*
X76547Y-28398D01*
X76517Y-28443D01*
X76487Y-28473D01*
X76457Y-28488D01*
X76832Y-28398D02*
X76862Y-28398D01*
X76892Y-28413D01*
X76907Y-28428D01*
X76922Y-28458D01*
X76937Y-28518D01*
X76937Y-28593D01*
X76922Y-28653D01*
X76907Y-28683D01*
X76892Y-28698D01*
X76862Y-28713D01*
X76832Y-28713D01*
X76802Y-28698D01*
X76787Y-28683D01*
X76772Y-28653D01*
X76757Y-28593D01*
X76757Y-28518D01*
X76772Y-28458D01*
X76787Y-28428D01*
X76802Y-28413D01*
X76832Y-28398D01*
G54D14*
X77106Y-29389D02*
X77106Y-26712D01*
X79822Y-29389D02*
X77106Y-29389D01*
X79822Y-26712D02*
X79822Y-29389D01*
X77185Y-26712D02*
X79822Y-26712D01*
G54D11*
X78842Y-26854D02*
X78812Y-26839D01*
X78767Y-26839D01*
X78722Y-26854D01*
X78692Y-26884D01*
X78677Y-26914D01*
X78662Y-26974D01*
X78662Y-27019D01*
X78677Y-27079D01*
X78692Y-27109D01*
X78722Y-27139D01*
X78767Y-27154D01*
X78797Y-27154D01*
X78842Y-27139D01*
X78857Y-27124D01*
X78857Y-27019D01*
X78797Y-27019D01*
X78992Y-27154D02*
X78992Y-26839D01*
X79172Y-27154D01*
X79172Y-26839D01*
X79322Y-27154D02*
X79322Y-26839D01*
X79397Y-26839D01*
X79442Y-26854D01*
X79472Y-26884D01*
X79487Y-26914D01*
X79502Y-26974D01*
X79502Y-27019D01*
X79487Y-27079D01*
X79472Y-27109D01*
X79442Y-27139D01*
X79397Y-27154D01*
X79322Y-27154D01*
X78677Y-27673D02*
X78677Y-27359D01*
X78782Y-27583D01*
X78887Y-27359D01*
X78887Y-27673D01*
X79037Y-27673D02*
X79037Y-27359D01*
X79172Y-27658D02*
X79217Y-27673D01*
X79292Y-27673D01*
X79322Y-27658D01*
X79337Y-27643D01*
X79352Y-27613D01*
X79352Y-27583D01*
X79337Y-27553D01*
X79322Y-27538D01*
X79292Y-27523D01*
X79232Y-27508D01*
X79202Y-27494D01*
X79187Y-27479D01*
X79172Y-27449D01*
X79172Y-27419D01*
X79187Y-27389D01*
X79202Y-27374D01*
X79232Y-27359D01*
X79307Y-27359D01*
X79352Y-27374D01*
X79547Y-27359D02*
X79607Y-27359D01*
X79637Y-27374D01*
X79667Y-27404D01*
X79682Y-27464D01*
X79682Y-27568D01*
X79667Y-27628D01*
X79637Y-27658D01*
X79607Y-27673D01*
X79547Y-27673D01*
X79517Y-27658D01*
X79487Y-27628D01*
X79472Y-27568D01*
X79472Y-27464D01*
X79487Y-27404D01*
X79517Y-27374D01*
X79547Y-27359D01*
X78662Y-28178D02*
X78707Y-28193D01*
X78782Y-28193D01*
X78812Y-28178D01*
X78827Y-28163D01*
X78842Y-28133D01*
X78842Y-28103D01*
X78827Y-28073D01*
X78812Y-28058D01*
X78782Y-28043D01*
X78722Y-28028D01*
X78692Y-28013D01*
X78677Y-27998D01*
X78662Y-27968D01*
X78662Y-27938D01*
X78677Y-27908D01*
X78692Y-27893D01*
X78722Y-27878D01*
X78797Y-27878D01*
X78842Y-27893D01*
X79157Y-28163D02*
X79142Y-28178D01*
X79097Y-28193D01*
X79067Y-28193D01*
X79022Y-28178D01*
X78992Y-28148D01*
X78977Y-28118D01*
X78962Y-28058D01*
X78962Y-28013D01*
X78977Y-27953D01*
X78992Y-27923D01*
X79022Y-27893D01*
X79067Y-27878D01*
X79097Y-27878D01*
X79142Y-27893D01*
X79157Y-27908D01*
X79292Y-28193D02*
X79292Y-27878D01*
X79472Y-28193D02*
X79337Y-28013D01*
X79472Y-27878D02*
X79292Y-28058D01*
X78857Y-28683D02*
X78842Y-28698D01*
X78797Y-28713D01*
X78767Y-28713D01*
X78722Y-28698D01*
X78692Y-28668D01*
X78677Y-28638D01*
X78662Y-28578D01*
X78662Y-28533D01*
X78677Y-28473D01*
X78692Y-28443D01*
X78722Y-28413D01*
X78767Y-28398D01*
X78797Y-28398D01*
X78842Y-28413D01*
X78857Y-28428D01*
X78992Y-28548D02*
X79097Y-28548D01*
X79142Y-28713D02*
X78992Y-28713D01*
X78992Y-28398D01*
X79142Y-28398D01*
X78647Y-28918D02*
X78842Y-28918D01*
X78737Y-29038D01*
X78782Y-29038D01*
X78812Y-29053D01*
X78827Y-29068D01*
X78842Y-29098D01*
X78842Y-29173D01*
X78827Y-29203D01*
X78812Y-29218D01*
X78782Y-29233D01*
X78692Y-29233D01*
X78662Y-29218D01*
X78647Y-29203D01*
X78932Y-28918D02*
X79037Y-29233D01*
X79142Y-28918D01*
X79217Y-28918D02*
X79412Y-28918D01*
X79307Y-29038D01*
X79352Y-29038D01*
X79382Y-29053D01*
X79397Y-29068D01*
X79412Y-29098D01*
X79412Y-29173D01*
X79397Y-29203D01*
X79382Y-29218D01*
X79352Y-29233D01*
X79262Y-29233D01*
X79232Y-29218D01*
X79217Y-29203D01*
X77503Y-26854D02*
X77473Y-26839D01*
X77428Y-26839D01*
X77383Y-26854D01*
X77353Y-26884D01*
X77338Y-26914D01*
X77323Y-26974D01*
X77323Y-27019D01*
X77338Y-27079D01*
X77353Y-27109D01*
X77383Y-27139D01*
X77428Y-27154D01*
X77458Y-27154D01*
X77503Y-27139D01*
X77518Y-27124D01*
X77518Y-27019D01*
X77458Y-27019D01*
X77653Y-27154D02*
X77653Y-26839D01*
X77833Y-27154D01*
X77833Y-26839D01*
X77983Y-27154D02*
X77983Y-26839D01*
X78058Y-26839D01*
X78103Y-26854D01*
X78133Y-26884D01*
X78148Y-26914D01*
X78163Y-26974D01*
X78163Y-27019D01*
X78148Y-27079D01*
X78133Y-27109D01*
X78103Y-27139D01*
X78058Y-27154D01*
X77983Y-27154D01*
X77338Y-27673D02*
X77338Y-27359D01*
X77668Y-27673D02*
X77563Y-27523D01*
X77488Y-27673D02*
X77488Y-27359D01*
X77608Y-27359D01*
X77638Y-27374D01*
X77653Y-27389D01*
X77668Y-27419D01*
X77668Y-27464D01*
X77653Y-27494D01*
X77638Y-27508D01*
X77608Y-27523D01*
X77488Y-27523D01*
X78013Y-27703D02*
X77983Y-27688D01*
X77953Y-27658D01*
X77908Y-27613D01*
X77878Y-27598D01*
X77848Y-27598D01*
X77863Y-27673D02*
X77833Y-27658D01*
X77803Y-27628D01*
X77788Y-27568D01*
X77788Y-27464D01*
X77803Y-27404D01*
X77833Y-27374D01*
X77863Y-27359D01*
X77923Y-27359D01*
X77953Y-27374D01*
X77983Y-27404D01*
X77998Y-27464D01*
X77998Y-27568D01*
X77983Y-27628D01*
X77953Y-27658D01*
X77923Y-27673D01*
X77863Y-27673D01*
X77338Y-28193D02*
X77338Y-27878D01*
X77443Y-28103D01*
X77548Y-27878D01*
X77548Y-28193D01*
X77758Y-27878D02*
X77818Y-27878D01*
X77848Y-27893D01*
X77878Y-27923D01*
X77893Y-27983D01*
X77893Y-28088D01*
X77878Y-28148D01*
X77848Y-28178D01*
X77818Y-28193D01*
X77758Y-28193D01*
X77728Y-28178D01*
X77698Y-28148D01*
X77683Y-28088D01*
X77683Y-27983D01*
X77698Y-27923D01*
X77728Y-27893D01*
X77758Y-27878D01*
X78013Y-28178D02*
X78058Y-28193D01*
X78133Y-28193D01*
X78163Y-28178D01*
X78178Y-28163D01*
X78193Y-28133D01*
X78193Y-28103D01*
X78178Y-28073D01*
X78163Y-28058D01*
X78133Y-28043D01*
X78073Y-28028D01*
X78043Y-28013D01*
X78028Y-27998D01*
X78013Y-27968D01*
X78013Y-27938D01*
X78028Y-27908D01*
X78043Y-27893D01*
X78073Y-27878D01*
X78148Y-27878D01*
X78193Y-27893D01*
X78328Y-28193D02*
X78328Y-27878D01*
X77323Y-28698D02*
X77368Y-28713D01*
X77443Y-28713D01*
X77473Y-28698D01*
X77488Y-28683D01*
X77503Y-28653D01*
X77503Y-28623D01*
X77488Y-28593D01*
X77473Y-28578D01*
X77443Y-28563D01*
X77383Y-28548D01*
X77353Y-28533D01*
X77338Y-28518D01*
X77323Y-28488D01*
X77323Y-28458D01*
X77338Y-28428D01*
X77353Y-28413D01*
X77383Y-28398D01*
X77458Y-28398D01*
X77503Y-28413D01*
X77623Y-28698D02*
X77668Y-28713D01*
X77743Y-28713D01*
X77773Y-28698D01*
X77788Y-28683D01*
X77803Y-28653D01*
X77803Y-28623D01*
X77788Y-28593D01*
X77773Y-28578D01*
X77743Y-28563D01*
X77683Y-28548D01*
X77653Y-28533D01*
X77638Y-28518D01*
X77623Y-28488D01*
X77623Y-28458D01*
X77638Y-28428D01*
X77653Y-28413D01*
X77683Y-28398D01*
X77758Y-28398D01*
X77803Y-28413D01*
X77308Y-28918D02*
X77503Y-28918D01*
X77398Y-29038D01*
X77443Y-29038D01*
X77473Y-29053D01*
X77488Y-29068D01*
X77503Y-29098D01*
X77503Y-29173D01*
X77488Y-29203D01*
X77473Y-29218D01*
X77443Y-29233D01*
X77353Y-29233D01*
X77323Y-29218D01*
X77308Y-29203D01*
X77593Y-28918D02*
X77698Y-29233D01*
X77803Y-28918D01*
X77878Y-28918D02*
X78073Y-28918D01*
X77968Y-29038D01*
X78013Y-29038D01*
X78043Y-29053D01*
X78058Y-29068D01*
X78073Y-29098D01*
X78073Y-29173D01*
X78058Y-29203D01*
X78043Y-29218D01*
X78013Y-29233D01*
X77923Y-29233D01*
X77893Y-29218D01*
X77878Y-29203D01*
G54D15*
X79789Y-40621D02*
X79845Y-40640D01*
X79864Y-40658D01*
X79882Y-40696D01*
X79882Y-40752D01*
X79864Y-40790D01*
X79845Y-40808D01*
X79807Y-40827D01*
X79657Y-40827D01*
X79657Y-40434D01*
X79789Y-40434D01*
X79826Y-40452D01*
X79845Y-40471D01*
X79864Y-40508D01*
X79864Y-40546D01*
X79845Y-40583D01*
X79826Y-40602D01*
X79789Y-40621D01*
X79657Y-40621D01*
X80107Y-40827D02*
X80070Y-40808D01*
X80051Y-40771D01*
X80051Y-40434D01*
X80257Y-40827D02*
X80257Y-40565D01*
X80257Y-40434D02*
X80239Y-40452D01*
X80257Y-40471D01*
X80276Y-40452D01*
X80257Y-40434D01*
X80257Y-40471D01*
X80445Y-40565D02*
X80445Y-40827D01*
X80445Y-40602D02*
X80464Y-40583D01*
X80501Y-40565D01*
X80557Y-40565D01*
X80595Y-40583D01*
X80613Y-40621D01*
X80613Y-40827D01*
X80801Y-40827D02*
X80801Y-40434D01*
X80838Y-40677D02*
X80951Y-40827D01*
X80951Y-40565D02*
X80801Y-40715D01*
X79667Y-38495D02*
X79798Y-38495D01*
X79854Y-38701D02*
X79667Y-38701D01*
X79667Y-38308D01*
X79854Y-38308D01*
X80023Y-38701D02*
X80023Y-38439D01*
X80023Y-38514D02*
X80042Y-38476D01*
X80060Y-38458D01*
X80098Y-38439D01*
X80135Y-38439D01*
X80267Y-38701D02*
X80267Y-38439D01*
X80267Y-38514D02*
X80285Y-38476D01*
X80304Y-38458D01*
X80342Y-38439D01*
X80379Y-38439D01*
X80567Y-38701D02*
X80529Y-38682D01*
X80510Y-38664D01*
X80492Y-38626D01*
X80492Y-38514D01*
X80510Y-38476D01*
X80529Y-38458D01*
X80567Y-38439D01*
X80623Y-38439D01*
X80660Y-38458D01*
X80679Y-38476D01*
X80698Y-38514D01*
X80698Y-38626D01*
X80679Y-38664D01*
X80660Y-38682D01*
X80623Y-38701D01*
X80567Y-38701D01*
X80867Y-38701D02*
X80867Y-38439D01*
X80867Y-38514D02*
X80885Y-38476D01*
X80904Y-38458D01*
X80942Y-38439D01*
X80979Y-38439D01*
X73030Y-39185D02*
X73030Y-38997D01*
X73424Y-38997D01*
X73030Y-39316D02*
X73293Y-39316D01*
X73424Y-39316D02*
X73405Y-39297D01*
X73386Y-39316D01*
X73405Y-39335D01*
X73424Y-39316D01*
X73386Y-39316D01*
X73293Y-39672D02*
X72974Y-39672D01*
X72936Y-39654D01*
X72918Y-39635D01*
X72899Y-39597D01*
X72899Y-39541D01*
X72918Y-39504D01*
X73049Y-39672D02*
X73030Y-39635D01*
X73030Y-39560D01*
X73049Y-39522D01*
X73068Y-39504D01*
X73105Y-39485D01*
X73218Y-39485D01*
X73255Y-39504D01*
X73274Y-39522D01*
X73293Y-39560D01*
X73293Y-39635D01*
X73274Y-39672D01*
X73030Y-39860D02*
X73424Y-39860D01*
X73030Y-40029D02*
X73236Y-40029D01*
X73274Y-40010D01*
X73293Y-39972D01*
X73293Y-39916D01*
X73274Y-39879D01*
X73255Y-39860D01*
X73293Y-40160D02*
X73293Y-40310D01*
X73424Y-40216D02*
X73086Y-40216D01*
X73049Y-40235D01*
X73030Y-40272D01*
X73030Y-40310D01*
X68384Y-38904D02*
X68778Y-38904D01*
X68778Y-39054D01*
X68759Y-39091D01*
X68741Y-39110D01*
X68703Y-39129D01*
X68647Y-39129D01*
X68609Y-39110D01*
X68591Y-39091D01*
X68572Y-39054D01*
X68572Y-38904D01*
X68647Y-39466D02*
X68384Y-39466D01*
X68647Y-39297D02*
X68441Y-39297D01*
X68403Y-39316D01*
X68384Y-39354D01*
X68384Y-39410D01*
X68403Y-39447D01*
X68422Y-39466D01*
X68384Y-39654D02*
X68647Y-39654D01*
X68609Y-39654D02*
X68628Y-39672D01*
X68647Y-39710D01*
X68647Y-39766D01*
X68628Y-39804D01*
X68591Y-39822D01*
X68384Y-39822D01*
X68591Y-39822D02*
X68628Y-39841D01*
X68647Y-39879D01*
X68647Y-39935D01*
X68628Y-39972D01*
X68591Y-39991D01*
X68384Y-39991D01*
X68647Y-40179D02*
X68253Y-40179D01*
X68628Y-40179D02*
X68647Y-40216D01*
X68647Y-40291D01*
X68628Y-40329D01*
X68609Y-40347D01*
X68572Y-40366D01*
X68459Y-40366D01*
X68422Y-40347D01*
X68403Y-40329D01*
X68384Y-40291D01*
X68384Y-40216D01*
X68403Y-40179D01*
G54D16*
X70317Y-28878D02*
X70182Y-28878D01*
X70250Y-28878D02*
X70250Y-28484D01*
X70227Y-28540D01*
X70205Y-28578D01*
X70182Y-28597D01*
X70463Y-28484D02*
X70486Y-28484D01*
X70508Y-28503D01*
X70519Y-28522D01*
X70531Y-28559D01*
X70542Y-28634D01*
X70542Y-28728D01*
X70531Y-28803D01*
X70519Y-28841D01*
X70508Y-28859D01*
X70486Y-28878D01*
X70463Y-28878D01*
X70441Y-28859D01*
X70429Y-28841D01*
X70418Y-28803D01*
X70407Y-28728D01*
X70407Y-28634D01*
X70418Y-28559D01*
X70429Y-28522D01*
X70441Y-28503D01*
X70463Y-28484D01*
X70609Y-28615D02*
X70699Y-28615D01*
X70643Y-28484D02*
X70643Y-28822D01*
X70654Y-28859D01*
X70677Y-28878D01*
X70699Y-28878D01*
X70812Y-28878D02*
X70789Y-28859D01*
X70778Y-28841D01*
X70767Y-28803D01*
X70767Y-28691D01*
X70778Y-28653D01*
X70789Y-28634D01*
X70812Y-28615D01*
X70845Y-28615D01*
X70868Y-28634D01*
X70879Y-28653D01*
X70890Y-28691D01*
X70890Y-28803D01*
X70879Y-28841D01*
X70868Y-28859D01*
X70845Y-28878D01*
X70812Y-28878D01*
X70969Y-28484D02*
X71126Y-28484D01*
X71025Y-28878D01*
X71216Y-28841D02*
X71227Y-28859D01*
X71216Y-28878D01*
X71205Y-28859D01*
X71216Y-28841D01*
X71216Y-28878D01*
X71430Y-28859D02*
X71407Y-28878D01*
X71362Y-28878D01*
X71340Y-28859D01*
X71329Y-28841D01*
X71317Y-28803D01*
X71317Y-28691D01*
X71329Y-28653D01*
X71340Y-28634D01*
X71362Y-28615D01*
X71407Y-28615D01*
X71430Y-28634D01*
X71565Y-28878D02*
X71542Y-28859D01*
X71531Y-28841D01*
X71520Y-28803D01*
X71520Y-28691D01*
X71531Y-28653D01*
X71542Y-28634D01*
X71565Y-28615D01*
X71598Y-28615D01*
X71621Y-28634D01*
X71632Y-28653D01*
X71643Y-28691D01*
X71643Y-28803D01*
X71632Y-28841D01*
X71621Y-28859D01*
X71598Y-28878D01*
X71565Y-28878D01*
X71744Y-28878D02*
X71744Y-28615D01*
X71744Y-28653D02*
X71756Y-28634D01*
X71778Y-28615D01*
X71812Y-28615D01*
X71834Y-28634D01*
X71845Y-28672D01*
X71845Y-28878D01*
X71845Y-28672D02*
X71857Y-28634D01*
X71879Y-28615D01*
X71913Y-28615D01*
X71935Y-28634D01*
X71947Y-28672D01*
X71947Y-28878D01*
X70193Y-29489D02*
X70193Y-29095D01*
X70193Y-29282D02*
X70328Y-29282D01*
X70328Y-29489D02*
X70328Y-29095D01*
X70418Y-29226D02*
X70474Y-29489D01*
X70531Y-29226D02*
X70474Y-29489D01*
X70452Y-29583D01*
X70441Y-29601D01*
X70418Y-29620D01*
X70722Y-29489D02*
X70722Y-29095D01*
X70722Y-29470D02*
X70699Y-29489D01*
X70654Y-29489D01*
X70632Y-29470D01*
X70621Y-29451D01*
X70609Y-29414D01*
X70609Y-29301D01*
X70621Y-29264D01*
X70632Y-29245D01*
X70654Y-29226D01*
X70699Y-29226D01*
X70722Y-29245D01*
X70834Y-29489D02*
X70834Y-29226D01*
X70834Y-29301D02*
X70845Y-29264D01*
X70857Y-29245D01*
X70879Y-29226D01*
X70901Y-29226D01*
X71014Y-29489D02*
X70991Y-29470D01*
X70980Y-29451D01*
X70969Y-29414D01*
X70969Y-29301D01*
X70980Y-29264D01*
X70991Y-29245D01*
X71014Y-29226D01*
X71048Y-29226D01*
X71070Y-29245D01*
X71081Y-29264D01*
X71093Y-29301D01*
X71093Y-29414D01*
X71081Y-29451D01*
X71070Y-29470D01*
X71048Y-29489D01*
X71014Y-29489D01*
X71194Y-29226D02*
X71194Y-29620D01*
X71194Y-29245D02*
X71216Y-29226D01*
X71261Y-29226D01*
X71284Y-29245D01*
X71295Y-29264D01*
X71306Y-29301D01*
X71306Y-29414D01*
X71295Y-29451D01*
X71284Y-29470D01*
X71261Y-29489D01*
X71216Y-29489D01*
X71194Y-29470D01*
X71441Y-29489D02*
X71418Y-29470D01*
X71407Y-29451D01*
X71396Y-29414D01*
X71396Y-29301D01*
X71407Y-29264D01*
X71418Y-29245D01*
X71441Y-29226D01*
X71475Y-29226D01*
X71497Y-29245D01*
X71508Y-29264D01*
X71520Y-29301D01*
X71520Y-29414D01*
X71508Y-29451D01*
X71497Y-29470D01*
X71475Y-29489D01*
X71441Y-29489D01*
X71621Y-29226D02*
X71621Y-29489D01*
X71621Y-29264D02*
X71632Y-29245D01*
X71654Y-29226D01*
X71688Y-29226D01*
X71711Y-29245D01*
X71722Y-29282D01*
X71722Y-29489D01*
X71834Y-29489D02*
X71834Y-29226D01*
X71834Y-29095D02*
X71823Y-29114D01*
X71834Y-29132D01*
X71845Y-29114D01*
X71834Y-29095D01*
X71834Y-29132D01*
X72048Y-29470D02*
X72025Y-29489D01*
X71980Y-29489D01*
X71958Y-29470D01*
X71947Y-29451D01*
X71935Y-29414D01*
X71935Y-29301D01*
X71947Y-29264D01*
X71958Y-29245D01*
X71980Y-29226D01*
X72025Y-29226D01*
X72048Y-29245D01*
X72138Y-29470D02*
X72160Y-29489D01*
X72205Y-29489D01*
X72228Y-29470D01*
X72239Y-29432D01*
X72239Y-29414D01*
X72228Y-29376D01*
X72205Y-29357D01*
X72171Y-29357D01*
X72149Y-29339D01*
X72138Y-29301D01*
X72138Y-29282D01*
X72149Y-29245D01*
X72171Y-29226D01*
X72205Y-29226D01*
X72228Y-29245D01*
X72655Y-29451D02*
X72643Y-29470D01*
X72610Y-29489D01*
X72587Y-29489D01*
X72553Y-29470D01*
X72531Y-29432D01*
X72520Y-29395D01*
X72509Y-29320D01*
X72509Y-29264D01*
X72520Y-29189D01*
X72531Y-29151D01*
X72553Y-29114D01*
X72587Y-29095D01*
X72610Y-29095D01*
X72643Y-29114D01*
X72655Y-29132D01*
X72789Y-29489D02*
X72767Y-29470D01*
X72756Y-29451D01*
X72745Y-29414D01*
X72745Y-29301D01*
X72756Y-29264D01*
X72767Y-29245D01*
X72789Y-29226D01*
X72823Y-29226D01*
X72846Y-29245D01*
X72857Y-29264D01*
X72868Y-29301D01*
X72868Y-29414D01*
X72857Y-29451D01*
X72846Y-29470D01*
X72823Y-29489D01*
X72789Y-29489D01*
X72969Y-29226D02*
X72969Y-29489D01*
X72969Y-29264D02*
X72981Y-29245D01*
X73003Y-29226D01*
X73037Y-29226D01*
X73059Y-29245D01*
X73070Y-29282D01*
X73070Y-29489D01*
X73149Y-29226D02*
X73239Y-29226D01*
X73183Y-29095D02*
X73183Y-29432D01*
X73194Y-29470D01*
X73217Y-29489D01*
X73239Y-29489D01*
X73318Y-29489D02*
X73318Y-29226D01*
X73318Y-29301D02*
X73329Y-29264D01*
X73340Y-29245D01*
X73363Y-29226D01*
X73385Y-29226D01*
X73497Y-29489D02*
X73475Y-29470D01*
X73464Y-29451D01*
X73453Y-29414D01*
X73453Y-29301D01*
X73464Y-29264D01*
X73475Y-29245D01*
X73497Y-29226D01*
X73531Y-29226D01*
X73554Y-29245D01*
X73565Y-29264D01*
X73576Y-29301D01*
X73576Y-29414D01*
X73565Y-29451D01*
X73554Y-29470D01*
X73531Y-29489D01*
X73497Y-29489D01*
X73711Y-29489D02*
X73689Y-29470D01*
X73677Y-29432D01*
X73677Y-29095D01*
X73835Y-29489D02*
X73812Y-29470D01*
X73801Y-29432D01*
X73801Y-29095D01*
X74014Y-29470D02*
X73992Y-29489D01*
X73947Y-29489D01*
X73925Y-29470D01*
X73913Y-29432D01*
X73913Y-29282D01*
X73925Y-29245D01*
X73947Y-29226D01*
X73992Y-29226D01*
X74014Y-29245D01*
X74026Y-29282D01*
X74026Y-29320D01*
X73913Y-29357D01*
X74127Y-29489D02*
X74127Y-29226D01*
X74127Y-29301D02*
X74138Y-29264D01*
X74149Y-29245D01*
X74172Y-29226D01*
X74194Y-29226D01*
X70160Y-29705D02*
X70238Y-30099D01*
X70317Y-29705D01*
X70486Y-30081D02*
X70463Y-30099D01*
X70418Y-30099D01*
X70396Y-30081D01*
X70385Y-30043D01*
X70385Y-29893D01*
X70396Y-29855D01*
X70418Y-29837D01*
X70463Y-29837D01*
X70486Y-29855D01*
X70497Y-29893D01*
X70497Y-29931D01*
X70385Y-29968D01*
X70598Y-30099D02*
X70598Y-29837D01*
X70598Y-29912D02*
X70609Y-29874D01*
X70621Y-29855D01*
X70643Y-29837D01*
X70665Y-29837D01*
X70733Y-30081D02*
X70755Y-30099D01*
X70800Y-30099D01*
X70823Y-30081D01*
X70834Y-30043D01*
X70834Y-30024D01*
X70823Y-29987D01*
X70800Y-29968D01*
X70767Y-29968D01*
X70744Y-29949D01*
X70733Y-29912D01*
X70733Y-29893D01*
X70744Y-29855D01*
X70767Y-29837D01*
X70800Y-29837D01*
X70823Y-29855D01*
X70935Y-30099D02*
X70935Y-29837D01*
X70935Y-29705D02*
X70924Y-29724D01*
X70935Y-29743D01*
X70946Y-29724D01*
X70935Y-29705D01*
X70935Y-29743D01*
X71081Y-30099D02*
X71059Y-30081D01*
X71048Y-30062D01*
X71036Y-30024D01*
X71036Y-29912D01*
X71048Y-29874D01*
X71059Y-29855D01*
X71081Y-29837D01*
X71115Y-29837D01*
X71137Y-29855D01*
X71149Y-29874D01*
X71160Y-29912D01*
X71160Y-30024D01*
X71149Y-30062D01*
X71137Y-30081D01*
X71115Y-30099D01*
X71081Y-30099D01*
X71261Y-29837D02*
X71261Y-30099D01*
X71261Y-29874D02*
X71272Y-29855D01*
X71295Y-29837D01*
X71329Y-29837D01*
X71351Y-29855D01*
X71362Y-29893D01*
X71362Y-30099D01*
X71475Y-30062D02*
X71486Y-30081D01*
X71475Y-30099D01*
X71463Y-30081D01*
X71475Y-30062D01*
X71475Y-30099D01*
X71475Y-29855D02*
X71486Y-29874D01*
X71475Y-29893D01*
X71463Y-29874D01*
X71475Y-29855D01*
X71475Y-29893D01*
X71812Y-29705D02*
X71834Y-29705D01*
X71857Y-29724D01*
X71868Y-29743D01*
X71879Y-29780D01*
X71890Y-29855D01*
X71890Y-29949D01*
X71879Y-30024D01*
X71868Y-30062D01*
X71857Y-30081D01*
X71834Y-30099D01*
X71812Y-30099D01*
X71789Y-30081D01*
X71778Y-30062D01*
X71767Y-30024D01*
X71756Y-29949D01*
X71756Y-29855D01*
X71767Y-29780D01*
X71778Y-29743D01*
X71789Y-29724D01*
X71812Y-29705D01*
X71992Y-30062D02*
X72003Y-30081D01*
X71992Y-30099D01*
X71980Y-30081D01*
X71992Y-30062D01*
X71992Y-30099D01*
X72149Y-29705D02*
X72171Y-29705D01*
X72194Y-29724D01*
X72205Y-29743D01*
X72216Y-29780D01*
X72228Y-29855D01*
X72228Y-29949D01*
X72216Y-30024D01*
X72205Y-30062D01*
X72194Y-30081D01*
X72171Y-30099D01*
X72149Y-30099D01*
X72126Y-30081D01*
X72115Y-30062D01*
X72104Y-30024D01*
X72093Y-29949D01*
X72093Y-29855D01*
X72104Y-29780D01*
X72115Y-29743D01*
X72126Y-29724D01*
X72149Y-29705D01*
X72430Y-29837D02*
X72430Y-30099D01*
X72374Y-29687D02*
X72317Y-29968D01*
X72464Y-29968D01*
G54D14*
X68582Y-36476D02*
G75*
G03X67992Y-35885I-590J0D01*
G74*
G01*
G54D12*
X82846Y-30696D02*
X82909Y-30696D01*
X81917Y-37732D02*
X82913Y-37732D01*
X82913Y-37732D02*
X82913Y-36732D01*
X81913Y-36732D02*
X82913Y-36732D01*
X81917Y-31700D02*
X82909Y-31700D01*
X82909Y-31700D02*
X82909Y-30700D01*
X81921Y-30696D02*
X82870Y-30696D01*
X67912Y-37731D02*
X67912Y-36731D01*
X81912Y-37731D02*
X67912Y-37731D01*
X67912Y-36731D02*
X81912Y-36731D01*
X67921Y-30700D02*
X81921Y-30700D01*
X81921Y-31700D02*
X67921Y-31700D01*
X67921Y-31700D02*
X67921Y-30700D01*
X81933Y-30118D02*
X81933Y-25118D01*
X81933Y-25118D02*
X83933Y-25118D01*
X83933Y-25118D02*
X83933Y-30118D01*
X83933Y-30118D02*
X81933Y-30118D01*
G54D10*
X81633Y-30295D02*
X81633Y-29192D01*
X81633Y-29192D02*
X80925Y-29192D01*
X80925Y-29192D02*
X80925Y-30295D01*
X80925Y-30295D02*
X81633Y-30295D01*
X80639Y-30285D02*
X80639Y-29517D01*
X80639Y-29517D02*
X80147Y-29517D01*
X80147Y-29517D02*
X80147Y-30285D01*
X80147Y-30285D02*
X80639Y-30285D01*
X79744Y-41358D02*
X79606Y-41358D01*
X79606Y-41358D02*
X79606Y-42066D01*
X79606Y-42066D02*
X79744Y-42066D01*
X79744Y-42066D02*
X80846Y-42066D01*
X80846Y-42066D02*
X80846Y-41358D01*
X80846Y-41358D02*
X79744Y-41358D01*
X79744Y-41358D02*
X79744Y-42066D01*
X79744Y-39271D02*
X79606Y-39271D01*
X79606Y-39271D02*
X79606Y-39980D01*
X79606Y-39980D02*
X79744Y-39980D01*
X79744Y-39980D02*
X80846Y-39980D01*
X80846Y-39980D02*
X80846Y-39271D01*
X80846Y-39271D02*
X79744Y-39271D01*
X79744Y-39271D02*
X79744Y-39980D01*
X75019Y-41358D02*
X74881Y-41358D01*
X74881Y-41358D02*
X74881Y-42066D01*
X74881Y-42066D02*
X75019Y-42066D01*
X75019Y-42066D02*
X76122Y-42066D01*
X76122Y-42066D02*
X76122Y-41358D01*
X76122Y-41358D02*
X75019Y-41358D01*
X75019Y-41358D02*
X75019Y-42066D01*
X70295Y-41358D02*
X70157Y-41358D01*
X70157Y-41358D02*
X70157Y-42066D01*
X70157Y-42066D02*
X70295Y-42066D01*
X70295Y-42066D02*
X71397Y-42066D01*
X71397Y-42066D02*
X71397Y-41358D01*
X71397Y-41358D02*
X70295Y-41358D01*
X70295Y-41358D02*
X70295Y-42066D01*
X72824Y-34714D02*
X73592Y-34714D01*
X73592Y-34714D02*
X73592Y-34222D01*
X73592Y-34222D02*
X72824Y-34222D01*
X72824Y-34222D02*
X72824Y-34714D01*
X72824Y-34222D02*
X73592Y-34222D01*
X73592Y-34222D02*
X73592Y-33730D01*
X73592Y-33730D02*
X72824Y-33730D01*
X72824Y-33730D02*
X72824Y-34222D01*
X81781Y-41466D02*
X81013Y-41466D01*
X81013Y-41466D02*
X81013Y-41958D01*
X81013Y-41958D02*
X81781Y-41958D01*
X81781Y-41958D02*
X81781Y-41466D01*
X81781Y-39379D02*
X81013Y-39379D01*
X81013Y-39379D02*
X81013Y-39872D01*
X81013Y-39872D02*
X81781Y-39872D01*
X81781Y-39872D02*
X81781Y-39379D01*
X77135Y-41466D02*
X76368Y-41466D01*
X76368Y-41466D02*
X76368Y-41958D01*
X76368Y-41958D02*
X77135Y-41958D01*
X77135Y-41958D02*
X77135Y-41466D01*
X72411Y-41466D02*
X71643Y-41466D01*
X71643Y-41466D02*
X71643Y-41958D01*
X71643Y-41958D02*
X72411Y-41958D01*
X72411Y-41958D02*
X72411Y-41466D01*
G54D17*
X71846Y-39625D02*
G75*
G03X71846Y-39625I-1000J0D01*
G74*
G01*
X69346Y-38125D02*
X72346Y-38125D01*
X72346Y-38125D02*
X72346Y-41125D01*
X72346Y-41125D02*
X69346Y-41125D01*
X69346Y-38125D02*
X69346Y-41125D01*
X76570Y-39625D02*
G75*
G03X76570Y-39625I-1000J0D01*
G74*
G01*
X74070Y-38125D02*
X77070Y-38125D01*
X77070Y-38125D02*
X77070Y-41125D01*
X77070Y-41125D02*
X74070Y-41125D01*
X74070Y-38125D02*
X74070Y-41125D01*
G54D18*
X74974Y-30395D02*
X75164Y-30395D01*
X74936Y-30566D02*
X75069Y-29966D01*
X75202Y-30566D01*
X75564Y-30566D02*
X75431Y-30280D01*
X75336Y-30566D02*
X75336Y-29966D01*
X75488Y-29966D01*
X75526Y-29995D01*
X75545Y-30023D01*
X75564Y-30080D01*
X75564Y-30166D01*
X75545Y-30223D01*
X75526Y-30252D01*
X75488Y-30280D01*
X75336Y-30280D01*
X75736Y-30566D02*
X75736Y-29966D01*
X75831Y-29966D01*
X75888Y-29995D01*
X75926Y-30052D01*
X75945Y-30109D01*
X75964Y-30223D01*
X75964Y-30309D01*
X75945Y-30423D01*
X75926Y-30480D01*
X75888Y-30538D01*
X75831Y-30566D01*
X75736Y-30566D01*
X76136Y-29966D02*
X76136Y-30452D01*
X76155Y-30509D01*
X76174Y-30538D01*
X76212Y-30566D01*
X76288Y-30566D01*
X76326Y-30538D01*
X76345Y-30509D01*
X76364Y-30452D01*
X76364Y-29966D01*
X76555Y-30566D02*
X76555Y-29966D01*
X76745Y-30566D02*
X76745Y-29966D01*
X76974Y-30566D01*
X76974Y-29966D01*
X77240Y-29966D02*
X77317Y-29966D01*
X77355Y-29995D01*
X77393Y-30052D01*
X77412Y-30166D01*
X77412Y-30366D01*
X77393Y-30480D01*
X77355Y-30538D01*
X77317Y-30566D01*
X77240Y-30566D01*
X77202Y-30538D01*
X77164Y-30480D01*
X77145Y-30366D01*
X77145Y-30166D01*
X77164Y-30052D01*
X77202Y-29995D01*
X77240Y-29966D01*
X77488Y-30623D02*
X77793Y-30623D01*
X77888Y-30566D02*
X77888Y-29966D01*
X78117Y-30566D01*
X78117Y-29966D01*
X78288Y-30395D02*
X78479Y-30395D01*
X78250Y-30566D02*
X78383Y-29966D01*
X78517Y-30566D01*
X78650Y-30566D02*
X78650Y-29966D01*
X78879Y-30566D01*
X78879Y-29966D01*
X79145Y-29966D02*
X79221Y-29966D01*
X79259Y-29995D01*
X79298Y-30052D01*
X79317Y-30166D01*
X79317Y-30366D01*
X79298Y-30480D01*
X79259Y-30538D01*
X79221Y-30566D01*
X79145Y-30566D01*
X79107Y-30538D01*
X79069Y-30480D01*
X79050Y-30366D01*
X79050Y-30166D01*
X79069Y-30052D01*
X79107Y-29995D01*
X79145Y-29966D01*
G54D11*
X68119Y-31894D02*
X68224Y-32209D01*
X68329Y-31894D01*
X68434Y-32209D02*
X68434Y-31894D01*
X68584Y-32209D02*
X68584Y-31894D01*
X68764Y-32209D01*
X68764Y-31894D01*
G54D12*
X82151Y-34792D02*
X82637Y-34792D01*
X82694Y-34764D01*
X82723Y-34735D01*
X82751Y-34678D01*
X82751Y-34564D01*
X82723Y-34506D01*
X82694Y-34478D01*
X82637Y-34449D01*
X82151Y-34449D01*
X82723Y-34192D02*
X82751Y-34106D01*
X82751Y-33964D01*
X82723Y-33906D01*
X82694Y-33878D01*
X82637Y-33849D01*
X82580Y-33849D01*
X82523Y-33878D01*
X82494Y-33906D01*
X82466Y-33964D01*
X82437Y-34078D01*
X82408Y-34135D01*
X82380Y-34164D01*
X82323Y-34192D01*
X82266Y-34192D01*
X82208Y-34164D01*
X82180Y-34135D01*
X82151Y-34078D01*
X82151Y-33935D01*
X82180Y-33849D01*
X82437Y-33392D02*
X82466Y-33306D01*
X82494Y-33278D01*
X82551Y-33249D01*
X82637Y-33249D01*
X82694Y-33278D01*
X82723Y-33306D01*
X82751Y-33364D01*
X82751Y-33592D01*
X82151Y-33592D01*
X82151Y-33392D01*
X82180Y-33335D01*
X82208Y-33306D01*
X82266Y-33278D01*
X82323Y-33278D01*
X82380Y-33306D01*
X82408Y-33335D01*
X82437Y-33392D01*
X82437Y-33592D01*
G54D19*
X81959Y-24525D02*
X81959Y-24848D01*
X81978Y-24886D01*
X81997Y-24905D01*
X82035Y-24925D01*
X82111Y-24925D01*
X82149Y-24905D01*
X82168Y-24886D01*
X82187Y-24848D01*
X82187Y-24525D01*
X82587Y-24925D02*
X82359Y-24925D01*
X82473Y-24925D02*
X82473Y-24525D01*
X82435Y-24582D01*
X82397Y-24620D01*
X82359Y-24639D01*
G54D20*
X81249Y-29028D02*
X81240Y-29037D01*
X81215Y-29047D01*
X81198Y-29047D01*
X81172Y-29037D01*
X81155Y-29018D01*
X81146Y-28999D01*
X81138Y-28961D01*
X81138Y-28932D01*
X81146Y-28894D01*
X81155Y-28875D01*
X81172Y-28856D01*
X81198Y-28847D01*
X81215Y-28847D01*
X81240Y-28856D01*
X81249Y-28866D01*
X81420Y-29047D02*
X81318Y-29047D01*
X81369Y-29047D02*
X81369Y-28847D01*
X81352Y-28875D01*
X81335Y-28894D01*
X81318Y-28904D01*
G54D21*
X80373Y-29353D02*
X80367Y-29359D01*
X80350Y-29365D01*
X80339Y-29365D01*
X80322Y-29359D01*
X80310Y-29348D01*
X80305Y-29336D01*
X80299Y-29313D01*
X80299Y-29296D01*
X80305Y-29273D01*
X80310Y-29262D01*
X80322Y-29251D01*
X80339Y-29245D01*
X80350Y-29245D01*
X80367Y-29251D01*
X80373Y-29256D01*
X80419Y-29256D02*
X80425Y-29251D01*
X80436Y-29245D01*
X80465Y-29245D01*
X80476Y-29251D01*
X80482Y-29256D01*
X80487Y-29268D01*
X80487Y-29279D01*
X80482Y-29296D01*
X80413Y-29365D01*
X80487Y-29365D01*
G54D20*
X80162Y-41232D02*
X80162Y-41032D01*
X80205Y-41032D01*
X80230Y-41041D01*
X80248Y-41060D01*
X80256Y-41079D01*
X80265Y-41117D01*
X80265Y-41146D01*
X80256Y-41184D01*
X80248Y-41203D01*
X80230Y-41222D01*
X80205Y-41232D01*
X80162Y-41232D01*
X80436Y-41232D02*
X80333Y-41232D01*
X80385Y-41232D02*
X80385Y-41032D01*
X80368Y-41060D01*
X80350Y-41079D01*
X80333Y-41089D01*
X80162Y-39145D02*
X80162Y-38945D01*
X80205Y-38945D01*
X80230Y-38955D01*
X80248Y-38974D01*
X80256Y-38993D01*
X80265Y-39031D01*
X80265Y-39059D01*
X80256Y-39097D01*
X80248Y-39117D01*
X80230Y-39136D01*
X80205Y-39145D01*
X80162Y-39145D01*
X80333Y-38964D02*
X80342Y-38955D01*
X80359Y-38945D01*
X80402Y-38945D01*
X80419Y-38955D01*
X80428Y-38964D01*
X80436Y-38983D01*
X80436Y-39002D01*
X80428Y-39031D01*
X80325Y-39145D01*
X80436Y-39145D01*
X74453Y-41803D02*
X74453Y-41603D01*
X74496Y-41603D01*
X74522Y-41612D01*
X74539Y-41631D01*
X74548Y-41650D01*
X74556Y-41688D01*
X74556Y-41717D01*
X74548Y-41755D01*
X74539Y-41774D01*
X74522Y-41793D01*
X74496Y-41803D01*
X74453Y-41803D01*
X74616Y-41603D02*
X74728Y-41603D01*
X74668Y-41679D01*
X74693Y-41679D01*
X74710Y-41688D01*
X74719Y-41698D01*
X74728Y-41717D01*
X74728Y-41764D01*
X74719Y-41784D01*
X74710Y-41793D01*
X74693Y-41803D01*
X74642Y-41803D01*
X74625Y-41793D01*
X74616Y-41784D01*
X69729Y-41803D02*
X69729Y-41603D01*
X69772Y-41603D01*
X69797Y-41612D01*
X69815Y-41631D01*
X69823Y-41650D01*
X69832Y-41688D01*
X69832Y-41717D01*
X69823Y-41755D01*
X69815Y-41774D01*
X69797Y-41793D01*
X69772Y-41803D01*
X69729Y-41803D01*
X69986Y-41669D02*
X69986Y-41803D01*
X69943Y-41593D02*
X69900Y-41736D01*
X70012Y-41736D01*
G54D21*
X72731Y-34488D02*
X72674Y-34528D01*
X72731Y-34557D02*
X72611Y-34557D01*
X72611Y-34511D01*
X72617Y-34499D01*
X72622Y-34494D01*
X72634Y-34488D01*
X72651Y-34488D01*
X72662Y-34494D01*
X72668Y-34499D01*
X72674Y-34511D01*
X72674Y-34557D01*
X72731Y-34374D02*
X72731Y-34442D01*
X72731Y-34408D02*
X72611Y-34408D01*
X72628Y-34419D01*
X72640Y-34431D01*
X72645Y-34442D01*
X72731Y-33996D02*
X72674Y-34036D01*
X72731Y-34064D02*
X72611Y-34064D01*
X72611Y-34019D01*
X72617Y-34007D01*
X72622Y-34002D01*
X72634Y-33996D01*
X72651Y-33996D01*
X72662Y-34002D01*
X72668Y-34007D01*
X72674Y-34019D01*
X72674Y-34064D01*
X72622Y-33950D02*
X72617Y-33944D01*
X72611Y-33933D01*
X72611Y-33904D01*
X72617Y-33893D01*
X72622Y-33887D01*
X72634Y-33882D01*
X72645Y-33882D01*
X72662Y-33887D01*
X72731Y-33956D01*
X72731Y-33882D01*
X81377Y-41343D02*
X81337Y-41286D01*
X81309Y-41343D02*
X81309Y-41223D01*
X81354Y-41223D01*
X81366Y-41229D01*
X81371Y-41235D01*
X81377Y-41246D01*
X81377Y-41263D01*
X81371Y-41275D01*
X81366Y-41280D01*
X81354Y-41286D01*
X81309Y-41286D01*
X81486Y-41223D02*
X81429Y-41223D01*
X81423Y-41280D01*
X81429Y-41275D01*
X81440Y-41269D01*
X81469Y-41269D01*
X81480Y-41275D01*
X81486Y-41280D01*
X81491Y-41292D01*
X81491Y-41320D01*
X81486Y-41332D01*
X81480Y-41337D01*
X81469Y-41343D01*
X81440Y-41343D01*
X81429Y-41337D01*
X81423Y-41332D01*
X81377Y-39257D02*
X81337Y-39199D01*
X81309Y-39257D02*
X81309Y-39137D01*
X81354Y-39137D01*
X81366Y-39142D01*
X81371Y-39148D01*
X81377Y-39159D01*
X81377Y-39177D01*
X81371Y-39188D01*
X81366Y-39194D01*
X81354Y-39199D01*
X81309Y-39199D01*
X81480Y-39137D02*
X81457Y-39137D01*
X81446Y-39142D01*
X81440Y-39148D01*
X81429Y-39165D01*
X81423Y-39188D01*
X81423Y-39234D01*
X81429Y-39245D01*
X81434Y-39251D01*
X81446Y-39257D01*
X81469Y-39257D01*
X81480Y-39251D01*
X81486Y-39245D01*
X81491Y-39234D01*
X81491Y-39205D01*
X81486Y-39194D01*
X81480Y-39188D01*
X81469Y-39182D01*
X81446Y-39182D01*
X81434Y-39188D01*
X81429Y-39194D01*
X81423Y-39205D01*
X76731Y-41343D02*
X76691Y-41286D01*
X76663Y-41343D02*
X76663Y-41223D01*
X76709Y-41223D01*
X76720Y-41229D01*
X76726Y-41235D01*
X76731Y-41246D01*
X76731Y-41263D01*
X76726Y-41275D01*
X76720Y-41280D01*
X76709Y-41286D01*
X76663Y-41286D01*
X76771Y-41223D02*
X76851Y-41223D01*
X76800Y-41343D01*
X72007Y-41343D02*
X71967Y-41286D01*
X71938Y-41343D02*
X71938Y-41223D01*
X71984Y-41223D01*
X71996Y-41229D01*
X72001Y-41235D01*
X72007Y-41246D01*
X72007Y-41263D01*
X72001Y-41275D01*
X71996Y-41280D01*
X71984Y-41286D01*
X71938Y-41286D01*
X72076Y-41275D02*
X72064Y-41269D01*
X72058Y-41263D01*
X72053Y-41252D01*
X72053Y-41246D01*
X72058Y-41235D01*
X72064Y-41229D01*
X72076Y-41223D01*
X72098Y-41223D01*
X72110Y-41229D01*
X72116Y-41235D01*
X72121Y-41246D01*
X72121Y-41252D01*
X72116Y-41263D01*
X72110Y-41269D01*
X72098Y-41275D01*
X72076Y-41275D01*
X72064Y-41280D01*
X72058Y-41286D01*
X72053Y-41297D01*
X72053Y-41320D01*
X72058Y-41332D01*
X72064Y-41337D01*
X72076Y-41343D01*
X72098Y-41343D01*
X72110Y-41337D01*
X72116Y-41332D01*
X72121Y-41320D01*
X72121Y-41297D01*
X72116Y-41286D01*
X72110Y-41280D01*
X72098Y-41275D01*
G54D19*
X70313Y-39487D02*
X70370Y-39506D01*
X70465Y-39506D01*
X70503Y-39487D01*
X70522Y-39468D01*
X70541Y-39430D01*
X70541Y-39392D01*
X70522Y-39354D01*
X70503Y-39335D01*
X70465Y-39316D01*
X70389Y-39297D01*
X70351Y-39278D01*
X70332Y-39259D01*
X70313Y-39221D01*
X70313Y-39183D01*
X70332Y-39145D01*
X70351Y-39125D01*
X70389Y-39106D01*
X70484Y-39106D01*
X70541Y-39125D01*
X70675Y-39106D02*
X70770Y-39506D01*
X70846Y-39221D01*
X70922Y-39506D01*
X71017Y-39106D01*
X71379Y-39506D02*
X71151Y-39506D01*
X71265Y-39506D02*
X71265Y-39106D01*
X71227Y-39164D01*
X71189Y-39202D01*
X71151Y-39221D01*
X75037Y-39487D02*
X75094Y-39506D01*
X75189Y-39506D01*
X75228Y-39487D01*
X75247Y-39468D01*
X75266Y-39430D01*
X75266Y-39392D01*
X75247Y-39354D01*
X75228Y-39335D01*
X75189Y-39316D01*
X75113Y-39297D01*
X75075Y-39278D01*
X75056Y-39259D01*
X75037Y-39221D01*
X75037Y-39183D01*
X75056Y-39145D01*
X75075Y-39125D01*
X75113Y-39106D01*
X75208Y-39106D01*
X75266Y-39125D01*
X75399Y-39106D02*
X75494Y-39506D01*
X75570Y-39221D01*
X75647Y-39506D01*
X75742Y-39106D01*
X75856Y-39106D02*
X76104Y-39106D01*
X75970Y-39259D01*
X76028Y-39259D01*
X76066Y-39278D01*
X76085Y-39297D01*
X76104Y-39335D01*
X76104Y-39430D01*
X76085Y-39468D01*
X76066Y-39487D01*
X76028Y-39506D01*
X75913Y-39506D01*
X75875Y-39487D01*
X75856Y-39468D01*
M02*
