M48
;DRILL file {Pcbnew (2014-03-19 BZR 4756)-product} date Mon 30 Jun 2014 23:39:16 BST
;FORMAT={2:4/ absolute / inch / suppress leading zeros}
FMAT,2
INCH,TZ
T1C0.020
T2C0.024
T3C0.032
T4C0.032
T5C0.035
T6C0.039
T7C0.040
T8C0.059
T9C0.118
%
G90
G05
M72
T1
X79941Y-32657
X79941Y-35650
X80453Y-32657
X80453Y-35650
X80965Y-32657
X80965Y-35650
T2
X72362Y-32736
X72362Y-35650
X72953Y-32736
X72953Y-35650
X73543Y-32736
X73543Y-35650
X74134Y-32736
X74134Y-35650
T3
X68445Y-29311
X69233Y-29311
T4
X68421Y-31201
X68421Y-37201
X69421Y-31201
X69421Y-37201
X70421Y-31201
X70421Y-37201
X71421Y-31201
X71421Y-37201
X72421Y-31201
X72421Y-37201
X73421Y-31201
X73421Y-37201
X74421Y-31201
X74421Y-37201
X75421Y-31201
X75421Y-37201
X76421Y-31201
X76421Y-37201
X77421Y-31201
X77421Y-37201
X78421Y-31201
X78421Y-37201
X79421Y-31201
X79421Y-37201
X80421Y-31201
X80421Y-37201
X81421Y-31201
X81421Y-37201
X82421Y-31201
X82421Y-37201
T5
X69370Y-32737
X69370Y-33721
X69370Y-34705
X69370Y-35689
T6
X69346Y-38626
X69346Y-40626
X72346Y-38626
X72346Y-40626
X74071Y-38626
X74071Y-40626
X77071Y-38626
X77071Y-40626
T7
X77382Y-32752
X77382Y-33752
X77382Y-34752
X77382Y-35752
X82433Y-25618
X82433Y-26618
X82433Y-27618
X82433Y-28618
X82433Y-29618
X83433Y-25618
X83433Y-26618
X83433Y-27618
X83433Y-28618
X83433Y-29618
T8
X70256Y-25768
X72224Y-25768
X74193Y-25768
X76161Y-25768
X78130Y-25768
X80098Y-25768
T9
X67894Y-24193
X67894Y-41516
X83248Y-24193
X83248Y-41516
T0
M30
