%FSLAX34Y34*%
G04 Gerber Fmt 3.4, Leading zero omitted, Abs format*
G04 (created by PCBNEW (2014-03-19 BZR 4756)-product) date Thu 05 Jun 2014 00:35:02 BST*
%MOIN*%
G01*
G70*
G90*
G04 APERTURE LIST*
%ADD10C,0.005906*%
%ADD11C,0.007900*%
%ADD12C,0.007874*%
%ADD13C,0.015000*%
%ADD14C,0.009843*%
%ADD15C,0.005900*%
%ADD16C,0.012000*%
%ADD17C,0.005000*%
%ADD18C,0.010000*%
%ADD19C,0.008000*%
%ADD20C,0.004500*%
%ADD21C,0.003000*%
G04 APERTURE END LIST*
G54D10*
G54D11*
X25964Y-39251D02*
G75*
G03X26948Y-40236I984J0D01*
G74*
G01*
X42696Y-40236D02*
G75*
G03X43681Y-39251I0J984D01*
G74*
G01*
X43681Y-21535D02*
G75*
G03X42696Y-20551I-984J0D01*
G74*
G01*
X26948Y-20551D02*
G75*
G03X25964Y-21535I0J-984D01*
G74*
G01*
X25964Y-39251D02*
X25964Y-21535D01*
X42696Y-40236D02*
X26948Y-40236D01*
X42696Y-20551D02*
X26948Y-20551D01*
X43681Y-39251D02*
X43681Y-21535D01*
G54D12*
X39346Y-25213D02*
X39346Y-24898D01*
X39421Y-24898D01*
X39466Y-24913D01*
X39496Y-24943D01*
X39511Y-24973D01*
X39526Y-25033D01*
X39526Y-25078D01*
X39511Y-25138D01*
X39496Y-25168D01*
X39466Y-25198D01*
X39421Y-25213D01*
X39346Y-25213D01*
X39826Y-25213D02*
X39646Y-25213D01*
X39736Y-25213D02*
X39736Y-24898D01*
X39706Y-24943D01*
X39676Y-24973D01*
X39646Y-24988D01*
X39946Y-24928D02*
X39961Y-24913D01*
X39991Y-24898D01*
X40066Y-24898D01*
X40096Y-24913D01*
X40111Y-24928D01*
X40126Y-24958D01*
X40126Y-24988D01*
X40111Y-25033D01*
X39931Y-25213D01*
X40126Y-25213D01*
X39346Y-25733D02*
X39346Y-25418D01*
X39421Y-25418D01*
X39466Y-25433D01*
X39496Y-25463D01*
X39511Y-25493D01*
X39526Y-25553D01*
X39526Y-25598D01*
X39511Y-25658D01*
X39496Y-25688D01*
X39466Y-25718D01*
X39421Y-25733D01*
X39346Y-25733D01*
X39826Y-25733D02*
X39646Y-25733D01*
X39736Y-25733D02*
X39736Y-25418D01*
X39706Y-25463D01*
X39676Y-25493D01*
X39646Y-25508D01*
X39931Y-25418D02*
X40126Y-25418D01*
X40021Y-25538D01*
X40066Y-25538D01*
X40096Y-25553D01*
X40111Y-25568D01*
X40126Y-25598D01*
X40126Y-25673D01*
X40111Y-25703D01*
X40096Y-25718D01*
X40066Y-25733D01*
X39976Y-25733D01*
X39946Y-25718D01*
X39931Y-25703D01*
X39346Y-26252D02*
X39346Y-25937D01*
X39421Y-25937D01*
X39466Y-25952D01*
X39496Y-25982D01*
X39511Y-26012D01*
X39526Y-26072D01*
X39526Y-26117D01*
X39511Y-26177D01*
X39496Y-26207D01*
X39466Y-26237D01*
X39421Y-26252D01*
X39346Y-26252D01*
X39676Y-26252D02*
X39736Y-26252D01*
X39766Y-26237D01*
X39781Y-26222D01*
X39811Y-26177D01*
X39826Y-26117D01*
X39826Y-25997D01*
X39811Y-25967D01*
X39796Y-25952D01*
X39766Y-25937D01*
X39706Y-25937D01*
X39676Y-25952D01*
X39661Y-25967D01*
X39646Y-25997D01*
X39646Y-26072D01*
X39661Y-26102D01*
X39676Y-26117D01*
X39706Y-26132D01*
X39766Y-26132D01*
X39796Y-26117D01*
X39811Y-26102D01*
X39826Y-26072D01*
X35409Y-25213D02*
X35409Y-24898D01*
X35484Y-24898D01*
X35529Y-24913D01*
X35559Y-24943D01*
X35574Y-24973D01*
X35589Y-25033D01*
X35589Y-25078D01*
X35574Y-25138D01*
X35559Y-25168D01*
X35529Y-25198D01*
X35484Y-25213D01*
X35409Y-25213D01*
X35709Y-24928D02*
X35724Y-24913D01*
X35754Y-24898D01*
X35829Y-24898D01*
X35859Y-24913D01*
X35874Y-24928D01*
X35889Y-24958D01*
X35889Y-24988D01*
X35874Y-25033D01*
X35694Y-25213D01*
X35889Y-25213D01*
X35409Y-25733D02*
X35409Y-25418D01*
X35484Y-25418D01*
X35529Y-25433D01*
X35559Y-25463D01*
X35574Y-25493D01*
X35589Y-25553D01*
X35589Y-25598D01*
X35574Y-25658D01*
X35559Y-25688D01*
X35529Y-25718D01*
X35484Y-25733D01*
X35409Y-25733D01*
X35889Y-25733D02*
X35709Y-25733D01*
X35799Y-25733D02*
X35799Y-25418D01*
X35769Y-25463D01*
X35739Y-25493D01*
X35709Y-25508D01*
X36189Y-25733D02*
X36009Y-25733D01*
X36099Y-25733D02*
X36099Y-25418D01*
X36069Y-25463D01*
X36039Y-25493D01*
X36009Y-25508D01*
X35409Y-26252D02*
X35409Y-25937D01*
X35484Y-25937D01*
X35529Y-25952D01*
X35559Y-25982D01*
X35574Y-26012D01*
X35589Y-26072D01*
X35589Y-26117D01*
X35574Y-26177D01*
X35559Y-26207D01*
X35529Y-26237D01*
X35484Y-26252D01*
X35409Y-26252D01*
X35889Y-26252D02*
X35709Y-26252D01*
X35799Y-26252D02*
X35799Y-25937D01*
X35769Y-25982D01*
X35739Y-26012D01*
X35709Y-26027D01*
X36084Y-25937D02*
X36114Y-25937D01*
X36144Y-25952D01*
X36159Y-25967D01*
X36174Y-25997D01*
X36189Y-26057D01*
X36189Y-26132D01*
X36174Y-26192D01*
X36159Y-26222D01*
X36144Y-26237D01*
X36114Y-26252D01*
X36084Y-26252D01*
X36054Y-26237D01*
X36039Y-26222D01*
X36024Y-26192D01*
X36009Y-26132D01*
X36009Y-26057D01*
X36024Y-25997D01*
X36039Y-25967D01*
X36054Y-25952D01*
X36084Y-25937D01*
G54D13*
X36358Y-26929D02*
X36358Y-24251D01*
X39074Y-26929D02*
X36358Y-26929D01*
X39074Y-24251D02*
X39074Y-26929D01*
X36437Y-24251D02*
X39074Y-24251D01*
G54D12*
X38094Y-24393D02*
X38064Y-24378D01*
X38019Y-24378D01*
X37974Y-24393D01*
X37944Y-24423D01*
X37929Y-24453D01*
X37914Y-24513D01*
X37914Y-24558D01*
X37929Y-24618D01*
X37944Y-24648D01*
X37974Y-24678D01*
X38019Y-24693D01*
X38049Y-24693D01*
X38094Y-24678D01*
X38109Y-24663D01*
X38109Y-24558D01*
X38049Y-24558D01*
X38244Y-24693D02*
X38244Y-24378D01*
X38424Y-24693D01*
X38424Y-24378D01*
X38574Y-24693D02*
X38574Y-24378D01*
X38649Y-24378D01*
X38694Y-24393D01*
X38724Y-24423D01*
X38739Y-24453D01*
X38754Y-24513D01*
X38754Y-24558D01*
X38739Y-24618D01*
X38724Y-24648D01*
X38694Y-24678D01*
X38649Y-24693D01*
X38574Y-24693D01*
X37929Y-25213D02*
X37929Y-24898D01*
X38034Y-25123D01*
X38139Y-24898D01*
X38139Y-25213D01*
X38289Y-25213D02*
X38289Y-24898D01*
X38424Y-25198D02*
X38469Y-25213D01*
X38544Y-25213D01*
X38574Y-25198D01*
X38589Y-25183D01*
X38604Y-25153D01*
X38604Y-25123D01*
X38589Y-25093D01*
X38574Y-25078D01*
X38544Y-25063D01*
X38484Y-25048D01*
X38454Y-25033D01*
X38439Y-25018D01*
X38424Y-24988D01*
X38424Y-24958D01*
X38439Y-24928D01*
X38454Y-24913D01*
X38484Y-24898D01*
X38559Y-24898D01*
X38604Y-24913D01*
X38799Y-24898D02*
X38859Y-24898D01*
X38889Y-24913D01*
X38919Y-24943D01*
X38934Y-25003D01*
X38934Y-25108D01*
X38919Y-25168D01*
X38889Y-25198D01*
X38859Y-25213D01*
X38799Y-25213D01*
X38769Y-25198D01*
X38739Y-25168D01*
X38724Y-25108D01*
X38724Y-25003D01*
X38739Y-24943D01*
X38769Y-24913D01*
X38799Y-24898D01*
X37914Y-25718D02*
X37959Y-25733D01*
X38034Y-25733D01*
X38064Y-25718D01*
X38079Y-25703D01*
X38094Y-25673D01*
X38094Y-25643D01*
X38079Y-25613D01*
X38064Y-25598D01*
X38034Y-25583D01*
X37974Y-25568D01*
X37944Y-25553D01*
X37929Y-25538D01*
X37914Y-25508D01*
X37914Y-25478D01*
X37929Y-25448D01*
X37944Y-25433D01*
X37974Y-25418D01*
X38049Y-25418D01*
X38094Y-25433D01*
X38409Y-25703D02*
X38394Y-25718D01*
X38349Y-25733D01*
X38319Y-25733D01*
X38274Y-25718D01*
X38244Y-25688D01*
X38229Y-25658D01*
X38214Y-25598D01*
X38214Y-25553D01*
X38229Y-25493D01*
X38244Y-25463D01*
X38274Y-25433D01*
X38319Y-25418D01*
X38349Y-25418D01*
X38394Y-25433D01*
X38409Y-25448D01*
X38544Y-25733D02*
X38544Y-25418D01*
X38724Y-25733D02*
X38589Y-25553D01*
X38724Y-25418D02*
X38544Y-25598D01*
X38109Y-26222D02*
X38094Y-26237D01*
X38049Y-26252D01*
X38019Y-26252D01*
X37974Y-26237D01*
X37944Y-26207D01*
X37929Y-26177D01*
X37914Y-26117D01*
X37914Y-26072D01*
X37929Y-26012D01*
X37944Y-25982D01*
X37974Y-25952D01*
X38019Y-25937D01*
X38049Y-25937D01*
X38094Y-25952D01*
X38109Y-25967D01*
X38244Y-26087D02*
X38349Y-26087D01*
X38394Y-26252D02*
X38244Y-26252D01*
X38244Y-25937D01*
X38394Y-25937D01*
X37899Y-26457D02*
X38094Y-26457D01*
X37989Y-26577D01*
X38034Y-26577D01*
X38064Y-26592D01*
X38079Y-26607D01*
X38094Y-26637D01*
X38094Y-26712D01*
X38079Y-26742D01*
X38064Y-26757D01*
X38034Y-26772D01*
X37944Y-26772D01*
X37914Y-26757D01*
X37899Y-26742D01*
X38184Y-26457D02*
X38289Y-26772D01*
X38394Y-26457D01*
X38469Y-26457D02*
X38664Y-26457D01*
X38559Y-26577D01*
X38604Y-26577D01*
X38634Y-26592D01*
X38649Y-26607D01*
X38664Y-26637D01*
X38664Y-26712D01*
X38649Y-26742D01*
X38634Y-26757D01*
X38604Y-26772D01*
X38514Y-26772D01*
X38484Y-26757D01*
X38469Y-26742D01*
X36755Y-24393D02*
X36725Y-24378D01*
X36680Y-24378D01*
X36635Y-24393D01*
X36605Y-24423D01*
X36590Y-24453D01*
X36575Y-24513D01*
X36575Y-24558D01*
X36590Y-24618D01*
X36605Y-24648D01*
X36635Y-24678D01*
X36680Y-24693D01*
X36710Y-24693D01*
X36755Y-24678D01*
X36770Y-24663D01*
X36770Y-24558D01*
X36710Y-24558D01*
X36905Y-24693D02*
X36905Y-24378D01*
X37085Y-24693D01*
X37085Y-24378D01*
X37235Y-24693D02*
X37235Y-24378D01*
X37310Y-24378D01*
X37355Y-24393D01*
X37385Y-24423D01*
X37400Y-24453D01*
X37415Y-24513D01*
X37415Y-24558D01*
X37400Y-24618D01*
X37385Y-24648D01*
X37355Y-24678D01*
X37310Y-24693D01*
X37235Y-24693D01*
X36590Y-25213D02*
X36590Y-24898D01*
X36920Y-25213D02*
X36815Y-25063D01*
X36740Y-25213D02*
X36740Y-24898D01*
X36860Y-24898D01*
X36890Y-24913D01*
X36905Y-24928D01*
X36920Y-24958D01*
X36920Y-25003D01*
X36905Y-25033D01*
X36890Y-25048D01*
X36860Y-25063D01*
X36740Y-25063D01*
X37265Y-25243D02*
X37235Y-25228D01*
X37205Y-25198D01*
X37160Y-25153D01*
X37130Y-25138D01*
X37100Y-25138D01*
X37115Y-25213D02*
X37085Y-25198D01*
X37055Y-25168D01*
X37040Y-25108D01*
X37040Y-25003D01*
X37055Y-24943D01*
X37085Y-24913D01*
X37115Y-24898D01*
X37175Y-24898D01*
X37205Y-24913D01*
X37235Y-24943D01*
X37250Y-25003D01*
X37250Y-25108D01*
X37235Y-25168D01*
X37205Y-25198D01*
X37175Y-25213D01*
X37115Y-25213D01*
X36590Y-25733D02*
X36590Y-25418D01*
X36695Y-25643D01*
X36800Y-25418D01*
X36800Y-25733D01*
X37010Y-25418D02*
X37070Y-25418D01*
X37100Y-25433D01*
X37130Y-25463D01*
X37145Y-25523D01*
X37145Y-25628D01*
X37130Y-25688D01*
X37100Y-25718D01*
X37070Y-25733D01*
X37010Y-25733D01*
X36980Y-25718D01*
X36950Y-25688D01*
X36935Y-25628D01*
X36935Y-25523D01*
X36950Y-25463D01*
X36980Y-25433D01*
X37010Y-25418D01*
X37265Y-25718D02*
X37310Y-25733D01*
X37385Y-25733D01*
X37415Y-25718D01*
X37430Y-25703D01*
X37445Y-25673D01*
X37445Y-25643D01*
X37430Y-25613D01*
X37415Y-25598D01*
X37385Y-25583D01*
X37325Y-25568D01*
X37295Y-25553D01*
X37280Y-25538D01*
X37265Y-25508D01*
X37265Y-25478D01*
X37280Y-25448D01*
X37295Y-25433D01*
X37325Y-25418D01*
X37400Y-25418D01*
X37445Y-25433D01*
X37580Y-25733D02*
X37580Y-25418D01*
X36575Y-26237D02*
X36620Y-26252D01*
X36695Y-26252D01*
X36725Y-26237D01*
X36740Y-26222D01*
X36755Y-26192D01*
X36755Y-26162D01*
X36740Y-26132D01*
X36725Y-26117D01*
X36695Y-26102D01*
X36635Y-26087D01*
X36605Y-26072D01*
X36590Y-26057D01*
X36575Y-26027D01*
X36575Y-25997D01*
X36590Y-25967D01*
X36605Y-25952D01*
X36635Y-25937D01*
X36710Y-25937D01*
X36755Y-25952D01*
X36875Y-26237D02*
X36920Y-26252D01*
X36995Y-26252D01*
X37025Y-26237D01*
X37040Y-26222D01*
X37055Y-26192D01*
X37055Y-26162D01*
X37040Y-26132D01*
X37025Y-26117D01*
X36995Y-26102D01*
X36935Y-26087D01*
X36905Y-26072D01*
X36890Y-26057D01*
X36875Y-26027D01*
X36875Y-25997D01*
X36890Y-25967D01*
X36905Y-25952D01*
X36935Y-25937D01*
X37010Y-25937D01*
X37055Y-25952D01*
X36560Y-26457D02*
X36755Y-26457D01*
X36650Y-26577D01*
X36695Y-26577D01*
X36725Y-26592D01*
X36740Y-26607D01*
X36755Y-26637D01*
X36755Y-26712D01*
X36740Y-26742D01*
X36725Y-26757D01*
X36695Y-26772D01*
X36605Y-26772D01*
X36575Y-26757D01*
X36560Y-26742D01*
X36845Y-26457D02*
X36950Y-26772D01*
X37055Y-26457D01*
X37130Y-26457D02*
X37325Y-26457D01*
X37220Y-26577D01*
X37265Y-26577D01*
X37295Y-26592D01*
X37310Y-26607D01*
X37325Y-26637D01*
X37325Y-26712D01*
X37310Y-26742D01*
X37295Y-26757D01*
X37265Y-26772D01*
X37175Y-26772D01*
X37145Y-26757D01*
X37130Y-26742D01*
G54D14*
X39041Y-38160D02*
X39097Y-38179D01*
X39116Y-38198D01*
X39134Y-38235D01*
X39134Y-38292D01*
X39116Y-38329D01*
X39097Y-38348D01*
X39059Y-38367D01*
X38909Y-38367D01*
X38909Y-37973D01*
X39041Y-37973D01*
X39078Y-37992D01*
X39097Y-38010D01*
X39116Y-38048D01*
X39116Y-38085D01*
X39097Y-38123D01*
X39078Y-38142D01*
X39041Y-38160D01*
X38909Y-38160D01*
X39359Y-38367D02*
X39322Y-38348D01*
X39303Y-38310D01*
X39303Y-37973D01*
X39509Y-38367D02*
X39509Y-38104D01*
X39509Y-37973D02*
X39491Y-37992D01*
X39509Y-38010D01*
X39528Y-37992D01*
X39509Y-37973D01*
X39509Y-38010D01*
X39697Y-38104D02*
X39697Y-38367D01*
X39697Y-38142D02*
X39715Y-38123D01*
X39753Y-38104D01*
X39809Y-38104D01*
X39847Y-38123D01*
X39865Y-38160D01*
X39865Y-38367D01*
X40053Y-38367D02*
X40053Y-37973D01*
X40090Y-38217D02*
X40203Y-38367D01*
X40203Y-38104D02*
X40053Y-38254D01*
X38919Y-36034D02*
X39050Y-36034D01*
X39106Y-36241D02*
X38919Y-36241D01*
X38919Y-35847D01*
X39106Y-35847D01*
X39275Y-36241D02*
X39275Y-35978D01*
X39275Y-36053D02*
X39294Y-36016D01*
X39312Y-35997D01*
X39350Y-35978D01*
X39387Y-35978D01*
X39519Y-36241D02*
X39519Y-35978D01*
X39519Y-36053D02*
X39537Y-36016D01*
X39556Y-35997D01*
X39594Y-35978D01*
X39631Y-35978D01*
X39819Y-36241D02*
X39781Y-36222D01*
X39762Y-36203D01*
X39744Y-36166D01*
X39744Y-36053D01*
X39762Y-36016D01*
X39781Y-35997D01*
X39819Y-35978D01*
X39875Y-35978D01*
X39912Y-35997D01*
X39931Y-36016D01*
X39950Y-36053D01*
X39950Y-36166D01*
X39931Y-36203D01*
X39912Y-36222D01*
X39875Y-36241D01*
X39819Y-36241D01*
X40119Y-36241D02*
X40119Y-35978D01*
X40119Y-36053D02*
X40137Y-36016D01*
X40156Y-35997D01*
X40194Y-35978D01*
X40231Y-35978D01*
X32282Y-36724D02*
X32282Y-36537D01*
X32676Y-36537D01*
X32282Y-36856D02*
X32544Y-36856D01*
X32676Y-36856D02*
X32657Y-36837D01*
X32638Y-36856D01*
X32657Y-36874D01*
X32676Y-36856D01*
X32638Y-36856D01*
X32544Y-37212D02*
X32226Y-37212D01*
X32188Y-37193D01*
X32170Y-37174D01*
X32151Y-37137D01*
X32151Y-37080D01*
X32170Y-37043D01*
X32301Y-37212D02*
X32282Y-37174D01*
X32282Y-37099D01*
X32301Y-37062D01*
X32320Y-37043D01*
X32357Y-37024D01*
X32470Y-37024D01*
X32507Y-37043D01*
X32526Y-37062D01*
X32544Y-37099D01*
X32544Y-37174D01*
X32526Y-37212D01*
X32282Y-37399D02*
X32676Y-37399D01*
X32282Y-37568D02*
X32488Y-37568D01*
X32526Y-37549D01*
X32544Y-37512D01*
X32544Y-37455D01*
X32526Y-37418D01*
X32507Y-37399D01*
X32544Y-37699D02*
X32544Y-37849D01*
X32676Y-37755D02*
X32338Y-37755D01*
X32301Y-37774D01*
X32282Y-37812D01*
X32282Y-37849D01*
X27636Y-36443D02*
X28030Y-36443D01*
X28030Y-36593D01*
X28011Y-36631D01*
X27993Y-36649D01*
X27955Y-36668D01*
X27899Y-36668D01*
X27861Y-36649D01*
X27843Y-36631D01*
X27824Y-36593D01*
X27824Y-36443D01*
X27899Y-37005D02*
X27636Y-37005D01*
X27899Y-36837D02*
X27693Y-36837D01*
X27655Y-36856D01*
X27636Y-36893D01*
X27636Y-36949D01*
X27655Y-36987D01*
X27674Y-37005D01*
X27636Y-37193D02*
X27899Y-37193D01*
X27861Y-37193D02*
X27880Y-37212D01*
X27899Y-37249D01*
X27899Y-37305D01*
X27880Y-37343D01*
X27843Y-37362D01*
X27636Y-37362D01*
X27843Y-37362D02*
X27880Y-37380D01*
X27899Y-37418D01*
X27899Y-37474D01*
X27880Y-37512D01*
X27843Y-37530D01*
X27636Y-37530D01*
X27899Y-37718D02*
X27505Y-37718D01*
X27880Y-37718D02*
X27899Y-37755D01*
X27899Y-37830D01*
X27880Y-37868D01*
X27861Y-37887D01*
X27824Y-37905D01*
X27711Y-37905D01*
X27674Y-37887D01*
X27655Y-37868D01*
X27636Y-37830D01*
X27636Y-37755D01*
X27655Y-37718D01*
G54D15*
X29569Y-26418D02*
X29434Y-26418D01*
X29502Y-26418D02*
X29502Y-26024D01*
X29479Y-26080D01*
X29457Y-26117D01*
X29434Y-26136D01*
X29715Y-26024D02*
X29738Y-26024D01*
X29760Y-26042D01*
X29771Y-26061D01*
X29783Y-26099D01*
X29794Y-26174D01*
X29794Y-26267D01*
X29783Y-26342D01*
X29771Y-26380D01*
X29760Y-26399D01*
X29738Y-26418D01*
X29715Y-26418D01*
X29693Y-26399D01*
X29681Y-26380D01*
X29670Y-26342D01*
X29659Y-26267D01*
X29659Y-26174D01*
X29670Y-26099D01*
X29681Y-26061D01*
X29693Y-26042D01*
X29715Y-26024D01*
X29861Y-26155D02*
X29951Y-26155D01*
X29895Y-26024D02*
X29895Y-26361D01*
X29906Y-26399D01*
X29929Y-26418D01*
X29951Y-26418D01*
X30064Y-26418D02*
X30041Y-26399D01*
X30030Y-26380D01*
X30019Y-26342D01*
X30019Y-26230D01*
X30030Y-26192D01*
X30041Y-26174D01*
X30064Y-26155D01*
X30097Y-26155D01*
X30120Y-26174D01*
X30131Y-26192D01*
X30142Y-26230D01*
X30142Y-26342D01*
X30131Y-26380D01*
X30120Y-26399D01*
X30097Y-26418D01*
X30064Y-26418D01*
X30221Y-26024D02*
X30378Y-26024D01*
X30277Y-26418D01*
X30468Y-26380D02*
X30479Y-26399D01*
X30468Y-26418D01*
X30457Y-26399D01*
X30468Y-26380D01*
X30468Y-26418D01*
X30682Y-26399D02*
X30659Y-26418D01*
X30614Y-26418D01*
X30592Y-26399D01*
X30581Y-26380D01*
X30569Y-26342D01*
X30569Y-26230D01*
X30581Y-26192D01*
X30592Y-26174D01*
X30614Y-26155D01*
X30659Y-26155D01*
X30682Y-26174D01*
X30817Y-26418D02*
X30794Y-26399D01*
X30783Y-26380D01*
X30772Y-26342D01*
X30772Y-26230D01*
X30783Y-26192D01*
X30794Y-26174D01*
X30817Y-26155D01*
X30850Y-26155D01*
X30873Y-26174D01*
X30884Y-26192D01*
X30895Y-26230D01*
X30895Y-26342D01*
X30884Y-26380D01*
X30873Y-26399D01*
X30850Y-26418D01*
X30817Y-26418D01*
X30996Y-26418D02*
X30996Y-26155D01*
X30996Y-26192D02*
X31008Y-26174D01*
X31030Y-26155D01*
X31064Y-26155D01*
X31086Y-26174D01*
X31097Y-26211D01*
X31097Y-26418D01*
X31097Y-26211D02*
X31109Y-26174D01*
X31131Y-26155D01*
X31165Y-26155D01*
X31187Y-26174D01*
X31199Y-26211D01*
X31199Y-26418D01*
X29445Y-27028D02*
X29445Y-26634D01*
X29445Y-26822D02*
X29580Y-26822D01*
X29580Y-27028D02*
X29580Y-26634D01*
X29670Y-26765D02*
X29726Y-27028D01*
X29783Y-26765D02*
X29726Y-27028D01*
X29704Y-27122D01*
X29693Y-27141D01*
X29670Y-27159D01*
X29974Y-27028D02*
X29974Y-26634D01*
X29974Y-27009D02*
X29951Y-27028D01*
X29906Y-27028D01*
X29884Y-27009D01*
X29873Y-26991D01*
X29861Y-26953D01*
X29861Y-26841D01*
X29873Y-26803D01*
X29884Y-26784D01*
X29906Y-26765D01*
X29951Y-26765D01*
X29974Y-26784D01*
X30086Y-27028D02*
X30086Y-26765D01*
X30086Y-26841D02*
X30097Y-26803D01*
X30109Y-26784D01*
X30131Y-26765D01*
X30153Y-26765D01*
X30266Y-27028D02*
X30243Y-27009D01*
X30232Y-26991D01*
X30221Y-26953D01*
X30221Y-26841D01*
X30232Y-26803D01*
X30243Y-26784D01*
X30266Y-26765D01*
X30300Y-26765D01*
X30322Y-26784D01*
X30333Y-26803D01*
X30345Y-26841D01*
X30345Y-26953D01*
X30333Y-26991D01*
X30322Y-27009D01*
X30300Y-27028D01*
X30266Y-27028D01*
X30446Y-26765D02*
X30446Y-27159D01*
X30446Y-26784D02*
X30468Y-26765D01*
X30513Y-26765D01*
X30536Y-26784D01*
X30547Y-26803D01*
X30558Y-26841D01*
X30558Y-26953D01*
X30547Y-26991D01*
X30536Y-27009D01*
X30513Y-27028D01*
X30468Y-27028D01*
X30446Y-27009D01*
X30693Y-27028D02*
X30670Y-27009D01*
X30659Y-26991D01*
X30648Y-26953D01*
X30648Y-26841D01*
X30659Y-26803D01*
X30670Y-26784D01*
X30693Y-26765D01*
X30727Y-26765D01*
X30749Y-26784D01*
X30760Y-26803D01*
X30772Y-26841D01*
X30772Y-26953D01*
X30760Y-26991D01*
X30749Y-27009D01*
X30727Y-27028D01*
X30693Y-27028D01*
X30873Y-26765D02*
X30873Y-27028D01*
X30873Y-26803D02*
X30884Y-26784D01*
X30906Y-26765D01*
X30940Y-26765D01*
X30963Y-26784D01*
X30974Y-26822D01*
X30974Y-27028D01*
X31086Y-27028D02*
X31086Y-26765D01*
X31086Y-26634D02*
X31075Y-26653D01*
X31086Y-26672D01*
X31097Y-26653D01*
X31086Y-26634D01*
X31086Y-26672D01*
X31300Y-27009D02*
X31277Y-27028D01*
X31232Y-27028D01*
X31210Y-27009D01*
X31199Y-26991D01*
X31187Y-26953D01*
X31187Y-26841D01*
X31199Y-26803D01*
X31210Y-26784D01*
X31232Y-26765D01*
X31277Y-26765D01*
X31300Y-26784D01*
X31390Y-27009D02*
X31412Y-27028D01*
X31457Y-27028D01*
X31480Y-27009D01*
X31491Y-26972D01*
X31491Y-26953D01*
X31480Y-26916D01*
X31457Y-26897D01*
X31423Y-26897D01*
X31401Y-26878D01*
X31390Y-26841D01*
X31390Y-26822D01*
X31401Y-26784D01*
X31423Y-26765D01*
X31457Y-26765D01*
X31480Y-26784D01*
X31907Y-26991D02*
X31895Y-27009D01*
X31862Y-27028D01*
X31839Y-27028D01*
X31805Y-27009D01*
X31783Y-26972D01*
X31772Y-26934D01*
X31761Y-26859D01*
X31761Y-26803D01*
X31772Y-26728D01*
X31783Y-26690D01*
X31805Y-26653D01*
X31839Y-26634D01*
X31862Y-26634D01*
X31895Y-26653D01*
X31907Y-26672D01*
X32041Y-27028D02*
X32019Y-27009D01*
X32008Y-26991D01*
X31997Y-26953D01*
X31997Y-26841D01*
X32008Y-26803D01*
X32019Y-26784D01*
X32041Y-26765D01*
X32075Y-26765D01*
X32098Y-26784D01*
X32109Y-26803D01*
X32120Y-26841D01*
X32120Y-26953D01*
X32109Y-26991D01*
X32098Y-27009D01*
X32075Y-27028D01*
X32041Y-27028D01*
X32221Y-26765D02*
X32221Y-27028D01*
X32221Y-26803D02*
X32233Y-26784D01*
X32255Y-26765D01*
X32289Y-26765D01*
X32311Y-26784D01*
X32322Y-26822D01*
X32322Y-27028D01*
X32401Y-26765D02*
X32491Y-26765D01*
X32435Y-26634D02*
X32435Y-26972D01*
X32446Y-27009D01*
X32469Y-27028D01*
X32491Y-27028D01*
X32570Y-27028D02*
X32570Y-26765D01*
X32570Y-26841D02*
X32581Y-26803D01*
X32592Y-26784D01*
X32615Y-26765D01*
X32637Y-26765D01*
X32749Y-27028D02*
X32727Y-27009D01*
X32716Y-26991D01*
X32705Y-26953D01*
X32705Y-26841D01*
X32716Y-26803D01*
X32727Y-26784D01*
X32749Y-26765D01*
X32783Y-26765D01*
X32806Y-26784D01*
X32817Y-26803D01*
X32828Y-26841D01*
X32828Y-26953D01*
X32817Y-26991D01*
X32806Y-27009D01*
X32783Y-27028D01*
X32749Y-27028D01*
X32963Y-27028D02*
X32941Y-27009D01*
X32929Y-26972D01*
X32929Y-26634D01*
X33087Y-27028D02*
X33064Y-27009D01*
X33053Y-26972D01*
X33053Y-26634D01*
X33266Y-27009D02*
X33244Y-27028D01*
X33199Y-27028D01*
X33177Y-27009D01*
X33165Y-26972D01*
X33165Y-26822D01*
X33177Y-26784D01*
X33199Y-26765D01*
X33244Y-26765D01*
X33266Y-26784D01*
X33278Y-26822D01*
X33278Y-26859D01*
X33165Y-26897D01*
X33379Y-27028D02*
X33379Y-26765D01*
X33379Y-26841D02*
X33390Y-26803D01*
X33401Y-26784D01*
X33424Y-26765D01*
X33446Y-26765D01*
X29412Y-27245D02*
X29490Y-27639D01*
X29569Y-27245D01*
X29738Y-27620D02*
X29715Y-27639D01*
X29670Y-27639D01*
X29648Y-27620D01*
X29637Y-27582D01*
X29637Y-27432D01*
X29648Y-27395D01*
X29670Y-27376D01*
X29715Y-27376D01*
X29738Y-27395D01*
X29749Y-27432D01*
X29749Y-27470D01*
X29637Y-27507D01*
X29850Y-27639D02*
X29850Y-27376D01*
X29850Y-27451D02*
X29861Y-27414D01*
X29873Y-27395D01*
X29895Y-27376D01*
X29917Y-27376D01*
X29985Y-27620D02*
X30007Y-27639D01*
X30052Y-27639D01*
X30075Y-27620D01*
X30086Y-27582D01*
X30086Y-27564D01*
X30075Y-27526D01*
X30052Y-27507D01*
X30019Y-27507D01*
X29996Y-27489D01*
X29985Y-27451D01*
X29985Y-27432D01*
X29996Y-27395D01*
X30019Y-27376D01*
X30052Y-27376D01*
X30075Y-27395D01*
X30187Y-27639D02*
X30187Y-27376D01*
X30187Y-27245D02*
X30176Y-27263D01*
X30187Y-27282D01*
X30198Y-27263D01*
X30187Y-27245D01*
X30187Y-27282D01*
X30333Y-27639D02*
X30311Y-27620D01*
X30300Y-27601D01*
X30288Y-27564D01*
X30288Y-27451D01*
X30300Y-27414D01*
X30311Y-27395D01*
X30333Y-27376D01*
X30367Y-27376D01*
X30389Y-27395D01*
X30401Y-27414D01*
X30412Y-27451D01*
X30412Y-27564D01*
X30401Y-27601D01*
X30389Y-27620D01*
X30367Y-27639D01*
X30333Y-27639D01*
X30513Y-27376D02*
X30513Y-27639D01*
X30513Y-27414D02*
X30524Y-27395D01*
X30547Y-27376D01*
X30581Y-27376D01*
X30603Y-27395D01*
X30614Y-27432D01*
X30614Y-27639D01*
X30727Y-27601D02*
X30738Y-27620D01*
X30727Y-27639D01*
X30715Y-27620D01*
X30727Y-27601D01*
X30727Y-27639D01*
X30727Y-27395D02*
X30738Y-27414D01*
X30727Y-27432D01*
X30715Y-27414D01*
X30727Y-27395D01*
X30727Y-27432D01*
X31064Y-27245D02*
X31086Y-27245D01*
X31109Y-27263D01*
X31120Y-27282D01*
X31131Y-27320D01*
X31142Y-27395D01*
X31142Y-27489D01*
X31131Y-27564D01*
X31120Y-27601D01*
X31109Y-27620D01*
X31086Y-27639D01*
X31064Y-27639D01*
X31041Y-27620D01*
X31030Y-27601D01*
X31019Y-27564D01*
X31008Y-27489D01*
X31008Y-27395D01*
X31019Y-27320D01*
X31030Y-27282D01*
X31041Y-27263D01*
X31064Y-27245D01*
X31244Y-27601D02*
X31255Y-27620D01*
X31244Y-27639D01*
X31232Y-27620D01*
X31244Y-27601D01*
X31244Y-27639D01*
X31401Y-27245D02*
X31423Y-27245D01*
X31446Y-27263D01*
X31457Y-27282D01*
X31468Y-27320D01*
X31480Y-27395D01*
X31480Y-27489D01*
X31468Y-27564D01*
X31457Y-27601D01*
X31446Y-27620D01*
X31423Y-27639D01*
X31401Y-27639D01*
X31378Y-27620D01*
X31367Y-27601D01*
X31356Y-27564D01*
X31345Y-27489D01*
X31345Y-27395D01*
X31356Y-27320D01*
X31367Y-27282D01*
X31378Y-27263D01*
X31401Y-27245D01*
X31558Y-27245D02*
X31704Y-27245D01*
X31626Y-27395D01*
X31659Y-27395D01*
X31682Y-27414D01*
X31693Y-27432D01*
X31704Y-27470D01*
X31704Y-27564D01*
X31693Y-27601D01*
X31682Y-27620D01*
X31659Y-27639D01*
X31592Y-27639D01*
X31569Y-27620D01*
X31558Y-27601D01*
G54D13*
X27834Y-34015D02*
G75*
G03X27244Y-33425I-590J0D01*
G74*
G01*
G54D16*
X42098Y-28236D02*
X42161Y-28236D01*
X41169Y-35271D02*
X42165Y-35271D01*
X42165Y-35271D02*
X42165Y-34271D01*
X41165Y-34271D02*
X42165Y-34271D01*
X41169Y-29240D02*
X42161Y-29240D01*
X42161Y-29240D02*
X42161Y-28240D01*
X41173Y-28236D02*
X42122Y-28236D01*
X27164Y-35270D02*
X27164Y-34270D01*
X41164Y-35270D02*
X27164Y-35270D01*
X27164Y-34270D02*
X41164Y-34270D01*
X27173Y-28240D02*
X41173Y-28240D01*
X41173Y-29240D02*
X27173Y-29240D01*
X27173Y-29240D02*
X27173Y-28240D01*
X41185Y-27657D02*
X41185Y-22657D01*
X41185Y-22657D02*
X43185Y-22657D01*
X43185Y-22657D02*
X43185Y-27657D01*
X43185Y-27657D02*
X41185Y-27657D01*
G54D10*
X40885Y-27834D02*
X40885Y-26732D01*
X40885Y-26732D02*
X40177Y-26732D01*
X40177Y-26732D02*
X40177Y-27834D01*
X40177Y-27834D02*
X40885Y-27834D01*
X39911Y-27824D02*
X39911Y-27057D01*
X39911Y-27057D02*
X39419Y-27057D01*
X39419Y-27057D02*
X39419Y-27824D01*
X39419Y-27824D02*
X39911Y-27824D01*
X38996Y-38897D02*
X38858Y-38897D01*
X38858Y-38897D02*
X38858Y-39606D01*
X38858Y-39606D02*
X38996Y-39606D01*
X38996Y-39606D02*
X40098Y-39606D01*
X40098Y-39606D02*
X40098Y-38897D01*
X40098Y-38897D02*
X38996Y-38897D01*
X38996Y-38897D02*
X38996Y-39606D01*
X38996Y-36811D02*
X38858Y-36811D01*
X38858Y-36811D02*
X38858Y-37519D01*
X38858Y-37519D02*
X38996Y-37519D01*
X38996Y-37519D02*
X40098Y-37519D01*
X40098Y-37519D02*
X40098Y-36811D01*
X40098Y-36811D02*
X38996Y-36811D01*
X38996Y-36811D02*
X38996Y-37519D01*
X34271Y-38897D02*
X34133Y-38897D01*
X34133Y-38897D02*
X34133Y-39606D01*
X34133Y-39606D02*
X34271Y-39606D01*
X34271Y-39606D02*
X35374Y-39606D01*
X35374Y-39606D02*
X35374Y-38897D01*
X35374Y-38897D02*
X34271Y-38897D01*
X34271Y-38897D02*
X34271Y-39606D01*
X29547Y-38897D02*
X29409Y-38897D01*
X29409Y-38897D02*
X29409Y-39606D01*
X29409Y-39606D02*
X29547Y-39606D01*
X29547Y-39606D02*
X30649Y-39606D01*
X30649Y-39606D02*
X30649Y-38897D01*
X30649Y-38897D02*
X29547Y-38897D01*
X29547Y-38897D02*
X29547Y-39606D01*
X41033Y-39005D02*
X40265Y-39005D01*
X40265Y-39005D02*
X40265Y-39498D01*
X40265Y-39498D02*
X41033Y-39498D01*
X41033Y-39498D02*
X41033Y-39005D01*
X41033Y-36919D02*
X40265Y-36919D01*
X40265Y-36919D02*
X40265Y-37411D01*
X40265Y-37411D02*
X41033Y-37411D01*
X41033Y-37411D02*
X41033Y-36919D01*
X31584Y-39005D02*
X30816Y-39005D01*
X30816Y-39005D02*
X30816Y-39498D01*
X30816Y-39498D02*
X31584Y-39498D01*
X31584Y-39498D02*
X31584Y-39005D01*
X36348Y-39005D02*
X35580Y-39005D01*
X35580Y-39005D02*
X35580Y-39498D01*
X35580Y-39498D02*
X36348Y-39498D01*
X36348Y-39498D02*
X36348Y-39005D01*
G54D17*
X31098Y-37165D02*
G75*
G03X31098Y-37165I-1000J0D01*
G74*
G01*
X28598Y-35665D02*
X31598Y-35665D01*
X31598Y-35665D02*
X31598Y-38665D01*
X31598Y-38665D02*
X28598Y-38665D01*
X28598Y-35665D02*
X28598Y-38665D01*
X35822Y-37165D02*
G75*
G03X35822Y-37165I-1000J0D01*
G74*
G01*
X33322Y-35665D02*
X36322Y-35665D01*
X36322Y-35665D02*
X36322Y-38665D01*
X36322Y-38665D02*
X33322Y-38665D01*
X33322Y-35665D02*
X33322Y-38665D01*
G54D18*
X34226Y-27934D02*
X34416Y-27934D01*
X34188Y-28106D02*
X34321Y-27506D01*
X34454Y-28106D01*
X34816Y-28106D02*
X34683Y-27820D01*
X34588Y-28106D02*
X34588Y-27506D01*
X34740Y-27506D01*
X34778Y-27534D01*
X34797Y-27563D01*
X34816Y-27620D01*
X34816Y-27706D01*
X34797Y-27763D01*
X34778Y-27791D01*
X34740Y-27820D01*
X34588Y-27820D01*
X34988Y-28106D02*
X34988Y-27506D01*
X35083Y-27506D01*
X35140Y-27534D01*
X35178Y-27591D01*
X35197Y-27648D01*
X35216Y-27763D01*
X35216Y-27848D01*
X35197Y-27963D01*
X35178Y-28020D01*
X35140Y-28077D01*
X35083Y-28106D01*
X34988Y-28106D01*
X35388Y-27506D02*
X35388Y-27991D01*
X35407Y-28048D01*
X35426Y-28077D01*
X35464Y-28106D01*
X35540Y-28106D01*
X35578Y-28077D01*
X35597Y-28048D01*
X35616Y-27991D01*
X35616Y-27506D01*
X35807Y-28106D02*
X35807Y-27506D01*
X35997Y-28106D02*
X35997Y-27506D01*
X36226Y-28106D01*
X36226Y-27506D01*
X36492Y-27506D02*
X36569Y-27506D01*
X36607Y-27534D01*
X36645Y-27591D01*
X36664Y-27706D01*
X36664Y-27906D01*
X36645Y-28020D01*
X36607Y-28077D01*
X36569Y-28106D01*
X36492Y-28106D01*
X36454Y-28077D01*
X36416Y-28020D01*
X36397Y-27906D01*
X36397Y-27706D01*
X36416Y-27591D01*
X36454Y-27534D01*
X36492Y-27506D01*
X37140Y-28106D02*
X37140Y-27506D01*
X37369Y-28106D01*
X37369Y-27506D01*
X37540Y-27934D02*
X37730Y-27934D01*
X37502Y-28106D02*
X37635Y-27506D01*
X37769Y-28106D01*
X37902Y-28106D02*
X37902Y-27506D01*
X38130Y-28106D01*
X38130Y-27506D01*
X38397Y-27506D02*
X38473Y-27506D01*
X38511Y-27534D01*
X38550Y-27591D01*
X38569Y-27706D01*
X38569Y-27906D01*
X38550Y-28020D01*
X38511Y-28077D01*
X38473Y-28106D01*
X38397Y-28106D01*
X38359Y-28077D01*
X38321Y-28020D01*
X38302Y-27906D01*
X38302Y-27706D01*
X38321Y-27591D01*
X38359Y-27534D01*
X38397Y-27506D01*
G54D16*
G54D19*
X41210Y-22064D02*
X41210Y-22388D01*
X41230Y-22426D01*
X41249Y-22445D01*
X41287Y-22464D01*
X41363Y-22464D01*
X41401Y-22445D01*
X41420Y-22426D01*
X41439Y-22388D01*
X41439Y-22064D01*
X41839Y-22464D02*
X41610Y-22464D01*
X41725Y-22464D02*
X41725Y-22064D01*
X41687Y-22121D01*
X41649Y-22159D01*
X41610Y-22178D01*
G54D20*
X40501Y-26567D02*
X40492Y-26577D01*
X40467Y-26586D01*
X40450Y-26586D01*
X40424Y-26577D01*
X40407Y-26557D01*
X40398Y-26538D01*
X40390Y-26500D01*
X40390Y-26472D01*
X40398Y-26434D01*
X40407Y-26415D01*
X40424Y-26396D01*
X40450Y-26386D01*
X40467Y-26386D01*
X40492Y-26396D01*
X40501Y-26405D01*
X40672Y-26586D02*
X40570Y-26586D01*
X40621Y-26586D02*
X40621Y-26386D01*
X40604Y-26415D01*
X40587Y-26434D01*
X40570Y-26443D01*
G54D21*
X39645Y-26853D02*
X39639Y-26859D01*
X39622Y-26865D01*
X39611Y-26865D01*
X39593Y-26859D01*
X39582Y-26848D01*
X39576Y-26836D01*
X39571Y-26813D01*
X39571Y-26796D01*
X39576Y-26773D01*
X39582Y-26762D01*
X39593Y-26751D01*
X39611Y-26745D01*
X39622Y-26745D01*
X39639Y-26751D01*
X39645Y-26756D01*
X39691Y-26756D02*
X39696Y-26751D01*
X39708Y-26745D01*
X39736Y-26745D01*
X39748Y-26751D01*
X39753Y-26756D01*
X39759Y-26768D01*
X39759Y-26779D01*
X39753Y-26796D01*
X39685Y-26865D01*
X39759Y-26865D01*
G54D20*
X39414Y-38771D02*
X39414Y-38571D01*
X39457Y-38571D01*
X39482Y-38581D01*
X39500Y-38600D01*
X39508Y-38619D01*
X39517Y-38657D01*
X39517Y-38685D01*
X39508Y-38723D01*
X39500Y-38743D01*
X39482Y-38762D01*
X39457Y-38771D01*
X39414Y-38771D01*
X39688Y-38771D02*
X39585Y-38771D01*
X39637Y-38771D02*
X39637Y-38571D01*
X39620Y-38600D01*
X39602Y-38619D01*
X39585Y-38628D01*
X39414Y-36684D02*
X39414Y-36484D01*
X39457Y-36484D01*
X39482Y-36494D01*
X39500Y-36513D01*
X39508Y-36532D01*
X39517Y-36570D01*
X39517Y-36599D01*
X39508Y-36637D01*
X39500Y-36656D01*
X39482Y-36675D01*
X39457Y-36684D01*
X39414Y-36684D01*
X39585Y-36504D02*
X39594Y-36494D01*
X39611Y-36484D01*
X39654Y-36484D01*
X39671Y-36494D01*
X39680Y-36504D01*
X39688Y-36523D01*
X39688Y-36542D01*
X39680Y-36570D01*
X39577Y-36684D01*
X39688Y-36684D01*
X33705Y-39342D02*
X33705Y-39142D01*
X33748Y-39142D01*
X33774Y-39151D01*
X33791Y-39171D01*
X33800Y-39190D01*
X33808Y-39228D01*
X33808Y-39256D01*
X33800Y-39294D01*
X33791Y-39313D01*
X33774Y-39332D01*
X33748Y-39342D01*
X33705Y-39342D01*
X33868Y-39142D02*
X33980Y-39142D01*
X33920Y-39218D01*
X33945Y-39218D01*
X33962Y-39228D01*
X33971Y-39237D01*
X33980Y-39256D01*
X33980Y-39304D01*
X33971Y-39323D01*
X33962Y-39332D01*
X33945Y-39342D01*
X33894Y-39342D01*
X33877Y-39332D01*
X33868Y-39323D01*
X28981Y-39342D02*
X28981Y-39142D01*
X29024Y-39142D01*
X29049Y-39151D01*
X29067Y-39171D01*
X29075Y-39190D01*
X29084Y-39228D01*
X29084Y-39256D01*
X29075Y-39294D01*
X29067Y-39313D01*
X29049Y-39332D01*
X29024Y-39342D01*
X28981Y-39342D01*
X29238Y-39209D02*
X29238Y-39342D01*
X29195Y-39132D02*
X29152Y-39275D01*
X29264Y-39275D01*
G54D21*
X40629Y-38883D02*
X40589Y-38825D01*
X40561Y-38883D02*
X40561Y-38763D01*
X40606Y-38763D01*
X40618Y-38768D01*
X40623Y-38774D01*
X40629Y-38785D01*
X40629Y-38803D01*
X40623Y-38814D01*
X40618Y-38820D01*
X40606Y-38825D01*
X40561Y-38825D01*
X40738Y-38763D02*
X40681Y-38763D01*
X40675Y-38820D01*
X40681Y-38814D01*
X40692Y-38808D01*
X40721Y-38808D01*
X40732Y-38814D01*
X40738Y-38820D01*
X40743Y-38831D01*
X40743Y-38860D01*
X40738Y-38871D01*
X40732Y-38877D01*
X40721Y-38883D01*
X40692Y-38883D01*
X40681Y-38877D01*
X40675Y-38871D01*
X40629Y-36796D02*
X40589Y-36739D01*
X40561Y-36796D02*
X40561Y-36676D01*
X40606Y-36676D01*
X40618Y-36682D01*
X40623Y-36687D01*
X40629Y-36699D01*
X40629Y-36716D01*
X40623Y-36727D01*
X40618Y-36733D01*
X40606Y-36739D01*
X40561Y-36739D01*
X40732Y-36676D02*
X40709Y-36676D01*
X40698Y-36682D01*
X40692Y-36687D01*
X40681Y-36704D01*
X40675Y-36727D01*
X40675Y-36773D01*
X40681Y-36784D01*
X40686Y-36790D01*
X40698Y-36796D01*
X40721Y-36796D01*
X40732Y-36790D01*
X40738Y-36784D01*
X40743Y-36773D01*
X40743Y-36744D01*
X40738Y-36733D01*
X40732Y-36727D01*
X40721Y-36722D01*
X40698Y-36722D01*
X40686Y-36727D01*
X40681Y-36733D01*
X40675Y-36744D01*
X31180Y-38883D02*
X31140Y-38825D01*
X31112Y-38883D02*
X31112Y-38763D01*
X31157Y-38763D01*
X31169Y-38768D01*
X31175Y-38774D01*
X31180Y-38785D01*
X31180Y-38803D01*
X31175Y-38814D01*
X31169Y-38820D01*
X31157Y-38825D01*
X31112Y-38825D01*
X31220Y-38763D02*
X31300Y-38763D01*
X31249Y-38883D01*
X35944Y-38883D02*
X35904Y-38825D01*
X35875Y-38883D02*
X35875Y-38763D01*
X35921Y-38763D01*
X35933Y-38768D01*
X35938Y-38774D01*
X35944Y-38785D01*
X35944Y-38803D01*
X35938Y-38814D01*
X35933Y-38820D01*
X35921Y-38825D01*
X35875Y-38825D01*
X36013Y-38814D02*
X36001Y-38808D01*
X35995Y-38803D01*
X35990Y-38791D01*
X35990Y-38785D01*
X35995Y-38774D01*
X36001Y-38768D01*
X36013Y-38763D01*
X36035Y-38763D01*
X36047Y-38768D01*
X36053Y-38774D01*
X36058Y-38785D01*
X36058Y-38791D01*
X36053Y-38803D01*
X36047Y-38808D01*
X36035Y-38814D01*
X36013Y-38814D01*
X36001Y-38820D01*
X35995Y-38825D01*
X35990Y-38837D01*
X35990Y-38860D01*
X35995Y-38871D01*
X36001Y-38877D01*
X36013Y-38883D01*
X36035Y-38883D01*
X36047Y-38877D01*
X36053Y-38871D01*
X36058Y-38860D01*
X36058Y-38837D01*
X36053Y-38825D01*
X36047Y-38820D01*
X36035Y-38814D01*
G54D19*
X29565Y-37027D02*
X29622Y-37046D01*
X29717Y-37046D01*
X29755Y-37027D01*
X29774Y-37008D01*
X29793Y-36970D01*
X29793Y-36932D01*
X29774Y-36893D01*
X29755Y-36874D01*
X29717Y-36855D01*
X29641Y-36836D01*
X29603Y-36817D01*
X29584Y-36798D01*
X29565Y-36760D01*
X29565Y-36722D01*
X29584Y-36684D01*
X29603Y-36665D01*
X29641Y-36646D01*
X29736Y-36646D01*
X29793Y-36665D01*
X29926Y-36646D02*
X30022Y-37046D01*
X30098Y-36760D01*
X30174Y-37046D01*
X30269Y-36646D01*
X30631Y-37046D02*
X30403Y-37046D01*
X30517Y-37046D02*
X30517Y-36646D01*
X30479Y-36703D01*
X30441Y-36741D01*
X30403Y-36760D01*
X34289Y-37027D02*
X34346Y-37046D01*
X34441Y-37046D01*
X34479Y-37027D01*
X34499Y-37008D01*
X34518Y-36970D01*
X34518Y-36932D01*
X34499Y-36893D01*
X34479Y-36874D01*
X34441Y-36855D01*
X34365Y-36836D01*
X34327Y-36817D01*
X34308Y-36798D01*
X34289Y-36760D01*
X34289Y-36722D01*
X34308Y-36684D01*
X34327Y-36665D01*
X34365Y-36646D01*
X34460Y-36646D01*
X34518Y-36665D01*
X34651Y-36646D02*
X34746Y-37046D01*
X34822Y-36760D01*
X34899Y-37046D01*
X34994Y-36646D01*
X35108Y-36646D02*
X35356Y-36646D01*
X35222Y-36798D01*
X35279Y-36798D01*
X35318Y-36817D01*
X35337Y-36836D01*
X35356Y-36874D01*
X35356Y-36970D01*
X35337Y-37008D01*
X35318Y-37027D01*
X35279Y-37046D01*
X35165Y-37046D01*
X35127Y-37027D01*
X35108Y-37008D01*
M02*
