%FSLAX34Y34*%
G04 Gerber Fmt 3.4, Leading zero omitted, Abs format*
G04 (created by PCBNEW (2014-03-19 BZR 4756)-product) date Sun 01 Jun 2014 22:33:16 BST*
%MOIN*%
G01*
G70*
G90*
G04 APERTURE LIST*
%ADD10C,0.005906*%
%ADD11C,0.015000*%
%ADD12C,0.007874*%
%ADD13C,0.007900*%
%ADD14C,0.010000*%
%ADD15C,0.003500*%
%ADD16C,0.003000*%
%ADD17C,0.004500*%
%ADD18C,0.012000*%
G04 APERTURE END LIST*
G54D10*
G54D11*
X54901Y-38700D02*
X55728Y-38700D01*
X55059Y-38700D02*
X55255Y-38503D01*
X55255Y-38503D02*
X55255Y-38858D01*
X55255Y-38858D02*
X55098Y-38700D01*
X55019Y-38503D02*
X55019Y-38937D01*
X54901Y-38700D02*
X54783Y-38700D01*
X59625Y-38700D02*
X59507Y-38700D01*
X59744Y-38503D02*
X59744Y-38937D01*
X59980Y-38858D02*
X59822Y-38700D01*
X59980Y-38503D02*
X59980Y-38858D01*
X59783Y-38700D02*
X59980Y-38503D01*
X59625Y-38700D02*
X60452Y-38700D01*
G54D12*
X65574Y-36166D02*
X65574Y-35851D01*
X65454Y-35851D01*
X65424Y-35866D01*
X65409Y-35881D01*
X65394Y-35911D01*
X65394Y-35956D01*
X65409Y-35986D01*
X65424Y-36001D01*
X65454Y-36016D01*
X65574Y-36016D01*
X65124Y-35956D02*
X65124Y-36166D01*
X65259Y-35956D02*
X65259Y-36121D01*
X65244Y-36151D01*
X65214Y-36166D01*
X65169Y-36166D01*
X65139Y-36151D01*
X65124Y-36136D01*
X64974Y-36166D02*
X64974Y-35956D01*
X64974Y-35986D02*
X64959Y-35971D01*
X64929Y-35956D01*
X64884Y-35956D01*
X64854Y-35971D01*
X64839Y-36001D01*
X64839Y-36166D01*
X64839Y-36001D02*
X64824Y-35971D01*
X64794Y-35956D01*
X64749Y-35956D01*
X64719Y-35971D01*
X64704Y-36001D01*
X64704Y-36166D01*
X64554Y-35956D02*
X64554Y-36271D01*
X64554Y-35971D02*
X64524Y-35956D01*
X64464Y-35956D01*
X64434Y-35971D01*
X64419Y-35986D01*
X64404Y-36016D01*
X64404Y-36106D01*
X64419Y-36136D01*
X64434Y-36151D01*
X64464Y-36166D01*
X64524Y-36166D01*
X64554Y-36151D01*
X65574Y-36685D02*
X65574Y-36370D01*
X65454Y-36370D01*
X65424Y-36385D01*
X65409Y-36400D01*
X65394Y-36430D01*
X65394Y-36475D01*
X65409Y-36505D01*
X65424Y-36520D01*
X65454Y-36535D01*
X65574Y-36535D01*
X65259Y-36565D02*
X65019Y-36565D01*
X64884Y-36670D02*
X64839Y-36685D01*
X64764Y-36685D01*
X64734Y-36670D01*
X64719Y-36655D01*
X64704Y-36625D01*
X64704Y-36595D01*
X64719Y-36565D01*
X64734Y-36550D01*
X64764Y-36535D01*
X64824Y-36520D01*
X64854Y-36505D01*
X64869Y-36490D01*
X64884Y-36460D01*
X64884Y-36430D01*
X64869Y-36400D01*
X64854Y-36385D01*
X64824Y-36370D01*
X64749Y-36370D01*
X64704Y-36385D01*
X64599Y-36370D02*
X64524Y-36685D01*
X64464Y-36460D01*
X64404Y-36685D01*
X64329Y-36370D01*
X65424Y-37205D02*
X65574Y-37205D01*
X65574Y-36890D01*
X65319Y-37205D02*
X65319Y-36995D01*
X65319Y-36890D02*
X65334Y-36905D01*
X65319Y-36920D01*
X65304Y-36905D01*
X65319Y-36890D01*
X65319Y-36920D01*
X65034Y-36995D02*
X65034Y-37250D01*
X65049Y-37280D01*
X65064Y-37295D01*
X65094Y-37310D01*
X65139Y-37310D01*
X65169Y-37295D01*
X65034Y-37190D02*
X65064Y-37205D01*
X65124Y-37205D01*
X65154Y-37190D01*
X65169Y-37175D01*
X65184Y-37145D01*
X65184Y-37055D01*
X65169Y-37025D01*
X65154Y-37010D01*
X65124Y-36995D01*
X65064Y-36995D01*
X65034Y-37010D01*
X64884Y-37205D02*
X64884Y-36890D01*
X64749Y-37205D02*
X64749Y-37040D01*
X64764Y-37010D01*
X64794Y-36995D01*
X64839Y-36995D01*
X64869Y-37010D01*
X64884Y-37025D01*
X64644Y-36995D02*
X64524Y-36995D01*
X64599Y-36890D02*
X64599Y-37160D01*
X64584Y-37190D01*
X64554Y-37205D01*
X64524Y-37205D01*
X65424Y-37725D02*
X65574Y-37725D01*
X65574Y-37410D01*
X65319Y-37605D02*
X65079Y-37605D01*
X64944Y-37710D02*
X64899Y-37725D01*
X64824Y-37725D01*
X64794Y-37710D01*
X64779Y-37695D01*
X64764Y-37665D01*
X64764Y-37635D01*
X64779Y-37605D01*
X64794Y-37590D01*
X64824Y-37575D01*
X64884Y-37560D01*
X64914Y-37545D01*
X64929Y-37530D01*
X64944Y-37500D01*
X64944Y-37470D01*
X64929Y-37440D01*
X64914Y-37425D01*
X64884Y-37410D01*
X64809Y-37410D01*
X64764Y-37425D01*
X64659Y-37410D02*
X64584Y-37725D01*
X64524Y-37500D01*
X64464Y-37725D01*
X64389Y-37410D01*
X65574Y-38079D02*
X65469Y-38079D01*
X65424Y-38244D02*
X65574Y-38244D01*
X65574Y-37929D01*
X65424Y-37929D01*
X65289Y-38244D02*
X65289Y-38034D01*
X65289Y-38094D02*
X65274Y-38064D01*
X65259Y-38049D01*
X65229Y-38034D01*
X65199Y-38034D01*
X65094Y-38244D02*
X65094Y-38034D01*
X65094Y-38094D02*
X65079Y-38064D01*
X65064Y-38049D01*
X65034Y-38034D01*
X65004Y-38034D01*
X64854Y-38244D02*
X64884Y-38229D01*
X64899Y-38214D01*
X64914Y-38184D01*
X64914Y-38094D01*
X64899Y-38064D01*
X64884Y-38049D01*
X64854Y-38034D01*
X64809Y-38034D01*
X64779Y-38049D01*
X64764Y-38064D01*
X64749Y-38094D01*
X64749Y-38184D01*
X64764Y-38214D01*
X64779Y-38229D01*
X64809Y-38244D01*
X64854Y-38244D01*
X64614Y-38244D02*
X64614Y-38034D01*
X64614Y-38094D02*
X64599Y-38064D01*
X64584Y-38049D01*
X64554Y-38034D01*
X64524Y-38034D01*
X65469Y-38599D02*
X65424Y-38614D01*
X65409Y-38629D01*
X65394Y-38659D01*
X65394Y-38704D01*
X65409Y-38734D01*
X65424Y-38749D01*
X65454Y-38764D01*
X65574Y-38764D01*
X65574Y-38449D01*
X65469Y-38449D01*
X65439Y-38464D01*
X65424Y-38479D01*
X65409Y-38509D01*
X65409Y-38539D01*
X65424Y-38569D01*
X65439Y-38584D01*
X65469Y-38599D01*
X65574Y-38599D01*
X65214Y-38764D02*
X65244Y-38749D01*
X65259Y-38719D01*
X65259Y-38449D01*
X65094Y-38764D02*
X65094Y-38554D01*
X65094Y-38449D02*
X65109Y-38464D01*
X65094Y-38479D01*
X65079Y-38464D01*
X65094Y-38449D01*
X65094Y-38479D01*
X64944Y-38554D02*
X64944Y-38764D01*
X64944Y-38584D02*
X64929Y-38569D01*
X64899Y-38554D01*
X64854Y-38554D01*
X64824Y-38569D01*
X64809Y-38599D01*
X64809Y-38764D01*
X64659Y-38764D02*
X64659Y-38449D01*
X64629Y-38644D02*
X64539Y-38764D01*
X64539Y-38554D02*
X64659Y-38674D01*
X63842Y-36166D02*
X63842Y-35851D01*
X63767Y-35851D01*
X63722Y-35866D01*
X63692Y-35896D01*
X63677Y-35926D01*
X63662Y-35986D01*
X63662Y-36031D01*
X63677Y-36091D01*
X63692Y-36121D01*
X63722Y-36151D01*
X63767Y-36166D01*
X63842Y-36166D01*
X63392Y-35851D02*
X63452Y-35851D01*
X63482Y-35866D01*
X63497Y-35881D01*
X63527Y-35926D01*
X63542Y-35986D01*
X63542Y-36106D01*
X63527Y-36136D01*
X63512Y-36151D01*
X63482Y-36166D01*
X63422Y-36166D01*
X63392Y-36151D01*
X63377Y-36136D01*
X63362Y-36106D01*
X63362Y-36031D01*
X63377Y-36001D01*
X63392Y-35986D01*
X63422Y-35971D01*
X63482Y-35971D01*
X63512Y-35986D01*
X63527Y-36001D01*
X63542Y-36031D01*
X63857Y-36595D02*
X63707Y-36595D01*
X63887Y-36685D02*
X63782Y-36370D01*
X63677Y-36685D01*
X63437Y-36370D02*
X63497Y-36370D01*
X63527Y-36385D01*
X63542Y-36400D01*
X63572Y-36445D01*
X63587Y-36505D01*
X63587Y-36625D01*
X63572Y-36655D01*
X63557Y-36670D01*
X63527Y-36685D01*
X63467Y-36685D01*
X63437Y-36670D01*
X63422Y-36655D01*
X63407Y-36625D01*
X63407Y-36550D01*
X63422Y-36520D01*
X63437Y-36505D01*
X63467Y-36490D01*
X63527Y-36490D01*
X63557Y-36505D01*
X63572Y-36520D01*
X63587Y-36550D01*
X63842Y-37205D02*
X63842Y-36890D01*
X63767Y-36890D01*
X63722Y-36905D01*
X63692Y-36935D01*
X63677Y-36965D01*
X63662Y-37025D01*
X63662Y-37070D01*
X63677Y-37130D01*
X63692Y-37160D01*
X63722Y-37190D01*
X63767Y-37205D01*
X63842Y-37205D01*
X63557Y-36890D02*
X63347Y-36890D01*
X63482Y-37205D01*
X63857Y-37635D02*
X63707Y-37635D01*
X63887Y-37725D02*
X63782Y-37410D01*
X63677Y-37725D01*
X63422Y-37410D02*
X63572Y-37410D01*
X63587Y-37560D01*
X63572Y-37545D01*
X63542Y-37530D01*
X63467Y-37530D01*
X63437Y-37545D01*
X63422Y-37560D01*
X63407Y-37590D01*
X63407Y-37665D01*
X63422Y-37695D01*
X63437Y-37710D01*
X63467Y-37725D01*
X63542Y-37725D01*
X63572Y-37710D01*
X63587Y-37695D01*
X63842Y-38244D02*
X63842Y-37929D01*
X63767Y-37929D01*
X63722Y-37944D01*
X63692Y-37974D01*
X63677Y-38004D01*
X63662Y-38064D01*
X63662Y-38109D01*
X63677Y-38169D01*
X63692Y-38199D01*
X63722Y-38229D01*
X63767Y-38244D01*
X63842Y-38244D01*
X63482Y-38064D02*
X63512Y-38049D01*
X63527Y-38034D01*
X63542Y-38004D01*
X63542Y-37989D01*
X63527Y-37959D01*
X63512Y-37944D01*
X63482Y-37929D01*
X63422Y-37929D01*
X63392Y-37944D01*
X63377Y-37959D01*
X63362Y-37989D01*
X63362Y-38004D01*
X63377Y-38034D01*
X63392Y-38049D01*
X63422Y-38064D01*
X63482Y-38064D01*
X63512Y-38079D01*
X63527Y-38094D01*
X63542Y-38124D01*
X63542Y-38184D01*
X63527Y-38214D01*
X63512Y-38229D01*
X63482Y-38244D01*
X63422Y-38244D01*
X63392Y-38229D01*
X63377Y-38214D01*
X63362Y-38184D01*
X63362Y-38124D01*
X63377Y-38094D01*
X63392Y-38079D01*
X63422Y-38064D01*
X63857Y-38674D02*
X63707Y-38674D01*
X63887Y-38764D02*
X63782Y-38449D01*
X63677Y-38764D01*
X63602Y-38449D02*
X63392Y-38449D01*
X63527Y-38764D01*
G54D13*
X52145Y-40433D02*
X67893Y-40433D01*
X51161Y-39448D02*
X51161Y-21732D01*
X51161Y-39448D02*
G75*
G03X52145Y-40433I984J0D01*
G74*
G01*
X52145Y-20748D02*
X67893Y-20748D01*
X52145Y-20748D02*
G75*
G03X51161Y-21732I0J-984D01*
G74*
G01*
X68877Y-39448D02*
X68877Y-21732D01*
X67893Y-40433D02*
G75*
G03X68877Y-39448I0J984D01*
G74*
G01*
X68877Y-21732D02*
G75*
G03X67893Y-20748I-984J0D01*
G74*
G01*
G54D12*
X66676Y-36189D02*
X66676Y-35874D01*
X66601Y-35874D01*
X66556Y-35889D01*
X66526Y-35919D01*
X66511Y-35949D01*
X66497Y-36009D01*
X66497Y-36054D01*
X66511Y-36114D01*
X66526Y-36144D01*
X66556Y-36174D01*
X66601Y-36189D01*
X66676Y-36189D01*
X66227Y-35979D02*
X66227Y-36189D01*
X66302Y-35859D02*
X66377Y-36084D01*
X66182Y-36084D01*
X66676Y-36709D02*
X66676Y-36394D01*
X66601Y-36394D01*
X66556Y-36409D01*
X66526Y-36439D01*
X66511Y-36469D01*
X66497Y-36529D01*
X66497Y-36574D01*
X66511Y-36634D01*
X66526Y-36664D01*
X66556Y-36694D01*
X66601Y-36709D01*
X66676Y-36709D01*
X66212Y-36394D02*
X66362Y-36394D01*
X66377Y-36544D01*
X66362Y-36529D01*
X66332Y-36514D01*
X66257Y-36514D01*
X66227Y-36529D01*
X66212Y-36544D01*
X66197Y-36574D01*
X66197Y-36649D01*
X66212Y-36679D01*
X66227Y-36694D01*
X66257Y-36709D01*
X66332Y-36709D01*
X66362Y-36694D01*
X66377Y-36679D01*
X66691Y-37139D02*
X66541Y-37139D01*
X66721Y-37229D02*
X66616Y-36914D01*
X66511Y-37229D01*
X66242Y-37229D02*
X66422Y-37229D01*
X66332Y-37229D02*
X66332Y-36914D01*
X66362Y-36959D01*
X66392Y-36989D01*
X66422Y-37004D01*
X66691Y-37658D02*
X66541Y-37658D01*
X66721Y-37748D02*
X66616Y-37433D01*
X66511Y-37748D01*
X66347Y-37433D02*
X66317Y-37433D01*
X66287Y-37448D01*
X66272Y-37463D01*
X66257Y-37493D01*
X66242Y-37553D01*
X66242Y-37628D01*
X66257Y-37688D01*
X66272Y-37718D01*
X66287Y-37733D01*
X66317Y-37748D01*
X66347Y-37748D01*
X66377Y-37733D01*
X66392Y-37718D01*
X66407Y-37688D01*
X66422Y-37628D01*
X66422Y-37553D01*
X66407Y-37493D01*
X66392Y-37463D01*
X66377Y-37448D01*
X66347Y-37433D01*
X66676Y-38268D02*
X66676Y-37953D01*
X66601Y-37953D01*
X66556Y-37968D01*
X66526Y-37998D01*
X66511Y-38028D01*
X66497Y-38088D01*
X66497Y-38133D01*
X66511Y-38193D01*
X66526Y-38223D01*
X66556Y-38253D01*
X66601Y-38268D01*
X66676Y-38268D01*
X66392Y-37953D02*
X66197Y-37953D01*
X66302Y-38073D01*
X66257Y-38073D01*
X66227Y-38088D01*
X66212Y-38103D01*
X66197Y-38133D01*
X66197Y-38208D01*
X66212Y-38238D01*
X66227Y-38253D01*
X66257Y-38268D01*
X66347Y-38268D01*
X66377Y-38253D01*
X66392Y-38238D01*
X67951Y-36174D02*
X67906Y-36189D01*
X67831Y-36189D01*
X67801Y-36174D01*
X67786Y-36159D01*
X67771Y-36129D01*
X67771Y-36099D01*
X67786Y-36069D01*
X67801Y-36054D01*
X67831Y-36039D01*
X67891Y-36024D01*
X67921Y-36009D01*
X67936Y-35994D01*
X67951Y-35964D01*
X67951Y-35934D01*
X67936Y-35904D01*
X67921Y-35889D01*
X67891Y-35874D01*
X67816Y-35874D01*
X67771Y-35889D01*
X67636Y-36189D02*
X67636Y-35874D01*
X67561Y-35874D01*
X67516Y-35889D01*
X67486Y-35919D01*
X67471Y-35949D01*
X67456Y-36009D01*
X67456Y-36054D01*
X67471Y-36114D01*
X67486Y-36144D01*
X67516Y-36174D01*
X67561Y-36189D01*
X67636Y-36189D01*
X67336Y-36099D02*
X67186Y-36099D01*
X67366Y-36189D02*
X67261Y-35874D01*
X67156Y-36189D01*
X67951Y-36694D02*
X67906Y-36709D01*
X67831Y-36709D01*
X67801Y-36694D01*
X67786Y-36679D01*
X67771Y-36649D01*
X67771Y-36619D01*
X67786Y-36589D01*
X67801Y-36574D01*
X67831Y-36559D01*
X67891Y-36544D01*
X67921Y-36529D01*
X67936Y-36514D01*
X67951Y-36484D01*
X67951Y-36454D01*
X67936Y-36424D01*
X67921Y-36409D01*
X67891Y-36394D01*
X67816Y-36394D01*
X67771Y-36409D01*
X67456Y-36679D02*
X67471Y-36694D01*
X67516Y-36709D01*
X67546Y-36709D01*
X67591Y-36694D01*
X67621Y-36664D01*
X67636Y-36634D01*
X67651Y-36574D01*
X67651Y-36529D01*
X67636Y-36469D01*
X67621Y-36439D01*
X67591Y-36409D01*
X67546Y-36394D01*
X67516Y-36394D01*
X67471Y-36409D01*
X67456Y-36424D01*
X67171Y-36709D02*
X67321Y-36709D01*
X67321Y-36394D01*
X67756Y-37229D02*
X67861Y-37079D01*
X67936Y-37229D02*
X67936Y-36914D01*
X67816Y-36914D01*
X67786Y-36929D01*
X67771Y-36944D01*
X67756Y-36974D01*
X67756Y-37019D01*
X67771Y-37049D01*
X67786Y-37064D01*
X67816Y-37079D01*
X67936Y-37079D01*
X67501Y-37214D02*
X67531Y-37229D01*
X67591Y-37229D01*
X67621Y-37214D01*
X67636Y-37184D01*
X67636Y-37064D01*
X67621Y-37034D01*
X67591Y-37019D01*
X67531Y-37019D01*
X67501Y-37034D01*
X67486Y-37064D01*
X67486Y-37094D01*
X67636Y-37124D01*
X67396Y-37019D02*
X67276Y-37019D01*
X67351Y-37229D02*
X67351Y-36959D01*
X67336Y-36929D01*
X67306Y-36914D01*
X67276Y-36914D01*
X67981Y-37433D02*
X67876Y-37748D01*
X67771Y-37433D01*
X67531Y-37748D02*
X67531Y-37583D01*
X67546Y-37553D01*
X67576Y-37538D01*
X67636Y-37538D01*
X67666Y-37553D01*
X67531Y-37733D02*
X67561Y-37748D01*
X67636Y-37748D01*
X67666Y-37733D01*
X67681Y-37703D01*
X67681Y-37673D01*
X67666Y-37643D01*
X67636Y-37628D01*
X67561Y-37628D01*
X67531Y-37613D01*
X67336Y-37748D02*
X67366Y-37733D01*
X67381Y-37703D01*
X67381Y-37433D01*
X67771Y-38268D02*
X67951Y-38268D01*
X67861Y-38268D02*
X67861Y-37953D01*
X67891Y-37998D01*
X67921Y-38028D01*
X67951Y-38043D01*
X67426Y-37953D02*
X67351Y-38268D01*
X67291Y-38043D01*
X67231Y-38268D01*
X67156Y-37953D01*
X67036Y-38268D02*
X67036Y-38058D01*
X67036Y-37953D02*
X67051Y-37968D01*
X67036Y-37983D01*
X67021Y-37968D01*
X67036Y-37953D01*
X67036Y-37983D01*
X60244Y-37414D02*
X60094Y-37414D01*
X60274Y-37504D02*
X60169Y-37189D01*
X60064Y-37504D01*
X59809Y-37189D02*
X59959Y-37189D01*
X59974Y-37339D01*
X59959Y-37324D01*
X59929Y-37309D01*
X59854Y-37309D01*
X59824Y-37324D01*
X59809Y-37339D01*
X59794Y-37369D01*
X59794Y-37444D01*
X59809Y-37474D01*
X59824Y-37489D01*
X59854Y-37504D01*
X59929Y-37504D01*
X59959Y-37489D01*
X59974Y-37474D01*
X55520Y-37414D02*
X55370Y-37414D01*
X55550Y-37504D02*
X55445Y-37189D01*
X55340Y-37504D01*
X55100Y-37189D02*
X55160Y-37189D01*
X55190Y-37204D01*
X55205Y-37219D01*
X55235Y-37264D01*
X55250Y-37324D01*
X55250Y-37444D01*
X55235Y-37474D01*
X55220Y-37489D01*
X55190Y-37504D01*
X55130Y-37504D01*
X55100Y-37489D01*
X55085Y-37474D01*
X55070Y-37444D01*
X55070Y-37369D01*
X55085Y-37339D01*
X55100Y-37324D01*
X55130Y-37309D01*
X55190Y-37309D01*
X55220Y-37324D01*
X55235Y-37339D01*
X55250Y-37369D01*
G54D11*
X60620Y-37362D02*
G75*
G03X60620Y-37362I-600J0D01*
G74*
G01*
X55917Y-37362D02*
G75*
G03X55917Y-37362I-622J0D01*
G74*
G01*
G54D12*
X62312Y-32630D02*
X62327Y-32600D01*
X62327Y-32540D01*
X62312Y-32510D01*
X62282Y-32495D01*
X62162Y-32495D01*
X62132Y-32510D01*
X62117Y-32540D01*
X62117Y-32600D01*
X62132Y-32630D01*
X62162Y-32645D01*
X62192Y-32645D01*
X62222Y-32495D01*
X62012Y-32735D02*
X62012Y-32915D01*
X62327Y-32825D02*
X62012Y-32825D01*
X62327Y-33155D02*
X62162Y-33155D01*
X62132Y-33140D01*
X62117Y-33110D01*
X62117Y-33050D01*
X62132Y-33020D01*
X62312Y-33155D02*
X62327Y-33125D01*
X62327Y-33050D01*
X62312Y-33020D01*
X62282Y-33005D01*
X62252Y-33005D01*
X62222Y-33020D01*
X62207Y-33050D01*
X62207Y-33125D01*
X62192Y-33155D01*
X62117Y-33305D02*
X62432Y-33305D01*
X62132Y-33305D02*
X62117Y-33335D01*
X62117Y-33395D01*
X62132Y-33425D01*
X62147Y-33440D01*
X62177Y-33455D01*
X62267Y-33455D01*
X62297Y-33440D01*
X62312Y-33425D01*
X62327Y-33395D01*
X62327Y-33335D01*
X62312Y-33305D01*
X62312Y-33710D02*
X62327Y-33680D01*
X62327Y-33620D01*
X62312Y-33590D01*
X62282Y-33575D01*
X62162Y-33575D01*
X62132Y-33590D01*
X62117Y-33620D01*
X62117Y-33680D01*
X62132Y-33710D01*
X62162Y-33725D01*
X62192Y-33725D01*
X62222Y-33575D01*
X55739Y-30416D02*
X55499Y-30416D01*
X55619Y-30536D02*
X55619Y-30296D01*
X55199Y-30221D02*
X55349Y-30221D01*
X55364Y-30371D01*
X55349Y-30356D01*
X55319Y-30341D01*
X55244Y-30341D01*
X55214Y-30356D01*
X55199Y-30371D01*
X55184Y-30401D01*
X55184Y-30476D01*
X55199Y-30506D01*
X55214Y-30521D01*
X55244Y-30536D01*
X55319Y-30536D01*
X55349Y-30521D01*
X55364Y-30506D01*
X55094Y-30221D02*
X54989Y-30536D01*
X54884Y-30221D01*
X55574Y-33228D02*
X55604Y-33213D01*
X55649Y-33213D01*
X55694Y-33228D01*
X55724Y-33258D01*
X55739Y-33288D01*
X55754Y-33348D01*
X55754Y-33393D01*
X55739Y-33453D01*
X55724Y-33483D01*
X55694Y-33513D01*
X55649Y-33528D01*
X55619Y-33528D01*
X55574Y-33513D01*
X55559Y-33498D01*
X55559Y-33393D01*
X55619Y-33393D01*
X55424Y-33528D02*
X55424Y-33213D01*
X55244Y-33528D01*
X55244Y-33213D01*
X55094Y-33528D02*
X55094Y-33213D01*
X55019Y-33213D01*
X54974Y-33228D01*
X54944Y-33258D01*
X54929Y-33288D01*
X54914Y-33348D01*
X54914Y-33393D01*
X54929Y-33453D01*
X54944Y-33483D01*
X54974Y-33513D01*
X55019Y-33528D01*
X55094Y-33528D01*
X55765Y-32465D02*
X55915Y-32465D01*
X55915Y-32150D01*
X55660Y-32465D02*
X55660Y-32255D01*
X55660Y-32150D02*
X55675Y-32165D01*
X55660Y-32180D01*
X55645Y-32165D01*
X55660Y-32150D01*
X55660Y-32180D01*
X55375Y-32255D02*
X55375Y-32510D01*
X55390Y-32540D01*
X55405Y-32555D01*
X55435Y-32570D01*
X55480Y-32570D01*
X55510Y-32555D01*
X55375Y-32450D02*
X55405Y-32465D01*
X55465Y-32465D01*
X55495Y-32450D01*
X55510Y-32435D01*
X55525Y-32405D01*
X55525Y-32315D01*
X55510Y-32285D01*
X55495Y-32270D01*
X55465Y-32255D01*
X55405Y-32255D01*
X55375Y-32270D01*
X55225Y-32465D02*
X55225Y-32150D01*
X55090Y-32465D02*
X55090Y-32300D01*
X55105Y-32270D01*
X55135Y-32255D01*
X55180Y-32255D01*
X55210Y-32270D01*
X55225Y-32285D01*
X54985Y-32255D02*
X54865Y-32255D01*
X54940Y-32150D02*
X54940Y-32420D01*
X54925Y-32450D01*
X54895Y-32465D01*
X54865Y-32465D01*
X55990Y-31481D02*
X55990Y-31166D01*
X55870Y-31166D01*
X55840Y-31181D01*
X55825Y-31196D01*
X55810Y-31226D01*
X55810Y-31271D01*
X55825Y-31301D01*
X55840Y-31316D01*
X55870Y-31331D01*
X55990Y-31331D01*
X55540Y-31271D02*
X55540Y-31481D01*
X55675Y-31271D02*
X55675Y-31436D01*
X55660Y-31466D01*
X55630Y-31481D01*
X55585Y-31481D01*
X55555Y-31466D01*
X55540Y-31451D01*
X55390Y-31481D02*
X55390Y-31271D01*
X55390Y-31301D02*
X55375Y-31286D01*
X55345Y-31271D01*
X55300Y-31271D01*
X55270Y-31286D01*
X55255Y-31316D01*
X55255Y-31481D01*
X55255Y-31316D02*
X55240Y-31286D01*
X55210Y-31271D01*
X55165Y-31271D01*
X55135Y-31286D01*
X55120Y-31316D01*
X55120Y-31481D01*
X54970Y-31271D02*
X54970Y-31586D01*
X54970Y-31286D02*
X54940Y-31271D01*
X54880Y-31271D01*
X54850Y-31286D01*
X54835Y-31301D01*
X54820Y-31331D01*
X54820Y-31421D01*
X54835Y-31451D01*
X54850Y-31466D01*
X54880Y-31481D01*
X54940Y-31481D01*
X54970Y-31466D01*
X60299Y-33228D02*
X60329Y-33213D01*
X60374Y-33213D01*
X60419Y-33228D01*
X60449Y-33258D01*
X60464Y-33288D01*
X60479Y-33348D01*
X60479Y-33393D01*
X60464Y-33453D01*
X60449Y-33483D01*
X60419Y-33513D01*
X60374Y-33528D01*
X60344Y-33528D01*
X60299Y-33513D01*
X60284Y-33498D01*
X60284Y-33393D01*
X60344Y-33393D01*
X60149Y-33528D02*
X60149Y-33213D01*
X59969Y-33528D01*
X59969Y-33213D01*
X59819Y-33528D02*
X59819Y-33213D01*
X59744Y-33213D01*
X59699Y-33228D01*
X59669Y-33258D01*
X59654Y-33288D01*
X59639Y-33348D01*
X59639Y-33393D01*
X59654Y-33453D01*
X59669Y-33483D01*
X59699Y-33513D01*
X59744Y-33528D01*
X59819Y-33528D01*
X60338Y-32244D02*
X60368Y-32229D01*
X60413Y-32229D01*
X60458Y-32244D01*
X60488Y-32274D01*
X60503Y-32304D01*
X60518Y-32364D01*
X60518Y-32409D01*
X60503Y-32469D01*
X60488Y-32499D01*
X60458Y-32529D01*
X60413Y-32544D01*
X60383Y-32544D01*
X60338Y-32529D01*
X60323Y-32514D01*
X60323Y-32409D01*
X60383Y-32409D01*
X60188Y-32544D02*
X60188Y-32229D01*
X60008Y-32544D01*
X60008Y-32229D01*
X59858Y-32544D02*
X59858Y-32229D01*
X59783Y-32229D01*
X59738Y-32244D01*
X59708Y-32274D01*
X59693Y-32304D01*
X59678Y-32364D01*
X59678Y-32409D01*
X59693Y-32469D01*
X59708Y-32499D01*
X59738Y-32529D01*
X59783Y-32544D01*
X59858Y-32544D01*
X60467Y-31205D02*
X60362Y-31520D01*
X60257Y-31205D01*
X60017Y-31520D02*
X60017Y-31355D01*
X60032Y-31325D01*
X60062Y-31310D01*
X60122Y-31310D01*
X60152Y-31325D01*
X60017Y-31505D02*
X60047Y-31520D01*
X60122Y-31520D01*
X60152Y-31505D01*
X60167Y-31475D01*
X60167Y-31445D01*
X60152Y-31415D01*
X60122Y-31400D01*
X60047Y-31400D01*
X60017Y-31385D01*
X59822Y-31520D02*
X59852Y-31505D01*
X59867Y-31475D01*
X59867Y-31205D01*
X60265Y-30536D02*
X60370Y-30386D01*
X60445Y-30536D02*
X60445Y-30221D01*
X60325Y-30221D01*
X60295Y-30236D01*
X60280Y-30251D01*
X60265Y-30281D01*
X60265Y-30326D01*
X60280Y-30356D01*
X60295Y-30371D01*
X60325Y-30386D01*
X60445Y-30386D01*
X60010Y-30521D02*
X60040Y-30536D01*
X60100Y-30536D01*
X60130Y-30521D01*
X60145Y-30491D01*
X60145Y-30371D01*
X60130Y-30341D01*
X60100Y-30326D01*
X60040Y-30326D01*
X60010Y-30341D01*
X59995Y-30371D01*
X59995Y-30401D01*
X60145Y-30431D01*
X59905Y-30326D02*
X59785Y-30326D01*
X59860Y-30536D02*
X59860Y-30266D01*
X59845Y-30236D01*
X59815Y-30221D01*
X59785Y-30221D01*
X64412Y-31524D02*
X64412Y-31764D01*
X64532Y-31644D02*
X64292Y-31644D01*
X64217Y-32064D02*
X64217Y-31914D01*
X64367Y-31899D01*
X64352Y-31914D01*
X64337Y-31944D01*
X64337Y-32019D01*
X64352Y-32049D01*
X64367Y-32064D01*
X64397Y-32079D01*
X64472Y-32079D01*
X64502Y-32064D01*
X64517Y-32049D01*
X64532Y-32019D01*
X64532Y-31944D01*
X64517Y-31914D01*
X64502Y-31899D01*
X64217Y-32169D02*
X64532Y-32274D01*
X64217Y-32379D01*
X65044Y-31644D02*
X65044Y-31464D01*
X65044Y-31554D02*
X64729Y-31554D01*
X64774Y-31524D01*
X64804Y-31494D01*
X64819Y-31464D01*
X64729Y-31989D02*
X65044Y-32064D01*
X64819Y-32124D01*
X65044Y-32184D01*
X64729Y-32259D01*
X65044Y-32379D02*
X64834Y-32379D01*
X64729Y-32379D02*
X64744Y-32364D01*
X64759Y-32379D01*
X64744Y-32394D01*
X64729Y-32379D01*
X64759Y-32379D01*
X65255Y-31689D02*
X65240Y-31659D01*
X65240Y-31614D01*
X65255Y-31569D01*
X65285Y-31539D01*
X65315Y-31524D01*
X65375Y-31509D01*
X65420Y-31509D01*
X65480Y-31524D01*
X65510Y-31539D01*
X65540Y-31569D01*
X65555Y-31614D01*
X65555Y-31644D01*
X65540Y-31689D01*
X65525Y-31704D01*
X65420Y-31704D01*
X65420Y-31644D01*
X65555Y-31839D02*
X65240Y-31839D01*
X65555Y-32019D01*
X65240Y-32019D01*
X65555Y-32169D02*
X65240Y-32169D01*
X65240Y-32244D01*
X65255Y-32289D01*
X65285Y-32319D01*
X65315Y-32334D01*
X65375Y-32349D01*
X65420Y-32349D01*
X65480Y-32334D01*
X65510Y-32319D01*
X65540Y-32289D01*
X65555Y-32244D01*
X65555Y-32169D01*
X58690Y-31554D02*
X58705Y-31599D01*
X58705Y-31674D01*
X58690Y-31704D01*
X58675Y-31719D01*
X58645Y-31734D01*
X58615Y-31734D01*
X58585Y-31719D01*
X58570Y-31704D01*
X58555Y-31674D01*
X58540Y-31614D01*
X58525Y-31584D01*
X58510Y-31569D01*
X58480Y-31554D01*
X58450Y-31554D01*
X58420Y-31569D01*
X58405Y-31584D01*
X58390Y-31614D01*
X58390Y-31689D01*
X58405Y-31734D01*
X58675Y-32049D02*
X58690Y-32034D01*
X58705Y-31989D01*
X58705Y-31959D01*
X58690Y-31914D01*
X58660Y-31884D01*
X58630Y-31869D01*
X58570Y-31854D01*
X58525Y-31854D01*
X58465Y-31869D01*
X58435Y-31884D01*
X58405Y-31914D01*
X58390Y-31959D01*
X58390Y-31989D01*
X58405Y-32034D01*
X58420Y-32049D01*
X58705Y-32334D02*
X58705Y-32184D01*
X58390Y-32184D01*
X58099Y-31507D02*
X58114Y-31552D01*
X58114Y-31627D01*
X58099Y-31657D01*
X58084Y-31672D01*
X58054Y-31687D01*
X58024Y-31687D01*
X57994Y-31672D01*
X57979Y-31657D01*
X57964Y-31627D01*
X57949Y-31567D01*
X57934Y-31537D01*
X57919Y-31522D01*
X57889Y-31507D01*
X57859Y-31507D01*
X57829Y-31522D01*
X57814Y-31537D01*
X57799Y-31567D01*
X57799Y-31642D01*
X57814Y-31687D01*
X58114Y-31822D02*
X57799Y-31822D01*
X57799Y-31897D01*
X57814Y-31942D01*
X57844Y-31972D01*
X57874Y-31987D01*
X57934Y-32002D01*
X57979Y-32002D01*
X58039Y-31987D01*
X58069Y-31972D01*
X58099Y-31942D01*
X58114Y-31897D01*
X58114Y-31822D01*
X58024Y-32122D02*
X58024Y-32272D01*
X58114Y-32092D02*
X57799Y-32197D01*
X58114Y-32302D01*
X57404Y-31484D02*
X57404Y-31724D01*
X57524Y-31604D02*
X57284Y-31604D01*
X57209Y-32024D02*
X57209Y-31874D01*
X57359Y-31859D01*
X57344Y-31874D01*
X57329Y-31904D01*
X57329Y-31979D01*
X57344Y-32009D01*
X57359Y-32024D01*
X57389Y-32039D01*
X57464Y-32039D01*
X57494Y-32024D01*
X57509Y-32009D01*
X57524Y-31979D01*
X57524Y-31904D01*
X57509Y-31874D01*
X57494Y-31859D01*
X57209Y-32129D02*
X57524Y-32234D01*
X57209Y-32339D01*
X56633Y-31649D02*
X56618Y-31619D01*
X56618Y-31574D01*
X56633Y-31529D01*
X56663Y-31499D01*
X56693Y-31484D01*
X56753Y-31469D01*
X56798Y-31469D01*
X56858Y-31484D01*
X56888Y-31499D01*
X56918Y-31529D01*
X56933Y-31574D01*
X56933Y-31604D01*
X56918Y-31649D01*
X56903Y-31664D01*
X56798Y-31664D01*
X56798Y-31604D01*
X56933Y-31799D02*
X56618Y-31799D01*
X56933Y-31979D01*
X56618Y-31979D01*
X56933Y-32129D02*
X56618Y-32129D01*
X56618Y-32204D01*
X56633Y-32249D01*
X56663Y-32279D01*
X56693Y-32294D01*
X56753Y-32309D01*
X56798Y-32309D01*
X56858Y-32294D01*
X56888Y-32279D01*
X56918Y-32249D01*
X56933Y-32204D01*
X56933Y-32129D01*
G54D14*
X61740Y-30889D02*
X61740Y-33889D01*
X60740Y-30889D02*
X60740Y-33889D01*
X60740Y-29889D02*
X60740Y-30889D01*
X61740Y-33889D02*
X60740Y-33889D01*
X60740Y-30889D02*
X61740Y-30889D01*
X60740Y-29889D02*
X61740Y-29889D01*
X61740Y-29889D02*
X61740Y-30889D01*
G54D11*
X57658Y-22500D02*
X53720Y-22500D01*
X57658Y-21515D02*
X57658Y-25453D01*
X57658Y-25453D02*
X53720Y-25453D01*
X53720Y-25453D02*
X53720Y-21515D01*
X53720Y-21515D02*
X57658Y-21515D01*
X61594Y-22501D02*
X57656Y-22501D01*
X61594Y-21516D02*
X61594Y-25454D01*
X61594Y-25454D02*
X57656Y-25454D01*
X57656Y-25454D02*
X57656Y-21516D01*
X57656Y-21516D02*
X61594Y-21516D01*
X65532Y-22500D02*
X61594Y-22500D01*
X65532Y-21515D02*
X65532Y-25453D01*
X65532Y-25453D02*
X61594Y-25453D01*
X61594Y-25453D02*
X61594Y-21515D01*
X61594Y-21515D02*
X65532Y-21515D01*
G54D10*
X62923Y-31663D02*
X62155Y-31663D01*
X62155Y-31663D02*
X62155Y-31171D01*
X62155Y-31171D02*
X62923Y-31171D01*
X62923Y-31171D02*
X62923Y-31663D01*
X62923Y-30679D02*
X62155Y-30679D01*
X62155Y-30679D02*
X62155Y-30187D01*
X62155Y-30187D02*
X62923Y-30187D01*
X62923Y-30187D02*
X62923Y-30679D01*
X65374Y-28031D02*
X65374Y-26929D01*
X65374Y-26929D02*
X66082Y-26929D01*
X66082Y-26929D02*
X66082Y-28031D01*
X66082Y-28031D02*
X65374Y-28031D01*
X64507Y-28031D02*
X64507Y-26929D01*
X64507Y-26929D02*
X65216Y-26929D01*
X65216Y-26929D02*
X65216Y-28031D01*
X65216Y-28031D02*
X64507Y-28031D01*
G54D11*
X52972Y-27795D02*
X52972Y-27559D01*
X52854Y-27677D02*
X53090Y-27677D01*
X54271Y-27047D02*
G75*
G03X54271Y-27047I-984J0D01*
G74*
G01*
X53494Y-29409D02*
X52352Y-29409D01*
X52352Y-29409D02*
X52352Y-34369D01*
X52352Y-34369D02*
X54636Y-34369D01*
X54636Y-34369D02*
X54636Y-29409D01*
X54636Y-29409D02*
X53494Y-29409D01*
X66003Y-33385D02*
X66003Y-34015D01*
X66003Y-34015D02*
X63799Y-34015D01*
X63799Y-34015D02*
X63799Y-32755D01*
X63799Y-32755D02*
X66003Y-32755D01*
X66003Y-32755D02*
X66003Y-33385D01*
X66003Y-30393D02*
X66003Y-31023D01*
X66003Y-31023D02*
X63799Y-31023D01*
X63799Y-31023D02*
X63799Y-29763D01*
X63799Y-29763D02*
X66003Y-29763D01*
X66003Y-29763D02*
X66003Y-30393D01*
X59172Y-34094D02*
X59172Y-33385D01*
X56220Y-34094D02*
X59172Y-34094D01*
X56220Y-32676D02*
X56220Y-34094D01*
X59172Y-32676D02*
X56220Y-32676D01*
X59172Y-33385D02*
X59172Y-32676D01*
X59172Y-33385D02*
X59172Y-32676D01*
X59172Y-32676D02*
X56220Y-32676D01*
X56220Y-32676D02*
X56220Y-34094D01*
X56220Y-34094D02*
X59172Y-34094D01*
X59172Y-34094D02*
X59172Y-33385D01*
X59172Y-31181D02*
X59172Y-30472D01*
X56220Y-31181D02*
X59172Y-31181D01*
X56220Y-29763D02*
X56220Y-31181D01*
X59172Y-29763D02*
X56220Y-29763D01*
X59172Y-30472D02*
X59172Y-29763D01*
X59172Y-30472D02*
X59172Y-29763D01*
X59172Y-29763D02*
X56220Y-29763D01*
X56220Y-29763D02*
X56220Y-31181D01*
X56220Y-31181D02*
X59172Y-31181D01*
X59172Y-31181D02*
X59172Y-30472D01*
G54D10*
X60442Y-36604D02*
X60442Y-35836D01*
X60442Y-35836D02*
X60935Y-35836D01*
X60935Y-35836D02*
X60935Y-36604D01*
X60935Y-36604D02*
X60442Y-36604D01*
X59773Y-36604D02*
X59773Y-35836D01*
X59773Y-35836D02*
X60265Y-35836D01*
X60265Y-35836D02*
X60265Y-36604D01*
X60265Y-36604D02*
X59773Y-36604D01*
G54D15*
X57559Y-21382D02*
X57559Y-20982D01*
X57407Y-20982D01*
X57369Y-21001D01*
X57350Y-21020D01*
X57331Y-21058D01*
X57331Y-21115D01*
X57350Y-21153D01*
X57369Y-21172D01*
X57407Y-21191D01*
X57559Y-21191D01*
X57102Y-21153D02*
X57140Y-21134D01*
X57159Y-21115D01*
X57178Y-21077D01*
X57178Y-21058D01*
X57159Y-21020D01*
X57140Y-21001D01*
X57102Y-20982D01*
X57026Y-20982D01*
X56988Y-21001D01*
X56969Y-21020D01*
X56950Y-21058D01*
X56950Y-21077D01*
X56969Y-21115D01*
X56988Y-21134D01*
X57026Y-21153D01*
X57102Y-21153D01*
X57140Y-21172D01*
X57159Y-21191D01*
X57178Y-21229D01*
X57178Y-21305D01*
X57159Y-21343D01*
X57140Y-21363D01*
X57102Y-21382D01*
X57026Y-21382D01*
X56988Y-21363D01*
X56969Y-21343D01*
X56950Y-21305D01*
X56950Y-21229D01*
X56969Y-21191D01*
X56988Y-21172D01*
X57026Y-21153D01*
X56432Y-26166D02*
X56375Y-26185D01*
X56279Y-26185D01*
X56241Y-26166D01*
X56222Y-26146D01*
X56203Y-26108D01*
X56203Y-26070D01*
X56222Y-26032D01*
X56241Y-26013D01*
X56279Y-25994D01*
X56356Y-25975D01*
X56394Y-25956D01*
X56413Y-25937D01*
X56432Y-25899D01*
X56432Y-25861D01*
X56413Y-25823D01*
X56394Y-25804D01*
X56356Y-25785D01*
X56260Y-25785D01*
X56203Y-25804D01*
X55860Y-25918D02*
X55860Y-26185D01*
X56032Y-25918D02*
X56032Y-26127D01*
X56013Y-26166D01*
X55975Y-26185D01*
X55917Y-26185D01*
X55879Y-26166D01*
X55860Y-26146D01*
X55670Y-26185D02*
X55670Y-25918D01*
X55670Y-25956D02*
X55651Y-25937D01*
X55613Y-25918D01*
X55556Y-25918D01*
X55517Y-25937D01*
X55498Y-25975D01*
X55498Y-26185D01*
X55498Y-25975D02*
X55479Y-25937D01*
X55441Y-25918D01*
X55384Y-25918D01*
X55346Y-25937D01*
X55327Y-25975D01*
X55327Y-26185D01*
X55136Y-25918D02*
X55136Y-26318D01*
X55136Y-25937D02*
X55098Y-25918D01*
X55022Y-25918D01*
X54984Y-25937D01*
X54965Y-25956D01*
X54946Y-25994D01*
X54946Y-26108D01*
X54965Y-26146D01*
X54984Y-26166D01*
X55022Y-26185D01*
X55098Y-26185D01*
X55136Y-26166D01*
X61495Y-21383D02*
X61495Y-20983D01*
X61343Y-20983D01*
X61304Y-21002D01*
X61285Y-21021D01*
X61266Y-21059D01*
X61266Y-21116D01*
X61285Y-21154D01*
X61304Y-21173D01*
X61343Y-21192D01*
X61495Y-21192D01*
X61076Y-21383D02*
X61000Y-21383D01*
X60962Y-21364D01*
X60943Y-21344D01*
X60904Y-21287D01*
X60885Y-21211D01*
X60885Y-21059D01*
X60904Y-21021D01*
X60924Y-21002D01*
X60962Y-20983D01*
X61038Y-20983D01*
X61076Y-21002D01*
X61095Y-21021D01*
X61114Y-21059D01*
X61114Y-21154D01*
X61095Y-21192D01*
X61076Y-21211D01*
X61038Y-21230D01*
X60962Y-21230D01*
X60924Y-21211D01*
X60904Y-21192D01*
X60885Y-21154D01*
X60606Y-25786D02*
X60377Y-25786D01*
X60491Y-26186D02*
X60491Y-25786D01*
X60072Y-26186D02*
X60072Y-25976D01*
X60091Y-25938D01*
X60129Y-25919D01*
X60206Y-25919D01*
X60244Y-25938D01*
X60072Y-26167D02*
X60110Y-26186D01*
X60206Y-26186D01*
X60244Y-26167D01*
X60263Y-26128D01*
X60263Y-26090D01*
X60244Y-26052D01*
X60206Y-26033D01*
X60110Y-26033D01*
X60072Y-26014D01*
X59882Y-25919D02*
X59882Y-26186D01*
X59882Y-25957D02*
X59863Y-25938D01*
X59825Y-25919D01*
X59768Y-25919D01*
X59729Y-25938D01*
X59710Y-25976D01*
X59710Y-26186D01*
X59520Y-26186D02*
X59520Y-25786D01*
X59482Y-26033D02*
X59368Y-26186D01*
X59368Y-25919D02*
X59520Y-26071D01*
X58682Y-26186D02*
X58910Y-26186D01*
X58796Y-26186D02*
X58796Y-25786D01*
X58834Y-25843D01*
X58872Y-25881D01*
X58910Y-25900D01*
X65624Y-21382D02*
X65624Y-20982D01*
X65471Y-20982D01*
X65433Y-21001D01*
X65414Y-21020D01*
X65395Y-21058D01*
X65395Y-21115D01*
X65414Y-21153D01*
X65433Y-21172D01*
X65471Y-21191D01*
X65624Y-21191D01*
X65014Y-21382D02*
X65243Y-21382D01*
X65128Y-21382D02*
X65128Y-20982D01*
X65166Y-21039D01*
X65205Y-21077D01*
X65243Y-21096D01*
X64766Y-20982D02*
X64728Y-20982D01*
X64690Y-21001D01*
X64671Y-21020D01*
X64652Y-21058D01*
X64633Y-21134D01*
X64633Y-21229D01*
X64652Y-21305D01*
X64671Y-21343D01*
X64690Y-21363D01*
X64728Y-21382D01*
X64766Y-21382D01*
X64805Y-21363D01*
X64824Y-21343D01*
X64843Y-21305D01*
X64862Y-21229D01*
X64862Y-21134D01*
X64843Y-21058D01*
X64824Y-21020D01*
X64805Y-21001D01*
X64766Y-20982D01*
X64544Y-25785D02*
X64315Y-25785D01*
X64430Y-26185D02*
X64430Y-25785D01*
X64011Y-26185D02*
X64011Y-25975D01*
X64030Y-25937D01*
X64068Y-25918D01*
X64144Y-25918D01*
X64182Y-25937D01*
X64011Y-26166D02*
X64049Y-26185D01*
X64144Y-26185D01*
X64182Y-26166D01*
X64201Y-26127D01*
X64201Y-26089D01*
X64182Y-26051D01*
X64144Y-26032D01*
X64049Y-26032D01*
X64011Y-26013D01*
X63820Y-25918D02*
X63820Y-26185D01*
X63820Y-25956D02*
X63801Y-25937D01*
X63763Y-25918D01*
X63706Y-25918D01*
X63668Y-25937D01*
X63649Y-25975D01*
X63649Y-26185D01*
X63458Y-26185D02*
X63458Y-25785D01*
X63420Y-26032D02*
X63306Y-26185D01*
X63306Y-25918D02*
X63458Y-26070D01*
X62849Y-25823D02*
X62830Y-25804D01*
X62791Y-25785D01*
X62696Y-25785D01*
X62658Y-25804D01*
X62639Y-25823D01*
X62620Y-25861D01*
X62620Y-25899D01*
X62639Y-25956D01*
X62868Y-26185D01*
X62620Y-26185D01*
G54D16*
X62559Y-31894D02*
X62599Y-31837D01*
X62627Y-31894D02*
X62627Y-31774D01*
X62582Y-31774D01*
X62570Y-31780D01*
X62565Y-31786D01*
X62559Y-31797D01*
X62559Y-31814D01*
X62565Y-31826D01*
X62570Y-31831D01*
X62582Y-31837D01*
X62627Y-31837D01*
X62519Y-31774D02*
X62445Y-31774D01*
X62485Y-31820D01*
X62467Y-31820D01*
X62456Y-31826D01*
X62450Y-31831D01*
X62445Y-31843D01*
X62445Y-31871D01*
X62450Y-31883D01*
X62456Y-31889D01*
X62467Y-31894D01*
X62502Y-31894D01*
X62513Y-31889D01*
X62519Y-31883D01*
X62559Y-30910D02*
X62599Y-30853D01*
X62627Y-30910D02*
X62627Y-30790D01*
X62582Y-30790D01*
X62570Y-30796D01*
X62565Y-30802D01*
X62559Y-30813D01*
X62559Y-30830D01*
X62565Y-30842D01*
X62570Y-30847D01*
X62582Y-30853D01*
X62627Y-30853D01*
X62456Y-30830D02*
X62456Y-30910D01*
X62485Y-30784D02*
X62513Y-30870D01*
X62439Y-30870D01*
G54D17*
X65758Y-26764D02*
X65766Y-26773D01*
X65792Y-26783D01*
X65809Y-26783D01*
X65835Y-26773D01*
X65852Y-26754D01*
X65861Y-26735D01*
X65869Y-26697D01*
X65869Y-26669D01*
X65861Y-26631D01*
X65852Y-26611D01*
X65835Y-26592D01*
X65809Y-26583D01*
X65792Y-26583D01*
X65766Y-26592D01*
X65758Y-26602D01*
X65698Y-26583D02*
X65586Y-26583D01*
X65646Y-26659D01*
X65621Y-26659D01*
X65604Y-26669D01*
X65595Y-26678D01*
X65586Y-26697D01*
X65586Y-26745D01*
X65595Y-26764D01*
X65604Y-26773D01*
X65621Y-26783D01*
X65672Y-26783D01*
X65689Y-26773D01*
X65698Y-26764D01*
X64892Y-26764D02*
X64900Y-26773D01*
X64926Y-26783D01*
X64943Y-26783D01*
X64969Y-26773D01*
X64986Y-26754D01*
X64995Y-26735D01*
X65003Y-26697D01*
X65003Y-26669D01*
X64995Y-26631D01*
X64986Y-26611D01*
X64969Y-26592D01*
X64943Y-26583D01*
X64926Y-26583D01*
X64900Y-26592D01*
X64892Y-26602D01*
X64737Y-26650D02*
X64737Y-26783D01*
X64780Y-26573D02*
X64823Y-26716D01*
X64712Y-26716D01*
G54D12*
X51943Y-26955D02*
X51958Y-26940D01*
X51973Y-26895D01*
X51973Y-26865D01*
X51958Y-26820D01*
X51928Y-26790D01*
X51898Y-26775D01*
X51838Y-26760D01*
X51793Y-26760D01*
X51733Y-26775D01*
X51703Y-26790D01*
X51673Y-26820D01*
X51658Y-26865D01*
X51658Y-26895D01*
X51673Y-26940D01*
X51688Y-26955D01*
X51658Y-27240D02*
X51658Y-27090D01*
X51808Y-27075D01*
X51793Y-27090D01*
X51778Y-27120D01*
X51778Y-27195D01*
X51793Y-27225D01*
X51808Y-27240D01*
X51838Y-27255D01*
X51913Y-27255D01*
X51943Y-27240D01*
X51958Y-27225D01*
X51973Y-27195D01*
X51973Y-27120D01*
X51958Y-27090D01*
X51943Y-27075D01*
X52091Y-31657D02*
X51776Y-31657D01*
X51776Y-31777D01*
X51791Y-31807D01*
X51806Y-31822D01*
X51836Y-31837D01*
X51881Y-31837D01*
X51911Y-31822D01*
X51926Y-31807D01*
X51941Y-31777D01*
X51941Y-31657D01*
X52091Y-32137D02*
X52091Y-31957D01*
X52091Y-32047D02*
X51776Y-32047D01*
X51821Y-32017D01*
X51851Y-31987D01*
X51866Y-31957D01*
G54D18*
X66905Y-29964D02*
X66305Y-29964D01*
X66305Y-30107D01*
X66333Y-30193D01*
X66391Y-30250D01*
X66448Y-30278D01*
X66562Y-30307D01*
X66648Y-30307D01*
X66762Y-30278D01*
X66819Y-30250D01*
X66876Y-30193D01*
X66905Y-30107D01*
X66905Y-29964D01*
X66876Y-30536D02*
X66905Y-30621D01*
X66905Y-30764D01*
X66876Y-30821D01*
X66848Y-30850D01*
X66791Y-30878D01*
X66733Y-30878D01*
X66676Y-30850D01*
X66648Y-30821D01*
X66619Y-30764D01*
X66591Y-30650D01*
X66562Y-30593D01*
X66533Y-30564D01*
X66476Y-30536D01*
X66419Y-30536D01*
X66362Y-30564D01*
X66333Y-30593D01*
X66305Y-30650D01*
X66305Y-30793D01*
X66333Y-30878D01*
X66905Y-31450D02*
X66905Y-31107D01*
X66905Y-31278D02*
X66305Y-31278D01*
X66391Y-31221D01*
X66448Y-31164D01*
X66476Y-31107D01*
X66562Y-31793D02*
X66533Y-31736D01*
X66505Y-31707D01*
X66448Y-31678D01*
X66419Y-31678D01*
X66362Y-31707D01*
X66333Y-31736D01*
X66305Y-31793D01*
X66305Y-31907D01*
X66333Y-31964D01*
X66362Y-31993D01*
X66419Y-32021D01*
X66448Y-32021D01*
X66505Y-31993D01*
X66533Y-31964D01*
X66562Y-31907D01*
X66562Y-31793D01*
X66591Y-31736D01*
X66619Y-31707D01*
X66676Y-31678D01*
X66791Y-31678D01*
X66848Y-31707D01*
X66876Y-31736D01*
X66905Y-31793D01*
X66905Y-31907D01*
X66876Y-31964D01*
X66848Y-31993D01*
X66791Y-32021D01*
X66676Y-32021D01*
X66619Y-31993D01*
X66591Y-31964D01*
X66562Y-31907D01*
X66591Y-32478D02*
X66619Y-32564D01*
X66648Y-32593D01*
X66705Y-32621D01*
X66791Y-32621D01*
X66848Y-32593D01*
X66876Y-32564D01*
X66905Y-32507D01*
X66905Y-32278D01*
X66305Y-32278D01*
X66305Y-32478D01*
X66333Y-32536D01*
X66362Y-32564D01*
X66419Y-32593D01*
X66476Y-32593D01*
X66533Y-32564D01*
X66562Y-32536D01*
X66591Y-32478D01*
X66591Y-32278D01*
X66362Y-32850D02*
X66333Y-32878D01*
X66305Y-32936D01*
X66305Y-33078D01*
X66333Y-33136D01*
X66362Y-33164D01*
X66419Y-33193D01*
X66476Y-33193D01*
X66562Y-33164D01*
X66905Y-32821D01*
X66905Y-33193D01*
X66305Y-33564D02*
X66305Y-33621D01*
X66333Y-33678D01*
X66362Y-33707D01*
X66419Y-33736D01*
X66533Y-33764D01*
X66676Y-33764D01*
X66791Y-33736D01*
X66848Y-33707D01*
X66876Y-33678D01*
X66905Y-33621D01*
X66905Y-33564D01*
X66876Y-33507D01*
X66848Y-33478D01*
X66791Y-33450D01*
X66676Y-33421D01*
X66533Y-33421D01*
X66419Y-33450D01*
X66362Y-33478D01*
X66333Y-33507D01*
X66305Y-33564D01*
G54D16*
X60708Y-35684D02*
X60748Y-35627D01*
X60777Y-35684D02*
X60777Y-35564D01*
X60731Y-35564D01*
X60720Y-35569D01*
X60714Y-35575D01*
X60708Y-35587D01*
X60708Y-35604D01*
X60714Y-35615D01*
X60720Y-35621D01*
X60731Y-35627D01*
X60777Y-35627D01*
X60594Y-35684D02*
X60663Y-35684D01*
X60628Y-35684D02*
X60628Y-35564D01*
X60640Y-35581D01*
X60651Y-35592D01*
X60663Y-35598D01*
X60039Y-35684D02*
X60079Y-35627D01*
X60108Y-35684D02*
X60108Y-35564D01*
X60062Y-35564D01*
X60051Y-35569D01*
X60045Y-35575D01*
X60039Y-35587D01*
X60039Y-35604D01*
X60045Y-35615D01*
X60051Y-35621D01*
X60062Y-35627D01*
X60108Y-35627D01*
X59993Y-35575D02*
X59988Y-35569D01*
X59976Y-35564D01*
X59948Y-35564D01*
X59936Y-35569D01*
X59931Y-35575D01*
X59925Y-35587D01*
X59925Y-35598D01*
X59931Y-35615D01*
X59999Y-35684D01*
X59925Y-35684D01*
M02*
